<svg xmlns="http://www.w3.org/2000/svg" width="1200" height="600" style="background-color: rgb(245, 241, 237)" data-real-to-screen-transform="matrix(142.1935728505,0,0,-142.1935728505,369.2767086928,351.4835529434)" data-software-used-string="@tscircuit/core@0.0.571"><style>
              .boundary { fill: rgb(245, 241, 237); }
              .schematic-boundary { fill: none; stroke: #fff; }
              .component { fill: none; stroke: rgb(132, 0, 0); }
              .chip { fill: rgb(255, 255, 194); stroke: rgb(132, 0, 0); }
              .component-pin { fill: none; stroke: rgb(132, 0, 0); }
              .trace:hover {
                filter: invert(1);
              }
              .trace:hover .trace-crossing-outline {
                opacity: 0;
              }
              .trace:hover .trace-junction {
                filter: invert(1);
              }
              .text { font-family: sans-serif; fill: rgb(0, 150, 0); }
              .pin-number { fill: rgb(169, 0, 0); }
              .port-label { fill: rgb(0, 100, 100); }
              .component-name { fill: rgb(0, 100, 100); }
            </style><rect class="boundary" x="0" y="0" width="1200" height="600"/><g data-circuit-json-type="schematic_component" data-schematic-component-id="schematic_component_0"><rect class="component chip" x="340.8379941227" y="280.38676651815" width="56.87742914019998" height="142.1935728505" stroke-width="2.84387145701px" fill="rgb(255, 255, 194)" stroke="rgb(132, 0, 0)"/><rect class="component-overlay" x="340.8379941227" y="280.38676651815" width="56.87742914019998" height="142.1935728505" fill="transparent"/><text x="340.8379941227" y="441.065503839215" fill="#006464" text-anchor="start" dominant-baseline="middle" font-family="sans-serif" font-size="25.59484311309px" transform="rotate(0, 340.8379941227, 441.065503839215)"></text><text x="340.8379941227" y="261.901602047585" fill="#006464" text-anchor="start" dominant-baseline="middle" font-family="sans-serif" font-size="25.59484311309px" transform="rotate(0, 340.8379941227, 261.901602047585)">J8</text><line class="component-pin" x1="451.74898094609" y1="308.82548108825" x2="397.7154232629" y2="308.82548108825" stroke-width="2.84387145701px"/><text class="pin-number" x="426.15413783300005" y="305.98160963124" style="font-family: sans-serif;" fill="rgb(169, 0, 0)" text-anchor="middle" dominant-baseline="auto" font-size="21.329035927575px" transform="">1</text><line class="component-pin" x1="451.74898094609" y1="337.26419565835" x2="397.7154232629" y2="337.26419565835" stroke-width="2.84387145701px"/><text class="pin-number" x="426.15413783300005" y="334.42032420134" style="font-family: sans-serif;" fill="rgb(169, 0, 0)" text-anchor="middle" dominant-baseline="auto" font-size="21.329035927575px" transform="">2</text><line class="component-pin" x1="451.74898094609" y1="365.70291022845004" x2="397.7154232629" y2="365.70291022845004" stroke-width="2.84387145701px"/><text class="pin-number" x="426.15413783300005" y="362.85903877144" style="font-family: sans-serif;" fill="rgb(169, 0, 0)" text-anchor="middle" dominant-baseline="auto" font-size="21.329035927575px" transform="">3</text><line class="component-pin" x1="451.74898094609" y1="394.14162479855" x2="397.7154232629" y2="394.14162479855" stroke-width="2.84387145701px"/><text class="pin-number" x="426.15413783300005" y="391.29775334154" style="font-family: sans-serif;" fill="rgb(169, 0, 0)" text-anchor="middle" dominant-baseline="auto" font-size="21.329035927575px" transform="">4</text></g><g data-circuit-json-type="schematic_component" data-schematic-component-id="schematic_component_1"><rect class="component-overlay" x="578.3935728505297" y="346.8023770025526" width="150.48819319365998" height="37.6220589629329" fill="transparent"/><path d="M 578.3935728505297 365.61340648401904 L 616.0156175941053 365.61340648401904" stroke="rgb(132, 0, 0)" fill="none" stroke-width="2.84387145701px" stroke-linecap="round"/><path d="M 691.2597070812568 365.61340648401904 L 728.8817660441897 365.61340648401904" stroke="rgb(132, 0, 0)" fill="none" stroke-width="2.84387145701px" stroke-linecap="round"/><path d="M 653.6376481183238 346.8023770025526 L 691.2596928618993 346.8023770025526 L 691.2596928618993 384.4244359654855 L 616.0155891553906 384.4244359654855 L 616.0155891553906 346.8023770025526 L 653.6376481183235 346.8023770025526" stroke="rgb(132, 0, 0)" fill="none" stroke-width="2.84387145701px" stroke-linecap="round"/><text x="651.1754668689163" y="339.57664319163854" fill="rgb(15, 15, 15)" font-family="sans-serif" text-anchor="middle" dominant-baseline="auto" font-size="25.59484311309px">R8</text><text x="651.1754668689163" y="394.82432846442737" fill="rgb(15, 15, 15)" font-family="sans-serif" text-anchor="middle" dominant-baseline="hanging" font-size="25.59484311309px">1kΩ</text></g><g data-circuit-json-type="schematic_component" data-schematic-component-id="schematic_component_2"><rect class="component-overlay" x="448.5665323727658" y="183.7037296663206" width="125.74190444591261" height="68.12754289505759" fill="transparent"/><path d="M 480.16729073848603 202.08034356337154 L 448.5665323727658 202.08034356337154" stroke="rgb(132, 0, 0)" fill="none" stroke-width="2.84387145701px" stroke-linecap="round"/><path d="M 574.3084368186784 201.8365242440047 L 542.7849464404451 201.8365242440047" stroke="rgb(132, 0, 0)" fill="none" stroke-width="2.84387145701px" stroke-linecap="round"/><path d="M 511.0993838278769 220.23051419565795 L 511.0993838278769 251.8312725613782" stroke="rgb(132, 0, 0)" fill="none" stroke-width="2.84387145701px" stroke-linecap="round"/><path d="M 528.5594748317626 184.00189536923074 L 528.5594748317626 219.83277033368046" stroke="rgb(132, 0, 0)" fill="none" stroke-width="2.84387145701px" stroke-linecap="round"/><path d="M 517.5972035264261 184.6143088681406 L 517.5972035264261 219.24184228362844" stroke="rgb(132, 0, 0)" fill="none" stroke-width="2.84387145701px" stroke-linecap="round"/><path d="M 504.8671106266258 184.57473639681638 L 504.8671106266258 219.16070663096008" stroke="rgb(132, 0, 0)" fill="none" stroke-width="2.84387145701px" stroke-linecap="round"/><path d="M 517.3201820077988 184.51060709546067 L 504.9802398331857 184.51060709546067" stroke="rgb(132, 0, 0)" fill="none" stroke-width="2.84387145701px" stroke-linecap="round"/><path d="M 517.2925680159514 219.28831114323606 L 505.03132998391106 219.28831114323606" stroke="rgb(132, 0, 0)" fill="none" stroke-width="2.84387145701px" stroke-linecap="round"/><path d="M 494.263735899164 183.98820212816526 L 494.263735899164 219.81907709261495" stroke="rgb(132, 0, 0)" fill="none" stroke-width="2.84387145701px" stroke-linecap="round"/><path d="M 493.6031329984151 220.2970039103229 L 493.6031329984151 220.2970039103229 L 491.38111026376953 219.09875967284916 L 489.38220962916495 217.85657773827936 L 487.5989432790107 216.57500661674078 L 486.0238233977161 215.2585948183608 L 484.64936216969033 213.91189085326675 L 483.4680717793427 212.53944323158598 L 482.47246441108246 211.14580046344585 L 481.6550522493189 209.73551105897366 L 481.00834747846125 208.31312352829679 L 480.5248622829188 206.88318638154257 L 480.19710884710076 205.45024812883833 L 480.01759935541645 204.0188572803114 L 479.9788459922751 202.5935623460892 L 480.073360942086 201.17891183629894 L 480.2936563892585 199.77945426106808 L 480.63224451820173 198.39973813052393 L 481.08163751332495 197.0443119547938 L 481.63434755903756 195.71772424400507 L 482.2828868397487 194.42452350828503 L 483.0197675398677 193.1692582577611 L 483.83750184380375 191.95647700256058 L 484.7286019359662 190.79072825281077 L 485.6855800007643 189.6765605186391 L 486.7009482226073 188.61852231017284 L 487.76721878590445 187.62116213753936 L 488.876903875065 186.689028510866 L 490.0225156744983 185.8266699402801 L 491.1965663686135 185.03863493590902 L 492.39156814181996 184.32947200788007 L 493.6000331785269 183.7037296663206 L 493.6000331785269 183.7037296663206" stroke="rgb(132, 0, 0)" fill="none" stroke-width="2.84387145701px" stroke-linecap="round"/><path d="M 529.2094700919768 220.3150340553603 L 529.2094700919768 220.3150340553603 L 531.4314928266224 219.11678981788657 L 533.4303934612269 217.87460788331674 L 535.2136598113811 216.59303676177817 L 536.7887796926757 215.27662496339818 L 538.1632409207015 213.92992099830414 L 539.3445313110491 212.5574733766234 L 540.3401386793093 211.16383060848324 L 541.157550841073 209.75354120401107 L 541.8042556119306 208.3311536733342 L 542.287740807473 206.90121652657996 L 542.6154942432911 205.4682782738757 L 542.7950037349754 204.0368874253488 L 542.8337570981167 202.61159249112657 L 542.7392421483058 201.19694198133635 L 542.5189467011334 199.7974844061055 L 542.1803585721901 198.41776827556131 L 541.7309655770669 197.0623420998312 L 541.1782555313542 195.73575438904246 L 540.5297162506431 194.44255365332242 L 539.7928355505242 193.1872884027985 L 538.9751012465881 191.97450714759796 L 538.0840011544257 190.80875839784818 L 537.1270230896275 189.69459066367648 L 536.1116548677845 188.63655245521022 L 535.0453843044874 187.63919228257674 L 533.9356992153268 186.70705865590338 L 532.7900874158935 185.8447000853175 L 531.6160367217783 185.0566650809464 L 530.4210349485718 184.34750215291746 L 529.2125699118649 183.72175981135803 L 529.2125699118649 183.72175981135803" stroke="rgb(132, 0, 0)" fill="none" stroke-width="2.84387145701px" stroke-linecap="round"/><path d="M 504.8560337473008 201.83763335387295 L 494.2466868897792 201.83763335387295" stroke="rgb(132, 0, 0)" fill="none" stroke-width="2.84387145701px" stroke-linecap="round"/><text x="508.5360887288155" y="176.52566273056124" fill="rgb(15, 15, 15)" font-family="sans-serif" text-anchor="middle" dominant-baseline="auto" font-size="25.59484311309px">VSEL</text></g><g class="trace" data-circuit-json-type="schematic_trace" data-schematic-trace-id="schematic_trace_0"><path d="M 454.59285240310004 394.14162479855 L 511.4702815433 394.14162479855 L 511.4702815433 451.01905393875" class="trace-invisible-hover-outline" stroke="rgb(0, 150, 0)" fill="none" stroke-width="22.75097165608px" stroke-linecap="round" opacity="0" stroke-linejoin="round"/><path d="M 454.59285240310004 394.14162479855 L 511.4702815433 394.14162479855 L 511.4702815433 451.01905393875" stroke="rgb(0, 150, 0)" fill="none" stroke-width="2.84387145701px" stroke-linecap="round" stroke-linejoin="round"/></g><g class="trace" data-circuit-json-type="schematic_trace" data-schematic-trace-id="schematic_trace_1"><path d="M 575.2738600815469 365.6640558346687 L 514.9333562423234 365.6640558346687 L 514.9333562423234 365.70291022845004 L 454.59285240310004 365.70291022845004" class="trace-invisible-hover-outline" stroke="rgb(0, 150, 0)" fill="none" stroke-width="22.75097165608px" stroke-linecap="round" opacity="0" stroke-linejoin="round"/><path d="M 575.2738600815469 365.6640558346687 L 514.9333562423234 365.6640558346687 L 514.9333562423234 365.70291022845004 L 454.59285240310004 365.70291022845004" stroke="rgb(0, 150, 0)" fill="none" stroke-width="2.84387145701px" stroke-linecap="round" stroke-linejoin="round"/></g><g class="trace" data-circuit-json-type="schematic_trace" data-schematic-trace-id="schematic_trace_2"><path d="M 732.0538487060533 365.7417646222313 L 795.8574272443 365.7417646222313 L 795.8574272443 365.70291022845004" class="trace-invisible-hover-outline" stroke="rgb(0, 150, 0)" fill="none" stroke-width="22.75097165608px" stroke-linecap="round" opacity="0" stroke-linejoin="round"/><path d="M 732.0538487060533 365.7417646222313 L 795.8574272443 365.7417646222313 L 795.8574272443 365.70291022845004" stroke="rgb(0, 150, 0)" fill="none" stroke-width="2.84387145701px" stroke-linecap="round" stroke-linejoin="round"/></g><g class="trace" data-circuit-json-type="schematic_trace" data-schematic-trace-id="schematic_trace_3"><path d="M 454.59285240310004 337.26419565835 L 511.4702815433 337.26419565835 L 511.4702815433 337.26419565835" class="trace-invisible-hover-outline" stroke="rgb(0, 150, 0)" fill="none" stroke-width="22.75097165608px" stroke-linecap="round" opacity="0" stroke-linejoin="round"/><path d="M 454.59285240310004 337.26419565835 L 511.4702815433 337.26419565835 L 511.4702815433 337.26419565835" stroke="rgb(0, 150, 0)" fill="none" stroke-width="2.84387145701px" stroke-linecap="round" stroke-linejoin="round"/></g><g class="trace" data-circuit-json-type="schematic_trace" data-schematic-trace-id="schematic_trace_4"><path d="M 510.9736278320478 252.3176172385988 L 510.9736278320478 308.82548108825 L 454.59285240310004 308.82548108825" class="trace-invisible-hover-outline" stroke="rgb(0, 150, 0)" fill="none" stroke-width="22.75097165608px" stroke-linecap="round" opacity="0" stroke-linejoin="round"/><path d="M 510.9736278320478 252.3176172385988 L 510.9736278320478 308.82548108825 L 454.59285240310004 308.82548108825" stroke="rgb(0, 150, 0)" fill="none" stroke-width="2.84387145701px" stroke-linecap="round" stroke-linejoin="round"/></g><g class="trace" data-circuit-json-type="schematic_trace" data-schematic-trace-id="schematic_trace_5"><path d="M 448.08027301168886 201.95460178689987 L 397.7154232629 201.95460178689987 L 397.7154232629 152.41255095270003" class="trace-invisible-hover-outline" stroke="rgb(0, 150, 0)" fill="none" stroke-width="22.75097165608px" stroke-linecap="round" opacity="0" stroke-linejoin="round"/><path d="M 448.08027301168886 201.95460178689987 L 397.7154232629 201.95460178689987 L 397.7154232629 152.41255095270003" stroke="rgb(0, 150, 0)" fill="none" stroke-width="2.84387145701px" stroke-linecap="round" stroke-linejoin="round"/></g><g class="trace" data-circuit-json-type="schematic_trace" data-schematic-trace-id="schematic_trace_6"><path d="M 574.8602900749112 201.97229066736247 L 629.490947009215 201.97229066736247 L 629.490947009215 152.41255095270003" class="trace-invisible-hover-outline" stroke="rgb(0, 150, 0)" fill="none" stroke-width="22.75097165608px" stroke-linecap="round" opacity="0" stroke-linejoin="round"/><path d="M 574.8602900749112 201.97229066736247 L 629.490947009215 201.97229066736247 L 629.490947009215 152.41255095270003" stroke="rgb(0, 150, 0)" fill="none" stroke-width="2.84387145701px" stroke-linecap="round" stroke-linejoin="round"/></g><rect class="component-overlay" x="478.73163333020085" y="450.8649872025665" width="63.89060100483124" height="68.74055360697349" fill="transparent"/><path d="M 511.31583088446985 450.8649872025665 L 511.31583088446985 497.73673807942447" stroke="rgb(132, 0, 0)" fill="none" stroke-width="2.84387145701px" stroke-linecap="round"/><path d="M 478.73163333020085 497.732074130235 L 542.6222343350321 497.732074130235" stroke="rgb(132, 0, 0)" fill="none" stroke-width="2.84387145701px" stroke-linecap="round"/><path d="M 486.7179637880638 508.6688074698876 L 534.6359038771691 508.6688074698876" stroke="rgb(132, 0, 0)" fill="none" stroke-width="2.84387145701px" stroke-linecap="round"/><path d="M 502.69061048443234 519.60554080954 L 518.6632571808009 519.60554080954" stroke="rgb(132, 0, 0)" fill="none" stroke-width="2.84387145701px" stroke-linecap="round"/><text x="508.25366385441964" y="536.2608019717346" fill="rgb(15, 15, 15)" font-family="sans-serif" text-anchor="middle" dominant-baseline="hanging" font-size="25.59484311309px">GND</text><path class="net-label" d="
    M 795.8574272443,365.70291022845004
    L 803.535880178227,350.34600436059605
    L 884.7568489904326,350.34600436059605
    L 884.7568489904326,381.059816096304
    L 803.535880178227,381.059816096304
    Z
  " fill="rgba(255, 255, 255, 0.6)" stroke="rgb(132, 0, 0)" stroke-width="2.84387145701px"/><text class="net-label-text" x="808.654848800845" y="365.70291022845004" fill="rgb(132, 0, 0)" text-anchor="start" dominant-baseline="central" font-family="sans-serif" font-variant-numeric="tabular-nums" font-size="25.59484311309px" transform="">RXD3</text><path class="net-label" d="
    M 511.4702815433,337.26419565835
    L 519.148734477227,321.907289790496
    L 598.4737889847593,321.907289790496
    L 598.4737889847593,352.621101526204
    L 519.148734477227,352.621101526204
    Z
  " fill="rgba(255, 255, 255, 0.6)" stroke="rgb(132, 0, 0)" stroke-width="2.84387145701px"/><text class="net-label-text" x="524.267703099845" y="337.26419565835" fill="rgb(132, 0, 0)" text-anchor="start" dominant-baseline="central" font-family="sans-serif" font-variant-numeric="tabular-nums" font-size="25.59484311309px" transform="">TXD3</text><rect class="component-overlay" x="384.43660536546963" y="92.05018485165073" width="26.345554080953946" height="58.23706986443932" fill="transparent"/><path d="M 397.4012607830444 92.05018485165073 L 384.43660536546963 119.21921035169683" stroke="rgb(132, 0, 0)" fill="none" stroke-width="2.84387145701px" stroke-linecap="round"/><path d="M 397.8175040288493 92.06434733150664 L 410.7821594464236 119.23344392833917" stroke="rgb(132, 0, 0)" fill="none" stroke-width="2.84387145701px" stroke-linecap="round"/><path d="M 397.55128922175874 92.76708218789116 L 397.55128922175874 150.28725471609005" stroke="rgb(132, 0, 0)" fill="none" stroke-width="2.84387145701px" stroke-linecap="round"/><text x="396.91527158975555" y="83.71747085032413" fill="rgb(15, 15, 15)" font-family="sans-serif" text-anchor="middle" dominant-baseline="ideographic" font-size="25.59484311309px">V3_3</text><rect class="component-overlay" x="616.2121291117846" y="92.05018485165073" width="26.345554080954003" height="58.23706986443932" fill="transparent"/><path d="M 629.1767845293593 92.05018485165073 L 616.2121291117846 119.21921035169683" stroke="rgb(132, 0, 0)" fill="none" stroke-width="2.84387145701px" stroke-linecap="round"/><path d="M 629.5930277751644 92.06434733150664 L 642.5576831927386 119.23344392833917" stroke="rgb(132, 0, 0)" fill="none" stroke-width="2.84387145701px" stroke-linecap="round"/><path d="M 629.3268129680737 92.76708218789116 L 629.3268129680737 150.28725471609005" stroke="rgb(132, 0, 0)" fill="none" stroke-width="2.84387145701px" stroke-linecap="round"/><text x="628.6907953360706" y="83.71747085032413" fill="rgb(15, 15, 15)" font-family="sans-serif" text-anchor="middle" dominant-baseline="ideographic" font-size="25.59484311309px">V5</text></svg>