<svg xmlns="http://www.w3.org/2000/svg" width="1200" height="600" style="background-color: rgb(245, 241, 237)" data-real-to-screen-transform="matrix(103.0998694068,0,0,-103.0998694068,356.2719087222,316.7090521685)" data-software-used-string="@tscircuit/core@0.0.562"><style>
              .boundary { fill: rgb(245, 241, 237); }
              .schematic-boundary { fill: none; stroke: #fff; }
              .component { fill: none; stroke: rgb(132, 0, 0); }
              .chip { fill: rgb(255, 255, 194); stroke: rgb(132, 0, 0); }
              .component-pin { fill: none; stroke: rgb(132, 0, 0); }
              .trace:hover {
                filter: invert(1);
              }
              .trace:hover .trace-crossing-outline {
                opacity: 0;
              }
              .trace:hover .trace-junction {
                filter: invert(1);
              }
              .text { font-family: sans-serif; fill: rgb(0, 150, 0); }
              .pin-number { fill: rgb(169, 0, 0); }
              .port-label { fill: rgb(0, 100, 100); }
              .component-name { fill: rgb(0, 100, 100); }
            </style><rect class="boundary" x="0" y="0" width="1200" height="600"/><g data-circuit-json-type="schematic_component" data-schematic-component-id="schematic_component_0"><rect class="component chip" x="335.65193484084" y="275.46910440578" width="41.23994776272002" height="82.47989552544004" stroke-width="2.061997388136px" fill="rgb(255, 255, 194)" stroke="rgb(132, 0, 0)"/><rect class="component-overlay" x="335.65193484084" y="275.46910440578" width="41.23994776272002" height="82.47989552544004" fill="transparent"/><text x="335.65193484084" y="371.351982954104" fill="#006464" text-anchor="start" dominant-baseline="middle" font-family="sans-serif" font-size="18.557976493224px" transform="rotate(0, 335.65193484084, 371.351982954104)"></text><text x="335.65193484084" y="262.06612138289603" fill="#006464" text-anchor="start" dominant-baseline="middle" font-family="sans-serif" font-size="18.557976493224px" transform="rotate(0, 335.65193484084, 262.06612138289603)">U9</text><line class="component-pin" x1="416.069832978144" y1="337.32902604986003" x2="376.89188260356" y2="337.32902604986003" stroke-width="2.061997388136px"/><text class="pin-number" x="397.51185648492003" y="335.267028661724" style="font-family: sans-serif;" fill="rgb(169, 0, 0)" text-anchor="middle" dominant-baseline="auto" font-size="15.464980411019999px" transform="">1</text><line class="component-pin" x1="416.069832978144" y1="316.7090521685" x2="376.89188260356" y2="316.7090521685" stroke-width="2.061997388136px"/><text class="pin-number" x="397.51185648492003" y="314.64705478036404" style="font-family: sans-serif;" fill="rgb(169, 0, 0)" text-anchor="middle" dominant-baseline="auto" font-size="15.464980411019999px" transform="">2</text><line class="component-pin" x1="416.069832978144" y1="296.08907828714" x2="376.89188260356" y2="296.08907828714" stroke-width="2.061997388136px"/><text class="pin-number" x="397.51185648492003" y="294.02708089900403" style="font-family: sans-serif;" fill="rgb(169, 0, 0)" text-anchor="middle" dominant-baseline="auto" font-size="15.464980411019999px" transform="">3</text></g><g data-circuit-json-type="schematic_component" data-schematic-component-id="schematic_component_1"><rect class="component-overlay" x="535.1282476457818" y="345.2741288060607" width="54.557007354440316" height="109.11402501886766" fill="transparent"/><path d="M 562.4067513230018 345.2741288060607 L 562.4067513230018 391.6475840263363" stroke="rgb(132, 0, 0)" fill="none" stroke-width="2.061997388136px" stroke-linecap="round"/><path d="M 562.4067513230018 408.0146882946658 L 562.4067513230018 454.38815382492834" stroke="rgb(132, 0, 0)" fill="none" stroke-width="2.061997388136px" stroke-linecap="round"/><path d="M 535.1282476457818 391.64758402633635 L 589.6852550002221 391.6475840263363" stroke="rgb(132, 0, 0)" fill="none" stroke-width="2.061997388136px" stroke-linecap="round"/><path d="M 535.1282476457818 408.0146882946658 L 589.6852550002221 408.0146882946658" stroke="rgb(132, 0, 0)" fill="none" stroke-width="2.061997388136px" stroke-linecap="round"/><text x="585.7834507525089" y="378.67480714258" fill="rgb(15, 15, 15)" font-family="sans-serif" text-anchor="start" dominant-baseline="auto" font-size="18.557976493224px">C13</text><text x="585.7834507525089" y="419.70308824529997" fill="rgb(15, 15, 15)" font-family="sans-serif" text-anchor="start" dominant-baseline="hanging" font-size="18.557976493224px">2.2µF</text></g><g data-circuit-json-type="schematic_component" data-schematic-component-id="schematic_component_2"><rect class="component-overlay" x="662.1773506768783" y="344.6509210254574" width="27.27851398720702" height="109.11402501886766" fill="transparent"/><path d="M 675.8166076704817 453.7649460443251 L 675.8166076704817 426.4864423671049" stroke="rgb(132, 0, 0)" fill="none" stroke-width="2.061997388136px" stroke-linecap="round"/><path d="M 675.8166076704817 371.9294350126645 L 675.8166076704817 344.6509210254574" stroke="rgb(132, 0, 0)" fill="none" stroke-width="2.061997388136px" stroke-linecap="round"/><path d="M 662.1773506768783 399.2079489998717 L 662.1773506768783 371.92944532265153 L 689.4558646640853 371.92944532265153 L 689.4558646640853 426.48646298707894 L 662.1773506768783 426.48646298707894 L 662.1773506768783 399.20794899987186" stroke="rgb(132, 0, 0)" fill="none" stroke-width="2.061997388136px" stroke-linecap="round"/><text x="704.2326586018087" y="384.4972163034711" fill="rgb(15, 15, 15)" font-family="sans-serif" text-anchor="start" dominant-baseline="middle" font-size="18.557976493224px">R22</text><text x="704.2326586018087" y="417.4891745136471" fill="rgb(15, 15, 15)" font-family="sans-serif" text-anchor="start" dominant-baseline="middle" font-size="18.557976493224px">1MΩ</text></g><g data-circuit-json-type="schematic_component" data-schematic-component-id="schematic_component_3"><rect class="component-overlay" x="662.1773506768783" y="179.6911299745774" width="27.27851398720702" height="109.11402501886766" fill="transparent"/><path d="M 675.8166076704817 288.80515499344506 L 675.8166076704817 261.5266513162249" stroke="rgb(132, 0, 0)" fill="none" stroke-width="2.061997388136px" stroke-linecap="round"/><path d="M 675.8166076704817 206.96964396178444 L 675.8166076704817 179.6911299745774" stroke="rgb(132, 0, 0)" fill="none" stroke-width="2.061997388136px" stroke-linecap="round"/><path d="M 662.1773506768783 234.24815794899163 L 662.1773506768783 206.9696542717715 L 689.4558646640853 206.9696542717715 L 689.4558646640853 261.5266719361989 L 662.1773506768783 261.5266719361989 L 662.1773506768783 234.24815794899183" stroke="rgb(132, 0, 0)" fill="none" stroke-width="2.061997388136px" stroke-linecap="round"/><text x="704.2326586018087" y="219.53742525259105" fill="rgb(15, 15, 15)" font-family="sans-serif" text-anchor="start" dominant-baseline="middle" font-size="18.557976493224px">R21</text><text x="704.2326586018087" y="252.52938346276704" fill="rgb(15, 15, 15)" font-family="sans-serif" text-anchor="start" dominant-baseline="middle" font-size="18.557976493224px">10kΩ</text></g><g data-circuit-json-type="schematic_component" data-schematic-component-id="schematic_component_4"><rect class="component-overlay" x="723.2213863494142" y="138.50974293768047" width="90.85130593165081" height="26.545649185502697" fill="transparent"/><path d="M 749.9922056497014 151.83401952025932 L 723.2213863494142 151.83401952025932" stroke="rgb(132, 0, 0)" fill="none" stroke-width="2.061997388136px" stroke-linecap="round"/><path d="M 814.072692281065 151.65723417418738 L 787.445408618966 151.65723417418738" stroke="rgb(132, 0, 0)" fill="none" stroke-width="2.061997388136px" stroke-linecap="round"/><path d="M 775.5810674271352 151.6580383531688 L 761.8550415834388 151.6580383531688" stroke="rgb(132, 0, 0)" fill="none" stroke-width="2.061997388136px" stroke-linecap="round"/><path d="M 775.7769881089689 138.72593305383953 L 775.7769881089689 164.705718606103" stroke="rgb(132, 0, 0)" fill="none" stroke-width="2.061997388136px" stroke-linecap="round"/><path d="M 761.6511925216477 138.71600453641565 L 761.6511925216477 164.69579008867913" stroke="rgb(132, 0, 0)" fill="none" stroke-width="2.061997388136px" stroke-linecap="round"/><path d="M 761.1722111483576 165.0423190597424 L 761.1722111483576 165.0423190597424 L 759.561095757075 164.17351168733833 L 758.1117588408307 163.27284654005854 L 756.8187712315262 162.34362159256338 L 755.6767037610628 161.38913481951323 L 754.6801272613418 160.4126841955684 L 753.8236125642647 159.41756769538924 L 753.101730501733 158.4070832936361 L 752.5090519056479 157.38452896496932 L 752.0401476079109 156.35320268404922 L 751.6895884404233 155.31640242553615 L 751.4519452350867 154.27742616409049 L 751.3217888238022 153.23957187437253 L 751.2936900384715 152.20613753104266 L 751.3622197109956 151.18042110876118 L 751.5219486732764 150.16572058218847 L 751.7674477572149 149.16533392598484 L 752.0932877947125 148.18255911481063 L 752.4940396176709 147.2206941233262 L 752.9642740579911 146.28303692619193 L 753.4985619475749 145.3728854980681 L 754.0914741183233 144.49353781361506 L 754.737581402138 143.64829184749317 L 755.4314546309201 142.84044557436278 L 756.1676646365713 142.07329696888422 L 756.9407822509929 141.35014400571782 L 757.7453783060861 140.67428465952398 L 758.5760236337526 140.04901690496294 L 759.4272890658934 139.47763871669514 L 760.2937454344103 138.96344806938086 L 761.1699635712044 138.50974293768047 L 761.1699635712044 138.50974293768047" stroke="rgb(132, 0, 0)" fill="none" stroke-width="2.061997388136px" stroke-linecap="round"/><path d="M 776.2482782320013 165.05539212318317 L 776.2482782320013 165.05539212318317 L 777.859393623284 164.18658475077908 L 779.3087305395283 163.28591960349928 L 780.6017181488328 162.35669465600412 L 781.7437856192962 161.40220788295397 L 782.7403621190172 160.42575725900915 L 783.5968768160942 159.43064075882998 L 784.318758878626 158.42015635707685 L 784.9114374747111 157.39760202841006 L 785.3803417724481 156.36627574748996 L 785.7309009399356 155.3294754889769 L 785.9685441452723 154.29049922753123 L 786.0987005565568 153.25264493781327 L 786.1267993418875 152.2192105944834 L 786.0582696693633 151.19349417220192 L 785.8985407070826 150.1787936456292 L 785.6530416231441 149.17840698942558 L 785.3272015856464 148.19563217825137 L 784.9264497626881 147.23376718676695 L 784.4562153223678 146.29610998963267 L 783.9219274327841 145.38595856150883 L 783.3290152620356 144.5066108770558 L 782.682907978221 143.66136491093394 L 781.9890347494388 142.85351863780352 L 781.2528247437876 142.08637003232496 L 780.479707129366 141.3632170691586 L 779.6751110742728 140.68735772296472 L 778.8444657466064 140.06208996840368 L 777.9932003144655 139.49071178013588 L 777.1267439459486 138.9765211328216 L 776.2505258091545 138.5228160011212 L 776.2505258091545 138.5228160011212" stroke="rgb(132, 0, 0)" fill="none" stroke-width="2.061997388136px" stroke-linecap="round"/><text x="766.5438999242169" y="133.29617159415267" fill="rgb(15, 15, 15)" font-family="sans-serif" text-anchor="middle" dominant-baseline="auto" font-size="18.557976493224px">LP</text></g><g class="trace" data-circuit-json-type="schematic_trace" data-schematic-trace-id="schematic_trace_0"><path d="M 675.8533318439647 456.02694686912344 L 675.88150388328 456.02694686912344 L 675.88150388328 491.97883016006" class="trace-invisible-hover-outline" stroke="rgb(0, 150, 0)" fill="none" stroke-width="16.495979105088px" stroke-linecap="round" opacity="0" stroke-linejoin="round"/><path d="M 675.8533318439647 456.02694686912344 L 675.88150388328 456.02694686912344 L 675.88150388328 491.97883016006" stroke="rgb(0, 150, 0)" fill="none" stroke-width="2.061997388136px" stroke-linecap="round" stroke-linejoin="round"/></g><g class="trace" data-circuit-json-type="schematic_trace" data-schematic-trace-id="schematic_trace_1"><path d="M 418.13183036628004 337.32902604986003 L 469.68176506968 337.32902604986003 L 469.68176506968 491.97883016006" class="trace-invisible-hover-outline" stroke="rgb(0, 150, 0)" fill="none" stroke-width="16.495979105088px" stroke-linecap="round" opacity="0" stroke-linejoin="round"/><path d="M 418.13183036628004 337.32902604986003 L 469.68176506968 337.32902604986003 L 469.68176506968 491.97883016006" stroke="rgb(0, 150, 0)" fill="none" stroke-width="2.061997388136px" stroke-linecap="round" stroke-linejoin="round"/></g><g class="trace" data-circuit-json-type="schematic_trace" data-schematic-trace-id="schematic_trace_2"><path d="M 418.13183036628004 316.7090521685 L 717.121451646 316.7090521685" class="trace-invisible-hover-outline" stroke="rgb(0, 150, 0)" fill="none" stroke-width="16.495979105088px" stroke-linecap="round" opacity="0" stroke-linejoin="round"/><path d="M 418.13183036628004 316.7090521685 L 717.121451646 316.7090521685" stroke="rgb(0, 150, 0)" fill="none" stroke-width="2.061997388136px" stroke-linecap="round" stroke-linejoin="round"/></g><g class="trace" data-circuit-json-type="schematic_trace" data-schematic-trace-id="schematic_trace_3"><path d="M 675.9096759225954 342.35094851875664 L 717.121451646 342.35094851875664 L 717.121451646 316.7090521685" class="trace-invisible-hover-outline" stroke="rgb(0, 150, 0)" fill="none" stroke-width="16.495979105088px" stroke-linecap="round" opacity="0" stroke-linejoin="round"/><path d="M 675.9096759225954 342.35094851875664 L 717.121451646 342.35094851875664 L 717.121451646 316.7090521685" stroke="rgb(0, 150, 0)" fill="none" stroke-width="2.061997388136px" stroke-linecap="round" stroke-linejoin="round"/></g><g class="trace" data-circuit-json-type="schematic_trace" data-schematic-trace-id="schematic_trace_4"><path d="M 675.8533318439647 291.0671558182434 L 717.121451646 291.0671558182434 L 717.121451646 316.7090521685" class="trace-invisible-hover-outline" stroke="rgb(0, 150, 0)" fill="none" stroke-width="16.495979105088px" stroke-linecap="round" opacity="0" stroke-linejoin="round"/><path d="M 675.8533318439647 291.0671558182434 L 717.121451646 291.0671558182434 L 717.121451646 316.7090521685" stroke="rgb(0, 150, 0)" fill="none" stroke-width="2.061997388136px" stroke-linecap="round" stroke-linejoin="round"/></g><g class="trace" data-circuit-json-type="schematic_trace" data-schematic-trace-id="schematic_trace_5"><path d="M 562.4434651864976 342.35934084812635 L 562.4716475358 342.35934084812635 L 562.4716475358 265.15911746510005" class="trace-invisible-hover-outline" stroke="rgb(0, 150, 0)" fill="none" stroke-width="16.495979105088px" stroke-linecap="round" opacity="0" stroke-linejoin="round"/><path d="M 562.4434651864976 342.35934084812635 L 562.4716475358 342.35934084812635 L 562.4716475358 265.15911746510005" stroke="rgb(0, 150, 0)" fill="none" stroke-width="2.061997388136px" stroke-linecap="round" stroke-linejoin="round"/></g><g class="trace" data-circuit-json-type="schematic_trace" data-schematic-trace-id="schematic_trace_6"><path d="M 418.13183036628004 296.08907828714 L 562.4716475358 296.08907828714 L 562.4716475358 265.15911746510005" class="trace-invisible-hover-outline" stroke="rgb(0, 150, 0)" fill="none" stroke-width="16.495979105088px" stroke-linecap="round" opacity="0" stroke-linejoin="round"/><path d="M 418.13183036628004 296.08907828714 L 562.4716475358 296.08907828714 L 562.4716475358 265.15911746510005" stroke="rgb(0, 150, 0)" fill="none" stroke-width="2.061997388136px" stroke-linecap="round" stroke-linejoin="round"/></g><g class="trace" data-circuit-json-type="schematic_trace" data-schematic-trace-id="schematic_trace_7"><path d="M 562.4998298851023 456.0185545397537 L 562.4716475358 456.0185545397537 L 562.4716475358 491.97883016006" class="trace-invisible-hover-outline" stroke="rgb(0, 150, 0)" fill="none" stroke-width="16.495979105088px" stroke-linecap="round" opacity="0" stroke-linejoin="round"/><path d="M 562.4998298851023 456.0185545397537 L 562.4716475358 456.0185545397537 L 562.4716475358 491.97883016006" stroke="rgb(0, 150, 0)" fill="none" stroke-width="2.061997388136px" stroke-linecap="round" stroke-linejoin="round"/></g><g class="trace" data-circuit-json-type="schematic_trace" data-schematic-trace-id="schematic_trace_8"><path d="M 722.709382087953 151.7428483057429 L 699.3095290052743 151.7428483057429 L 699.3095290052743 177.39115746787664 L 675.9096759225954 177.39115746787664" class="trace-invisible-hover-outline" stroke="rgb(0, 150, 0)" fill="none" stroke-width="16.495979105088px" stroke-linecap="round" opacity="0" stroke-linejoin="round"/><path d="M 722.709382087953 151.7428483057429 L 699.3095290052743 151.7428483057429 L 699.3095290052743 177.39115746787664 L 675.9096759225954 177.39115746787664" stroke="rgb(0, 150, 0)" fill="none" stroke-width="2.061997388136px" stroke-linecap="round" stroke-linejoin="round"/></g><g class="trace" data-circuit-json-type="schematic_trace" data-schematic-trace-id="schematic_trace_9"><path d="M 814.633390610847 151.7556739294971 L 871.7712557562 151.7556739294971 L 871.7712557562 110.50931335490003" class="trace-invisible-hover-outline" stroke="rgb(0, 150, 0)" fill="none" stroke-width="16.495979105088px" stroke-linecap="round" opacity="0" stroke-linejoin="round"/><path d="M 814.633390610847 151.7556739294971 L 871.7712557562 151.7556739294971 L 871.7712557562 110.50931335490003" stroke="rgb(0, 150, 0)" fill="none" stroke-width="2.061997388136px" stroke-linecap="round" stroke-linejoin="round"/></g><rect class="component-overlay" x="652.1437899510584" y="491.86712145155775" width="46.324967351693545" height="49.8415080074077" fill="transparent"/><path d="M 675.7695168051304 491.86712145155775 L 675.7695168051304 525.8522819436772" stroke="rgb(132, 0, 0)" fill="none" stroke-width="2.061997388136px" stroke-linecap="round"/><path d="M 652.1437899510584 525.8489002679607 L 698.4687573027519 525.8489002679607" stroke="rgb(132, 0, 0)" fill="none" stroke-width="2.061997388136px" stroke-linecap="round"/><path d="M 657.9344147362652 533.7787648634632 L 692.678132517545 533.7787648634632" stroke="rgb(132, 0, 0)" fill="none" stroke-width="2.061997388136px" stroke-linecap="round"/><path d="M 669.5156539966919 541.7086294589654 L 681.0968932571185 541.7086294589654" stroke="rgb(132, 0, 0)" fill="none" stroke-width="2.061997388136px" stroke-linecap="round"/><text x="673.5492404974809" y="553.7848099524664" fill="rgb(15, 15, 15)" font-family="sans-serif" text-anchor="middle" dominant-baseline="hanging" font-size="18.557976493224px">GND</text><rect class="component-overlay" x="445.94405113745836" y="491.86712145155775" width="46.32496735169349" height="49.8415080074077" fill="transparent"/><path d="M 469.5697779915304 491.86712145155775 L 469.5697779915304 525.8522819436772" stroke="rgb(132, 0, 0)" fill="none" stroke-width="2.061997388136px" stroke-linecap="round"/><path d="M 445.94405113745836 525.8489002679607 L 492.26901848915185 525.8489002679607" stroke="rgb(132, 0, 0)" fill="none" stroke-width="2.061997388136px" stroke-linecap="round"/><path d="M 451.7346759226652 533.7787648634632 L 486.478393703945 533.7787648634632" stroke="rgb(132, 0, 0)" fill="none" stroke-width="2.061997388136px" stroke-linecap="round"/><path d="M 463.3159151830919 541.7086294589654 L 474.8971544435185 541.7086294589654" stroke="rgb(132, 0, 0)" fill="none" stroke-width="2.061997388136px" stroke-linecap="round"/><text x="467.349501683881" y="553.7848099524664" fill="rgb(15, 15, 15)" font-family="sans-serif" text-anchor="middle" dominant-baseline="hanging" font-size="18.557976493224px">GND</text><path class="net-label" d="
    M 717.121451646,316.7090521685
    L 722.6888445939671,305.57426627256564
    L 854.931610419756,305.57426627256564
    L 854.931610419756,327.8438380644344
    L 722.6888445939671,327.8438380644344
    Z
  " fill="rgba(255, 255, 255, 0.6)" stroke="rgb(132, 0, 0)" stroke-width="2.061997388136px"/><text class="net-label-text" x="726.400439892612" y="316.7090521685" fill="rgb(132, 0, 0)" text-anchor="start" dominant-baseline="central" font-family="sans-serif" font-variant-numeric="tabular-nums" font-size="18.557976493224px" transform="">PERIPH_POW</text><rect class="component-overlay" x="552.8436146813112" y="221.39235686301032" width="19.102292253757014" height="42.22577840400095" fill="transparent"/><path d="M 562.2438586843328 221.39235686301032 L 552.8436146813112 241.09172108047625" stroke="rgb(132, 0, 0)" fill="none" stroke-width="2.061997388136px" stroke-linecap="round"/><path d="M 562.5456629320471 221.40262561000324 L 571.9459069350683 241.10204137740385" stroke="rgb(132, 0, 0)" fill="none" stroke-width="2.061997388136px" stroke-linecap="round"/><path d="M 562.3526393565437 221.91215547459865 L 562.3526393565437 263.61813526701127" stroke="rgb(132, 0, 0)" fill="none" stroke-width="2.061997388136px" stroke-linecap="round"/><text x="561.8914839506739" y="215.35058079592864" fill="rgb(15, 15, 15)" font-family="sans-serif" text-anchor="middle" dominant-baseline="ideographic" font-size="18.557976493224px">VIN</text><rect class="component-overlay" x="538.7339336035784" y="491.86712145155775" width="46.324967351693545" height="49.8415080074077" fill="transparent"/><path d="M 562.3596604576504 491.86712145155775 L 562.3596604576504 525.8522819436772" stroke="rgb(132, 0, 0)" fill="none" stroke-width="2.061997388136px" stroke-linecap="round"/><path d="M 538.7339336035784 525.8489002679607 L 585.058900955272 525.8489002679607" stroke="rgb(132, 0, 0)" fill="none" stroke-width="2.061997388136px" stroke-linecap="round"/><path d="M 544.5245583887853 533.7787648634632 L 579.2682761700651 533.7787648634632" stroke="rgb(132, 0, 0)" fill="none" stroke-width="2.061997388136px" stroke-linecap="round"/><path d="M 556.1057976492119 541.7086294589654 L 567.6870369096386 541.7086294589654" stroke="rgb(132, 0, 0)" fill="none" stroke-width="2.061997388136px" stroke-linecap="round"/><text x="560.139384150001" y="553.7848099524664" fill="rgb(15, 15, 15)" font-family="sans-serif" text-anchor="middle" dominant-baseline="hanging" font-size="18.557976493224px">GND</text><rect class="component-overlay" x="862.1432229017113" y="66.74255275281038" width="19.102292253757014" height="42.22577840400098" fill="transparent"/><path d="M 871.5434669047329 66.74255275281038 L 862.1432229017113 86.4419169702763" stroke="rgb(132, 0, 0)" fill="none" stroke-width="2.061997388136px" stroke-linecap="round"/><path d="M 871.8452711524471 66.7528214998033 L 881.2455151554683 86.45223726720393" stroke="rgb(132, 0, 0)" fill="none" stroke-width="2.061997388136px" stroke-linecap="round"/><path d="M 871.6522475769438 67.26235136439871 L 871.6522475769438 108.96833115681136" stroke="rgb(132, 0, 0)" fill="none" stroke-width="2.061997388136px" stroke-linecap="round"/><text x="871.1910921710739" y="60.70077668572871" fill="rgb(15, 15, 15)" font-family="sans-serif" text-anchor="middle" dominant-baseline="ideographic" font-size="18.557976493224px">V3_3</text></svg>