<svg xmlns="http://www.w3.org/2000/svg" width="1200" height="600" style="background-color: rgb(245, 241, 237)" data-real-to-screen-transform="matrix(133.0731014904,0,0,-133.0731014904,398.8291132194,194.4286728176)" data-software-used-string="@tscircuit/core@0.0.586"><style>
              .boundary { fill: rgb(245, 241, 237); }
              .schematic-boundary { fill: none; stroke: #fff; }
              .component { fill: none; stroke: rgb(132, 0, 0); }
              .chip { fill: rgb(255, 255, 194); stroke: rgb(132, 0, 0); }
              .component-pin { fill: none; stroke: rgb(132, 0, 0); }
              .trace:hover {
                filter: invert(1);
              }
              .trace:hover .trace-crossing-outline {
                opacity: 0;
              }
              .trace:hover .trace-junction {
                filter: invert(1);
              }
              .text { font-family: sans-serif; fill: rgb(0, 150, 0); }
              .pin-number { fill: rgb(169, 0, 0); }
              .port-label { fill: rgb(0, 100, 100); }
              .component-name { fill: rgb(0, 100, 100); }
            </style><rect class="boundary" x="0" y="0" width="1200" height="600"/><g data-circuit-json-type="schematic_component" data-schematic-component-id="schematic_component_0"><rect class="component chip" x="388.576909237961" y="147.21499618204524" width="53.229240596160025" height="106.45848119232002" stroke-width="2.6614620298080003px" fill="rgb(255, 255, 194)" stroke="rgb(132, 0, 0)"/><rect class="component-overlay" x="388.576909237961" y="147.21499618204524" width="53.229240596160025" height="106.45848119232002" fill="transparent"/><text x="388.576909237961" y="270.97298056811724" fill="#006464" text-anchor="start" dominant-baseline="middle" font-family="sans-serif" font-size="23.953158268272px" transform="rotate(0, 388.576909237961, 270.97298056811724)"></text><text x="388.576909237961" y="129.91549298829324" fill="#006464" text-anchor="start" dominant-baseline="middle" font-family="sans-serif" font-size="23.953158268272px" transform="rotate(0, 388.576909237961, 129.91549298829324)">U1</text><line class="component-pin" x1="492.373928400473" y1="227.05885707628528" x2="441.806149834121" y2="227.05885707628528" stroke-width="2.6614620298080003px"/><g data-schematic-port-id="source_port_0"><rect x="492.373928400473" y="224.39739504647727" width="5.322924059616001" height="5.322924059616001" opacity="0"/></g><text class="pin-number" x="468.420770132201" y="224.39739504647727" style="font-family: sans-serif;" fill="rgb(169, 0, 0)" text-anchor="middle" dominant-baseline="auto" font-size="19.96096522356px" transform="">1</text><line class="component-pin" x1="492.373928400473" y1="200.44423677820527" x2="441.806149834121" y2="200.44423677820527" stroke-width="2.6614620298080003px"/><g data-schematic-port-id="source_port_1"><rect x="492.373928400473" y="197.78277474839726" width="5.322924059616001" height="5.322924059616001" opacity="0"/></g><text class="pin-number" x="468.420770132201" y="197.78277474839726" style="font-family: sans-serif;" fill="rgb(169, 0, 0)" text-anchor="middle" dominant-baseline="auto" font-size="19.96096522356px" transform="">2</text><line class="component-pin" x1="492.373928400473" y1="173.82961648012525" x2="441.806149834121" y2="173.82961648012525" stroke-width="2.6614620298080003px"/><g data-schematic-port-id="source_port_2"><rect x="492.373928400473" y="171.16815445031725" width="5.322924059616001" height="5.322924059616001" opacity="0"/></g><text class="pin-number" x="468.420770132201" y="171.16815445031725" style="font-family: sans-serif;" fill="rgb(169, 0, 0)" text-anchor="middle" dominant-baseline="auto" font-size="19.96096522356px" transform="">3</text></g><g data-circuit-json-type="schematic_component" data-schematic-component-id="schematic_component_1"><rect class="component-overlay" x="757.5811882601568" y="172.1713065628826" width="75.29603442156485" height="131.28042051098225" fill="transparent"/><path d="M 797.6444689556795 172.1713065628826 L 797.6444689556795 232.02758761326453" stroke="rgb(132, 0, 0)" fill="none" stroke-width="2.6614620298080003px" stroke-linecap="round"/><path d="M 797.6444689556795 243.59655053022527 L 797.6444689556795 303.45172707386484" stroke="rgb(132, 0, 0)" fill="none" stroke-width="2.6614620298080003px" stroke-linecap="round"/><path d="M 762.1246233204822 232.53499534924742 L 832.8772226817216 232.53499534924742" stroke="rgb(132, 0, 0)" fill="none" stroke-width="2.6614620298080003px" stroke-linecap="round"/><path d="M 832.4151662587266 251.2827597211397 L 832.4151662587266 251.2827597211397 L 832.2508077939688 251.18500266905937 L 832.0863265321475 251.08773306319085 L 831.9217223483071 250.9909521645083 L 831.7569951174918 250.89466123398577 L 831.592144714746 250.79886153259739 L 831.4271710151143 250.70355432131723 L 831.2620738936407 250.60874086111943 L 831.0968532253698 250.514422412978 L 830.9315088853459 250.42060023786715 L 830.7660407486132 250.32727559676087 L 830.6004486902164 250.2344497506333 L 830.4347325851995 250.14212396045855 L 830.2688923086072 250.0502994872107 L 830.1029277354835 249.95897759186383 L 829.936838740873 249.86815953539207 L 829.77062519982 249.77784657876947 L 829.6042869873688 249.68803998297017 L 829.4378239785638 249.5987410089682 L 829.2712360484494 249.50995091773774 L 829.1045230720699 249.42167097025285 L 828.9376849244696 249.3339024274876 L 828.770721480693 249.2466465504161 L 828.6036326157845 249.15990460001245 L 828.4364182047882 249.07367783725076 L 828.2690781227487 248.9879675231051 L 828.1016122447102 248.9027749185496 L 827.9340204457171 248.81810128455828 L 827.7663026008139 248.73394788210533 L 827.5984585850447 248.65031597216478 L 827.4304882734541 248.56720681571073 L 827.2623915410863 248.48462167371733 L 827.0941682629857 248.4025618071586 L 826.9258183141967 248.3210284770087 L 826.7573415697636 248.24002294424167 L 826.5887379047308 248.15954646983164 L 826.4200071941426 248.0796003147527 L 826.2511493130435 248.00018573997892 L 826.0821641364777 247.92130400648443 L 825.9130515394896 247.84295637524332 L 825.7438113971236 247.76514410722967 L 825.574443584424 247.68786846341757 L 825.4049479764352 247.61113070478115 L 825.2353244482016 247.53493209229447 L 825.0655728747674 247.45927388693164 L 824.8956931311772 247.38415734966674 L 824.725685092475 247.3095837414739 L 824.5555486337056 247.23555432332716 L 824.385283629913 247.16207035620067 L 824.2148899561417 247.08913310106848 L 824.0443674874361 247.01674381890473 L 823.8737160988405 246.94490377068348 L 823.7029356653992 246.87361421737884 L 823.5320260621568 246.8028764199649 L 823.3609871641572 246.73269163941578 L 823.1898188464453 246.66306113670552 L 823.018520984065 246.59398617280826 L 822.847093452061 246.52546800869808 L 822.6755361254775 246.4575079053491 L 822.5038488793588 246.39010712373536 L 822.3320315887493 246.32326692483102 L 822.1600841286935 246.25698856961012 L 821.9880063742355 246.1912733190468 L 821.8157982004199 246.1261224341151 L 821.643459482291 246.06153717578917 L 821.470990094893 245.9975188050431 L 821.2983899132704 245.93406858285095 L 821.1256588124676 245.87118777018682 L 820.9527966675288 245.80887762802485 L 820.7798033534984 245.74713941733907 L 820.6066787454209 245.68597439910363 L 820.4334227183406 245.62538383429262 L 820.2600351473018 245.5653689838801 L 820.0865159073488 245.50593110884017 L 819.9128648735261 245.44707147014697 L 819.739081920878 245.38879132877454 L 819.5651669244487 245.331091945697 L 819.3911197592829 245.27397458188847 L 819.2169403004247 245.21744049832301 L 819.0426284229185 245.16149095597473 L 818.8681840018087 245.1061272158177 L 818.6936069121397 245.05135053882606 L 818.5188970289556 244.99716218597385 L 818.3440542273012 244.94356341823521 L 818.1690783822204 244.89055549658423 L 817.9939693687579 244.838139681995 L 817.8187270619578 244.7863172354416 L 817.6433513368647 244.73508941789814 L 817.4678420685228 244.6844574903387 L 817.2921991319765 244.6344227137374 L 817.1164224022702 244.58498634906832 L 816.9405117544483 244.53614965730554 L 816.7644670635549 244.48791389942318 L 816.5882882046346 244.44028033639535 L 816.4119750527317 244.3932502291961 L 816.2355274828905 244.34682483879953 L 816.0589453701555 244.30100542617978 L 815.8822285895708 244.2557932523109 L 815.705377016181 244.21118957816702 L 815.5283905250304 244.1671956647222 L 815.3512689911634 244.12381277295057 L 815.3512689911634 244.12381277295057 L 815.1282296939269 244.07000670340213 L 814.905043090915 244.0169985157114 L 814.681710577559 243.9647864474848 L 814.4582335492898 243.91336873632886 L 814.2346134015388 243.86274361985 L 814.010851529737 243.81290933565464 L 813.7869493293156 243.7638641213493 L 813.5629081957059 243.7156062145404 L 813.3387295243388 243.66813385283442 L 813.1144147106456 243.6214452738378 L 812.8899651500574 243.575538715157 L 812.6653822380055 243.53041241439848 L 812.4406673699209 243.48606460916872 L 812.2158219412348 243.44249353707414 L 811.9908473473783 243.39969743572124 L 811.7657449837827 243.35767454271647 L 811.5405162458792 243.31642309566624 L 811.3151625290986 243.27594133217707 L 811.0896852288724 243.2362274898554 L 810.8640857406317 243.19727980630768 L 810.6383654598076 243.15909651914038 L 810.4125257818312 243.12167586595993 L 810.1865681021337 243.0850160843728 L 809.9604938161464 243.0491154119855 L 809.7343043193002 243.0139720864044 L 809.5080010070266 242.97958434523602 L 809.2815852747564 242.94595042608682 L 809.0550585179209 242.91306856656323 L 808.8284221319512 242.88093700427171 L 808.6016775122786 242.84955397681873 L 808.3748260543342 242.81891772181075 L 808.1478691535491 242.78902647685422 L 807.9208082053544 242.7598784795556 L 807.6936446051815 242.73147196752137 L 807.4663797484613 242.70380517835795 L 807.2390150306252 242.67687634967183 L 807.0115518471041 242.65068371906946 L 806.7839915933292 242.6252255241573 L 806.5563356647319 242.6005000025418 L 806.3285854567431 242.57650539182941 L 806.1007423647941 242.5532399296266 L 805.8728077843159 242.53070185353985 L 805.6447831107398 242.5088894011756 L 805.4166697394969 242.48780081014027 L 805.1884690660185 242.4674343180404 L 804.9601824857355 242.44778816248237 L 804.7318113940792 242.42886058107268 L 804.5033571864808 242.41064981141778 L 804.2748212583713 242.39315409112413 L 804.0462050051821 242.37637165779822 L 803.817509822344 242.36030074904644 L 803.5887371052886 242.34493960247528 L 803.3598882494467 242.3302864556912 L 803.1309646502496 242.3163395463007 L 802.9019677031284 242.30309711191018 L 802.6728988035144 242.2905573901261 L 802.4437593468385 242.27871861855496 L 802.2145507285322 242.2675790348032 L 801.9852743440264 242.25713687647726 L 801.7559315887522 242.2473903811836 L 801.526523858141 242.23833778652872 L 801.2970525476238 242.22997733011903 L 801.0675190526318 242.222307249561 L 800.8379247685963 242.21532578246112 L 800.6082710909482 242.2090311664258 L 800.3785594151186 242.20342163906153 L 800.148791136539 242.19849543797477 L 799.9189676506404 242.19425080077198 L 799.6890903528539 242.19068596505957 L 799.4591606386107 242.1877991684441 L 799.2291799033419 242.1855886485319 L 798.9991495424787 242.18405264292954 L 798.7690709514522 242.1831893892434 L 798.5389455256937 242.18299712508 L 798.3087746606344 242.18347408804576 L 798.0785597517053 242.18461851574713 L 797.8483021943374 242.1864286457906 L 797.6180033839622 242.1889027157826 L 797.3876647160107 242.19203896332962 L 797.157287585914 242.1958356260381 L 796.9268733891033 242.2002909415145 L 796.6964235210098 242.2054031473653 L 796.4659393770647 242.21117048119692 L 796.2354223526991 242.21759118061584 L 796.0048738433441 242.22466348322848 L 795.7742952444308 242.2323856266414 L 795.5436879513906 242.24075584846094 L 795.3130533596545 242.2497723862936 L 795.0823928646536 242.2594334777459 L 794.8517078618191 242.2697373604242 L 794.6209997465824 242.280682271935 L 794.3902699143742 242.2922664498848 L 794.159519760626 242.30448813188002 L 793.9287506807689 242.3173455555271 L 793.697964070234 242.3308369584325 L 793.4671613244525 242.34496057820274 L 793.2363438388554 242.35971465244424 L 793.0055130088741 242.37509741876343 L 792.7746702299396 242.3911071147668 L 792.5438168974831 242.4077419780608 L 792.5438168974831 242.4077419780608 L 792.3481462936063 242.42528213992648 L 792.152420561855 242.44309339541354 L 791.9566421896851 242.46117978438176 L 791.7608136645521 242.47954534669103 L 791.5649374739115 242.49819412220114 L 791.3690161052192 242.51713015077192 L 791.1730520459307 242.53635747226323 L 790.9770477835017 242.55588012653487 L 790.7810058053878 242.57570215344668 L 790.5849285990447 242.5958275928585 L 790.388818651928 242.61626048463015 L 790.1926784514933 242.63700486862146 L 789.9965104851964 242.65806478469224 L 789.8003172404926 242.67944427270237 L 789.604101204838 242.70114737251163 L 789.4078648656879 242.72317812397986 L 789.2116107104981 242.7455405669669 L 789.0153412267241 242.7682387413326 L 788.8190589018218 242.79127668693673 L 788.6227662232466 242.8146584436392 L 788.4264656784542 242.83838805129975 L 788.2301597549002 242.86246954977827 L 788.0338509400405 242.8869069789346 L 787.8375417213304 242.9117043786285 L 787.6412345862258 242.9368657887199 L 787.4449320221821 242.96239524906855 L 787.2486365166552 242.98829679953428 L 787.0523505571006 243.01457447997697 L 786.8560766309739 243.04123233025643 L 786.6598172257309 243.0682743902325 L 786.4635748288271 243.09570469976495 L 786.2673519277181 243.12352729871367 L 786.0711510098597 243.15174622693846 L 785.8749745627075 243.18036552429916 L 785.6788250737171 243.20938923065563 L 785.4827050303442 243.23882138586765 L 785.2866169200444 243.2686660297951 L 785.0905632302733 243.29892720229773 L 784.8945464484866 243.32960894323546 L 784.6985690621399 243.36071529246806 L 784.5026335586889 243.39225028985538 L 784.3067424255893 243.42421797525728 L 784.1108981502965 243.45662238853353 L 783.9151032202664 243.489467569544 L 783.7193601229544 243.5227575581485 L 783.5236713458164 243.55649639420687 L 783.328039376308 243.59068811757894 L 783.1324667018846 243.62533676812453 L 782.9369558100021 243.66044638570347 L 782.7415091881161 243.69602101017563 L 782.5461293236821 243.73206468140077 L 782.3508187041559 243.76858143923877 L 782.155579816993 243.80557532354945 L 781.9604151496492 243.84305037419264 L 781.76532718958 243.88101063102815 L 781.5703184242411 243.91946013391583 L 781.3753913410883 243.9584029227155 L 781.1805484275769 243.997843037287 L 780.9857921711628 244.03778451749017 L 780.7911250593016 244.0782314031848 L 780.596549579449 244.11918773423074 L 780.4020682190603 244.16065755048783 L 780.2076834655916 244.2026448918159 L 780.0133978064983 244.24515379807477 L 779.8192137292361 244.28818830912425 L 779.6251337212606 244.33175246482423 L 779.4311602700275 244.37585030503448 L 779.2372958629924 244.42048586961485 L 779.043542987611 244.46566319842515 L 778.8499041313388 244.51138633132527 L 778.6563817816316 244.55765930817498 L 778.4629784259449 244.60448616883411 L 778.2696965517346 244.65187095316253 L 778.076538646456 244.69981770102004 L 777.883507197565 244.7483304522665 L 777.6906046925171 244.7974132467617 L 777.497833618768 244.8470701243655 L 777.3051964637734 244.8973051249377 L 777.1126957149888 244.94812228833814 L 776.92033385987 244.9995256544267 L 776.7281133858725 245.0515192630631 L 776.536036780452 245.10410715410728 L 776.3441065310642 245.15729336741904 L 776.1523251251646 245.21108194285816 L 775.960695050209 245.26547692028453 L 775.769218793653 245.32048233955794 L 775.5778988429521 245.37610224053824 L 775.3867376855621 245.43234066308526 L 775.1957378089387 245.4892016470588 L 775.0049017005374 245.54668923231873 L 774.8142318478139 245.60480745872485 L 774.6237307382238 245.66356036613703 L 774.4334008592227 245.72295199441504 L 774.2432446982664 245.78298638341877 L 774.0532647428104 245.84366757300802 L 773.8634634803104 245.9049996030426 L 773.6738433982221 245.96698651338238 L 773.4844069840011 246.02963234388716 L 773.295156725103 246.09294113441678 L 773.1060951089834 246.15691692483105 L 773.1060951089834 246.15691692483105 L 772.9954044178993 246.19473501545383 L 772.8847717520637 246.23282465903972 L 772.7741977768951 246.2711858436121 L 772.6636831578124 246.30981855719443 L 772.5532285602344 246.34872278781012 L 772.4428346495797 246.38789852348256 L 772.3325020912671 246.42734575223523 L 772.2222315507153 246.46706446209149 L 772.1120236933431 246.50705464107483 L 772.0018791845691 246.5473162772086 L 771.8917986898122 246.58784935851625 L 771.7817828744911 246.62865387302122 L 771.6718324040245 246.6697298087469 L 771.5619479438311 246.71107715371673 L 771.4521301593296 246.75269589595413 L 771.3423797159389 246.7945860234825 L 771.2326972790778 246.83674752432532 L 771.1230835141647 246.87918038650594 L 771.0135390866186 246.9218845980478 L 770.9040646618581 246.96486014697433 L 770.7946609053021 247.00810702130894 L 770.6853284823692 247.0516252090751 L 770.5760680584781 247.09541469829617 L 770.4668802990477 247.1394754769956 L 770.3577658694966 247.1838075331968 L 770.2487254352436 247.2284108549232 L 770.1397596617074 247.2732854301982 L 770.0308692143068 247.31843124704525 L 769.9220547584605 247.36384829348776 L 769.8133169595872 247.40953655754916 L 769.7046564831056 247.45549602725282 L 769.5960739944346 247.50172669062223 L 769.4875701589929 247.54822853568078 L 769.379145642199 247.59500155045188 L 769.2708011094719 247.64204572295898 L 769.1625372262303 247.68936104122548 L 769.0543546578928 247.73694749327478 L 768.9462540698783 247.78480506713035 L 768.8382361276053 247.83293375081558 L 768.7303014964929 247.8813335323539 L 768.6224508419596 247.93000439976873 L 768.514684829424 247.97894634108349 L 768.4070041243052 248.02815934432158 L 768.2994093920217 248.07764339750648 L 768.1919012979922 248.12739848866153 L 768.0844805076356 248.17742460581022 L 767.9771476863706 248.22772173697592 L 767.8699034996158 248.2782898701821 L 767.76274861279 248.32912899345214 L 767.655683691312 248.38023909480947 L 767.5487094006005 248.43162016227754 L 767.4418264060743 248.48327218387973 L 767.335035373152 248.53519514763948 L 767.2283369672525 248.5873890415802 L 767.1217318537944 248.63985385372533 L 767.0152206981965 248.69258957209829 L 766.9088041658774 248.74559618472247 L 766.8024829222561 248.79887367962132 L 766.6962576327511 248.85242204481827 L 766.5901289627813 248.90624126833671 L 766.4840975777653 248.9603313382001 L 766.3781641431219 249.0146922424318 L 766.27232932427 249.0693239690553 L 766.166593786628 249.12422650609398 L 766.060958195615 249.17939984157124 L 765.9554232166494 249.23484396351054 L 765.84998951515 249.29055885993532 L 765.7446577565358 249.34654451886894 L 765.6394286062252 249.40280092833487 L 765.5343027296373 249.4593280763565 L 765.4292807921905 249.51612595095727 L 765.3243634593038 249.5731945401606 L 765.2195513963957 249.6305338319899 L 765.114845268885 249.68814381446862 L 765.0102457421906 249.74602447562012 L 764.905753481731 249.8041758034679 L 764.8013691529252 249.8625977860353 L 764.6970934211917 249.9212904113458 L 764.5929269519493 249.9802536674228 L 764.4888704106169 250.03948754228972 L 764.384924462613 250.09899202396997 L 764.2810897733564 250.158767100487 L 764.177367008266 250.21881275986422 L 764.0737568327602 250.27912899012503 L 763.9702599122581 250.33971577929287 L 763.8668769121782 250.40057311539115 L 763.7636084979395 250.4617009864433 L 763.6604553349604 250.52309938047276 L 763.5574180886598 250.58476828550292 L 763.4544974244566 250.6467076895572 L 763.3516940077692 250.70891758065903 L 763.2490085040165 250.77139794683185 L 763.1464415786173 250.83414877609906 L 763.0439938969903 250.89717005648407 L 762.9416661245542 250.9604617760103 L 762.8394589267277 251.02402392270122 L 762.7373729689297 251.08785648458021 L 762.6354089165787 251.1519594496707 L 762.5335674350936 251.21633280599607 L 762.4318491898931 251.28097654157983" stroke="rgb(132, 0, 0)" fill="none" stroke-width="2.6614620298080003px" stroke-linecap="round"/><path d="M 767.2624959251659 197.14663924563283 L 767.2624959251659 215.8390452073052 L 766.6007233914542 215.8390452073052 L 766.6007233914542 197.14663924563283" stroke="rgb(132, 0, 0)" fill="none" stroke-width="2.6614620298080003px" stroke-linecap="round"/><path d="M 757.5811882601568 206.1544240220688 L 776.2735942218291 206.1544240220688 L 776.2735942218291 206.81619655578058 L 757.5811882601568 206.81619655578058" stroke="rgb(132, 0, 0)" fill="none" stroke-width="2.6614620298080003px" stroke-linecap="round"/><text x="827.8172510706507" y="218.99633007582145" fill="rgb(15, 15, 15)" font-family="sans-serif" text-anchor="start" dominant-baseline="auto" font-size="23.953158268272px">C1</text><text x="827.8172510706507" y="258.72095480294143" fill="rgb(15, 15, 15)" font-family="sans-serif" text-anchor="start" dominant-baseline="hanging" font-size="23.953158268272px">1µF</text></g><g data-circuit-json-type="schematic_component" data-schematic-component-id="schematic_component_2"><rect class="component-overlay" x="621.307130757339" y="176.64118587625742" width="35.20893364087499" height="140.83569464156992" fill="transparent"/><path d="M 638.9115975777764 317.47688051782734 L 638.9115975777764 282.26796018426245" stroke="rgb(132, 0, 0)" fill="none" stroke-width="2.6614620298080003px" stroke-linecap="round"/><path d="M 638.9115975777764 211.85011951713244 L 638.9115975777765 176.64118587625742" stroke="rgb(132, 0, 0)" fill="none" stroke-width="2.6614620298080003px" stroke-linecap="round"/><path d="M 621.307130757339 247.05905315800763 L 621.307130757339 211.85013282444274 L 656.516064398214 211.85013282444274 L 656.516064398214 282.2679867988829 L 621.307130757339 282.2679867988829 L 621.307130757339 247.05905315800786" stroke="rgb(132, 0, 0)" fill="none" stroke-width="2.6614620298080003px" stroke-linecap="round"/><text x="675.588773322981" y="228.07161082302102" fill="rgb(15, 15, 15)" font-family="sans-serif" text-anchor="start" dominant-baseline="middle" font-size="23.953158268272px">R3</text><text x="675.588773322981" y="270.65500329994904" fill="rgb(15, 15, 15)" font-family="sans-serif" text-anchor="start" dominant-baseline="middle" font-size="23.953158268272px">10kΩ</text></g><g class="trace" data-circuit-json-type="schematic_trace" data-schematic-trace-id="schematic_trace_0"><path d="M 797.6918562871203 172.1713065628826 L 798.0484176906 172.1713065628826 L 798.0484176906 127.89212207239999" class="trace-invisible-hover-outline" stroke="rgb(0, 150, 0)" fill="none" stroke-width="21.291696238464002px" stroke-linecap="round" opacity="0" stroke-linejoin="round"/><path d="M 797.6918562871203 172.1713065628826 L 798.0484176906 172.1713065628826 L 798.0484176906 127.89212207239999" stroke="rgb(0, 150, 0)" fill="none" stroke-width="2.6614620298080003px" stroke-linecap="round" stroke-linejoin="round"/></g><g class="trace" data-circuit-json-type="schematic_trace" data-schematic-trace-id="schematic_trace_1"><path d="M 638.9589982165277 320.39649105721674 L 664.9753162002 320.39649105721674 L 664.9753162002 304.21398154717997" class="trace-invisible-hover-outline" stroke="rgb(0, 150, 0)" fill="none" stroke-width="21.291696238464002px" stroke-linecap="round" opacity="0" stroke-linejoin="round"/><path d="M 638.9589982165277 320.39649105721674 L 664.9753162002 320.39649105721674 L 664.9753162002 304.21398154717997" stroke="rgb(0, 150, 0)" fill="none" stroke-width="2.6614620298080003px" stroke-linecap="round" stroke-linejoin="round"/></g><g class="trace" data-circuit-json-type="schematic_trace" data-schematic-trace-id="schematic_trace_2"><path d="M 639.031722666492 173.6725645135893 L 639.031722666492 159.2729312899682 L 509.43502365390214 159.2729312899682 L 509.43502365390214 173.82961648012525 L 495.035390430281 173.82961648012525" class="trace-invisible-hover-outline" stroke="rgb(0, 150, 0)" fill="none" stroke-width="21.291696238464002px" stroke-linecap="round" opacity="0" stroke-linejoin="round"/><path d="M 639.031722666492 173.6725645135893 L 639.031722666492 159.2729312899682 L 509.43502365390214 159.2729312899682 L 509.43502365390214 173.82961648012525 L 495.035390430281 173.82961648012525" stroke="rgb(0, 150, 0)" fill="none" stroke-width="2.6614620298080003px" stroke-linecap="round" stroke-linejoin="round"/></g><g class="trace" data-circuit-json-type="schematic_trace" data-schematic-trace-id="schematic_trace_3"><path d="M 639.031722666492 173.6725645135893 L 639.031722666492 156.30529320081973 L 797.6918562871203 156.30529320081973 L 797.6918562871203 172.1713065628826" class="trace-invisible-hover-outline" stroke="rgb(0, 150, 0)" fill="none" stroke-width="21.291696238464002px" stroke-linecap="round" opacity="0" stroke-linejoin="round"/><path d="M 639.031722666492 173.6725645135893 L 639.031722666492 156.30529320081973 L 797.6918562871203 156.30529320081973 L 797.6918562871203 172.1713065628826" stroke="rgb(0, 150, 0)" fill="none" stroke-width="2.6614620298080003px" stroke-linecap="round" stroke-linejoin="round"/><circle cx="639.031722666492" cy="159.2729312899682" r="3.992193044712" class="trace-junction" fill="rgb(0, 150, 0)"/><circle cx="797.6918562871203" cy="172.1713065628826" r="3.992193044712" class="trace-junction" fill="rgb(0, 150, 0)"/></g><g class="trace" data-circuit-json-type="schematic_trace" data-schematic-trace-id="schematic_trace_4"><path d="M 638.9589982165277 320.39649105721674 L 638.9589982165277 334.78885183584134 L 509.42775120890565 334.78885183584134 L 509.42775120890565 200.44423677820527 L 495.035390430281 200.44423677820527" class="trace-invisible-hover-outline" stroke="rgb(0, 150, 0)" fill="none" stroke-width="21.291696238464002px" stroke-linecap="round" opacity="0" stroke-linejoin="round"/><path d="M 638.9589982165277 320.39649105721674 L 638.9589982165277 334.78885183584134 L 509.42775120890565 334.78885183584134 L 509.42775120890565 200.44423677820527 L 495.035390430281 200.44423677820527" stroke="rgb(0, 150, 0)" fill="none" stroke-width="2.6614620298080003px" stroke-linecap="round" stroke-linejoin="round"/><circle cx="638.9589982165277" cy="320.39649105721674" r="3.992193044712" class="trace-junction" fill="rgb(0, 150, 0)"/></g><g class="trace" data-circuit-json-type="schematic_trace" data-schematic-trace-id="schematic_trace_5"><path d="M 797.7646073517053 303.45172707386484 L 798.0484176906 303.45172707386484 L 798.0484176906 460.5748757984" class="trace-invisible-hover-outline" stroke="rgb(0, 150, 0)" fill="none" stroke-width="21.291696238464002px" stroke-linecap="round" opacity="0" stroke-linejoin="round"/><path d="M 797.7646073517053 303.45172707386484 L 798.0484176906 303.45172707386484 L 798.0484176906 460.5748757984" stroke="rgb(0, 150, 0)" fill="none" stroke-width="2.6614620298080003px" stroke-linecap="round" stroke-linejoin="round"/></g><g class="trace" data-circuit-json-type="schematic_trace" data-schematic-trace-id="schematic_trace_6"><path d="M 495.035390430281 227.05885707628528 L 531.9022147098001 227.05885707628528 L 531.9022147098001 460.5748757984" class="trace-invisible-hover-outline" stroke="rgb(0, 150, 0)" fill="none" stroke-width="21.291696238464002px" stroke-linecap="round" opacity="0" stroke-linejoin="round"/><path d="M 495.035390430281 227.05885707628528 L 531.9022147098001 227.05885707628528 L 531.9022147098001 460.5748757984" stroke="rgb(0, 150, 0)" fill="none" stroke-width="2.6614620298080003px" stroke-linecap="round" stroke-linejoin="round"/></g><g class="schematic-port-hover" data-schematic-port-id="source_port_0"><circle cx="495.035390430281" cy="227.05885707628528" r="5.322924059616001" fill="red" opacity="0"/></g><g class="schematic-port-hover" data-schematic-port-id="source_port_1"><circle cx="495.035390430281" cy="200.44423677820527" r="5.322924059616001" fill="red" opacity="0"/></g><g class="schematic-port-hover" data-schematic-port-id="source_port_2"><circle cx="495.035390430281" cy="173.82961648012525" r="5.322924059616001" fill="red" opacity="0"/></g><g class="schematic-port-hover" data-schematic-port-id="source_port_3"><circle cx="797.7646073517053" cy="303.45172707386484" r="5.322924059616001" fill="red" opacity="0"/></g><g class="schematic-port-hover" data-schematic-port-id="source_port_4"><circle cx="797.6918562871203" cy="172.1713065628826" r="5.322924059616001" fill="red" opacity="0"/></g><g class="schematic-port-hover" data-schematic-port-id="source_port_5"><circle cx="638.9589982165277" cy="320.39649105721674" r="5.322924059616001" fill="red" opacity="0"/></g><g class="schematic-port-hover" data-schematic-port-id="source_port_6"><circle cx="639.031722666492" cy="173.6725645135893" r="5.322924059616001" fill="red" opacity="0"/></g><rect class="component-overlay" x="785.6213195713682" y="71.40147267567258" width="24.655717707590384" height="54.50167228530117" fill="transparent"/><path d="M 797.7544059801673 71.40147267567258 L 785.6213195713682 96.82784332861442" stroke="rgb(132, 0, 0)" fill="none" stroke-width="2.6614620298080003px" stroke-linecap="round"/><path d="M 798.14395087016 71.41472675658102 L 810.2770372789586 96.84116394607362" stroke="rgb(132, 0, 0)" fill="none" stroke-width="2.6614620298080003px" stroke-linecap="round"/><path d="M 797.8948114095497 72.0723873314568 L 797.8948114095497 125.90314496097375" stroke="rgb(132, 0, 0)" fill="none" stroke-width="2.6614620298080003px" stroke-linecap="round"/><text x="797.2995887338931" y="63.60322924061347" fill="rgb(15, 15, 15)" font-family="sans-serif" text-anchor="middle" dominant-baseline="ideographic" font-size="23.953158268272px">VIN</text><path class="net-label" d="
    M 664.9753162002,304.21398154717997
    L 672.1612636806816,289.8420865862168
    L 718.6836199617255,289.8420865862168
    L 718.6836199617255,318.58587650814314
    L 672.1612636806816,318.58587650814314
    Z
  " fill="rgba(255, 255, 255, 0.6)" stroke="rgb(132, 0, 0)" stroke-width="2.6614620298080003px"/><text class="net-label-text" x="676.9518953343361" y="304.21398154717997" fill="rgb(132, 0, 0)" text-anchor="start" dominant-baseline="central" font-family="sans-serif" font-variant-numeric="tabular-nums" font-size="23.953158268272px" transform="">EN</text><rect class="component-overlay" x="767.4096668034504" y="460.43069109293515" width="59.79257895669832" height="64.3314496096433" fill="transparent"/><path d="M 797.9038736877612 460.43069109293515 L 797.9038736877612 504.29602998576075" stroke="rgb(132, 0, 0)" fill="none" stroke-width="2.6614620298080003px" stroke-linecap="round"/><path d="M 767.4096668034504 504.2916651880319 L 827.2022457601487 504.2916651880319" stroke="rgb(132, 0, 0)" fill="none" stroke-width="2.6614620298080003px" stroke-linecap="round"/><path d="M 774.8837441632791 514.5269029453052 L 819.72816840032 514.5269029453052" stroke="rgb(132, 0, 0)" fill="none" stroke-width="2.6614620298080003px" stroke-linecap="round"/><path d="M 789.8318855756261 524.7621407025784 L 804.7800269879732 524.7621407025784" stroke="rgb(132, 0, 0)" fill="none" stroke-width="2.6614620298080003px" stroke-linecap="round"/><text x="795.038117832545" y="540.3491128459402" fill="rgb(15, 15, 15)" font-family="sans-serif" text-anchor="middle" dominant-baseline="hanging" font-size="23.953158268272px">GND</text><rect class="component-overlay" x="501.2634638226503" y="460.43069109293515" width="59.79257895669838" height="64.3314496096433" fill="transparent"/><path d="M 531.7576707069612 460.43069109293515 L 531.7576707069612 504.29602998576075" stroke="rgb(132, 0, 0)" fill="none" stroke-width="2.6614620298080003px" stroke-linecap="round"/><path d="M 501.2634638226503 504.2916651880319 L 561.0560427793487 504.2916651880319" stroke="rgb(132, 0, 0)" fill="none" stroke-width="2.6614620298080003px" stroke-linecap="round"/><path d="M 508.737541182479 514.5269029453052 L 553.58196541952 514.5269029453052" stroke="rgb(132, 0, 0)" fill="none" stroke-width="2.6614620298080003px" stroke-linecap="round"/><path d="M 523.6856825948261 524.7621407025784 L 538.6338240071732 524.7621407025784" stroke="rgb(132, 0, 0)" fill="none" stroke-width="2.6614620298080003px" stroke-linecap="round"/><text x="528.891914851745" y="540.3491128459402" fill="rgb(15, 15, 15)" font-family="sans-serif" text-anchor="middle" dominant-baseline="hanging" font-size="23.953158268272px">GND</text></svg>