<svg xmlns="http://www.w3.org/2000/svg" width="1200" height="600" style="background-color: rgb(245, 241, 237)" data-real-to-screen-transform="matrix(147.2224039783,0,0,-147.2224039783,380.5156137538,298.5277759602)" data-software-used-string="@tscircuit/core@0.0.571"><style>
              .boundary { fill: rgb(245, 241, 237); }
              .schematic-boundary { fill: none; stroke: #fff; }
              .component { fill: none; stroke: rgb(132, 0, 0); }
              .chip { fill: rgb(255, 255, 194); stroke: rgb(132, 0, 0); }
              .component-pin { fill: none; stroke: rgb(132, 0, 0); }
              .trace:hover {
                filter: invert(1);
              }
              .trace:hover .trace-crossing-outline {
                opacity: 0;
              }
              .trace:hover .trace-junction {
                filter: invert(1);
              }
              .text { font-family: sans-serif; fill: rgb(0, 150, 0); }
              .pin-number { fill: rgb(169, 0, 0); }
              .port-label { fill: rgb(0, 100, 100); }
              .component-name { fill: rgb(0, 100, 100); }
            </style><rect class="boundary" x="0" y="0" width="1200" height="600"/><g data-circuit-json-type="schematic_component" data-schematic-component-id="schematic_component_0"><rect class="component-overlay" x="336.0998437806203" y="225.90821991752665" width="83.30205784205987" height="145.23911208534673" fill="transparent"/><path d="M 380.4229446116156 225.90821991752665 L 380.42294461161555 292.128857226966" stroke="rgb(132, 0, 0)" fill="none" stroke-width="2.9444480795660004px" stroke-linecap="round"/><path d="M 380.42294461161555 304.92791663938704 L 380.42294461161555 371.1473320028734" stroke="rgb(132, 0, 0)" fill="none" stroke-width="2.9444480795660004px" stroke-linecap="round"/><path d="M 341.1263699862085 292.6902162533352 L 419.40190162268016 292.6902162533352" stroke="rgb(132, 0, 0)" fill="none" stroke-width="2.9444480795660004px" stroke-linecap="round"/><path d="M 418.89071599158655 313.43137963749086 L 418.89071599158655 313.43137963749086 L 418.70888173639287 313.3232283428121 L 418.52691162745646 313.2156163231808 L 418.3448055265354 313.108544973647 L 418.16256329538805 313.0020156892607 L 417.98018479577246 312.8960298650721 L 417.79766988944675 312.79058889613106 L 417.6150184381692 312.6856941774878 L 417.43223030369785 312.5813471041923 L 417.24930534779094 312.4775490712946 L 417.06624343220665 312.3743014738448 L 416.88304441870304 312.27160570689296 L 416.69970816903833 312.1694631654891 L 416.5162345449707 312.06787524468325 L 416.3326234082583 311.96684333952555 L 416.14887462065934 311.866368845066 L 415.9649880439319 311.7664531563547 L 415.7809635398342 311.6670976684416 L 415.5968009701243 311.5683037763769 L 415.41250019656053 311.4700728752106 L 415.22806108090094 311.3724063599927 L 415.04348348490373 311.2753056257732 L 414.85876727032706 311.1787720676024 L 414.6739122989291 311.08280708053013 L 414.488918432468 310.9874120596065 L 414.30378553270185 310.8925883998817 L 414.11851346138894 310.79833749640557 L 413.93310208028737 310.7046607442283 L 413.7475512511553 310.61155953839994 L 413.5618608357509 310.5190352739705 L 413.3760306958323 310.42708934599005 L 413.19006069315776 310.3357231495086 L 413.00395068948535 310.24493807957634 L 412.81770054657323 310.1547355312432 L 412.63131012617964 310.0651168995593 L 412.4447792900627 309.97608357957466 L 412.25810789998053 309.88763696633936 L 412.07129581769135 309.79977845490345 L 411.8843429049533 309.712509440317 L 411.6972490235246 309.62583131762995 L 411.5100140351633 309.5397454818925 L 411.32263780162765 309.4542533281547 L 411.13512018467577 309.36935625146657 L 410.9474610460658 309.2850556468781 L 410.75966024755604 309.20135290943944 L 410.5717176509045 309.1182494342006 L 410.3836331178694 309.0357466162116 L 410.1954065102089 308.9538458505226 L 410.00703768968117 308.8725485321836 L 409.81852651804434 308.7918560562446 L 409.62987285705657 308.7117698177558 L 409.4410765684761 308.6322912117671 L 409.252137514061 308.55342163332864 L 409.0630555555696 308.4751624774904 L 408.8738305547598 308.3975151393025 L 408.6844623733899 308.3204810138151 L 408.49495087321816 308.244061496078 L 408.3052959160026 308.1682579811415 L 408.1154973635014 308.0930718640555 L 407.9255550774728 308.0185045398701 L 407.7354689196749 307.9445574036354 L 407.54523875186584 307.8712318504014 L 407.35486443580385 307.7985292752182 L 407.16434583324707 307.72645107313576 L 406.9736828059536 307.6549986392043 L 406.7828752156817 307.5841733684737 L 406.5919229241895 307.51397665599416 L 406.40082579323513 307.44440989681567 L 406.2095836845768 307.37547448598826 L 406.0181964599726 307.30717181856204 L 405.8266639811808 307.239503289587 L 405.63498610995947 307.1724702941133 L 405.44316270806684 307.10607422719085 L 405.251193637261 307.04031648386984 L 405.0590787593001 306.97519845920027 L 404.86681793594244 306.9107215482322 L 404.6744110289461 306.84688714601566 L 404.4818579000692 306.7836966476007 L 404.28915841106993 306.72115144803746 L 404.09631242370654 306.65925294237593 L 403.90331979973706 306.59800252566623 L 403.7101804009197 306.5374015929583 L 403.5168940890126 306.47745153930225 L 403.32346072577405 306.4181537597482 L 403.1298801729621 306.3595096493461 L 402.9361522923349 306.30152060314606 L 402.7422769456506 306.2441880161981 L 402.54825399466745 306.18751328355233 L 402.3540833011436 306.13149780025884 L 402.1597647268371 306.07614296136757 L 401.9652981335063 306.0214501619286 L 401.77068338290917 305.9674207969921 L 401.575920336804 305.914056261608 L 401.3810088569489 305.8613579508264 L 401.18594880510204 305.80932725969734 L 400.9907400430216 305.7579655832709 L 400.7953824324657 305.70727431659714 L 400.59987583519256 305.65725485472615 L 400.40422011296033 305.6079085927079 L 400.20841512752713 305.5592369255924 L 400.0124607406512 305.5112412484299 L 400.0124607406512 305.5112412484299 L 399.7657062789829 305.451714125226 L 399.51878884891516 305.39306972049684 L 399.27170999425147 305.33530608445847 L 399.02447125879536 305.2784212673267 L 398.77707418635043 305.2224133193174 L 398.5295203207203 305.16728029064666 L 398.2818112057085 305.1130202315303 L 398.0339483851186 305.0596311921843 L 397.78593340275415 305.00711122282456 L 397.5377678024188 304.955458373667 L 397.28945312791603 304.9046706949275 L 397.0409909230495 304.8547462368221 L 396.7923827316227 304.80568304956665 L 396.54363009743923 304.7574791833771 L 396.2947345643027 304.71013268846934 L 396.0456976760167 304.66364161505936 L 395.79652097638467 304.618004013363 L 395.54720600921036 304.57321793359625 L 395.29775431829717 304.52928142597506 L 395.0481674474488 304.48619254071525 L 394.7984469404688 304.4439493280329 L 394.5485943411607 304.4025498381438 L 394.2986111933281 304.3619921212639 L 394.0484990407746 304.32227422760917 L 393.7982594273037 304.28339420739553 L 393.547893896719 304.2453501108389 L 393.2974039928241 304.2081399881552 L 393.0467912594226 304.17176188956034 L 392.796057240318 304.1362138652703 L 392.5452034793139 304.10149396550094 L 392.2942315202139 304.0676002404682 L 392.0431429068215 304.03453074038805 L 391.7919391829404 304.00228351547634 L 391.540621892374 303.9708566159491 L 391.289192578926 303.94024809202216 L 391.0376527864 303.9104559939115 L 390.7860040585995 303.88147837183305 L 390.534247939328 303.8533132760027 L 390.2823859723892 303.82595875663645 L 390.03041970158665 303.7994128639501 L 389.77835067072385 303.7736736481597 L 389.5261804236045 303.7487391594811 L 389.273910504032 303.72460744813026 L 389.0215424558101 303.70127656432305 L 388.7690778227423 303.67874455827547 L 388.51651814863214 303.65700948020344 L 388.2638649772832 303.63606938032285 L 388.0111198524991 303.61592230884963 L 387.7582843180834 303.5965663159997 L 387.5053599178396 303.57799945198906 L 387.25234819557136 303.5602197670336 L 386.9992506950822 303.54322531134915 L 386.7460689601757 303.5270141351517 L 386.4928045346555 303.5115842886573 L 386.2394589623251 303.49693382208164 L 385.98603378698806 303.4830607856408 L 385.732530552448 303.46996322955073 L 385.4789508025085 303.45763920402726 L 385.2252960809731 303.4460867592864 L 384.9715679316454 303.435303945544 L 384.71776789832893 303.42528881301604 L 384.46389752482725 303.4160394119184 L 384.20995835494404 303.407553792467 L 383.9559519324827 303.39983000487786 L 383.701879801247 303.39286609936687 L 383.4477435050404 303.3866601261499 L 383.1935445876665 303.38121013544287 L 382.9392845929288 303.3765141774618 L 382.684965064631 303.37257030242256 L 382.4305875465766 303.369376560541 L 382.17615358256916 303.3669310020332 L 381.9216647164123 303.365231677115 L 381.6671224919095 303.36427663600233 L 381.4125284528644 303.3640639289111 L 381.15788414308065 303.3645916060573 L 380.9031911063617 303.36585771765675 L 380.64845088651117 303.3678603139255 L 380.39366502733264 303.3705974450794 L 380.13883507262966 303.3740671613344 L 379.8839625662058 303.3782675129064 L 379.6290490518647 303.38319655001135 L 379.3740960734098 303.3888523228652 L 379.1191051746448 303.3952328816838 L 378.8640778993732 303.4023362766832 L 378.60901579139863 303.41016055807916 L 378.3539203945246 303.41870377608774 L 378.09879325255474 303.4279639809248 L 377.8436359092926 303.4379392228063 L 377.5884499085417 303.44862755194816 L 377.3332367941057 303.4600270185663 L 377.0779981097881 303.4721356728767 L 376.8227353993925 303.4849515650951 L 376.56745020672247 303.49847274543765 L 376.31214407558167 303.5126972641202 L 376.05681854977354 303.52762317135864 L 375.80147517310166 303.5432485173689 L 375.5461154893697 303.55957135236696 L 375.29074104238117 303.57658972656867 L 375.0353533759397 303.59430169019004 L 374.77995403384875 303.61270529344694 L 374.77995403384875 303.61270529344694 L 374.5634783045842 303.63211045322083 L 374.3469415858476 303.6518155312667 L 374.1303466295792 303.6718249969917 L 373.9136961877189 303.692143319803 L 373.69699301220686 303.7127749691078 L 373.4802398549831 303.73372441431326 L 373.2634394679877 303.75499612482656 L 373.04659460316077 303.77659457005495 L 372.82970801244227 303.7985242194055 L 372.61278244777236 303.8207895422855 L 372.395820661091 303.8433950081021 L 372.1788254043384 303.8663450862625 L 371.9617994294545 303.8896442461739 L 371.7447454883794 303.91329695724335 L 371.52766633305316 303.93730768887815 L 371.3105647154159 303.96168091048554 L 371.0934433874076 303.98642109147255 L 370.8763051009684 304.0115327012465 L 370.6591526080383 304.0370202092145 L 370.4419886605574 304.06288808478376 L 370.22481601046576 304.0891407973615 L 370.0076374097035 304.1157828163548 L 369.79045561021053 304.142818611171 L 369.57327336392706 304.1702526512171 L 369.35609342279304 304.1980894059004 L 369.13891853874867 304.2263333446281 L 368.9217514637339 304.2549889368073 L 368.70459494968884 304.28406065184527 L 368.48745174855355 304.31355295914915 L 368.2703246122681 304.3434703281261 L 368.05321629277256 304.3738172281834 L 367.836129542007 304.4045981287281 L 367.6190671119114 304.43581749916746 L 367.40203175442593 304.4674798089087 L 367.1850262214906 304.4995895273589 L 366.9680532650455 304.5321511239254 L 366.7511156370307 304.5651690680152 L 366.5342160893862 304.59864782903566 L 366.3173573740521 304.63259187639386 L 366.1005422429686 304.667005679497 L 365.8837734480755 304.7018937077522 L 365.66705374131305 304.7372604305668 L 365.45038587462125 304.77311031734786 L 365.2337725999402 304.8094478375026 L 365.0172166692099 304.8462774604382 L 364.80072083437057 304.8836036555619 L 364.5842878473621 304.9214308922808 L 364.3679204601246 304.95976364000217 L 364.15162142459815 304.9986063681331 L 363.9353934927228 305.0379635460808 L 363.7192394164387 305.0778396432525 L 363.5031619476858 305.1182391290554 L 363.28716383840424 305.1591664728966 L 363.071247840534 305.20062614418333 L 362.8554167060152 305.24262261232275 L 362.63967318678795 305.2851603467221 L 362.4240200347922 305.32824381678853 L 362.20846000196815 305.3718774919292 L 361.99299584025573 305.41606584155136 L 361.7776303015951 305.4608133350621 L 361.5623661379263 305.5061244418687 L 361.3472061011894 305.5520036313783 L 361.1321529433244 305.59845537299805 L 360.9172094162714 305.6454841361352 L 360.70237827197053 305.69309439019696 L 360.48766226236177 305.7412906045904 L 360.2730641393852 305.79007724872275 L 360.05858665498096 305.83945879200127 L 359.84423256108903 305.88943970383303 L 359.63000460964946 305.9400244536253 L 359.4159055526024 305.9912175107852 L 359.20193814188787 306.04302334472 L 358.9881051294459 306.0954464248368 L 358.7744092672166 306.14849122054284 L 358.56085330714 306.20216220124524 L 358.3474400011562 306.25646383635126 L 358.13417210120525 306.311400595268 L 357.9210523592272 306.36697694740275 L 357.7080835271621 306.4231973621626 L 357.4952683569501 306.48006630895486 L 357.28260960053115 306.53758825718654 L 357.0701100098454 306.5957676762649 L 356.85777233683285 306.6546090355972 L 356.6455993334336 306.71411680459056 L 356.43359375158775 306.77429545265215 L 356.2217583432353 306.83514944918915 L 356.01009586031637 306.8966832636088 L 355.79860905477096 306.9589013653182 L 355.5873006785391 307.0218082237246 L 355.37617348356105 307.0854083082352 L 355.16523022177665 307.1497060882571 L 354.95447364512614 307.21470603319756 L 354.74390650554943 307.28041261246375 L 354.53353155498667 307.34683029546284 L 354.32335154537793 307.413963551602 L 354.11336922866326 307.4818168502885 L 353.9035873567827 307.55039466092944 L 353.69400868167634 307.61970145293196 L 353.48463595528426 307.6897416957034 L 353.2754719295465 307.76051985865075 L 353.2754719295465 307.76051985865075 L 353.15301179705614 307.8023590444291 L 353.03061585948166 307.84449865666164 L 352.90828485299403 307.88693868209845 L 352.7860195137642 307.9296791074894 L 352.66382057796295 307.9727199195845 L 352.54168878176125 308.0160611051339 L 352.4196248613301 308.0597026508873 L 352.2976295528402 308.1036445435949 L 352.17570359246264 308.1478867700066 L 352.0538477163683 308.1924293168724 L 351.93206266072804 308.23727217094233 L 351.81034916171274 308.2824153189663 L 351.6887079554934 308.3278587476943 L 351.5671397782409 308.3736024438763 L 351.4456453661261 308.4196463942624 L 351.32422545531995 308.4659905856024 L 351.2028807819934 308.5126350046465 L 351.08161208231724 308.5595796381445 L 350.96042009246247 308.6068244728464 L 350.8393055486 308.65436949550235 L 350.7182691869007 308.7022146928622 L 350.5973117435355 308.7503600516759 L 350.4764339546753 308.7988055586935 L 350.35563655649105 308.84755120066495 L 350.2349202851536 308.8965969643403 L 350.11428587683383 308.9459428364695 L 349.9937340677028 308.9955888038025 L 349.87326559393125 309.0455348530893 L 349.75288119169016 309.0957809710799 L 349.6325815971505 309.1463271445242 L 349.512367546483 309.1971733601723 L 349.3922397758588 309.24831960477417 L 349.27219902144867 309.29976586507973 L 349.1522460194235 309.35151212783904 L 349.0323815059543 309.403558379802 L 348.9126062172119 309.45590460771865 L 348.79292088936717 309.508550798339 L 348.6733262585911 309.5614969384129 L 348.55382306105463 309.6147430146905 L 348.43441203292855 309.66828901392165 L 348.3150939103839 309.7221349228564 L 348.1958694295915 309.7762807282448 L 348.07673932672225 309.8307264168367 L 347.9577043379471 309.88547197538213 L 347.838765199437 309.9405173906311 L 347.71992264736275 309.9958626493336 L 347.60117741789537 310.0515077382396 L 347.48253024720566 310.10745264409906 L 347.36398187146466 310.163697353662 L 347.24553302684313 310.2202418536783 L 347.12718444951213 310.2770861308981 L 347.0089368756424 310.33423017207133 L 346.890791041405 310.39167396394794 L 346.77274768297076 310.4494174932779 L 346.65480753651065 310.50746074681126 L 346.5369713381955 310.565803711298 L 346.41923982419627 310.624446373488 L 346.3016137306838 310.68338872013135 L 346.18409379382916 310.74263073797795 L 346.0666807498031 310.8021724137779 L 345.94937533477656 310.86201373428105 L 345.8321782849205 310.9221546862375 L 345.71509033640575 310.9825952563972 L 345.5981122254033 311.04333543151006 L 345.481244688084 311.1043751983261 L 345.3644884606189 311.1657145435954 L 345.2478442791787 311.22735345406784 L 345.1313128799344 311.28929191649337 L 345.01489499905693 311.3515299176221 L 344.8985913727172 311.41406744420397 L 344.78240273708604 311.47690448298886 L 344.6663298283345 311.5400410207269 L 344.5503733826334 311.60347704416796 L 344.43453413615356 311.6672125400621 L 344.31881282506606 311.7312474951593 L 344.20321018554176 311.7955818962095 L 344.0877269537515 311.8602157299627 L 343.9723638658662 311.92514898316887 L 343.8571216580569 311.99038164257803 L 343.74200106649437 312.05591369494016 L 343.62700282734954 312.1217451270052 L 343.51212767679334 312.1878759255232 L 343.39737635099664 312.25430607724405 L 343.2827495861304 312.3210355689178 L 343.16824811836557 312.3880643872945 L 343.053872683873 312.45539251912396 L 342.93962401882357 312.5230199511563 L 342.8255028593882 312.5909466701414 L 342.71150994173786 312.6591726628294 L 342.5976460020434 312.72769791597017 L 342.4839117764758 312.7965224163137 L 342.37030800120584 312.86564615061 L 342.25683541240454 312.93506910560905 L 342.14349474624277 313.0047912680608 L 342.03028673889145 313.07481262471526 L 341.91721212652146 313.1451331623224 L 341.80427164530374 313.21575286763226 L 341.6914660314092 313.2866717273947 L 341.57879602100877 313.35788972835985 L 341.46626235027327 313.4294068572776" stroke="rgb(132, 0, 0)" fill="none" stroke-width="2.9444480795660004px" stroke-linecap="round"/><path d="M 346.8105386703686 253.53911208529917 L 346.8105386703686 274.2190309493999 L 346.07840165538454 274.2190309493999 L 346.07840165538454 253.53911208529917" stroke="rgb(132, 0, 0)" fill="none" stroke-width="2.9444480795660004px" stroke-linecap="round"/><path d="M 336.0998437806203 263.50467022179237 L 356.7797626447209 263.50467022179237 L 356.7797626447209 264.23680723677643 L 336.0998437806203 264.23680723677643" stroke="rgb(132, 0, 0)" fill="none" stroke-width="2.9444480795660004px" stroke-linecap="round"/><text x="413.8039169338094" y="277.70153187587954" fill="rgb(15, 15, 15)" font-family="sans-serif" text-anchor="start" dominant-baseline="auto" font-size="26.500032716094px">C2</text><text x="413.8039169338094" y="321.6709473493695" fill="rgb(15, 15, 15)" font-family="sans-serif" text-anchor="start" dominant-baseline="hanging" font-size="26.500032716094px">10µF</text></g><g data-circuit-json-type="schematic_component" data-schematic-component-id="schematic_component_1"><rect class="component-overlay" x="562.3039611005543" y="221.53961591307655" width="77.90517895702351" height="155.8103726362874" fill="transparent"/><path d="M 601.2565505790658 221.53961591307655 L 601.2565505790658 287.7590165543225" stroke="rgb(132, 0, 0)" fill="none" stroke-width="2.9444480795660004px" stroke-linecap="round"/><path d="M 601.2565505790658 311.1305731858776 L 601.2565505790658 377.34998854936396" stroke="rgb(132, 0, 0)" fill="none" stroke-width="2.9444480795660004px" stroke-linecap="round"/><path d="M 562.3039611005543 287.75901655432256 L 640.2091400575778 287.7590165543225" stroke="rgb(132, 0, 0)" fill="none" stroke-width="2.9444480795660004px" stroke-linecap="round"/><path d="M 562.3039611005543 311.1305731858776 L 640.2091400575778 311.1305731858776" stroke="rgb(132, 0, 0)" fill="none" stroke-width="2.9444480795660004px" stroke-linecap="round"/><text x="634.6375229012596" y="269.18912849454" fill="rgb(15, 15, 15)" font-family="sans-serif" text-anchor="start" dominant-baseline="auto" font-size="26.500032716094px">C1</text><text x="634.6375229012596" y="327.86642342586003" fill="rgb(15, 15, 15)" font-family="sans-serif" text-anchor="start" dominant-baseline="hanging" font-size="26.500032716094px">100nF</text></g><g data-circuit-json-type="schematic_component" data-schematic-component-id="schematic_component_2"><rect class="component-overlay" x="783.1375670680042" y="221.53961591307655" width="77.90517895702351" height="155.8103726362874" fill="transparent"/><path d="M 822.0901565465157 221.53961591307655 L 822.0901565465157 287.7590165543225" stroke="rgb(132, 0, 0)" fill="none" stroke-width="2.9444480795660004px" stroke-linecap="round"/><path d="M 822.0901565465157 311.1305731858776 L 822.0901565465157 377.34998854936396" stroke="rgb(132, 0, 0)" fill="none" stroke-width="2.9444480795660004px" stroke-linecap="round"/><path d="M 783.1375670680042 287.75901655432256 L 861.0427460250277 287.7590165543225" stroke="rgb(132, 0, 0)" fill="none" stroke-width="2.9444480795660004px" stroke-linecap="round"/><path d="M 783.1375670680042 311.1305731858776 L 861.0427460250277 311.1305731858776" stroke="rgb(132, 0, 0)" fill="none" stroke-width="2.9444480795660004px" stroke-linecap="round"/><text x="855.4711288687095" y="269.18912849454" fill="rgb(15, 15, 15)" font-family="sans-serif" text-anchor="start" dominant-baseline="auto" font-size="26.500032716094px">C4</text><text x="855.4711288687095" y="327.86642342586003" fill="rgb(15, 15, 15)" font-family="sans-serif" text-anchor="start" dominant-baseline="hanging" font-size="26.500032716094px">1µF</text></g><g class="trace" data-circuit-json-type="schematic_trace" data-schematic-trace-id="schematic_trace_0"><path d="M 380.55585699792755 371.1473320028734 L 601.3492197212499 371.1473320028734 L 601.3492197212499 445.7501799385" class="trace-invisible-hover-outline" stroke="rgb(0, 150, 0)" fill="none" stroke-width="23.555584636528003px" stroke-linecap="round" opacity="0" stroke-linejoin="round"/><path d="M 380.55585699792755 371.1473320028734 L 601.3492197212499 371.1473320028734 L 601.3492197212499 445.7501799385" stroke="rgb(0, 150, 0)" fill="none" stroke-width="2.9444480795660004px" stroke-linecap="round" stroke-linejoin="round"/></g><g class="trace" data-circuit-json-type="schematic_trace" data-schematic-trace-id="schematic_trace_1"><path d="M 601.3894629653774 379.678134201396 L 601.3492197212499 379.678134201396 L 601.3492197212499 445.7501799385" class="trace-invisible-hover-outline" stroke="rgb(0, 150, 0)" fill="none" stroke-width="23.555584636528003px" stroke-linecap="round" opacity="0" stroke-linejoin="round"/><path d="M 601.3894629653774 379.678134201396 L 601.3492197212499 379.678134201396 L 601.3492197212499 445.7501799385" stroke="rgb(0, 150, 0)" fill="none" stroke-width="2.9444480795660004px" stroke-linecap="round" stroke-linejoin="round"/></g><g class="trace" data-circuit-json-type="schematic_trace" data-schematic-trace-id="schematic_trace_2"><path d="M 822.2230689328273 379.678134201396 L 601.3492197212499 379.678134201396 L 601.3492197212499 445.7501799385" class="trace-invisible-hover-outline" stroke="rgb(0, 150, 0)" fill="none" stroke-width="23.555584636528003px" stroke-linecap="round" opacity="0" stroke-linejoin="round"/><path d="M 822.2230689328273 379.678134201396 L 601.3492197212499 379.678134201396 L 601.3492197212499 445.7501799385" stroke="rgb(0, 150, 0)" fill="none" stroke-width="2.9444480795660004px" stroke-linecap="round" stroke-linejoin="round"/></g><g class="trace" data-circuit-json-type="schematic_trace" data-schematic-trace-id="schematic_trace_3"><path d="M 380.4753705096724 225.90821991752665 L 601.3492197212499 225.90821991752665 L 601.3492197212499 151.3053719819" class="trace-invisible-hover-outline" stroke="rgb(0, 150, 0)" fill="none" stroke-width="23.555584636528003px" stroke-linecap="round" opacity="0" stroke-linejoin="round"/><path d="M 380.4753705096724 225.90821991752665 L 601.3492197212499 225.90821991752665 L 601.3492197212499 151.3053719819" stroke="rgb(0, 150, 0)" fill="none" stroke-width="2.9444480795660004px" stroke-linecap="round" stroke-linejoin="round"/></g><g class="trace" data-circuit-json-type="schematic_trace" data-schematic-trace-id="schematic_trace_4"><path d="M 601.3089764771225 217.37741771900403 L 601.3492197212499 217.37741771900403 L 601.3492197212499 151.3053719819" class="trace-invisible-hover-outline" stroke="rgb(0, 150, 0)" fill="none" stroke-width="23.555584636528003px" stroke-linecap="round" opacity="0" stroke-linejoin="round"/><path d="M 601.3089764771225 217.37741771900403 L 601.3492197212499 217.37741771900403 L 601.3492197212499 151.3053719819" stroke="rgb(0, 150, 0)" fill="none" stroke-width="2.9444480795660004px" stroke-linecap="round" stroke-linejoin="round"/></g><g class="trace" data-circuit-json-type="schematic_trace" data-schematic-trace-id="schematic_trace_5"><path d="M 822.1425824445726 217.37741771900403 L 601.3492197212499 217.37741771900403 L 601.3492197212499 151.3053719819" class="trace-invisible-hover-outline" stroke="rgb(0, 150, 0)" fill="none" stroke-width="23.555584636528003px" stroke-linecap="round" opacity="0" stroke-linejoin="round"/><path d="M 822.1425824445726 217.37741771900403 L 601.3492197212499 217.37741771900403 L 601.3492197212499 151.3053719819" stroke="rgb(0, 150, 0)" fill="none" stroke-width="2.9444480795660004px" stroke-linecap="round" stroke-linejoin="round"/></g><rect class="component-overlay" x="567.4527334292862" y="445.5906644637895" width="66.15016194465477" height="71.17163842178729" fill="transparent"/><path d="M 601.1893067460488 445.5906644637895 L 601.1893067460488 494.12008604333" stroke="rgb(132, 0, 0)" fill="none" stroke-width="2.9444480795660004px" stroke-linecap="round"/><path d="M 567.4527334292862 494.1152571484796 L 633.602895373941 494.1152571484796" stroke="rgb(132, 0, 0)" fill="none" stroke-width="2.9444480795660004px" stroke-linecap="round"/><path d="M 575.7215091932082 505.43878001702825 L 625.3341196100189 505.4387800170282" stroke="rgb(132, 0, 0)" fill="none" stroke-width="2.9444480795660004px" stroke-linecap="round"/><path d="M 592.2590459988119 516.7623028855768 L 608.7965828044156 516.7623028855768" stroke="rgb(132, 0, 0)" fill="none" stroke-width="2.9444480795660004px" stroke-linecap="round"/><text x="598.0188428318953" y="534.0065955637185" fill="rgb(15, 15, 15)" font-family="sans-serif" text-anchor="middle" dominant-baseline="hanging" font-size="26.500032716094px">GND</text><rect class="component-overlay" x="587.6007819145344" y="88.80822482491814" width="27.27729339789721" height="60.296687495920224" fill="transparent"/><path d="M 601.0239465419006 88.80822482491814 L 587.6007819145344 116.93811260873478" stroke="rgb(132, 0, 0)" fill="none" stroke-width="2.9444480795660004px" stroke-linecap="round"/><path d="M 601.454910685066 88.82288817635438 L 614.8780753124316 116.95284957137302" stroke="rgb(132, 0, 0)" fill="none" stroke-width="2.9444480795660004px" stroke-linecap="round"/><path d="M 601.179280900338 89.55047601905562 L 601.179280900338 149.10491232083837" stroke="rgb(132, 0, 0)" fill="none" stroke-width="2.9444480795660004px" stroke-linecap="round"/><text x="600.5207698095832" y="80.18081528490512" fill="rgb(15, 15, 15)" font-family="sans-serif" text-anchor="middle" dominant-baseline="ideographic" font-size="26.500032716094px">VCC</text></svg>