<svg xmlns="http://www.w3.org/2000/svg" width="1200" height="600" style="background-color: rgb(245, 241, 237)" data-real-to-screen-transform="matrix(92.5754489909,0,0,-92.5754489909,387.8227369756,327.1122631611)" data-software-used-string="@tscircuit/core@0.0.586"><style>
              .boundary { fill: rgb(245, 241, 237); }
              .schematic-boundary { fill: none; stroke: #fff; }
              .component { fill: none; stroke: rgb(132, 0, 0); }
              .chip { fill: rgb(255, 255, 194); stroke: rgb(132, 0, 0); }
              .component-pin { fill: none; stroke: rgb(132, 0, 0); }
              .trace:hover {
                filter: invert(1);
              }
              .trace:hover .trace-crossing-outline {
                opacity: 0;
              }
              .trace:hover .trace-junction {
                filter: invert(1);
              }
              .text { font-family: sans-serif; fill: rgb(0, 150, 0); }
              .pin-number { fill: rgb(169, 0, 0); }
              .port-label { fill: rgb(0, 100, 100); }
              .component-name { fill: rgb(0, 100, 100); }
            </style><rect class="boundary" x="0" y="0" width="1200" height="600"/><g data-circuit-json-type="schematic_component" data-schematic-component-id="schematic_component_0"><rect class="component chip" x="369.30764717742" y="290.08208356473995" width="37.03017959635997" height="74.06035919272006" stroke-width="1.851508979818px" fill="rgb(255, 255, 194)" stroke="rgb(132, 0, 0)"/><rect class="component-overlay" x="369.30764717742" y="290.08208356473995" width="37.03017959635997" height="74.06035919272006" fill="transparent"/><text x="369.30764717742" y="376.177251126277" fill="#006464" text-anchor="start" dominant-baseline="middle" font-family="sans-serif" font-size="16.663580818362px" transform="rotate(0, 369.30764717742, 376.177251126277)"></text><text x="369.30764717742" y="278.04727519592296" fill="#006464" text-anchor="start" dominant-baseline="middle" font-family="sans-serif" font-size="16.663580818362px" transform="rotate(0, 369.30764717742, 278.04727519592296)">U1</text><line class="component-pin" x1="441.516497390322" y1="308.59717336292" x2="406.33782677377997" y2="308.59717336292" stroke-width="1.851508979818px"/><g data-schematic-port-id="source_port_0"><rect x="441.516497390322" y="306.745664383102" width="3.703017959636" height="3.703017959636" opacity="0"/></g><text class="pin-number" x="424.85291657196" y="306.745664383102" style="font-family: sans-serif;" fill="rgb(169, 0, 0)" text-anchor="middle" dominant-baseline="auto" font-size="13.886317348635px" transform="">1</text><line class="component-pin" x1="441.516497390322" y1="327.1122631611" x2="406.33782677377997" y2="327.1122631611" stroke-width="1.851508979818px"/><g data-schematic-port-id="source_port_1"><rect x="441.516497390322" y="325.260754181282" width="3.703017959636" height="3.703017959636" opacity="0"/></g><text class="pin-number" x="424.85291657196" y="325.260754181282" style="font-family: sans-serif;" fill="rgb(169, 0, 0)" text-anchor="middle" dominant-baseline="auto" font-size="13.886317348635px" transform="">2</text><line class="component-pin" x1="441.516497390322" y1="345.62735295927996" x2="406.33782677377997" y2="345.62735295927996" stroke-width="1.851508979818px"/><g data-schematic-port-id="source_port_2"><rect x="441.516497390322" y="343.77584397946197" width="3.703017959636" height="3.703017959636" opacity="0"/></g><text class="pin-number" x="424.85291657196" y="343.77584397946197" style="font-family: sans-serif;" fill="rgb(169, 0, 0)" text-anchor="middle" dominant-baseline="auto" font-size="13.886317348635px" transform="">3</text></g><g data-circuit-json-type="schematic_component" data-schematic-component-id="schematic_component_1"><rect class="component-overlay" x="559.0412464907175" y="277.2998474031398" width="81.577217181979" height="23.835872986476772" fill="transparent"/><path d="M 583.0793042577906 289.2639836741971 L 559.0412464907175 289.2639836741971" stroke="rgb(132, 0, 0)" fill="none" stroke-width="1.851508979818px" stroke-linecap="round"/><path d="M 640.6184636726965 289.10524455181235 L 616.7092894457087 289.10524455181235" stroke="rgb(132, 0, 0)" fill="none" stroke-width="1.851508979818px" stroke-linecap="round"/><path d="M 606.0560585625421 289.1059666403145 L 593.731183539402 289.1059666403145" stroke="rgb(132, 0, 0)" fill="none" stroke-width="1.851508979818px" stroke-linecap="round"/><path d="M 606.2319796882595 277.4939688621287 L 606.2319796882595 300.821741496819" stroke="rgb(132, 0, 0)" fill="none" stroke-width="1.851508979818px" stroke-linecap="round"/><path d="M 593.5481433616571 277.4850538463909 L 593.5481433616571 300.8128264810812" stroke="rgb(132, 0, 0)" fill="none" stroke-width="1.851508979818px" stroke-linecap="round"/><path d="M 593.1180563407352 301.1239818226846 L 593.1180563407352 301.1239818226846 L 591.6714033858644 300.3438621867463 L 590.3700145816653 299.5351368131875 L 589.2090149687682 298.700767019871 L 588.1835295878034 297.8437141246598 L 587.2886834794012 296.96693944541687 L 586.519601684192 296.0734043000051 L 585.8714092428062 295.16607000628744 L 585.339231195874 294.24789788212695 L 584.9181925840259 293.3218492453864 L 584.6034184478921 292.39088541392886 L 584.3900338281029 291.45796770561725 L 584.2731637652888 290.52605743831447 L 584.24793330008 289.59811592988353 L 584.3094674731069 288.67710449818736 L 584.4528913249999 287.76598446108886 L 584.6733298963892 286.867717136451 L 584.9659082279053 285.98526384213676 L 585.3257513601783 285.1215858960091 L 585.7479843338388 284.2796446159309 L 586.2277321895169 283.46240131976515 L 586.7601199678431 282.67281732537475 L 587.3402727094477 281.9138539506227 L 587.963315454961 281.18847251337195 L 588.6243732450134 280.49963433148537 L 589.3185711202352 279.85030072282603 L 590.0410341212568 279.24343300525675 L 590.7868872887084 278.68199249664053 L 591.5512556632204 278.16894051484036 L 592.3292642854233 277.7072383777191 L 593.1160381959471 277.2998474031398 L 593.1160381959471 277.2998474031398" stroke="rgb(132, 0, 0)" fill="none" stroke-width="1.851508979818px" stroke-linecap="round"/><path d="M 606.6551605806868 301.13572038961655 L 606.6551605806868 301.13572038961655 L 608.1018135355575 300.35560075367835 L 609.4032023397567 299.5468753801195 L 610.5642019526538 298.712505586803 L 611.5896873336186 297.85545269159184 L 612.4845334420207 296.9786780123489 L 613.25361523723 296.08514286693713 L 613.9018076786158 295.17780857321947 L 614.4339857255479 294.2596364490589 L 614.8550243373961 293.3335878123184 L 615.1697984735299 292.4026239808609 L 615.3831830933191 291.4697062725492 L 615.5000531561332 290.5377960052465 L 615.5252836213419 289.60985449681556 L 615.463749448315 288.68884306511933 L 615.3203255964221 287.7777230280209 L 615.0998870250328 286.87945570338303 L 614.8073086935167 285.9970024090688 L 614.4474655612437 285.1333244629411 L 614.0252325875832 284.2913831828629 L 613.545484731905 283.4741398866972 L 613.0130969535788 282.6845558923068 L 612.4329442119742 281.9255925175547 L 611.8099014664609 281.200211080304 L 611.1488436764085 280.5113728984174 L 610.4546458011866 279.862039289758 L 609.7321828001651 279.2551715721888 L 608.9863296327135 278.69373106357256 L 608.2219612582015 278.1806790817724 L 607.4439526359987 277.7189769446511 L 606.6571787254749 277.3115859700718 L 606.6571787254749 277.3115859700718" stroke="rgb(132, 0, 0)" fill="none" stroke-width="1.851508979818px" stroke-linecap="round"/><text x="597.9414038689694" y="272.6211050038651" fill="rgb(15, 15, 15)" font-family="sans-serif" text-anchor="middle" dominant-baseline="auto" font-size="16.663580818362px">JP1</text></g><g data-circuit-json-type="schematic_component" data-schematic-component-id="schematic_component_2"><rect class="component-overlay" x="769.6388969810262" y="153.45908786670344" width="65.18901129418543" height="98.5614793556455" fill="transparent"/><path d="M 769.6388969810262 212.30280199369938 L 810.7290654683311 212.5456273964025" stroke="rgb(132, 0, 0)" fill="none" stroke-width="1.851508979818px" stroke-linecap="round"/><path d="M 834.1239830761746 153.45908786670344 L 834.06843780678 192.9262606124795" stroke="rgb(132, 0, 0)" fill="none" stroke-width="1.851508979818px" stroke-linecap="round"/><path d="M 834.772363005817 252.02056722234894 L 834.8279082752116 203.28379625402425" stroke="rgb(132, 0, 0)" fill="none" stroke-width="1.851508979818px" stroke-linecap="round"/><path d="M 814.6843978141918 192.75242243436435 L 834.7928777253134 192.87165961266464" stroke="rgb(132, 0, 0)" fill="none" stroke-width="1.851508979818px" stroke-linecap="round"/><path d="M 814.7441089787909 189.1523483740062 L 814.6246866495926 196.35249649472246" stroke="rgb(132, 0, 0)" fill="none" stroke-width="1.851508979818px" stroke-linecap="round"/><path d="M 814.6843978141918 212.2122261744067 L 834.7928777253134 212.331463352707" stroke="rgb(132, 0, 0)" fill="none" stroke-width="1.851508979818px" stroke-linecap="round"/><path d="M 814.73685106359 209.8710486146962 L 814.6174287343918 217.07119673541246" stroke="rgb(132, 0, 0)" fill="none" stroke-width="1.851508979818px" stroke-linecap="round"/><path d="M 814.7441089787909 199.5116984943512 L 814.6246866495926 206.71184661506746" stroke="rgb(132, 0, 0)" fill="none" stroke-width="1.851508979818px" stroke-linecap="round"/><path d="M 824.7386562848424 199.90555148453808 L 824.7386562848424 206.51470719644132 L 831.3814076271844 203.24884902203013 L 824.7386562848424 199.90555148453808" stroke="rgb(132, 0, 0)" fill="none" stroke-width="1.851508979818px" stroke-linecap="round"/><path d="M 814.6843978141918 203.11177255470932 L 834.7928777253134 203.2310097330096" stroke="rgb(132, 0, 0)" fill="none" stroke-width="1.851508979818px" stroke-linecap="round"/><path d="M 810.7846107377258 192.6977936619148 L 810.7290654683312 212.5456273964025" stroke="rgb(132, 0, 0)" fill="none" stroke-width="1.851508979818px" stroke-linecap="round"/><text x="805.9973069513912" y="169.3270104736234" fill="rgb(15, 15, 15)" font-family="sans-serif" text-anchor="end" dominant-baseline="middle" font-size="16.663580818362px">M1</text><text x="805.9973069513912" y="242.07458499683815" fill="rgb(15, 15, 15)" font-family="sans-serif" text-anchor="end" dominant-baseline="middle" font-size="16.663580818362px"></text><circle cx="820.6440164033402" cy="202.41999325458" r="26.711917237540636px" stroke-width="1.851508979818px" fill="none" stroke="rgb(132, 0, 0)"/></g><g data-circuit-json-type="schematic_component" data-schematic-component-id="schematic_component_3"><rect class="component-overlay" x="669.5067168617649" y="276.6395748476665" width="96.30152749487956" height="24.493927050539185" fill="transparent"/><path d="M 704.5734452453871 288.8865383729359 L 729.067363038381 276.6395748476665" stroke="rgb(132, 0, 0)" fill="none" stroke-width="1.851508979818px" stroke-linecap="round"/><path d="M 729.067363038381 301.1335018982056 L 704.5734452453871 288.8865383729359" stroke="rgb(132, 0, 0)" fill="none" stroke-width="1.851508979818px" stroke-linecap="round"/><path d="M 729.067363038381 276.63957484766684 L 729.067363038381 301.1335018982056" stroke="rgb(132, 0, 0)" fill="none" stroke-width="1.851508979818px" stroke-linecap="round"/><path d="M 704.5734452453871 301.1335018982057 L 704.5734452453871 276.63957484766684" stroke="rgb(132, 0, 0)" fill="none" stroke-width="1.851508979818px" stroke-linecap="round"/><path d="M 729.2714641307713 288.8865383729359 L 765.8082443566444 288.8865383729359" stroke="rgb(132, 0, 0)" fill="none" stroke-width="1.851508979818px" stroke-linecap="round"/><path d="M 669.5067168617649 288.87865094468214 L 704.102912010801 288.87865094468214" stroke="rgb(132, 0, 0)" fill="none" stroke-width="1.851508979818px" stroke-linecap="round"/><text x="718.4240284707115" y="310.1347513900856" fill="rgb(15, 15, 15)" font-family="sans-serif" text-anchor="middle" dominant-baseline="hanging" font-size="16.663580818362px">D1</text><text x="717.9691775171846" y="259.48496486699025" fill="rgb(15, 15, 15)" font-family="sans-serif" text-anchor="middle" dominant-baseline="auto" font-size="16.663580818362px"></text></g><g data-circuit-json-type="schematic_component" data-schematic-component-id="schematic_component_4"><rect class="component-overlay" x="484.0394354615264" y="314.67588226189406" width="97.97568042952082" height="24.493927050538844" fill="transparent"/><path d="M 484.0394354615264 326.9228457871635 L 508.53335325452036 326.9228457871635" stroke="rgb(132, 0, 0)" fill="none" stroke-width="1.851508979818px" stroke-linecap="round"/><path d="M 557.5211888405084 326.9228457871635 L 582.0151158910472 326.9228457871635" stroke="rgb(132, 0, 0)" fill="none" stroke-width="1.851508979818px" stroke-linecap="round"/><path d="M 533.0272617899694 314.67588226189406 L 557.5211795829634 314.67588226189406 L 557.5211795829634 339.1698093124329 L 508.5333347394305 339.1698093124329 L 508.5333347394305 314.67588226189406 L 533.0272617899693 314.67588226189406" stroke="rgb(132, 0, 0)" fill="none" stroke-width="1.851508979818px" stroke-linecap="round"/><text x="531.4242530878777" y="309.9807844085982" fill="rgb(15, 15, 15)" font-family="sans-serif" text-anchor="middle" dominant-baseline="auto" font-size="16.663580818362px">R2</text><text x="531.4242530878777" y="345.9314503984633" fill="rgb(15, 15, 15)" font-family="sans-serif" text-anchor="middle" dominant-baseline="hanging" font-size="16.663580818362px">1kΩ</text></g><g data-circuit-json-type="schematic_component" data-schematic-component-id="schematic_component_5"><rect class="component-overlay" x="754.2504099952039" y="323.9393915450611" width="24.4939270505389" height="97.97568042952082" fill="transparent"/><path d="M 766.4973735204733 421.9150719745819 L 766.4973735204733 397.421154181588" stroke="rgb(132, 0, 0)" fill="none" stroke-width="1.851508979818px" stroke-linecap="round"/><path d="M 766.4973735204733 348.4333185955999 L 766.4973735204733 323.9393915450611" stroke="rgb(132, 0, 0)" fill="none" stroke-width="1.851508979818px" stroke-linecap="round"/><path d="M 754.2504099952039 372.9272456461389 L 754.2504099952039 348.43332785314493 L 778.7443370457428 348.43332785314493 L 778.7443370457428 397.4211726966779 L 754.2504099952039 397.4211726966779 L 754.2504099952039 372.92724564613906" stroke="rgb(132, 0, 0)" fill="none" stroke-width="1.851508979818px" stroke-linecap="round"/><text x="792.0127179011362" y="359.71818250968664" fill="rgb(15, 15, 15)" font-family="sans-serif" text-anchor="start" dominant-baseline="middle" font-size="16.663580818362px">R3</text><text x="792.0127179011362" y="389.34232618677464" fill="rgb(15, 15, 15)" font-family="sans-serif" text-anchor="start" dominant-baseline="middle" font-size="16.663580818362px">1kΩ</text></g><g data-circuit-json-type="schematic_component" data-schematic-component-id="schematic_component_6"><rect class="component-overlay" x="561.2692424069527" y="366.1499183842018" width="48.98783558598802" height="97.97568042952088" fill="transparent"/><path d="M 585.7631601999466 366.1499183842018 L 585.7631601999466 407.7895777065371" stroke="rgb(132, 0, 0)" fill="none" stroke-width="1.851508979818px" stroke-linecap="round"/><path d="M 585.7631601999466 422.48593023384245 L 585.7631601999466 464.12559881372266" stroke="rgb(132, 0, 0)" fill="none" stroke-width="1.851508979818px" stroke-linecap="round"/><path d="M 561.2692424069527 407.7895777065371 L 610.2570779929407 407.7895777065371" stroke="rgb(132, 0, 0)" fill="none" stroke-width="1.851508979818px" stroke-linecap="round"/><path d="M 561.2692424069527 422.48593023384245 L 610.2570779929407 422.48593023384245" stroke="rgb(132, 0, 0)" fill="none" stroke-width="1.851508979818px" stroke-linecap="round"/><text x="606.7535693834251" y="396.15186354533523" fill="rgb(15, 15, 15)" font-family="sans-serif" text-anchor="start" dominant-baseline="auto" font-size="16.663580818362px">C13</text><text x="606.7535693834251" y="432.97037648169527" fill="rgb(15, 15, 15)" font-family="sans-serif" text-anchor="start" dominant-baseline="hanging" font-size="16.663580818362px">1µF</text></g><g class="trace" data-circuit-json-type="schematic_trace" data-schematic-trace-id="schematic_trace_0"><path d="M 558.5815075534838 289.1821192046545 L 500.97475696181186 289.1821192046545 L 500.97475696181186 308.59717336292 L 443.36800637014 308.59717336292" class="trace-invisible-hover-outline" stroke="rgb(0, 150, 0)" fill="none" stroke-width="14.812071838544px" stroke-linecap="round" opacity="0" stroke-linejoin="round"/><path d="M 558.5815075534838 289.1821192046545 L 500.97475696181186 289.1821192046545 L 500.97475696181186 308.59717336292 L 443.36800637014 308.59717336292" stroke="rgb(0, 150, 0)" fill="none" stroke-width="1.851508979818px" stroke-linecap="round" stroke-linejoin="round"/></g><g class="trace" data-circuit-json-type="schematic_trace" data-schematic-trace-id="schematic_trace_1"><path d="M 669.8985517071637 288.8735592949877 L 655.5102388508261 288.8735592949877 L 655.5102388508261 289.19363559050896 L 641.1219259944886 289.19363559050896" class="trace-invisible-hover-outline" stroke="rgb(0, 150, 0)" fill="none" stroke-width="14.812071838544px" stroke-linecap="round" opacity="0" stroke-linejoin="round"/><path d="M 669.8985517071637 288.8735592949877 L 655.5102388508261 288.8735592949877 L 655.5102388508261 289.19363559050896 L 641.1219259944886 289.19363559050896" stroke="rgb(0, 150, 0)" fill="none" stroke-width="1.851508979818px" stroke-linecap="round" stroke-linejoin="round"/></g><g class="trace" data-circuit-json-type="schematic_trace" data-schematic-trace-id="schematic_trace_2"><path d="M 669.8985517071637 288.8735592949877 L 669.8985517071637 253.83449056987655 L 834.7582545073908 253.83449056987655" class="trace-invisible-hover-outline" stroke="rgb(0, 150, 0)" fill="none" stroke-width="14.812071838544px" stroke-linecap="round" opacity="0" stroke-linejoin="round"/><path d="M 669.8985517071637 288.8735592949877 L 669.8985517071637 253.83449056987655 L 834.7582545073908 253.83449056987655" stroke="rgb(0, 150, 0)" fill="none" stroke-width="1.851508979818px" stroke-linecap="round" stroke-linejoin="round"/><circle cx="669.8985517071637" cy="288.8735592949877" r="2.777263469727" class="trace-junction" fill="rgb(0, 150, 0)"/></g><g class="trace" data-circuit-json-type="schematic_trace" data-schematic-trace-id="schematic_trace_3"><path d="M 766.0191034568111 288.96841210002344 L 767.3820778382899 288.96841210002344 L 767.3820778382899 188.24908967474997" class="trace-invisible-hover-outline" stroke="rgb(0, 150, 0)" fill="none" stroke-width="14.812071838544px" stroke-linecap="round" opacity="0" stroke-linejoin="round"/><path d="M 766.0191034568111 288.96841210002344 L 767.3820778382899 288.96841210002344 L 767.3820778382899 188.24908967474997" stroke="rgb(0, 150, 0)" fill="none" stroke-width="1.851508979818px" stroke-linecap="round" stroke-linejoin="round"/></g><g class="trace" data-circuit-json-type="schematic_trace" data-schematic-trace-id="schematic_trace_4"><path d="M 767.2454605803603 212.22936189001496 L 767.3820778382899 212.22936189001496 L 767.3820778382899 188.24908967474997" class="trace-invisible-hover-outline" stroke="rgb(0, 150, 0)" fill="none" stroke-width="14.812071838544px" stroke-linecap="round" opacity="0" stroke-linejoin="round"/><path d="M 767.2454605803603 212.22936189001496 L 767.3820778382899 212.22936189001496 L 767.3820778382899 188.24908967474997" stroke="rgb(0, 150, 0)" fill="none" stroke-width="1.851508979818px" stroke-linecap="round" stroke-linejoin="round"/></g><g class="trace" data-circuit-json-type="schematic_trace" data-schematic-trace-id="schematic_trace_5"><path d="M 834.1381286047804 151.64510897390642 L 834.0364011117381 151.64510897390642 L 834.0364011117381 123.44627538111996" class="trace-invisible-hover-outline" stroke="rgb(0, 150, 0)" fill="none" stroke-width="14.812071838544px" stroke-linecap="round" opacity="0" stroke-linejoin="round"/><path d="M 834.1381286047804 151.64510897390642 L 834.0364011117381 151.64510897390642 L 834.0364011117381 123.44627538111996" stroke="rgb(0, 150, 0)" fill="none" stroke-width="1.851508979818px" stroke-linecap="round" stroke-linejoin="round"/></g><g class="trace" data-circuit-json-type="schematic_trace" data-schematic-trace-id="schematic_trace_6"><path d="M 443.36800637014 345.62735295927996 L 461.88309616832 345.62735295927996 L 461.88309616832 401.17262235382" class="trace-invisible-hover-outline" stroke="rgb(0, 150, 0)" fill="none" stroke-width="14.812071838544px" stroke-linecap="round" opacity="0" stroke-linejoin="round"/><path d="M 443.36800637014 345.62735295927996 L 461.88309616832 345.62735295927996 L 461.88309616832 401.17262235382" stroke="rgb(0, 150, 0)" fill="none" stroke-width="1.851508979818px" stroke-linecap="round" stroke-linejoin="round"/></g><g class="trace" data-circuit-json-type="schematic_trace" data-schematic-trace-id="schematic_trace_7"><path d="M 585.8467373152955 465.589568448975 L 585.934197816126 465.589568448975 L 585.934197816126 503.00561624381" class="trace-invisible-hover-outline" stroke="rgb(0, 150, 0)" fill="none" stroke-width="14.812071838544px" stroke-linecap="round" opacity="0" stroke-linejoin="round"/><path d="M 585.8467373152955 465.589568448975 L 585.934197816126 465.589568448975 L 585.934197816126 503.00561624381" stroke="rgb(0, 150, 0)" fill="none" stroke-width="1.851508979818px" stroke-linecap="round" stroke-linejoin="round"/></g><g class="trace" data-circuit-json-type="schematic_trace" data-schematic-trace-id="schematic_trace_8"><path d="M 766.5303488954041 423.9461680678975 L 766.4563233483809 423.9461680678975 L 766.4563233483809 456.71789174836" class="trace-invisible-hover-outline" stroke="rgb(0, 150, 0)" fill="none" stroke-width="14.812071838544px" stroke-linecap="round" opacity="0" stroke-linejoin="round"/><path d="M 766.5303488954041 423.9461680678975 L 766.4563233483809 423.9461680678975 L 766.4563233483809 456.71789174836" stroke="rgb(0, 150, 0)" fill="none" stroke-width="1.851508979818px" stroke-linecap="round" stroke-linejoin="round"/></g><g class="trace" data-circuit-json-type="schematic_trace" data-schematic-trace-id="schematic_trace_9"><path d="M 443.36800637014 327.1122631611 L 461.88309616832 327.1122631611 L 461.88309616832 262.30944886747" class="trace-invisible-hover-outline" stroke="rgb(0, 150, 0)" fill="none" stroke-width="14.812071838544px" stroke-linecap="round" opacity="0" stroke-linejoin="round"/><path d="M 443.36800637014 327.1122631611 L 461.88309616832 327.1122631611 L 461.88309616832 262.30944886747" stroke="rgb(0, 150, 0)" fill="none" stroke-width="1.851508979818px" stroke-linecap="round" stroke-linejoin="round"/></g><g class="trace" data-circuit-json-type="schematic_trace" data-schematic-trace-id="schematic_trace_10"><path d="M 482.00833936821084 326.9558211620943 L 461.88309616832 326.9558211620943 L 461.88309616832 262.30944886747" class="trace-invisible-hover-outline" stroke="rgb(0, 150, 0)" fill="none" stroke-width="14.812071838544px" stroke-linecap="round" opacity="0" stroke-linejoin="round"/><path d="M 482.00833936821084 326.9558211620943 L 461.88309616832 326.9558211620943 L 461.88309616832 262.30944886747" stroke="rgb(0, 150, 0)" fill="none" stroke-width="1.851508979818px" stroke-linecap="round" stroke-linejoin="round"/></g><g class="trace" data-circuit-json-type="schematic_trace" data-schematic-trace-id="schematic_trace_11"><path d="M 766.5809413782775 321.8741999138823 L 766.5809413782775 288.96841210002344 L 766.0191034568111 288.96841210002344" class="trace-invisible-hover-outline" stroke="rgb(0, 150, 0)" fill="none" stroke-width="14.812071838544px" stroke-linecap="round" opacity="0" stroke-linejoin="round"/><path d="M 766.5809413782775 321.8741999138823 L 766.5809413782775 288.96841210002344 L 766.0191034568111 288.96841210002344" stroke="rgb(0, 150, 0)" fill="none" stroke-width="1.851508979818px" stroke-linecap="round" stroke-linejoin="round"/><circle cx="766.5809413782775" cy="288.96841210002344" r="2.777263469727" class="trace-junction" fill="rgb(0, 150, 0)"/></g><g class="trace" data-circuit-json-type="schematic_trace" data-schematic-trace-id="schematic_trace_12"><path d="M 585.7961263173323 363.53267157805556 L 585.7961263173323 327.00641364496767 L 584.080307522226 327.00641364496767" class="trace-invisible-hover-outline" stroke="rgb(0, 150, 0)" fill="none" stroke-width="14.812071838544px" stroke-linecap="round" opacity="0" stroke-linejoin="round"/><path d="M 585.7961263173323 363.53267157805556 L 585.7961263173323 327.00641364496767 L 584.080307522226 327.00641364496767" stroke="rgb(0, 150, 0)" fill="none" stroke-width="1.851508979818px" stroke-linecap="round" stroke-linejoin="round"/></g><g class="schematic-port-hover" data-schematic-port-id="source_port_0"><circle cx="443.36800637014" cy="308.59717336292" r="3.703017959636" fill="red" opacity="0"/></g><g class="schematic-port-hover" data-schematic-port-id="source_port_1"><circle cx="443.36800637014" cy="327.1122631611" r="3.703017959636" fill="red" opacity="0"/></g><g class="schematic-port-hover" data-schematic-port-id="source_port_2"><circle cx="443.36800637014" cy="345.62735295927996" r="3.703017959636" fill="red" opacity="0"/></g><g class="schematic-port-hover" data-schematic-port-id="source_port_3"><circle cx="558.5815075534838" cy="289.1821192046545" r="3.703017959636" fill="red" opacity="0"/></g><g class="schematic-port-hover" data-schematic-port-id="source_port_4"><circle cx="641.1219259944886" cy="289.19363559050896" r="3.703017959636" fill="red" opacity="0"/></g><g class="schematic-port-hover" data-schematic-port-id="source_port_5"><circle cx="834.1381286047804" cy="151.64510897390642" r="3.703017959636" fill="red" opacity="0"/></g><g class="schematic-port-hover" data-schematic-port-id="source_port_6"><circle cx="834.7582545073908" cy="253.83449056987655" r="3.703017959636" fill="red" opacity="0"/></g><g class="schematic-port-hover" data-schematic-port-id="source_port_7"><circle cx="767.2454605803603" cy="212.22936189001496" r="3.703017959636" fill="red" opacity="0"/></g><g class="schematic-port-hover" data-schematic-port-id="source_port_8"><circle cx="766.0191034568111" cy="288.96841210002344" r="3.703017959636" fill="red" opacity="0"/></g><g class="schematic-port-hover" data-schematic-port-id="source_port_9"><circle cx="669.8985517071637" cy="288.8735592949877" r="3.703017959636" fill="red" opacity="0"/></g><g class="schematic-port-hover" data-schematic-port-id="source_port_10"><circle cx="482.00833936821084" cy="326.9558211620943" r="3.703017959636" fill="red" opacity="0"/></g><g class="schematic-port-hover" data-schematic-port-id="source_port_11"><circle cx="584.080307522226" cy="327.00641364496767" r="3.703017959636" fill="red" opacity="0"/></g><g class="schematic-port-hover" data-schematic-port-id="source_port_12"><circle cx="766.5303488954041" cy="423.9461680678975" r="3.703017959636" fill="red" opacity="0"/></g><g class="schematic-port-hover" data-schematic-port-id="source_port_13"><circle cx="766.5809413782775" cy="321.8741999138823" r="3.703017959636" fill="red" opacity="0"/></g><g class="schematic-port-hover" data-schematic-port-id="source_port_14"><circle cx="585.8467373152955" cy="465.589568448975" r="3.703017959636" fill="red" opacity="0"/></g><g class="schematic-port-hover" data-schematic-port-id="source_port_15"><circle cx="585.7961263173323" cy="363.53267157805556" r="3.703017959636" fill="red" opacity="0"/></g><rect class="component-overlay" x="758.7368732465502" y="148.95003394434136" width="17.152332901309364" height="37.91537678206615" fill="transparent"/><path d="M 767.1775416412896 148.95003394434136 L 758.7368732465502 166.63848978584696" stroke="rgb(132, 0, 0)" fill="none" stroke-width="1.851508979818px" stroke-linecap="round"/><path d="M 767.4485377531205 148.95925445906084 L 775.8892061478596 166.64775658829095" stroke="rgb(132, 0, 0)" fill="none" stroke-width="1.851508979818px" stroke-linecap="round"/><path d="M 767.2752179975198 149.4167715855188 L 767.2752179975198 186.8654107264075" stroke="rgb(132, 0, 0)" fill="none" stroke-width="1.851508979818px" stroke-linecap="round"/><text x="766.8611372717282" y="143.5250015429359" fill="rgb(15, 15, 15)" font-family="sans-serif" text-anchor="middle" dominant-baseline="ideographic" font-size="16.663580818362px">V_USB</text><rect class="component-overlay" x="825.3911965199983" y="84.14721965071135" width="17.152332901309364" height="37.91537678206615" fill="transparent"/><path d="M 833.8318649147377 84.14721965071135 L 825.3911965199983 101.83567549221695" stroke="rgb(132, 0, 0)" fill="none" stroke-width="1.851508979818px" stroke-linecap="round"/><path d="M 834.1028610265686 84.15644016543084 L 842.5435294213077 101.84494229466094" stroke="rgb(132, 0, 0)" fill="none" stroke-width="1.851508979818px" stroke-linecap="round"/><path d="M 833.9295412709679 84.61395729188881 L 833.9295412709679 122.0625964327775" stroke="rgb(132, 0, 0)" fill="none" stroke-width="1.851508979818px" stroke-linecap="round"/><text x="833.5154605451763" y="78.7221872493059" fill="rgb(15, 15, 15)" font-family="sans-serif" text-anchor="middle" dominant-baseline="ideographic" font-size="16.663580818362px">V_BATT</text><rect class="component-overlay" x="440.5685247926552" y="401.07231685483833" width="41.596121088674806" height="44.753693760401404" fill="transparent"/><path d="M 461.7825407156261 401.07231685483833 L 461.7825407156261 431.5882768622352" stroke="rgb(132, 0, 0)" fill="none" stroke-width="1.851508979818px" stroke-linecap="round"/><path d="M 440.5685247926552 431.58524038750835 L 482.16464588133 431.58524038750835" stroke="rgb(132, 0, 0)" fill="none" stroke-width="1.851508979818px" stroke-linecap="round"/><path d="M 445.7680434003189 438.7056255013741 L 476.9651272736662 438.7056255013741" stroke="rgb(132, 0, 0)" fill="none" stroke-width="1.851508979818px" stroke-linecap="round"/><path d="M 456.1670713581014 445.82601061523974 L 466.5660993158839 445.82601061523974" stroke="rgb(132, 0, 0)" fill="none" stroke-width="1.851508979818px" stroke-linecap="round"/><text x="459.78890990651723" y="456.6694562734479" fill="rgb(15, 15, 15)" font-family="sans-serif" text-anchor="middle" dominant-baseline="hanging" font-size="16.663580818362px">GND</text><rect class="component-overlay" x="564.6196264404612" y="502.90531074482834" width="41.59612108867486" height="44.753693760401404" fill="transparent"/><path d="M 585.8336423634322 502.90531074482834 L 585.8336423634322 533.4212707522253" stroke="rgb(132, 0, 0)" fill="none" stroke-width="1.851508979818px" stroke-linecap="round"/><path d="M 564.6196264404612 533.4182342774983 L 606.215747529136 533.4182342774983" stroke="rgb(132, 0, 0)" fill="none" stroke-width="1.851508979818px" stroke-linecap="round"/><path d="M 569.8191450481249 540.5386193913641 L 601.0162289214722 540.5386193913641" stroke="rgb(132, 0, 0)" fill="none" stroke-width="1.851508979818px" stroke-linecap="round"/><path d="M 580.2181730059075 547.6590045052297 L 590.6172009636899 547.6590045052297" stroke="rgb(132, 0, 0)" fill="none" stroke-width="1.851508979818px" stroke-linecap="round"/><text x="583.8400115543233" y="558.5024501634379" fill="rgb(15, 15, 15)" font-family="sans-serif" text-anchor="middle" dominant-baseline="hanging" font-size="16.663580818362px">GND</text><rect class="component-overlay" x="745.1417519727161" y="456.61758624937835" width="41.59612108867486" height="44.753693760401404" fill="transparent"/><path d="M 766.3557678956871 456.61758624937835 L 766.3557678956871 487.1335462567752" stroke="rgb(132, 0, 0)" fill="none" stroke-width="1.851508979818px" stroke-linecap="round"/><path d="M 745.1417519727161 487.13050978204836 L 786.7378730613909 487.13050978204836" stroke="rgb(132, 0, 0)" fill="none" stroke-width="1.851508979818px" stroke-linecap="round"/><path d="M 750.3412705803798 494.2508948959141 L 781.5383544537272 494.2508948959141" stroke="rgb(132, 0, 0)" fill="none" stroke-width="1.851508979818px" stroke-linecap="round"/><path d="M 760.7402985381624 501.37128000977975 L 771.1393264959448 501.37128000977975" stroke="rgb(132, 0, 0)" fill="none" stroke-width="1.851508979818px" stroke-linecap="round"/><text x="764.3621370865782" y="512.2147256679879" fill="rgb(15, 15, 15)" font-family="sans-serif" text-anchor="middle" dominant-baseline="hanging" font-size="16.663580818362px">GND</text><path class="net-label" d="
    M 461.88309616832,262.30944886747
    L 451.88494767730276,257.3103746219614
    L 451.88494767730276,224.94599765474277
    L 471.8812446593372,224.94599765474277
    L 471.8812446593372,257.3103746219614
    Z
  " fill="rgba(255, 255, 255, 0.6)" stroke="rgb(132, 0, 0)" stroke-width="1.851508979818px"/><text class="net-label-text" x="461.88309616832" y="253.977658458289" fill="rgb(132, 0, 0)" text-anchor="start" dominant-baseline="central" font-family="sans-serif" font-variant-numeric="tabular-nums" font-size="16.663580818362px" transform="rotate(-90 461.88309616832 253.977658458289)">EN</text></svg>