<svg xmlns="http://www.w3.org/2000/svg" width="1200" height="600" style="background-color: rgb(245, 241, 237)" data-real-to-screen-transform="matrix(125.7967125126,0,0,-125.7967125126,437.0932572962,323.5323716874)" data-software-used-string="@tscircuit/core@0.0.555"><style>
              .boundary { fill: rgb(245, 241, 237); }
              .schematic-boundary { fill: none; stroke: #fff; }
              .component { fill: none; stroke: rgb(132, 0, 0); }
              .chip { fill: rgb(255, 255, 194); stroke: rgb(132, 0, 0); }
              .component-pin { fill: none; stroke: rgb(132, 0, 0); }
              .trace:hover {
                filter: invert(1);
              }
              .trace:hover .trace-crossing-outline {
                opacity: 0;
              }
              .trace:hover .trace-junction {
                filter: invert(1);
              }
              .text { font-family: sans-serif; fill: rgb(0, 150, 0); }
              .pin-number { fill: rgb(169, 0, 0); }
              .port-label { fill: rgb(0, 100, 100); }
              .component-name { fill: rgb(0, 100, 100); }
            </style><rect class="boundary" x="0" y="0" width="1200" height="600"/><g data-circuit-json-type="schematic_component" data-schematic-component-id="schematic_component_0"><rect class="component chip" x="411.93391479368" y="241.76450855420995" width="50.31868500504004" height="163.53572626638004" stroke-width="2.515934250252px" fill="rgb(255, 255, 194)" stroke="rgb(132, 0, 0)"/><rect class="component-overlay" x="411.93391479368" y="241.76450855420995" width="50.31868500504004" height="163.53572626638004" fill="transparent"/><text x="411.93391479368" y="421.65380744722796" fill="#006464" text-anchor="start" dominant-baseline="middle" font-family="sans-serif" font-size="22.643408252268px" transform="rotate(0, 411.93391479368, 421.65380744722796)"></text><text x="411.93391479368" y="225.41093592757198" fill="#006464" text-anchor="start" dominant-baseline="middle" font-family="sans-serif" font-size="22.643408252268px" transform="rotate(0, 411.93391479368, 225.41093592757198)">U1</text><line class="component-pin" x1="510.05535055350805" y1="266.92385105673" x2="462.25259979872004" y2="266.92385105673" stroke-width="2.515934250252px"/><text class="pin-number" x="487.41194230124006" y="264.40791680647794" style="font-family: sans-serif;" fill="rgb(169, 0, 0)" text-anchor="middle" dominant-baseline="auto" font-size="18.86950687689px" transform="">1</text><line class="component-pin" x1="510.05535055350805" y1="304.66286481051" x2="462.25259979872004" y2="304.66286481051" stroke-width="2.515934250252px"/><text class="pin-number" x="487.41194230124006" y="302.146930560258" style="font-family: sans-serif;" fill="rgb(169, 0, 0)" text-anchor="middle" dominant-baseline="auto" font-size="18.86950687689px" transform="">2</text><line class="component-pin" x1="510.05535055350805" y1="342.40187856429" x2="462.25259979872004" y2="342.40187856429" stroke-width="2.515934250252px"/><text class="pin-number" x="487.41194230124006" y="339.88594431403794" style="font-family: sans-serif;" fill="rgb(169, 0, 0)" text-anchor="middle" dominant-baseline="auto" font-size="18.86950687689px" transform="">3</text><line class="component-pin" x1="510.05535055350805" y1="380.14089231807" x2="462.25259979872004" y2="380.14089231807" stroke-width="2.515934250252px"/><text class="pin-number" x="487.41194230124006" y="377.62495806781794" style="font-family: sans-serif;" fill="rgb(169, 0, 0)" text-anchor="middle" dominant-baseline="auto" font-size="18.86950687689px" transform="">4</text></g><g data-circuit-json-type="schematic_component" data-schematic-component-id="schematic_component_1"><rect class="component-overlay" x="582.6964941999537" y="169.18212825694212" width="33.283721905406196" height="133.1348498826112" fill="transparent"/><path d="M 599.3383551526567 302.3169781395533 L 599.3383551526567 269.0332688138184" stroke="rgb(132, 0, 0)" fill="none" stroke-width="2.515934250252px" stroke-linecap="round"/><path d="M 599.3383551526567 202.46585016234826 L 599.3383551526567 169.18212825694212" stroke="rgb(132, 0, 0)" fill="none" stroke-width="2.515934250252px" stroke-linecap="round"/><path d="M 582.6964941999537 235.74957206775463 L 582.6964941999537 202.46586274201968 L 615.9802161053599 202.46586274201968 L 615.9802161053599 269.033293973161 L 582.6964941999537 269.033293973161 L 582.6964941999537 235.74957206775483" stroke="rgb(132, 0, 0)" fill="none" stroke-width="2.515934250252px" stroke-linecap="round"/><text x="634.0100362160641" y="217.80035620059311" fill="rgb(15, 15, 15)" font-family="sans-serif" text-anchor="start" dominant-baseline="middle" font-size="22.643408252268px">R7</text><text x="634.0100362160641" y="258.05530420462514" fill="rgb(15, 15, 15)" font-family="sans-serif" text-anchor="start" dominant-baseline="middle" font-size="22.643408252268px">2.2kΩ</text></g><g data-circuit-json-type="schematic_component" data-schematic-component-id="schematic_component_2"><rect class="component-overlay" x="628.3617218656109" y="343.56833992559143" width="32.389521133852895" height="110.85169825563685" fill="transparent"/><path d="M 644.6192612819168 421.75577702724775 L 644.6192612819168 454.4200381812283" stroke="rgb(132, 0, 0)" fill="none" stroke-width="2.515934250252px" stroke-linecap="round"/><path d="M 644.4035576589713 343.56833992559143 L 644.4035576589713 376.05746689641177" stroke="rgb(132, 0, 0)" fill="none" stroke-width="2.515934250252px" stroke-linecap="round"/><path d="M 644.404538873329 390.53367454485425 L 644.404538873329 407.281406010808" stroke="rgb(132, 0, 0)" fill="none" stroke-width="2.515934250252px" stroke-linecap="round"/><path d="M 628.6255049920785 390.2946230520666 L 660.3245908693059 390.2946230520666" stroke="rgb(132, 0, 0)" fill="none" stroke-width="2.515934250252px" stroke-linecap="round"/><path d="M 628.6133907686635 407.53013127078793 L 660.3124766458909 407.53013127078793" stroke="rgb(132, 0, 0)" fill="none" stroke-width="2.515934250252px" stroke-linecap="round"/><path d="M 660.7352919763172 408.114557637779 L 660.7352919763172 408.114557637779 L 659.6752216592162 410.0803508135406 L 658.5762802613815 411.84875091371237 L 657.4424917876216 413.42638230651517 L 656.2778802427446 414.81986936017 L 655.0864696315588 416.03583644289785 L 653.8722839588722 417.08090792291966 L 652.6393472294934 417.96170816845637 L 651.3916834482304 418.68486154772893 L 650.1333166198915 419.25699242895826 L 648.8682707492849 419.6847251803654 L 647.6005698412188 419.97468417017126 L 646.3342379005014 420.13349376659676 L 645.073298931941 420.16777833786296 L 643.8217769403459 420.0841622521907 L 642.5836959305243 419.88926987780104 L 641.3630799072843 419.58972558291487 L 640.1639528754342 419.19215373575315 L 638.9903388397823 418.70317870453687 L 637.8462618051368 418.1294248574869 L 636.7357457763059 417.47751656282435 L 635.6628147580977 416.75407818877 L 634.6314927553208 415.96573410354495 L 633.645803772783 415.11910867537006 L 632.7097718152928 414.22082627246635 L 631.8274208876585 413.27751126305475 L 631.002774994688 412.2957880153562 L 630.2398581411899 411.2822808975917 L 629.542694331972 410.24361427798215 L 628.9153075718431 409.18641252474856 L 628.3617218656109 408.1173000061118 L 628.3617218656109 408.1173000061118" stroke="rgb(132, 0, 0)" fill="none" stroke-width="2.515934250252px" stroke-linecap="round"/><path d="M 660.7512429994638 389.71958111982883 L 660.7512429994638 389.71958111982883 L 659.6911726823627 387.7537879440672 L 658.5922312845281 385.98538784389547 L 657.4584428107681 384.40775645109267 L 656.2938312658912 383.01426939743783 L 655.1024206547053 381.79830231471 L 653.8882349820188 380.75323083468817 L 652.65529825264 379.87243058915146 L 651.4076344713769 379.1492772098789 L 650.149267643038 378.5771463286496 L 648.8842217724314 378.14941357724246 L 647.6165208643653 377.8594545874366 L 646.3501889236479 377.700644991011 L 645.0892499550876 377.6663604197449 L 643.8377279634925 377.7499765054171 L 642.5996469536708 377.9448688798068 L 641.3790309304309 378.24441317469297 L 640.1799038985807 378.6419850218547 L 639.0062898629288 379.13096005307096 L 637.8622128282833 379.7047139001209 L 636.7516967994524 380.3566221947835 L 635.6787657812444 381.08006056883784 L 634.6474437784673 381.8684046540629 L 633.6617547959296 382.7150300822378 L 632.7257228384394 383.6133124851415 L 631.843371910805 384.5566274945531 L 631.0187260178345 385.5383507422516 L 630.2558091643364 386.5518578600162 L 629.5586453551186 387.5905244796257 L 628.9312585949896 388.6477262328593 L 628.3776728887574 389.716838751496 L 628.3776728887574 389.716838751496" stroke="rgb(132, 0, 0)" fill="none" stroke-width="2.515934250252px" stroke-linecap="round"/><text x="621.9689971088169" y="401.56032248178985" fill="rgb(15, 15, 15)" font-family="sans-serif" text-anchor="end" dominant-baseline="middle" font-size="22.643408252268px">JP1</text></g><g class="trace" data-circuit-json-type="schematic_trace" data-schematic-trace-id="schematic_trace_0"><path d="M 599.3831639416541 305.07694543240865 L 555.977224372707 305.07694543240865 L 555.977224372707 304.66286481051 L 512.57128480376 304.66286481051" class="trace-invisible-hover-outline" stroke="rgb(0, 150, 0)" fill="none" stroke-width="20.127474002016px" stroke-linecap="round" opacity="0" stroke-linejoin="round"/><path d="M 599.3831639416541 305.07694543240865 L 555.977224372707 305.07694543240865 L 555.977224372707 304.66286481051 L 512.57128480376 304.66286481051" stroke="rgb(0, 150, 0)" fill="none" stroke-width="2.515934250252px" stroke-linecap="round" stroke-linejoin="round"/></g><g class="trace" data-circuit-json-type="schematic_trace" data-schematic-trace-id="schematic_trace_1"><path d="M 644.5236683600785 342.88420708426287 L 578.5474765819192 342.88420708426287 L 578.5474765819192 342.40187856429 L 512.57128480376 342.40187856429" class="trace-invisible-hover-outline" stroke="rgb(0, 150, 0)" fill="none" stroke-width="20.127474002016px" stroke-linecap="round" opacity="0" stroke-linejoin="round"/><path d="M 644.5236683600785 342.88420708426287 L 578.5474765819192 342.88420708426287 L 578.5474765819192 342.40187856429 L 512.57128480376 342.40187856429" stroke="rgb(0, 150, 0)" fill="none" stroke-width="2.515934250252px" stroke-linecap="round" stroke-linejoin="round"/></g><g class="trace" data-circuit-json-type="schematic_trace" data-schematic-trace-id="schematic_trace_2"><path d="M 599.3831639416541 305.07694543240865 L 650.94766856762 305.07694543240865 L 650.94766856762 304.66286481051" class="trace-invisible-hover-outline" stroke="rgb(0, 150, 0)" fill="none" stroke-width="20.127474002016px" stroke-linecap="round" opacity="0" stroke-linejoin="round"/><path d="M 599.3831639416541 305.07694543240865 L 650.94766856762 305.07694543240865 L 650.94766856762 304.66286481051" stroke="rgb(0, 150, 0)" fill="none" stroke-width="2.515934250252px" stroke-linecap="round" stroke-linejoin="round"/></g><g class="trace" data-circuit-json-type="schematic_trace" data-schematic-trace-id="schematic_trace_3"><path d="M 644.5080192490419 455.04475723523706 L 644.65783294199 455.04475723523706 L 644.65783294199 468.19859107688995" class="trace-invisible-hover-outline" stroke="rgb(0, 150, 0)" fill="none" stroke-width="20.127474002016px" stroke-linecap="round" opacity="0" stroke-linejoin="round"/><path d="M 644.5080192490419 455.04475723523706 L 644.65783294199 455.04475723523706 L 644.65783294199 468.19859107688995" stroke="rgb(0, 150, 0)" fill="none" stroke-width="2.515934250252px" stroke-linecap="round" stroke-linejoin="round"/></g><g class="trace" data-circuit-json-type="schematic_trace" data-schematic-trace-id="schematic_trace_4"><path d="M 512.57128480376 266.92385105673 L 537.73062730628 266.92385105673 L 537.73062730628 222.89500167731995" class="trace-invisible-hover-outline" stroke="rgb(0, 150, 0)" fill="none" stroke-width="20.127474002016px" stroke-linecap="round" opacity="0" stroke-linejoin="round"/><path d="M 512.57128480376 266.92385105673 L 537.73062730628 266.92385105673 L 537.73062730628 222.89500167731995" stroke="rgb(0, 150, 0)" fill="none" stroke-width="2.515934250252px" stroke-linecap="round" stroke-linejoin="round"/></g><g class="trace" data-circuit-json-type="schematic_trace" data-schematic-trace-id="schematic_trace_5"><path d="M 599.451911845042 166.37583003486856 L 599.371016437454 166.37583003486856 L 599.371016437454 134.83730291849997" class="trace-invisible-hover-outline" stroke="rgb(0, 150, 0)" fill="none" stroke-width="20.127474002016px" stroke-linecap="round" opacity="0" stroke-linejoin="round"/><path d="M 599.451911845042 166.37583003486856 L 599.371016437454 166.37583003486856 L 599.371016437454 134.83730291849997" stroke="rgb(0, 150, 0)" fill="none" stroke-width="2.515934250252px" stroke-linecap="round" stroke-linejoin="round"/></g><g class="trace" data-circuit-json-type="schematic_trace" data-schematic-trace-id="schematic_trace_6"><path d="M 512.57128480376 380.14089231807 L 562.8899698088001 380.14089231807 L 562.8899698088001 421.65380744722796" class="trace-invisible-hover-outline" stroke="rgb(0, 150, 0)" fill="none" stroke-width="20.127474002016px" stroke-linecap="round" opacity="0" stroke-linejoin="round"/><path d="M 512.57128480376 380.14089231807 L 562.8899698088001 380.14089231807 L 562.8899698088001 421.65380744722796" stroke="rgb(0, 150, 0)" fill="none" stroke-width="2.515934250252px" stroke-linecap="round" stroke-linejoin="round"/></g><g class="trace" data-circuit-json-type="schematic_trace" data-schematic-trace-id="schematic_trace_7"><path d="M 512.57128480376 380.14089231807 L 562.8899698088001 380.14089231807 L 562.8899698088001 421.65380744722796" class="trace-invisible-hover-outline" stroke="rgb(0, 150, 0)" fill="none" stroke-width="20.127474002016px" stroke-linecap="round" opacity="0" stroke-linejoin="round"/><path d="M 512.57128480376 380.14089231807 L 562.8899698088001 380.14089231807 L 562.8899698088001 421.65380744722796" stroke="rgb(0, 150, 0)" fill="none" stroke-width="2.515934250252px" stroke-linecap="round" stroke-linejoin="round"/></g><path class="net-label" d="
    M 650.94766856762,304.66286481051
    L 657.7406910433003,291.07681985914917
    L 810.709493458622,291.07681985914917
    L 810.709493458622,318.2489097618708
    L 657.7406910433003,318.2489097618708
    Z
  " fill="rgba(255, 255, 255, 0.6)" stroke="rgb(132, 0, 0)" stroke-width="2.515934250252px"/><text class="net-label-text" x="662.269372693754" y="304.66286481051" fill="rgb(132, 0, 0)" text-anchor="start" dominant-baseline="central" font-family="sans-serif" font-variant-numeric="tabular-nums" font-size="22.643408252268px" transform="">SD_CS_PA07</text><rect class="component-overlay" x="615.694397853089" y="468.0622903388825" width="56.52314240188764" height="60.813829251938785" fill="transparent"/><path d="M 644.5211925528589 468.0622903388825 L 644.5211925528589 509.52908839323334" stroke="rgb(132, 0, 0)" fill="none" stroke-width="2.515934250252px" stroke-linecap="round"/><path d="M 615.694397853089 509.52496226106297 L 672.2175402549766 509.52496226106297" stroke="rgb(132, 0, 0)" fill="none" stroke-width="2.515934250252px" stroke-linecap="round"/><path d="M 622.7597953707017 519.2005409259422 L 665.1521427373638 519.2005409259422" stroke="rgb(132, 0, 0)" fill="none" stroke-width="2.515934250252px" stroke-linecap="round"/><path d="M 636.8905778262558 528.8761195908213 L 651.02136028181 528.8761195908213" stroke="rgb(132, 0, 0)" fill="none" stroke-width="2.515934250252px" stroke-linecap="round"/><text x="641.8121351895575" y="543.6108017444633" fill="rgb(15, 15, 15)" font-family="sans-serif" text-anchor="middle" dominant-baseline="hanging" font-size="22.643408252268px">GND</text><rect class="component-overlay" x="525.9830384099346" y="169.49324052333608" width="23.307551995978088" height="51.52154059041433" fill="transparent"/><path d="M 537.4526920496548 169.49324052333608 L 525.9830384099346 193.5293064408174" stroke="rgb(132, 0, 0)" fill="none" stroke-width="2.515934250252px" stroke-linecap="round"/><path d="M 537.8209367661927 169.50576987590236 L 549.2905904059127 193.5418986917399" stroke="rgb(132, 0, 0)" fill="none" stroke-width="2.515934250252px" stroke-linecap="round"/><path d="M 537.5854201610267 170.12746980881093 L 537.5854201610267 221.01478111375042" stroke="rgb(132, 0, 0)" fill="none" stroke-width="2.515934250252px" stroke-linecap="round"/><text x="537.022744045629" y="162.12140221404283" fill="rgb(15, 15, 15)" font-family="sans-serif" text-anchor="middle" dominant-baseline="ideographic" font-size="22.643408252268px">V3_3</text><rect class="component-overlay" x="587.6234275411086" y="81.43554176451612" width="23.307551995978088" height="51.52154059041432" fill="transparent"/><path d="M 599.0930811808289 81.43554176451612 L 587.6234275411086 105.47160768199741" stroke="rgb(132, 0, 0)" fill="none" stroke-width="2.515934250252px" stroke-linecap="round"/><path d="M 599.4613258973668 81.44807111708236 L 610.9309795370867 105.48419993291994" stroke="rgb(132, 0, 0)" fill="none" stroke-width="2.515934250252px" stroke-linecap="round"/><path d="M 599.2258092922008 82.06977104999095 L 599.2258092922008 132.95708235493044" stroke="rgb(132, 0, 0)" fill="none" stroke-width="2.515934250252px" stroke-linecap="round"/><text x="598.6631331768031" y="74.06370345522285" fill="rgb(15, 15, 15)" font-family="sans-serif" text-anchor="middle" dominant-baseline="ideographic" font-size="22.643408252268px">V3_3</text><rect class="component-overlay" x="533.926534719899" y="421.5175067092205" width="56.52314240188764" height="60.81382925193873" fill="transparent"/><path d="M 562.753329419669 421.5175067092205 L 562.753329419669 462.98430476357134" stroke="rgb(132, 0, 0)" fill="none" stroke-width="2.515934250252px" stroke-linecap="round"/><path d="M 533.926534719899 462.980178631401 L 590.4496771217866 462.980178631401" stroke="rgb(132, 0, 0)" fill="none" stroke-width="2.515934250252px" stroke-linecap="round"/><path d="M 540.9919322375117 472.65575729628017 L 583.3842796041738 472.65575729628017" stroke="rgb(132, 0, 0)" fill="none" stroke-width="2.515934250252px" stroke-linecap="round"/><path d="M 555.1227146930659 482.33133596115925 L 569.25349714862 482.33133596115925" stroke="rgb(132, 0, 0)" fill="none" stroke-width="2.515934250252px" stroke-linecap="round"/><text x="560.0442720563675" y="497.0660181148013" fill="rgb(15, 15, 15)" font-family="sans-serif" text-anchor="middle" dominant-baseline="hanging" font-size="22.643408252268px">GND</text><rect class="component-overlay" x="533.926534719899" y="421.5175067092205" width="56.52314240188764" height="60.81382925193873" fill="transparent"/><path d="M 562.753329419669 421.5175067092205 L 562.753329419669 462.98430476357134" stroke="rgb(132, 0, 0)" fill="none" stroke-width="2.515934250252px" stroke-linecap="round"/><path d="M 533.926534719899 462.980178631401 L 590.4496771217866 462.980178631401" stroke="rgb(132, 0, 0)" fill="none" stroke-width="2.515934250252px" stroke-linecap="round"/><path d="M 540.9919322375117 472.65575729628017 L 583.3842796041738 472.65575729628017" stroke="rgb(132, 0, 0)" fill="none" stroke-width="2.515934250252px" stroke-linecap="round"/><path d="M 555.1227146930659 482.33133596115925 L 569.25349714862 482.33133596115925" stroke="rgb(132, 0, 0)" fill="none" stroke-width="2.515934250252px" stroke-linecap="round"/><text x="560.0442720563675" y="497.0660181148013" fill="rgb(15, 15, 15)" font-family="sans-serif" text-anchor="middle" dominant-baseline="hanging" font-size="22.643408252268px">GND</text></svg>