<svg xmlns="http://www.w3.org/2000/svg" width="1200" height="600" style="background-color: rgb(245, 241, 237)" data-real-to-screen-transform="matrix(130.4624623945,0,0,-130.4624623945,356.6266251519,189.3389583722)" data-software-used-string="@tscircuit/core@0.0.571"><style>
              .boundary { fill: rgb(245, 241, 237); }
              .schematic-boundary { fill: none; stroke: #fff; }
              .component { fill: none; stroke: rgb(132, 0, 0); }
              .chip { fill: rgb(255, 255, 194); stroke: rgb(132, 0, 0); }
              .component-pin { fill: none; stroke: rgb(132, 0, 0); }
              .trace:hover {
                filter: invert(1);
              }
              .trace:hover .trace-crossing-outline {
                opacity: 0;
              }
              .trace:hover .trace-junction {
                filter: invert(1);
              }
              .text { font-family: sans-serif; fill: rgb(0, 150, 0); }
              .pin-number { fill: rgb(169, 0, 0); }
              .port-label { fill: rgb(0, 100, 100); }
              .component-name { fill: rgb(0, 100, 100); }
            </style><rect class="boundary" x="0" y="0" width="1200" height="600"/><g data-circuit-json-type="schematic_component" data-schematic-component-id="schematic_component_0"><rect class="component chip" x="330.534132673" y="137.1539734144" width="52.1849849578" height="104.3699699156" stroke-width="2.60924924789px" fill="rgb(255, 255, 194)" stroke="rgb(132, 0, 0)"/><rect class="component-overlay" x="330.534132673" y="137.1539734144" width="52.1849849578" height="104.3699699156" fill="transparent"/><text x="330.534132673" y="258.484063441285" fill="#006464" text-anchor="start" dominant-baseline="middle" font-family="sans-serif" font-size="23.483243231009997px" transform="rotate(0, 330.534132673, 258.484063441285)"></text><text x="330.534132673" y="120.193853303115" fill="#006464" text-anchor="start" dominant-baseline="middle" font-family="sans-serif" font-size="23.483243231009997px" transform="rotate(0, 330.534132673, 120.193853303115)">U5</text><line class="component-pin" x1="432.29485334071" y1="215.4314508511" x2="382.7191176308" y2="215.4314508511" stroke-width="2.60924924789px"/><text class="pin-number" x="408.8116101097" y="212.82220160321" style="font-family: sans-serif;" fill="rgb(169, 0, 0)" text-anchor="middle" dominant-baseline="auto" font-size="19.569369359175px" transform="">1</text><line class="component-pin" x1="432.29485334071" y1="189.3389583722" x2="382.7191176308" y2="189.3389583722" stroke-width="2.60924924789px"/><text class="pin-number" x="408.8116101097" y="186.72970912431" style="font-family: sans-serif;" fill="rgb(169, 0, 0)" text-anchor="middle" dominant-baseline="auto" font-size="19.569369359175px" transform="">2</text><line class="component-pin" x1="432.29485334071" y1="163.2464658933" x2="382.7191176308" y2="163.2464658933" stroke-width="2.60924924789px"/><text class="pin-number" x="408.8116101097" y="160.63721664541" style="font-family: sans-serif;" fill="rgb(169, 0, 0)" text-anchor="middle" dominant-baseline="auto" font-size="19.569369359175px" transform="">3</text></g><g data-circuit-json-type="schematic_component" data-schematic-component-id="schematic_component_1"><rect class="component-overlay" x="625.2704006672093" y="237.81691769229147" width="114.96314352089246" height="33.59083555127003" fill="transparent"/><path d="M 659.146166236349 254.6774427597845 L 625.2704006672093 254.6774427597845" stroke="rgb(132, 0, 0)" fill="none" stroke-width="2.60924924789px" stroke-linecap="round"/><path d="M 740.2335441881017 254.45373877551654 L 706.5394084591077 254.45373877551654" stroke="rgb(132, 0, 0)" fill="none" stroke-width="2.60924924789px" stroke-linecap="round"/><path d="M 691.774201861394 238.0904844296864 L 691.774201861394 270.96527675610423" stroke="rgb(132, 0, 0)" fill="none" stroke-width="2.60924924789px" stroke-linecap="round"/><path d="M 673.8994355187536 238.07792089455782 L 673.8994355187536 270.9527132209756" stroke="rgb(132, 0, 0)" fill="none" stroke-width="2.60924924789px" stroke-linecap="round"/><path d="M 673.2933330109612 271.3912106033299 L 673.2933330109612 271.3912106033299 L 671.2546293505418 270.29182270107077 L 669.4206399961381 269.15212200520085 L 667.7844948843547 267.97628176926145 L 666.3393239517959 266.7684752467937 L 665.0782571350661 265.5328756913389 L 663.9944243707699 264.2736563564383 L 663.0809555955117 262.99499049563315 L 662.3309807458959 261.70105136246457 L 661.737629758527 260.39601221047394 L 661.2940325700093 259.0840462932024 L 660.9933191169474 257.7693268641912 L 660.8286193359457 256.45602717698165 L 660.7930631636088 255.1483204851149 L 660.8797805365409 253.85038004213223 L 661.0819013913466 252.56637910157488 L 661.3925556646302 251.30049091698405 L 661.8048732929964 250.056888741901 L 662.3119842130493 248.83974582986696 L 662.9070183613936 247.65323543442315 L 663.5831056746338 246.50153080911085 L 664.333376089374 245.38880520747128 L 665.1509595422191 244.31923188304566 L 666.0289859697732 243.29698408937523 L 666.9605853086409 242.32623508000123 L 667.9388874954266 241.4111581084649 L 668.9570224667348 240.55592642830746 L 670.0081201591698 239.76471329307014 L 671.0853105093363 239.04169195629424 L 672.1817234538385 238.3910356715209 L 673.290488929281 237.81691769229147 L 673.290488929281 237.81691769229147" stroke="rgb(132, 0, 0)" fill="none" stroke-width="2.60924924789px" stroke-linecap="round"/><path d="M 692.3705718694919 271.4077532435615 L 692.3705718694919 271.4077532435615 L 694.4092755299113 270.30836534130236 L 696.243264884315 269.16866464543244 L 697.8794099960984 267.992824409493 L 699.3245809286572 266.7850178870253 L 700.585647745387 265.5494183315705 L 701.6694805096831 264.2901989966699 L 702.5829492849414 263.0115331358647 L 703.3329241345572 261.71759400269616 L 703.9262751219261 260.4125548507055 L 704.3698723104437 259.100588933434 L 704.6705857635056 257.7858695044228 L 704.8352855445073 256.47256981721324 L 704.8708417168442 255.1648631253465 L 704.7841243439121 253.86692268236382 L 704.5820034891065 252.58292174180644 L 704.2713492158229 251.3170335572156 L 703.8590315874567 250.07343138213255 L 703.3519206674038 248.85628847009852 L 702.7568865190594 247.66977807465474 L 702.0807992058193 246.51807344934244 L 701.330528791079 245.40534784770284 L 700.512945338234 244.33577452327722 L 699.6349189106799 243.3135267296068 L 698.7033195718121 242.3427777202328 L 697.7250173850265 241.42770074869645 L 696.7068824137183 240.57246906853902 L 695.6557847212832 239.78125593330174 L 694.5785943711168 239.0582345965258 L 693.4821814266146 238.4075783117525 L 692.3734159511721 237.83346033252303 L 692.3734159511721 237.83346033252303" stroke="rgb(132, 0, 0)" fill="none" stroke-width="2.60924924789px" stroke-linecap="round"/><text x="680.0906621341471" y="231.21283683457403" fill="rgb(15, 15, 15)" font-family="sans-serif" text-anchor="middle" dominant-baseline="auto" font-size="23.483243231009997px">VE</text></g><g data-circuit-json-type="schematic_component" data-schematic-component-id="schematic_component_2"><rect class="component-overlay" x="574.2485016079022" y="290.6587550557553" width="34.51820187270937" height="135.71345908966242" fill="transparent"/><path d="M 591.5076025442571 340.07673555613786 L 608.7667034806116 374.5949243826005" stroke="rgb(132, 0, 0)" fill="none" stroke-width="2.60924924789px" stroke-linecap="round"/><path d="M 574.2485016079022 374.5949243826005 L 591.5076025442571 340.07673555613786" stroke="rgb(132, 0, 0)" fill="none" stroke-width="2.60924924789px" stroke-linecap="round"/><path d="M 608.7667034806111 374.5949243826005 L 574.2485016079022 374.5949243826005" stroke="rgb(132, 0, 0)" fill="none" stroke-width="2.60924924789px" stroke-linecap="round"/><path d="M 574.2485016079022 340.07673555613786 L 608.7667034806111 340.07673555613786" stroke="rgb(132, 0, 0)" fill="none" stroke-width="2.60924924789px" stroke-linecap="round"/><path d="M 591.5076025442571 374.88255497344164 L 591.5076025442571 426.37221414541773" stroke="rgb(132, 0, 0)" fill="none" stroke-width="2.60924924789px" stroke-linecap="round"/><path d="M 591.5187179460528 290.6587550557553 L 591.5187179460528 339.4136339985253" stroke="rgb(132, 0, 0)" fill="none" stroke-width="2.60924924789px" stroke-linecap="round"/><text x="561.5261545238395" y="359.59574640482856" fill="rgb(15, 15, 15)" font-family="sans-serif" text-anchor="end" dominant-baseline="middle" font-size="23.483243231009997px">D1</text><text x="632.9792188301606" y="358.95474518834567" fill="rgb(15, 15, 15)" font-family="sans-serif" text-anchor="start" dominant-baseline="middle" font-size="23.483243231009997px"></text></g><g data-circuit-json-type="schematic_component" data-schematic-component-id="schematic_component_3"><rect class="component-overlay" x="574.1178369286911" y="81.18786014025135" width="34.5182018727088" height="138.07276835209706" fill="transparent"/><path d="M 591.3769378650454 219.2606284923484 L 591.3769378650455 184.74243966588574" stroke="rgb(132, 0, 0)" fill="none" stroke-width="2.60924924789px" stroke-linecap="round"/><path d="M 591.3769378650455 115.70606201296022 L 591.3769378650455 81.18786014025135" stroke="rgb(132, 0, 0)" fill="none" stroke-width="2.60924924789px" stroke-linecap="round"/><path d="M 574.1178369286911 150.22426388566925 L 574.1178369286911 115.7060750592066 L 608.6360388013999 115.7060750592066 L 608.6360388013999 184.74246575837833 L 574.1178369286911 184.74246575837833 L 574.1178369286911 150.22426388566947" stroke="rgb(132, 0, 0)" fill="none" stroke-width="2.60924924789px" stroke-linecap="round"/><text x="627.334577747215" y="131.60931876263376" fill="rgb(15, 15, 15)" font-family="sans-serif" text-anchor="start" dominant-baseline="middle" font-size="23.483243231009997px">R5</text><text x="627.334577747215" y="173.35730672887377" fill="rgb(15, 15, 15)" font-family="sans-serif" text-anchor="start" dominant-baseline="middle" font-size="23.483243231009997px">100kΩ</text></g><g class="trace" data-circuit-json-type="schematic_trace" data-schematic-trace-id="schematic_trace_0"><path d="M 434.9041025886 189.3389583722 L 493.61221066612495 189.3389583722 L 493.61221066612495 319.8014207667" class="trace-invisible-hover-outline" stroke="rgb(0, 150, 0)" fill="none" stroke-width="20.87399398312px" stroke-linecap="round" opacity="0" stroke-linejoin="round"/><path d="M 434.9041025886 189.3389583722 L 493.61221066612495 189.3389583722 L 493.61221066612495 319.8014207667" stroke="rgb(0, 150, 0)" fill="none" stroke-width="2.60924924789px" stroke-linecap="round" stroke-linejoin="round"/></g><g class="trace" data-circuit-json-type="schematic_trace" data-schematic-trace-id="schematic_trace_1"><path class="trace-crossing-outline" d="M 498.50455300591875 215.4314508511 Q 493.612210666125 208.58217157538877 488.71986832633127 215.4314508511" stroke="rgb(245, 241, 237)" fill="none" stroke-width="3.9138738718349995px" stroke-linecap="round"/><path d="M 498.50455300591875 215.4314508511 Q 493.612210666125 208.58217157538877 488.71986832633127 215.4314508511" stroke="rgb(0, 150, 0)" fill="none" stroke-width="2.60924924789px" stroke-linecap="round"/><path d="M 624.622511032712 254.56207480428907 L 529.763306810656 254.56207480428907 L 529.763306810656 215.4314508511 L 498.50455300591875 215.4314508511M 488.71986832633127 215.4314508511 L 434.9041025886 215.4314508511" class="trace-invisible-hover-outline" stroke="rgb(0, 150, 0)" fill="none" stroke-width="20.87399398312px" stroke-linecap="round" opacity="0" stroke-linejoin="round"/><path d="M 624.622511032712 254.56207480428907 L 529.763306810656 254.56207480428907 L 529.763306810656 215.4314508511 L 498.50455300591875 215.4314508511M 488.71986832633127 215.4314508511 L 434.9041025886 215.4314508511" stroke="rgb(0, 150, 0)" fill="none" stroke-width="2.60924924789px" stroke-linecap="round" stroke-linejoin="round"/></g><g class="trace" data-circuit-json-type="schematic_trace" data-schematic-trace-id="schematic_trace_2"><path d="M 740.9430512435879 254.57830433461095 L 774.1065048143 254.57830433461095 L 774.1065048143 254.57018956945" class="trace-invisible-hover-outline" stroke="rgb(0, 150, 0)" fill="none" stroke-width="20.87399398312px" stroke-linecap="round" opacity="0" stroke-linejoin="round"/><path d="M 740.9430512435879 254.57830433461095 L 774.1065048143 254.57830433461095 L 774.1065048143 254.57018956945" stroke="rgb(0, 150, 0)" fill="none" stroke-width="2.60924924789px" stroke-linecap="round" stroke-linejoin="round"/></g><g class="trace" data-circuit-json-type="schematic_trace" data-schematic-trace-id="schematic_trace_3"><path d="M 591.5258933814845 291.2109504740863 L 608.0742022070982 291.2109504740863 L 608.0742022070982 254.56207480428907 L 624.622511032712 254.56207480428907" class="trace-invisible-hover-outline" stroke="rgb(0, 150, 0)" fill="none" stroke-width="20.87399398312px" stroke-linecap="round" opacity="0" stroke-linejoin="round"/><path d="M 591.5258933814845 291.2109504740863 L 608.0742022070982 291.2109504740863 L 608.0742022070982 254.56207480428907 L 624.622511032712 254.56207480428907" stroke="rgb(0, 150, 0)" fill="none" stroke-width="2.60924924789px" stroke-linecap="round" stroke-linejoin="round"/><circle cx="608.0742022070982" cy="254.56207480428907" r="3.9138738718349995" class="trace-junction" fill="rgb(0, 150, 0)"/></g><g class="trace" data-circuit-json-type="schematic_trace" data-schematic-trace-id="schematic_trace_4"><path d="M 591.3922215425155 426.66936849601376 L 591.4590574619999 426.66936849601376 L 591.4590574619999 463.31012940065" class="trace-invisible-hover-outline" stroke="rgb(0, 150, 0)" fill="none" stroke-width="20.87399398312px" stroke-linecap="round" opacity="0" stroke-linejoin="round"/><path d="M 591.3922215425155 426.66936849601376 L 591.4590574619999 426.66936849601376 L 591.4590574619999 463.31012940065" stroke="rgb(0, 150, 0)" fill="none" stroke-width="2.60924924789px" stroke-linecap="round" stroke-linejoin="round"/></g><g class="trace" data-circuit-json-type="schematic_trace" data-schematic-trace-id="schematic_trace_5"><path d="M 591.4234085941507 222.12296187103763 L 608.0229598134314 222.12296187103763 L 608.0229598134314 254.56207480428907 L 624.622511032712 254.56207480428907" class="trace-invisible-hover-outline" stroke="rgb(0, 150, 0)" fill="none" stroke-width="20.87399398312px" stroke-linecap="round" opacity="0" stroke-linejoin="round"/><path d="M 591.4234085941507 222.12296187103763 L 608.0229598134314 222.12296187103763 L 608.0229598134314 254.56207480428907 L 624.622511032712 254.56207480428907" stroke="rgb(0, 150, 0)" fill="none" stroke-width="2.60924924789px" stroke-linecap="round" stroke-linejoin="round"/><circle cx="608.0229598134314" cy="254.56207480428907" r="3.9138738718349995" class="trace-junction" fill="rgb(0, 150, 0)"/></g><g class="trace" data-circuit-json-type="schematic_trace" data-schematic-trace-id="schematic_trace_6"><path d="M 591.4947063298491 78.2774774366624 L 513.1994044592246 78.2774774366624 L 513.1994044592246 163.2464658933 L 434.9041025886 163.2464658933" class="trace-invisible-hover-outline" stroke="rgb(0, 150, 0)" fill="none" stroke-width="20.87399398312px" stroke-linecap="round" opacity="0" stroke-linejoin="round"/><path d="M 591.4947063298491 78.2774774366624 L 513.1994044592246 78.2774774366624 L 513.1994044592246 163.2464658933 L 434.9041025886 163.2464658933" stroke="rgb(0, 150, 0)" fill="none" stroke-width="2.60924924789px" stroke-linecap="round" stroke-linejoin="round"/></g><rect class="component-overlay" x="463.57453332441526" y="319.66006468869557" width="58.61956320429783" height="63.069389917895705" fill="transparent"/><path d="M 493.47050233947215 319.66006468869557 L 493.47050233947215 362.6648497401667" stroke="rgb(132, 0, 0)" fill="none" stroke-width="2.60924924789px" stroke-linecap="round"/><path d="M 463.57453332441526 362.66057057140017 L 522.1940965287131 362.66057057140017" stroke="rgb(132, 0, 0)" fill="none" stroke-width="2.60924924789px" stroke-linecap="round"/><path d="M 470.90198361729495 372.6950125889958 L 514.8666462358334 372.6950125889958" stroke="rgb(132, 0, 0)" fill="none" stroke-width="2.60924924789px" stroke-linecap="round"/><path d="M 485.5568711568078 382.7294546065913 L 500.2117586963207 382.7294546065913" stroke="rgb(132, 0, 0)" fill="none" stroke-width="2.60924924789px" stroke-linecap="round"/><text x="490.660967119314" y="398.01064024307516" fill="rgb(15, 15, 15)" font-family="sans-serif" text-anchor="middle" dominant-baseline="hanging" font-size="23.483243231009997px">GND</text><path class="net-label" d="
    M 774.1065048143,254.57018956945
    L 781.151477783603,240.480243630844
    L 892.9491105581965,240.480243630844
    L 892.9491105581965,268.660135508056
    L 781.151477783603,268.660135508056
    Z
  " fill="rgba(255, 255, 255, 0.6)" stroke="rgb(132, 0, 0)" stroke-width="2.60924924789px"/><text class="net-label-text" x="785.848126429805" y="254.57018956945" fill="rgb(132, 0, 0)" text-anchor="start" dominant-baseline="central" font-family="sans-serif" font-variant-numeric="tabular-nums" font-size="23.483243231009997px" transform="">V3_3_EN</text><rect class="component-overlay" x="561.4213801202902" y="463.1687733226456" width="58.61956320429783" height="63.069389917895705" fill="transparent"/><path d="M 591.3173491353471 463.1687733226456 L 591.3173491353471 506.17355837411674" stroke="rgb(132, 0, 0)" fill="none" stroke-width="2.60924924789px" stroke-linecap="round"/><path d="M 561.4213801202902 506.1692792053502 L 620.040943324588 506.1692792053502" stroke="rgb(132, 0, 0)" fill="none" stroke-width="2.60924924789px" stroke-linecap="round"/><path d="M 568.7488304131699 516.2037212229459 L 612.7134930317084 516.2037212229459" stroke="rgb(132, 0, 0)" fill="none" stroke-width="2.60924924789px" stroke-linecap="round"/><path d="M 583.4037179526828 526.2381632405413 L 598.0586054921957 526.2381632405413" stroke="rgb(132, 0, 0)" fill="none" stroke-width="2.60924924789px" stroke-linecap="round"/><text x="588.507813915189" y="541.5193488770252" fill="rgb(15, 15, 15)" font-family="sans-serif" text-anchor="middle" dominant-baseline="hanging" font-size="23.483243231009997px">GND</text></svg>