<svg xmlns="http://www.w3.org/2000/svg" width="1200" height="600" style="background-color: rgb(245, 241, 237)" data-real-to-screen-transform="matrix(98.045623897,0,0,-98.045623897,506.7138881626,301.1830838617)" data-software-used-string="@tscircuit/core@0.0.532"><style>
              .boundary { fill: rgb(245, 241, 237); }
              .schematic-boundary { fill: none; stroke: #fff; }
              .component { fill: none; stroke: rgb(132, 0, 0); }
              .chip { fill: rgb(255, 255, 194); stroke: rgb(132, 0, 0); }
              .component-pin { fill: none; stroke: rgb(132, 0, 0); }
              .trace:hover {
                filter: invert(1);
              }
              .trace:hover .trace-crossing-outline {
                opacity: 0;
              }
              .trace:hover .trace-junction {
                filter: invert(1);
              }
              .text { font-family: sans-serif; fill: rgb(0, 150, 0); }
              .pin-number { fill: rgb(169, 0, 0); }
              .port-label { fill: rgb(0, 100, 100); }
              .component-name { fill: rgb(0, 100, 100); }
            </style><rect class="boundary" x="0" y="0" width="1200" height="600"/><g data-circuit-json-type="schematic_component" data-schematic-component-id="schematic_component_0"><rect class="component chip" x="487.1047633832" y="242.35570952350002" width="39.21824955879998" height="117.6547486764" stroke-width="1.96091247794px" fill="rgb(255, 255, 194)" stroke="rgb(132, 0, 0)"/><rect class="component-overlay" x="487.1047633832" y="242.35570952350002" width="39.21824955879998" height="117.6547486764" fill="transparent"/><text x="487.1047633832" y="372.75638930651" fill="#006464" text-anchor="start" dominant-baseline="middle" font-family="sans-serif" font-size="17.64821230146px" transform="rotate(0, 487.1047633832, 372.75638930651)"></text><text x="487.1047633832" y="229.60977841689004" fill="#006464" text-anchor="start" dominant-baseline="middle" font-family="sans-serif" font-size="17.64821230146px" transform="rotate(0, 487.1047633832, 229.60977841689004)">U1</text><line class="component-pin" x1="563.58035002286" y1="340.4013334205" x2="526.323012942" y2="340.4013334205" stroke-width="1.96091247794px"/><circle class="component-pin" cx="565.5412625008" cy="340.4013334205" r="1.96091247794" stroke-width="1.96091247794px"/><text class="pin-number" x="545.9321377214001" y="338.44042094256" style="font-family: sans-serif;" fill="rgb(169, 0, 0)" text-anchor="middle" dominant-baseline="auto" font-size="14.706843584549999px" transform="">1</text><line class="component-pin" x1="563.58035002286" y1="261.96483430290004" x2="526.323012942" y2="261.96483430290004" stroke-width="1.96091247794px"/><text class="pin-number" x="545.9321377214001" y="260.00392182496" style="font-family: sans-serif;" fill="rgb(169, 0, 0)" text-anchor="middle" dominant-baseline="auto" font-size="14.706843584549999px" transform="">2</text></g><g data-circuit-json-type="schematic_component" data-schematic-component-id="schematic_component_1"><rect class="component-overlay" x="676.9080560820948" y="350.8663017190831" width="55.476625923270376" height="96.72481207923391" fill="transparent"/><path d="M 702.8668507745622 447.591113798317 L 702.8668507745622 403.4901921694464" stroke="rgb(132, 0, 0)" fill="none" stroke-width="1.96091247794px" stroke-linecap="round"/><path d="M 702.8668507745622 394.9664095692753 L 702.8668507745622 350.8663017190831" stroke="rgb(132, 0, 0)" fill="none" stroke-width="1.96091247794px" stroke-linecap="round"/><path d="M 729.0371690960246 403.1163442055271 L 676.9080560820948 403.1163442055271" stroke="rgb(132, 0, 0)" fill="none" stroke-width="1.96091247794px" stroke-linecap="round"/><path d="M 677.2484900973901 389.30336296492135 L 677.2484900973901 389.30336296492135 L 677.3695861569201 389.3753884235167 L 677.490772690893 389.44705474140346 L 677.6120497913735 389.518360989521 L 677.7334175504263 389.58930623880855 L 677.8548760601165 389.6598895602054 L 677.9764254125088 389.7301100246508 L 678.0980656996682 389.799966703084 L 678.2197970136592 389.8694586664444 L 678.341619446547 389.9385849856711 L 678.4635330903964 390.0073447317036 L 678.5855380372719 390.07573697548094 L 678.7076343792388 390.1437607879426 L 678.8298222083616 390.2114152400277 L 678.9521016167052 390.27869940267556 L 679.0744726963347 390.34561234682553 L 679.1969355393146 390.4121531434168 L 679.3194902377099 390.4783208633887 L 679.4421368835856 390.5441145776805 L 679.5648755690062 390.60953335723144 L 679.6877063860367 390.67457627298086 L 679.810629426742 390.739242395868 L 679.9336447831869 390.8035307968321 L 680.0567525474362 390.86744054681253 L 680.1799528115548 390.93097071674845 L 680.3032456676075 390.99412037757924 L 680.4266312076592 391.0568886002441 L 680.5501095237746 391.1192744556824 L 680.6736807080187 391.1812770148333 L 680.7973448524563 391.24289534863624 L 680.9211020491521 391.3041285280303 L 681.0449523901711 391.3649756239549 L 681.1688959675781 391.4254357073492 L 681.2929328734381 391.4855078491526 L 681.4170631998156 391.5451911203043 L 681.5412870387756 391.60448459174364 L 681.6656044823832 391.66338733440983 L 681.7900156227028 391.72189841924217 L 681.9145205517995 391.78001691718 L 682.039119361738 391.83774189916244 L 682.1638121445833 391.89507243612894 L 682.2885989924002 391.95200759901866 L 682.4134799972535 392.008546458771 L 682.538455251208 392.0646880863251 L 682.6635248463286 392.12043155262023 L 682.7886888746801 392.1757759285958 L 682.9139474283274 392.230720285191 L 683.0393005993354 392.28526369334514 L 683.1647484797688 392.3394052239975 L 683.2902911616925 392.3931439480873 L 683.4159287371713 392.4464789365539 L 683.54166129827 392.4994092603365 L 683.6674889370537 392.5519339903744 L 683.7934117455869 392.6040521976069 L 683.9194298159347 392.6557629529733 L 684.0455432401618 392.7070653274128 L 684.171752110333 392.75795839186475 L 684.2980565185134 392.80844121726835 L 684.4244565567675 392.85851287456296 L 684.5509523171603 392.9081724346878 L 684.6775438917567 392.9574189685822 L 684.8042313726215 393.00625154718534 L 684.9310148518196 393.0546692414366 L 685.0578944214155 393.10267112227524 L 685.1848701734746 393.1502562606405 L 685.3119422000613 393.1974237274717 L 685.4391105932406 393.2441725937081 L 685.5663754450774 393.2905019302889 L 685.6937368476364 393.33641080815346 L 685.8211948929825 393.381898298241 L 685.9487496731805 393.4269634714909 L 686.0764012802954 393.4716053988424 L 686.2041498063919 393.5158231512347 L 686.3319953435348 393.5596157996072 L 686.4599379837891 393.60298241489903 L 686.5879778192195 393.6459220680496 L 686.716114941891 393.6884338299981 L 686.8443494438683 393.7305167716838 L 686.9726814172162 393.77216996404604 L 687.1011109539998 393.81339247802407 L 687.2296381462835 393.8541833845572 L 687.3582630861325 393.8945417545847 L 687.4869858656116 393.93446665904577 L 687.6158065767855 393.97395716887974 L 687.7447253117192 394.01301235502586 L 687.8737421624775 394.0516312884235 L 688.0028572211252 394.08981304001185 L 688.132070579727 394.1275566807302 L 688.2613823303479 394.16486128151786 L 688.3907925650528 394.201725913314 L 688.5203013759066 394.2381496470581 L 688.6499088549739 394.27413155368924 L 688.7796150943195 394.30967070414675 L 688.9094201860086 394.34476616937 L 689.0393242221057 394.37941702029815 L 689.1693272946759 394.41362232787054 L 689.2994294957838 394.4473811630265 L 689.4296309174944 394.4806925967051 L 689.5599316518725 394.5135556998459 L 689.6903317909829 394.54596954338797 L 689.8208314268904 394.5779331982706 L 689.8208314268904 394.5779331982706 L 689.9851623608371 394.6175764439697 L 690.1496018267597 394.65663182612866 L 690.3141487965323 394.69510064324413 L 690.4788022420288 394.73298419381285 L 690.6435611351232 394.7702837763313 L 690.8084244476893 394.8070006892962 L 690.9733911516014 394.8431362312042 L 691.1384602187333 394.8786917005518 L 691.3036306209589 394.9136683958359 L 691.4689013301523 394.9480676155528 L 691.6342713181875 394.9818906581994 L 691.7997395569384 395.01513882227226 L 691.9653050182791 395.04781340626795 L 692.1309666740833 395.07991570868313 L 692.2967234962254 395.1114470280145 L 692.462574456579 395.14240866275856 L 692.6285185270183 395.1728019114121 L 692.7945546794172 395.2026280724716 L 692.9606818856496 395.2318884444339 L 693.1268991175896 395.2605843257954 L 693.2932053471112 395.28871701505284 L 693.4595995460883 395.3162878107029 L 693.6260806863949 395.34329801124215 L 693.7926477399049 395.36974891516724 L 693.9592996784924 395.39564182097484 L 694.1260354740314 395.4209780271615 L 694.2928540983957 395.44575883222393 L 694.4597545234594 395.46998553465875 L 694.6267357210966 395.49365943296254 L 694.7937966631811 395.516781825632 L 694.9609363215868 395.53935401116377 L 695.1281536681879 395.5613772880544 L 695.2954476748583 395.5828529548006 L 695.462817313472 395.603782309899 L 695.6302615559028 395.62416665184617 L 695.797779374025 395.6440072791388 L 695.9653697397123 395.6633054902735 L 696.1330316248388 395.6820625837469 L 696.3007640012785 395.70027985805575 L 696.4685658409053 395.7179586116965 L 696.6364361155933 395.7351001431659 L 696.8043737972162 395.75170575096047 L 696.9723778576483 395.767776733577 L 697.1404472687634 395.78331438951204 L 697.3085810024355 395.7983200172622 L 697.4767780305388 395.81279491532416 L 697.6450373249469 395.8267403821946 L 697.813357857534 395.84015771637 L 697.981738600174 395.85304821634713 L 698.150178524741 395.86541318062257 L 698.318676603109 395.877253907693 L 698.4872318071517 395.88857169605495 L 698.6558431087434 395.8993678442052 L 698.8245094797578 395.90964365064025 L 698.993229892069 395.9194004138568 L 699.1620033175512 395.9286394323515 L 699.330828728078 395.93736200462087 L 699.4997050955236 395.9455694291617 L 699.668631391762 395.95326300447056 L 699.8376065886671 395.9604440290441 L 700.0066296581127 395.96711380137884 L 700.1756995719732 395.97327361997156 L 700.3448153021222 395.97892478331886 L 700.5139758204339 395.98406858991734 L 700.6831800987821 395.9887063382636 L 700.8524271090411 395.9928393268544 L 701.0217158230845 395.9964688541862 L 701.1910452127864 395.9995962187558 L 701.3604142500209 396.0022227190598 L 701.5298219066619 396.0043496535947 L 701.6992671545834 396.00597832085725 L 701.8687489656593 396.0071100193441 L 702.0382663117637 396.0077460475518 L 702.2078181647704 396.0078877039771 L 702.3774034965535 396.00753628711647 L 702.547021278987 396.0066930954667 L 702.7166704839449 396.00535942752435 L 702.8863500833011 396.0035365817861 L 703.0560590489296 396.0012258567485 L 703.2257963527044 395.9984285509082 L 703.3955609664994 395.99514596276197 L 703.5653518621887 395.9913793908063 L 703.7351680116462 395.98713013353785 L 703.9050083867459 395.98239948945326 L 704.0748719593618 395.97718875704913 L 704.2447577013678 395.9714992348222 L 704.414664584638 395.965332221269 L 704.5845915810463 395.95868901488626 L 704.7545376624666 395.95157091417053 L 704.9245018007731 395.94397921761845 L 705.0944829678397 395.93591522372674 L 705.2644801355401 395.9273802309919 L 705.4344922757487 395.91837553791066 L 705.6045183603392 395.9089024429796 L 705.7745573611857 395.8989622446954 L 705.9446082501621 395.8885562415547 L 706.1146699991425 395.87768573205403 L 706.2847415800007 395.86635201469016 L 706.4548219646108 395.85455638795963 L 706.6249101248468 395.84230015035916 L 706.6249101248468 395.84230015035916 L 706.7690763479268 395.8293769067125 L 706.913283188132 395.81625392665825 L 707.0575288127546 395.80292823370775 L 707.2018113890864 395.7893968513723 L 707.3461290844194 395.77565680316326 L 707.4904800660457 395.761705112592 L 707.6348625012572 395.7475388031698 L 707.7792745573458 395.73315489840803 L 707.9237144016037 395.71855042181807 L 708.0681802013227 395.7037223969112 L 708.2126701237947 395.6886678471988 L 708.3571823363119 395.6733837961922 L 708.5017150061661 395.6578672674027 L 708.6462663006495 395.64211528434174 L 708.7908343870538 395.6261248705206 L 708.9354174326712 395.6098930494506 L 709.0800136047936 395.59341684464306 L 709.2246210707129 395.5766932796094 L 709.3692379977213 395.5597193778609 L 709.5138625531106 395.54249216290896 L 709.6584929041727 395.5250086582649 L 709.8031272181998 395.50726588744 L 709.9477636624838 395.4892608739456 L 710.0924004043165 395.47099064129316 L 710.2370356109902 395.45245221299393 L 710.3816674497967 395.43364261255925 L 710.526294088028 395.4145588635005 L 710.670913692976 395.39519798932895 L 710.8155244319329 395.37555701355603 L 710.9601244721904 395.355632959693 L 711.1047119810407 395.3354228512513 L 711.2492851257757 395.31492371174215 L 711.3938420736873 395.294132564677 L 711.5383809920676 395.2730464335671 L 711.6829000482086 395.25166234192386 L 711.8273974094021 395.2299773132586 L 711.9718712429403 395.20798837108265 L 712.1163197161151 395.18569253890735 L 712.2607409962184 395.16308684024403 L 712.4051332505421 395.140168298604 L 712.5494946463785 395.11693393749874 L 712.6938233510193 395.0933807804394 L 712.8381175317567 395.0695058509375 L 712.9823753558825 395.0453061725043 L 713.1265949906887 395.0207787686511 L 713.2707746034673 394.99592066288926 L 713.4149123615103 394.97072887873014 L 713.5590064321098 394.9452004396851 L 713.7030549825574 394.9193323692655 L 713.8470561801456 394.8931216909826 L 713.991008192166 394.86656542834777 L 714.1349091859107 394.8396606048724 L 714.2787573286716 394.81240424406775 L 714.4225507877409 394.7847933694452 L 714.5662877304104 394.75682500451614 L 714.7099663239721 394.72849617279184 L 714.853584735718 394.6998038977837 L 714.99714113294 394.6707452030029 L 715.1406336829302 394.64131711196103 L 715.2840605529806 394.6115166481693 L 715.427419910383 394.58134083513903 L 715.5707099224296 394.5507866963816 L 715.7139287564122 394.5198512554083 L 715.8570745796229 394.48853153573054 L 716.0001455593537 394.4568245608596 L 716.1431398628964 394.4247273543069 L 716.2860556575431 394.3922369395837 L 716.4288911105858 394.3593503402014 L 716.5716443893165 394.3260645796713 L 716.7143136610271 394.2923766815048 L 716.8568970930096 394.2582836692131 L 716.999392852556 394.22378256630765 L 717.1417991069582 394.1888703962998 L 717.2841140235083 394.1535441827009 L 717.4263357694983 394.11780094902224 L 717.5684625122201 394.08163771877514 L 717.7104924189656 394.045051515471 L 717.852423657027 394.0080393626211 L 717.994254393696 393.9705982837369 L 718.1359827962648 393.9327253023296 L 718.2776070320253 393.8944174419106 L 718.4191252682696 393.8556717259913 L 718.5605356722895 393.81648517808287 L 718.701836411377 393.7768548216969 L 718.8430256528242 393.73677768034446 L 718.984101563923 393.6962507775371 L 719.1250623119653 393.65527113678604 L 719.2659060642433 393.6138357816027 L 719.4066309880487 393.5719417354984 L 719.5472352506738 393.5295860219844 L 719.6877170194103 393.48676566457215 L 719.8280744615504 393.44347768677295 L 719.9683057443858 393.3997191120981 L 720.1084090352088 393.355486964059 L 720.2483825013112 393.310778266167 L 720.3882243099849 393.2655900419334 L 720.5279326285221 393.2199193148695 L 720.6675056242146 393.17376310848675 L 720.8069414643546 393.12711844629644 L 720.9462383162338 393.07998235180986 L 720.9462383162338 393.07998235180986 L 721.0277930237245 393.0521187321288 L 721.1093049793622 393.0240550376063 L 721.1907736928794 392.99579127706636 L 721.2721986740088 392.9673274593332 L 721.3535794324832 392.93866359323084 L 721.4349154780352 392.9097996875834 L 721.5162063203975 392.880735751215 L 721.5974514693027 392.8514717929497 L 721.6786504344834 392.82200782161175 L 721.7598027256724 392.7923438460251 L 721.8409078526023 392.7624798750139 L 721.9219653250057 392.7324159174023 L 722.0029746526153 392.70215198201436 L 722.0839353451639 392.6716880776742 L 722.164846912384 392.6410242132059 L 722.2457088640083 392.6101603974337 L 722.3265207097695 392.5790966391815 L 722.4072819594002 392.5478329472735 L 722.487992122633 392.51636933053385 L 722.5686507092008 392.4847057977866 L 722.6492572288361 392.4528423578559 L 722.7298111912716 392.42077901956577 L 722.8103121062398 392.3885157917404 L 722.8907594834737 392.3560526832039 L 722.9711528327057 392.3233897027804 L 723.0514916636685 392.2905268592939 L 723.1317754860949 392.2574641615685 L 723.2120038097173 392.2242016184284 L 723.2921761442686 392.19073923869774 L 723.3722919994814 392.1570770312005 L 723.4523508850883 392.1232150047609 L 723.532352310822 392.0891531682029 L 723.6122957864152 392.05489153035074 L 723.6921808216005 392.02043010002853 L 723.7720069261106 391.98576888606027 L 723.8517736096782 391.95090789727016 L 723.9314803820358 391.9158471424823 L 724.0111267529163 391.88058663052067 L 724.0907122320523 391.8451263702095 L 724.1702363291762 391.80946637037295 L 724.249698554021 391.773606639835 L 724.3290984163192 391.7375471874198 L 724.4084354258035 391.7012880219515 L 724.4877090922065 391.66482915225413 L 724.566918925261 391.6281705871518 L 724.6460644346996 391.5913123354687 L 724.7251451302549 391.55425440602886 L 724.8041605216595 391.5169968076564 L 724.8831101186463 391.47953954917546 L 724.9619934309477 391.4418826394101 L 725.0408099682966 391.40402608718443 L 725.1195592404255 391.3659699013226 L 725.1982407570671 391.3277140906487 L 725.2768540279541 391.28925866398686 L 725.3553985628191 391.2506036301611 L 725.4338738713949 391.2117489979956 L 725.512279463414 391.1726947763144 L 725.5906148486091 391.13344097394173 L 725.6688795367129 391.09398759970156 L 725.7470730374581 391.0543346624181 L 725.8251948605773 391.01448217091536 L 725.9032445158031 390.97443013401755 L 725.9812215128683 390.9341785605487 L 726.0591253615055 390.8937274593329 L 726.1369555714473 390.85307683919433 L 726.2147116524264 390.81222670895704 L 726.2923931141756 390.7711770774452 L 726.3699994664274 390.72992795348284 L 726.4475302189145 390.6884793458941 L 726.5249848813696 390.6468312635031 L 726.6023629635253 390.60498371513387 L 726.6796639751143 390.56293670961065 L 726.7568874258693 390.5206902557575 L 726.8340328255229 390.4782443623984 L 726.9110996838077 390.4355990383576 L 726.9880875104566 390.3927542924592 L 727.064995815202 390.3497101335272 L 727.1418241077766 390.30646657038585 L 727.2185718979133 390.2630236118591 L 727.2952386953446 390.2193812667712 L 727.3718240098029 390.1755395439462 L 727.4483273510214 390.1314984522082 L 727.5247482287324 390.0872580003812 L 727.6010861526686 390.04281819728953 L 727.6773406325627 389.9981790517571 L 727.7535111781474 389.95334057260817 L 727.8295972991554 389.9083027686667 L 727.9055985053192 389.8630656487569 L 727.9815143063715 389.8176292217029 L 728.0573442120451 389.7719934963286 L 728.1330877320726 389.72615848145836 L 728.2087443761866 389.68012418591616 L 728.2843136541197 389.63389061852615 L 728.3597950756048 389.5874577881124 L 728.4351881503744 389.540825703499 L 728.5104923881612 389.4939943735101 L 728.5857072986979 389.4469638069698 L 728.660832391717 389.3997340127022 L 728.7358671769514 389.3523049995314 L 728.8108111641336 389.3046767762815" stroke="rgb(132, 0, 0)" fill="none" stroke-width="1.96091247794px" stroke-linecap="round"/><path d="M 725.2516863847355 429.18978364601696 L 725.2516863847355 415.4175893849523 L 725.7392672723753 415.4175893849523 L 725.7392672723753 429.18978364601696" stroke="rgb(132, 0, 0)" fill="none" stroke-width="1.96091247794px" stroke-linecap="round"/><path d="M 732.3846820053652 422.55302634161706 L 718.6124877443006 422.55302634161706 L 718.6124877443006 422.06544545397725 L 732.3846820053652 422.06544545397725" stroke="rgb(132, 0, 0)" fill="none" stroke-width="1.96091247794px" stroke-linecap="round"/><text x="721.7085038237832" y="383.8490156288293" fill="rgb(15, 15, 15)" font-family="sans-serif" text-anchor="start" dominant-baseline="auto" font-size="17.64821230146px">C1</text><text x="721.7085038237832" y="432.67452185732924" fill="rgb(15, 15, 15)" font-family="sans-serif" text-anchor="start" dominant-baseline="hanging" font-size="17.64821230146px">1µF</text></g><g class="trace" data-circuit-json-type="schematic_trace" data-schematic-trace-id="schematic_trace_0"><path d="M 565.5412625008 261.96483430290004 L 702.8051359566 261.96483430290004 L 702.8051359566 105.09183606770003" class="trace-invisible-hover-outline" stroke="rgb(0, 150, 0)" fill="none" stroke-width="15.68729982352px" stroke-linecap="round" opacity="0" stroke-linejoin="round"/><path d="M 565.5412625008 261.96483430290004 L 702.8051359566 261.96483430290004 L 702.8051359566 105.09183606770003" stroke="rgb(0, 150, 0)" fill="none" stroke-width="1.96091247794px" stroke-linecap="round" stroke-linejoin="round"/></g><g class="trace" data-circuit-json-type="schematic_trace" data-schematic-trace-id="schematic_trace_1"><path d="M 565.5412625008 261.96483430290004 L 702.8051359566 261.96483430290004 L 702.8051359566 105.09183606770003" class="trace-invisible-hover-outline" stroke="rgb(0, 150, 0)" fill="none" stroke-width="15.68729982352px" stroke-linecap="round" opacity="0" stroke-linejoin="round"/><path d="M 565.5412625008 261.96483430290004 L 702.8051359566 261.96483430290004 L 702.8051359566 105.09183606770003" stroke="rgb(0, 150, 0)" fill="none" stroke-width="1.96091247794px" stroke-linecap="round" stroke-linejoin="round"/></g><g class="trace" data-circuit-json-type="schematic_trace" data-schematic-trace-id="schematic_trace_2"><path d="M 702.7783351853077 350.866301719083 L 604.7595120596001 350.866301719083 L 604.7595120596001 261.96483430290004 L 565.5412625008 261.96483430290004" class="trace-invisible-hover-outline" stroke="rgb(0, 150, 0)" fill="none" stroke-width="15.68729982352px" stroke-linecap="round" opacity="0" stroke-linejoin="round"/><path d="M 702.7783351853077 350.866301719083 L 604.7595120596001 350.866301719083 L 604.7595120596001 261.96483430290004 L 565.5412625008 261.96483430290004" stroke="rgb(0, 150, 0)" fill="none" stroke-width="1.96091247794px" stroke-linecap="round" stroke-linejoin="round"/><circle cx="604.7595120596001" cy="261.96483430290004" r="2.94136871691" class="trace-junction" fill="rgb(0, 150, 0)"/></g><g class="trace" data-circuit-json-type="schematic_trace" data-schematic-trace-id="schematic_trace_3"><path d="M 702.8319367278923 447.591113798317 L 702.8051359566 447.591113798317 L 702.8051359566 497.27433165570005" class="trace-invisible-hover-outline" stroke="rgb(0, 150, 0)" fill="none" stroke-width="15.68729982352px" stroke-linecap="round" opacity="0" stroke-linejoin="round"/><path d="M 702.8319367278923 447.591113798317 L 702.8051359566 447.591113798317 L 702.8051359566 497.27433165570005" stroke="rgb(0, 150, 0)" fill="none" stroke-width="1.96091247794px" stroke-linecap="round" stroke-linejoin="round"/></g><rect class="component-overlay" x="693.6490963461666" y="63.47064514018277" width="18.16584417282411" height="40.15575200994081" fill="transparent"/><path d="M 702.5885139551622 63.47064514018277 L 693.6490963461666 82.20429113011933" stroke="rgb(132, 0, 0)" fill="none" stroke-width="1.96091247794px" stroke-linecap="round"/><path d="M 702.8755229099957 63.48041048432291 L 711.8149405189907 82.21410549707143" stroke="rgb(132, 0, 0)" fill="none" stroke-width="1.96091247794px" stroke-linecap="round"/><path d="M 702.6919618929358 63.96496176218432 L 702.6919618929358 103.62639715012358" stroke="rgb(132, 0, 0)" fill="none" stroke-width="1.96091247794px" stroke-linecap="round"/><text x="702.2534136218067" y="57.725053925069986" fill="rgb(15, 15, 15)" font-family="sans-serif" text-anchor="middle" dominant-baseline="ideographic" font-size="17.64821230146px">V3_3</text><rect class="component-overlay" x="680.2311115105547" y="497.1680992222076" width="44.05398718871106" height="47.39813713315243" fill="transparent"/><path d="M 702.6986387999232 497.1680992222076 L 702.6986387999232 529.4872115824969" stroke="rgb(132, 0, 0)" fill="none" stroke-width="1.96091247794px" stroke-linecap="round"/><path d="M 680.2311115105547 529.4839956860332 L 724.2850986992657 529.4839956860332" stroke="rgb(132, 0, 0)" fill="none" stroke-width="1.96091247794px" stroke-linecap="round"/><path d="M 685.7378635858546 537.0251160206966 L 718.778346623966 537.0251160206966" stroke="rgb(132, 0, 0)" fill="none" stroke-width="1.96091247794px" stroke-linecap="round"/><path d="M 696.7513579318918 544.56623635536 L 707.7648522779289 544.56623635536" stroke="rgb(132, 0, 0)" fill="none" stroke-width="1.96091247794px" stroke-linecap="round"/><text x="700.5872066801765" y="556.0504085234771" fill="rgb(15, 15, 15)" font-family="sans-serif" text-anchor="middle" dominant-baseline="hanging" font-size="17.64821230146px">GND</text></svg>