<svg xmlns="http://www.w3.org/2000/svg" width="1200" height="600" style="background-color: rgb(245, 241, 237)" data-real-to-screen-transform="matrix(128.5057614389,0,0,-128.5057614389,360.2767855611,195.4981311934)" data-software-used-string="@tscircuit/core@0.0.586"><style>
              .boundary { fill: rgb(245, 241, 237); }
              .schematic-boundary { fill: none; stroke: #fff; }
              .component { fill: none; stroke: rgb(132, 0, 0); }
              .chip { fill: rgb(255, 255, 194); stroke: rgb(132, 0, 0); }
              .component-pin { fill: none; stroke: rgb(132, 0, 0); }
              .trace:hover {
                filter: invert(1);
              }
              .trace:hover .trace-crossing-outline {
                opacity: 0;
              }
              .trace:hover .trace-junction {
                filter: invert(1);
              }
              .text { font-family: sans-serif; fill: rgb(0, 150, 0); }
              .pin-number { fill: rgb(169, 0, 0); }
              .port-label { fill: rgb(0, 100, 100); }
              .component-name { fill: rgb(0, 100, 100); }
            </style><rect class="boundary" x="0" y="0" width="1200" height="600"/><g data-circuit-json-type="schematic_component" data-schematic-component-id="schematic_component_0"><rect class="component chip" x="334.57563327331997" y="144.09582661784" width="51.40230457556004" height="102.80460915112002" stroke-width="2.570115228778px" fill="rgb(255, 255, 194)" stroke="rgb(132, 0, 0)"/><rect class="component-overlay" x="334.57563327331997" y="144.09582661784" width="51.40230457556004" height="102.80460915112002" fill="transparent"/><text x="334.57563327331997" y="263.606184756017" fill="#006464" text-anchor="start" dominant-baseline="middle" font-family="sans-serif" font-size="23.131037059002px" transform="rotate(0, 334.57563327331997, 263.606184756017)"></text><text x="334.57563327331997" y="127.39007763078301" fill="#006464" text-anchor="start" dominant-baseline="middle" font-family="sans-serif" font-size="23.131037059002px" transform="rotate(0, 334.57563327331997, 127.39007763078301)">U5</text><line class="component-pin" x1="434.810127195662" y1="221.19928348118003" x2="385.97793784888" y2="221.19928348118003" stroke-width="2.570115228778px"/><g data-schematic-port-id="source_port_0"><rect x="434.810127195662" y="218.62916825240202" width="5.140230457556" height="5.140230457556" opacity="0"/></g><text class="pin-number" x="411.67909013666" y="218.62916825240202" style="font-family: sans-serif;" fill="rgb(169, 0, 0)" text-anchor="middle" dominant-baseline="auto" font-size="19.275864215835px" transform="">1</text><line class="component-pin" x1="434.810127195662" y1="195.4981311934" x2="385.97793784888" y2="195.4981311934" stroke-width="2.570115228778px"/><g data-schematic-port-id="source_port_1"><rect x="434.810127195662" y="192.928015964622" width="5.140230457556" height="5.140230457556" opacity="0"/></g><text class="pin-number" x="411.67909013666" y="192.928015964622" style="font-family: sans-serif;" fill="rgb(169, 0, 0)" text-anchor="middle" dominant-baseline="auto" font-size="19.275864215835px" transform="">2</text><line class="component-pin" x1="434.810127195662" y1="169.79697890562" x2="385.97793784888" y2="169.79697890562" stroke-width="2.570115228778px"/><g data-schematic-port-id="source_port_2"><rect x="434.810127195662" y="167.226863676842" width="5.140230457556" height="5.140230457556" opacity="0"/></g><text class="pin-number" x="411.67909013666" y="167.22686367684202" style="font-family: sans-serif;" fill="rgb(169, 0, 0)" text-anchor="middle" dominant-baseline="auto" font-size="19.275864215835px" transform="">3</text></g><g data-circuit-json-type="schematic_component" data-schematic-component-id="schematic_component_1"><rect class="component-overlay" x="624.891390366161" y="243.2490088105544" width="113.23890431325049" height="33.0870337770568" fill="transparent"/><path d="M 658.2590807262005 259.85665649932895 L 624.891390366161 259.85665649932895" stroke="rgb(132, 0, 0)" fill="none" stroke-width="2.570115228778px" stroke-linecap="round"/><path d="M 738.1302946794115 259.6363076701895 L 704.9415100404473 259.6363076701895" stroke="rgb(132, 0, 0)" fill="none" stroke-width="2.570115228778px" stroke-linecap="round"/><path d="M 690.3977548344144 243.5184725417155 L 690.3977548344144 275.90020244711496" stroke="rgb(132, 0, 0)" fill="none" stroke-width="2.570115228778px" stroke-linecap="round"/><path d="M 672.7910776550616 243.50609743688898 L 672.7910776550616 275.8878273422884" stroke="rgb(132, 0, 0)" fill="none" stroke-width="2.570115228778px" stroke-linecap="round"/><path d="M 672.1940655885687 276.3197480570608 L 672.1940655885687 276.3197480570608 L 670.1859387954513 275.23684898476426 L 668.3794559640463 274.1142417378434 L 666.7678500694826 272.9560369785849 L 665.3443540868891 271.7663453692755 L 664.1022009913944 270.5492775722018 L 663.0346237581275 269.30894424965055 L 662.1348553622171 268.0494560639084 L 661.3961287787921 266.7749236772621 L 660.8116769829812 265.4894577519984 L 660.3747329499134 264.1971689504038 L 660.0785296547174 262.90216793476515 L 659.9163000725221 261.6085653673691 L 659.8812771784562 260.32047191050236 L 659.9666939476485 259.0419982264516 L 660.1657833552281 257.7772549775035 L 660.4717783763235 256.53035282594476 L 660.8779119860636 255.3054024340621 L 661.3774171595774 254.1065144641422 L 661.9635268719934 252.93779957847173 L 662.6294740984407 251.80336843933742 L 663.368491814048 250.70733170902594 L 664.1738129939441 249.65380004982399 L 665.0386706132579 248.64688412401824 L 665.9562976471182 247.69069459389542 L 666.9199270706537 246.78934212174218 L 667.9227918589933 245.94693736984527 L 668.9581249872658 245.1675910004913 L 670.0191594306002 244.45541367596707 L 671.099128164125 243.8145160585592 L 672.1912641629693 243.2490088105544 L 672.1912641629693 243.2490088105544" stroke="rgb(132, 0, 0)" fill="none" stroke-width="2.570115228778px" stroke-linecap="round"/><path d="M 690.9851803711041 276.3360425876112 L 690.9851803711041 276.3360425876112 L 692.9933071642215 275.25314351531466 L 694.7997899956264 274.1305362683938 L 696.4113958901901 272.9723315091353 L 697.8348918727837 271.7826398998259 L 699.0770449682784 270.5655721027522 L 700.1446222015453 269.32523878020095 L 701.0443905974557 268.0657505944588 L 701.7831171808807 266.7912182078125 L 702.3675689766916 265.50575228254877 L 702.8045130097594 264.2134634809542 L 703.1007163049553 262.91846246531554 L 703.2629458871507 261.6248598979195 L 703.2979687812166 260.33676644105276 L 703.2125520120242 259.058292757002 L 703.0134626044447 257.7935495080539 L 702.7074675833493 256.54664735649516 L 702.3013339736092 255.3216969646125 L 701.8018288000954 254.1228089946926 L 701.2157190876793 252.95409410902215 L 700.5497718612321 251.81966296988782 L 699.8107541456247 250.72362623957633 L 699.0054329657287 249.67009458037438 L 698.1405753464148 248.66317865456864 L 697.2229483125546 247.7069891244458 L 696.2593188890191 246.8056366522926 L 695.2564541006794 245.96323190039567 L 694.2211209724069 245.18388553104174 L 693.1600865290726 244.4717082065175 L 692.0801177955477 243.8308105891096 L 690.9879817967035 243.26530334110478 L 690.9879817967035 243.26530334110478" stroke="rgb(132, 0, 0)" fill="none" stroke-width="2.570115228778px" stroke-linecap="round"/><text x="678.8894470699062" y="236.74436338632856" fill="rgb(15, 15, 15)" font-family="sans-serif" text-anchor="middle" dominant-baseline="auto" font-size="23.131037059002px">VE</text></g><g data-circuit-json-type="schematic_component" data-schematic-component-id="schematic_component_2"><rect class="component-overlay" x="574.6347275044046" y="295.29831419380696" width="34.000491281093446" height="133.6780026816304" fill="transparent"/><path d="M 591.6349731449516 343.9751143738571 L 608.6352187854981 377.9755928043739" stroke="rgb(132, 0, 0)" fill="none" stroke-width="2.570115228778px" stroke-linecap="round"/><path d="M 574.6347275044046 377.9755928043739 L 591.6349731449516 343.9751143738571" stroke="rgb(132, 0, 0)" fill="none" stroke-width="2.570115228778px" stroke-linecap="round"/><path d="M 608.6352187854976 377.9755928043739 L 574.6347275044046 377.9755928043739" stroke="rgb(132, 0, 0)" fill="none" stroke-width="2.570115228778px" stroke-linecap="round"/><path d="M 574.6347275044046 343.9751143738571 L 608.6352187854976 343.9751143738571" stroke="rgb(132, 0, 0)" fill="none" stroke-width="2.570115228778px" stroke-linecap="round"/><path d="M 591.6349731449516 378.25890945661826 L 591.6349731449516 428.97631687543736" stroke="rgb(132, 0, 0)" fill="none" stroke-width="2.570115228778px" stroke-linecap="round"/><path d="M 591.6459218358259 295.29831419380696 L 591.6459218358259 343.32195814019155" stroke="rgb(132, 0, 0)" fill="none" stroke-width="2.570115228778px" stroke-linecap="round"/><text x="562.1031926144395" y="363.2013753657766" fill="rgb(15, 15, 15)" font-family="sans-serif" text-anchor="end" dominant-baseline="middle" font-size="23.131037059002px">D1</text><text x="632.4845902003674" y="362.5699880080989" fill="rgb(15, 15, 15)" font-family="sans-serif" text-anchor="start" dominant-baseline="middle" font-size="23.131037059002px"></text></g><g data-circuit-json-type="schematic_component" data-schematic-component-id="schematic_component_3"><rect class="component-overlay" x="574.5060225590356" y="88.96910381137702" width="34.00049128109299" height="136.00192657264375" fill="transparent"/><path d="M 591.5062681995821 224.97103038402076 L 591.5062681995821 190.97055195350393" stroke="rgb(132, 0, 0)" fill="none" stroke-width="2.570115228778px" stroke-linecap="round"/><path d="M 591.5062681995821 122.96959509247 L 591.5062681995821 88.96910381137702" stroke="rgb(132, 0, 0)" fill="none" stroke-width="2.570115228778px" stroke-linecap="round"/><path d="M 574.5060225590356 156.97008637356313 L 574.5060225590356 122.96960794304628 L 608.5065138401286 122.96960794304628 L 608.5065138401286 190.97057765465635 L 574.5060225590356 190.97057765465635 L 574.5060225590356 156.97008637356336" stroke="rgb(132, 0, 0)" fill="none" stroke-width="2.570115228778px" stroke-linecap="round"/><text x="626.9246085236473" y="138.63433175668678" fill="rgb(15, 15, 15)" font-family="sans-serif" text-anchor="start" dominant-baseline="middle" font-size="23.131037059002px">R5</text><text x="626.9246085236473" y="179.75617541713478" fill="rgb(15, 15, 15)" font-family="sans-serif" text-anchor="start" dominant-baseline="middle" font-size="23.131037059002px">100kΩ</text></g><g class="trace" data-circuit-json-type="schematic_trace" data-schematic-trace-id="schematic_trace_0"><path d="M 437.38024242444 195.4981311934 L 495.207835071945 195.4981311934 L 495.207835071945 324.0038926323" class="trace-invisible-hover-outline" stroke="rgb(0, 150, 0)" fill="none" stroke-width="20.560921830224px" stroke-linecap="round" opacity="0" stroke-linejoin="round"/><path d="M 437.38024242444 195.4981311934 L 495.207835071945 195.4981311934 L 495.207835071945 324.0038926323" stroke="rgb(0, 150, 0)" fill="none" stroke-width="2.570115228778px" stroke-linecap="round" stroke-linejoin="round"/></g><g class="trace" data-circuit-json-type="schematic_trace" data-schematic-trace-id="schematic_trace_1"><path class="trace-crossing-outline" d="M 500.0268011259038 221.19928348118003 Q 495.20783507194506 214.4527310056378 490.3888690179863 221.19928348118003" stroke="rgb(245, 241, 237)" fill="none" stroke-width="3.855172843167px" stroke-linecap="round"/><path d="M 500.0268011259038 221.19928348118003 Q 495.20783507194506 214.4527310056378 490.3888690179863 221.19928348118003" stroke="rgb(0, 150, 0)" fill="none" stroke-width="2.570115228778px" stroke-linecap="round"/><path d="M 624.2532179042793 259.7430188544885 L 530.8167301643596 259.7430188544885 L 530.8167301643596 221.19928348118003 L 500.0268011259038 221.19928348118003M 490.3888690179863 221.19928348118003 L 437.38024242444 221.19928348118003" class="trace-invisible-hover-outline" stroke="rgb(0, 150, 0)" fill="none" stroke-width="20.560921830224px" stroke-linecap="round" opacity="0" stroke-linejoin="round"/><path d="M 624.2532179042793 259.7430188544885 L 530.8167301643596 259.7430188544885 L 530.8167301643596 221.19928348118003 L 500.0268011259038 221.19928348118003M 490.3888690179863 221.19928348118003 L 437.38024242444 221.19928348118003" stroke="rgb(0, 150, 0)" fill="none" stroke-width="2.570115228778px" stroke-linecap="round" stroke-linejoin="round"/></g><g class="trace" data-circuit-json-type="schematic_trace" data-schematic-trace-id="schematic_trace_2"><path d="M 738.8291604124208 259.75900497121154 L 771.4952221655801 259.75900497121154 L 771.4952221655801 259.75101191285" class="trace-invisible-hover-outline" stroke="rgb(0, 150, 0)" fill="none" stroke-width="20.560921830224px" stroke-linecap="round" opacity="0" stroke-linejoin="round"/><path d="M 738.8291604124208 259.75900497121154 L 771.4952221655801 259.75900497121154 L 771.4952221655801 259.75101191285" stroke="rgb(0, 150, 0)" fill="none" stroke-width="2.570115228778px" stroke-linecap="round" stroke-linejoin="round"/></g><g class="trace" data-circuit-json-type="schematic_trace" data-schematic-trace-id="schematic_trace_3"><path d="M 591.652989652705 295.8422276796733 L 591.652989652705 259.7430188544885 L 624.2532179042793 259.7430188544885" class="trace-invisible-hover-outline" stroke="rgb(0, 150, 0)" fill="none" stroke-width="20.560921830224px" stroke-linecap="round" opacity="0" stroke-linejoin="round"/><path d="M 591.652989652705 295.8422276796733 L 591.652989652705 259.7430188544885 L 624.2532179042793 259.7430188544885" stroke="rgb(0, 150, 0)" fill="none" stroke-width="2.570115228778px" stroke-linecap="round" stroke-linejoin="round"/><circle cx="591.652989652705" cy="259.7430188544885" r="3.8551728431670003" class="trace-junction" fill="rgb(0, 150, 0)"/></g><g class="trace" data-circuit-json-type="schematic_trace" data-schematic-trace-id="schematic_trace_4"><path d="M 591.521322649535 429.26901444826683 L 591.58715615112 429.26901444826683 L 591.58715615112 465.36023021509004" class="trace-invisible-hover-outline" stroke="rgb(0, 150, 0)" fill="none" stroke-width="20.560921830224px" stroke-linecap="round" opacity="0" stroke-linejoin="round"/><path d="M 591.521322649535 429.26901444826683 L 591.58715615112 429.26901444826683 L 591.58715615112 465.36023021509004" stroke="rgb(0, 150, 0)" fill="none" stroke-width="2.570115228778px" stroke-linecap="round" stroke-linejoin="round"/></g><g class="trace" data-circuit-json-type="schematic_trace" data-schematic-trace-id="schematic_trace_5"><path d="M 591.5520419518069 227.79043393941424 L 591.5520419518069 259.7430188544885 L 624.2532179042793 259.7430188544885" class="trace-invisible-hover-outline" stroke="rgb(0, 150, 0)" fill="none" stroke-width="20.560921830224px" stroke-linecap="round" opacity="0" stroke-linejoin="round"/><path d="M 591.5520419518069 227.79043393941424 L 591.5520419518069 259.7430188544885 L 624.2532179042793 259.7430188544885" stroke="rgb(0, 150, 0)" fill="none" stroke-width="2.570115228778px" stroke-linecap="round" stroke-linejoin="round"/><circle cx="591.5520419518069" cy="259.7430188544885" r="3.8551728431670003" class="trace-junction" fill="rgb(0, 150, 0)"/><circle cx="591.652989652705" cy="259.7430188544885" r="3.8551728431670003" class="trace-junction" fill="rgb(0, 150, 0)"/></g><g class="trace" data-circuit-json-type="schematic_trace" data-schematic-trace-id="schematic_trace_6"><path d="M 591.6222703504332 86.10237158404578 L 591.6222703504332 70.67816879144647 L 452.8044452170393 70.67816879144647 L 452.8044452170393 169.79697890562 L 437.38024242444 169.79697890562" class="trace-invisible-hover-outline" stroke="rgb(0, 150, 0)" fill="none" stroke-width="20.560921830224px" stroke-linecap="round" opacity="0" stroke-linejoin="round"/><path d="M 591.6222703504332 86.10237158404578 L 591.6222703504332 70.67816879144647 L 452.8044452170393 70.67816879144647 L 452.8044452170393 169.79697890562 L 437.38024242444 169.79697890562" stroke="rgb(0, 150, 0)" fill="none" stroke-width="2.570115228778px" stroke-linecap="round" stroke-linejoin="round"/></g><g class="schematic-port-hover" data-schematic-port-id="source_port_0"><circle cx="437.38024242444" cy="221.19928348118003" r="5.140230457556" fill="red" opacity="0"/></g><g class="schematic-port-hover" data-schematic-port-id="source_port_1"><circle cx="437.38024242444" cy="195.4981311934" r="5.140230457556" fill="red" opacity="0"/></g><g class="schematic-port-hover" data-schematic-port-id="source_port_2"><circle cx="437.38024242444" cy="169.79697890562" r="5.140230457556" fill="red" opacity="0"/></g><g class="schematic-port-hover" data-schematic-port-id="source_port_3"><circle cx="624.2532179042793" cy="259.7430188544885" r="5.140230457556" fill="red" opacity="0"/></g><g class="schematic-port-hover" data-schematic-port-id="source_port_4"><circle cx="738.8291604124208" cy="259.75900497121154" r="5.140230457556" fill="red" opacity="0"/></g><g class="schematic-port-hover" data-schematic-port-id="source_port_5"><circle cx="591.521322649535" cy="429.26901444826683" r="5.140230457556" fill="red" opacity="0"/></g><g class="schematic-port-hover" data-schematic-port-id="source_port_6"><circle cx="591.652989652705" cy="295.8422276796733" r="5.140230457556" fill="red" opacity="0"/></g><g class="schematic-port-hover" data-schematic-port-id="source_port_7"><circle cx="591.5520419518069" cy="227.79043393941424" r="5.140230457556" fill="red" opacity="0"/></g><g class="schematic-port-hover" data-schematic-port-id="source_port_8"><circle cx="591.6222703504332" cy="86.10237158404578" r="5.140230457556" fill="red" opacity="0"/></g><rect class="component-overlay" x="465.6206685582526" y="323.86465663978095" width="57.74037578721635" height="62.123463148950634" fill="transparent"/><path d="M 495.0682521138701 323.86465663978095 L 495.0682521138701 366.22444770247444" stroke="rgb(132, 0, 0)" fill="none" stroke-width="2.570115228778px" stroke-linecap="round"/><path d="M 465.6206685582526 366.2202327134993 L 523.3610443454689 366.2202327134993" stroke="rgb(132, 0, 0)" fill="none" stroke-width="2.570115228778px" stroke-linecap="round"/><path d="M 472.83822035062076 376.10417625111546 L 516.1434925531007 376.10417625111546" stroke="rgb(132, 0, 0)" fill="none" stroke-width="2.570115228778px" stroke-linecap="round"/><path d="M 487.27331108478086 385.9881197887316 L 501.7084018189409 385.9881197887316" stroke="rgb(132, 0, 0)" fill="none" stroke-width="2.570115228778px" stroke-linecap="round"/><text x="492.300854840131" y="401.0401152812551" fill="rgb(15, 15, 15)" font-family="sans-serif" text-anchor="middle" dominant-baseline="hanging" font-size="23.131037059002px">GND</text><path class="net-label" d="
    M 771.4952221655801,259.75101191285
    L 778.4345332832808,245.8723896774488
    L 888.5554037856555,245.8723896774488
    L 888.5554037856555,273.6296341482512
    L 778.4345332832808,273.6296341482512
    Z
  " fill="rgba(255, 255, 255, 0.6)" stroke="rgb(132, 0, 0)" stroke-width="2.570115228778px"/><text class="net-label-text" x="783.0607406950811" y="259.75101191285" fill="rgb(132, 0, 0)" text-anchor="start" dominant-baseline="central" font-family="sans-serif" font-variant-numeric="tabular-nums" font-size="23.131037059002px" transform="">V3_3_EN</text><rect class="component-overlay" x="561.9999896374277" y="465.220994222571" width="57.740375787216294" height="62.12346314895058" fill="transparent"/><path d="M 591.4475731930452 465.220994222571 L 591.4475731930452 507.5807852852645" stroke="rgb(132, 0, 0)" fill="none" stroke-width="2.570115228778px" stroke-linecap="round"/><path d="M 561.9999896374277 507.57657029628933 L 619.740365424644 507.57657029628933" stroke="rgb(132, 0, 0)" fill="none" stroke-width="2.570115228778px" stroke-linecap="round"/><path d="M 569.2175414297958 517.4605138339056 L 612.5228136322758 517.4605138339056" stroke="rgb(132, 0, 0)" fill="none" stroke-width="2.570115228778px" stroke-linecap="round"/><path d="M 583.6526321639559 527.3444573715216 L 598.087722898116 527.3444573715216" stroke="rgb(132, 0, 0)" fill="none" stroke-width="2.570115228778px" stroke-linecap="round"/><text x="588.6801759193061" y="542.3964528640452" fill="rgb(15, 15, 15)" font-family="sans-serif" text-anchor="middle" dominant-baseline="hanging" font-size="23.131037059002px">GND</text></svg>