<svg xmlns="http://www.w3.org/2000/svg" width="1200" height="600" style="background-color: rgb(245, 241, 237)" data-real-to-screen-transform="matrix(163.5887741748,0,0,-163.5887741748,334.3712085982,224.1166206195)" data-software-used-string="@tscircuit/core@0.0.532"><style>
              .boundary { fill: rgb(245, 241, 237); }
              .schematic-boundary { fill: none; stroke: #fff; }
              .component { fill: none; stroke: rgb(132, 0, 0); }
              .chip { fill: rgb(255, 255, 194); stroke: rgb(132, 0, 0); }
              .component-pin { fill: none; stroke: rgb(132, 0, 0); }
              .trace:hover {
                filter: invert(1);
              }
              .trace:hover .trace-crossing-outline {
                opacity: 0;
              }
              .trace:hover .trace-junction {
                filter: invert(1);
              }
              .text { font-family: sans-serif; fill: rgb(0, 150, 0); }
              .pin-number { fill: rgb(169, 0, 0); }
              .port-label { fill: rgb(0, 100, 100); }
              .component-name { fill: rgb(0, 100, 100); }
            </style><rect class="boundary" x="0" y="0" width="1200" height="600"/><g data-circuit-json-type="schematic_component" data-schematic-component-id="schematic_component_0"><rect class="component chip" x="301.65345376324" y="117.78391740588" width="65.43550966991995" height="212.66540642724" stroke-width="3.271775483496px" fill="rgb(255, 255, 194)" stroke="rgb(132, 0, 0)"/><rect class="component-overlay" x="301.65345376324" y="117.78391740588" width="65.43550966991995" height="212.66540642724" fill="transparent"/><text x="301.65345376324" y="351.715864475844" fill="#006464" text-anchor="start" dominant-baseline="middle" font-family="sans-serif" font-size="29.445979351463997px" transform="rotate(0, 301.65345376324, 351.715864475844)"></text><text x="301.65345376324" y="96.517376763156" fill="#006464" text-anchor="start" dominant-baseline="middle" font-family="sans-serif" font-size="29.445979351463997px" transform="rotate(0, 301.65345376324, 96.517376763156)">U1</text><line class="component-pin" x1="429.252697619584" y1="150.50167224083998" x2="367.08896343316" y2="150.50167224083998" stroke-width="3.271775483496px"/><text class="pin-number" x="399.80671826812" y="147.229896757344" style="font-family: sans-serif;" fill="rgb(169, 0, 0)" text-anchor="middle" dominant-baseline="auto" font-size="24.53831612622px" transform="">1</text><line class="component-pin" x1="429.252697619584" y1="199.57830449328" x2="367.08896343316" y2="199.57830449328" stroke-width="3.271775483496px"/><text class="pin-number" x="399.80671826812" y="196.30652900978401" style="font-family: sans-serif;" fill="rgb(169, 0, 0)" text-anchor="middle" dominant-baseline="auto" font-size="24.53831612622px" transform="">2</text><line class="component-pin" x1="429.252697619584" y1="248.65493674572" x2="367.08896343316" y2="248.65493674572" stroke-width="3.271775483496px"/><text class="pin-number" x="399.80671826812" y="245.383161262224" style="font-family: sans-serif;" fill="rgb(169, 0, 0)" text-anchor="middle" dominant-baseline="auto" font-size="24.53831612622px" transform="">3</text><line class="component-pin" x1="429.252697619584" y1="297.73156899816" x2="367.08896343316" y2="297.73156899816" stroke-width="3.271775483496px"/><text class="pin-number" x="399.80671826812" y="294.459793514664" style="font-family: sans-serif;" fill="rgb(169, 0, 0)" text-anchor="middle" dominant-baseline="auto" font-size="24.53831612622px" transform="">4</text></g><g data-circuit-json-type="schematic_component" data-schematic-component-id="schematic_component_1"><rect class="component-overlay" x="715.9839478166599" y="204.96671038459624" width="43.2828740730007" height="173.13144721537083" fill="transparent"/><path d="M 737.6253848531603 378.09815759996707 L 737.6253848531603 334.81529988584373" stroke="rgb(132, 0, 0)" fill="none" stroke-width="3.271775483496px" stroke-linecap="round"/><path d="M 737.6253848531603 248.2495844575969 L 737.6253848531603 204.96671038459624" stroke="rgb(132, 0, 0)" fill="none" stroke-width="3.271775483496px" stroke-linecap="round"/><path d="M 715.9839478166599 291.5324585305978 L 715.98394781666 248.24960081647453 L 759.2668218896606 248.24960081647453 L 759.2668218896606 334.81533260359873 L 715.9839478166599 334.81533260359873 L 715.9839478166599 291.5324585305981" stroke="rgb(132, 0, 0)" fill="none" stroke-width="3.271775483496px" stroke-linecap="round"/><text x="782.7131911277029" y="268.19090879960845" fill="rgb(15, 15, 15)" font-family="sans-serif" text-anchor="start" dominant-baseline="middle" font-size="29.445979351463997px">R7</text><text x="782.7131911277029" y="320.53931653554446" fill="rgb(15, 15, 15)" font-family="sans-serif" text-anchor="start" dominant-baseline="middle" font-size="29.445979351463997px">2.2kΩ</text></g><g data-circuit-json-type="schematic_component" data-schematic-component-id="schematic_component_2"><rect class="component-overlay" x="872.6834959423405" y="204.96671038459624" width="43.2828740730007" height="173.13144721537083" fill="transparent"/><path d="M 894.3249329788409 378.09815759996707 L 894.3249329788409 334.81529988584373" stroke="rgb(132, 0, 0)" fill="none" stroke-width="3.271775483496px" stroke-linecap="round"/><path d="M 894.3249329788409 248.2495844575969 L 894.3249329788409 204.96671038459624" stroke="rgb(132, 0, 0)" fill="none" stroke-width="3.271775483496px" stroke-linecap="round"/><path d="M 872.6834959423405 291.5324585305978 L 872.6834959423406 248.24960081647453 L 915.9663700153412 248.24960081647453 L 915.9663700153412 334.81533260359873 L 872.6834959423405 334.81533260359873 L 872.6834959423405 291.5324585305981" stroke="rgb(132, 0, 0)" fill="none" stroke-width="3.271775483496px" stroke-linecap="round"/><text x="939.4127392533835" y="268.19090879960845" fill="rgb(15, 15, 15)" font-family="sans-serif" text-anchor="start" dominant-baseline="middle" font-size="29.445979351463997px">R8</text><text x="939.4127392533835" y="320.53931653554446" fill="rgb(15, 15, 15)" font-family="sans-serif" text-anchor="start" dominant-baseline="middle" font-size="29.445979351463997px">2.2kΩ</text></g><g data-circuit-json-type="schematic_component" data-schematic-component-id="schematic_component_3"><rect class="component-overlay" x="610.931170947678" y="247.4478939741811" width="42.1200359895339" height="144.15395339538867" fill="transparent"/><path d="M 632.0728279201969 349.12453349723785 L 632.0728279201969 391.6018473695698" stroke="rgb(132, 0, 0)" fill="none" stroke-width="3.271775483496px" stroke-linecap="round"/><path d="M 631.7923222491193 247.4478939741811 L 631.7923222491193 289.6974595551067" stroke="rgb(132, 0, 0)" fill="none" stroke-width="3.271775483496px" stroke-linecap="round"/><path d="M 631.7935982415579 308.52263404980084 L 631.7935982415579 330.30174739864674" stroke="rgb(132, 0, 0)" fill="none" stroke-width="3.271775483496px" stroke-linecap="round"/><path d="M 611.274200248245 308.21176630223647 L 652.4963792507206 308.21176630223647" stroke="rgb(132, 0, 0)" fill="none" stroke-width="3.271775483496px" stroke-linecap="round"/><path d="M 611.258446649292 330.62519512294523 L 652.4806256517676 330.62519512294523" stroke="rgb(132, 0, 0)" fill="none" stroke-width="3.271775483496px" stroke-linecap="round"/><path d="M 653.0304638806466 331.3851958500065 L 653.0304638806466 331.3851958500065 L 651.6519254415258 333.94155594464587 L 650.2228382056912 336.2412218012454 L 648.7484350762984 338.29280789195855 L 647.2339489565029 340.10492868893897 L 645.6846127494599 341.6861986643402 L 644.105659358325 343.0452322903158 L 642.5023216862538 344.19064403901933 L 640.8798326364015 345.1310483826043 L 639.2434251119236 345.8750597932243 L 637.5983320159756 346.43129274303294 L 635.9497862517129 346.80836170418365 L 634.3030207222911 347.01488114883006 L 632.6632683308653 347.0594655491257 L 631.0357619805914 346.9507293772242 L 629.4257345746245 346.6972871052791 L 627.8384190161202 346.3077532054439 L 626.2790482082338 345.7907421498721 L 624.7528550541209 345.15486841071737 L 623.265072456937 344.4087464601332 L 621.8209333198373 343.56099077027324 L 620.4256705459775 342.62021581329094 L 619.0845170385128 341.5950360613399 L 617.802705700599 340.4940659865737 L 616.5854694353911 339.32592006114584 L 615.4380411460448 338.0992127572099 L 614.3656537357157 336.8225585469195 L 613.3735401075589 335.50457190242804 L 612.4669331647301 334.15386729588926 L 611.6510658103847 332.7790591994566 L 610.931170947678 331.3887620852836 L 610.931170947678 331.3887620852836" stroke="rgb(132, 0, 0)" fill="none" stroke-width="3.271775483496px" stroke-linecap="round"/><path d="M 653.0512069372119 307.46396929772845 L 653.0512069372119 307.46396929772845 L 651.6726684980911 304.9076092030891 L 650.2435812622565 302.6079433464896 L 648.7691781328638 300.55635725577645 L 647.2546920130682 298.74423645879597 L 645.7053558060252 297.16296648339477 L 644.1264024148904 295.80393285741917 L 642.5230647428191 294.65852110871566 L 640.9005756929668 293.7181167651307 L 639.2641681684889 292.97410535451064 L 637.6190750725409 292.41787240470205 L 635.9705293082783 292.04080344355134 L 634.3237637788563 291.8342839989049 L 632.6840113874307 291.7896995986092 L 631.0565050371566 291.89843577051073 L 629.4464776311897 292.1518780424559 L 627.8591620726854 292.5414119422911 L 626.2997912647991 293.05842299786286 L 624.7735981106862 293.6942967370176 L 623.2858155135023 294.4404186876017 L 621.8416763764026 295.28817437746176 L 620.4464136025427 296.22894933444405 L 619.1052600950782 297.2541290863951 L 617.8234487571642 298.3550991611613 L 616.6062124919564 299.52324508658916 L 615.4587842026102 300.7499523905251 L 614.386396792281 302.0266066008155 L 613.3942831641242 303.34459324530695 L 612.4876762212954 304.6952978518458 L 611.67180886695 306.07010594827847 L 610.9519140042433 307.4604030624514 L 610.9519140042433 307.4604030624514" stroke="rgb(132, 0, 0)" fill="none" stroke-width="3.271775483496px" stroke-linecap="round"/><text x="602.6179329805404" y="322.8619262557057" fill="rgb(15, 15, 15)" font-family="sans-serif" text-anchor="end" dominant-baseline="middle" font-size="29.445979351463997px">JP1</text></g><g class="trace" data-circuit-json-type="schematic_trace" data-schematic-trace-id="schematic_trace_0"><path d="M 737.773056439608 201.31733929254997 L 432.52447310308 201.31733929254997 L 432.52447310308 199.57830449328" class="trace-invisible-hover-outline" stroke="rgb(0, 150, 0)" fill="none" stroke-width="26.174203867968px" stroke-linecap="round" opacity="0" stroke-linejoin="round"/><path d="M 737.773056439608 201.31733929254997 L 432.52447310308 201.31733929254997 L 432.52447310308 199.57830449328" stroke="rgb(0, 150, 0)" fill="none" stroke-width="3.271775483496px" stroke-linecap="round" stroke-linejoin="round"/></g><g class="trace" data-circuit-json-type="schematic_trace" data-schematic-trace-id="schematic_trace_1"><path d="M 894.4726045652887 201.31733929254997 L 795.029127400788 201.31733929254997 L 795.029127400788 150.50167224083998 L 432.52447310308 150.50167224083998" class="trace-invisible-hover-outline" stroke="rgb(0, 150, 0)" fill="none" stroke-width="26.174203867968px" stroke-linecap="round" opacity="0" stroke-linejoin="round"/><path d="M 894.4726045652887 201.31733929254997 L 795.029127400788 201.31733929254997 L 795.029127400788 150.50167224083998 L 432.52447310308 150.50167224083998" stroke="rgb(0, 150, 0)" fill="none" stroke-width="3.271775483496px" stroke-linecap="round" stroke-linejoin="round"/></g><g class="trace" data-circuit-json-type="schematic_trace" data-schematic-trace-id="schematic_trace_2"><path d="M 631.9485168107017 246.55823278470888 L 432.52447310308 246.55823278470888 L 432.52447310308 248.65493674572" class="trace-invisible-hover-outline" stroke="rgb(0, 150, 0)" fill="none" stroke-width="26.174203867968px" stroke-linecap="round" opacity="0" stroke-linejoin="round"/><path d="M 631.9485168107017 246.55823278470888 L 432.52447310308 246.55823278470888 L 432.52447310308 248.65493674572" stroke="rgb(0, 150, 0)" fill="none" stroke-width="3.271775483496px" stroke-linecap="round" stroke-linejoin="round"/></g><g class="trace" data-circuit-json-type="schematic_trace" data-schematic-trace-id="schematic_trace_3"><path d="M 737.6836551745216 381.68727894648487 L 738.1083032616064 381.68727894648487 L 738.1083032616064 412.24371092052" class="trace-invisible-hover-outline" stroke="rgb(0, 150, 0)" fill="none" stroke-width="26.174203867968px" stroke-linecap="round" opacity="0" stroke-linejoin="round"/><path d="M 737.6836551745216 381.68727894648487 L 738.1083032616064 381.68727894648487 L 738.1083032616064 412.24371092052" stroke="rgb(0, 150, 0)" fill="none" stroke-width="3.271775483496px" stroke-linecap="round" stroke-linejoin="round"/></g><g class="trace" data-circuit-json-type="schematic_trace" data-schematic-trace-id="schematic_trace_4"><path d="M 894.3832033002022 381.68727894648487 L 894.3355825985404 381.68727894648487 L 894.3355825985404 412.24371092052" class="trace-invisible-hover-outline" stroke="rgb(0, 150, 0)" fill="none" stroke-width="26.174203867968px" stroke-linecap="round" opacity="0" stroke-linejoin="round"/><path d="M 894.3832033002022 381.68727894648487 L 894.3355825985404 381.68727894648487 L 894.3355825985404 412.24371092052" stroke="rgb(0, 150, 0)" fill="none" stroke-width="3.271775483496px" stroke-linecap="round" stroke-linejoin="round"/></g><g class="trace" data-circuit-json-type="schematic_trace" data-schematic-trace-id="schematic_trace_5"><path d="M 631.9281663671943 392.41424558099925 L 632.102777596336 392.41424558099925 L 632.102777596336 428.602588338" class="trace-invisible-hover-outline" stroke="rgb(0, 150, 0)" fill="none" stroke-width="26.174203867968px" stroke-linecap="round" opacity="0" stroke-linejoin="round"/><path d="M 631.9281663671943 392.41424558099925 L 632.102777596336 392.41424558099925 L 632.102777596336 428.602588338" stroke="rgb(0, 150, 0)" fill="none" stroke-width="3.271775483496px" stroke-linecap="round" stroke-linejoin="round"/></g><g class="trace" data-circuit-json-type="schematic_trace" data-schematic-trace-id="schematic_trace_6"><path d="M 432.52447310308 297.73156899816 L 497.959982773 297.73156899816 L 497.959982773 351.715864475844" class="trace-invisible-hover-outline" stroke="rgb(0, 150, 0)" fill="none" stroke-width="26.174203867968px" stroke-linecap="round" opacity="0" stroke-linejoin="round"/><path d="M 432.52447310308 297.73156899816 L 497.959982773 297.73156899816 L 497.959982773 351.715864475844" stroke="rgb(0, 150, 0)" fill="none" stroke-width="3.271775483496px" stroke-linecap="round" stroke-linejoin="round"/></g><g class="trace" data-circuit-json-type="schematic_trace" data-schematic-trace-id="schematic_trace_7"><path d="M 432.52447310308 297.73156899816 L 497.959982773 297.73156899816 L 497.959982773 351.715864475844" class="trace-invisible-hover-outline" stroke="rgb(0, 150, 0)" fill="none" stroke-width="26.174203867968px" stroke-linecap="round" opacity="0" stroke-linejoin="round"/><path d="M 432.52447310308 297.73156899816 L 497.959982773 297.73156899816 L 497.959982773 351.715864475844" stroke="rgb(0, 150, 0)" fill="none" stroke-width="3.271775483496px" stroke-linecap="round" stroke-linejoin="round"/></g><rect class="component-overlay" x="700.4436238956004" y="412.06646248370157" width="73.50392067762743" height="79.08362294605911" fill="transparent"/><path d="M 737.9306131350977 412.06646248370157 L 737.9306131350977 465.99078631677304" stroke="rgb(132, 0, 0)" fill="none" stroke-width="3.271775483496px" stroke-linecap="round"/><path d="M 700.4436238956004 465.98542060498016 L 773.9475445732278 465.98542060498016" stroke="rgb(132, 0, 0)" fill="none" stroke-width="3.271775483496px" stroke-linecap="round"/><path d="M 709.6316201148829 478.5677530173705 L 764.7595483539452 478.5677530173705" stroke="rgb(132, 0, 0)" fill="none" stroke-width="3.271775483496px" stroke-linecap="round"/><path d="M 728.0075961945704 491.1500854297607 L 746.383572274258 491.1500854297607" stroke="rgb(132, 0, 0)" fill="none" stroke-width="3.271775483496px" stroke-linecap="round"/><text x="734.4076961654885" y="510.3113857787517" fill="rgb(15, 15, 15)" font-family="sans-serif" text-anchor="middle" dominant-baseline="hanging" font-size="29.445979351463997px">GND</text><rect class="component-overlay" x="856.6709032325343" y="412.06646248370157" width="73.50392067762743" height="79.08362294605911" fill="transparent"/><path d="M 894.1578924720317 412.06646248370157 L 894.1578924720317 465.99078631677304" stroke="rgb(132, 0, 0)" fill="none" stroke-width="3.271775483496px" stroke-linecap="round"/><path d="M 856.6709032325343 465.98542060498016 L 930.1748239101618 465.98542060498016" stroke="rgb(132, 0, 0)" fill="none" stroke-width="3.271775483496px" stroke-linecap="round"/><path d="M 865.8588994518169 478.5677530173705 L 920.9868276908792 478.5677530173705" stroke="rgb(132, 0, 0)" fill="none" stroke-width="3.271775483496px" stroke-linecap="round"/><path d="M 884.2348755315044 491.1500854297607 L 902.610851611192 491.1500854297607" stroke="rgb(132, 0, 0)" fill="none" stroke-width="3.271775483496px" stroke-linecap="round"/><text x="890.6349755024224" y="510.3113857787517" fill="rgb(15, 15, 15)" font-family="sans-serif" text-anchor="middle" dominant-baseline="hanging" font-size="29.445979351463997px">GND</text><rect class="component-overlay" x="594.4380982303301" y="428.4253399011816" width="73.50392067762743" height="79.08362294605911" fill="transparent"/><path d="M 631.9250874698274 428.4253399011816 L 631.9250874698274 482.34966373425306" stroke="rgb(132, 0, 0)" fill="none" stroke-width="3.271775483496px" stroke-linecap="round"/><path d="M 594.4380982303301 482.3442980224602 L 667.9420189079575 482.3442980224602" stroke="rgb(132, 0, 0)" fill="none" stroke-width="3.271775483496px" stroke-linecap="round"/><path d="M 603.6260944496127 494.9266304348505 L 658.7540226886749 494.9266304348505" stroke="rgb(132, 0, 0)" fill="none" stroke-width="3.271775483496px" stroke-linecap="round"/><path d="M 622.0020705293001 507.5089628472407 L 640.3780466089877 507.5089628472407" stroke="rgb(132, 0, 0)" fill="none" stroke-width="3.271775483496px" stroke-linecap="round"/><text x="628.4021705002182" y="526.6702631962316" fill="rgb(15, 15, 15)" font-family="sans-serif" text-anchor="middle" dominant-baseline="hanging" font-size="29.445979351463997px">GND</text><rect class="component-overlay" x="460.29530340699404" y="351.5386160390256" width="73.50392067762749" height="79.08362294605911" fill="transparent"/><path d="M 497.7822926464914 351.5386160390256 L 497.7822926464914 405.4629398720971" stroke="rgb(132, 0, 0)" fill="none" stroke-width="3.271775483496px" stroke-linecap="round"/><path d="M 460.29530340699404 405.4575741603042 L 533.7992240846215 405.4575741603042" stroke="rgb(132, 0, 0)" fill="none" stroke-width="3.271775483496px" stroke-linecap="round"/><path d="M 469.48329962627656 418.0399065726945 L 524.611227865339 418.0399065726945" stroke="rgb(132, 0, 0)" fill="none" stroke-width="3.271775483496px" stroke-linecap="round"/><path d="M 487.85927570596414 430.6222389850847 L 506.23525178565166 430.6222389850847" stroke="rgb(132, 0, 0)" fill="none" stroke-width="3.271775483496px" stroke-linecap="round"/><text x="494.25937567688214" y="449.7835393340757" fill="rgb(15, 15, 15)" font-family="sans-serif" text-anchor="middle" dominant-baseline="hanging" font-size="29.445979351463997px">GND</text><rect class="component-overlay" x="460.29530340699404" y="351.5386160390256" width="73.50392067762749" height="79.08362294605911" fill="transparent"/><path d="M 497.7822926464914 351.5386160390256 L 497.7822926464914 405.4629398720971" stroke="rgb(132, 0, 0)" fill="none" stroke-width="3.271775483496px" stroke-linecap="round"/><path d="M 460.29530340699404 405.4575741603042 L 533.7992240846215 405.4575741603042" stroke="rgb(132, 0, 0)" fill="none" stroke-width="3.271775483496px" stroke-linecap="round"/><path d="M 469.48329962627656 418.0399065726945 L 524.611227865339 418.0399065726945" stroke="rgb(132, 0, 0)" fill="none" stroke-width="3.271775483496px" stroke-linecap="round"/><path d="M 487.85927570596414 430.6222389850847 L 506.23525178565166 430.6222389850847" stroke="rgb(132, 0, 0)" fill="none" stroke-width="3.271775483496px" stroke-linecap="round"/><text x="494.25937567688214" y="449.7835393340757" fill="rgb(15, 15, 15)" font-family="sans-serif" text-anchor="middle" dominant-baseline="hanging" font-size="29.445979351463997px">GND</text></svg>