<svg xmlns="http://www.w3.org/2000/svg" width="1200" height="600" style="background-color: rgb(245, 241, 237)" data-real-to-screen-transform="matrix(94.9427178935,0,0,-94.9427178935,-17.127666308,339.1227292867)" data-software-used-string="@tscircuit/core@0.0.532"><style>
              .boundary { fill: rgb(245, 241, 237); }
              .schematic-boundary { fill: none; stroke: #fff; }
              .component { fill: none; stroke: rgb(132, 0, 0); }
              .chip { fill: rgb(255, 255, 194); stroke: rgb(132, 0, 0); }
              .component-pin { fill: none; stroke: rgb(132, 0, 0); }
              .trace:hover {
                filter: invert(1);
              }
              .trace:hover .trace-crossing-outline {
                opacity: 0;
              }
              .trace:hover .trace-junction {
                filter: invert(1);
              }
              .text { font-family: sans-serif; fill: rgb(0, 150, 0); }
              .pin-number { fill: rgb(169, 0, 0); }
              .port-label { fill: rgb(0, 100, 100); }
              .component-name { fill: rgb(0, 100, 100); }
            </style><rect class="boundary" x="0" y="0" width="1200" height="600"/><g data-circuit-json-type="schematic_component" data-schematic-component-id="schematic_component_0"><rect class="component-overlay" x="588.2826919422826" y="126.41663396429541" width="24.445385783900633" height="83.6632476738703" fill="transparent"/><path d="M 600.5527659975977 185.42714095838556 L 600.5527659975977 210.07988163816572" stroke="rgb(132, 0, 0)" fill="none" stroke-width="1.8988543578700001px" stroke-linecap="round"/><path d="M 600.3899677192256 126.41663396429541 L 600.3899677192256 150.93719539222414" stroke="rgb(132, 0, 0)" fill="none" stroke-width="1.8988543578700001px" stroke-linecap="round"/><path d="M 600.3907082724252 161.86284258508013 L 600.3907082724252 174.50287992921085" stroke="rgb(132, 0, 0)" fill="none" stroke-width="1.8988543578700001px" stroke-linecap="round"/><path d="M 588.4817773274334 161.68242293826714 L 612.4060700041756 161.68242293826714" stroke="rgb(132, 0, 0)" fill="none" stroke-width="1.8988543578700001px" stroke-linecap="round"/><path d="M 588.4726343437003 174.6906006710299 L 612.3969270204424 174.6906006710299" stroke="rgb(132, 0, 0)" fill="none" stroke-width="1.8988543578700001px" stroke-linecap="round"/><path d="M 612.7160389895544 175.13168554981954 L 612.7160389895544 175.13168554981954 L 611.915970728202 176.61533121269494 L 611.0865652450846 177.9499981406294 L 610.2308595826308 179.1406859517421 L 609.3518907832698 180.19239426415248 L 608.4526958894302 181.11012269597973 L 607.5363119435408 181.89887086534316 L 606.6057759880307 182.56363839036206 L 605.6641250653284 183.10942488915575 L 604.7143962178632 183.54122997984342 L 603.7596264880634 183.86405328054448 L 602.8028529183583 184.08289440937816 L 601.8471125511765 184.20275298446373 L 600.8954424289469 184.22862862392049 L 599.9508795940984 184.16552094586777 L 599.0164610890597 184.0184295684248 L 598.0952239562598 183.7923541097109 L 597.1902052381275 183.49229418784537 L 596.3044419770918 183.1232494209475 L 595.4409712155812 182.69021942713653 L 594.6028299960246 182.19820382453176 L 593.7930553608512 181.65220223125252 L 593.0146843524894 181.05721426541808 L 592.2707540133684 180.4182395451477 L 591.5643013859169 179.7402776885607 L 590.8983635125637 179.02832831377637 L 590.2759774357378 178.287391038914 L 589.7001801978678 177.52246548209283 L 589.1740088413827 176.7385512614322 L 588.7005004087114 175.9406479950514 L 588.2826919422826 175.13375530106967 L 588.2826919422826 175.13375530106967" stroke="rgb(132, 0, 0)" fill="none" stroke-width="1.8988543578700001px" stroke-linecap="round"/><path d="M 612.7280777261832 161.2484207862323 L 612.7280777261832 161.2484207862323 L 611.9280094648309 159.76477512335688 L 611.0986039817134 158.43010819542243 L 610.2428983192598 157.23942038430968 L 609.3639295198986 156.18771207189934 L 608.464734626059 155.26998364007207 L 607.5483506801697 154.48123547070864 L 606.6178147246595 153.81646794568974 L 605.6761638019574 153.27068144689608 L 604.726434954492 152.83887635620837 L 603.7716652246924 152.51605305550734 L 602.8148916549872 152.29721192667367 L 601.8591512878054 152.1773533515881 L 600.9074811655757 152.1514777121313 L 599.9629183307272 152.21458539018403 L 599.0284998256886 152.36167676762702 L 598.1072626928888 152.5877522263409 L 597.2022439747565 152.88781214820645 L 596.3164807137206 153.25685691510432 L 595.45300995221 153.6898869089153 L 594.6148687326536 154.18190251152006 L 593.80509409748 154.7279041047993 L 593.0267230891184 155.32289207063374 L 592.2827927499973 155.9618667909041 L 591.5763401225458 156.63982864749113 L 590.9104022491927 157.35177802227545 L 590.2880161723666 158.09271529713786 L 589.7122189344967 158.857640853959 L 589.1860475780115 159.64155507461965 L 588.7125391453402 160.43945834100046 L 588.2947306789115 161.24635103498218 L 588.2947306789115 161.24635103498218" stroke="rgb(132, 0, 0)" fill="none" stroke-width="1.8988543578700001px" stroke-linecap="round"/><text x="583.4579023986425" y="170.18499905067588" fill="rgb(15, 15, 15)" font-family="sans-serif" text-anchor="end" dominant-baseline="middle" font-size="17.08968922083px">PWR</text></g><g data-circuit-json-type="schematic_component" data-schematic-component-id="schematic_component_1"><rect class="component-overlay" x="587.8548183426877" y="241.4283340718516" width="25.120267105503103" height="100.4810399391969" fill="transparent"/><path d="M 600.4149518954392 341.9093740110485 L 600.4149518954392 316.78911639981726" stroke="rgb(132, 0, 0)" fill="none" stroke-width="1.8988543578700001px" stroke-linecap="round"/><path d="M 600.4149518954393 266.5486011773546 L 600.4149518954393 241.4283340718516" stroke="rgb(132, 0, 0)" fill="none" stroke-width="1.8988543578700001px" stroke-linecap="round"/><path d="M 587.8548183426877 291.6688682828577 L 587.8548183426877 266.5486106716265 L 612.9750854481908 266.5486106716265 L 612.9750854481908 316.78913538836093 L 587.8548183426877 316.78913538836093 L 587.8548183426877 291.6688682828579" stroke="rgb(132, 0, 0)" fill="none" stroke-width="1.8988543578700001px" stroke-linecap="round"/><text x="626.5827552374128" y="278.12203304012627" fill="rgb(15, 15, 15)" font-family="sans-serif" text-anchor="start" dominant-baseline="middle" font-size="17.08968922083px">R4</text><text x="626.5827552374128" y="308.5037027660463" fill="rgb(15, 15, 15)" font-family="sans-serif" text-anchor="start" dominant-baseline="middle" font-size="17.08968922083px">1kΩ</text></g><g data-circuit-json-type="schematic_component" data-schematic-component-id="schematic_component_2"><rect class="component-overlay" x="569.2890119625448" y="374.66920691185214" width="43.622067852378564" height="99.89466421921492" fill="transparent"/><path d="M 600.3509462621715 437.46985568706623 L 612.9110798149234 412.349598075835" stroke="rgb(132, 0, 0)" fill="none" stroke-width="1.8988543578700001px" stroke-linecap="round"/><path d="M 600.3721944424361 436.6893505918074 L 600.3721944424361 474.56387113106706" stroke="rgb(132, 0, 0)" fill="none" stroke-width="1.8988543578700001px" stroke-linecap="round"/><path d="M 587.7908127094199 412.349598075835 L 600.3509462621715 437.46985568706623" stroke="rgb(132, 0, 0)" fill="none" stroke-width="1.8988543578700001px" stroke-linecap="round"/><path d="M 612.9110798149234 412.349598075835 L 587.7908127094199 412.349598075835" stroke="rgb(132, 0, 0)" fill="none" stroke-width="1.8988543578700001px" stroke-linecap="round"/><path d="M 587.7908127094199 437.46985568706623 L 612.9110798149234 437.46985568706623" stroke="rgb(132, 0, 0)" fill="none" stroke-width="1.8988543578700001px" stroke-linecap="round"/><path d="M 600.3509462621715 412.1555541490042 L 600.3509462621714 374.66920691185214" stroke="rgb(132, 0, 0)" fill="none" stroke-width="1.8988543578700001px" stroke-linecap="round"/><path d="M 572.8983353374406 439.3579245521835 L 571.2957782135724 448.5998670801879 L 580.1029305649835 445.34306601683073" stroke="rgb(132, 0, 0)" fill="none" stroke-width="1.8988543578700001px" stroke-linecap="round"/><path d="M 584.2482435594754 432.16702006456046 L 583.4001202605325 433.30856383315296 L 574.8120007593016 444.86845686435294 L 574.7218051773028 444.9282707766258" stroke="rgb(132, 0, 0)" fill="none" stroke-width="1.8988543578700001px" stroke-linecap="round"/><path d="M 570.8915690864129 422.5087916956802 L 569.2890119625448 431.7507342236847 L 578.0961643139559 428.49393316032746" stroke="rgb(132, 0, 0)" fill="none" stroke-width="1.8988543578700001px" stroke-linecap="round"/><path d="M 582.2414773084478 415.3178872080572 L 581.393354009505 416.45943097664974 L 572.805234508274 428.01932400784966 L 572.7150389262752 428.0791379201226" stroke="rgb(132, 0, 0)" fill="none" stroke-width="1.8988543578700001px" stroke-linecap="round"/><text x="618.98854357845" y="443.55971896955003" fill="rgb(15, 15, 15)" font-family="sans-serif" text-anchor="start" dominant-baseline="middle" font-size="17.08968922083px">RED</text><text x="618.98854357845" y="406.532058991085" fill="rgb(15, 15, 15)" font-family="sans-serif" text-anchor="start" dominant-baseline="middle" font-size="17.08968922083px">D3</text></g><g class="trace" data-circuit-json-type="schematic_trace" data-schematic-trace-id="schematic_trace_0"><path d="M 600.4806190262705 125.90029748730339 L 600.4747135892175 125.90029748730339 L 600.4747135892175 101.76593455295" class="trace-invisible-hover-outline" stroke="rgb(0, 150, 0)" fill="none" stroke-width="15.190834862960001px" stroke-linecap="round" opacity="0" stroke-linejoin="round"/><path d="M 600.4806190262705 125.90029748730339 L 600.4747135892175 125.90029748730339 L 600.4747135892175 101.76593455295" stroke="rgb(0, 150, 0)" fill="none" stroke-width="1.8988543578700001px" stroke-linecap="round" stroke-linejoin="round"/></g><g class="trace" data-circuit-json-type="schematic_trace" data-schematic-trace-id="schematic_trace_1"><path d="M 600.4688081521645 210.55137666949662 L 600.4688081521645 239.31033293253984" class="trace-invisible-hover-outline" stroke="rgb(0, 150, 0)" fill="none" stroke-width="15.190834862960001px" stroke-linecap="round" opacity="0" stroke-linejoin="round"/><path d="M 600.4688081521645 210.55137666949662 L 600.4688081521645 239.31033293253984" stroke="rgb(0, 150, 0)" fill="none" stroke-width="1.8988543578700001px" stroke-linecap="round" stroke-linejoin="round"/></g><g class="trace" data-circuit-json-type="schematic_trace" data-schematic-trace-id="schematic_trace_2"><path d="M 600.4487704915532 343.9924077473602 L 600.4487704915532 373.6620070890789" class="trace-invisible-hover-outline" stroke="rgb(0, 150, 0)" fill="none" stroke-width="15.190834862960001px" stroke-linecap="round" opacity="0" stroke-linejoin="round"/><path d="M 600.4487704915532 343.9924077473602 L 600.4487704915532 373.6620070890789" stroke="rgb(0, 150, 0)" fill="none" stroke-width="1.8988543578700001px" stroke-linecap="round" stroke-linejoin="round"/></g><g class="trace" data-circuit-json-type="schematic_trace" data-schematic-trace-id="schematic_trace_3"><path d="M 600.4639280964651 475.4803436926211 L 600.4747135892175 475.4803436926211 L 600.4747135892175 500.52534970565" class="trace-invisible-hover-outline" stroke="rgb(0, 150, 0)" fill="none" stroke-width="15.190834862960001px" stroke-linecap="round" opacity="0" stroke-linejoin="round"/><path d="M 600.4639280964651 475.4803436926211 L 600.4747135892175 475.4803436926211 L 600.4747135892175 500.52534970565" stroke="rgb(0, 150, 0)" fill="none" stroke-width="1.8988543578700001px" stroke-linecap="round" stroke-linejoin="round"/></g><rect class="component-overlay" x="591.608440407374" y="61.461953288328914" width="17.59093929994856" height="38.88491993162593" fill="transparent"/><path d="M 600.2649471483038 61.461953288328914 L 591.608440407374 79.60272485614253" stroke="rgb(132, 0, 0)" fill="none" stroke-width="1.8988543578700001px" stroke-linecap="round"/><path d="M 600.5428729663932 61.471409583031104 L 609.1993797073226 79.61222862220367" stroke="rgb(132, 0, 0)" fill="none" stroke-width="1.8988543578700001px" stroke-linecap="round"/><path d="M 600.365121209953 61.94062598913261 L 600.365121209953 100.34687321995484" stroke="rgb(132, 0, 0)" fill="none" stroke-width="1.8988543578700001px" stroke-linecap="round"/><text x="599.9404519270871" y="55.89819608850843" fill="rgb(15, 15, 15)" font-family="sans-serif" text-anchor="middle" dominant-baseline="ideographic" font-size="17.08968922083px">V3_3</text><rect class="component-overlay" x="578.615102221418" y="500.4224792708124" width="42.6597854294406" height="45.898101145624025" fill="transparent"/><path d="M 600.3715868090416 500.4224792708124 L 600.3715868090416 531.7187701752877" stroke="rgb(132, 0, 0)" fill="none" stroke-width="1.8988543578700001px" stroke-linecap="round"/><path d="M 578.615102221418 531.7156560541407 L 621.2748876508587 531.7156560541407" stroke="rgb(132, 0, 0)" fill="none" stroke-width="1.8988543578700001px" stroke-linecap="round"/><path d="M 583.9475789604501 539.0181182352886 L 615.9424109118265 539.0181182352886" stroke="rgb(132, 0, 0)" fill="none" stroke-width="1.8988543578700001px" stroke-linecap="round"/><path d="M 594.6125229442423 546.3205804164364 L 605.2774669280345 546.3205804164364" stroke="rgb(132, 0, 0)" fill="none" stroke-width="1.8988543578700001px" stroke-linecap="round"/><text x="598.3269763906615" y="557.4413064117481" fill="rgb(15, 15, 15)" font-family="sans-serif" text-anchor="middle" dominant-baseline="hanging" font-size="17.08968922083px">GND</text></svg>