<svg xmlns="http://www.w3.org/2000/svg" width="1200" height="600" style="background-color: rgb(245, 241, 237)" data-real-to-screen-transform="matrix(97.9154880543,0,0,-97.9154880543,473.5666260499,188.7549501719)" data-software-used-string="@tscircuit/core@0.0.586"><style>
              .boundary { fill: rgb(245, 241, 237); }
              .schematic-boundary { fill: none; stroke: #fff; }
              .component { fill: none; stroke: rgb(132, 0, 0); }
              .chip { fill: rgb(255, 255, 194); stroke: rgb(132, 0, 0); }
              .component-pin { fill: none; stroke: rgb(132, 0, 0); }
              .trace:hover {
                filter: invert(1);
              }
              .trace:hover .trace-crossing-outline {
                opacity: 0;
              }
              .trace:hover .trace-junction {
                filter: invert(1);
              }
              .text { font-family: sans-serif; fill: rgb(0, 150, 0); }
              .pin-number { fill: rgb(169, 0, 0); }
              .port-label { fill: rgb(0, 100, 100); }
              .component-name { fill: rgb(0, 100, 100); }
            </style><rect class="boundary" x="0" y="0" width="1200" height="600"/><g data-circuit-json-type="schematic_component" data-schematic-component-id="schematic_component_0"><rect class="component chip" x="453.98352843903996" y="139.79720614475" width="39.166195221720045" height="97.9154880543" stroke-width="1.958309761086px" fill="rgb(255, 255, 194)" stroke="rgb(132, 0, 0)"/><rect class="component-overlay" x="453.98352843903996" y="139.79720614475" width="39.166195221720045" height="97.9154880543" fill="transparent"/><text x="453.98352843903996" y="250.441707646109" fill="#006464" text-anchor="start" dominant-baseline="middle" font-family="sans-serif" font-size="17.624787849774px" transform="rotate(0, 453.98352843903996, 250.441707646109)"></text><text x="453.98352843903996" y="127.06819269769099" fill="#006464" text-anchor="start" dominant-baseline="middle" font-family="sans-serif" font-size="17.624787849774px" transform="rotate(0, 453.98352843903996, 127.06819269769099)">U1</text><line class="component-pin" x1="530.357609121394" y1="159.38030375561" x2="493.14972366076" y2="159.38030375561" stroke-width="1.958309761086px"/><g data-schematic-port-id="source_port_0"><rect x="530.357609121394" y="157.42199399452397" width="3.916619522172" height="3.916619522172" opacity="0"/></g><text class="pin-number" x="512.73282127162" y="157.42199399452397" style="font-family: sans-serif;" fill="rgb(169, 0, 0)" text-anchor="middle" dominant-baseline="auto" font-size="14.687323208145px" transform="">4</text><line class="component-pin" x1="530.357609121394" y1="178.96340136647" x2="493.14972366076" y2="178.96340136647" stroke-width="1.958309761086px"/><g data-schematic-port-id="source_port_1"><rect x="530.357609121394" y="177.005091605384" width="3.916619522172" height="3.916619522172" opacity="0"/></g><text class="pin-number" x="512.73282127162" y="177.005091605384" style="font-family: sans-serif;" fill="rgb(169, 0, 0)" text-anchor="middle" dominant-baseline="auto" font-size="14.687323208145px" transform="">1</text><line class="component-pin" x1="530.357609121394" y1="198.54649897733" x2="493.14972366076" y2="198.54649897733" stroke-width="1.958309761086px"/><g data-schematic-port-id="source_port_2"><rect x="530.357609121394" y="196.588189216244" width="3.916619522172" height="3.916619522172" opacity="0"/></g><text class="pin-number" x="512.73282127162" y="196.588189216244" style="font-family: sans-serif;" fill="rgb(169, 0, 0)" text-anchor="middle" dominant-baseline="auto" font-size="14.687323208145px" transform="">2</text><line class="component-pin" x1="530.357609121394" y1="218.12959658819" x2="493.14972366076" y2="218.12959658819" stroke-width="1.958309761086px"/><g data-schematic-port-id="source_port_3"><rect x="530.357609121394" y="216.17128682710398" width="3.916619522172" height="3.916619522172" opacity="0"/></g><text class="pin-number" x="512.73282127162" y="216.17128682710398" style="font-family: sans-serif;" fill="rgb(169, 0, 0)" text-anchor="middle" dominant-baseline="auto" font-size="14.687323208145px" transform="">3</text></g><g data-circuit-json-type="schematic_component" data-schematic-component-id="schematic_component_1"><rect class="component-overlay" x="577.807895252204" y="226.43158155272204" width="103.62722159361795" height="51.81360590103452" fill="transparent"/><path d="M 681.435116845822 252.33838450323913 L 637.3935528090974 252.33838450323913" stroke="rgb(132, 0, 0)" fill="none" stroke-width="1.958309761086px" stroke-linecap="round"/><path d="M 621.8494690804773 252.33838450323913 L 577.807895252204 252.33838450323913" stroke="rgb(132, 0, 0)" fill="none" stroke-width="1.958309761086px" stroke-linecap="round"/><path d="M 637.3935528090974 226.43158155272204 L 637.3935528090974 278.24518745375656" stroke="rgb(132, 0, 0)" fill="none" stroke-width="1.958309761086px" stroke-linecap="round"/><path d="M 621.8494690804773 226.43158155272204 L 621.8494690804773 278.24518745375656" stroke="rgb(132, 0, 0)" fill="none" stroke-width="1.958309761086px" stroke-linecap="round"/><text x="628.9717731407054" y="212.9582274872783" fill="rgb(15, 15, 15)" font-family="sans-serif" text-anchor="middle" dominant-baseline="auto" font-size="17.624787849774px">C2</text><text x="629.8543833500269" y="295.103098070834" fill="rgb(15, 15, 15)" font-family="sans-serif" text-anchor="middle" dominant-baseline="hanging" font-size="17.624787849774px">10F</text></g><g data-circuit-json-type="schematic_component" data-schematic-component-id="schematic_component_2"><rect class="component-overlay" x="544.4813850830425" y="284.10892499672985" width="10.072223551937554" height="103.35170699333071" fill="transparent"/><path d="M 554.2320345891121 355.2147118020663 L 553.7587639184467 355.458476326197 L 553.2869082310025 355.7022408503277 L 552.8178737861584 355.9460053744584 L 552.3530494493948 356.1897698985891 L 551.8937981294755 356.4335344227198 L 551.4414483756624 356.6772989468505 L 550.9972861867674 356.9210634709812 L 550.5625470825419 357.1648279951119 L 550.1384084862868 357.40859251924263 L 549.7259824656466 357.65235704337334 L 549.3263088763421 357.896121567504 L 548.9403489511141 358.1398860916347 L 548.5689793734045 358.3836506157654 L 548.2129868723109 358.62741513989613 L 547.8730633721399 358.87117966402684 L 547.5498017264642 359.11494418815755 L 547.2436920629827 359.35870871228826 L 546.9551187617208 359.6024732364189 L 546.6843580851988 359.8462377605496 L 546.4315764751829 360.09000228468034 L 546.1968295265149 360.33376680881105 L 545.9800616443529 360.57753133294176 L 545.7811063869309 360.82129585707247 L 545.5996874917283 361.0650603812032 L 545.4354205787201 361.30882490533384 L 545.2878155202071 361.55258942946455 L 545.1562794626168 361.79635395359526 L 545.0401204816424 362.04011847772597 L 544.9385518481863 362.2838830018567 L 544.850696878807 362.5276475259874 L 544.7755943407632 362.7714120501181 L 544.7122043783343 363.0151765742488 L 544.6594149238758 363.25894109837947 L 544.6160485540869 363.5027056225102 L 544.580869749216 363.7464701466409 L 544.5525925104513 363.9902346707716 L 544.5298882885311 364.2339991949023 L 544.5113941746912 364.477763719033 L 544.4957213034514 364.72152824316373 L 544.4814634154328 364.9652927672944 L 544.4957213034514 365.2090570466364 L 544.5113941746912 365.4528213259784 L 544.5298882885311 365.69658560532037 L 544.5525925104513 365.94034988466234 L 544.580869749216 366.1841141640043 L 544.6160485540869 366.4278784433463 L 544.6594149238758 366.67164272268826 L 544.7122043783343 366.9154070020303 L 544.7755943407632 367.15917128137227 L 544.850696878807 367.40293556071424 L 544.9385518481863 367.6466998400562 L 545.0401204816424 367.8904641193982 L 545.1562794626168 368.13422839874016 L 545.2878155202071 368.37799267808214 L 545.4354205787201 368.6217569574241 L 545.5996874917283 368.8655212367661 L 545.7811063869309 369.1092855161081 L 545.9800616443529 369.3530497954501 L 546.1968295265149 369.59681407479206 L 546.4315764751829 369.84057835413404 L 546.6843580851988 370.084342633476 L 546.9551187617208 370.328106912818 L 547.2436920629827 370.57187119215996 L 547.5498017264642 370.81563547150193 L 547.8730633721399 371.0593997508439 L 548.2129868723109 371.30316403018594 L 548.5689793734045 371.5469283095279 L 548.9403489511141 371.7906925888699 L 549.3263088763421 372.03445686821186 L 549.7259824656466 372.27822114755384 L 550.1384084862868 372.5219854268958 L 550.5625470825419 372.7657497062378 L 550.9972861867674 373.00951398557976 L 551.4414483756624 373.25327826492173 L 551.8937981294755 373.49704254426376 L 552.3530494493948 373.74080682360574 L 552.8178737861584 373.9845711029477 L 553.2869082310025 374.2283353822897 L 553.7587639184467 374.47209966163166 L 554.2320345891121 374.71586394097363" stroke="rgb(132, 0, 0)" fill="none" stroke-width="1.958309761086px" stroke-linecap="round"/><path d="M 554.2319660482705 335.71356945470774 L 553.7586951328165 335.9573337340497 L 553.2868392005835 336.2010980133917 L 552.8178045109506 336.44486229273366 L 552.3529799293983 336.68862657207563 L 551.8937283646903 336.9323908514176 L 551.4413783660884 337.17615513075964 L 550.9972159324047 337.4199194101016 L 550.5624765833905 337.6636836894436 L 550.1383377423467 337.90744796878556 L 549.7259114769179 338.15121224812754 L 549.3262376428245 338.3949765274695 L 548.9402774728079 338.6387408068115 L 548.5689076503096 338.88250508615346 L 548.2129149044273 339.12626936549543 L 547.8729911594676 339.3700336448374 L 547.5497292690031 339.61379792417944 L 547.243619360733 339.8575622035214 L 546.9550458146822 340.1013264828634 L 546.6842848933716 340.34509076220536 L 546.4315030385668 340.58885504154733 L 546.1967558451101 340.8326193208893 L 545.9799877181595 341.0763836002313 L 545.7810322159487 341.32014787957326 L 545.5996130759576 341.56391215891523 L 545.4353459181606 341.80767643825726 L 545.2877406148589 342.05144071759923 L 545.1562043124798 342.2952049969412 L 545.0400450867166 342.5389692762832 L 544.9384762084719 342.78273355562516 L 544.8506209943038 343.02649783496713 L 544.7755182114713 343.2702621143091 L 544.7121280042537 343.5140263936511 L 544.6593383050065 343.75779067299305 L 544.6159716904289 344.0015549523351 L 544.5807926407692 344.24531923167706 L 544.5525151572158 344.48908351101903 L 544.5298106905068 344.732847790361 L 544.5113163318782 344.976612069703 L 544.4956432158498 345.22037634904495 L 544.4813850830425 345.46414062838693 L 544.4956432158498 345.70790515251764 L 544.5113163318782 345.95166967664835 L 544.5298106905068 346.19543420077906 L 544.5525151572158 346.4391987249098 L 544.5807926407692 346.6829632490405 L 544.6159716904289 346.92672777317114 L 544.6593383050065 347.17049229730185 L 544.7121280042537 347.41425682143256 L 544.7755182114713 347.65802134556327 L 544.8506209943038 347.901785869694 L 544.9384762084719 348.1455503938247 L 545.0400450867166 348.3893149179554 L 545.1562043124798 348.63307944208606 L 545.2877406148589 348.87684396621677 L 545.4353459181606 349.1206084903475 L 545.5996130759576 349.3643730144782 L 545.7810322159487 349.6081375386089 L 545.9799877181595 349.8519020627396 L 546.1967558451101 350.0956665868703 L 546.4315030385668 350.33943111100103 L 546.6842848933716 350.5831956351317 L 546.9550458146822 350.8269601592624 L 547.243619360733 351.0707246833931 L 547.5497292690031 351.3144892075238 L 547.8729911594676 351.55825373165453 L 548.2129149044273 351.80201825578524 L 548.5689076503096 352.04578277991595 L 548.9402774728079 352.2895473040466 L 549.3262376428245 352.5333118281773 L 549.7259114769179 352.77707635230803 L 550.1383377423467 353.02084087643874 L 550.5624765833905 353.26460540056945 L 550.9972159324047 353.50836992470016 L 551.4413783660884 353.7521344488309 L 551.8937283646902 353.9958989729615 L 552.3529799293983 354.23966349709224 L 552.8178045109506 354.48342802122295 L 553.2868392005835 354.72719254535366 L 553.7586951328165 354.97095706948437 L 554.2319660482705 355.2147215936151" stroke="rgb(132, 0, 0)" fill="none" stroke-width="1.958309761086px" stroke-linecap="round"/><path d="M 554.2319660482705 316.2124173158004 L 553.7586951328165 316.4561818399311 L 553.2868392005835 316.6999463640618 L 552.8178045109506 316.94371088819247 L 552.3529799293983 317.1874754123232 L 551.8937283646903 317.4312399364539 L 551.4413783660884 317.6750044605846 L 550.9972159324047 317.9187689847153 L 550.5624765833905 318.162533508846 L 550.1383377423467 318.40629803297674 L 549.7259114769179 318.6500625571074 L 549.3262376428245 318.8938270812381 L 548.9402774728079 319.1375916053688 L 548.5689076503096 319.3813561294995 L 548.2129149044273 319.62512065363023 L 547.8729911594676 319.86888517776094 L 547.5497292690031 320.11264970189166 L 547.243619360733 320.35641422602237 L 546.9550458146822 320.600178750153 L 546.6842848933716 320.84394327428373 L 546.4315030385668 321.08770779841444 L 546.1967558451101 321.33147232254515 L 545.9799877181595 321.57523684667586 L 545.7810322159487 321.8190013708066 L 545.5996130759576 322.0627658949373 L 545.4353459181606 322.30653041906794 L 545.2877406148589 322.55029494319865 L 545.1562043124798 322.79405946732936 L 545.0400450867166 323.0378239914601 L 544.9384762084719 323.2815885155908 L 544.8506209943038 323.5253530397215 L 544.7755182114713 323.7691175638522 L 544.7121280042537 324.0128820879829 L 544.6593383050065 324.25664661211357 L 544.6159716904289 324.5004111362443 L 544.5807926407692 324.744175660375 L 544.5525151572158 324.9879401845057 L 544.5298106905068 325.2317047086364 L 544.5113163318782 325.4754692327671 L 544.4956432158498 325.71923375689784 L 544.4813850830425 325.9629982810285 L 544.4956432158498 326.2067625603705 L 544.5113163318782 326.4505268397125 L 544.5298106905068 326.69429111905447 L 544.5525151572158 326.93805539839644 L 544.5807926407692 327.1818196777384 L 544.6159716904289 327.4255839570804 L 544.6593383050065 327.66934823642237 L 544.7121280042537 327.91311251576434 L 544.7755182114713 328.1568767951063 L 544.8506209943038 328.40064107444834 L 544.9384762084719 328.6444053537903 L 545.0400450867166 328.8881696331323 L 545.1562043124798 329.13193391247427 L 545.2877406148589 329.37569819181624 L 545.4353459181606 329.6194624711582 L 545.5996130759576 329.8632267505002 L 545.7810322159487 330.10699102984216 L 545.9799877181595 330.35075530918414 L 546.1967558451101 330.59451958852617 L 546.4315030385668 330.83828386786814 L 546.6842848933716 331.0820481472101 L 546.9550458146822 331.3258124265521 L 547.243619360733 331.56957670589406 L 547.5497292690031 331.81334098523604 L 547.8729911594676 332.057105264578 L 548.2129149044273 332.30086954392 L 548.5689076503096 332.54463382326196 L 548.9402774728079 332.788398102604 L 549.3262376428245 333.03216238194597 L 549.7259114769179 333.27592666128794 L 550.1383377423467 333.5196909406299 L 550.5624765833905 333.7634552199719 L 550.9972159324047 334.00721949931386 L 551.4413783660884 334.25098377865584 L 551.8937283646903 334.4947480579978 L 552.3529799293983 334.7385123373398 L 552.8178045109506 334.9822766166818 L 553.2868392005835 335.2260408960238 L 553.7586951328165 335.46980517536576 L 554.2319660482705 335.71356945470774" stroke="rgb(132, 0, 0)" fill="none" stroke-width="1.958309761086px" stroke-linecap="round"/><path d="M 554.2319660482705 296.71127496844184 L 553.7586951328165 296.9550392477838 L 553.2868392005835 297.1988035271258 L 552.8178045109506 297.44256780646776 L 552.3529799293983 297.68633208580974 L 551.8937283646903 297.9300963651517 L 551.4413783660884 298.17386064449374 L 550.9972159324047 298.4176249238357 L 550.5624765833905 298.6613892031777 L 550.1383377423467 298.90515348251967 L 549.7259114769179 299.14891776186164 L 549.3262376428245 299.3926820412036 L 548.9402774728079 299.6364463205456 L 548.5689076503096 299.88021059988756 L 548.2129149044273 300.12397487922954 L 547.8729911594676 300.36773915857157 L 547.5497292690031 300.61150343791354 L 547.243619360733 300.8552677172555 L 546.9550458146822 301.0990319965975 L 546.6842848933716 301.34279627593946 L 546.4315030385668 301.58656055528144 L 546.1967558451101 301.8303248346234 L 545.9799877181595 302.0740891139654 L 545.7810322159487 302.31785339330736 L 545.5996130759576 302.56161767264933 L 545.4353459181606 302.8053819519913 L 545.2877406148589 303.04914623133334 L 545.1562043124798 303.2929105106753 L 545.0400450867166 303.5366747900173 L 544.9384762084719 303.78043906935926 L 544.8506209943038 304.02420334870123 L 544.7755182114713 304.2679676280432 L 544.7121280042537 304.5117319073852 L 544.6593383050065 304.75549618672716 L 544.6159716904289 304.9992604660692 L 544.5807926407692 305.24302474541116 L 544.5525151572158 305.48678902475314 L 544.5298106905068 305.7305533040951 L 544.5113163318782 305.9743175834371 L 544.4956432158498 306.21808186277906 L 544.4813850830425 306.46184614212103 L 544.4956432158498 306.70561066625174 L 544.5113163318782 306.94937519038245 L 544.5298106905068 307.19313971451317 L 544.5525151572158 307.4369042386439 L 544.5807926407692 307.68066876277453 L 544.6159716904289 307.92443328690524 L 544.6593383050065 308.16819781103595 L 544.7121280042537 308.41196233516666 L 544.7755182114713 308.6557268592974 L 544.8506209943038 308.8994913834281 L 544.9384762084719 309.1432559075588 L 545.0400450867166 309.3870204316895 L 545.1562043124798 309.63078495582016 L 545.2877406148589 309.8745494799509 L 545.4353459181606 310.1183140040816 L 545.5996130759576 310.3620785282123 L 545.7810322159487 310.605843052343 L 545.9799877181595 310.8496075764737 L 546.1967558451101 311.0933721006044 L 546.4315030385668 311.3371366247351 L 546.6842848933716 311.5809011488658 L 546.9550458146822 311.8246656729965 L 547.243619360733 312.0684301971272 L 547.5497292690031 312.3121947212579 L 547.8729911594676 312.55595924538864 L 548.2129149044273 312.79972376951935 L 548.5689076503096 313.04348829365006 L 548.9402774728079 313.2872528177807 L 549.3262376428245 313.5310173419114 L 549.7259114769179 313.77478186604213 L 550.1383377423467 314.01854639017284 L 550.5624765833905 314.26231091430355 L 550.9972159324047 314.50607543843427 L 551.4413783660884 314.749839962565 L 551.8937283646903 314.99360448669563 L 552.3529799293983 315.23736901082634 L 552.8178045109506 315.48113353495705 L 553.2868392005835 315.72489805908776 L 553.7586951328165 315.9686625832185 L 554.2319660482705 316.2124271073492" stroke="rgb(132, 0, 0)" fill="none" stroke-width="1.958309761086px" stroke-linecap="round"/><path d="M 554.1064286010361 375.0223883763276 L 554.1064286010361 387.46063199006056" stroke="rgb(132, 0, 0)" fill="none" stroke-width="1.958309761086px" stroke-linecap="round"/><path d="M 554.55360863498 284.10892499672985 L 554.55360863498 296.5471686104629" stroke="rgb(132, 0, 0)" fill="none" stroke-width="1.958309761086px" stroke-linecap="round"/><text x="529.3810347631868" y="336.0278879629108" fill="rgb(15, 15, 15)" font-family="sans-serif" text-anchor="end" dominant-baseline="middle" font-size="17.624787849774px">L2</text><text x="574.4169982234934" y="336.0445928636198" fill="rgb(15, 15, 15)" font-family="sans-serif" text-anchor="start" dominant-baseline="middle" font-size="17.624787849774px">4.7kH</text></g><g data-circuit-json-type="schematic_component" data-schematic-component-id="schematic_component_3"><rect class="component-overlay" x="691.3546171644924" y="284.10892499672985" width="10.072223551937554" height="103.35170699333071" fill="transparent"/><path d="M 701.1052666705621 355.2147118020663 L 700.6319959998966 355.458476326197 L 700.1601403124524 355.7022408503277 L 699.6911058676084 355.9460053744584 L 699.2262815308447 356.1897698985891 L 698.7670302109254 356.4335344227198 L 698.3146804571123 356.6772989468505 L 697.8705182682173 356.9210634709812 L 697.4357791639918 357.1648279951119 L 697.0116405677368 357.40859251924263 L 696.5992145470965 357.65235704337334 L 696.199540957792 357.896121567504 L 695.813581032564 358.1398860916347 L 695.4422114548545 358.3836506157654 L 695.0862189537609 358.62741513989613 L 694.7462954535898 358.87117966402684 L 694.4230338079142 359.11494418815755 L 694.1169241444327 359.35870871228826 L 693.8283508431707 359.6024732364189 L 693.5575901666488 359.8462377605496 L 693.3048085566328 360.09000228468034 L 693.0700616079648 360.33376680881105 L 692.8532937258028 360.57753133294176 L 692.6543384683808 360.82129585707247 L 692.4729195731783 361.0650603812032 L 692.3086526601701 361.30882490533384 L 692.1610476016571 361.55258942946455 L 692.0295115440667 361.79635395359526 L 691.9133525630923 362.04011847772597 L 691.8117839296362 362.2838830018567 L 691.7239289602569 362.5276475259874 L 691.6488264222131 362.7714120501181 L 691.5854364597842 363.0151765742488 L 691.5326470053258 363.25894109837947 L 691.4892806355368 363.5027056225102 L 691.454101830666 363.7464701466409 L 691.4258245919012 363.9902346707716 L 691.403120369981 364.2339991949023 L 691.3846262561411 364.477763719033 L 691.3689533849014 364.72152824316373 L 691.3546954968828 364.9652927672944 L 691.3689533849014 365.2090570466364 L 691.3846262561411 365.4528213259784 L 691.403120369981 365.69658560532037 L 691.4258245919012 365.94034988466234 L 691.454101830666 366.1841141640043 L 691.4892806355368 366.4278784433463 L 691.5326470053258 366.67164272268826 L 691.5854364597842 366.9154070020303 L 691.6488264222131 367.15917128137227 L 691.7239289602569 367.40293556071424 L 691.8117839296362 367.6466998400562 L 691.9133525630923 367.8904641193982 L 692.0295115440667 368.13422839874016 L 692.1610476016571 368.37799267808214 L 692.3086526601701 368.6217569574241 L 692.4729195731783 368.8655212367661 L 692.6543384683808 369.1092855161081 L 692.8532937258028 369.3530497954501 L 693.0700616079648 369.59681407479206 L 693.3048085566328 369.84057835413404 L 693.5575901666488 370.084342633476 L 693.8283508431707 370.328106912818 L 694.1169241444327 370.57187119215996 L 694.4230338079142 370.81563547150193 L 694.7462954535898 371.0593997508439 L 695.0862189537609 371.30316403018594 L 695.4422114548545 371.5469283095279 L 695.813581032564 371.7906925888699 L 696.199540957792 372.03445686821186 L 696.5992145470965 372.27822114755384 L 697.0116405677368 372.5219854268958 L 697.4357791639918 372.7657497062378 L 697.8705182682173 373.00951398557976 L 698.3146804571123 373.25327826492173 L 698.7670302109254 373.49704254426376 L 699.2262815308447 373.74080682360574 L 699.6911058676084 373.9845711029477 L 700.1601403124524 374.2283353822897 L 700.6319959998966 374.47209966163166 L 701.1052666705621 374.71586394097363" stroke="rgb(132, 0, 0)" fill="none" stroke-width="1.958309761086px" stroke-linecap="round"/><path d="M 701.1051981297204 335.71356945470774 L 700.6319272142664 335.9573337340497 L 700.1600712820334 336.2010980133917 L 699.6910365924006 336.44486229273366 L 699.2262120108483 336.68862657207563 L 698.7669604461403 336.9323908514176 L 698.3146104475384 337.17615513075964 L 697.8704480138547 337.4199194101016 L 697.4357086648405 337.6636836894436 L 697.0115698237967 337.90744796878556 L 696.5991435583678 338.15121224812754 L 696.1994697242744 338.3949765274695 L 695.8135095542578 338.6387408068115 L 695.4421397317595 338.88250508615346 L 695.0861469858772 339.12626936549543 L 694.7462232409175 339.3700336448374 L 694.4229613504531 339.61379792417944 L 694.1168514421829 339.8575622035214 L 693.8282778961321 340.1013264828634 L 693.5575169748215 340.34509076220536 L 693.3047351200167 340.58885504154733 L 693.0699879265601 340.8326193208893 L 692.8532197996094 341.0763836002313 L 692.6542642973986 341.32014787957326 L 692.4728451574075 341.56391215891523 L 692.3085779996105 341.80767643825726 L 692.1609726963088 342.05144071759923 L 692.0294363939297 342.2952049969412 L 691.9132771681666 342.5389692762832 L 691.8117082899219 342.78273355562516 L 691.7238530757537 343.02649783496713 L 691.6487502929212 343.2702621143091 L 691.5853600857037 343.5140263936511 L 691.5325703864564 343.75779067299305 L 691.4892037718788 344.0015549523351 L 691.4540247222192 344.24531923167706 L 691.4257472386657 344.48908351101903 L 691.4030427719567 344.732847790361 L 691.3845484133282 344.976612069703 L 691.3688752972997 345.22037634904495 L 691.3546171644924 345.46414062838693 L 691.3688752972997 345.70790515251764 L 691.3845484133282 345.95166967664835 L 691.4030427719567 346.19543420077906 L 691.4257472386657 346.4391987249098 L 691.4540247222192 346.6829632490405 L 691.4892037718788 346.92672777317114 L 691.5325703864564 347.17049229730185 L 691.5853600857037 347.41425682143256 L 691.6487502929212 347.65802134556327 L 691.7238530757537 347.901785869694 L 691.8117082899219 348.1455503938247 L 691.9132771681666 348.3893149179554 L 692.0294363939297 348.63307944208606 L 692.1609726963088 348.87684396621677 L 692.3085779996105 349.1206084903475 L 692.4728451574075 349.3643730144782 L 692.6542642973986 349.6081375386089 L 692.8532197996094 349.8519020627396 L 693.0699879265601 350.0956665868703 L 693.3047351200167 350.33943111100103 L 693.5575169748215 350.5831956351317 L 693.8282778961321 350.8269601592624 L 694.1168514421829 351.0707246833931 L 694.4229613504531 351.3144892075238 L 694.7462232409175 351.55825373165453 L 695.0861469858772 351.80201825578524 L 695.4421397317595 352.04578277991595 L 695.8135095542578 352.2895473040466 L 696.1994697242744 352.5333118281773 L 696.5991435583678 352.77707635230803 L 697.0115698237967 353.02084087643874 L 697.4357086648405 353.26460540056945 L 697.8704480138547 353.50836992470016 L 698.3146104475384 353.7521344488309 L 698.7669604461402 353.9958989729615 L 699.2262120108483 354.23966349709224 L 699.6910365924006 354.48342802122295 L 700.1600712820334 354.72719254535366 L 700.6319272142664 354.97095706948437 L 701.1051981297204 355.2147215936151" stroke="rgb(132, 0, 0)" fill="none" stroke-width="1.958309761086px" stroke-linecap="round"/><path d="M 701.1051981297204 316.2124173158004 L 700.6319272142664 316.4561818399311 L 700.1600712820334 316.6999463640618 L 699.6910365924006 316.94371088819247 L 699.2262120108483 317.1874754123232 L 698.7669604461403 317.4312399364539 L 698.3146104475384 317.6750044605846 L 697.8704480138547 317.9187689847153 L 697.4357086648405 318.162533508846 L 697.0115698237967 318.40629803297674 L 696.5991435583678 318.6500625571074 L 696.1994697242744 318.8938270812381 L 695.8135095542578 319.1375916053688 L 695.4421397317595 319.3813561294995 L 695.0861469858772 319.62512065363023 L 694.7462232409175 319.86888517776094 L 694.4229613504531 320.11264970189166 L 694.1168514421829 320.35641422602237 L 693.8282778961321 320.600178750153 L 693.5575169748215 320.84394327428373 L 693.3047351200167 321.08770779841444 L 693.0699879265601 321.33147232254515 L 692.8532197996094 321.57523684667586 L 692.6542642973986 321.8190013708066 L 692.4728451574075 322.0627658949373 L 692.3085779996105 322.30653041906794 L 692.1609726963088 322.55029494319865 L 692.0294363939297 322.79405946732936 L 691.9132771681666 323.0378239914601 L 691.8117082899219 323.2815885155908 L 691.7238530757537 323.5253530397215 L 691.6487502929212 323.7691175638522 L 691.5853600857037 324.0128820879829 L 691.5325703864564 324.25664661211357 L 691.4892037718788 324.5004111362443 L 691.4540247222192 324.744175660375 L 691.4257472386657 324.9879401845057 L 691.4030427719567 325.2317047086364 L 691.3845484133282 325.4754692327671 L 691.3688752972997 325.71923375689784 L 691.3546171644924 325.9629982810285 L 691.3688752972997 326.2067625603705 L 691.3845484133282 326.4505268397125 L 691.4030427719567 326.69429111905447 L 691.4257472386657 326.93805539839644 L 691.4540247222192 327.1818196777384 L 691.4892037718788 327.4255839570804 L 691.5325703864564 327.66934823642237 L 691.5853600857037 327.91311251576434 L 691.6487502929212 328.1568767951063 L 691.7238530757537 328.40064107444834 L 691.8117082899219 328.6444053537903 L 691.9132771681666 328.8881696331323 L 692.0294363939297 329.13193391247427 L 692.1609726963088 329.37569819181624 L 692.3085779996105 329.6194624711582 L 692.4728451574075 329.8632267505002 L 692.6542642973986 330.10699102984216 L 692.8532197996094 330.35075530918414 L 693.0699879265601 330.59451958852617 L 693.3047351200167 330.83828386786814 L 693.5575169748215 331.0820481472101 L 693.8282778961321 331.3258124265521 L 694.1168514421829 331.56957670589406 L 694.4229613504531 331.81334098523604 L 694.7462232409175 332.057105264578 L 695.0861469858772 332.30086954392 L 695.4421397317595 332.54463382326196 L 695.8135095542578 332.788398102604 L 696.1994697242744 333.03216238194597 L 696.5991435583678 333.27592666128794 L 697.0115698237967 333.5196909406299 L 697.4357086648405 333.7634552199719 L 697.8704480138547 334.00721949931386 L 698.3146104475384 334.25098377865584 L 698.7669604461403 334.4947480579978 L 699.2262120108483 334.7385123373398 L 699.6910365924006 334.9822766166818 L 700.1600712820334 335.2260408960238 L 700.6319272142664 335.46980517536576 L 701.1051981297204 335.71356945470774" stroke="rgb(132, 0, 0)" fill="none" stroke-width="1.958309761086px" stroke-linecap="round"/><path d="M 701.1051981297204 296.71127496844184 L 700.6319272142664 296.9550392477838 L 700.1600712820334 297.1988035271258 L 699.6910365924006 297.44256780646776 L 699.2262120108483 297.68633208580974 L 698.7669604461403 297.9300963651517 L 698.3146104475384 298.17386064449374 L 697.8704480138547 298.4176249238357 L 697.4357086648405 298.6613892031777 L 697.0115698237967 298.90515348251967 L 696.5991435583678 299.14891776186164 L 696.1994697242744 299.3926820412036 L 695.8135095542578 299.6364463205456 L 695.4421397317595 299.88021059988756 L 695.0861469858772 300.12397487922954 L 694.7462232409175 300.36773915857157 L 694.4229613504531 300.61150343791354 L 694.1168514421829 300.8552677172555 L 693.8282778961321 301.0990319965975 L 693.5575169748215 301.34279627593946 L 693.3047351200167 301.58656055528144 L 693.0699879265601 301.8303248346234 L 692.8532197996094 302.0740891139654 L 692.6542642973986 302.31785339330736 L 692.4728451574075 302.56161767264933 L 692.3085779996105 302.8053819519913 L 692.1609726963088 303.04914623133334 L 692.0294363939297 303.2929105106753 L 691.9132771681666 303.5366747900173 L 691.8117082899219 303.78043906935926 L 691.7238530757537 304.02420334870123 L 691.6487502929212 304.2679676280432 L 691.5853600857037 304.5117319073852 L 691.5325703864564 304.75549618672716 L 691.4892037718788 304.9992604660692 L 691.4540247222192 305.24302474541116 L 691.4257472386657 305.48678902475314 L 691.4030427719567 305.7305533040951 L 691.3845484133282 305.9743175834371 L 691.3688752972997 306.21808186277906 L 691.3546171644924 306.46184614212103 L 691.3688752972997 306.70561066625174 L 691.3845484133282 306.94937519038245 L 691.4030427719567 307.19313971451317 L 691.4257472386657 307.4369042386439 L 691.4540247222192 307.68066876277453 L 691.4892037718788 307.92443328690524 L 691.5325703864564 308.16819781103595 L 691.5853600857037 308.41196233516666 L 691.6487502929212 308.6557268592974 L 691.7238530757537 308.8994913834281 L 691.8117082899219 309.1432559075588 L 691.9132771681666 309.3870204316895 L 692.0294363939297 309.63078495582016 L 692.1609726963088 309.8745494799509 L 692.3085779996105 310.1183140040816 L 692.4728451574075 310.3620785282123 L 692.6542642973986 310.605843052343 L 692.8532197996094 310.8496075764737 L 693.0699879265601 311.0933721006044 L 693.3047351200167 311.3371366247351 L 693.5575169748215 311.5809011488658 L 693.8282778961321 311.8246656729965 L 694.1168514421829 312.0684301971272 L 694.4229613504531 312.3121947212579 L 694.7462232409175 312.55595924538864 L 695.0861469858772 312.79972376951935 L 695.4421397317595 313.04348829365006 L 695.8135095542578 313.2872528177807 L 696.1994697242744 313.5310173419114 L 696.5991435583678 313.77478186604213 L 697.0115698237967 314.01854639017284 L 697.4357086648405 314.26231091430355 L 697.8704480138547 314.50607543843427 L 698.3146104475384 314.749839962565 L 698.7669604461403 314.99360448669563 L 699.2262120108483 315.23736901082634 L 699.6910365924006 315.48113353495705 L 700.1600712820334 315.72489805908776 L 700.6319272142664 315.9686625832185 L 701.1051981297204 316.2124271073492" stroke="rgb(132, 0, 0)" fill="none" stroke-width="1.958309761086px" stroke-linecap="round"/><path d="M 700.979660682486 375.0223883763276 L 700.979660682486 387.46063199006056" stroke="rgb(132, 0, 0)" fill="none" stroke-width="1.958309761086px" stroke-linecap="round"/><path d="M 701.42684071643 284.10892499672985 L 701.42684071643 296.5471686104629" stroke="rgb(132, 0, 0)" fill="none" stroke-width="1.958309761086px" stroke-linecap="round"/><text x="676.2542668446367" y="336.0278879629108" fill="rgb(15, 15, 15)" font-family="sans-serif" text-anchor="end" dominant-baseline="middle" font-size="17.624787849774px">L1</text><text x="721.2902303049433" y="336.0445928636198" fill="rgb(15, 15, 15)" font-family="sans-serif" text-anchor="start" dominant-baseline="middle" font-size="17.624787849774px">4.7kH</text></g><g data-circuit-json-type="schematic_component" data-schematic-component-id="schematic_component_4"><rect class="component chip" x="534.274228643566" y="511.87606075109" width="58.74929283258007" height="39.166195221720045" stroke-width="1.958309761086px" fill="rgb(255, 255, 194)" stroke="rgb(132, 0, 0)"/><rect class="component-overlay" x="534.274228643566" y="511.87606075109" width="58.74929283258007" height="39.166195221720045" fill="transparent"/><text x="602.815070281576" y="477.60563993208496" fill="#006464" text-anchor="start" dominant-baseline="middle" font-family="sans-serif" font-size="17.624787849774px" transform="rotate(0, 602.815070281576, 477.60563993208496)"></text><text x="602.815070281576" y="458.02254232122493" fill="#006464" text-anchor="start" dominant-baseline="middle" font-family="sans-serif" font-size="17.624787849774px" transform="rotate(0, 602.815070281576, 458.02254232122493)">JP2</text><line class="component-pin" x1="553.857326254426" y1="474.668175290456" x2="553.857326254426" y2="511.87606075109" stroke-width="1.958309761086px"/><g data-schematic-port-id="source_port_10"><rect x="551.89901649334" y="470.75155576828394" width="3.916619522172" height="3.916619522172" opacity="0"/></g><text class="pin-number" x="551.89901649334" y="492.29296314023" style="font-family: sans-serif;" fill="rgb(169, 0, 0)" text-anchor="middle" dominant-baseline="auto" font-size="14.687323208145px" transform="rotate(-90 551.89901649334 492.29296314023)">1</text><line class="component-pin" x1="573.440423865286" y1="474.668175290456" x2="573.440423865286" y2="511.87606075109" stroke-width="1.958309761086px"/><g data-schematic-port-id="source_port_11"><rect x="571.4821141042" y="470.75155576828394" width="3.916619522172" height="3.916619522172" opacity="0"/></g><text class="pin-number" x="571.4821141042" y="492.29296314023" style="font-family: sans-serif;" fill="rgb(169, 0, 0)" text-anchor="middle" dominant-baseline="auto" font-size="14.687323208145px" transform="rotate(-90 571.4821141042 492.29296314023)">2</text></g><g data-circuit-json-type="schematic_component" data-schematic-component-id="schematic_component_5"><rect class="component-overlay" x="463.77507724446997" y="433.54367030765" width="29.374646416290034" height="19.583097610860023" fill="transparent"/><path d="M 493.14972366076 443.33521911308003 L 473.5666260499 443.33521911308003" stroke="rgb(132, 0, 0)" fill="none" stroke-width="1.958309761086px" stroke-linecap="round"/><path d="M 463.77507724446997 453.12676791851004 L 468.023471051922 452.15709975531956 L 471.43041836267736 449.4401499376677 L 473.3211314783743 445.51404369814315 L 473.3211314783743 441.1563945280169 L 471.43041836267736 437.2302882884924 L 468.023471051922 434.5133384708405 L 463.77507724446997 433.54367030765" stroke="rgb(132, 0, 0)" fill="none" stroke-width="1.958309761086px" stroke-linecap="round"/><text x="461.32719004311247" y="443.33521911308003" fill="rgb(15, 15, 15)" font-family="sans-serif" text-anchor="end" dominant-baseline="middle" font-size="17.624787849774px">TP1</text></g><g data-circuit-json-type="schematic_component" data-schematic-component-id="schematic_component_6"><rect class="component-overlay" x="728.14689499108" y="433.54367030765" width="29.374646416290034" height="19.583097610860023" fill="transparent"/><path d="M 728.14689499108 443.33521911308003 L 747.72999260194 443.33521911308003" stroke="rgb(132, 0, 0)" fill="none" stroke-width="1.958309761086px" stroke-linecap="round"/><path d="M 757.52154140737 433.54367030765 L 753.2731475999179 434.5133384708405 L 749.8662002891626 437.2302882884924 L 747.9754871734657 441.1563945280169 L 747.9754871734657 445.51404369814315 L 749.8662002891626 449.4401499376677 L 753.2731475999179 452.15709975531956 L 757.52154140737 453.12676791851004" stroke="rgb(132, 0, 0)" fill="none" stroke-width="1.958309761086px" stroke-linecap="round"/><text x="759.9694286087275" y="443.33521911308003" fill="rgb(15, 15, 15)" font-family="sans-serif" text-anchor="start" dominant-baseline="middle" font-size="17.624787849774px">TP2</text></g><g class="trace" data-circuit-json-type="schematic_trace" data-schematic-trace-id="schematic_trace_0"><path d="M 532.31591888248 218.12959658819 L 536.7102749249531 218.12959658819 L 554.2876990948455 218.12959658819 L 554.2876990948455 252.4267826058546 L 571.8651232647378 252.4267826058546 L 576.2594793072109 252.4267826058546" class="trace-invisible-hover-outline" stroke="rgb(0, 150, 0)" fill="none" stroke-width="15.666478088688px" stroke-linecap="round" opacity="0" stroke-linejoin="round"/><path d="M 532.31591888248 218.12959658819 L 536.7102749249531 218.12959658819 L 554.2876990948455 218.12959658819 L 554.2876990948455 252.4267826058546 L 571.8651232647378 252.4267826058546 L 576.2594793072109 252.4267826058546" stroke="rgb(0, 150, 0)" fill="none" stroke-width="1.958309761086px" stroke-linecap="round" stroke-linejoin="round"/></g><g class="trace" data-circuit-json-type="schematic_trace" data-schematic-trace-id="schematic_trace_1"><path d="M 532.31591888248 198.54649897733 L 699.392076134736 198.54649897733 L 699.392076134736 252.3732522085354 L 684.2033345663491 252.3732522085354" class="trace-invisible-hover-outline" stroke="rgb(0, 150, 0)" fill="none" stroke-width="15.666478088688px" stroke-linecap="round" opacity="0" stroke-linejoin="round"/><path d="M 532.31591888248 198.54649897733 L 699.392076134736 198.54649897733 L 699.392076134736 252.3732522085354 L 684.2033345663491 252.3732522085354" stroke="rgb(0, 150, 0)" fill="none" stroke-width="1.958309761086px" stroke-linecap="round" stroke-linejoin="round"/></g><g class="trace" data-circuit-json-type="schematic_trace" data-schematic-trace-id="schematic_trace_2"><path d="M 532.31591888248 178.96340136647 L 747.72999260194 178.96340136647 L 747.72999260194 242.608468601765" class="trace-invisible-hover-outline" stroke="rgb(0, 150, 0)" fill="none" stroke-width="15.666478088688px" stroke-linecap="round" opacity="0" stroke-linejoin="round"/><path d="M 532.31591888248 178.96340136647 L 747.72999260194 178.96340136647 L 747.72999260194 242.608468601765" stroke="rgb(0, 150, 0)" fill="none" stroke-width="1.958309761086px" stroke-linecap="round" stroke-linejoin="round"/></g><g class="trace" data-circuit-json-type="schematic_trace" data-schematic-trace-id="schematic_trace_3"><path d="M 532.31591888248 159.38030375561 L 551.89901649334 159.38030375561 L 551.89901649334 100.63101092302999" class="trace-invisible-hover-outline" stroke="rgb(0, 150, 0)" fill="none" stroke-width="15.666478088688px" stroke-linecap="round" opacity="0" stroke-linejoin="round"/><path d="M 532.31591888248 159.38030375561 L 551.89901649334 159.38030375561 L 551.89901649334 100.63101092302999" stroke="rgb(0, 150, 0)" fill="none" stroke-width="1.958309761086px" stroke-linecap="round" stroke-linejoin="round"/></g><g class="trace" data-circuit-json-type="schematic_trace" data-schematic-trace-id="schematic_trace_4"><path d="M 576.2594793072109 252.4267826058546 L 554.4958580801256 252.4267826058546 L 554.4958580801256 281.7313019496001" class="trace-invisible-hover-outline" stroke="rgb(0, 150, 0)" fill="none" stroke-width="15.666478088688px" stroke-linecap="round" opacity="0" stroke-linejoin="round"/><path d="M 576.2594793072109 252.4267826058546 L 554.4958580801256 252.4267826058546 L 554.4958580801256 281.7313019496001" stroke="rgb(0, 150, 0)" fill="none" stroke-width="1.958309761086px" stroke-linecap="round" stroke-linejoin="round"/><circle cx="554.4958580801256" cy="252.4267826058546" r="2.937464641629" class="trace-junction" fill="rgb(0, 150, 0)"/></g><g class="trace" data-circuit-json-type="schematic_trace" data-schematic-trace-id="schematic_trace_5"><path d="M 684.2033345663491 252.3732522085354 L 701.3690901615755 252.3732522085354 L 701.3690901615755 281.7313019496001" class="trace-invisible-hover-outline" stroke="rgb(0, 150, 0)" fill="none" stroke-width="15.666478088688px" stroke-linecap="round" opacity="0" stroke-linejoin="round"/><path d="M 684.2033345663491 252.3732522085354 L 701.3690901615755 252.3732522085354 L 701.3690901615755 281.7313019496001" stroke="rgb(0, 150, 0)" fill="none" stroke-width="1.958309761086px" stroke-linecap="round" stroke-linejoin="round"/><circle cx="699.392076134736" cy="252.3732522085354" r="2.937464641629" class="trace-junction" fill="rgb(0, 150, 0)"/></g><g class="trace" data-circuit-json-type="schematic_trace" data-schematic-trace-id="schematic_trace_6"><path d="M 553.857326254426 472.70986552936995 L 553.857326254426 443.33521911308003 L 493.14972366076 443.33521911308003" class="trace-invisible-hover-outline" stroke="rgb(0, 150, 0)" fill="none" stroke-width="15.666478088688px" stroke-linecap="round" opacity="0" stroke-linejoin="round"/><path d="M 553.857326254426 472.70986552936995 L 553.857326254426 443.33521911308003 L 493.14972366076 443.33521911308003" stroke="rgb(0, 150, 0)" fill="none" stroke-width="1.958309761086px" stroke-linecap="round" stroke-linejoin="round"/></g><g class="trace" data-circuit-json-type="schematic_trace" data-schematic-trace-id="schematic_trace_7"><path d="M 553.857326254426 472.70986552936995 L 553.857326254426 431.1174640432349 L 553.9818898917798 431.1174640432349 L 553.9818898917798 389.5250625570999" class="trace-invisible-hover-outline" stroke="rgb(0, 150, 0)" fill="none" stroke-width="15.666478088688px" stroke-linecap="round" opacity="0" stroke-linejoin="round"/><path d="M 553.857326254426 472.70986552936995 L 553.857326254426 431.1174640432349 L 553.9818898917798 431.1174640432349 L 553.9818898917798 389.5250625570999" stroke="rgb(0, 150, 0)" fill="none" stroke-width="1.958309761086px" stroke-linecap="round" stroke-linejoin="round"/><circle cx="553.857326254426" cy="443.33521911308003" r="2.937464641629" class="trace-junction" fill="rgb(0, 150, 0)"/></g><g class="trace" data-circuit-json-type="schematic_trace" data-schematic-trace-id="schematic_trace_8"><path d="M 573.440423865286 472.70986552936995 L 573.440423865286 443.33521911308003 L 728.14689499108 443.33521911308003" class="trace-invisible-hover-outline" stroke="rgb(0, 150, 0)" fill="none" stroke-width="15.666478088688px" stroke-linecap="round" opacity="0" stroke-linejoin="round"/><path d="M 573.440423865286 472.70986552936995 L 573.440423865286 443.33521911308003 L 728.14689499108 443.33521911308003" stroke="rgb(0, 150, 0)" fill="none" stroke-width="1.958309761086px" stroke-linecap="round" stroke-linejoin="round"/></g><g class="trace" data-circuit-json-type="schematic_trace" data-schematic-trace-id="schematic_trace_9"><path d="M 573.440423865286 472.70986552936995 L 573.440423865286 431.1174640432349 L 700.8551219732298 431.1174640432349 L 700.8551219732298 389.5250625570999" class="trace-invisible-hover-outline" stroke="rgb(0, 150, 0)" fill="none" stroke-width="15.666478088688px" stroke-linecap="round" opacity="0" stroke-linejoin="round"/><path d="M 573.440423865286 472.70986552936995 L 573.440423865286 431.1174640432349 L 700.8551219732298 431.1174640432349 L 700.8551219732298 389.5250625570999" stroke="rgb(0, 150, 0)" fill="none" stroke-width="1.958309761086px" stroke-linecap="round" stroke-linejoin="round"/><circle cx="573.440423865286" cy="443.33521911308003" r="2.937464641629" class="trace-junction" fill="rgb(0, 150, 0)"/></g><g class="schematic-port-hover" data-schematic-port-id="source_port_0"><circle cx="532.31591888248" cy="159.38030375561" r="3.916619522172" fill="red" opacity="0"/></g><g class="schematic-port-hover" data-schematic-port-id="source_port_1"><circle cx="532.31591888248" cy="178.96340136647" r="3.916619522172" fill="red" opacity="0"/></g><g class="schematic-port-hover" data-schematic-port-id="source_port_2"><circle cx="532.31591888248" cy="198.54649897733" r="3.916619522172" fill="red" opacity="0"/></g><g class="schematic-port-hover" data-schematic-port-id="source_port_3"><circle cx="532.31591888248" cy="218.12959658819" r="3.916619522172" fill="red" opacity="0"/></g><g class="schematic-port-hover" data-schematic-port-id="source_port_4"><circle cx="576.2594793072109" cy="252.4267826058546" r="3.916619522172" fill="red" opacity="0"/></g><g class="schematic-port-hover" data-schematic-port-id="source_port_5"><circle cx="684.2033345663491" cy="252.3732522085354" r="3.916619522172" fill="red" opacity="0"/></g><g class="schematic-port-hover" data-schematic-port-id="source_port_6"><circle cx="553.9818898917798" cy="389.5250625570999" r="3.916619522172" fill="red" opacity="0"/></g><g class="schematic-port-hover" data-schematic-port-id="source_port_7"><circle cx="554.4958580801256" cy="281.7313019496001" r="3.916619522172" fill="red" opacity="0"/></g><g class="schematic-port-hover" data-schematic-port-id="source_port_8"><circle cx="700.8551219732298" cy="389.5250625570999" r="3.916619522172" fill="red" opacity="0"/></g><g class="schematic-port-hover" data-schematic-port-id="source_port_9"><circle cx="701.3690901615755" cy="281.7313019496001" r="3.916619522172" fill="red" opacity="0"/></g><g class="schematic-port-hover" data-schematic-port-id="source_port_10"><circle cx="553.857326254426" cy="472.70986552936995" r="3.916619522172" fill="red" opacity="0"/></g><g class="schematic-port-hover" data-schematic-port-id="source_port_11"><circle cx="573.440423865286" cy="472.70986552936995" r="3.916619522172" fill="red" opacity="0"/></g><g class="schematic-port-hover" data-schematic-port-id="source_port_12"><circle cx="493.14972366076" cy="443.33521911308003" r="3.916619522172" fill="red" opacity="0"/></g><g class="schematic-port-hover" data-schematic-port-id="source_port_13"><circle cx="728.14689499108" cy="443.33521911308003" r="3.916619522172" fill="red" opacity="0"/></g><rect class="component-overlay" x="725.1859306323179" y="242.50237717045815" width="43.99551438269248" height="47.33522564079743" fill="transparent"/><path d="M 747.6236367988154 242.50237717045815 L 747.6236367988154 274.77859241045644" stroke="rgb(132, 0, 0)" fill="none" stroke-width="1.958309761086px" stroke-linecap="round"/><path d="M 725.1859306323179 274.7753807824483 L 769.1814450150104 274.7753807824483" stroke="rgb(132, 0, 0)" fill="none" stroke-width="1.958309761086px" stroke-linecap="round"/><path d="M 730.6853736019852 282.30649179685196 L 763.6820020453429 282.30649179685196" stroke="rgb(132, 0, 0)" fill="none" stroke-width="1.958309761086px" stroke-linecap="round"/><path d="M 741.6842497497712 289.8376028112556 L 752.6831258975571 289.8376028112556" stroke="rgb(132, 0, 0)" fill="none" stroke-width="1.958309761086px" stroke-linecap="round"/><text x="745.5150071804684" y="301.306532050995" fill="rgb(15, 15, 15)" font-family="sans-serif" text-anchor="middle" dominant-baseline="hanging" font-size="17.624787849774px">GND</text><rect class="component-overlay" x="542.7551296836452" y="59.06506375387994" width="18.14173266895648" height="40.10245332694649" fill="transparent"/><path d="M 551.682682014033 59.06506375387994 L 542.7551296836452 77.77384459725673" stroke="rgb(132, 0, 0)" fill="none" stroke-width="1.958309761086px" stroke-linecap="round"/><path d="M 551.9693100222141 59.07481613649014 L 560.8968623526017 77.78364593761097" stroke="rgb(132, 0, 0)" fill="none" stroke-width="1.958309761086px" stroke-linecap="round"/><path d="M 551.785992645479 59.55872427000335 L 551.785992645479 99.16751708082643" stroke="rgb(132, 0, 0)" fill="none" stroke-width="1.958309761086px" stroke-linecap="round"/><text x="551.3480264589608" y="53.32709865531238" fill="rgb(15, 15, 15)" font-family="sans-serif" text-anchor="middle" dominant-baseline="ideographic" font-size="17.624787849774px">VCC</text></svg>