<svg xmlns="http://www.w3.org/2000/svg" width="1200" height="600" style="background-color: rgb(245, 241, 237)" data-real-to-screen-transform="matrix(128.1029378274,0,0,-128.1029378274,342.513094967,260.8175814165)" data-software-used-string="@tscircuit/core@0.0.586"><style>
              .boundary { fill: rgb(245, 241, 237); }
              .schematic-boundary { fill: none; stroke: #fff; }
              .component { fill: none; stroke: rgb(132, 0, 0); }
              .chip { fill: rgb(255, 255, 194); stroke: rgb(132, 0, 0); }
              .component-pin { fill: none; stroke: rgb(132, 0, 0); }
              .trace:hover {
                filter: invert(1);
              }
              .trace:hover .trace-crossing-outline {
                opacity: 0;
              }
              .trace:hover .trace-junction {
                filter: invert(1);
              }
              .text { font-family: sans-serif; fill: rgb(0, 150, 0); }
              .pin-number { fill: rgb(169, 0, 0); }
              .port-label { fill: rgb(0, 100, 100); }
              .component-name { fill: rgb(0, 100, 100); }
            </style><rect class="boundary" x="0" y="0" width="1200" height="600"/><g data-circuit-json-type="schematic_component" data-schematic-component-id="schematic_component_0"><rect class="component chip" x="316.89250740152" y="222.38670006828" width="51.24117513095996" height="76.86176269644" stroke-width="2.562058756548px" fill="rgb(255, 255, 194)" stroke="rgb(132, 0, 0)"/><rect class="component-overlay" x="316.89250740152" y="222.38670006828" width="51.24117513095996" height="76.86176269644" fill="transparent"/><text x="316.89250740152" y="315.901844682282" fill="#006464" text-anchor="start" dominant-baseline="middle" font-family="sans-serif" font-size="23.058528808932003px" transform="rotate(0, 316.89250740152, 315.901844682282)"></text><text x="316.89250740152" y="205.733318150718" fill="#006464" text-anchor="start" dominant-baseline="middle" font-family="sans-serif" font-size="23.058528808932003px" transform="rotate(0, 316.89250740152, 205.733318150718)">U1</text><line class="component-pin" x1="416.812798906892" y1="248.00728763376" x2="368.13368253248" y2="248.00728763376" stroke-width="2.562058756548px"/><g data-schematic-port-id="source_port_0"><rect x="416.812798906892" y="245.445228877212" width="5.124117513096" height="5.124117513096" opacity="0"/></g><text class="pin-number" x="393.75427009796" y="245.445228877212" style="font-family: sans-serif;" fill="rgb(169, 0, 0)" text-anchor="middle" dominant-baseline="auto" font-size="19.215440674110003px" transform="">3</text><line class="component-pin" x1="416.812798906892" y1="273.62787519924" x2="368.13368253248" y2="273.62787519924" stroke-width="2.562058756548px"/><g data-schematic-port-id="source_port_1"><rect x="416.812798906892" y="271.065816442692" width="5.124117513096" height="5.124117513096" opacity="0"/></g><text class="pin-number" x="393.75427009796" y="271.065816442692" style="font-family: sans-serif;" fill="rgb(169, 0, 0)" text-anchor="middle" dominant-baseline="auto" font-size="19.215440674110003px" transform="">5</text></g><g data-circuit-json-type="schematic_component" data-schematic-component-id="schematic_component_1"><rect class="component-overlay" x="427.96785541452334" y="295.53571936913727" width="33.893910840362025" height="135.57560493056707" fill="transparent"/><path d="M 444.9148108347043 431.11132429970434 L 444.9148108347043 397.21742626963606" stroke="rgb(132, 0, 0)" fill="none" stroke-width="2.562058756548px" stroke-linecap="round"/><path d="M 444.9148108347043 329.4296302094993 L 444.9148108347043 295.53571936913727" stroke="rgb(132, 0, 0)" fill="none" stroke-width="2.562058756548px" stroke-linecap="round"/><path d="M 427.96785541452334 363.3235410498615 L 427.96785541452334 329.4296430197933 L 461.86176625488537 329.4296430197933 L 461.86176625488537 397.21745189022374 L 427.96785541452334 397.21745189022374 L 427.96785541452334 363.3235410498617" stroke="rgb(132, 0, 0)" fill="none" stroke-width="2.562058756548px" stroke-linecap="round"/><text x="480.22212622414463" y="345.0452630380155" fill="rgb(15, 15, 15)" font-family="sans-serif" text-anchor="start" dominant-baseline="middle" font-size="23.058528808932003px">R3</text><text x="480.22212622414463" y="386.0382031427835" fill="rgb(15, 15, 15)" font-family="sans-serif" text-anchor="start" dominant-baseline="middle" font-size="23.058528808932003px">2kΩ</text></g><g data-circuit-json-type="schematic_component" data-schematic-component-id="schematic_component_2"><rect class="component-overlay" x="564.7444381975164" y="193.82771293550257" width="67.78779606013666" height="135.57560493056712" fill="transparent"/><path d="M 598.6383362275844 193.82771293550257 L 598.6383362275844 251.4473383055894" stroke="rgb(132, 0, 0)" fill="none" stroke-width="2.562058756548px" stroke-linecap="round"/><path d="M 598.6383362275844 271.78367968568915 L 598.6383362275844 329.4033178660697" stroke="rgb(132, 0, 0)" fill="none" stroke-width="2.562058756548px" stroke-linecap="round"/><path d="M 564.7444381975164 251.44733830558943 L 632.532234257653 251.4473383055894" stroke="rgb(132, 0, 0)" fill="none" stroke-width="2.562058756548px" stroke-linecap="round"/><path d="M 564.7444381975164 271.78367968568915 L 632.532234257653 271.78367968568915" stroke="rgb(132, 0, 0)" fill="none" stroke-width="2.562058756548px" stroke-linecap="round"/><text x="627.684191385869" y="235.30282718101995" fill="rgb(15, 15, 15)" font-family="sans-serif" text-anchor="start" dominant-baseline="auto" font-size="23.058528808932003px">C4</text><text x="627.684191385869" y="286.33233565198" fill="rgb(15, 15, 15)" font-family="sans-serif" text-anchor="start" dominant-baseline="hanging" font-size="23.058528808932003px">4.7F</text></g><g data-circuit-json-type="schematic_component" data-schematic-component-id="schematic_component_3"><rect class="component-overlay" x="644.7291007174595" y="154.69525022768332" width="112.88393731498513" height="32.98331672740349" fill="transparent"/><path d="M 677.9921942610781 171.25083836250786 L 644.7291007174595 171.25083836250786" stroke="rgb(132, 0, 0)" fill="none" stroke-width="2.562058756548px" stroke-linecap="round"/><path d="M 757.6130380324446 171.0311802550151 L 724.5282893988693 171.0311802550151" stroke="rgb(132, 0, 0)" fill="none" stroke-width="2.562058756548px" stroke-linecap="round"/><path d="M 709.7866901048559 171.03217945793023 L 692.7319232521993 171.03217945793023" stroke="rgb(132, 0, 0)" fill="none" stroke-width="2.562058756548px" stroke-linecap="round"/><path d="M 710.0301241176093 154.96386927801348 L 710.0301241176093 187.24409303115132" stroke="rgb(132, 0, 0)" fill="none" stroke-width="2.562058756548px" stroke-linecap="round"/><path d="M 692.4786381235269 154.95153296510074 L 692.4786381235269 187.23175671823856" stroke="rgb(132, 0, 0)" fill="none" stroke-width="2.562058756548px" stroke-linecap="round"/><path d="M 691.8834974949684 187.66232350257033 L 691.8834974949684 187.66232350257033 L 689.8816655237958 186.58281896535385 L 688.0808454263424 185.46373072567778 L 686.4742913901506 184.30915656024447 L 685.0552576027633 183.12319424575625 L 683.816998251723 181.9099415589155 L 682.7527675245725 180.67349627642457 L 681.8558196088546 179.41795617498576 L 681.1194086921118 178.14741903130147 L 680.536788961887 176.865982622074 L 680.1012146057228 175.5777447240057 L 679.8059398111619 174.28680311379895 L 679.644218765747 172.9972555681561 L 679.6093056570209 171.71319986377947 L 679.694454672526 170.4387337773714 L 679.8929199998054 169.17795508563427 L 680.1979558264015 167.93496156527038 L 680.6028163398571 166.71385099298212 L 681.100755727715 165.51872114547183 L 681.6850281775177 164.35366979944183 L 682.348887876808 163.2227947315945 L 683.0855890131287 162.13019371863214 L 683.8883857740224 161.07996453725715 L 684.7505323470317 160.07620496417186 L 685.6652829196995 159.1230127760786 L 686.6258916795683 158.22448574967973 L 687.625612814181 157.3847216616776 L 688.6577005110802 156.60781828877452 L 689.7154089578086 155.8978734076729 L 690.7919923419088 155.25898479507504 L 691.8807048509236 154.69525022768332 L 691.8807048509236 154.69525022768332" stroke="rgb(132, 0, 0)" fill="none" stroke-width="2.562058756548px" stroke-linecap="round"/><path d="M 710.615708267006 187.6785669550868 L 710.615708267006 187.6785669550868 L 712.6175402381785 186.5990624178703 L 714.418360335632 185.47997417819425 L 716.0249143718238 184.32540001276092 L 717.4439481592111 183.13943769827273 L 718.6822075102514 181.92618501143198 L 719.7464382374019 180.68973972894102 L 720.6433861531198 179.43419962750224 L 721.3797970698625 178.16366248381792 L 721.9624168000873 176.88222607459045 L 722.3979911562516 175.59398817652217 L 722.6932659508125 174.30304656631543 L 722.8549869962274 173.01349902067258 L 722.8899001049535 171.72944331629594 L 722.8047510894484 170.45497722988787 L 722.606285762169 169.19419853815074 L 722.3012499355729 167.95120501778686 L 721.8963894221173 166.7300944454986 L 721.3984500342594 165.5349645979883 L 720.8141775844566 164.3699132519583 L 720.1503178851663 163.23903818411097 L 719.4136167488457 162.14643717114862 L 718.610819987952 161.09620798977363 L 717.7486734149427 160.09244841668834 L 716.8339228422749 159.13925622859506 L 715.8733140824061 158.2407292021962 L 714.8735929477933 157.40096511419407 L 713.8415052508942 156.624061741291 L 712.7837968041658 155.91411686018938 L 711.7072134200655 155.2752282475915 L 710.6185009110507 154.71149368019977 L 710.6185009110507 154.71149368019977" stroke="rgb(132, 0, 0)" fill="none" stroke-width="2.562058756548px" stroke-linecap="round"/><text x="698.5578911410641" y="148.2110754534643" fill="rgb(15, 15, 15)" font-family="sans-serif" text-anchor="middle" dominant-baseline="auto" font-size="23.058528808932003px">MEAS</text></g><g data-circuit-json-type="schematic_component" data-schematic-component-id="schematic_component_4"><rect class="component chip" x="854.9248462766" y="145.52493737184" width="51.24117513096007" height="76.86176269644" stroke-width="2.562058756548px" fill="rgb(255, 255, 194)" stroke="rgb(132, 0, 0)"/><rect class="component-overlay" x="854.9248462766" y="145.52493737184" width="51.24117513096007" height="76.86176269644" fill="transparent"/><text x="854.9248462766" y="239.040081985842" fill="#006464" text-anchor="start" dominant-baseline="middle" font-family="sans-serif" font-size="23.058528808932003px" transform="rotate(0, 854.9248462766, 239.040081985842)"></text><text x="854.9248462766" y="128.87155545427797" fill="#006464" text-anchor="start" dominant-baseline="middle" font-family="sans-serif" font-size="23.058528808932003px" transform="rotate(0, 854.9248462766, 128.87155545427797)">J3</text><line class="component-pin" x1="806.245729902188" y1="171.14552493731998" x2="854.9248462766" y2="171.14552493731998" stroke-width="2.562058756548px"/><g data-schematic-port-id="source_port_8"><rect x="801.121612389092" y="168.58346618077198" width="5.124117513096" height="5.124117513096" opacity="0"/></g><text class="pin-number" x="829.30425871112" y="168.58346618077198" style="font-family: sans-serif;" fill="rgb(169, 0, 0)" text-anchor="middle" dominant-baseline="auto" font-size="19.215440674110003px" transform="">1</text><line class="component-pin" x1="806.245729902188" y1="196.76611250279998" x2="854.9248462766" y2="196.76611250279998" stroke-width="2.562058756548px"/><g data-schematic-port-id="source_port_9"><rect x="801.121612389092" y="194.204053746252" width="5.124117513096" height="5.124117513096" opacity="0"/></g><text class="pin-number" x="829.30425871112" y="194.204053746252" style="font-family: sans-serif;" fill="rgb(169, 0, 0)" text-anchor="middle" dominant-baseline="auto" font-size="19.215440674110003px" transform="">2</text></g><g class="trace" data-circuit-json-type="schematic_trace" data-schematic-trace-id="schematic_trace_0"><path d="M 445.0304493566813 292.67797341149617 L 445.0304493566813 273.62787519924 L 419.37485766344 273.62787519924" class="trace-invisible-hover-outline" stroke="rgb(0, 150, 0)" fill="none" stroke-width="20.496470052384px" stroke-linecap="round" opacity="0" stroke-linejoin="round"/><path d="M 445.0304493566813 292.67797341149617 L 445.0304493566813 273.62787519924 L 419.37485766344 273.62787519924" stroke="rgb(0, 150, 0)" fill="none" stroke-width="2.562058756548px" stroke-linecap="round" stroke-linejoin="round"/></g><g class="trace" data-circuit-json-type="schematic_trace" data-schematic-trace-id="schematic_trace_1"><path d="M 444.9604411011587 433.9218899453439 L 444.99544522892 433.9218899453439 L 444.99544522892 465.78228194034" class="trace-invisible-hover-outline" stroke="rgb(0, 150, 0)" fill="none" stroke-width="20.496470052384px" stroke-linecap="round" opacity="0" stroke-linejoin="round"/><path d="M 444.9604411011587 433.9218899453439 L 444.99544522892 433.9218899453439 L 444.99544522892 465.78228194034" stroke="rgb(0, 150, 0)" fill="none" stroke-width="2.562058756548px" stroke-linecap="round" stroke-linejoin="round"/></g><g class="trace" data-circuit-json-type="schematic_trace" data-schematic-trace-id="schematic_trace_2"><path d="M 598.6839536837449 190.2060507287153 L 598.6839536837449 172.2751411266848 L 437.3057672654705 172.2751411266848 L 437.3057672654705 248.00728763376 L 419.37485766344 248.00728763376" class="trace-invisible-hover-outline" stroke="rgb(0, 150, 0)" fill="none" stroke-width="20.496470052384px" stroke-linecap="round" opacity="0" stroke-linejoin="round"/><path d="M 598.6839536837449 190.2060507287153 L 598.6839536837449 172.2751411266848 L 437.3057672654705 172.2751411266848 L 437.3057672654705 248.00728763376 L 419.37485766344 248.00728763376" stroke="rgb(0, 150, 0)" fill="none" stroke-width="2.562058756548px" stroke-linecap="round" stroke-linejoin="round"/></g><g class="trace" data-circuit-json-type="schematic_trace" data-schematic-trace-id="schematic_trace_3"><path d="M 598.6839536837449 190.2060507287153 L 598.7189706218 190.2060507287153 L 598.7189706218 158.33523115457996" class="trace-invisible-hover-outline" stroke="rgb(0, 150, 0)" fill="none" stroke-width="20.496470052384px" stroke-linecap="round" opacity="0" stroke-linejoin="round"/><path d="M 598.6839536837449 190.2060507287153 L 598.7189706218 190.2060507287153 L 598.7189706218 158.33523115457996" stroke="rgb(0, 150, 0)" fill="none" stroke-width="2.562058756548px" stroke-linecap="round" stroke-linejoin="round"/></g><g class="trace" data-circuit-json-type="schematic_trace" data-schematic-trace-id="schematic_trace_4"><path d="M 598.753987559855 331.4291121042847 L 598.7189706218 331.4291121042847 L 598.7189706218 363.29993167842" class="trace-invisible-hover-outline" stroke="rgb(0, 150, 0)" fill="none" stroke-width="20.496470052384px" stroke-linecap="round" opacity="0" stroke-linejoin="round"/><path d="M 598.753987559855 331.4291121042847 L 598.7189706218 331.4291121042847 L 598.7189706218 363.29993167842" stroke="rgb(0, 150, 0)" fill="none" stroke-width="2.562058756548px" stroke-linecap="round" stroke-linejoin="round"/></g><g class="trace" data-circuit-json-type="schematic_trace" data-schematic-trace-id="schematic_trace_5"><path d="M 644.0929287179149 171.1375569345871 L 598.6839536837449 171.1375569345871 L 598.6839536837449 190.2060507287153" class="trace-invisible-hover-outline" stroke="rgb(0, 150, 0)" fill="none" stroke-width="20.496470052384px" stroke-linecap="round" opacity="0" stroke-linejoin="round"/><path d="M 644.0929287179149 171.1375569345871 L 598.6839536837449 171.1375569345871 L 598.6839536837449 190.2060507287153" stroke="rgb(0, 150, 0)" fill="none" stroke-width="2.562058756548px" stroke-linecap="round" stroke-linejoin="round"/><circle cx="598.7189706218" cy="171.1375569345871" r="3.843088134822" class="trace-junction" fill="rgb(0, 150, 0)"/><circle cx="598.6839536837449" cy="172.2751411266848" r="3.843088134822" class="trace-junction" fill="rgb(0, 150, 0)"/></g><g class="trace" data-circuit-json-type="schematic_trace" data-schematic-trace-id="schematic_trace_6"><path d="M 758.3097130495252 171.15349294005284 L 762.8471088591366 171.15349294005284 L 780.9966920975826 171.15349294005284 L 780.9966920975826 171.14552493731998 L 799.1462753360286 171.14552493731998 L 803.68367114564 171.14552493731998" class="trace-invisible-hover-outline" stroke="rgb(0, 150, 0)" fill="none" stroke-width="20.496470052384px" stroke-linecap="round" opacity="0" stroke-linejoin="round"/><path d="M 758.3097130495252 171.15349294005284 L 762.8471088591366 171.15349294005284 L 780.9966920975826 171.15349294005284 L 780.9966920975826 171.14552493731998 L 799.1462753360286 171.14552493731998 L 803.68367114564 171.14552493731998" stroke="rgb(0, 150, 0)" fill="none" stroke-width="2.562058756548px" stroke-linecap="round" stroke-linejoin="round"/></g><g class="trace" data-circuit-json-type="schematic_trace" data-schematic-trace-id="schematic_trace_7"><path d="M 803.68367114564 196.76611250279998 L 765.2527897974201 196.76611250279998 L 765.2527897974201 235.19699385101998" class="trace-invisible-hover-outline" stroke="rgb(0, 150, 0)" fill="none" stroke-width="20.496470052384px" stroke-linecap="round" opacity="0" stroke-linejoin="round"/><path d="M 803.68367114564 196.76611250279998 L 765.2527897974201 196.76611250279998 L 765.2527897974201 235.19699385101998" stroke="rgb(0, 150, 0)" fill="none" stroke-width="2.562058756548px" stroke-linecap="round" stroke-linejoin="round"/></g><g class="schematic-port-hover" data-schematic-port-id="source_port_0"><circle cx="419.37485766344" cy="248.00728763376" r="5.124117513096" fill="red" opacity="0"/></g><g class="schematic-port-hover" data-schematic-port-id="source_port_1"><circle cx="419.37485766344" cy="273.62787519924" r="5.124117513096" fill="red" opacity="0"/></g><g class="schematic-port-hover" data-schematic-port-id="source_port_2"><circle cx="444.9604411011587" cy="433.9218899453439" r="5.124117513096" fill="red" opacity="0"/></g><g class="schematic-port-hover" data-schematic-port-id="source_port_3"><circle cx="445.0304493566813" cy="292.67797341149617" r="5.124117513096" fill="red" opacity="0"/></g><g class="schematic-port-hover" data-schematic-port-id="source_port_4"><circle cx="598.753987559855" cy="331.4291121042847" r="5.124117513096" fill="red" opacity="0"/></g><g class="schematic-port-hover" data-schematic-port-id="source_port_5"><circle cx="598.6839536837449" cy="190.2060507287153" r="5.124117513096" fill="red" opacity="0"/></g><g class="schematic-port-hover" data-schematic-port-id="source_port_6"><circle cx="644.0929287179149" cy="171.1375569345871" r="5.124117513096" fill="red" opacity="0"/></g><g class="schematic-port-hover" data-schematic-port-id="source_port_7"><circle cx="758.3097130495252" cy="171.15349294005284" r="5.124117513096" fill="red" opacity="0"/></g><g class="schematic-port-hover" data-schematic-port-id="source_port_8"><circle cx="803.68367114564" cy="171.14552493731998" r="5.124117513096" fill="red" opacity="0"/></g><g class="schematic-port-hover" data-schematic-port-id="source_port_9"><circle cx="803.68367114564" cy="196.76611250279998" r="5.124117513096" fill="red" opacity="0"/></g><rect class="component-overlay" x="415.5010248235394" y="465.64348240720403" width="57.55937855842643" height="61.92872637213736" fill="transparent"/><path d="M 444.85629981785195 465.64348240720403 L 444.85629981785195 507.87048935323844" stroke="rgb(132, 0, 0)" fill="none" stroke-width="2.562058756548px" stroke-linecap="round"/><path d="M 415.5010248235394 507.86628757687777 L 473.06040338196584 507.86628757687777" stroke="rgb(132, 0, 0)" fill="none" stroke-width="2.562058756548px" stroke-linecap="round"/><path d="M 422.69595194720296 517.7192481781096 L 465.8654762583023 517.7192481781096" stroke="rgb(132, 0, 0)" fill="none" stroke-width="2.562058756548px" stroke-linecap="round"/><path d="M 437.0857933842361 527.5722087793414 L 451.47563482126935 527.5722087793414" stroke="rgb(132, 0, 0)" fill="none" stroke-width="2.562058756548px" stroke-linecap="round"/><text x="442.09757743115125" y="542.5770211797087" fill="rgb(15, 15, 15)" font-family="sans-serif" text-anchor="middle" dominant-baseline="hanging" font-size="23.058528808932003px">GND</text><rect class="component-overlay" x="586.7560137213194" y="103.95445798217084" width="23.734848269191502" height="52.46608261217192" fill="transparent"/><path d="M 598.4359399909644 103.95445798217084 L 586.7560137213194 128.4311759849087" stroke="rgb(132, 0, 0)" fill="none" stroke-width="2.562058756548px" stroke-linecap="round"/><path d="M 598.8109357208663 103.96721703477844 L 610.4908619905109 128.44399908898524" stroke="rgb(132, 0, 0)" fill="none" stroke-width="2.562058756548px" stroke-linecap="round"/><path d="M 598.571101400666 104.6003145638153 L 598.571101400666 156.42054059434275" stroke="rgb(132, 0, 0)" fill="none" stroke-width="2.562058756548px" stroke-linecap="round"/><text x="597.9981097700576" y="96.44747210195992" fill="rgb(15, 15, 15)" font-family="sans-serif" text-anchor="middle" dominant-baseline="ideographic" font-size="23.058528808932003px">VBATT</text><rect class="component-overlay" x="569.2245502164194" y="363.16113214528406" width="57.55937855842649" height="61.928726372137305" fill="transparent"/><path d="M 598.579825210732 363.16113214528406 L 598.579825210732 405.38813909131846" stroke="rgb(132, 0, 0)" fill="none" stroke-width="2.562058756548px" stroke-linecap="round"/><path d="M 569.2245502164194 405.3839373149578 L 626.7839287748459 405.3839373149578" stroke="rgb(132, 0, 0)" fill="none" stroke-width="2.562058756548px" stroke-linecap="round"/><path d="M 576.4194773400831 415.23689791618966 L 619.5890016511823 415.2368979161896" stroke="rgb(132, 0, 0)" fill="none" stroke-width="2.562058756548px" stroke-linecap="round"/><path d="M 590.8093187771162 425.08985851742136 L 605.1991602141494 425.08985851742136" stroke="rgb(132, 0, 0)" fill="none" stroke-width="2.562058756548px" stroke-linecap="round"/><text x="595.8211028240313" y="440.0946709177887" fill="rgb(15, 15, 15)" font-family="sans-serif" text-anchor="middle" dominant-baseline="hanging" font-size="23.058528808932003px">GND</text><rect class="component-overlay" x="735.7583693920393" y="235.058194317884" width="57.55937855842649" height="61.928726372137305" fill="transparent"/><path d="M 765.1136443863519 235.058194317884 L 765.1136443863519 277.2852012639184" stroke="rgb(132, 0, 0)" fill="none" stroke-width="2.562058756548px" stroke-linecap="round"/><path d="M 735.7583693920393 277.2809994875577 L 793.3177479504658 277.2809994875577" stroke="rgb(132, 0, 0)" fill="none" stroke-width="2.562058756548px" stroke-linecap="round"/><path d="M 742.953296515703 287.1339600887896 L 786.1228208268022 287.13396008878954" stroke="rgb(132, 0, 0)" fill="none" stroke-width="2.562058756548px" stroke-linecap="round"/><path d="M 757.3431379527361 296.9869206900213 L 771.7329793897693 296.9869206900213" stroke="rgb(132, 0, 0)" fill="none" stroke-width="2.562058756548px" stroke-linecap="round"/><text x="762.3549219996512" y="311.9917330903886" fill="rgb(15, 15, 15)" font-family="sans-serif" text-anchor="middle" dominant-baseline="hanging" font-size="23.058528808932003px">GND</text></svg>