<svg xmlns="http://www.w3.org/2000/svg" width="1200" height="600" style="background-color: rgb(245, 241, 237)" data-real-to-screen-transform="matrix(130.7507590681,0,0,-130.7507590681,356.2805850971,177.9604998089)" data-software-used-string="@tscircuit/core@0.0.586"><style>
              .boundary { fill: rgb(245, 241, 237); }
              .schematic-boundary { fill: none; stroke: #fff; }
              .component { fill: none; stroke: rgb(132, 0, 0); }
              .chip { fill: rgb(255, 255, 194); stroke: rgb(132, 0, 0); }
              .component-pin { fill: none; stroke: rgb(132, 0, 0); }
              .trace:hover {
                filter: invert(1);
              }
              .trace:hover .trace-crossing-outline {
                opacity: 0;
              }
              .trace:hover .trace-junction {
                filter: invert(1);
              }
              .text { font-family: sans-serif; fill: rgb(0, 150, 0); }
              .pin-number { fill: rgb(169, 0, 0); }
              .port-label { fill: rgb(0, 100, 100); }
              .component-name { fill: rgb(0, 100, 100); }
            </style><rect class="boundary" x="0" y="0" width="1200" height="600"/><g data-circuit-json-type="schematic_component" data-schematic-component-id="schematic_component_0"><rect class="component chip" x="330.13043328348" y="138.73527208847" width="52.300303627240055" height="78.45045544086003" stroke-width="2.615015181362px" fill="rgb(255, 255, 194)" stroke="rgb(132, 0, 0)"/><rect class="component-overlay" x="330.13043328348" y="138.73527208847" width="52.300303627240055" height="78.45045544086003" fill="transparent"/><text x="330.13043328348" y="234.18332620818302" fill="#006464" text-anchor="start" dominant-baseline="middle" font-family="sans-serif" font-size="23.535136632258px" transform="rotate(0, 330.13043328348, 234.18332620818302)"></text><text x="330.13043328348" y="121.737673409617" fill="#006464" text-anchor="start" dominant-baseline="middle" font-family="sans-serif" font-size="23.535136632258px" transform="rotate(0, 330.13043328348, 121.737673409617)">U1</text><line class="component-pin" x1="432.116025356598" y1="164.88542390209" x2="382.43073691072004" y2="164.88542390209" stroke-width="2.615015181362px"/><g data-schematic-port-id="source_port_0"><rect x="432.116025356598" y="162.270408720728" width="5.230030362724" height="5.230030362724" opacity="0"/></g><text class="pin-number" x="408.58088872434" y="162.270408720728" style="font-family: sans-serif;" fill="rgb(169, 0, 0)" text-anchor="middle" dominant-baseline="auto" font-size="19.612613860215px" transform="">1</text><line class="component-pin" x1="432.116025356598" y1="191.03557571571002" x2="382.43073691072004" y2="191.03557571571002" stroke-width="2.615015181362px"/><g data-schematic-port-id="source_port_1"><rect x="432.116025356598" y="188.42056053434803" width="5.230030362724" height="5.230030362724" opacity="0"/></g><text class="pin-number" x="408.58088872434" y="188.420560534348" style="font-family: sans-serif;" fill="rgb(169, 0, 0)" text-anchor="middle" dominant-baseline="auto" font-size="19.612613860215px" transform="">2</text></g><g data-circuit-json-type="schematic_component" data-schematic-component-id="schematic_component_1"><rect class="component-overlay" x="534.1824040206465" y="356.199495539325" width="34.594480386818645" height="138.37788232204713" fill="transparent"/><path d="M 551.4796442140558 494.57737786137216 L 551.4796442140558 459.9829105496294" stroke="rgb(132, 0, 0)" fill="none" stroke-width="2.615015181362px" stroke-linecap="round"/><path d="M 551.4796442140558 390.7939759261437 L 551.4796442140558 356.199495539325" stroke="rgb(132, 0, 0)" fill="none" stroke-width="2.615015181362px" stroke-linecap="round"/><path d="M 534.1824040206465 425.3884563129625 L 534.1824040206465 390.79398900121976 L 568.7768844074651 390.79398900121976 L 568.7768844074651 459.98293669978136 L 534.1824040206465 459.98293669978136 L 534.1824040206465 425.3884563129627" stroke="rgb(132, 0, 0)" fill="none" stroke-width="2.615015181362px" stroke-linecap="round"/><text x="587.5167434884388" y="406.73237578086207" fill="rgb(15, 15, 15)" font-family="sans-serif" text-anchor="start" dominant-baseline="middle" font-size="23.535136632258px">R7</text><text x="587.5167434884388" y="448.5726186826541" fill="rgb(15, 15, 15)" font-family="sans-serif" text-anchor="start" dominant-baseline="middle" font-size="23.535136632258px">1kΩ</text></g><g data-circuit-json-type="schematic_component" data-schematic-component-id="schematic_component_2"><rect class="component-overlay" x="637.1584974701518" y="168.8326686470652" width="69.18893462348558" height="138.37788232204724" fill="transparent"/><path d="M 671.7529647818944 168.8326686470652 L 671.7529647818944 227.64326176952042" stroke="rgb(132, 0, 0)" fill="none" stroke-width="2.615015181362px" stroke-linecap="round"/><path d="M 671.7529647818944 248.3999447715813 L 671.7529647818943 307.21055096911243" stroke="rgb(132, 0, 0)" fill="none" stroke-width="2.615015181362px" stroke-linecap="round"/><path d="M 637.1584974701518 227.64326176952048 L 706.3474320936374 227.64326176952042" stroke="rgb(132, 0, 0)" fill="none" stroke-width="2.615015181362px" stroke-linecap="round"/><path d="M 637.1584974701518 248.3999447715813 L 706.3474320936374 248.3999447715813" stroke="rgb(132, 0, 0)" fill="none" stroke-width="2.615015181362px" stroke-linecap="round"/><text x="701.3991826917812" y="211.16286445884748" fill="rgb(15, 15, 15)" font-family="sans-serif" text-anchor="start" dominant-baseline="auto" font-size="23.535136632258px">C1</text><text x="701.3991826917812" y="263.2515014260875" fill="rgb(15, 15, 15)" font-family="sans-serif" text-anchor="start" dominant-baseline="hanging" font-size="23.535136632258px">100mF</text></g><g data-circuit-json-type="schematic_component" data-schematic-component-id="schematic_component_3"><rect class="component-overlay" x="720.5309482143737" y="148.34724647276076" width="115.21718971360838" height="33.66506476613489" fill="transparent"/><path d="M 754.4815726383134 165.2450300221412 L 720.5309482143737 165.2450300221412" stroke="rgb(132, 0, 0)" fill="none" stroke-width="2.615015181362px" stroke-linecap="round"/><path d="M 835.748137927982 165.020831695567 L 801.9795447108171 165.020831695567" stroke="rgb(132, 0, 0)" fill="none" stroke-width="2.615015181362px" stroke-linecap="round"/><path d="M 786.9332442101446 165.0218515514878 L 769.5259641779035 165.0218515514878" stroke="rgb(132, 0, 0)" fill="none" stroke-width="2.615015181362px" stroke-linecap="round"/><path d="M 787.1817098776016 148.62141773945058 L 787.1817098776016 181.56885696444022" stroke="rgb(132, 0, 0)" fill="none" stroke-width="2.615015181362px" stroke-linecap="round"/><path d="M 769.2674437770739 148.60882644135233 L 769.2674437770739 181.55626566634194" stroke="rgb(132, 0, 0)" fill="none" stroke-width="2.615015181362px" stroke-linecap="round"/><path d="M 768.6600019005954 181.99573204264587 L 768.6600019005954 181.99573204264587 L 766.6167931015103 180.8939147068976 L 764.7787509872508 179.75169549410344 L 763.1389903129169 178.5732568798835 L 761.6906258336091 177.36278133985786 L 760.4267723044276 176.12445134964656 L 759.3405444804724 174.86244938486976 L 758.425057116844 173.58095792114744 L 757.6734249686424 172.28415943409973 L 757.0787627909679 170.9762363993467 L 756.6341853389206 169.66137129250842 L 756.3328073676009 168.34374658920498 L 756.1677436321089 167.02754476505646 L 756.132108887545 165.7169482956829 L 756.2190178890091 164.41613965670442 L 756.4215853916018 163.1293013237411 L 756.7329261504229 161.86061577241298 L 757.146154920573 160.61426547834014 L 757.6543864571521 159.3944329171427 L 758.2507355152604 158.2053005644407 L 758.9283168499984 157.05105089585425 L 759.680245216466 155.9358663870034 L 760.4996353697635 154.86392951350822 L 761.3796020649912 153.8394227509888 L 762.3132600572492 152.86652857506525 L 763.2937241016378 151.9494294613576 L 764.3141089532573 151.09230788548592 L 765.3675293672078 150.29934632307032 L 766.4471000985895 149.5747272497309 L 767.5459359025027 148.9226331410877 L 768.6571515340477 148.3472464727608 L 768.6571515340477 148.34724647276076" stroke="rgb(132, 0, 0)" fill="none" stroke-width="2.615015181362px" stroke-linecap="round"/><path d="M 787.7793977474539 182.01231123889565 L 787.7793977474539 182.01231123889565 L 789.822606546539 180.91049390314737 L 791.6606486607985 179.76827469035322 L 793.3004093351323 178.58983607613328 L 794.74877381444 177.37936053610764 L 796.0126273436216 176.14103054589637 L 797.0988551675767 174.87902858111954 L 798.0143425312053 173.59753711739722 L 798.7659746794069 172.3007386303495 L 799.3606368570814 170.99281559559648 L 799.8052143091287 169.67795048875823 L 800.1065922804484 168.36032578545476 L 800.2716560159404 167.04412396130624 L 800.3072907605043 165.7335274919327 L 800.2203817590402 164.43271885295422 L 800.0178142564475 163.14588051999087 L 799.7064734976263 161.87719496866276 L 799.2932447274762 160.63084467458995 L 798.7850131908972 159.4110121133925 L 798.1886641327887 158.2218797606905 L 797.5110827980509 157.06763009210403 L 796.7591544315833 155.9524455832532 L 795.9397642782858 154.880508709758 L 795.0597975830581 153.8560019472386 L 794.1261395908 152.88310777131503 L 793.1456755464113 151.96600865760738 L 792.1252906947919 151.1088870817357 L 791.0718702808414 150.31592551932013 L 789.9922995494597 149.59130644598068 L 788.8934637455465 148.93921233733747 L 787.7822481140016 148.36382566901057 L 787.7822481140016 148.36382566901057" stroke="rgb(132, 0, 0)" fill="none" stroke-width="2.615015181362px" stroke-linecap="round"/><text x="775.4723517994099" y="141.728514983514" fill="rgb(15, 15, 15)" font-family="sans-serif" text-anchor="middle" dominant-baseline="auto" font-size="23.535136632258px">JP1</text></g><g data-circuit-json-type="schematic_component" data-schematic-component-id="schematic_component_4"><rect class="component-overlay" x="508.4237126498934" y="166.38824708034622" width="60.07431228392437" height="137.57035255896676" fill="transparent"/><path d="M 551.2007847404079 252.87442189724123 L 568.4980249338178 218.27995458549842" stroke="rgb(132, 0, 0)" fill="none" stroke-width="2.615015181362px" stroke-linecap="round"/><path d="M 551.2300467602875 251.79954605709423 L 551.2300467602875 303.958599639313" stroke="rgb(132, 0, 0)" fill="none" stroke-width="2.615015181362px" stroke-linecap="round"/><path d="M 533.9035445469987 218.27995458549842 L 551.2007847404079 252.87442189724123" stroke="rgb(132, 0, 0)" fill="none" stroke-width="2.615015181362px" stroke-linecap="round"/><path d="M 568.4980249338178 218.27995458549842 L 533.9035445469987 218.27995458549842" stroke="rgb(132, 0, 0)" fill="none" stroke-width="2.615015181362px" stroke-linecap="round"/><path d="M 533.9035445469987 252.87442189724123 L 568.4980249338178 252.87442189724123" stroke="rgb(132, 0, 0)" fill="none" stroke-width="2.615015181362px" stroke-linecap="round"/><path d="M 551.2007847404079 218.01272618411502 L 551.2007847404079 166.38824708034622" stroke="rgb(132, 0, 0)" fill="none" stroke-width="2.615015181362px" stroke-linecap="round"/><path d="M 513.3943073564744 255.47458379237298 L 511.18733914401196 268.20216340680764 L 523.3161456572942 263.71704626864647" stroke="rgb(132, 0, 0)" fill="none" stroke-width="2.615015181362px" stroke-linecap="round"/><path d="M 529.0248806991186 245.5715997510105 L 527.856884168363 247.14368150266574 L 516.0297196562507 263.06343629914096 L 515.905506435136 263.1458092773538" stroke="rgb(132, 0, 0)" fill="none" stroke-width="2.615015181362px" stroke-linecap="round"/><path d="M 510.63068086235586 232.27073035836577 L 508.4237126498934 244.9983099728005 L 520.5525191631756 240.51319283463926" stroke="rgb(132, 0, 0)" fill="none" stroke-width="2.615015181362px" stroke-linecap="round"/><path d="M 526.2612542050001 222.3677463170033 L 525.0932576742443 223.9398280686586 L 513.266093162132 239.85958286513375 L 513.1418799410174 239.94195584334668" stroke="rgb(132, 0, 0)" fill="none" stroke-width="2.615015181362px" stroke-linecap="round"/><text x="576.8676294482087" y="261.2611024607668" fill="rgb(15, 15, 15)" font-family="sans-serif" text-anchor="start" dominant-baseline="middle" font-size="23.535136632258px"></text><text x="576.8676294482087" y="210.26830642420776" fill="rgb(15, 15, 15)" font-family="sans-serif" text-anchor="start" dominant-baseline="middle" font-size="23.535136632258px">LED1</text></g><g class="trace" data-circuit-json-type="schematic_trace" data-schematic-trace-id="schematic_trace_0"><path d="M 434.73104053796004 164.88542390209 L 551.2970826744618 164.88542390209 L 551.2970826744618 165.00117765277227" class="trace-invisible-hover-outline" stroke="rgb(0, 150, 0)" fill="none" stroke-width="20.920121450896px" stroke-linecap="round" opacity="0" stroke-linejoin="round"/><path d="M 434.73104053796004 164.88542390209 L 551.2970826744618 164.88542390209 L 551.2970826744618 165.00117765277227" stroke="rgb(0, 150, 0)" fill="none" stroke-width="2.615015181362px" stroke-linecap="round" stroke-linejoin="round"/></g><g class="trace" data-circuit-json-type="schematic_trace" data-schematic-trace-id="schematic_trace_1"><path d="M 434.73104053796004 191.03557571571002 L 465.37208661041404 191.03557571571002 L 465.37208661041404 528.0870825127047 L 551.5262176344362 528.0870825127047 L 551.5262176344362 497.4460364402505" class="trace-invisible-hover-outline" stroke="rgb(0, 150, 0)" fill="none" stroke-width="20.920121450896px" stroke-linecap="round" opacity="0" stroke-linejoin="round"/><path d="M 434.73104053796004 191.03557571571002 L 465.37208661041404 191.03557571571002 L 465.37208661041404 528.0870825127047 L 551.5262176344362 528.0870825127047 L 551.5262176344362 497.4460364402505" stroke="rgb(0, 150, 0)" fill="none" stroke-width="2.615015181362px" stroke-linecap="round" stroke-linejoin="round"/></g><g class="trace" data-circuit-json-type="schematic_trace" data-schematic-trace-id="schematic_trace_2"><path d="M 719.8816268697656 165.1294071258973 L 671.7995251271989 165.1294071258973 L 671.7995251271989 165.13614856207144" class="trace-invisible-hover-outline" stroke="rgb(0, 150, 0)" fill="none" stroke-width="20.920121450896px" stroke-linecap="round" opacity="0" stroke-linejoin="round"/><path d="M 719.8816268697656 165.1294071258973 L 671.7995251271989 165.1294071258973 L 671.7995251271989 165.13614856207144" stroke="rgb(0, 150, 0)" fill="none" stroke-width="2.615015181362px" stroke-linecap="round" stroke-linejoin="round"/></g><g class="trace" data-circuit-json-type="schematic_trace" data-schematic-trace-id="schematic_trace_3"><path d="M 551.2970826744618 165.00117765277227 L 551.2970826744618 152.95093340749858 L 671.7995251271989 152.95093340749858 L 671.7995251271989 165.13614856207144" class="trace-invisible-hover-outline" stroke="rgb(0, 150, 0)" fill="none" stroke-width="20.920121450896px" stroke-linecap="round" opacity="0" stroke-linejoin="round"/><path d="M 551.2970826744618 165.00117765277227 L 551.2970826744618 152.95093340749858 L 671.7995251271989 152.95093340749858 L 671.7995251271989 165.13614856207144" stroke="rgb(0, 150, 0)" fill="none" stroke-width="2.615015181362px" stroke-linecap="round" stroke-linejoin="round"/><circle cx="551.2970826744618" cy="164.88542390209" r="3.9225227720429996" class="trace-junction" fill="rgb(0, 150, 0)"/><circle cx="671.7995251271989" cy="165.1294071258973" r="3.9225227720429996" class="trace-junction" fill="rgb(0, 150, 0)"/></g><g class="trace" data-circuit-json-type="schematic_trace" data-schematic-trace-id="schematic_trace_4"><path d="M 551.3563781436995 305.2207236415214 L 551.3563781436995 329.2517025487017 L 551.5976729242667 329.2517025487017 L 551.5976729242667 353.2826814558821" class="trace-invisible-hover-outline" stroke="rgb(0, 150, 0)" fill="none" stroke-width="20.920121450896px" stroke-linecap="round" opacity="0" stroke-linejoin="round"/><path d="M 551.3563781436995 305.2207236415214 L 551.3563781436995 329.2517025487017 L 551.5976729242667 329.2517025487017 L 551.5976729242667 353.2826814558821" stroke="rgb(0, 150, 0)" fill="none" stroke-width="2.615015181362px" stroke-linecap="round" stroke-linejoin="round"/></g><g class="trace" data-circuit-json-type="schematic_trace" data-schematic-trace-id="schematic_trace_5"><path d="M 671.7995251271989 165.13614856207144 L 671.8352658471899 165.13614856207144 L 671.8352658471899 125.66019618166001" class="trace-invisible-hover-outline" stroke="rgb(0, 150, 0)" fill="none" stroke-width="20.920121450896px" stroke-linecap="round" opacity="0" stroke-linejoin="round"/><path d="M 671.7995251271989 165.13614856207144 L 671.8352658471899 165.13614856207144 L 671.8352658471899 125.66019618166001" stroke="rgb(0, 150, 0)" fill="none" stroke-width="2.615015181362px" stroke-linecap="round" stroke-linejoin="round"/></g><g class="trace" data-circuit-json-type="schematic_trace" data-schematic-trace-id="schematic_trace_6"><path d="M 836.4592128560981 165.14567252032538 L 879.2836213695 165.14567252032538 L 879.2836213695 125.66019618166001" class="trace-invisible-hover-outline" stroke="rgb(0, 150, 0)" fill="none" stroke-width="20.920121450896px" stroke-linecap="round" opacity="0" stroke-linejoin="round"/><path d="M 836.4592128560981 165.14567252032538 L 879.2836213695 165.14567252032538 L 879.2836213695 125.66019618166001" stroke="rgb(0, 150, 0)" fill="none" stroke-width="2.615015181362px" stroke-linecap="round" stroke-linejoin="round"/></g><g class="trace" data-circuit-json-type="schematic_trace" data-schematic-trace-id="schematic_trace_7"><path d="M 671.8710065671812 309.2782173228636 L 671.8352658471899 309.2782173228636 L 671.8352658471899 368.6772425137884" class="trace-invisible-hover-outline" stroke="rgb(0, 150, 0)" fill="none" stroke-width="20.920121450896px" stroke-linecap="round" opacity="0" stroke-linejoin="round"/><path d="M 671.8710065671812 309.2782173228636 L 671.8352658471899 309.2782173228636 L 671.8352658471899 368.6772425137884" stroke="rgb(0, 150, 0)" fill="none" stroke-width="2.615015181362px" stroke-linecap="round" stroke-linejoin="round"/></g><g class="schematic-port-hover" data-schematic-port-id="source_port_0"><circle cx="434.73104053796004" cy="164.88542390209" r="5.230030362724" fill="red" opacity="0"/></g><g class="schematic-port-hover" data-schematic-port-id="source_port_1"><circle cx="434.73104053796004" cy="191.03557571571002" r="5.230030362724" fill="red" opacity="0"/></g><g class="schematic-port-hover" data-schematic-port-id="source_port_2"><circle cx="551.5262176344362" cy="497.4460364402505" r="5.230030362724" fill="red" opacity="0"/></g><g class="schematic-port-hover" data-schematic-port-id="source_port_3"><circle cx="551.5976729242667" cy="353.2826814558821" r="5.230030362724" fill="red" opacity="0"/></g><g class="schematic-port-hover" data-schematic-port-id="source_port_4"><circle cx="671.8710065671812" cy="309.2782173228636" r="5.230030362724" fill="red" opacity="0"/></g><g class="schematic-port-hover" data-schematic-port-id="source_port_5"><circle cx="671.7995251271989" cy="165.13614856207144" r="5.230030362724" fill="red" opacity="0"/></g><g class="schematic-port-hover" data-schematic-port-id="source_port_6"><circle cx="719.8816268697656" cy="165.1294071258973" r="5.230030362724" fill="red" opacity="0"/></g><g class="schematic-port-hover" data-schematic-port-id="source_port_7"><circle cx="836.4592128560981" cy="165.14567252032538" r="5.230030362724" fill="red" opacity="0"/></g><g class="schematic-port-hover" data-schematic-port-id="source_port_8"><circle cx="551.2970826744618" cy="165.00117765277227" r="5.230030362724" fill="red" opacity="0"/></g><g class="schematic-port-hover" data-schematic-port-id="source_port_9"><circle cx="551.3563781436995" cy="305.2207236415214" r="5.230030362724" fill="red" opacity="0"/></g><rect class="component-overlay" x="659.6250408362359" y="70.15540065087532" width="24.225435264757834" height="53.55052931037336" fill="transparent"/><path d="M 671.5463851201052 70.15540065087532 L 659.6250408362359 95.13803971154859" stroke="rgb(132, 0, 0)" fill="none" stroke-width="2.615015181362px" stroke-linecap="round"/><path d="M 671.929131817125 70.1684234264785 L 683.8504761009938 95.15112786253131" stroke="rgb(132, 0, 0)" fill="none" stroke-width="2.615015181362px" stroke-linecap="round"/><path d="M 671.6843402459978 70.81460675286903 L 671.6843402459978 123.70592996124869" stroke="rgb(132, 0, 0)" fill="none" stroke-width="2.615015181362px" stroke-linecap="round"/><text x="671.0995051757619" y="62.49324926857389" fill="rgb(15, 15, 15)" font-family="sans-serif" text-anchor="middle" dominant-baseline="ideographic" font-size="23.535136632258px">V5</text><rect class="component-overlay" x="867.0733963585459" y="70.15540065087532" width="24.225435264757834" height="53.55052931037336" fill="transparent"/><path d="M 878.9947406424152 70.15540065087532 L 867.0733963585459 95.13803971154859" stroke="rgb(132, 0, 0)" fill="none" stroke-width="2.615015181362px" stroke-linecap="round"/><path d="M 879.377487339435 70.1684234264785 L 891.2988316233037 95.15112786253131" stroke="rgb(132, 0, 0)" fill="none" stroke-width="2.615015181362px" stroke-linecap="round"/><path d="M 879.1326957683077 70.81460675286903 L 879.1326957683077 123.70592996124869" stroke="rgb(132, 0, 0)" fill="none" stroke-width="2.615015181362px" stroke-linecap="round"/><text x="878.5478606980719" y="62.49324926857389" fill="rgb(15, 15, 15)" font-family="sans-serif" text-anchor="middle" dominant-baseline="ideographic" font-size="23.535136632258px">VIN</text><rect class="component-overlay" x="641.7312110793506" y="368.53557406633814" width="58.74910104046546" height="63.20876100583615" fill="transparent"/><path d="M 671.6932443726903 368.53557406633814 L 671.6932443726903 411.6353913305367" stroke="rgb(132, 0, 0)" fill="none" stroke-width="2.615015181362px" stroke-linecap="round"/><path d="M 641.7312110793506 411.63110270563936 L 700.4803121198161 411.63110270563936" stroke="rgb(132, 0, 0)" fill="none" stroke-width="2.615015181362px" stroke-linecap="round"/><path d="M 649.0748536125624 421.6877188889069 L 693.1366695866043 421.6877188889069" stroke="rgb(132, 0, 0)" fill="none" stroke-width="2.615015181362px" stroke-linecap="round"/><path d="M 663.7621256039097 431.7443350721743 L 678.4493975952571 431.7443350721743" stroke="rgb(132, 0, 0)" fill="none" stroke-width="2.615015181362px" stroke-linecap="round"/><text x="668.8775006260068" y="447.05928915750394" fill="rgb(15, 15, 15)" font-family="sans-serif" text-anchor="middle" dominant-baseline="hanging" font-size="23.535136632258px">GND</text></svg>