<svg xmlns="http://www.w3.org/2000/svg" width="1200" height="600" style="background-color: rgb(245, 241, 237)" data-real-to-screen-transform="matrix(141.447161627,0,0,-141.447161627,360.6301494625,328.4214496762)" data-software-used-string="@tscircuit/core@0.0.555"><style>
              .boundary { fill: rgb(245, 241, 237); }
              .schematic-boundary { fill: none; stroke: #fff; }
              .component { fill: none; stroke: rgb(132, 0, 0); }
              .chip { fill: rgb(255, 255, 194); stroke: rgb(132, 0, 0); }
              .component-pin { fill: none; stroke: rgb(132, 0, 0); }
              .trace:hover {
                filter: invert(1);
              }
              .trace:hover .trace-crossing-outline {
                opacity: 0;
              }
              .trace:hover .trace-junction {
                filter: invert(1);
              }
              .text { font-family: sans-serif; fill: rgb(0, 150, 0); }
              .pin-number { fill: rgb(169, 0, 0); }
              .port-label { fill: rgb(0, 100, 100); }
              .component-name { fill: rgb(0, 100, 100); }
            </style><rect class="boundary" x="0" y="0" width="1200" height="600"/><g data-circuit-json-type="schematic_component" data-schematic-component-id="schematic_component_0"><rect class="component chip" x="332.3407171371" y="158.68485572379998" width="56.57886465080003" height="339.47318790480006" stroke-width="2.8289432325400004px" fill="rgb(255, 255, 194)" stroke="rgb(132, 0, 0)"/><rect class="component-overlay" x="332.3407171371" y="158.68485572379998" width="56.57886465080003" height="339.47318790480006" fill="transparent"/><text x="332.3407171371" y="516.54617464011" fill="#006464" text-anchor="start" dominant-baseline="middle" font-family="sans-serif" font-size="25.46048909286px" transform="rotate(0, 332.3407171371, 516.54617464011)"></text><text x="332.3407171371" y="140.29672471228994" fill="#006464" text-anchor="start" dominant-baseline="middle" font-family="sans-serif" font-size="25.46048909286px" transform="rotate(0, 332.3407171371, 140.29672471228994)">U1</text><line class="component-pin" x1="442.66950320616" y1="186.97428804919997" x2="388.91958178790003" y2="186.97428804919997" stroke-width="2.8289432325400004px"/><text class="pin-number" x="417.20901411330004" y="184.14534481665996" style="font-family: sans-serif;" fill="rgb(169, 0, 0)" text-anchor="middle" dominant-baseline="auto" font-size="21.21707424405px" transform="">1</text></g><g data-circuit-json-type="schematic_component" data-schematic-component-id="schematic_component_1"><rect class="component-overlay" x="475.08428443456" y="168.81042151244955" width="124.64282862894368" height="36.41912208462787" fill="transparent"/><path d="M 511.8123271201814 187.09057176077349 L 475.08428443456 187.09057176077349" stroke="rgb(132, 0, 0)" fill="none" stroke-width="2.8289432325400004px" stroke-linecap="round"/><path d="M 599.7271130635037 186.84803231273156 L 563.1959931162995 186.84803231273156" stroke="rgb(132, 0, 0)" fill="none" stroke-width="2.8289432325400004px" stroke-linecap="round"/><path d="M 546.9187912554785 186.8491356005923 L 528.0874638524426 186.8491356005923" stroke="rgb(132, 0, 0)" fill="none" stroke-width="2.8289432325400004px" stroke-linecap="round"/><path d="M 547.1875832967182 169.1070220656651 L 547.1875832967182 204.74981140370323" stroke="rgb(132, 0, 0)" fill="none" stroke-width="2.8289432325400004px" stroke-linecap="round"/><path d="M 527.8077945244736 169.09340070400043 L 527.8077945244736 204.73619004203854" stroke="rgb(132, 0, 0)" fill="none" stroke-width="2.8289432325400004px" stroke-linecap="round"/><path d="M 527.150659300987 205.21160809698318 L 527.150659300987 205.21160809698318 L 524.9403005443592 204.01965375665048 L 522.9518926615607 202.78399235967603 L 521.1779871425014 201.50914853986885 L 519.6111354770916 200.19964693103796 L 518.2438891552413 198.86001216699236 L 517.0687996668605 197.4947688815411 L 516.0784185018595 196.10844170849316 L 515.2652971501482 194.70555528165758 L 514.6219871016368 193.2906342348434 L 514.1410398462356 191.86820320185956 L 513.8150068738543 190.44278681651514 L 513.6364396744033 189.01890971261915 L 513.5978897377926 187.6010965239806 L 513.6919085539322 186.19387188440848 L 513.9110476127324 184.80176042771183 L 514.2478584041031 183.42928678769968 L 514.6948924179546 182.08097559818103 L 515.2447011441969 180.76135149296488 L 515.8898360727401 179.47493910586027 L 516.6228486934942 178.22626307067623 L 517.4362904963696 177.01984802122175 L 518.3227129712761 175.86021859130582 L 519.2746676081239 174.75189941473752 L 520.2847058968231 173.69941512532583 L 521.3453793272838 172.70729035687978 L 522.4492393894161 171.78004974320837 L 523.5888375731301 170.92221791812062 L 524.7567253683359 170.13831951542556 L 525.9454542649437 169.4328791689322 L 527.1475757528634 168.81042151244955 L 527.1475757528634 168.81042151244955" stroke="rgb(132, 0, 0)" fill="none" stroke-width="2.8289432325400004px" stroke-linecap="round"/><path d="M 547.8341665619478 205.22954359707742 L 547.8341665619478 205.22954359707742 L 550.0445253185754 204.03758925674472 L 552.032933201374 202.80192785977027 L 553.8068387204332 201.52708403996309 L 555.3736903858431 200.2175824311322 L 556.7409367076934 198.87794766708663 L 557.9160261960742 197.51270438163536 L 558.9064073610753 196.12637720858743 L 559.7195287127864 194.72349078175185 L 560.3628387612978 193.30856973493763 L 560.8437860166991 191.88613870195383 L 561.1698189890803 190.4607223166094 L 561.3483861885314 189.03684521271342 L 561.3869361251421 187.61903202407484 L 561.2929173090024 186.21180738450275 L 561.0737782502023 184.8196959278061 L 560.7369674588315 183.44722228779392 L 560.28993344498 182.09891109827527 L 559.7401247187378 180.77928699305915 L 559.0949897901945 179.49287460595454 L 558.3619771694404 178.2441985707705 L 557.548535366565 177.037783521316 L 556.6621128916586 175.8781540914001 L 555.7101582548107 174.7698349148318 L 554.7001199661115 173.7173506254201 L 553.6394465356509 172.72522585697402 L 552.5355864735185 171.79798524330263 L 551.3959882898046 170.9401534182149 L 550.2281004945987 170.1562550155198 L 549.039371597991 169.45081466902644 L 547.8372501100713 168.8283570125438 L 547.8372501100713 168.8283570125438" stroke="rgb(132, 0, 0)" fill="none" stroke-width="2.8289432325400004px" stroke-linecap="round"/><text x="534.5203110266447" y="161.64812130760487" fill="rgb(15, 15, 15)" font-family="sans-serif" text-anchor="middle" dominant-baseline="auto" font-size="25.46048909286px">JP1</text></g><g data-circuit-json-type="schematic_component" data-schematic-component-id="schematic_component_2"><rect class="component-overlay" x="606.010882001709" y="226.16394983333208" width="74.84911359781006" height="149.69824134033632" fill="transparent"/><path d="M 643.4354388006137 226.16394983333208 L 643.4354388006137 289.7856949769991" stroke="rgb(132, 0, 0)" fill="none" stroke-width="2.8289432325400004px" stroke-linecap="round"/><path d="M 643.4354388006137 312.2404318852853 L 643.4354388006137 375.8621911736684" stroke="rgb(132, 0, 0)" fill="none" stroke-width="2.8289432325400004px" stroke-linecap="round"/><path d="M 606.010882001709 289.78569497699914 L 680.859995599519 289.7856949769991" stroke="rgb(132, 0, 0)" fill="none" stroke-width="2.8289432325400004px" stroke-linecap="round"/><path d="M 606.010882001709 312.2404318852853 L 680.859995599519 312.2404318852853" stroke="rgb(132, 0, 0)" fill="none" stroke-width="2.8289432325400004px" stroke-linecap="round"/><text x="675.5069419124615" y="271.9484183553999" fill="rgb(15, 15, 15)" font-family="sans-serif" text-anchor="start" dominant-baseline="auto" font-size="25.46048909286px">C1</text><text x="675.5069419124615" y="328.31561634619993" fill="rgb(15, 15, 15)" font-family="sans-serif" text-anchor="start" dominant-baseline="hanging" font-size="25.46048909286px">100nF</text></g><g data-circuit-json-type="schematic_component" data-schematic-component-id="schematic_component_3"><rect class="component-overlay" x="712.096253221959" y="226.16394983333208" width="74.84911359781006" height="149.69824134033632" fill="transparent"/><path d="M 749.5208100208638 226.16394983333208 L 749.5208100208638 289.7856949769991" stroke="rgb(132, 0, 0)" fill="none" stroke-width="2.8289432325400004px" stroke-linecap="round"/><path d="M 749.5208100208638 312.2404318852853 L 749.5208100208638 375.8621911736684" stroke="rgb(132, 0, 0)" fill="none" stroke-width="2.8289432325400004px" stroke-linecap="round"/><path d="M 712.096253221959 289.78569497699914 L 786.9453668197691 289.7856949769991" stroke="rgb(132, 0, 0)" fill="none" stroke-width="2.8289432325400004px" stroke-linecap="round"/><path d="M 712.096253221959 312.2404318852853 L 786.9453668197691 312.2404318852853" stroke="rgb(132, 0, 0)" fill="none" stroke-width="2.8289432325400004px" stroke-linecap="round"/><text x="781.5923131327115" y="271.9484183553999" fill="rgb(15, 15, 15)" font-family="sans-serif" text-anchor="start" dominant-baseline="auto" font-size="25.46048909286px">C2</text><text x="781.5923131327115" y="328.31561634619993" fill="rgb(15, 15, 15)" font-family="sans-serif" text-anchor="start" dominant-baseline="hanging" font-size="25.46048909286px">100nF</text></g><g data-circuit-json-type="schematic_component" data-schematic-component-id="schematic_component_4"><rect class="component-overlay" x="818.1816244422091" y="226.16394983333208" width="74.84911359781006" height="149.69824134033632" fill="transparent"/><path d="M 855.6061812411139 226.16394983333208 L 855.6061812411139 289.7856949769991" stroke="rgb(132, 0, 0)" fill="none" stroke-width="2.8289432325400004px" stroke-linecap="round"/><path d="M 855.6061812411139 312.2404318852853 L 855.6061812411139 375.8621911736684" stroke="rgb(132, 0, 0)" fill="none" stroke-width="2.8289432325400004px" stroke-linecap="round"/><path d="M 818.1816244422091 289.78569497699914 L 893.0307380400192 289.7856949769991" stroke="rgb(132, 0, 0)" fill="none" stroke-width="2.8289432325400004px" stroke-linecap="round"/><path d="M 818.1816244422091 312.2404318852853 L 893.0307380400192 312.2404318852853" stroke="rgb(132, 0, 0)" fill="none" stroke-width="2.8289432325400004px" stroke-linecap="round"/><text x="887.6776843529616" y="271.9484183553999" fill="rgb(15, 15, 15)" font-family="sans-serif" text-anchor="start" dominant-baseline="auto" font-size="25.46048909286px">C3</text><text x="887.6776843529616" y="328.31561634619993" fill="rgb(15, 15, 15)" font-family="sans-serif" text-anchor="start" dominant-baseline="hanging" font-size="25.46048909286px">100nF</text></g><g class="trace" data-circuit-json-type="schematic_trace" data-schematic-trace-id="schematic_trace_0"><path d="M 600.496359307296 186.98308606265314 L 855.6952151570001 186.98308606265314 L 855.6952151570001 151.61249764244997" class="trace-invisible-hover-outline" stroke="rgb(0, 150, 0)" fill="none" stroke-width="22.631545860320003px" stroke-linecap="round" opacity="0" stroke-linejoin="round"/><path d="M 600.496359307296 186.98308606265314 L 855.6952151570001 186.98308606265314 L 855.6952151570001 151.61249764244997" stroke="rgb(0, 150, 0)" fill="none" stroke-width="2.8289432325400004px" stroke-linecap="round" stroke-linejoin="round"/></g><g class="trace" data-circuit-json-type="schematic_trace" data-schematic-trace-id="schematic_trace_1"><path d="M 474.3818436852041 186.96549003574674 L 459.9401450619521 186.96549003574674 L 459.9401450619521 186.97428804919997 L 445.49844643870006 186.97428804919997" class="trace-invisible-hover-outline" stroke="rgb(0, 150, 0)" fill="none" stroke-width="22.631545860320003px" stroke-linecap="round" opacity="0" stroke-linejoin="round"/><path d="M 474.3818436852041 186.96549003574674 L 459.9401450619521 186.96549003574674 L 459.9401450619521 186.97428804919997 L 445.49844643870006 186.97428804919997" stroke="rgb(0, 150, 0)" fill="none" stroke-width="2.8289432325400004px" stroke-linecap="round" stroke-linejoin="round"/></g><g class="trace" data-circuit-json-type="schematic_trace" data-schematic-trace-id="schematic_trace_2"><path d="M 643.4858081348693 222.16502640339442 L 621.9910837210826 222.16502640339442 L 621.9910837210826 186.98308606265314 L 600.496359307296 186.98308606265314" class="trace-invisible-hover-outline" stroke="rgb(0, 150, 0)" fill="none" stroke-width="22.631545860320003px" stroke-linecap="round" opacity="0" stroke-linejoin="round"/><path d="M 643.4858081348693 222.16502640339442 L 621.9910837210826 222.16502640339442 L 621.9910837210826 186.98308606265314 L 600.496359307296 186.98308606265314" stroke="rgb(0, 150, 0)" fill="none" stroke-width="2.8289432325400004px" stroke-linecap="round" stroke-linejoin="round"/><circle cx="621.9910837210826" cy="186.98308606265314" r="4.2434148488100005" class="trace-junction" fill="rgb(0, 150, 0)"/></g><g class="trace" data-circuit-json-type="schematic_trace" data-schematic-trace-id="schematic_trace_3"><path d="M 749.5711793551193 222.16502640339442 L 675.0337693312076 222.16502640339442 L 675.0337693312076 186.98308606265314 L 600.496359307296 186.98308606265314" class="trace-invisible-hover-outline" stroke="rgb(0, 150, 0)" fill="none" stroke-width="22.631545860320003px" stroke-linecap="round" opacity="0" stroke-linejoin="round"/><path d="M 749.5711793551193 222.16502640339442 L 675.0337693312076 222.16502640339442 L 675.0337693312076 186.98308606265314 L 600.496359307296 186.98308606265314" stroke="rgb(0, 150, 0)" fill="none" stroke-width="2.8289432325400004px" stroke-linecap="round" stroke-linejoin="round"/><circle cx="675.0337693312076" cy="186.98308606265314" r="4.2434148488100005" class="trace-junction" fill="rgb(0, 150, 0)"/></g><g class="trace" data-circuit-json-type="schematic_trace" data-schematic-trace-id="schematic_trace_4"><path d="M 855.6565505753694 222.16502640339442 L 799.0776859245693 222.16502640339442 L 799.0776859245693 186.98308606265314 L 600.496359307296 186.98308606265314" class="trace-invisible-hover-outline" stroke="rgb(0, 150, 0)" fill="none" stroke-width="22.631545860320003px" stroke-linecap="round" opacity="0" stroke-linejoin="round"/><path d="M 855.6565505753694 222.16502640339442 L 799.0776859245693 222.16502640339442 L 799.0776859245693 186.98308606265314 L 600.496359307296 186.98308606265314" stroke="rgb(0, 150, 0)" fill="none" stroke-width="2.8289432325400004px" stroke-linecap="round" stroke-linejoin="round"/><circle cx="799.0776859245693" cy="186.98308606265314" r="4.2434148488100005" class="trace-junction" fill="rgb(0, 150, 0)"/></g><g class="trace" data-circuit-json-type="schematic_trace" data-schematic-trace-id="schematic_trace_5"><path d="M 643.5631372981306 378.09900829820555 L 643.5244727165 378.09900829820555 L 643.5244727165 406.21738857105" class="trace-invisible-hover-outline" stroke="rgb(0, 150, 0)" fill="none" stroke-width="22.631545860320003px" stroke-linecap="round" opacity="0" stroke-linejoin="round"/><path d="M 643.5631372981306 378.09900829820555 L 643.5244727165 378.09900829820555 L 643.5244727165 406.21738857105" stroke="rgb(0, 150, 0)" fill="none" stroke-width="2.8289432325400004px" stroke-linecap="round" stroke-linejoin="round"/></g><g class="trace" data-circuit-json-type="schematic_trace" data-schematic-trace-id="schematic_trace_6"><path d="M 749.6485085183806 378.09900829820555 L 749.60984393675 378.09900829820555 L 749.60984393675 406.21738857105" class="trace-invisible-hover-outline" stroke="rgb(0, 150, 0)" fill="none" stroke-width="22.631545860320003px" stroke-linecap="round" opacity="0" stroke-linejoin="round"/><path d="M 749.6485085183806 378.09900829820555 L 749.60984393675 378.09900829820555 L 749.60984393675 406.21738857105" stroke="rgb(0, 150, 0)" fill="none" stroke-width="2.8289432325400004px" stroke-linecap="round" stroke-linejoin="round"/></g><g class="trace" data-circuit-json-type="schematic_trace" data-schematic-trace-id="schematic_trace_7"><path d="M 855.7338797386307 378.09900829820555 L 855.6952151570001 378.09900829820555 L 855.6952151570001 406.21738857105" class="trace-invisible-hover-outline" stroke="rgb(0, 150, 0)" fill="none" stroke-width="22.631545860320003px" stroke-linecap="round" opacity="0" stroke-linejoin="round"/><path d="M 855.7338797386307 378.09900829820555 L 855.6952151570001 378.09900829820555 L 855.6952151570001 406.21738857105" stroke="rgb(0, 150, 0)" fill="none" stroke-width="2.8289432325400004px" stroke-linecap="round" stroke-linejoin="round"/></g><rect class="component-overlay" x="842.4861012448819" y="91.56698937563073" width="26.207259382669463" height="57.93136826556133" fill="transparent"/><path d="M 855.3827017981017 91.56698937563073 L 842.4861012448819 118.59339756071482" stroke="rgb(132, 0, 0)" fill="none" stroke-width="2.8289432325400004px" stroke-linecap="round"/><path d="M 855.796760074332 91.58107751292877 L 868.6933606275513 118.60755642159369" stroke="rgb(132, 0, 0)" fill="none" stroke-width="2.8289432325400004px" stroke-linecap="round"/><path d="M 855.5319426983341 92.28012353040563 L 855.5319426983341 149.49835764119206" stroke="rgb(132, 0, 0)" fill="none" stroke-width="2.8289432325400004px" stroke-linecap="round"/><text x="854.8992636890925" y="83.2780159676947" fill="rgb(15, 15, 15)" font-family="sans-serif" text-anchor="middle" dominant-baseline="ideographic" font-size="25.46048909286px">V3_3</text><rect class="component-overlay" x="610.9576782234996" y="406.06413057142714" width="63.55522254355367" height="68.3797164770437" fill="transparent"/><path d="M 643.3708328095408 406.06413057142714 L 643.3708328095408 452.68983937888464" stroke="rgb(132, 0, 0)" fill="none" stroke-width="2.8289432325400004px" stroke-linecap="round"/><path d="M 610.9576782234996 452.6851999119833 L 674.5129007670532 452.6851999119833" stroke="rgb(132, 0, 0)" fill="none" stroke-width="2.8289432325400004px" stroke-linecap="round"/><path d="M 618.9020863457124 463.56452348022714 L 666.5684926448404 463.56452348022714" stroke="rgb(132, 0, 0)" fill="none" stroke-width="2.8289432325400004px" stroke-linecap="round"/><path d="M 634.7908884454218 474.44384704847084 L 650.6796905451312 474.44384704847084" stroke="rgb(132, 0, 0)" fill="none" stroke-width="2.8289432325400004px" stroke-linecap="round"/><text x="640.324739894471" y="491.01168039228673" fill="rgb(15, 15, 15)" font-family="sans-serif" text-anchor="middle" dominant-baseline="hanging" font-size="25.46048909286px">GND</text><rect class="component-overlay" x="717.0430494437495" y="406.06413057142714" width="63.55522254355367" height="68.3797164770437" fill="transparent"/><path d="M 749.4562040297908 406.06413057142714 L 749.4562040297908 452.68983937888464" stroke="rgb(132, 0, 0)" fill="none" stroke-width="2.8289432325400004px" stroke-linecap="round"/><path d="M 717.0430494437495 452.6851999119833 L 780.5982719873032 452.6851999119833" stroke="rgb(132, 0, 0)" fill="none" stroke-width="2.8289432325400004px" stroke-linecap="round"/><path d="M 724.9874575659624 463.56452348022714 L 772.6538638650903 463.56452348022714" stroke="rgb(132, 0, 0)" fill="none" stroke-width="2.8289432325400004px" stroke-linecap="round"/><path d="M 740.8762596656718 474.44384704847084 L 756.7650617653811 474.44384704847084" stroke="rgb(132, 0, 0)" fill="none" stroke-width="2.8289432325400004px" stroke-linecap="round"/><text x="746.410111114721" y="491.01168039228673" fill="rgb(15, 15, 15)" font-family="sans-serif" text-anchor="middle" dominant-baseline="hanging" font-size="25.46048909286px">GND</text><rect class="component-overlay" x="823.1284206639996" y="406.06413057142714" width="63.55522254355367" height="68.3797164770437" fill="transparent"/><path d="M 855.5415752500409 406.06413057142714 L 855.5415752500409 452.68983937888464" stroke="rgb(132, 0, 0)" fill="none" stroke-width="2.8289432325400004px" stroke-linecap="round"/><path d="M 823.1284206639996 452.6851999119833 L 886.6836432075532 452.6851999119833" stroke="rgb(132, 0, 0)" fill="none" stroke-width="2.8289432325400004px" stroke-linecap="round"/><path d="M 831.0728287862124 463.56452348022714 L 878.7392350853404 463.56452348022714" stroke="rgb(132, 0, 0)" fill="none" stroke-width="2.8289432325400004px" stroke-linecap="round"/><path d="M 846.9616308859219 474.44384704847084 L 862.8504329856312 474.44384704847084" stroke="rgb(132, 0, 0)" fill="none" stroke-width="2.8289432325400004px" stroke-linecap="round"/><text x="852.495482334971" y="491.01168039228673" fill="rgb(15, 15, 15)" font-family="sans-serif" text-anchor="middle" dominant-baseline="hanging" font-size="25.46048909286px">GND</text></svg>