<svg xmlns="http://www.w3.org/2000/svg" width="1200" height="600" style="background-color: rgb(245, 241, 237)" data-real-to-screen-transform="matrix(121.9611350516,0,0,-121.9611350516,372.8002422191,216.0988698268)" data-software-used-string="@tscircuit/core@0.0.586"><style>
              .boundary { fill: rgb(245, 241, 237); }
              .schematic-boundary { fill: none; stroke: #fff; }
              .component { fill: none; stroke: rgb(132, 0, 0); }
              .chip { fill: rgb(255, 255, 194); stroke: rgb(132, 0, 0); }
              .component-pin { fill: none; stroke: rgb(132, 0, 0); }
              .trace:hover {
                filter: invert(1);
              }
              .trace:hover .trace-crossing-outline {
                opacity: 0;
              }
              .trace:hover .trace-junction {
                filter: invert(1);
              }
              .text { font-family: sans-serif; fill: rgb(0, 150, 0); }
              .pin-number { fill: rgb(169, 0, 0); }
              .port-label { fill: rgb(0, 100, 100); }
              .component-name { fill: rgb(0, 100, 100); }
            </style><rect class="boundary" x="0" y="0" width="1200" height="600"/><g data-circuit-json-type="schematic_component" data-schematic-component-id="schematic_component_0"><rect class="component chip" x="348.40801520878006" y="167.31441580616" width="48.78445402063994" height="97.56890804128" stroke-width="2.439222701032px" fill="rgb(255, 255, 194)" stroke="rgb(132, 0, 0)"/><rect class="component-overlay" x="348.40801520878006" y="167.31441580616" width="48.78445402063994" height="97.56890804128" fill="transparent"/><text x="348.40801520878006" y="280.738271404148" fill="#006464" text-anchor="start" dominant-baseline="middle" font-family="sans-serif" font-size="21.953004309287998px" transform="rotate(0, 348.40801520878006, 280.738271404148)"></text><text x="348.40801520878006" y="151.45946824945202" fill="#006464" text-anchor="start" dominant-baseline="middle" font-family="sans-serif" font-size="21.953004309287998px" transform="rotate(0, 348.40801520878006, 151.45946824945202)">U1</text><line class="component-pin" x1="443.53770054902805" y1="191.70664281648" x2="397.19246922942006" y2="191.70664281648" stroke-width="2.439222701032px"/><g data-schematic-port-id="source_port_0"><rect x="443.53770054902805" y="189.267420115448" width="4.878445402064" height="4.878445402064" opacity="0"/></g><text class="pin-number" x="421.58469623974" y="189.267420115448" style="font-family: sans-serif;" fill="rgb(169, 0, 0)" text-anchor="middle" dominant-baseline="auto" font-size="18.29417025774px" transform="">1</text><line class="component-pin" x1="443.53770054902805" y1="216.0988698268" x2="397.19246922942006" y2="216.0988698268" stroke-width="2.439222701032px"/><g data-schematic-port-id="source_port_1"><rect x="443.53770054902805" y="213.659647125768" width="4.878445402064" height="4.878445402064" opacity="0"/></g><text class="pin-number" x="421.58469623974" y="213.659647125768" style="font-family: sans-serif;" fill="rgb(169, 0, 0)" text-anchor="middle" dominant-baseline="auto" font-size="18.29417025774px" transform="">2</text><line class="component-pin" x1="443.53770054902805" y1="240.49109683712" x2="397.19246922942006" y2="240.49109683712" stroke-width="2.439222701032px"/><g data-schematic-port-id="source_port_2"><rect x="443.53770054902805" y="238.051874136088" width="4.878445402064" height="4.878445402064" opacity="0"/></g><text class="pin-number" x="421.58469623974" y="238.051874136088" style="font-family: sans-serif;" fill="rgb(169, 0, 0)" text-anchor="middle" dominant-baseline="auto" font-size="18.29417025774px" transform="">3</text></g><g data-circuit-json-type="schematic_component" data-schematic-component-id="schematic_component_1"><rect class="component-overlay" x="547.7827391492629" y="314.42435727878603" width="32.26889177981138" height="129.07553053090544" fill="transparent"/><path d="M 563.9171850391685 443.4998878096915 L 563.9171850391685 411.2310082259935" stroke="rgb(132, 0, 0)" fill="none" stroke-width="2.439222701032px" stroke-linecap="round"/><path d="M 563.9171850391685 346.6932490585974 L 563.9171850391685 314.42435727878603" stroke="rgb(132, 0, 0)" fill="none" stroke-width="2.439222701032px" stroke-linecap="round"/><path d="M 547.7827391492629 378.962140838409 L 547.7827391492629 346.69326125471105 L 580.0516309290742 346.69326125471105 L 580.0516309290742 411.23103261822064 L 547.7827391492629 411.23103261822064 L 547.7827391492629 378.96214083840925" stroke="rgb(132, 0, 0)" fill="none" stroke-width="2.439222701032px" stroke-linecap="round"/><text x="597.5317167084019" y="361.5602016563661" fill="rgb(15, 15, 15)" font-family="sans-serif" text-anchor="start" dominant-baseline="middle" font-size="21.953004309287998px">R7</text><text x="597.5317167084019" y="400.5877648728781" fill="rgb(15, 15, 15)" font-family="sans-serif" text-anchor="start" dominant-baseline="middle" font-size="21.953004309287998px">2.2kΩ</text></g><g data-circuit-json-type="schematic_component" data-schematic-component-id="schematic_component_2"><rect class="component-overlay" x="702.7051124103377" y="314.42435727878603" width="32.26889177981138" height="129.07553053090544" fill="transparent"/><path d="M 718.8395583002434 443.4998878096915 L 718.8395583002434 411.2310082259935" stroke="rgb(132, 0, 0)" fill="none" stroke-width="2.439222701032px" stroke-linecap="round"/><path d="M 718.8395583002434 346.6932490585974 L 718.8395583002434 314.42435727878603" stroke="rgb(132, 0, 0)" fill="none" stroke-width="2.439222701032px" stroke-linecap="round"/><path d="M 702.7051124103377 378.962140838409 L 702.7051124103377 346.69326125471105 L 734.9740041901491 346.69326125471105 L 734.9740041901491 411.23103261822064 L 702.7051124103377 411.23103261822064 L 702.7051124103377 378.96214083840925" stroke="rgb(132, 0, 0)" fill="none" stroke-width="2.439222701032px" stroke-linecap="round"/><text x="752.4540899694767" y="361.5602016563661" fill="rgb(15, 15, 15)" font-family="sans-serif" text-anchor="start" dominant-baseline="middle" font-size="21.953004309287998px">R8</text><text x="752.4540899694767" y="400.5877648728781" fill="rgb(15, 15, 15)" font-family="sans-serif" text-anchor="start" dominant-baseline="middle" font-size="21.953004309287998px">2.2kΩ</text></g><g data-circuit-json-type="schematic_component" data-schematic-component-id="schematic_component_3"><rect class="component-overlay" x="808.9304614965955" y="175.4014812202401" width="64.53775916739596" height="129.0755305309055" fill="transparent"/><path d="M 841.1993410802933 175.4014812202401 L 841.1993410802933 230.2585752929154" stroke="rgb(132, 0, 0)" fill="none" stroke-width="2.439222701032px" stroke-linecap="round"/><path d="M 841.1993410802933 249.61990548235687 L 841.1993410802933 304.4770117511456" stroke="rgb(132, 0, 0)" fill="none" stroke-width="2.439222701032px" stroke-linecap="round"/><path d="M 808.9304614965955 230.25857529291542 L 873.4682206639915 230.2585752929154" stroke="rgb(132, 0, 0)" fill="none" stroke-width="2.439222701032px" stroke-linecap="round"/><path d="M 808.9304614965955 249.61990548235687 L 873.4682206639915 249.61990548235687" stroke="rgb(132, 0, 0)" fill="none" stroke-width="2.439222701032px" stroke-linecap="round"/><text x="868.8526137040773" y="214.89317518930673" fill="rgb(15, 15, 15)" font-family="sans-serif" text-anchor="start" dominant-baseline="auto" font-size="21.953004309287998px">C16</text><text x="868.8526137040773" y="263.46596254994677" fill="rgb(15, 15, 15)" font-family="sans-serif" text-anchor="start" dominant-baseline="hanging" font-size="21.953004309287998px">4.7µF</text></g><g data-circuit-json-type="schematic_component" data-schematic-component-id="schematic_component_4"><rect class="component-overlay" x="586.1138709403099" y="211.05304489913166" width="107.85034149115143" height="58.43381169199287" fill="transparent"/><path d="M 666.8598624843178 253.7250141649149 L 693.9642124314613 253.7250141649149" stroke="rgb(132, 0, 0)" fill="none" stroke-width="2.439222701032px" stroke-linecap="round"/><path d="M 586.1138709403099 253.934140923188 L 613.1519472066664 253.934140923188" stroke="rgb(132, 0, 0)" fill="none" stroke-width="2.439222701032px" stroke-linecap="round"/><path d="M 625.4334578985895 253.93318962633455 L 634.5332221070595 253.93318962633455" stroke="rgb(132, 0, 0)" fill="none" stroke-width="2.439222701032px" stroke-linecap="round"/><path d="M 640.3290347747544 238.15739484627508 L 640.3290347747544 211.05304489913166" stroke="rgb(132, 0, 0)" fill="none" stroke-width="2.439222701032px" stroke-linecap="round"/><path d="M 625.3533050406335 269.2311162870349 L 625.3533050406335 238.49854453324147" stroke="rgb(132, 0, 0)" fill="none" stroke-width="2.439222701032px" stroke-linecap="round"/><path d="M 634.7557767863015 268.7058418744811 L 634.7557767863015 239.00539061828886" stroke="rgb(132, 0, 0)" fill="none" stroke-width="2.439222701032px" stroke-linecap="round"/><path d="M 645.6745303434986 268.7397836583659 L 645.6745303434986 239.07498164194917" stroke="rgb(132, 0, 0)" fill="none" stroke-width="2.439222701032px" stroke-linecap="round"/><path d="M 634.993381469609 268.7947881302743 L 645.5774980644516 268.7947881302743" stroke="rgb(132, 0, 0)" fill="none" stroke-width="2.439222701032px" stroke-linecap="round"/><path d="M 635.017066322036 238.9655337193539 L 645.5336774286274 238.9655337193539" stroke="rgb(132, 0, 0)" fill="none" stroke-width="2.439222701032px" stroke-linecap="round"/><path d="M 654.7691721842965 269.24286114434034 L 654.7691721842965 238.51028939054694" stroke="rgb(132, 0, 0)" fill="none" stroke-width="2.439222701032px" stroke-linecap="round"/><path d="M 655.3357792255192 238.1003658195249 L 655.3357792255192 238.1003658195249 L 657.2416348095319 239.1281142918485 L 658.9561158888423 240.19354865462387 L 660.4856448528047 241.2927675960913 L 661.8366440907731 242.42186980449097 L 663.0155359921018 243.57695396806315 L 664.0287429461448 244.75411877504806 L 664.8826873422563 245.94946291368595 L 665.5837915697904 247.15908507221707 L 666.1384780181013 248.37908393888162 L 666.5531690765432 249.60555820191988 L 666.8342871344702 250.83460654957204 L 666.9882545812363 252.06232767007836 L 667.0214938061958 253.2848202516791 L 666.940427198703 254.49818298261448 L 666.7514771481117 255.6985145511247 L 666.4610660437763 256.8819136454501 L 666.0756162750508 258.0444789538308 L 665.6015502312895 259.18230916450705 L 665.0452903018464 260.2915029657192 L 664.4132588760757 261.36815904570733 L 663.7118783433316 262.4083760927118 L 662.9475710929682 263.4082527949728 L 662.1267595143396 264.36388784073057 L 661.2558659968 265.27137991822536 L 660.3413129297036 266.1268277156974 L 659.3895227024044 266.9263299213869 L 658.4069177042566 267.6659852235341 L 657.3999203246144 268.3418923103793 L 656.374952952832 268.9501498701627 L 655.3384379782634 269.48685659112454 L 655.3384379782634 269.48685659112454" stroke="rgb(132, 0, 0)" fill="none" stroke-width="2.439222701032px" stroke-linecap="round"/><path d="M 624.7957963000857 238.0849011476004 L 624.7957963000857 238.0849011476004 L 622.8899407160729 239.11264961992399 L 621.1754596367625 240.17808398269938 L 619.6459306728002 241.2773029241668 L 618.2949314348317 242.40640513256648 L 617.1160395335031 243.56148929613866 L 616.1028325794601 244.73865410312357 L 615.2488881833486 245.93399824176146 L 614.5477839558145 247.14362040029258 L 613.9930975075035 248.36361926695713 L 613.5784064490617 249.59009352999539 L 613.2972883911348 250.81914187764755 L 613.1433209443686 252.04686299815387 L 613.110081719409 253.2693555797546 L 613.191148326902 254.48271831069 L 613.3800983774931 255.6830498792002 L 613.6705094818286 256.86644897352556 L 614.055959250554 258.02901428190626 L 614.5300252943154 259.1668444925826 L 615.0862852237584 260.27603829379467 L 615.7183166495291 261.35269437378287 L 616.4196971822732 262.3929114207873 L 617.1840044326367 263.3927881230483 L 618.0048160112653 264.3484231688061 L 618.8757095288049 265.25591524630084 L 619.7902625959014 266.1113630437729 L 620.7420528232005 266.9108652494624 L 621.7246578213483 267.65052055160965 L 622.7316552009905 268.32642763845485 L 623.7566225727729 268.9346851982382 L 624.7931375473415 269.4713919192 L 624.7931375473415 269.4713919192" stroke="rgb(132, 0, 0)" fill="none" stroke-width="2.439222701032px" stroke-linecap="round"/><text x="642.5276037641027" y="275.6367535260632" fill="rgb(15, 15, 15)" font-family="sans-serif" text-anchor="middle" dominant-baseline="hanging" font-size="21.953004309287998px">JP1</text></g><g class="trace" data-circuit-json-type="schematic_trace" data-schematic-trace-id="schematic_trace_0"><path d="M 445.97692325006005 191.70664281648 L 643.6098473452727 191.70664281648 L 643.6098473452727 132.42687217158633 L 841.2427714404853 132.42687217158633 L 841.2427714404853 171.95345699062884" class="trace-invisible-hover-outline" stroke="rgb(0, 150, 0)" fill="none" stroke-width="19.513781608256px" stroke-linecap="round" opacity="0" stroke-linejoin="round"/><path d="M 445.97692325006005 191.70664281648 L 643.6098473452727 191.70664281648 L 643.6098473452727 132.42687217158633 L 841.2427714404853 132.42687217158633 L 841.2427714404853 171.95345699062884" stroke="rgb(0, 150, 0)" fill="none" stroke-width="2.439222701032px" stroke-linecap="round" stroke-linejoin="round"/></g><g class="trace" data-circuit-json-type="schematic_trace" data-schematic-trace-id="schematic_trace_1"><path d="M 564.0272793557798 311.70362388582794 L 564.0272793557798 253.8176924314406 L 585.6405397751747 253.8176924314406" class="trace-invisible-hover-outline" stroke="rgb(0, 150, 0)" fill="none" stroke-width="19.513781608256px" stroke-linecap="round" opacity="0" stroke-linejoin="round"/><path d="M 564.0272793557798 311.70362388582794 L 564.0272793557798 253.8176924314406 L 585.6405397751747 253.8176924314406" stroke="rgb(0, 150, 0)" fill="none" stroke-width="2.439222701032px" stroke-linecap="round" stroke-linejoin="round"/></g><g class="trace" data-circuit-json-type="schematic_trace" data-schematic-trace-id="schematic_trace_2"><path d="M 718.9496526168547 311.70362388582794 L 718.9496526168547 253.832864396641 L 694.3812829249973 253.832864396641" class="trace-invisible-hover-outline" stroke="rgb(0, 150, 0)" fill="none" stroke-width="19.513781608256px" stroke-linecap="round" opacity="0" stroke-linejoin="round"/><path d="M 718.9496526168547 311.70362388582794 L 718.9496526168547 253.832864396641 L 694.3812829249973 253.832864396641" stroke="rgb(0, 150, 0)" fill="none" stroke-width="2.439222701032px" stroke-linecap="round" stroke-linejoin="round"/></g><g class="trace" data-circuit-json-type="schematic_trace" data-schematic-trace-id="schematic_trace_3"><path d="M 640.4368972025943 210.6359012289146 L 445.97692325006005 210.6359012289146 L 445.97692325006005 216.0988698268" class="trace-invisible-hover-outline" stroke="rgb(0, 150, 0)" fill="none" stroke-width="19.513781608256px" stroke-linecap="round" opacity="0" stroke-linejoin="round"/><path d="M 640.4368972025943 210.6359012289146 L 445.97692325006005 210.6359012289146 L 445.97692325006005 216.0988698268" stroke="rgb(0, 150, 0)" fill="none" stroke-width="2.439222701032px" stroke-linecap="round" stroke-linejoin="round"/></g><g class="trace" data-circuit-json-type="schematic_trace" data-schematic-trace-id="schematic_trace_4"><path d="M 445.97692325006005 240.49109683712 L 494.7613772707 240.49109683712 L 494.7613772707 277.0794373526" class="trace-invisible-hover-outline" stroke="rgb(0, 150, 0)" fill="none" stroke-width="19.513781608256px" stroke-linecap="round" opacity="0" stroke-linejoin="round"/><path d="M 445.97692325006005 240.49109683712 L 494.7613772707 240.49109683712 L 494.7613772707 277.0794373526" stroke="rgb(0, 150, 0)" fill="none" stroke-width="2.439222701032px" stroke-linecap="round" stroke-linejoin="round"/></g><g class="trace" data-circuit-json-type="schematic_trace" data-schematic-trace-id="schematic_trace_5"><path d="M 841.3094475930178 306.4056807486247 L 841.1310008172441 306.4056807486247 L 841.1310008172441 338.06000487840004" class="trace-invisible-hover-outline" stroke="rgb(0, 150, 0)" fill="none" stroke-width="19.513781608256px" stroke-linecap="round" opacity="0" stroke-linejoin="round"/><path d="M 841.3094475930178 306.4056807486247 L 841.1310008172441 306.4056807486247 L 841.1310008172441 338.06000487840004" stroke="rgb(0, 150, 0)" fill="none" stroke-width="2.439222701032px" stroke-linecap="round" stroke-linejoin="round"/></g><g class="trace" data-circuit-json-type="schematic_trace" data-schematic-trace-id="schematic_trace_6"><path d="M 563.9606275954743 446.1757029166102 L 564.2792242501121 446.1757029166102 L 564.2792242501121 472.21725343516" class="trace-invisible-hover-outline" stroke="rgb(0, 150, 0)" fill="none" stroke-width="19.513781608256px" stroke-linecap="round" opacity="0" stroke-linejoin="round"/><path d="M 563.9606275954743 446.1757029166102 L 564.2792242501121 446.1757029166102 L 564.2792242501121 472.21725343516" stroke="rgb(0, 150, 0)" fill="none" stroke-width="2.439222701032px" stroke-linecap="round" stroke-linejoin="round"/></g><g class="trace" data-circuit-json-type="schematic_trace" data-schematic-trace-id="schematic_trace_7"><path d="M 718.8830008565492 446.1757029166102 L 718.5600600903861 446.1757029166102 L 718.5600600903861 472.21725343516" class="trace-invisible-hover-outline" stroke="rgb(0, 150, 0)" fill="none" stroke-width="19.513781608256px" stroke-linecap="round" opacity="0" stroke-linejoin="round"/><path d="M 718.8830008565492 446.1757029166102 L 718.5600600903861 446.1757029166102 L 718.5600600903861 472.21725343516" stroke="rgb(0, 150, 0)" fill="none" stroke-width="2.439222701032px" stroke-linecap="round" stroke-linejoin="round"/></g><g class="trace" data-circuit-json-type="schematic_trace" data-schematic-trace-id="schematic_trace_8"><path d="M 841.2427714404853 171.95345699062884 L 841.1310008172441 171.95345699062884 L 841.1310008172441 130.72607529068" class="trace-invisible-hover-outline" stroke="rgb(0, 150, 0)" fill="none" stroke-width="19.513781608256px" stroke-linecap="round" opacity="0" stroke-linejoin="round"/><path d="M 841.2427714404853 171.95345699062884 L 841.1310008172441 171.95345699062884 L 841.1310008172441 130.72607529068" stroke="rgb(0, 150, 0)" fill="none" stroke-width="2.439222701032px" stroke-linecap="round" stroke-linejoin="round"/></g><g class="schematic-port-hover" data-schematic-port-id="source_port_0"><circle cx="445.97692325006005" cy="191.70664281648" r="4.878445402064" fill="red" opacity="0"/></g><g class="schematic-port-hover" data-schematic-port-id="source_port_1"><circle cx="445.97692325006005" cy="216.0988698268" r="4.878445402064" fill="red" opacity="0"/></g><g class="schematic-port-hover" data-schematic-port-id="source_port_2"><circle cx="445.97692325006005" cy="240.49109683712" r="4.878445402064" fill="red" opacity="0"/></g><g class="schematic-port-hover" data-schematic-port-id="source_port_3"><circle cx="563.9606275954743" cy="446.1757029166102" r="4.878445402064" fill="red" opacity="0"/></g><g class="schematic-port-hover" data-schematic-port-id="source_port_4"><circle cx="564.0272793557798" cy="311.70362388582794" r="4.878445402064" fill="red" opacity="0"/></g><g class="schematic-port-hover" data-schematic-port-id="source_port_5"><circle cx="718.8830008565492" cy="446.1757029166102" r="4.878445402064" fill="red" opacity="0"/></g><g class="schematic-port-hover" data-schematic-port-id="source_port_6"><circle cx="718.9496526168547" cy="311.70362388582794" r="4.878445402064" fill="red" opacity="0"/></g><g class="schematic-port-hover" data-schematic-port-id="source_port_7"><circle cx="841.3094475930178" cy="306.4056807486247" r="4.878445402064" fill="red" opacity="0"/></g><g class="schematic-port-hover" data-schematic-port-id="source_port_8"><circle cx="841.2427714404853" cy="171.95345699062884" r="4.878445402064" fill="red" opacity="0"/></g><g class="schematic-port-hover" data-schematic-port-id="source_port_9"><circle cx="694.3812829249973" cy="253.832864396641" r="4.878445402064" fill="red" opacity="0"/></g><g class="schematic-port-hover" data-schematic-port-id="source_port_10"><circle cx="640.4368972025943" cy="210.6359012289146" r="4.878445402064" fill="red" opacity="0"/></g><g class="schematic-port-hover" data-schematic-port-id="source_port_11"><circle cx="585.6405397751747" cy="253.8176924314406" r="4.878445402064" fill="red" opacity="0"/></g><rect class="component-overlay" x="466.6810455364196" y="276.94729246277154" width="54.79973575086041" height="58.959598341314006" fill="transparent"/><path d="M 494.62890308580705 276.94729246277154 L 494.62890308580705 317.14975607768963" stroke="rgb(132, 0, 0)" fill="none" stroke-width="2.439222701032px" stroke-linecap="round"/><path d="M 466.6810455364196 317.14575575246 L 521.48078128728 317.14575575246" stroke="rgb(132, 0, 0)" fill="none" stroke-width="2.439222701032px" stroke-linecap="round"/><path d="M 473.53101707881984 326.5263232782728 L 514.6308097448798 326.5263232782728" stroke="rgb(132, 0, 0)" fill="none" stroke-width="2.439222701032px" stroke-linecap="round"/><path d="M 487.23094796750655 335.90689080408555 L 500.9308788561933 335.90689080408555" stroke="rgb(132, 0, 0)" fill="none" stroke-width="2.439222701032px" stroke-linecap="round"/><text x="492.00244565024377" y="350.19230831770096" fill="rgb(15, 15, 15)" font-family="sans-serif" text-anchor="middle" dominant-baseline="hanging" font-size="21.953004309287998px">GND</text><rect class="component-overlay" x="813.0506690829636" y="337.9278599885715" width="54.79973575086035" height="58.959598341314006" fill="transparent"/><path d="M 840.998526632351 337.9278599885715 L 840.998526632351 378.1303236034896" stroke="rgb(132, 0, 0)" fill="none" stroke-width="2.439222701032px" stroke-linecap="round"/><path d="M 813.0506690829636 378.12632327826 L 867.850404833824 378.12632327826" stroke="rgb(132, 0, 0)" fill="none" stroke-width="2.439222701032px" stroke-linecap="round"/><path d="M 819.9006406253637 387.5068908040728 L 861.0004332914237 387.5068908040728" stroke="rgb(132, 0, 0)" fill="none" stroke-width="2.439222701032px" stroke-linecap="round"/><path d="M 833.6005715140506 396.88745832988553 L 847.3005024027373 396.88745832988553" stroke="rgb(132, 0, 0)" fill="none" stroke-width="2.439222701032px" stroke-linecap="round"/><text x="838.3720691967877" y="411.17287584350095" fill="rgb(15, 15, 15)" font-family="sans-serif" text-anchor="middle" dominant-baseline="hanging" font-size="21.953004309287998px">GND</text><rect class="component-overlay" x="536.1988925158316" y="472.08510854533165" width="54.79973575086035" height="58.95959834131395" fill="transparent"/><path d="M 564.146750065219 472.08510854533165 L 564.146750065219 512.2875721602496" stroke="rgb(132, 0, 0)" fill="none" stroke-width="2.439222701032px" stroke-linecap="round"/><path d="M 536.1988925158316 512.28357183502 L 590.998628266692 512.28357183502" stroke="rgb(132, 0, 0)" fill="none" stroke-width="2.439222701032px" stroke-linecap="round"/><path d="M 543.0488640582317 521.6641393608329 L 584.1486567242918 521.6641393608329" stroke="rgb(132, 0, 0)" fill="none" stroke-width="2.439222701032px" stroke-linecap="round"/><path d="M 556.7487949469186 531.0447068866456 L 570.4487258356053 531.0447068866456" stroke="rgb(132, 0, 0)" fill="none" stroke-width="2.439222701032px" stroke-linecap="round"/><text x="561.5202926296557" y="545.330124400261" fill="rgb(15, 15, 15)" font-family="sans-serif" text-anchor="middle" dominant-baseline="hanging" font-size="21.953004309287998px">GND</text><rect class="component-overlay" x="690.4797283561056" y="472.08510854533165" width="54.79973575086035" height="58.95959834131395" fill="transparent"/><path d="M 718.427585905493 472.08510854533165 L 718.427585905493 512.2875721602496" stroke="rgb(132, 0, 0)" fill="none" stroke-width="2.439222701032px" stroke-linecap="round"/><path d="M 690.4797283561056 512.28357183502 L 745.279464106966 512.28357183502" stroke="rgb(132, 0, 0)" fill="none" stroke-width="2.439222701032px" stroke-linecap="round"/><path d="M 697.3296998985057 521.6641393608329 L 738.4294925645657 521.6641393608329" stroke="rgb(132, 0, 0)" fill="none" stroke-width="2.439222701032px" stroke-linecap="round"/><path d="M 711.0296307871926 531.0447068866456 L 724.7295616758793 531.0447068866456" stroke="rgb(132, 0, 0)" fill="none" stroke-width="2.439222701032px" stroke-linecap="round"/><text x="715.8011284699297" y="545.330124400261" fill="rgb(15, 15, 15)" font-family="sans-serif" text-anchor="middle" dominant-baseline="hanging" font-size="21.953004309287998px">GND</text><rect class="component-overlay" x="829.7415992398827" y="78.95254898774132" width="22.59689812179272" height="49.95063419788997" fill="transparent"/><path d="M 840.8615398854612 78.95254898774132 L 829.7415992398827 102.25574843484512" stroke="rgb(132, 0, 0)" fill="none" stroke-width="2.439222701032px" stroke-linecap="round"/><path d="M 841.2185567160974 78.96469631679246 L 852.3384973616754 102.26795674446379" stroke="rgb(132, 0, 0)" fill="none" stroke-width="2.439222701032px" stroke-linecap="round"/><path d="M 840.990221079054 79.56744044233102 L 840.9902210790539 128.9031831856313" stroke="rgb(132, 0, 0)" fill="none" stroke-width="2.439222701032px" stroke-linecap="round"/><text x="840.4447011180814" y="71.80548012035561" fill="rgb(15, 15, 15)" font-family="sans-serif" text-anchor="middle" dominant-baseline="ideographic" font-size="21.953004309287998px">V3_3</text></svg>