<svg xmlns="http://www.w3.org/2000/svg" width="1200" height="600" style="background-color: rgb(245, 241, 237)" data-real-to-screen-transform="matrix(118.0823427537,0,0,-118.0823427537,285.9009682752,204.6918050854)" data-software-used-string="@tscircuit/core@0.0.571"><style>
              .boundary { fill: rgb(245, 241, 237); }
              .schematic-boundary { fill: none; stroke: #fff; }
              .component { fill: none; stroke: rgb(132, 0, 0); }
              .chip { fill: rgb(255, 255, 194); stroke: rgb(132, 0, 0); }
              .component-pin { fill: none; stroke: rgb(132, 0, 0); }
              .trace:hover {
                filter: invert(1);
              }
              .trace:hover .trace-crossing-outline {
                opacity: 0;
              }
              .trace:hover .trace-junction {
                filter: invert(1);
              }
              .text { font-family: sans-serif; fill: rgb(0, 150, 0); }
              .pin-number { fill: rgb(169, 0, 0); }
              .port-label { fill: rgb(0, 100, 100); }
              .component-name { fill: rgb(0, 100, 100); }
            </style><rect class="boundary" x="0" y="0" width="1200" height="600"/><g data-circuit-json-type="schematic_component" data-schematic-component-id="schematic_component_0"><rect class="component chip" x="262.28449972446" y="157.45886798392002" width="47.23293710148005" height="94.46587420295998" stroke-width="2.361646855074px" fill="rgb(255, 255, 194)" stroke="rgb(132, 0, 0)"/><rect class="component-overlay" x="262.28449972446" y="157.45886798392002" width="47.23293710148005" height="94.46587420295998" fill="transparent"/><text x="262.28449972446" y="267.27544674486103" fill="#006464" text-anchor="start" dominant-baseline="middle" font-family="sans-serif" font-size="21.254821695666px" transform="rotate(0, 262.28449972446, 267.27544674486103)"></text><text x="262.28449972446" y="142.10816342593898" fill="#006464" text-anchor="start" dominant-baseline="middle" font-family="sans-serif" font-size="21.254821695666px" transform="rotate(0, 262.28449972446, 142.10816342593898)">U1</text><line class="component-pin" x1="354.388727072346" y1="181.07533653466" x2="309.51743682594" y2="181.07533653466" stroke-width="2.361646855074px"/><text class="pin-number" x="333.13390537668" y="178.713689679586" style="font-family: sans-serif;" fill="rgb(169, 0, 0)" text-anchor="middle" dominant-baseline="auto" font-size="17.712351413055px" transform="">1</text><line class="component-pin" x1="354.388727072346" y1="204.6918050854" x2="309.51743682594" y2="204.6918050854" stroke-width="2.361646855074px"/><text class="pin-number" x="333.13390537668" y="202.330158230326" style="font-family: sans-serif;" fill="rgb(169, 0, 0)" text-anchor="middle" dominant-baseline="auto" font-size="17.712351413055px" transform="">2</text><line class="component-pin" x1="354.388727072346" y1="228.30827363614" x2="309.51743682594" y2="228.30827363614" stroke-width="2.361646855074px"/><text class="pin-number" x="333.13390537668" y="225.94662678106602" style="font-family: sans-serif;" fill="rgb(169, 0, 0)" text-anchor="middle" dominant-baseline="auto" font-size="17.712351413055px" transform="">3</text></g><g data-circuit-json-type="schematic_component" data-schematic-component-id="schematic_component_1"><rect class="component chip" x="911.7373848698101" y="157.45886798392002" width="47.23293710148005" height="70.84940565221999" stroke-width="2.361646855074px" fill="rgb(255, 255, 194)" stroke="rgb(132, 0, 0)"/><rect class="component-overlay" x="911.7373848698101" y="157.45886798392002" width="47.23293710148005" height="70.84940565221999" fill="transparent"/><text x="911.7373848698101" y="243.658978194121" fill="#006464" text-anchor="start" dominant-baseline="middle" font-family="sans-serif" font-size="21.254821695666px" transform="rotate(0, 911.7373848698101, 243.658978194121)"></text><text x="911.7373848698101" y="142.10816342593898" fill="#006464" text-anchor="start" dominant-baseline="middle" font-family="sans-serif" font-size="21.254821695666px" transform="rotate(0, 911.7373848698101, 142.10816342593898)">JP4</text><line class="component-pin" x1="866.866094623404" y1="181.07533653466" x2="911.7373848698101" y2="181.07533653466" stroke-width="2.361646855074px"/><text class="pin-number" x="888.1209163190701" y="178.713689679586" style="font-family: sans-serif;" fill="rgb(169, 0, 0)" text-anchor="middle" dominant-baseline="auto" font-size="17.712351413055px" transform="">1</text><line class="component-pin" x1="866.866094623404" y1="204.6918050854" x2="911.7373848698101" y2="204.6918050854" stroke-width="2.361646855074px"/><text class="pin-number" x="888.1209163190701" y="202.330158230326" style="font-family: sans-serif;" fill="rgb(169, 0, 0)" text-anchor="middle" dominant-baseline="auto" font-size="17.712351413055px" transform="">2</text></g><g data-circuit-json-type="schematic_component" data-schematic-component-id="schematic_component_2"><rect class="component-overlay" x="470.9453101629739" y="319.35182634024085" width="31.242627725739226" height="124.97047547825434" fill="transparent"/><path d="M 486.5666240258435 444.3223018184952 L 486.5666240258435 413.0796859009902" stroke="rgb(132, 0, 0)" fill="none" stroke-width="2.361646855074px" stroke-linecap="round"/><path d="M 486.5666240258435 350.5944540659801 L 486.5666240258435 319.35182634024085" stroke="rgb(132, 0, 0)" fill="none" stroke-width="2.361646855074px" stroke-linecap="round"/><path d="M 470.9453101629739 381.83708179171947 L 470.9453101629739 350.5944658742145 L 502.1879378887131 350.5944658742145 L 502.1879378887131 413.0797095174589 L 470.9453101629739 413.0797095174589 L 470.9453101629739 381.8370817917197" stroke="rgb(132, 0, 0)" fill="none" stroke-width="2.361646855074px" stroke-linecap="round"/><text x="519.1120955680046" y="364.9885853735478" fill="rgb(15, 15, 15)" font-family="sans-serif" text-anchor="start" dominant-baseline="middle" font-size="21.254821695666px">R7</text><text x="519.1120955680046" y="402.77493505473177" fill="rgb(15, 15, 15)" font-family="sans-serif" text-anchor="start" dominant-baseline="middle" font-size="21.254821695666px">1kΩ</text></g><g data-circuit-json-type="schematic_component" data-schematic-component-id="schematic_component_3"><rect class="component-overlay" x="577.2194186413038" y="319.35182634024085" width="31.242627725739226" height="124.97047547825434" fill="transparent"/><path d="M 592.8407325041735 444.3223018184952 L 592.8407325041735 413.0796859009902" stroke="rgb(132, 0, 0)" fill="none" stroke-width="2.361646855074px" stroke-linecap="round"/><path d="M 592.8407325041735 350.5944540659801 L 592.8407325041735 319.35182634024085" stroke="rgb(132, 0, 0)" fill="none" stroke-width="2.361646855074px" stroke-linecap="round"/><path d="M 577.2194186413038 381.83708179171947 L 577.2194186413038 350.5944658742145 L 608.4620463670431 350.5944658742145 L 608.4620463670431 413.0797095174589 L 577.2194186413038 413.0797095174589 L 577.2194186413038 381.8370817917197" stroke="rgb(132, 0, 0)" fill="none" stroke-width="2.361646855074px" stroke-linecap="round"/><text x="625.3862040463346" y="364.9885853735478" fill="rgb(15, 15, 15)" font-family="sans-serif" text-anchor="start" dominant-baseline="middle" font-size="21.254821695666px">R8</text><text x="625.3862040463346" y="402.77493505473177" fill="rgb(15, 15, 15)" font-family="sans-serif" text-anchor="start" dominant-baseline="middle" font-size="21.254821695666px">1kΩ</text></g><g data-circuit-json-type="schematic_component" data-schematic-component-id="schematic_component_4"><rect class="component-overlay" x="487.5950799024085" y="240.21348545618463" width="104.4203219712054" height="56.57541132016996" fill="transparent"/><path d="M 565.7730654176542 281.5283362788318 L 592.0154018736139 281.5283362788318" stroke="rgb(132, 0, 0)" fill="none" stroke-width="2.361646855074px" stroke-linecap="round"/><path d="M 487.5950799024085 281.7308120719516 L 513.7732504133158 281.7308120719516" stroke="rgb(132, 0, 0)" fill="none" stroke-width="2.361646855074px" stroke-linecap="round"/><path d="M 525.664165945082 281.72989102967813 L 534.4745257026211 281.72989102967813" stroke="rgb(132, 0, 0)" fill="none" stroke-width="2.361646855074px" stroke-linecap="round"/><path d="M 540.0860111784937 266.4558219121443 L 540.0860111784937 240.21348545618463" stroke="rgb(132, 0, 0)" fill="none" stroke-width="2.361646855074px" stroke-linecap="round"/><path d="M 525.5865622294242 296.54128991183444 L 525.5865622294242 266.78612184129497" stroke="rgb(132, 0, 0)" fill="none" stroke-width="2.361646855074px" stroke-linecap="round"/><path d="M 534.6900023616779 296.0327210698285 L 534.6900023616779 267.27684844131073" stroke="rgb(132, 0, 0)" fill="none" stroke-width="2.361646855074px" stroke-linecap="round"/><path d="M 545.2615012202172 296.06558338581675 L 545.2615012202172 267.3442262260859" stroke="rgb(132, 0, 0)" fill="none" stroke-width="2.361646855074px" stroke-linecap="round"/><path d="M 534.9200503818306 296.11883852239885 L 545.1675549083222 296.11883852239885" stroke="rgb(132, 0, 0)" fill="none" stroke-width="2.361646855074px" stroke-linecap="round"/><path d="M 534.9429819727934 267.2382591316988 L 545.1251279225706 267.2382591316988" stroke="rgb(132, 0, 0)" fill="none" stroke-width="2.361646855074px" stroke-linecap="round"/><path d="M 554.0669015193605 296.55266124144157 L 554.0669015193605 266.79749317090216" stroke="rgb(132, 0, 0)" fill="none" stroke-width="2.361646855074px" stroke-linecap="round"/><path d="M 554.6154884673257 266.4006066086726 L 554.6154884673257 266.4006066086726 L 556.4607311523436 267.3956690711707 L 558.120685713821 268.42721888048976 L 559.6015702865818 269.4914788002814 L 560.9096030054499 270.5846715941973 L 562.0510020052488 271.70302002588903 L 563.0319854208027 272.84274685900823 L 563.858771386935 274.0000748572066 L 564.5375780384697 275.1712267841357 L 565.0746235102307 276.35242540344717 L 565.4761259370416 277.53989347879264 L 565.7483034537262 278.7298537738237 L 565.8973741951085 279.9185290521921 L 565.9295562960119 281.10214207754944 L 565.8510678912606 282.27691561354726 L 565.6681271156783 283.4390724238372 L 565.3869521040888 284.584835272071 L 565.0137609913156 285.7104269219002 L 564.5547719121829 286.81207013697644 L 564.0162030015143 287.88598768095136 L 563.4042723941336 288.9284023174766 L 562.7251982248647 289.93553681020376 L 561.9851986285312 290.9036139227845 L 561.1904917399571 291.82885641887043 L 560.3472956939661 292.7074870621132 L 559.4618286253819 293.5357286161644 L 558.5403086690285 294.3098038446758 L 557.5889539597296 295.0259355112988 L 556.613982632309 295.6803463796852 L 555.6216128215904 296.2692592134866 L 554.6180626623977 296.7888967763546 L 554.6180626623977 296.7888967763546" stroke="rgb(132, 0, 0)" fill="none" stroke-width="2.361646855074px" stroke-linecap="round"/><path d="M 525.0467842242285 266.38563376761147 L 525.0467842242285 266.38563376761147 L 523.2015415392107 267.38069623010955 L 521.5415869777332 268.4122460394286 L 520.0607024049724 269.4765059592203 L 518.7526696861044 270.56969875313615 L 517.6112706863054 271.6880471848279 L 516.6302872707515 272.8277740179471 L 515.8035013046192 273.98510201614545 L 515.1246946530844 275.15625394307455 L 514.5876491813235 276.33745256238603 L 514.1861467545126 277.5249206377315 L 513.9139692378279 278.71488093276264 L 513.7648984964458 279.903556211131 L 513.7327163955422 281.0871692364883 L 513.8112048002935 282.2619427724861 L 513.9941455758759 283.4240995827761 L 514.2753205874654 284.5698624310099 L 514.6485117002386 285.69545408083906 L 515.1075007793713 286.7970972959153 L 515.6460696900399 287.8710148398902 L 516.2580002974206 288.91342947641544 L 516.9370744666895 289.9205639691426 L 517.677074063023 290.8886410817234 L 518.4717809515971 291.8138835778093 L 519.3149769975881 292.6925142210521 L 520.2004440661723 293.52075577510334 L 521.1219640225257 294.29483100361466 L 522.0733187318247 295.0109626702377 L 523.0482900592452 295.66537353862407 L 524.0406598699637 296.2542863724255 L 525.0442100291565 296.77392393529345 L 525.0442100291565 296.77392393529345" stroke="rgb(132, 0, 0)" fill="none" stroke-width="2.361646855074px" stroke-linecap="round"/><text x="542.2146579548461" y="302.74168163217786" fill="rgb(15, 15, 15)" font-family="sans-serif" text-anchor="middle" dominant-baseline="hanging" font-size="21.254821695666px">JP1</text></g><g data-circuit-json-type="schematic_component" data-schematic-component-id="schematic_component_5"><rect class="component-overlay" x="685.5845764780538" y="207.8873730614691" width="62.48523183501004" height="124.97047547825443" fill="transparent"/><path d="M 716.8271923955587 207.8873730614691 L 716.8271923955587 260.9998189404043" stroke="rgb(132, 0, 0)" fill="none" stroke-width="2.361646855074px" stroke-linecap="round"/><path d="M 716.8271923955587 279.7453908525541 L 716.8271923955587 332.85784853972353" stroke="rgb(132, 0, 0)" fill="none" stroke-width="2.361646855074px" stroke-linecap="round"/><path d="M 685.5845764780538 260.99981894040434 L 748.0698083130638 260.9998189404043" stroke="rgb(132, 0, 0)" fill="none" stroke-width="2.361646855074px" stroke-linecap="round"/><path d="M 685.5845764780538 279.7453908525541 L 748.0698083130638 279.7453908525541" stroke="rgb(132, 0, 0)" fill="none" stroke-width="2.361646855074px" stroke-linecap="round"/><text x="743.6009938597845" y="246.12645837919496" fill="rgb(15, 15, 15)" font-family="sans-serif" text-anchor="start" dominant-baseline="auto" font-size="21.254821695666px">C1</text><text x="743.6009938597845" y="293.14772882067496" fill="rgb(15, 15, 15)" font-family="sans-serif" text-anchor="start" dominant-baseline="hanging" font-size="21.254821695666px">1nF</text></g><g class="trace" data-circuit-json-type="schematic_trace" data-schematic-trace-id="schematic_trace_0"><path d="M 864.50444776833 181.07533653466 L 610.627410847875 181.07533653466 L 356.75037392742 181.07533653466" class="trace-invisible-hover-outline" stroke="rgb(0, 150, 0)" fill="none" stroke-width="18.893174840592px" stroke-linecap="round" opacity="0" stroke-linejoin="round"/><path d="M 864.50444776833 181.07533653466 L 610.627410847875 181.07533653466 L 356.75037392742 181.07533653466" stroke="rgb(0, 150, 0)" fill="none" stroke-width="2.361646855074px" stroke-linecap="round" stroke-linejoin="round"/></g><g class="trace" data-circuit-json-type="schematic_trace" data-schematic-trace-id="schematic_trace_1"><path d="M 486.67321695664737 316.7176218216228 L 486.90500964341436 316.7176218216228 L 486.90500964341436 281.61806705109024 L 487.13680233018135 281.61806705109024" class="trace-invisible-hover-outline" stroke="rgb(0, 150, 0)" fill="none" stroke-width="18.893174840592px" stroke-linecap="round" opacity="0" stroke-linejoin="round"/><path d="M 486.67321695664737 316.7176218216228 L 486.90500964341436 316.7176218216228 L 486.90500964341436 281.61806705109024 L 487.13680233018135 281.61806705109024" stroke="rgb(0, 150, 0)" fill="none" stroke-width="2.361646855074px" stroke-linecap="round" stroke-linejoin="round"/></g><g class="trace" data-circuit-json-type="schematic_trace" data-schematic-trace-id="schematic_trace_2"><path d="M 592.9473254349774 316.7176218216228 L 592.683266748053 316.7176218216228 L 592.683266748053 281.6327564945288 L 592.4192080611288 281.6327564945288" class="trace-invisible-hover-outline" stroke="rgb(0, 150, 0)" fill="none" stroke-width="18.893174840592px" stroke-linecap="round" opacity="0" stroke-linejoin="round"/><path d="M 592.9473254349774 316.7176218216228 L 592.683266748053 316.7176218216228 L 592.683266748053 281.6327564945288 L 592.4192080611288 281.6327564945288" stroke="rgb(0, 150, 0)" fill="none" stroke-width="2.361646855074px" stroke-linecap="round" stroke-linejoin="round"/></g><g class="trace" data-circuit-json-type="schematic_trace" data-schematic-trace-id="schematic_trace_3"><path d="M 540.1904432024252 239.8096084192641 L 403.98331102890006 239.8096084192641 L 403.98331102890006 204.6918050854 L 356.75037392742 204.6918050854" class="trace-invisible-hover-outline" stroke="rgb(0, 150, 0)" fill="none" stroke-width="18.893174840592px" stroke-linecap="round" opacity="0" stroke-linejoin="round"/><path d="M 540.1904432024252 239.8096084192641 L 403.98331102890006 239.8096084192641 L 403.98331102890006 204.6918050854 L 356.75037392742 204.6918050854" stroke="rgb(0, 150, 0)" fill="none" stroke-width="2.361646855074px" stroke-linecap="round" stroke-linejoin="round"/></g><g class="trace" data-circuit-json-type="schematic_trace" data-schematic-trace-id="schematic_trace_4"><path d="M 716.8692415178134 204.54900810830793 L 790.6868446430717 204.54900810830793 L 790.6868446430717 181.07533653466 L 864.50444776833 181.07533653466" class="trace-invisible-hover-outline" stroke="rgb(0, 150, 0)" fill="none" stroke-width="18.893174840592px" stroke-linecap="round" opacity="0" stroke-linejoin="round"/><path d="M 716.8692415178134 204.54900810830793 L 790.6868446430717 204.54900810830793 L 790.6868446430717 181.07533653466 L 864.50444776833 181.07533653466" stroke="rgb(0, 150, 0)" fill="none" stroke-width="2.361646855074px" stroke-linecap="round" stroke-linejoin="round"/><circle cx="790.6868446430717" cy="181.07533653466" r="3.542470282611" class="trace-junction" fill="rgb(0, 150, 0)"/></g><g class="trace" data-circuit-json-type="schematic_trace" data-schematic-trace-id="schematic_trace_5"><path d="M 356.75037392742 181.07533653466 L 817.27151066685 181.07533653466 L 817.27151066685 157.45886798392002" class="trace-invisible-hover-outline" stroke="rgb(0, 150, 0)" fill="none" stroke-width="18.893174840592px" stroke-linecap="round" opacity="0" stroke-linejoin="round"/><path d="M 356.75037392742 181.07533653466 L 817.27151066685 181.07533653466 L 817.27151066685 157.45886798392002" stroke="rgb(0, 150, 0)" fill="none" stroke-width="2.361646855074px" stroke-linecap="round" stroke-linejoin="round"/></g><g class="trace" data-circuit-json-type="schematic_trace" data-schematic-trace-id="schematic_trace_6"><path d="M 864.50444776833 204.6918050854 L 817.27151066685 204.6918050854 L 817.27151066685 370.00708494058" class="trace-invisible-hover-outline" stroke="rgb(0, 150, 0)" fill="none" stroke-width="18.893174840592px" stroke-linecap="round" opacity="0" stroke-linejoin="round"/><path d="M 864.50444776833 204.6918050854 L 817.27151066685 204.6918050854 L 817.27151066685 370.00708494058" stroke="rgb(0, 150, 0)" fill="none" stroke-width="2.361646855074px" stroke-linecap="round" stroke-linejoin="round"/></g><g class="trace" data-circuit-json-type="schematic_trace" data-schematic-trace-id="schematic_trace_7"><path d="M 486.60868495633264 446.9130166102773 L 486.64095095649 446.9130166102773 L 486.64095095649 476.28119341891" class="trace-invisible-hover-outline" stroke="rgb(0, 150, 0)" fill="none" stroke-width="18.893174840592px" stroke-linecap="round" opacity="0" stroke-linejoin="round"/><path d="M 486.60868495633264 446.9130166102773 L 486.64095095649 446.9130166102773 L 486.64095095649 476.28119341891" stroke="rgb(0, 150, 0)" fill="none" stroke-width="2.361646855074px" stroke-linecap="round" stroke-linejoin="round"/></g><g class="trace" data-circuit-json-type="schematic_trace" data-schematic-trace-id="schematic_trace_8"><path d="M 592.8827934346626 446.9130166102773 L 592.91505943482 446.9130166102773 L 592.91505943482 476.28119341891" class="trace-invisible-hover-outline" stroke="rgb(0, 150, 0)" fill="none" stroke-width="18.893174840592px" stroke-linecap="round" opacity="0" stroke-linejoin="round"/><path d="M 592.8827934346626 446.9130166102773 L 592.91505943482 446.9130166102773 L 592.91505943482 476.28119341891" stroke="rgb(0, 150, 0)" fill="none" stroke-width="2.361646855074px" stroke-linecap="round" stroke-linejoin="round"/></g><g class="trace" data-circuit-json-type="schematic_trace" data-schematic-trace-id="schematic_trace_9"><path d="M 356.75037392742 228.30827363614 L 392.17507675353 228.30827363614 L 392.17507675353 370.00708494058" class="trace-invisible-hover-outline" stroke="rgb(0, 150, 0)" fill="none" stroke-width="18.893174840592px" stroke-linecap="round" opacity="0" stroke-linejoin="round"/><path d="M 356.75037392742 228.30827363614 L 392.17507675353 228.30827363614 L 392.17507675353 370.00708494058" stroke="rgb(0, 150, 0)" fill="none" stroke-width="2.361646855074px" stroke-linecap="round" stroke-linejoin="round"/></g><g class="trace" data-circuit-json-type="schematic_trace" data-schematic-trace-id="schematic_trace_10"><path d="M 716.9337971345967 334.7251790915621 L 716.9015193262051 334.7251790915621 L 716.9015193262051 370.00708494058" class="trace-invisible-hover-outline" stroke="rgb(0, 150, 0)" fill="none" stroke-width="18.893174840592px" stroke-linecap="round" opacity="0" stroke-linejoin="round"/><path d="M 716.9337971345967 334.7251790915621 L 716.9015193262051 334.7251790915621 L 716.9015193262051 370.00708494058" stroke="rgb(0, 150, 0)" fill="none" stroke-width="2.361646855074px" stroke-linecap="round" stroke-linejoin="round"/></g><rect class="component-overlay" x="806.2443320476244" y="107.33192159329516" width="21.87823742423393" height="48.36202865465671" fill="transparent"/><path d="M 817.0106195387702 107.33192159329516 L 806.2443320476244 129.89399748088462" stroke="rgb(132, 0, 0)" fill="none" stroke-width="2.361646855074px" stroke-linecap="round"/><path d="M 817.356281980713 107.34368259463344 L 828.1225694718584 129.90581752339426" stroke="rgb(132, 0, 0)" fill="none" stroke-width="2.361646855074px" stroke-linecap="round"/><path d="M 817.1352082186096 107.92725734075655 L 817.1352082186096 155.69395024795188" stroke="rgb(132, 0, 0)" fill="none" stroke-width="2.361646855074px" stroke-linecap="round"/><text x="816.6070377077064" y="100.41215460911715" fill="rgb(15, 15, 15)" font-family="sans-serif" text-anchor="middle" dominant-baseline="ideographic" font-size="21.254821695666px">V_BATT</text><rect class="component-overlay" x="790.084232071238" y="369.8791427222063" width="53.056911753138024" height="57.08447610801562" fill="transparent"/><path d="M 817.1432496261509 369.8791427222063 L 817.1432496261509 408.8030268440738" stroke="rgb(132, 0, 0)" fill="none" stroke-width="2.361646855074px" stroke-linecap="round"/><path d="M 790.084232071238 408.79915374323156 L 843.1411438243761 408.79915374323156" stroke="rgb(132, 0, 0)" fill="none" stroke-width="2.361646855074px" stroke-linecap="round"/><path d="M 796.7163504684682 417.8813862867268 L 836.5090254271458 417.8813862867268" stroke="rgb(132, 0, 0)" fill="none" stroke-width="2.361646855074px" stroke-linecap="round"/><path d="M 809.9805754546942 426.96361883022195 L 823.2448004409201 426.96361883022195" stroke="rgb(132, 0, 0)" fill="none" stroke-width="2.361646855074px" stroke-linecap="round"/><text x="814.6003227584814" y="440.7947099110712" fill="rgb(15, 15, 15)" font-family="sans-serif" text-anchor="middle" dominant-baseline="hanging" font-size="21.254821695666px">GND</text><rect class="component-overlay" x="459.4536723608781" y="476.1532512005364" width="53.05691175313797" height="57.084476108015565" fill="transparent"/><path d="M 486.512689915791 476.1532512005364 L 486.512689915791 515.0771353224038" stroke="rgb(132, 0, 0)" fill="none" stroke-width="2.361646855074px" stroke-linecap="round"/><path d="M 459.4536723608781 515.0732622215615 L 512.5105841140161 515.0732622215615" stroke="rgb(132, 0, 0)" fill="none" stroke-width="2.361646855074px" stroke-linecap="round"/><path d="M 466.08579075810826 524.1554947650568 L 505.8784657167859 524.1554947650568" stroke="rgb(132, 0, 0)" fill="none" stroke-width="2.361646855074px" stroke-linecap="round"/><path d="M 479.3500157443342 533.2377273085519 L 492.61424073056014 533.2377273085519" stroke="rgb(132, 0, 0)" fill="none" stroke-width="2.361646855074px" stroke-linecap="round"/><text x="483.9697630481214" y="547.0688183894013" fill="rgb(15, 15, 15)" font-family="sans-serif" text-anchor="middle" dominant-baseline="hanging" font-size="21.254821695666px">GND</text><rect class="component-overlay" x="565.7277808392081" y="476.1532512005364" width="53.056911753138024" height="57.084476108015565" fill="transparent"/><path d="M 592.786798394121 476.1532512005364 L 592.786798394121 515.0771353224038" stroke="rgb(132, 0, 0)" fill="none" stroke-width="2.361646855074px" stroke-linecap="round"/><path d="M 565.7277808392081 515.0732622215615 L 618.7846925923461 515.0732622215615" stroke="rgb(132, 0, 0)" fill="none" stroke-width="2.361646855074px" stroke-linecap="round"/><path d="M 572.3598992364383 524.1554947650568 L 612.1525741951159 524.1554947650568" stroke="rgb(132, 0, 0)" fill="none" stroke-width="2.361646855074px" stroke-linecap="round"/><path d="M 585.6241242226642 533.2377273085519 L 598.8883492088902 533.2377273085519" stroke="rgb(132, 0, 0)" fill="none" stroke-width="2.361646855074px" stroke-linecap="round"/><text x="590.2438715264515" y="547.0688183894013" fill="rgb(15, 15, 15)" font-family="sans-serif" text-anchor="middle" dominant-baseline="hanging" font-size="21.254821695666px">GND</text><rect class="component-overlay" x="364.9877981579181" y="369.8791427222063" width="53.05691175313797" height="57.08447610801562" fill="transparent"/><path d="M 392.046815712831 369.8791427222063 L 392.046815712831 408.8030268440738" stroke="rgb(132, 0, 0)" fill="none" stroke-width="2.361646855074px" stroke-linecap="round"/><path d="M 364.9877981579181 408.79915374323156 L 418.0447099110561 408.79915374323156" stroke="rgb(132, 0, 0)" fill="none" stroke-width="2.361646855074px" stroke-linecap="round"/><path d="M 371.6199165551483 417.8813862867268 L 411.41259151382593 417.8813862867268" stroke="rgb(132, 0, 0)" fill="none" stroke-width="2.361646855074px" stroke-linecap="round"/><path d="M 384.8841415413742 426.96361883022195 L 398.14836652760016 426.96361883022195" stroke="rgb(132, 0, 0)" fill="none" stroke-width="2.361646855074px" stroke-linecap="round"/><text x="389.50388884516144" y="440.7947099110712" fill="rgb(15, 15, 15)" font-family="sans-serif" text-anchor="middle" dominant-baseline="hanging" font-size="21.254821695666px">GND</text><rect class="component-overlay" x="689.7142407305931" y="369.8791427222063" width="53.056911753138024" height="57.08447610801562" fill="transparent"/><path d="M 716.773258285506 369.8791427222063 L 716.773258285506 408.8030268440738" stroke="rgb(132, 0, 0)" fill="none" stroke-width="2.361646855074px" stroke-linecap="round"/><path d="M 689.7142407305931 408.79915374323156 L 742.7711524837312 408.79915374323156" stroke="rgb(132, 0, 0)" fill="none" stroke-width="2.361646855074px" stroke-linecap="round"/><path d="M 696.3463591278233 417.8813862867268 L 736.1390340865009 417.8813862867268" stroke="rgb(132, 0, 0)" fill="none" stroke-width="2.361646855074px" stroke-linecap="round"/><path d="M 709.6105841140493 426.96361883022195 L 722.8748091002752 426.96361883022195" stroke="rgb(132, 0, 0)" fill="none" stroke-width="2.361646855074px" stroke-linecap="round"/><text x="714.2303314178365" y="440.7947099110712" fill="rgb(15, 15, 15)" font-family="sans-serif" text-anchor="middle" dominant-baseline="hanging" font-size="21.254821695666px">GND</text></svg>