<svg xmlns="http://www.w3.org/2000/svg" width="1200" height="600" style="background-color: rgb(245, 241, 237)" data-real-to-screen-transform="matrix(157.0845114672,0,0,-157.0845114672,332.9165716379,246.9159074249)" data-software-used-string="@tscircuit/core@0.0.555"><style>
              .boundary { fill: rgb(245, 241, 237); }
              .schematic-boundary { fill: none; stroke: #fff; }
              .component { fill: none; stroke: rgb(132, 0, 0); }
              .chip { fill: rgb(255, 255, 194); stroke: rgb(132, 0, 0); }
              .component-pin { fill: none; stroke: rgb(132, 0, 0); }
              .trace:hover {
                filter: invert(1);
              }
              .trace:hover .trace-crossing-outline {
                opacity: 0;
              }
              .trace:hover .trace-junction {
                filter: invert(1);
              }
              .text { font-family: sans-serif; fill: rgb(0, 150, 0); }
              .pin-number { fill: rgb(169, 0, 0); }
              .port-label { fill: rgb(0, 100, 100); }
              .component-name { fill: rgb(0, 100, 100); }
            </style><rect class="boundary" x="0" y="0" width="1200" height="600"/><g data-circuit-json-type="schematic_component" data-schematic-component-id="schematic_component_0"><rect class="component chip" x="380.04192507806" y="160.9906796523416" width="62.83380458687998" height="125.66760917376001" stroke-width="3.1416902293440003px" fill="rgb(255, 255, 194)" stroke="rgb(132, 0, 0)"/><rect class="component-overlay" x="380.04192507806" y="160.9906796523416" width="62.83380458687998" height="125.66760917376001" fill="transparent"/><text x="380.04192507806" y="307.0792753168376" fill="#006464" text-anchor="start" dominant-baseline="middle" font-family="sans-serif" font-size="28.275212064096px" transform="rotate(0, 380.04192507806, 307.0792753168376)"></text><text x="380.04192507806" y="140.56969316160558" fill="#006464" text-anchor="start" dominant-baseline="middle" font-family="sans-serif" font-size="28.275212064096px" transform="rotate(0, 380.04192507806, 140.56969316160558)">U1</text><line class="component-pin" x1="502.56784402247604" y1="255.2413865326616" x2="442.87572966494" y2="255.2413865326616" stroke-width="3.1416902293440003px"/><circle class="component-pin" cx="505.70953425182006" cy="255.2413865326616" r="3.1416902293440003" stroke-width="3.1416902293440003px"/><text class="pin-number" x="474.29263195838007" y="252.09969630331761" style="font-family: sans-serif;" fill="rgb(169, 0, 0)" text-anchor="middle" dominant-baseline="auto" font-size="23.56267672008px" transform="">1</text><line class="component-pin" x1="502.56784402247604" y1="208.1160330925016" x2="442.87572966494" y2="208.1160330925016" stroke-width="3.1416902293440003px"/><text class="pin-number" x="474.29263195838007" y="204.9743428631576" style="font-family: sans-serif;" fill="rgb(169, 0, 0)" text-anchor="middle" dominant-baseline="auto" font-size="23.56267672008px" transform="">2</text></g><g data-circuit-json-type="schematic_component" data-schematic-component-id="schematic_component_1"><rect class="component-overlay" x="756.4010610986571" y="217.39205646638123" width="88.88228086712365" height="154.96836317942075" fill="transparent"/><path d="M 803.693269706897 217.39205646638123 L 803.693269706897 288.0486697243278" stroke="rgb(132, 0, 0)" fill="none" stroke-width="3.1416902293440003px" stroke-linecap="round"/><path d="M 803.693269706897 301.70511018930057 L 803.693269706897 372.360419645802" stroke="rgb(132, 0, 0)" fill="none" stroke-width="3.1416902293440003px" stroke-linecap="round"/><path d="M 761.7643033229743 288.64763296655224 L 845.2833419657808 288.64763296655224" stroke="rgb(132, 0, 0)" fill="none" stroke-width="3.1416902293440003px" stroke-linecap="round"/><path d="M 844.7379131250642 310.77820161248803 L 844.7379131250642 310.77820161248803 L 844.5438981900186 310.6628054986488 L 844.3497383006846 310.5479847847154 L 844.1554333095598 310.43374095918915 L 843.960983069142 310.3200755105715 L 843.7663874319287 310.2069899273638 L 843.5716462504174 310.0944856980675 L 843.376759377106 309.98256431118403 L 843.1817266644922 309.8712272552148 L 842.9865479650733 309.7604760186613 L 842.7912231313472 309.6503120900247 L 842.5957520158116 309.54073695780664 L 842.400134470964 309.4317521105085 L 842.2043703493019 309.32335903663164 L 842.0084595033233 309.21555922467746 L 841.8124017855256 309.10835416314745 L 841.6161970484064 309.001745340543 L 841.4198451444636 308.8957342453655 L 841.2233459261946 308.7903223661163 L 841.0266992460972 308.68551119129694 L 840.829904956669 308.58130220940876 L 840.6329629104075 308.4776969089532 L 840.4358729598106 308.37469677843166 L 840.2386349573757 308.2723033063455 L 840.0412487556006 308.17051798119627 L 839.8437142069829 308.0693422914853 L 839.6460311640203 307.968777725714 L 839.4481994792103 307.8688257723838 L 839.2502190050507 307.7694879199961 L 839.052089594039 307.6707656570523 L 838.853811098673 307.5726604720539 L 838.6553833714502 307.47517385350216 L 838.4568062648683 307.3783072898986 L 838.258079631425 307.28206226974464 L 838.0592033236178 307.1864402815417 L 837.8601771939445 307.0914428137911 L 837.6610010949028 306.9970713549944 L 837.46167487899 306.90332739365283 L 837.2621983987041 306.810212418268 L 837.0625715065426 306.71772791734116 L 836.8627940550031 306.62587537937384 L 836.6628658965833 306.53465629286734 L 836.4627868837808 306.4440721463232 L 836.2625568690935 306.35412442824276 L 836.0621757050186 306.26481462712746 L 835.8616432440541 306.17614423147864 L 835.6609593386975 306.08811472979784 L 835.4601238414464 306.0007276105864 L 835.2591366047985 305.91398436234573 L 835.0579974812515 305.8278864735772 L 834.856706323303 305.7424354327824 L 834.6552629834506 305.65763272846254 L 834.453667314192 305.57347984911917 L 834.2519191680249 305.4899782832536 L 834.0500183974467 305.4071295193673 L 833.8479648549553 305.3249350459617 L 833.6457583930483 305.2433963515382 L 833.4433988642232 305.16251492459816 L 833.2408861209778 305.08229225364306 L 833.0382200158098 305.00272982717433 L 832.8354004012165 304.92382913369335 L 832.6324271296959 304.84559166170146 L 832.4293000537455 304.7680188997002 L 832.226019025863 304.69111233619094 L 832.0225838985459 304.61487345967504 L 831.8189945242921 304.539303758654 L 831.6152507555989 304.46440472162914 L 831.4113524449642 304.39017783710193 L 831.2072994448857 304.3166245935738 L 831.0030916078608 304.24374647954613 L 830.7987287863873 304.1715449835204 L 830.5942108329629 304.1000215939979 L 830.3895376000851 304.0291777994801 L 830.1847089402515 303.9590150884685 L 829.9797247059599 303.8895349494644 L 829.7745847497079 303.82073887096925 L 829.5692889239931 303.75262834148447 L 829.3638370813132 303.6852048495115 L 829.1582290741659 303.6184698835517 L 828.9524647550486 303.5524249321065 L 828.7465439764592 303.4870714836773 L 828.5404665908952 303.4224110267656 L 828.3342324508543 303.3584450498727 L 828.1278414088342 303.2951750415001 L 827.9212933173324 303.2326024901492 L 827.7145880288467 303.1707288843213 L 827.5077253958746 303.109555712518 L 827.3007052709138 303.04908446324055 L 827.093527506462 302.98931662499047 L 826.8861919550168 302.9302536862691 L 826.6786984690758 302.8718971355779 L 826.4710469011367 302.81424846141834 L 826.2632371036972 302.7573091522917 L 826.0552689292548 302.7010806966995 L 825.8471422303072 302.6455645831431 L 825.638856859352 302.5907623001239 L 825.430412668887 302.5366753361434 L 825.2218095114098 302.4833051797029 L 825.0130472394179 302.4306533193039 L 824.8041257054091 302.3787212434478 L 824.5950447618809 302.32751044063593 L 824.5950447618809 302.32751044063593 L 824.3317607574354 302.26399572538304 L 824.068302867693 302.2014228599887 L 823.8046727398732 302.13978976405724 L 823.5408720211958 302.0790943571926 L 823.2769023588804 302.01933455899905 L 823.0127654001465 301.96050828908074 L 822.7484627922136 301.90261346704176 L 822.4839961823016 301.8456480124863 L 822.2193672176298 301.7896098450185 L 821.954577545418 301.7344968842425 L 821.6896288128858 301.68030704976246 L 821.4245226672526 301.62703826118246 L 821.1592607557383 301.57468843810676 L 820.8938447255623 301.5232555001394 L 820.6282762239443 301.4727373668846 L 820.3625568981039 301.4231319579465 L 820.0966883952606 301.3744371929292 L 819.830672362634 301.3266509914369 L 819.5645104474439 301.2797712730737 L 819.2982042969098 301.23379595744376 L 819.0317555582512 301.1887229641513 L 818.7651658786879 301.14455021280037 L 818.4984369054393 301.1012756229951 L 818.2315702857252 301.05889711433974 L 817.964567666765 301.01741260643837 L 817.6974306957785 300.9768200188952 L 817.4301610199851 300.93711727131426 L 817.1627602866047 300.8983022832998 L 816.8952301428566 300.86037297445597 L 816.6275722359605 300.8233272643868 L 816.3597882131361 300.7871630726966 L 816.0918797216029 300.7518783189894 L 815.8238484085805 300.7174709228694 L 815.5556959212886 300.6839388039407 L 815.2874239069467 300.65127988180745 L 815.0190340127746 300.61949207607387 L 814.7505278859916 300.5885733063441 L 814.4819071738175 300.55852149222216 L 814.2131735234718 300.5293345533123 L 813.9443285821743 300.5010104092187 L 813.6753739971443 300.4735469795454 L 813.4063114156017 300.4469421838967 L 813.137142484766 300.42119394187654 L 812.8678688518568 300.39630017308923 L 812.5984921640936 300.37225879713884 L 812.3290140686961 300.34906773362957 L 812.059436212884 300.32672490216555 L 811.7897602438767 300.30522822235093 L 811.5199878088939 300.2845756137898 L 811.2501205551551 300.2647649960864 L 810.9801601298802 300.24579428884476 L 810.7101081802886 300.22766141166915 L 810.4399663535999 300.21036428416363 L 810.1697362970338 300.1939008259324 L 809.8994196578096 300.1782689565796 L 809.6290180831473 300.16346659570934 L 809.3585332202664 300.1494916629258 L 809.0879667163863 300.13634207783315 L 808.8173202187269 300.12401576003543 L 808.5465953745074 300.1125106291369 L 808.2757938309479 300.1018246047417 L 808.0049172352676 300.0919556064539 L 807.7339672346864 300.0829015538777 L 807.4629454764237 300.07466036661725 L 807.1918536076992 300.0672299642767 L 806.9206932757324 300.0606082664602 L 806.649466127743 300.05479319277185 L 806.3781738109507 300.0497826628158 L 806.1068179725748 300.0455745961963 L 805.8354002598353 300.04216691251736 L 805.5639223199514 300.0395575313832 L 805.292385800143 300.037744372398 L 805.0207923476296 300.0367253551658 L 804.7491436096308 300.03649839929085 L 804.4774412333662 300.03706142437727 L 804.2056868660554 300.03841235002915 L 803.9338821549181 300.0405490958507 L 803.6620287471738 300.04346958144606 L 803.3901282900421 300.0471717264193 L 803.1181824307426 300.0516534503747 L 802.846192816495 300.0569126729164 L 802.5741610945189 300.06294731364835 L 802.3020889120337 300.06975529217493 L 802.0299779162592 300.07733452810015 L 801.757829754415 300.0856829410282 L 801.4856460737207 300.09479845056325 L 801.2134285213957 300.1046789763094 L 800.9411787446599 300.1153224378708 L 800.6688983907327 300.1267267548517 L 800.3965891068339 300.13888984685605 L 800.1242525401829 300.15180963348814 L 799.8518903379993 300.1654840343521 L 799.5795041475028 300.1799109690521 L 799.3070956159131 300.1950883571922 L 799.0346663904496 300.2110141183766 L 798.762218118332 300.22768617220953 L 798.48975244678 300.24510243829496 L 798.217271023013 300.2632608362372 L 797.9447754942508 300.28215928564026 L 797.672267507713 300.30179570610835 L 797.672267507713 300.30179570610835 L 797.441290541863 300.3225007751784 L 797.2102485009897 300.3435258533908 L 796.9791443213792 300.3648757095485 L 796.7479809393182 300.38655511245463 L 796.5167612910932 300.40856883091203 L 796.2854883129908 300.43092163372387 L 796.0541649412972 300.45361828969305 L 795.8227941122994 300.4766635676227 L 795.5913787622836 300.5000622363158 L 795.3599218275365 300.52381906457526 L 795.1284262443445 300.54793882120424 L 794.8968949489941 300.5724262750057 L 794.665330877772 300.59728619478267 L 794.4337369669646 300.6225233493381 L 794.2021161528584 300.6481425074751 L 793.9704713717398 300.6741484379966 L 793.7388055598956 300.7005459097057 L 793.5071216536122 300.72733969140535 L 793.2754225891761 300.7545345518986 L 793.0437113028738 300.7821352599885 L 792.8119907309919 300.81014658447793 L 792.5802638098169 300.8385732941701 L 792.3485334756352 300.86742015786785 L 792.1168026647335 300.8966919443743 L 791.8850743133983 300.9263934224924 L 791.6533513579159 300.9565293610253 L 791.4216367345731 300.98710452877583 L 791.1899333796563 301.0181236945471 L 790.958244229452 301.04959162714215 L 790.7265722202469 301.08151309536396 L 790.4949202883273 301.11389286801557 L 790.2632913699797 301.14673571389994 L 790.0316884014908 301.18004640182016 L 789.800114319147 301.2138297005792 L 789.5685720592351 301.24809037898007 L 789.3370645580411 301.28283320582585 L 789.105594751852 301.31806294991947 L 788.874165576954 301.353784380064 L 788.6427799696338 301.39000226506244 L 788.4114408661779 301.4267213737178 L 788.1801512028728 301.4639464748331 L 787.948913916005 301.5016823372114 L 787.7177319418611 301.5399337296556 L 787.4866082167275 301.57870542096884 L 787.2555456768908 301.6180021799541 L 787.0245472586377 301.6578287754144 L 786.7936158982543 301.69818997615266 L 786.5627545320274 301.73909055097204 L 786.3319660962435 301.78053526867546 L 786.1012535271891 301.82252889806597 L 785.8706197611507 301.8650762079466 L 785.6400677344149 301.90818196712036 L 785.4096003832682 301.95185094439023 L 785.1792206439969 301.9960879085593 L 784.9489314528879 302.04089762843046 L 784.7187357462275 302.08628487280686 L 784.4886364603022 302.13225441049144 L 784.2586365313987 302.17881101028723 L 784.0287388958033 302.22595944099726 L 783.7989464898026 302.27370447142454 L 783.5692622496831 302.3220508703721 L 783.3396891117314 302.3710034066429 L 783.1102300122341 302.42056684904003 L 782.8808878874776 302.47074596636645 L 782.6516656737483 302.5215455274252 L 782.4225663073329 302.5729703010193 L 782.1935927245179 302.62502505595177 L 781.9647478615898 302.6777145610256 L 781.7360346548352 302.73104358504384 L 781.5074560405404 302.7850168968095 L 781.2790149549921 302.8396392651255 L 781.0507143344769 302.8949154587951 L 780.8225571152811 302.95085024662103 L 780.5945462336914 303.00744839740645 L 780.3666846259941 303.06471467995436 L 780.138975228476 303.1226538630678 L 779.9114209774235 303.1812707155498 L 779.6840248091232 303.24057000620326 L 779.4567896598614 303.3005565038313 L 779.2297184659249 303.36123497723685 L 779.0028141636 303.42261019522306 L 778.7760796891732 303.4846869265929 L 778.5495179789314 303.54746994014926 L 778.3231319691606 303.6109640046953 L 778.0969245961477 303.675173889034 L 777.8708987961791 303.74010436196835 L 777.6450575055413 303.80576019230136 L 777.4194036605209 303.8721461488361 L 777.1939401974042 303.93926700037554 L 776.968670052478 304.0071275157227 L 776.7435961620287 304.0757324636806 L 776.5187214623428 304.1450866130523 L 776.2940488897069 304.2151947326407 L 776.0695813804075 304.286061591249 L 775.845321870731 304.35769195768006 L 775.6212732969641 304.43009060073695 L 775.3974385953932 304.5032622892227 L 775.1738207023049 304.5772117919402 L 774.9504225539856 304.6519438776927 L 774.7272470867221 304.727463315283 L 774.7272470867221 304.727463315283 L 774.5965836172593 304.77210521679103 L 774.4659886429897 304.8170676696657 L 774.3354629493987 304.8623506597694 L 774.2050073219717 304.9079541729645 L 774.0746225461942 304.9538781951134 L 773.9443094075514 305.00012271207856 L 773.8140686915286 305.0466877097223 L 773.6839011836116 305.09357317390703 L 773.5538076692854 305.1407790904952 L 773.4237889340357 305.1883054453491 L 773.2938457633477 305.2361522243312 L 773.1639789427068 305.2843194133039 L 773.0341892575983 305.3328069981295 L 772.9044774935078 305.3816149646705 L 772.7748444359206 305.4307432987893 L 772.645290870322 305.4801919863482 L 772.5158175821977 305.5299610132097 L 772.3864253570326 305.58005036523605 L 772.2571149803125 305.6304600282898 L 772.1278872375227 305.68118998823326 L 771.9987429141486 305.7322402309288 L 771.8696827956753 305.7836107422389 L 771.7407076675886 305.83530150802596 L 771.6118183153737 305.88731251415226 L 771.483015524516 305.9396437464803 L 771.3543000805009 305.99229519087237 L 771.2256727688138 306.0452668331909 L 771.0971343749401 306.09855865929836 L 770.9686856843651 306.1521706550571 L 770.8403274825743 306.2061028063295 L 770.7120605550531 306.260355098978 L 770.5838856872867 306.31492751886486 L 770.4558036647609 306.3698200518526 L 770.3278152729606 306.42503268380364 L 770.1999212973715 306.48056540058025 L 770.0721225234789 306.53641818804493 L 769.9444197367683 306.59259103206 L 769.8168137227249 306.6490839184879 L 769.6893052668341 306.70589683319105 L 769.5618951545815 306.7630297620318 L 769.4345841714525 306.8204826908725 L 769.3073731029322 306.87825560557565 L 769.1802627345061 306.93634849200356 L 769.0532538516596 306.99476133601866 L 768.9263472398783 307.0534941234833 L 768.7995436846473 307.11254684025994 L 768.6728439714523 307.17191947221096 L 768.5462488857784 307.2316120051987 L 768.419759213111 307.2916244250856 L 768.2933757389357 307.3519567177341 L 768.1670992487377 307.4126088690065 L 768.0409305280025 307.4735808647652 L 767.9148703622155 307.53487269087265 L 767.7889195368621 307.5964843331912 L 767.6630788374275 307.6584157775833 L 767.5373490493973 307.7206670099113 L 767.4117309582568 307.7832380160376 L 767.2862253494915 307.84612878182463 L 767.1608330085867 307.90933929313474 L 767.0355547210278 307.9728695358303 L 766.9103912723001 308.03671949577375 L 766.7853434478891 308.1008891588275 L 766.6604120332802 308.1653785108539 L 766.5355978139588 308.2301875377154 L 766.4109015754102 308.2953162252743 L 766.2863241031199 308.36076455939303 L 766.1618661825732 308.4265325259341 L 766.0375285992556 308.49262011075973 L 765.9133121386524 308.5590272997324 L 765.7892175862489 308.6257540787145 L 765.6652457275306 308.69280043356844 L 765.5413973479831 308.76016635015657 L 765.4176732330915 308.82785181434133 L 765.2940741683411 308.895856811985 L 765.1706009392177 308.9641813289502 L 765.0472543312063 309.0328253510991 L 764.9240351297925 309.10178886429424 L 764.8009441204617 309.17107185439795 L 764.6779820886992 309.24067430727257 L 764.5551498199903 309.3105962087806 L 764.4324480998207 309.3808375447844 L 764.3098777136755 309.45139830114636 L 764.1874394470402 309.5222784637288 L 764.0651340854002 309.59347801839425 L 763.9429624142409 309.664996951005 L 763.8209252190477 309.73683524742347 L 763.6990232853059 309.8089928935121 L 763.5772573985009 309.88146987513323 L 763.4556283441183 309.9542661781493 L 763.3341369076433 310.0273817884226 L 763.2127838745612 310.1008166918156 L 763.0915700303576 310.17457087419075 L 762.9704961605178 310.2486443214104 L 762.8495630505272 310.3230370193369 L 762.7287714858712 310.39774895383266 L 762.6081222520352 310.47278011076014 L 762.4876161345045 310.5481304759816 L 762.3672539187646 310.6238000353596 L 762.2470363903009 310.69978877475637 L 762.1269643345987 310.77609668003447" stroke="rgb(132, 0, 0)" fill="none" stroke-width="3.1416902293440003px" stroke-linecap="round"/><path d="M 767.8292420600163 246.87388178841024 L 767.8292420600163 268.9391032775758 L 767.04806078449 268.9391032775758 L 767.04806078449 246.87388178841024" stroke="rgb(132, 0, 0)" fill="none" stroke-width="3.1416902293440003px" stroke-linecap="round"/><path d="M 756.4010610986571 257.5070109118808 L 778.4662825878225 257.5070109118808 L 778.4662825878225 258.2881921874072 L 756.4010610986571 258.2881921874072" stroke="rgb(132, 0, 0)" fill="none" stroke-width="3.1416902293440003px" stroke-linecap="round"/><text x="839.310360501752" y="272.6482807998448" fill="rgb(15, 15, 15)" font-family="sans-serif" text-anchor="start" dominant-baseline="auto" font-size="28.275212064096px">C6</text><text x="839.310360501752" y="319.5763285200048" fill="rgb(15, 15, 15)" font-family="sans-serif" text-anchor="start" dominant-baseline="hanging" font-size="28.275212064096px">10µF</text></g><g data-circuit-json-type="schematic_component" data-schematic-component-id="schematic_component_2"><rect class="component-overlay" x="574.7570589861516" y="212.73080921535916" width="83.12387684575924" height="166.24776939996963" fill="transparent"/><path d="M 616.3189974090309 212.73080921535916 L 616.3189974090309 283.3861029634094" stroke="rgb(132, 0, 0)" fill="none" stroke-width="3.1416902293440003px" stroke-linecap="round"/><path d="M 616.3189974090309 308.32326915882743 L 616.3189974090309 378.9785786153288" stroke="rgb(132, 0, 0)" fill="none" stroke-width="3.1416902293440003px" stroke-linecap="round"/><path d="M 574.7570589861516 283.3861029634095 L 657.8809358319108 283.3861029634094" stroke="rgb(132, 0, 0)" fill="none" stroke-width="3.1416902293440003px" stroke-linecap="round"/><path d="M 574.7570589861516 308.32326915882743 L 657.8809358319108 308.32326915882743" stroke="rgb(132, 0, 0)" fill="none" stroke-width="3.1416902293440003px" stroke-linecap="round"/><text x="651.9360882038859" y="263.56516909265156" fill="rgb(15, 15, 15)" font-family="sans-serif" text-anchor="start" dominant-baseline="auto" font-size="28.275212064096px">C16</text><text x="651.9360882038859" y="326.18730701953154" fill="rgb(15, 15, 15)" font-family="sans-serif" text-anchor="start" dominant-baseline="hanging" font-size="28.275212064096px">1µF</text></g><g class="trace" data-circuit-json-type="schematic_trace" data-schematic-trace-id="schematic_trace_0"><path d="M 803.7492075014306 217.3920564663812 L 804.1701060395001 217.3920564663812 L 804.1701060395001 168.3736516913" class="trace-invisible-hover-outline" stroke="rgb(0, 150, 0)" fill="none" stroke-width="25.133521834752003px" stroke-linecap="round" opacity="0" stroke-linejoin="round"/><path d="M 803.7492075014306 217.3920564663812 L 804.1701060395001 217.3920564663812 L 804.1701060395001 168.3736516913" stroke="rgb(0, 150, 0)" fill="none" stroke-width="3.1416902293440003px" stroke-linecap="round" stroke-linejoin="round"/></g><g class="trace" data-circuit-json-type="schematic_trace" data-schematic-trace-id="schematic_trace_1"><path d="M 616.3749352035646 208.28979444941427 L 561.0422347276923 208.28979444941427 L 561.0422347276923 208.1160330925016 L 505.70953425182006 208.1160330925016" class="trace-invisible-hover-outline" stroke="rgb(0, 150, 0)" fill="none" stroke-width="25.133521834752003px" stroke-linecap="round" opacity="0" stroke-linejoin="round"/><path d="M 616.3749352035646 208.28979444941427 L 561.0422347276923 208.28979444941427 L 561.0422347276923 208.1160330925016 L 505.70953425182006 208.1160330925016" stroke="rgb(0, 150, 0)" fill="none" stroke-width="3.1416902293440003px" stroke-linecap="round" stroke-linejoin="round"/></g><g class="trace" data-circuit-json-type="schematic_trace" data-schematic-trace-id="schematic_trace_2"><path d="M 616.3749352035646 208.28979444941427 L 710.0620713524977 208.28979444941427 L 710.0620713524977 217.3920564663812 L 803.7492075014306 217.3920564663812" class="trace-invisible-hover-outline" stroke="rgb(0, 150, 0)" fill="none" stroke-width="25.133521834752003px" stroke-linecap="round" opacity="0" stroke-linejoin="round"/><path d="M 616.3749352035646 208.28979444941427 L 710.0620713524977 208.28979444941427 L 710.0620713524977 217.3920564663812 L 803.7492075014306 217.3920564663812" stroke="rgb(0, 150, 0)" fill="none" stroke-width="3.1416902293440003px" stroke-linecap="round" stroke-linejoin="round"/></g><g class="trace" data-circuit-json-type="schematic_trace" data-schematic-trace-id="schematic_trace_3"><path d="M 803.83508560385 372.3604196458019 L 804.1701060395001 372.3604196458019 L 804.1701060395001 435.41732118554" class="trace-invisible-hover-outline" stroke="rgb(0, 150, 0)" fill="none" stroke-width="25.133521834752003px" stroke-linecap="round" opacity="0" stroke-linejoin="round"/><path d="M 803.83508560385 372.3604196458019 L 804.1701060395001 372.3604196458019 L 804.1701060395001 435.41732118554" stroke="rgb(0, 150, 0)" fill="none" stroke-width="3.1416902293440003px" stroke-linecap="round" stroke-linejoin="round"/></g><g class="trace" data-circuit-json-type="schematic_trace" data-schematic-trace-id="schematic_trace_4"><path d="M 616.4608133059836 381.4626816627689 L 616.454114836196 381.4626816627689 L 616.454114836196 435.41732118554" class="trace-invisible-hover-outline" stroke="rgb(0, 150, 0)" fill="none" stroke-width="25.133521834752003px" stroke-linecap="round" opacity="0" stroke-linejoin="round"/><path d="M 616.4608133059836 381.4626816627689 L 616.454114836196 381.4626816627689 L 616.454114836196 435.41732118554" stroke="rgb(0, 150, 0)" fill="none" stroke-width="3.1416902293440003px" stroke-linecap="round" stroke-linejoin="round"/></g><rect class="component-overlay" x="789.5006903938797" y="101.6899570635772" width="29.104539742386805" height="64.33583097707833" fill="transparent"/><path d="M 803.8230435198647 101.6899570635772 L 789.5006903938797 131.7042046287732" stroke="rgb(132, 0, 0)" fill="none" stroke-width="3.1416902293440003px" stroke-linecap="round"/><path d="M 804.2828770102823 101.70560268091933 L 818.6052301362665 131.71992878837108" stroke="rgb(132, 0, 0)" fill="none" stroke-width="3.1416902293440003px" stroke-linecap="round"/><path d="M 803.9887833879135 102.48193004504145 L 803.9887833879135 166.02578804065553" stroke="rgb(132, 0, 0)" fill="none" stroke-width="3.1416902293440003px" stroke-linecap="round"/><text x="803.2861600765716" y="92.48461619018565" fill="rgb(15, 15, 15)" font-family="sans-serif" text-anchor="middle" dominant-baseline="ideographic" font-size="28.275212064096px">V3_3</text><rect class="component-overlay" x="768.0029681192918" y="435.24712011736534" width="70.58141690230707" height="75.93927112788163" fill="transparent"/><path d="M 803.9994808431444 435.24712011736534 L 803.9994808431444 487.0274217196374" stroke="rgb(132, 0, 0)" fill="none" stroke-width="3.1416902293440003px" stroke-linecap="round"/><path d="M 768.0029681192918 487.02226934766134 L 838.5843850215989 487.02226934766134" stroke="rgb(132, 0, 0)" fill="none" stroke-width="3.1416902293440003px" stroke-linecap="round"/><path d="M 776.8256511227495 499.10433029645424 L 829.7617020181412 499.10433029645424" stroke="rgb(132, 0, 0)" fill="none" stroke-width="3.1416902293440003px" stroke-linecap="round"/><path d="M 794.4710014212135 511.18639124524697 L 812.1163517196775 511.18639124524697" stroke="rgb(132, 0, 0)" fill="none" stroke-width="3.1416902293440003px" stroke-linecap="round"/><text x="800.6166344717958" y="529.5858414494603" fill="rgb(15, 15, 15)" font-family="sans-serif" text-anchor="middle" dominant-baseline="hanging" font-size="28.275212064096px">GND</text><rect class="component-overlay" x="580.2869769159879" y="435.24712011736534" width="70.58141690230707" height="75.93927112788163" fill="transparent"/><path d="M 616.2834896398405 435.24712011736534 L 616.2834896398405 487.0274217196374" stroke="rgb(132, 0, 0)" fill="none" stroke-width="3.1416902293440003px" stroke-linecap="round"/><path d="M 580.2869769159879 487.02226934766134 L 650.868393818295 487.02226934766134" stroke="rgb(132, 0, 0)" fill="none" stroke-width="3.1416902293440003px" stroke-linecap="round"/><path d="M 589.1096599194456 499.10433029645424 L 642.0457108148373 499.10433029645424" stroke="rgb(132, 0, 0)" fill="none" stroke-width="3.1416902293440003px" stroke-linecap="round"/><path d="M 606.7550102179096 511.18639124524697 L 624.4003605163736 511.18639124524697" stroke="rgb(132, 0, 0)" fill="none" stroke-width="3.1416902293440003px" stroke-linecap="round"/><text x="612.9006432684919" y="529.5858414494603" fill="rgb(15, 15, 15)" font-family="sans-serif" text-anchor="middle" dominant-baseline="hanging" font-size="28.275212064096px">GND</text></svg>