<svg xmlns="http://www.w3.org/2000/svg" width="1200" height="600" style="background-color: rgb(245, 241, 237)" data-real-to-screen-transform="matrix(136.2231868866,0,0,-136.2231868866,346.0799796434,185.4088388984)" data-software-used-string="@tscircuit/core@0.0.562"><style>
              .boundary { fill: rgb(245, 241, 237); }
              .schematic-boundary { fill: none; stroke: #fff; }
              .component { fill: none; stroke: rgb(132, 0, 0); }
              .chip { fill: rgb(255, 255, 194); stroke: rgb(132, 0, 0); }
              .component-pin { fill: none; stroke: rgb(132, 0, 0); }
              .trace:hover {
                filter: invert(1);
              }
              .trace:hover .trace-crossing-outline {
                opacity: 0;
              }
              .trace:hover .trace-junction {
                filter: invert(1);
              }
              .text { font-family: sans-serif; fill: rgb(0, 150, 0); }
              .pin-number { fill: rgb(169, 0, 0); }
              .port-label { fill: rgb(0, 100, 100); }
              .component-name { fill: rgb(0, 100, 100); }
            </style><rect class="boundary" x="0" y="0" width="1200" height="600"/><g data-circuit-json-type="schematic_component" data-schematic-component-id="schematic_component_0"><rect class="component chip" x="318.83534226608003" y="144.54188283242001" width="54.48927475463995" height="81.73391213195998" stroke-width="2.724463737732px" fill="rgb(255, 255, 194)" stroke="rgb(132, 0, 0)"/><rect class="component-overlay" x="318.83534226608003" y="144.54188283242001" width="54.48927475463995" height="81.73391213195998" fill="transparent"/><text x="318.83534226608003" y="243.984809259638" fill="#006464" text-anchor="start" dominant-baseline="middle" font-family="sans-serif" font-size="24.520173639588px" transform="rotate(0, 318.83534226608003, 243.984809259638)"></text><text x="318.83534226608003" y="126.832868537162" fill="#006464" text-anchor="start" dominant-baseline="middle" font-family="sans-serif" font-size="24.520173639588px" transform="rotate(0, 318.83534226608003, 126.832868537162)">U1</text><line class="component-pin" x1="425.089428037628" y1="171.78652020974002" x2="373.32461702072004" y2="171.78652020974002" stroke-width="2.724463737732px"/><text class="pin-number" x="400.56925439804" y="169.062056472008" style="font-family: sans-serif;" fill="rgb(169, 0, 0)" text-anchor="middle" dominant-baseline="auto" font-size="20.43347803299px" transform="">1</text><line class="component-pin" x1="425.089428037628" y1="199.03115758706" x2="373.32461702072004" y2="199.03115758706" stroke-width="2.724463737732px"/><text class="pin-number" x="400.56925439804" y="196.306693849328" style="font-family: sans-serif;" fill="rgb(169, 0, 0)" text-anchor="middle" dominant-baseline="auto" font-size="20.43347803299px" transform="">2</text></g><g data-circuit-json-type="schematic_component" data-schematic-component-id="schematic_component_1"><rect class="component-overlay" x="531.4276816331542" y="371.1078298558406" width="36.042393945291906" height="144.16953491421202" fill="transparent"/><path d="M 549.4488786058001 515.2773647700526 L 549.4488786058001 479.23498444707934" stroke="rgb(132, 0, 0)" fill="none" stroke-width="2.724463737732px" stroke-linecap="round"/><path d="M 549.4488786058001 407.1502238011325 L 549.4488786058001 371.1078298558406" stroke="rgb(132, 0, 0)" fill="none" stroke-width="2.724463737732px" stroke-linecap="round"/><path d="M 531.4276816331542 443.1926177464246 L 531.4276816331542 407.15023742345136 L 567.4700755784461 407.15023742345136 L 567.4700755784461 479.2350116917168 L 531.4276816331542 479.2350116917168 L 531.4276816331542 443.1926177464249" stroke="rgb(132, 0, 0)" fill="none" stroke-width="2.724463737732px" stroke-linecap="round"/><text x="586.9942706501278" y="423.755707681741" fill="rgb(15, 15, 15)" font-family="sans-serif" text-anchor="start" dominant-baseline="middle" font-size="24.520173639588px">R7</text><text x="586.9942706501278" y="467.34712748545303" fill="rgb(15, 15, 15)" font-family="sans-serif" text-anchor="start" dominant-baseline="middle" font-size="24.520173639588px">1kΩ</text></g><g data-circuit-json-type="schematic_component" data-schematic-component-id="schematic_component_2"><rect class="component-overlay" x="638.7137251162194" y="175.89897249999285" width="72.08476064594674" height="144.16953491421214" fill="transparent"/><path d="M 674.7561054391925 175.89897249999285 L 674.7561054391925 237.1710176868157" stroke="rgb(132, 0, 0)" fill="none" stroke-width="2.724463737732px" stroke-linecap="round"/><path d="M 674.7561054391925 258.79644860506346 L 674.7561054391925 320.068507414205" stroke="rgb(132, 0, 0)" fill="none" stroke-width="2.724463737732px" stroke-linecap="round"/><path d="M 638.7137251162194 237.17101768681576 L 710.7984857621661 237.1710176868157" stroke="rgb(132, 0, 0)" fill="none" stroke-width="2.724463737732px" stroke-linecap="round"/><path d="M 638.7137251162194 258.79644860506346 L 710.7984857621661 258.79644860506346" stroke="rgb(132, 0, 0)" fill="none" stroke-width="2.724463737732px" stroke-linecap="round"/><text x="705.6431328767616" y="219.99642211214032" fill="rgb(15, 15, 15)" font-family="sans-serif" text-anchor="start" dominant-baseline="auto" font-size="24.520173639588px">C1</text><text x="705.6431328767616" y="274.2740302067803" fill="rgb(15, 15, 15)" font-family="sans-serif" text-anchor="start" dominant-baseline="hanging" font-size="24.520173639588px">100mF</text></g><g data-circuit-json-type="schematic_component" data-schematic-component-id="schematic_component_3"><rect class="component-overlay" x="725.5756371989529" y="154.55615573020472" width="120.03947723723002" height="35.07407866594593" fill="transparent"/><path d="M 760.9472273050593 172.16117724459352 L 725.5756371989529 172.16117724459352" stroke="rgb(132, 0, 0)" fill="none" stroke-width="2.724463737732px" stroke-linecap="round"/><path d="M 845.6151144361829 171.92759534603894 L 810.4331742508601 171.92759534603894" stroke="rgb(132, 0, 0)" fill="none" stroke-width="2.724463737732px" stroke-linecap="round"/><path d="M 794.7571275520603 171.9286578868967 L 776.6212851453306 171.9286578868967" stroke="rgb(132, 0, 0)" fill="none" stroke-width="2.724463737732px" stroke-linecap="round"/><path d="M 795.0159924741009 154.84180213078713 L 795.0159924741009 189.16821983550602" stroke="rgb(132, 0, 0)" fill="none" stroke-width="2.724463737732px" stroke-linecap="round"/><path d="M 776.3519446602184 154.82868383789 L 776.3519446602184 189.15510154260883" stroke="rgb(132, 0, 0)" fill="none" stroke-width="2.724463737732px" stroke-linecap="round"/><path d="M 775.7190789785806 189.6129612960535 L 775.7190789785806 189.6129612960535 L 773.590353944249 188.46502861931577 L 771.6753826184931 187.27500308983582 L 769.9669915821343 186.04724223610603 L 768.4580074159934 184.78610358661882 L 767.1412567008919 183.4959446698666 L 766.0095660176509 182.18112301434172 L 765.0557619470915 180.84599614853664 L 764.2726710700349 179.49492160094377 L 763.6531199673025 178.13225690005547 L 763.1899352197152 176.76235957436415 L 762.8759434080944 175.38958715236222 L 762.7039711132612 174.0182971625421 L 762.6668449160368 172.65284713339616 L 762.7573913972425 171.29759459341682 L 762.9684371376993 169.95689707109648 L 763.2928087182286 168.63511209492754 L 763.7233327196514 167.3365971934024 L 764.252835722789 166.06570989501347 L 764.8741443084625 164.82680772825313 L 765.5800850574933 163.62424822161384 L 766.3634845507023 162.46238890358794 L 767.217169368911 161.34558730266784 L 768.1339660929403 160.27820094734597 L 769.1067013036115 159.2645873661147 L 770.128201581746 158.3091040874665 L 771.1912935081647 157.41610863989368 L 772.2888036636889 156.5899585518887 L 773.4135586291397 155.83501135194396 L 774.5583849853385 155.15562456855181 L 775.7161093131064 154.55615573020472 L 775.7161093131064 154.55615573020472" stroke="rgb(132, 0, 0)" fill="none" stroke-width="2.724463737732px" stroke-linecap="round"/><path d="M 795.6386959059971 189.63023439615066 L 795.6386959059971 189.63023439615066 L 797.7674209403286 188.48230171941293 L 799.6823922660844 187.29227618993298 L 801.3907833024433 186.0645153362032 L 802.8997674685842 184.80337668671598 L 804.2165181836857 183.51321776996375 L 805.3482088669268 182.1983961144389 L 806.3020129374862 180.86326924863383 L 807.0851038145427 179.51219470104093 L 807.7046549172752 178.14953000015262 L 808.1678396648624 176.7796326744613 L 808.4818314764832 175.4068602524594 L 808.6538037713165 174.03557026263925 L 808.6909299685408 172.67012023349332 L 808.6003834873351 171.314867693514 L 808.3893377468783 169.97417017119363 L 808.064966166349 168.65238519502472 L 807.6344421649262 167.35387029349957 L 807.1049391617886 166.08298299511063 L 806.483630576115 164.84408082835031 L 805.7776898270843 163.641521321711 L 804.9942903338753 162.4796620036851 L 804.1406055156666 161.36286040276502 L 803.2238087916372 160.29547404744315 L 802.251073580966 159.2818604662119 L 801.2295733028316 158.32637718756368 L 800.1664813764129 157.43338173999086 L 799.0689712208888 156.60723165198587 L 797.9442162554378 155.85228445204112 L 796.799389899239 155.172897668649 L 795.6416655714712 154.5734288303019 L 795.6416655714712 154.5734288303019" stroke="rgb(132, 0, 0)" fill="none" stroke-width="2.724463737732px" stroke-linecap="round"/><text x="782.8165522171089" y="147.65932695132022" fill="rgb(15, 15, 15)" font-family="sans-serif" text-anchor="middle" dominant-baseline="auto" font-size="24.520173639588px">JP1</text></g><g data-circuit-json-type="schematic_component" data-schematic-component-id="schematic_component_4"><rect class="component-overlay" x="504.59088884080967" y="173.3522423831959" width="62.58865591040052" height="143.3282068896818" fill="transparent"/><path d="M 549.1583477785638 263.4582000017886 L 567.1795447512102 227.41581967881527" stroke="rgb(132, 0, 0)" fill="none" stroke-width="2.724463737732px" stroke-linecap="round"/><path d="M 549.188834527789 262.3383364270313 L 549.188834527789 316.6804492728777" stroke="rgb(132, 0, 0)" fill="none" stroke-width="2.724463737732px" stroke-linecap="round"/><path d="M 531.1371508059178 227.41581967881527 L 549.1583477785638 263.4582000017886" stroke="rgb(132, 0, 0)" fill="none" stroke-width="2.724463737732px" stroke-linecap="round"/><path d="M 567.1795447512102 227.41581967881527 L 531.1371508059178 227.41581967881527" stroke="rgb(132, 0, 0)" fill="none" stroke-width="2.724463737732px" stroke-linecap="round"/><path d="M 531.1371508059178 263.4582000017886 L 567.1795447512102 263.4582000017886" stroke="rgb(132, 0, 0)" fill="none" stroke-width="2.724463737732px" stroke-linecap="round"/><path d="M 549.1583477785638 227.13740672945642 L 549.1583477785638 173.3522423831959" stroke="rgb(132, 0, 0)" fill="none" stroke-width="2.724463737732px" stroke-linecap="round"/><path d="M 509.7695222688533 266.16718878549017 L 507.47018385275675 279.4274671103616 L 520.106628093281 274.754630375228" stroke="rgb(132, 0, 0)" fill="none" stroke-width="2.724463737732px" stroke-linecap="round"/><path d="M 526.0542959005745 255.84972634461118 L 524.8374141721162 257.48760583214215 L 512.5152368237391 274.0736642863005 L 512.3858247961969 274.15948489403905" stroke="rgb(132, 0, 0)" fill="none" stroke-width="2.724463737732px" stroke-linecap="round"/><path d="M 506.8902272569062 241.9921638345167 L 504.59088884080967 255.2524421593882 L 517.2273330813339 250.5796054242545" stroke="rgb(132, 0, 0)" fill="none" stroke-width="2.724463737732px" stroke-linecap="round"/><path d="M 523.1750008886274 231.67470139363772 L 521.9581191601691 233.31258088116877 L 509.635941811792 249.8986393353271 L 509.50652978424984 249.98445994306567" stroke="rgb(132, 0, 0)" fill="none" stroke-width="2.724463737732px" stroke-linecap="round"/><text x="575.8994497678763" y="272.19589576666226" fill="rgb(15, 15, 15)" font-family="sans-serif" text-anchor="start" dominant-baseline="middle" font-size="24.520173639588px"></text><text x="575.8994497678763" y="219.06885288088827" fill="rgb(15, 15, 15)" font-family="sans-serif" text-anchor="start" dominant-baseline="middle" font-size="24.520173639588px">LED1</text></g><g class="trace" data-circuit-json-type="schematic_trace" data-schematic-trace-id="schematic_trace_0"><path d="M 427.81389177536005 171.78652020974002 L 488.536283965533 171.78652020974002 L 488.536283965533 171.90711870510935 L 549.258676155706 171.90711870510935" class="trace-invisible-hover-outline" stroke="rgb(0, 150, 0)" fill="none" stroke-width="21.795709901856px" stroke-linecap="round" opacity="0" stroke-linejoin="round"/><path d="M 427.81389177536005 171.78652020974002 L 488.536283965533 171.78652020974002 L 488.536283965533 171.90711870510935 L 549.258676155706 171.90711870510935" stroke="rgb(0, 150, 0)" fill="none" stroke-width="2.724463737732px" stroke-linecap="round" stroke-linejoin="round"/></g><g class="trace" data-circuit-json-type="schematic_trace" data-schematic-trace-id="schematic_trace_1"><path d="M 427.81389177536005 199.03115758706 L 488.65564654016475 199.03115758706 L 488.65564654016475 518.266087868026 L 549.4974013049695 518.266087868026" class="trace-invisible-hover-outline" stroke="rgb(0, 150, 0)" fill="none" stroke-width="21.795709901856px" stroke-linecap="round" opacity="0" stroke-linejoin="round"/><path d="M 427.81389177536005 199.03115758706 L 488.65564654016475 199.03115758706 L 488.65564654016475 518.266087868026 L 549.4974013049695 518.266087868026" stroke="rgb(0, 150, 0)" fill="none" stroke-width="2.724463737732px" stroke-linecap="round" stroke-linejoin="round"/></g><g class="trace" data-circuit-json-type="schematic_trace" data-schematic-trace-id="schematic_trace_2"><path d="M 724.8991392305554 172.0407150804297 L 699.8518768732993 172.0407150804297 L 699.8518768732993 172.04773867192836 L 674.804614516043 172.04773867192836" class="trace-invisible-hover-outline" stroke="rgb(0, 150, 0)" fill="none" stroke-width="21.795709901856px" stroke-linecap="round" opacity="0" stroke-linejoin="round"/><path d="M 724.8991392305554 172.0407150804297 L 699.8518768732993 172.0407150804297 L 699.8518768732993 172.04773867192836 L 674.804614516043 172.04773867192836" stroke="rgb(0, 150, 0)" fill="none" stroke-width="2.724463737732px" stroke-linecap="round" stroke-linejoin="round"/></g><g class="trace" data-circuit-json-type="schematic_trace" data-schematic-trace-id="schematic_trace_3"><path d="M 549.258676155706 171.90711870510935 L 612.0316453358745 171.90711870510935 L 612.0316453358745 172.04773867192836 L 674.804614516043 172.04773867192836" class="trace-invisible-hover-outline" stroke="rgb(0, 150, 0)" fill="none" stroke-width="21.795709901856px" stroke-linecap="round" opacity="0" stroke-linejoin="round"/><path d="M 549.258676155706 171.90711870510935 L 612.0316453358745 171.90711870510935 L 612.0316453358745 172.04773867192836 L 674.804614516043 172.04773867192836" stroke="rgb(0, 150, 0)" fill="none" stroke-width="2.724463737732px" stroke-linecap="round" stroke-linejoin="round"/></g><g class="trace" data-circuit-json-type="schematic_trace" data-schematic-trace-id="schematic_trace_4"><path d="M 549.3204533709595 317.9953980735753 L 549.4461503237811 317.9953980735753 L 549.4461503237811 368.06893575813694 L 549.5718472766027 368.06893575813694" class="trace-invisible-hover-outline" stroke="rgb(0, 150, 0)" fill="none" stroke-width="21.795709901856px" stroke-linecap="round" opacity="0" stroke-linejoin="round"/><path d="M 549.3204533709595 317.9953980735753 L 549.4461503237811 317.9953980735753 L 549.4461503237811 368.06893575813694 L 549.5718472766027 368.06893575813694" stroke="rgb(0, 150, 0)" fill="none" stroke-width="2.724463737732px" stroke-linecap="round" stroke-linejoin="round"/></g><g class="trace" data-circuit-json-type="schematic_trace" data-schematic-trace-id="schematic_trace_5"><path d="M 674.804614516043 172.04773867192836 L 674.8418511241783 172.04773867192836 L 674.8418511241783 130.91956414376" class="trace-invisible-hover-outline" stroke="rgb(0, 150, 0)" fill="none" stroke-width="21.795709901856px" stroke-linecap="round" opacity="0" stroke-linejoin="round"/><path d="M 674.804614516043 172.04773867192836 L 674.8418511241783 172.04773867192836 L 674.8418511241783 130.91956414376" stroke="rgb(0, 150, 0)" fill="none" stroke-width="2.724463737732px" stroke-linecap="round" stroke-linejoin="round"/></g><g class="trace" data-circuit-json-type="schematic_trace" data-schematic-trace-id="schematic_trace_6"><path d="M 846.355950615747 172.0576612448784 L 890.9727271898 172.0576612448784 L 890.9727271898 130.91956414376" class="trace-invisible-hover-outline" stroke="rgb(0, 150, 0)" fill="none" stroke-width="21.795709901856px" stroke-linecap="round" opacity="0" stroke-linejoin="round"/><path d="M 846.355950615747 172.0576612448784 L 890.9727271898 172.0576612448784 L 890.9727271898 130.91956414376" stroke="rgb(0, 150, 0)" fill="none" stroke-width="2.724463737732px" stroke-linecap="round" stroke-linejoin="round"/></g><g class="trace" data-circuit-json-type="schematic_trace" data-schematic-trace-id="schematic_trace_7"><path d="M 674.8790877323138 322.22271364699236 L 674.8418511241783 322.22271364699236 L 674.8418511241783 384.1078190730407" class="trace-invisible-hover-outline" stroke="rgb(0, 150, 0)" fill="none" stroke-width="21.795709901856px" stroke-linecap="round" opacity="0" stroke-linejoin="round"/><path d="M 674.8790877323138 322.22271364699236 L 674.8418511241783 322.22271364699236 L 674.8418511241783 384.1078190730407" stroke="rgb(0, 150, 0)" fill="none" stroke-width="2.724463737732px" stroke-linecap="round" stroke-linejoin="round"/></g><rect class="component-overlay" x="662.1205807051797" y="73.09167703562838" width="25.239363954755618" height="55.79182724533109" fill="transparent"/><path d="M 674.5408796150714 73.09167703562838 L 662.1205807051797 99.11993671028193" stroke="rgb(132, 0, 0)" fill="none" stroke-width="2.724463737732px" stroke-linecap="round"/><path d="M 674.9396457500442 73.1052448650423 L 687.3599446599353 99.13357265128928" stroke="rgb(132, 0, 0)" fill="none" stroke-width="2.724463737732px" stroke-linecap="round"/><path d="M 674.6846086995552 73.77847347695462 L 674.6846086995552 128.88350428095947" stroke="rgb(132, 0, 0)" fill="none" stroke-width="2.724463737732px" stroke-linecap="round"/><text x="674.0752960069299" y="65.10883481624948" fill="rgb(15, 15, 15)" font-family="sans-serif" text-anchor="middle" dominant-baseline="ideographic" font-size="24.520173639588px">V5</text><rect class="component-overlay" x="878.2514567708014" y="73.09167703562838" width="25.239363954755618" height="55.79182724533109" fill="transparent"/><path d="M 890.6717556806931 73.09167703562838 L 878.2514567708014 99.11993671028193" stroke="rgb(132, 0, 0)" fill="none" stroke-width="2.724463737732px" stroke-linecap="round"/><path d="M 891.0705218156659 73.1052448650423 L 903.490820725557 99.13357265128928" stroke="rgb(132, 0, 0)" fill="none" stroke-width="2.724463737732px" stroke-linecap="round"/><path d="M 890.8154847651768 73.77847347695462 L 890.8154847651768 128.88350428095947" stroke="rgb(132, 0, 0)" fill="none" stroke-width="2.724463737732px" stroke-linecap="round"/><text x="890.2061720725516" y="65.10883481624948" fill="rgb(15, 15, 15)" font-family="sans-serif" text-anchor="middle" dominant-baseline="ideographic" font-size="24.520173639588px">VIN</text><rect class="component-overlay" x="643.4778245754075" y="383.960221250049" width="61.20797942203001" height="65.85429350267691" fill="transparent"/><path d="M 674.6938854985821 383.960221250049 L 674.6938854985821 428.86393350231435" stroke="rgb(132, 0, 0)" fill="none" stroke-width="2.724463737732px" stroke-linecap="round"/><path d="M 643.4778245754075 428.8594653817845 L 704.6858039974375 428.8594653817845" stroke="rgb(132, 0, 0)" fill="none" stroke-width="2.724463737732px" stroke-linecap="round"/><path d="M 651.1288271115308 439.3369900672553 L 697.034801461314 439.3369900672553" stroke="rgb(132, 0, 0)" fill="none" stroke-width="2.724463737732px" stroke-linecap="round"/><path d="M 666.4308185614586 449.8145147527259 L 681.7328100113865 449.8145147527259" stroke="rgb(132, 0, 0)" fill="none" stroke-width="2.724463737732px" stroke-linecap="round"/><text x="671.7602919243417" y="465.7704592336215" fill="rgb(15, 15, 15)" font-family="sans-serif" text-anchor="middle" dominant-baseline="hanging" font-size="24.520173639588px">GND</text></svg>