<svg xmlns="http://www.w3.org/2000/svg" width="1200" height="600" style="background-color: rgb(245, 241, 237)" data-real-to-screen-transform="matrix(133.0731014904,0,0,-133.0731014904,398.8291132194,194.4286728176)" data-software-used-string="@tscircuit/core@0.0.555"><style>
              .boundary { fill: rgb(245, 241, 237); }
              .schematic-boundary { fill: none; stroke: #fff; }
              .component { fill: none; stroke: rgb(132, 0, 0); }
              .chip { fill: rgb(255, 255, 194); stroke: rgb(132, 0, 0); }
              .component-pin { fill: none; stroke: rgb(132, 0, 0); }
              .trace:hover {
                filter: invert(1);
              }
              .trace:hover .trace-crossing-outline {
                opacity: 0;
              }
              .trace:hover .trace-junction {
                filter: invert(1);
              }
              .text { font-family: sans-serif; fill: rgb(0, 150, 0); }
              .pin-number { fill: rgb(169, 0, 0); }
              .port-label { fill: rgb(0, 100, 100); }
              .component-name { fill: rgb(0, 100, 100); }
            </style><rect class="boundary" x="0" y="0" width="1200" height="600"/><g data-circuit-json-type="schematic_component" data-schematic-component-id="schematic_component_0"><rect class="component chip" x="388.576909237961" y="133.90768603300526" width="53.229240596160025" height="133.07310149040003" stroke-width="2.6614620298080003px" fill="rgb(255, 255, 194)" stroke="rgb(132, 0, 0)"/><rect class="component-overlay" x="388.576909237961" y="133.90768603300526" width="53.229240596160025" height="133.07310149040003" fill="transparent"/><text x="388.576909237961" y="284.2802907171573" fill="#006464" text-anchor="start" dominant-baseline="middle" font-family="sans-serif" font-size="23.953158268272px" transform="rotate(0, 388.576909237961, 284.2802907171573)"></text><text x="388.576909237961" y="116.60818283925325" fill="#006464" text-anchor="start" dominant-baseline="middle" font-family="sans-serif" font-size="23.953158268272px" transform="rotate(0, 388.576909237961, 116.60818283925325)">U1</text><line class="component-pin" x1="492.373928400473" y1="240.36616722532526" x2="441.806149834121" y2="240.36616722532526" stroke-width="2.6614620298080003px"/><text class="pin-number" x="468.420770132201" y="237.70470519551725" style="font-family: sans-serif;" fill="rgb(169, 0, 0)" text-anchor="middle" dominant-baseline="auto" font-size="19.96096522356px" transform="">1</text><line class="component-pin" x1="492.373928400473" y1="200.44423677820527" x2="441.806149834121" y2="200.44423677820527" stroke-width="2.6614620298080003px"/><text class="pin-number" x="468.420770132201" y="197.78277474839726" style="font-family: sans-serif;" fill="rgb(169, 0, 0)" text-anchor="middle" dominant-baseline="auto" font-size="19.96096522356px" transform="">2</text><line class="component-pin" x1="492.373928400473" y1="160.52230633108525" x2="441.806149834121" y2="160.52230633108525" stroke-width="2.6614620298080003px"/><text class="pin-number" x="468.420770132201" y="157.86084430127724" style="font-family: sans-serif;" fill="rgb(169, 0, 0)" text-anchor="middle" dominant-baseline="auto" font-size="19.96096522356px" transform="">3</text></g><g data-circuit-json-type="schematic_component" data-schematic-component-id="schematic_component_1"><rect class="component-overlay" x="762.579240957104" y="160.1947274287466" width="75.29603442156485" height="131.2804205109822" fill="transparent"/><path d="M 797.8119946831462 291.4751479397288 L 797.8119946831462 231.6188668893469" stroke="rgb(132, 0, 0)" fill="none" stroke-width="2.6614620298080003px" stroke-linecap="round"/><path d="M 797.8119946831462 220.04990397238615 L 797.8119946831462 160.1947274287466" stroke="rgb(132, 0, 0)" fill="none" stroke-width="2.6614620298080003px" stroke-linecap="round"/><path d="M 833.3318403183434 231.111459153364 L 762.579240957104 231.111459153364" stroke="rgb(132, 0, 0)" fill="none" stroke-width="2.6614620298080003px" stroke-linecap="round"/><path d="M 763.0412973800991 212.3636947814717 L 763.0412973800991 212.3636947814717 L 763.2056558448569 212.46145183355208 L 763.3701371066782 212.55872143942057 L 763.5347412905187 212.65550233810313 L 763.6994685213339 212.75179326862565 L 763.8643189240796 212.84759297001403 L 764.0292926237114 212.9429001812942 L 764.1943897451849 213.03771364149202 L 764.3596104134559 213.1320320896334 L 764.5249547534798 213.22585426474427 L 764.6904228902124 213.31917890585055 L 764.8560149486093 213.41200475197812 L 765.0217310536261 213.50433054215287 L 765.1875713302185 213.59615501540074 L 765.3535359033422 213.6874769107476 L 765.5196248979527 213.77829496721935 L 765.6858384390057 213.86860792384195 L 765.8521766514568 213.95841451964125 L 766.0186396602619 214.04771349364322 L 766.1852275903763 214.13650358487368 L 766.3519405667557 214.22478353235857 L 766.518778714356 214.31255207512382 L 766.6857421581326 214.39980795219532 L 766.8528310230412 214.48654990259897 L 767.0200454340375 214.57277666536066 L 767.187385516077 214.6584869795063 L 767.3548513941155 214.74367958406182 L 767.5224431931085 214.82835321805314 L 767.6901610380118 214.9125066205061 L 767.858005053781 214.99613853044664 L 768.0259753653716 215.0792476869007 L 768.1940720977393 215.1618328288941 L 768.36229537584 215.24389269545281 L 768.530645324629 215.32542602560275 L 768.699122069062 215.40643155836977 L 768.8677257340948 215.48690803277978 L 769.036456444683 215.56685418785872 L 769.2053143257822 215.6462687626325 L 769.374299502348 215.725150496127 L 769.543412099336 215.8034981273681 L 769.712652241702 215.88131039538175 L 769.8820200544017 215.95858603919385 L 770.0515156623904 216.03532379783027 L 770.2211391906241 216.11152241031695 L 770.3908907640582 216.1871806156798 L 770.5607705076485 216.26229715294468 L 770.7307785463506 216.33687076113753 L 770.9009150051202 216.41090017928425 L 771.0711800089126 216.48438414641078 L 771.2415736826839 216.55732140154294 L 771.4120961513896 216.6297106837067 L 771.5827475399851 216.70155073192794 L 771.7535279734265 216.77284028523258 L 771.924437576669 216.84357808264653 L 772.0954764746684 216.91376286319567 L 772.2666447923804 216.9833933659059 L 772.4379426547606 217.05246832980316 L 772.6093701867646 217.12098649391334 L 772.7809275133483 217.18894659726234 L 772.9526147594669 217.25634737887606 L 773.1244320500764 217.3231875777804 L 773.2963795101322 217.3894659330013 L 773.4684572645901 217.45518118356463 L 773.6406654384058 217.52033206849632 L 773.8130041565347 217.58491732682225 L 773.9854735439327 217.64893569756833 L 774.1580737255553 217.7123859197605 L 774.3308048263582 217.7752667324246 L 774.5036669712969 217.83757687458657 L 774.6766602853272 217.89931508527235 L 774.8497848934047 217.9604801035078 L 775.0230409204851 218.02107066831883 L 775.1964284915239 218.08108551873133 L 775.3699477314768 218.14052339377125 L 775.5435987652996 218.19938303246445 L 775.7173817179478 218.25766317383687 L 775.891296714377 218.3153625569144 L 776.0653438795428 218.37247992072295 L 776.239523338401 218.4290140042884 L 776.4138352159072 218.4849635466367 L 776.588279637017 218.5403272867937 L 776.7628567266861 218.59510396378536 L 776.93756660987 218.64929231663757 L 777.1124094115246 218.7028910843762 L 777.2873852566053 218.7558990060272 L 777.4624942700677 218.80831482061643 L 777.6377365768678 218.86013726716982 L 777.8131123019609 218.91136508471328 L 777.9886215703028 218.96199701227272 L 778.1642645068491 219.01203178887403 L 778.3400412365554 219.0614681535431 L 778.5159518843774 219.11030484530588 L 778.6919965752708 219.15854060318824 L 778.8681754341911 219.2061741662161 L 779.044488586094 219.25320427341535 L 779.2209361559352 219.29962966381188 L 779.3975182686703 219.34544907643163 L 779.5742350492549 219.39066125030052 L 779.7510866226446 219.43526492444443 L 779.9280731137952 219.47925883788923 L 780.1051946476623 219.52264172966085 L 780.1051946476623 219.52264172966085 L 780.3282339448988 219.5764477992093 L 780.5514205479107 219.6294559869 L 780.7747530612668 219.6816680551266 L 780.9982300895358 219.73308576628256 L 781.2218502372868 219.78371088276143 L 781.4456121090886 219.83354516695678 L 781.6695143095101 219.88259038126213 L 781.8935554431198 219.93084828807102 L 782.1177341144869 219.978320649777 L 782.3420489281801 220.02500922877363 L 782.5664984887683 220.07091578745442 L 782.7910814008202 220.11604208821294 L 783.0157962689048 220.1603898934427 L 783.240641697591 220.20396096553728 L 783.4656162914473 220.24675706689018 L 783.6907186550429 220.28877995989495 L 783.9159473929466 220.33003140694518 L 784.141301109727 220.37051317043435 L 784.3667784099532 220.41022701275602 L 784.592377898194 220.44917469630374 L 784.8180981790181 220.48735798347104 L 785.0439378569945 220.5247786366515 L 785.2698955366919 220.56143841823862 L 785.4959698226793 220.59733909062595 L 785.7221593195254 220.632482416207 L 785.9484626317992 220.6668701573754 L 786.1748783640694 220.70050407652462 L 786.4014051209049 220.7333859360482 L 786.6280415068744 220.7655174983397 L 786.8547861265471 220.7969005257927 L 787.0816375844915 220.82753678080067 L 787.3085944852766 220.8574280257572 L 787.5356554334712 220.88657602305582 L 787.7628190336442 220.91498253509005 L 787.9900838903643 220.94264932425347 L 788.2174486082005 220.9695781529396 L 788.4449117917216 220.99577078354196 L 788.6724720454964 221.02122897845413 L 788.9001279740938 221.04595450006963 L 789.1278781820826 221.069949110782 L 789.3557212740316 221.0932145729848 L 789.5836558545097 221.11575264907157 L 789.8116805280858 221.13756510143583 L 790.0397938993287 221.15865369247115 L 790.2679945728072 221.17902018457102 L 790.4962811530902 221.19866634012905 L 790.7246522447465 221.21759392153874 L 790.9531064523449 221.23580469119364 L 791.1816423804544 221.2533004114873 L 791.4102586336436 221.2700828448132 L 791.6389538164816 221.28615375356497 L 791.8677265335372 221.30151490013614 L 792.096575389379 221.3161680469202 L 792.3254989885761 221.33011495631072 L 792.5544959356972 221.34335739070124 L 792.7835648353113 221.3558971124853 L 793.0127042919871 221.36773588405646 L 793.2419129102935 221.37887546780823 L 793.4711892947993 221.38931762613416 L 793.7005320500734 221.3990641214278 L 793.9299397806847 221.4081167160827 L 794.1594110912018 221.4164771724924 L 794.3889445861938 221.42414725305042 L 794.6185388702294 221.4311287201503 L 794.8481925478776 221.43742333618562 L 795.077904223707 221.4430328635499 L 795.3076725022867 221.44795906463665 L 795.5374959881852 221.45220370183944 L 795.7673732859719 221.45576853755185 L 795.9973030002151 221.45865533416733 L 796.2272837354839 221.46086585407951 L 796.457314096347 221.46240185968188 L 796.6873926873734 221.463265113368 L 796.9175181131319 221.46345737753143 L 797.1476889781912 221.46298041456566 L 797.3779038871205 221.4618359868643 L 797.6081614444882 221.4600258568208 L 797.8384602548634 221.45755178682882 L 798.0687989228151 221.4544155392818 L 798.2991760529117 221.45061887657332 L 798.5295902497223 221.4461635610969 L 798.7600401178158 221.44105135524612 L 798.9905242617609 221.4352840214145 L 799.2210412861266 221.4288633219956 L 799.4515897954816 221.42179101938294 L 799.6821683943948 221.41406887597003 L 799.9127756874351 221.40569865415048 L 800.1434102791712 221.3966821163178 L 800.3740707741721 221.38702102486553 L 800.6047557770065 221.37671714218723 L 800.8354638922433 221.3657722306764 L 801.0661937244514 221.3541880527266 L 801.2969438781996 221.3419663707314 L 801.5277129580568 221.3291089470843 L 801.7584995685917 221.3156175441789 L 801.9893023143733 221.30149392440867 L 802.2201197999702 221.28673985016718 L 802.4509506299515 221.271357083848 L 802.681793408886 221.2553473878446 L 802.9126467413425 221.2387125245506 L 802.9126467413425 221.2387125245506 L 803.1083173452195 221.22117236268494 L 803.3040430769706 221.20336110719788 L 803.4998214491405 221.18527471822966 L 803.6956499742736 221.1669091559204 L 803.8915261649141 221.14826038041028 L 804.0874475336065 221.1293243518395 L 804.2834115928949 221.1100970303482 L 804.479415855324 221.09057437607655 L 804.6754578334378 221.07075234916474 L 804.871535039781 221.0506269097529 L 805.0676449868977 221.03019401798127 L 805.2637851873324 221.00944963398996 L 805.4599531536294 220.98838971791918 L 805.656146398333 220.96701022990905 L 805.8523624339877 220.9453071300998 L 806.0485987731378 220.92327637863156 L 806.2448529283276 220.90091393564452 L 806.4411224121015 220.87821576127885 L 806.6374047370039 220.8551778156747 L 806.8336974155791 220.83179605897226 L 807.0299979603715 220.80806645131167 L 807.2263038839254 220.78398495283315 L 807.4226126987852 220.75954752367682 L 807.6189219174953 220.7347501239829 L 807.8152290525999 220.70958871389152 L 808.0115316166435 220.68405925354287 L 808.2078271221704 220.65815770307714 L 808.4041130817251 220.63188002263445 L 808.6003870078517 220.60522217235498 L 808.7966464130948 220.57818011237893 L 808.9928888099986 220.55074980284647 L 809.1891117111076 220.52292720389775 L 809.385312628966 220.49470827567296 L 809.5814890761181 220.46608897831226 L 809.7776385651085 220.4370652719558 L 809.9737586084815 220.40763311674377 L 810.1698467187813 220.37778847281632 L 810.3659004085524 220.3475273003137 L 810.561917190339 220.31684555937596 L 810.7578945766858 220.28573921014336 L 810.9538300801368 220.254204212756 L 811.1497212132365 220.22223652735414 L 811.3455654885291 220.1898321140779 L 811.5413604185593 220.15698693306743 L 811.7371035158712 220.12369694446292 L 811.9327922930092 220.08995810840455 L 812.1284242625177 220.05576638503248 L 812.3239969369411 220.0211177344869 L 812.5195078288235 219.98600811690793 L 812.7149544507096 219.9504334924358 L 812.9103343151436 219.91438982121065 L 813.1056449346698 219.87787306337265 L 813.3008838218326 219.84087917906197 L 813.4960484891765 219.80340412841878 L 813.6911364492456 219.76544387158327 L 813.8861452145845 219.72699436869559 L 814.0810722977375 219.6880515798959 L 814.2759152112487 219.64861146532442 L 814.4706714676629 219.60866998512125 L 814.6653385795241 219.56822309942663 L 814.8599140593768 219.52726676838068 L 815.0543954197653 219.4857969521236 L 815.2487801732341 219.4438096107955 L 815.4430658323274 219.40130070453665 L 815.6372499095896 219.35826619348717 L 815.8313299175651 219.31470203778719 L 816.0253033687982 219.27060419757694 L 816.2191677758333 219.22596863299657 L 816.4129206512147 219.18079130418624 L 816.6065595074868 219.13506817128615 L 816.8000818571941 219.08879519443644 L 816.9934852128807 219.0419683337773 L 817.1867670870911 218.9945835494489 L 817.3799249923696 218.94663680159135 L 817.5729564412607 218.8981240503449 L 817.7658589463085 218.84904125584973 L 817.9586300200576 218.79938437824592 L 818.1512671750523 218.74914937767372 L 818.3437679238368 218.69833221427325 L 818.5361297789557 218.64692884818473 L 818.7283502529532 218.5949352395483 L 818.9204268583737 218.5423473485041 L 819.1123571077616 218.48916113519238 L 819.3041385136611 218.43537255975326 L 819.4957685886167 218.3809775823269 L 819.6872448451727 218.32597216305348 L 819.8785647958736 218.27035226207317 L 820.0697259532635 218.21411383952616 L 820.260725829887 218.1572528555526 L 820.4515619382883 218.0997652702927 L 820.6422317910118 218.04164704388654 L 820.832732900602 217.98289413647439 L 821.0230627796029 217.92350250819638 L 821.2132189405593 217.86346811919265 L 821.4031988960153 217.8027869296034 L 821.5930001585152 217.74145489956882 L 821.7826202406036 217.67946798922904 L 821.9720566548247 217.61682215872426 L 822.1613069137227 217.55351336819464 L 822.3503685298423 217.48953757778037 L 822.3503685298423 217.48953757778037 L 822.4610592209264 217.4517194871576 L 822.571691886762 217.4136298435717 L 822.6822658619305 217.37526865899932 L 822.7927804810132 217.336635945417 L 822.9032350785913 217.2977317148013 L 823.013628989246 217.25855597912886 L 823.1239615475586 217.2191087503762 L 823.2342320881104 217.1793900405199 L 823.3444399454827 217.1393998615366 L 823.4545844542565 217.0991382254028 L 823.5646649490135 217.05860514409517 L 823.6746807643345 217.0178006295902 L 823.7846312348013 216.97672469386453 L 823.8945156949947 216.9353773488947 L 824.004333479496 216.8937586066573 L 824.1140839228867 216.8518684791289 L 824.223766359748 216.8097069782861 L 824.333380124661 216.76727411610548 L 824.442924552207 216.72456990456362 L 824.5523989769675 216.6815943556371 L 824.6618027335236 216.63834748130245 L 824.7711351564565 216.59482929353632 L 824.8803955803476 216.55103980431525 L 824.9895833397779 216.5069790256158 L 825.0986977693291 216.4626469694146 L 825.207738203582 216.41804364768822 L 825.3167039771182 216.3731690724132 L 825.4255944245189 216.32802325556617 L 825.5344088803652 216.28260620912366 L 825.6431466792385 216.23691794506226 L 825.75180715572 216.19095847535857 L 825.860389644391 216.14472781198918 L 825.9688934798329 216.09822596693064 L 826.0773179966267 216.05145295215954 L 826.1856625293537 216.00440877965244 L 826.2939264125954 215.95709346138594 L 826.4021089809329 215.9095070093366 L 826.5102095689474 215.86164943548107 L 826.6182275112203 215.81352075179583 L 826.7261621423328 215.7651209702575 L 826.8340127968661 215.71645010284269 L 826.9417788094016 215.66750816152793 L 827.0494595145204 215.6182951582898 L 827.157054246804 215.56881110510494 L 827.2645623408334 215.51905601394986 L 827.3719831311901 215.4690298968012 L 827.4793159524552 215.4187327656355 L 827.58656013921 215.3681646324293 L 827.6937150260356 215.31732550915928 L 827.8007799475137 215.26621540780195 L 827.9077542382252 215.21483434033388 L 828.0146372327514 215.16318231873169 L 828.1214282656737 215.11125935497193 L 828.2281266715732 215.05906546103122 L 828.3347317850313 215.0066006488861 L 828.4412429406293 214.95386493051313 L 828.5476594729482 214.90085831788895 L 828.6539807165697 214.8475808229901 L 828.7602060060746 214.79403245779315 L 828.8663346760444 214.7402132342747 L 828.9723660610604 214.68612316441133 L 829.0782994957037 214.6317622601796 L 829.1841343145558 214.57713053355613 L 829.2898698521976 214.52222799651744 L 829.3955054432108 214.46705466104018 L 829.5010404221764 214.41161053910085 L 829.6064741236756 214.3558956426761 L 829.7118058822899 214.29990998374245 L 829.8170350326004 214.24365357427655 L 829.9221609091884 214.1871264262549 L 830.0271828466351 214.13032855165415 L 830.1321001795219 214.0732599624508 L 830.23691224243 214.0159206706215 L 830.3416183699406 213.9583106881428 L 830.4462178966351 213.90043002699127 L 830.5507101570946 213.84227869914352 L 830.6550944859005 213.7838567165761 L 830.759370217634 213.7251640912656 L 830.8635366868764 213.66620083518862 L 830.9675932282089 213.6069669603217 L 831.0715391762127 213.54746247864145 L 831.1753738654693 213.4876874021244 L 831.2790966305598 213.4276417427472 L 831.3827068060655 213.3673255124864 L 831.4862037265675 213.30673872331855 L 831.5895867266474 213.24588138722027 L 831.6928551408862 213.18475351616812 L 831.7960083038653 213.12335512213866 L 831.8990455501659 213.0616862171085 L 832.0019662143692 212.9997468130542 L 832.1047696310565 212.9375369219524 L 832.2074551348092 212.87505655577957 L 832.3100220602083 212.81230572651236 L 832.4124697418354 212.74928444612735 L 832.5147975142715 212.68599272660109 L 832.6170047120979 212.6224305799102 L 832.719090669896 212.5585980180312 L 832.821054722247 212.49449505294072 L 832.9228962037321 212.43012169661532 L 833.0246144489325 212.3654779610316" stroke="rgb(132, 0, 0)" fill="none" stroke-width="2.6614620298080003px" stroke-linecap="round"/><path d="M 828.1939677136597 266.4998152569786 L 828.1939677136597 247.80740929530623 L 828.8557402473715 247.80740929530623 L 828.8557402473715 266.4998152569786" stroke="rgb(132, 0, 0)" fill="none" stroke-width="2.6614620298080003px" stroke-linecap="round"/><path d="M 837.8752753786689 257.4920304805426 L 819.1828694169966 257.4920304805426 L 819.1828694169966 256.83025794683084 L 837.8752753786689 256.83025794683084" stroke="rgb(132, 0, 0)" fill="none" stroke-width="2.6614620298080003px" stroke-linecap="round"/><text x="823.3849586646893" y="204.92549969966996" fill="rgb(15, 15, 15)" font-family="sans-serif" text-anchor="start" dominant-baseline="auto" font-size="23.953158268272px">C1</text><text x="823.3849586646893" y="271.26474472486996" fill="rgb(15, 15, 15)" font-family="sans-serif" text-anchor="start" dominant-baseline="hanging" font-size="23.953158268272px">1µF</text></g><g data-circuit-json-type="schematic_component" data-schematic-component-id="schematic_component_2"><rect class="component-overlay" x="621.307130757339" y="164.6646067421214" width="35.20893364087499" height="140.8356946415699" fill="transparent"/><path d="M 638.9115975777764 305.5003013836913 L 638.9115975777764 270.2913810501264" stroke="rgb(132, 0, 0)" fill="none" stroke-width="2.6614620298080003px" stroke-linecap="round"/><path d="M 638.9115975777764 199.87354038299642 L 638.9115975777765 164.6646067421214" stroke="rgb(132, 0, 0)" fill="none" stroke-width="2.6614620298080003px" stroke-linecap="round"/><path d="M 621.307130757339 235.0824740238716 L 621.307130757339 199.87355369030672 L 656.516064398214 199.87355369030672 L 656.516064398214 270.2914076647469 L 621.307130757339 270.2914076647469 L 621.307130757339 235.08247402387184" stroke="rgb(132, 0, 0)" fill="none" stroke-width="2.6614620298080003px" stroke-linecap="round"/><text x="675.588773322981" y="216.095031688885" fill="rgb(15, 15, 15)" font-family="sans-serif" text-anchor="start" dominant-baseline="middle" font-size="23.953158268272px">R3</text><text x="675.588773322981" y="258.678424165813" fill="rgb(15, 15, 15)" font-family="sans-serif" text-anchor="start" dominant-baseline="middle" font-size="23.953158268272px">10kΩ</text></g><g class="trace" data-circuit-json-type="schematic_trace" data-schematic-trace-id="schematic_trace_0"><path d="M 797.6918562871203 160.1947274287466 L 798.0484176906 160.1947274287466 L 798.0484176906 127.89212207239999" class="trace-invisible-hover-outline" stroke="rgb(0, 150, 0)" fill="none" stroke-width="21.291696238464002px" stroke-linecap="round" opacity="0" stroke-linejoin="round"/><path d="M 797.6918562871203 160.1947274287466 L 798.0484176906 160.1947274287466 L 798.0484176906 127.89212207239999" stroke="rgb(0, 150, 0)" fill="none" stroke-width="2.6614620298080003px" stroke-linecap="round" stroke-linejoin="round"/></g><g class="trace" data-circuit-json-type="schematic_trace" data-schematic-trace-id="schematic_trace_1"><path d="M 638.9589982165277 308.4199119230807 L 664.9753162002 308.4199119230807 L 664.9753162002 304.21398154717997" class="trace-invisible-hover-outline" stroke="rgb(0, 150, 0)" fill="none" stroke-width="21.291696238464002px" stroke-linecap="round" opacity="0" stroke-linejoin="round"/><path d="M 638.9589982165277 308.4199119230807 L 664.9753162002 308.4199119230807 L 664.9753162002 304.21398154717997" stroke="rgb(0, 150, 0)" fill="none" stroke-width="2.6614620298080003px" stroke-linecap="round" stroke-linejoin="round"/></g><g class="trace" data-circuit-json-type="schematic_trace" data-schematic-trace-id="schematic_trace_2"><path d="M 639.031722666492 161.6959853794533 L 567.0335565483865 161.6959853794533 L 567.0335565483865 160.52230633108525 L 495.035390430281 160.52230633108525" class="trace-invisible-hover-outline" stroke="rgb(0, 150, 0)" fill="none" stroke-width="21.291696238464002px" stroke-linecap="round" opacity="0" stroke-linejoin="round"/><path d="M 639.031722666492 161.6959853794533 L 567.0335565483865 161.6959853794533 L 567.0335565483865 160.52230633108525 L 495.035390430281 160.52230633108525" stroke="rgb(0, 150, 0)" fill="none" stroke-width="2.6614620298080003px" stroke-linecap="round" stroke-linejoin="round"/></g><g class="trace" data-circuit-json-type="schematic_trace" data-schematic-trace-id="schematic_trace_3"><path d="M 639.031722666492 161.6959853794533 L 718.3617894768062 161.6959853794533 L 718.3617894768062 160.1947274287466 L 797.6918562871203 160.1947274287466" class="trace-invisible-hover-outline" stroke="rgb(0, 150, 0)" fill="none" stroke-width="21.291696238464002px" stroke-linecap="round" opacity="0" stroke-linejoin="round"/><path d="M 639.031722666492 161.6959853794533 L 718.3617894768062 161.6959853794533 L 718.3617894768062 160.1947274287466 L 797.6918562871203 160.1947274287466" stroke="rgb(0, 150, 0)" fill="none" stroke-width="2.6614620298080003px" stroke-linecap="round" stroke-linejoin="round"/></g><g class="trace" data-circuit-json-type="schematic_trace" data-schematic-trace-id="schematic_trace_4"><path d="M 638.9589982165277 308.4199119230807 L 566.9971943234043 308.4199119230807 L 566.9971943234043 200.44423677820527 L 495.035390430281 200.44423677820527" class="trace-invisible-hover-outline" stroke="rgb(0, 150, 0)" fill="none" stroke-width="21.291696238464002px" stroke-linecap="round" opacity="0" stroke-linejoin="round"/><path d="M 638.9589982165277 308.4199119230807 L 566.9971943234043 308.4199119230807 L 566.9971943234043 200.44423677820527 L 495.035390430281 200.44423677820527" stroke="rgb(0, 150, 0)" fill="none" stroke-width="2.6614620298080003px" stroke-linecap="round" stroke-linejoin="round"/></g><g class="trace" data-circuit-json-type="schematic_trace" data-schematic-trace-id="schematic_trace_5"><path d="M 797.7646073517053 291.4751479397288 L 798.0484176906 291.4751479397288 L 798.0484176906 460.5748757984" class="trace-invisible-hover-outline" stroke="rgb(0, 150, 0)" fill="none" stroke-width="21.291696238464002px" stroke-linecap="round" opacity="0" stroke-linejoin="round"/><path d="M 797.7646073517053 291.4751479397288 L 798.0484176906 291.4751479397288 L 798.0484176906 460.5748757984" stroke="rgb(0, 150, 0)" fill="none" stroke-width="2.6614620298080003px" stroke-linecap="round" stroke-linejoin="round"/></g><g class="trace" data-circuit-json-type="schematic_trace" data-schematic-trace-id="schematic_trace_6"><path d="M 495.035390430281 240.36616722532526 L 531.9022147098001 240.36616722532526 L 531.9022147098001 460.5748757984" class="trace-invisible-hover-outline" stroke="rgb(0, 150, 0)" fill="none" stroke-width="21.291696238464002px" stroke-linecap="round" opacity="0" stroke-linejoin="round"/><path d="M 495.035390430281 240.36616722532526 L 531.9022147098001 240.36616722532526 L 531.9022147098001 460.5748757984" stroke="rgb(0, 150, 0)" fill="none" stroke-width="2.6614620298080003px" stroke-linecap="round" stroke-linejoin="round"/></g><rect class="component-overlay" x="785.6213195713682" y="71.40147267567258" width="24.655717707590384" height="54.50167228530117" fill="transparent"/><path d="M 797.7544059801673 71.40147267567258 L 785.6213195713682 96.82784332861442" stroke="rgb(132, 0, 0)" fill="none" stroke-width="2.6614620298080003px" stroke-linecap="round"/><path d="M 798.14395087016 71.41472675658102 L 810.2770372789586 96.84116394607362" stroke="rgb(132, 0, 0)" fill="none" stroke-width="2.6614620298080003px" stroke-linecap="round"/><path d="M 797.8948114095497 72.0723873314568 L 797.8948114095497 125.90314496097375" stroke="rgb(132, 0, 0)" fill="none" stroke-width="2.6614620298080003px" stroke-linecap="round"/><text x="797.2995887338931" y="63.60322924061347" fill="rgb(15, 15, 15)" font-family="sans-serif" text-anchor="middle" dominant-baseline="ideographic" font-size="23.953158268272px">VIN</text><path class="net-label" d="
    M 664.9753162002,304.21398154717997
    L 672.1612636806816,289.8420865862168
    L 718.6836199617255,289.8420865862168
    L 718.6836199617255,318.58587650814314
    L 672.1612636806816,318.58587650814314
    Z
  " fill="rgba(255, 255, 255, 0.6)" stroke="rgb(132, 0, 0)" stroke-width="2.6614620298080003px"/><text class="net-label-text" x="676.9518953343361" y="304.21398154717997" fill="rgb(132, 0, 0)" text-anchor="start" dominant-baseline="central" font-family="sans-serif" font-variant-numeric="tabular-nums" font-size="23.953158268272px" transform="">EN</text><rect class="component-overlay" x="767.4096668034504" y="460.43069109293515" width="59.79257895669832" height="64.3314496096433" fill="transparent"/><path d="M 797.9038736877612 460.43069109293515 L 797.9038736877612 504.29602998576075" stroke="rgb(132, 0, 0)" fill="none" stroke-width="2.6614620298080003px" stroke-linecap="round"/><path d="M 767.4096668034504 504.2916651880319 L 827.2022457601487 504.2916651880319" stroke="rgb(132, 0, 0)" fill="none" stroke-width="2.6614620298080003px" stroke-linecap="round"/><path d="M 774.8837441632791 514.5269029453052 L 819.72816840032 514.5269029453052" stroke="rgb(132, 0, 0)" fill="none" stroke-width="2.6614620298080003px" stroke-linecap="round"/><path d="M 789.8318855756261 524.7621407025784 L 804.7800269879732 524.7621407025784" stroke="rgb(132, 0, 0)" fill="none" stroke-width="2.6614620298080003px" stroke-linecap="round"/><text x="795.038117832545" y="540.3491128459402" fill="rgb(15, 15, 15)" font-family="sans-serif" text-anchor="middle" dominant-baseline="hanging" font-size="23.953158268272px">GND</text><rect class="component-overlay" x="501.2634638226503" y="460.43069109293515" width="59.79257895669838" height="64.3314496096433" fill="transparent"/><path d="M 531.7576707069612 460.43069109293515 L 531.7576707069612 504.29602998576075" stroke="rgb(132, 0, 0)" fill="none" stroke-width="2.6614620298080003px" stroke-linecap="round"/><path d="M 501.2634638226503 504.2916651880319 L 561.0560427793487 504.2916651880319" stroke="rgb(132, 0, 0)" fill="none" stroke-width="2.6614620298080003px" stroke-linecap="round"/><path d="M 508.737541182479 514.5269029453052 L 553.58196541952 514.5269029453052" stroke="rgb(132, 0, 0)" fill="none" stroke-width="2.6614620298080003px" stroke-linecap="round"/><path d="M 523.6856825948261 524.7621407025784 L 538.6338240071732 524.7621407025784" stroke="rgb(132, 0, 0)" fill="none" stroke-width="2.6614620298080003px" stroke-linecap="round"/><text x="528.891914851745" y="540.3491128459402" fill="rgb(15, 15, 15)" font-family="sans-serif" text-anchor="middle" dominant-baseline="hanging" font-size="23.953158268272px">GND</text></svg>