<svg xmlns="http://www.w3.org/2000/svg" width="1200" height="600" style="background-color: rgb(245, 241, 237)" data-real-to-screen-transform="matrix(93.7558597412,0,0,-93.7558597412,381.155072192,428.6392899556)" data-software-used-string="@tscircuit/core@0.0.586"><style>
              .boundary { fill: rgb(245, 241, 237); }
              .schematic-boundary { fill: none; stroke: #fff; }
              .component { fill: none; stroke: rgb(132, 0, 0); }
              .chip { fill: rgb(255, 255, 194); stroke: rgb(132, 0, 0); }
              .component-pin { fill: none; stroke: rgb(132, 0, 0); }
              .trace:hover {
                filter: invert(1);
              }
              .trace:hover .trace-crossing-outline {
                opacity: 0;
              }
              .trace:hover .trace-junction {
                filter: invert(1);
              }
              .text { font-family: sans-serif; fill: rgb(0, 150, 0); }
              .pin-number { fill: rgb(169, 0, 0); }
              .port-label { fill: rgb(0, 100, 100); }
              .component-name { fill: rgb(0, 100, 100); }
            </style><rect class="boundary" x="0" y="0" width="1200" height="600"/><g data-circuit-json-type="schematic_component" data-schematic-component-id="schematic_component_0"><rect class="component chip" x="362.40390024375995" y="381.76136008500004" width="37.502343896480056" height="93.75585974119997" stroke-width="1.875117194824px" fill="rgb(255, 255, 194)" stroke="rgb(132, 0, 0)"/><rect class="component-overlay" x="362.40390024375995" y="381.76136008500004" width="37.502343896480056" height="93.75585974119997" fill="transparent"/><text x="362.40390024375995" y="487.705481592556" fill="#006464" text-anchor="start" dominant-baseline="middle" font-family="sans-serif" font-size="16.876054753416px" transform="rotate(0, 362.40390024375995, 487.705481592556)"></text><text x="362.40390024375995" y="369.57309831864404" fill="#006464" text-anchor="start" dominant-baseline="middle" font-family="sans-serif" font-size="16.876054753416px" transform="rotate(0, 362.40390024375995, 369.57309831864404)">U1</text><line class="component-pin" x1="435.53347084189596" y1="400.51253203324" x2="399.90624414024" y2="400.51253203324" stroke-width="1.875117194824px"/><g data-schematic-port-id="source_port_0"><rect x="435.533470841896" y="398.637414838416" width="3.750234389648" height="3.750234389648" opacity="0"/></g><text class="pin-number" x="418.65741608848" y="398.637414838416" style="font-family: sans-serif;" fill="rgb(169, 0, 0)" text-anchor="middle" dominant-baseline="auto" font-size="14.06337896118px" transform="">1</text><line class="component-pin" x1="435.53347084189596" y1="419.26370398148003" x2="399.90624414024" y2="419.26370398148003" stroke-width="1.875117194824px"/><g data-schematic-port-id="source_port_1"><rect x="435.533470841896" y="417.38858678665605" width="3.750234389648" height="3.750234389648" opacity="0"/></g><text class="pin-number" x="418.65741608848" y="417.38858678665605" style="font-family: sans-serif;" fill="rgb(169, 0, 0)" text-anchor="middle" dominant-baseline="auto" font-size="14.06337896118px" transform="">2</text><line class="component-pin" x1="435.53347084189596" y1="438.01487592972" x2="399.90624414024" y2="438.01487592972" stroke-width="1.875117194824px"/><g data-schematic-port-id="source_port_2"><rect x="435.533470841896" y="436.139758734896" width="3.750234389648" height="3.750234389648" opacity="0"/></g><text class="pin-number" x="418.65741608848" y="436.139758734896" style="font-family: sans-serif;" fill="rgb(169, 0, 0)" text-anchor="middle" dominant-baseline="auto" font-size="14.06337896118px" transform="">3</text><line class="component-pin" x1="435.53347084189596" y1="456.76604787796003" x2="399.90624414024" y2="456.76604787796003" stroke-width="1.875117194824px"/><g data-schematic-port-id="source_port_3"><rect x="435.533470841896" y="454.89093068313605" width="3.750234389648" height="3.750234389648" opacity="0"/></g><text class="pin-number" x="418.65741608848" y="454.89093068313605" style="font-family: sans-serif;" fill="rgb(169, 0, 0)" text-anchor="middle" dominant-baseline="auto" font-size="14.06337896118px" transform="">4</text></g><g data-circuit-json-type="schematic_component" data-schematic-component-id="schematic_component_1"><rect class="component-overlay" x="567.3896960872933" y="236.64635457860442" width="24.80624414024976" height="99.2249484342413" fill="transparent"/><path d="M 579.7928181574181 335.8713030128457 L 579.7928181574181 311.06506824818194" stroke="rgb(132, 0, 0)" fill="none" stroke-width="1.875117194824px" stroke-linecap="round"/><path d="M 579.7928181574181 261.4525987188542 L 579.7928181574181 236.64635457860442" stroke="rgb(132, 0, 0)" fill="none" stroke-width="1.875117194824px" stroke-linecap="round"/><path d="M 567.3896960872933 286.25884285910405 L 567.3896960872933 261.4526080944403 L 592.195940227543 261.4526080944403 L 592.195940227543 311.065086999354 L 567.3896960872933 311.065086999354 L 567.3896960872933 286.2588428591042" stroke="rgb(132, 0, 0)" fill="none" stroke-width="1.875117194824px" stroke-linecap="round"/><text x="605.6335035127437" y="272.88135364103283" fill="rgb(15, 15, 15)" font-family="sans-serif" text-anchor="start" dominant-baseline="middle" font-size="16.876054753416px">R7</text><text x="605.6335035127437" y="302.88322875821683" fill="rgb(15, 15, 15)" font-family="sans-serif" text-anchor="start" dominant-baseline="middle" font-size="16.876054753416px">2.2kΩ</text></g><g data-circuit-json-type="schematic_component" data-schematic-component-id="schematic_component_2"><rect class="component-overlay" x="707.7137912297064" y="236.64635457860442" width="24.80624414024976" height="99.2249484342413" fill="transparent"/><path d="M 720.1169132998313 335.8713030128457 L 720.1169132998313 311.06506824818194" stroke="rgb(132, 0, 0)" fill="none" stroke-width="1.875117194824px" stroke-linecap="round"/><path d="M 720.1169132998313 261.4525987188542 L 720.1169132998313 236.64635457860442" stroke="rgb(132, 0, 0)" fill="none" stroke-width="1.875117194824px" stroke-linecap="round"/><path d="M 707.7137912297064 286.25884285910405 L 707.7137912297064 261.4526080944403 L 732.5200353699562 261.4526080944403 L 732.5200353699562 311.065086999354 L 707.7137912297064 311.065086999354 L 707.7137912297064 286.2588428591042" stroke="rgb(132, 0, 0)" fill="none" stroke-width="1.875117194824px" stroke-linecap="round"/><text x="745.9575986551569" y="272.88135364103283" fill="rgb(15, 15, 15)" font-family="sans-serif" text-anchor="start" dominant-baseline="middle" font-size="16.876054753416px">R8</text><text x="745.9575986551569" y="302.88322875821683" fill="rgb(15, 15, 15)" font-family="sans-serif" text-anchor="start" dominant-baseline="middle" font-size="16.876054753416px">2.2kΩ</text></g><g data-circuit-json-type="schematic_component" data-schematic-component-id="schematic_component_3"><rect class="component-overlay" x="611.0855764945784" y="135.14771737699843" width="82.90839114941696" height="44.920148134242055" fill="transparent"/><path d="M 673.1578903891744 167.95117696821092 L 693.9939676439953 167.95117696821092" stroke="rgb(132, 0, 0)" fill="none" stroke-width="1.875117194824px" stroke-linecap="round"/><path d="M 611.0855764945784 168.11194014090924 L 631.8707068152161 168.11194014090924" stroke="rgb(132, 0, 0)" fill="none" stroke-width="1.875117194824px" stroke-linecap="round"/><path d="M 641.3119406423268 168.11120884520324 L 648.3072528493373 168.11120884520324" stroke="rgb(132, 0, 0)" fill="none" stroke-width="1.875117194824px" stroke-linecap="round"/><path d="M 652.7627000647865 155.98379463181928 L 652.7627000647865 135.14771737699843" stroke="rgb(132, 0, 0)" fill="none" stroke-width="1.875117194824px" stroke-linecap="round"/><path d="M 641.2503242913049 179.87126884894923 L 641.2503242913049 156.24604852268743" stroke="rgb(132, 0, 0)" fill="none" stroke-width="1.875117194824px" stroke-linecap="round"/><path d="M 648.4783385421929 179.46747173662982 L 648.4783385421929 156.63567912459985" stroke="rgb(132, 0, 0)" fill="none" stroke-width="1.875117194824px" stroke-linecap="round"/><path d="M 656.8719725193134 179.49356399239576 L 656.8719725193134 156.6891762181681" stroke="rgb(132, 0, 0)" fill="none" stroke-width="1.875117194824px" stroke-linecap="round"/><path d="M 648.6609937081406 179.53584788513913 L 656.7973803573033 179.53584788513913" stroke="rgb(132, 0, 0)" fill="none" stroke-width="1.875117194824px" stroke-linecap="round"/><path d="M 648.6792010961024 156.60503970963637 L 656.7636938768982 156.60503970963637" stroke="rgb(132, 0, 0)" fill="none" stroke-width="1.875117194824px" stroke-linecap="round"/><path d="M 663.8633469802147 179.8802975382423 L 663.8633469802147 156.2550772119805" stroke="rgb(132, 0, 0)" fill="none" stroke-width="1.875117194824px" stroke-linecap="round"/><path d="M 664.2989179534004 155.93995439180426 L 664.2989179534004 155.93995439180426 L 665.7640168863193 156.73002117479737 L 667.0819994348809 157.54905844136235 L 668.2578027180718 158.39406711447353 L 669.2963638548786 159.26204811710534 L 670.2026199642879 160.15000237223208 L 670.9815081652863 161.0549308028281 L 671.6379655768603 161.97383433186778 L 672.1769293179968 162.90371388232546 L 672.6033365076821 163.8415703771755 L 672.9221242649029 164.78440473939224 L 673.1382297086459 165.72921789195004 L 673.2565899578975 166.67301075782325 L 673.2821421316445 167.61278425998626 L 673.2198233488733 168.54553932141337 L 673.0745707285707 169.46827686507896 L 672.8513213897232 170.3779978139574 L 672.5550124513175 171.27170309102297 L 672.19058103234 172.14639361925012 L 671.7629642517775 172.99907032161317 L 671.2770992286165 173.82673412108645 L 670.7379230818436 174.62638594064433 L 670.1503729304455 175.39502670326115 L 669.5193858934088 176.1296573319113 L 668.8498990897199 176.82727874956907 L 668.1468496383654 177.48489187920887 L 667.4151746583323 178.09949764380505 L 666.6598112686069 178.66809696633194 L 665.8856965881757 179.18769076976392 L 665.0977677360255 179.6552799770753 L 664.3009618311428 180.06786551124048 L 664.3009618311428 180.06786551124048" stroke="rgb(132, 0, 0)" fill="none" stroke-width="1.875117194824px" stroke-linecap="round"/><path d="M 640.8217475052559 155.92806614878913 L 640.8217475052559 155.92806614878913 L 639.356648572337 156.7181329317822 L 638.0386660237754 157.53717019834718 L 636.8628627405845 158.3821788714584 L 635.8243016037777 159.2501598740902 L 634.9180454943685 160.13811412921692 L 634.1391572933701 161.04304255981296 L 633.482699881796 161.96194608885264 L 632.9437361406596 162.8918256393103 L 632.5173289509743 163.82968213416035 L 632.1985411937534 164.77251649637708 L 631.9824357500105 165.71732964893488 L 631.8640755007589 166.6611225148081 L 631.8385233270119 167.6008960169711 L 631.900842109783 168.5336510783982 L 632.0460947300857 169.4563886220638 L 632.269344068933 170.36610957094223 L 632.5656530073388 171.25981484800784 L 632.9300844263163 172.13450537623498 L 633.3577012068788 172.987182078598 L 633.8435662300398 173.8148458780713 L 634.3827423768126 174.61449769762916 L 634.9702925282108 175.38313846024602 L 635.6012795652476 176.11776908889613 L 636.2707663689365 176.81539050655394 L 636.9738158202908 177.47300363619374 L 637.705490800324 178.08760940078992 L 638.4608541900495 178.6562087233168 L 639.2349688704807 179.17580252674878 L 640.0228977226309 179.64339173406017 L 640.8197036275135 180.05597726822535 L 640.8197036275135 180.05597726822535" stroke="rgb(132, 0, 0)" fill="none" stroke-width="1.875117194824px" stroke-linecap="round"/><text x="654.4528181971691" y="184.7844295859828" fill="rgb(15, 15, 15)" font-family="sans-serif" text-anchor="middle" dominant-baseline="hanging" font-size="16.876054753416px">JP1</text></g><g class="trace" data-circuit-json-type="schematic_trace" data-schematic-trace-id="schematic_trace_0"><path d="M 579.8262139946581 337.92829719998184 L 579.8262139946581 400.51253203324 L 437.40858803672 400.51253203324" class="trace-invisible-hover-outline" stroke="rgb(0, 150, 0)" fill="none" stroke-width="15.000937558592px" stroke-linecap="round" opacity="0" stroke-linejoin="round"/><path d="M 579.8262139946581 337.92829719998184 L 579.8262139946581 400.51253203324 L 437.40858803672 400.51253203324" stroke="rgb(0, 150, 0)" fill="none" stroke-width="1.875117194824px" stroke-linecap="round" stroke-linejoin="round"/></g><g class="trace" data-circuit-json-type="schematic_trace" data-schematic-trace-id="schematic_trace_1"><path d="M 579.8774515720066 234.55483010832583 L 579.8774515720066 168.02242204602823 L 610.7217100029229 168.02242204602823" class="trace-invisible-hover-outline" stroke="rgb(0, 150, 0)" fill="none" stroke-width="15.000937558592px" stroke-linecap="round" opacity="0" stroke-linejoin="round"/><path d="M 579.8774515720066 234.55483010832583 L 579.8774515720066 168.02242204602823 L 610.7217100029229 168.02242204602823" stroke="rgb(0, 150, 0)" fill="none" stroke-width="1.875117194824px" stroke-linecap="round" stroke-linejoin="round"/></g><g class="trace" data-circuit-json-type="schematic_trace" data-schematic-trace-id="schematic_trace_2"><path d="M 720.1503091370712 337.92829719998184 L 720.1503091370712 419.26370398148003 L 437.40858803672 419.26370398148003" class="trace-invisible-hover-outline" stroke="rgb(0, 150, 0)" fill="none" stroke-width="15.000937558592px" stroke-linecap="round" opacity="0" stroke-linejoin="round"/><path d="M 720.1503091370712 337.92829719998184 L 720.1503091370712 419.26370398148003 L 437.40858803672 419.26370398148003" stroke="rgb(0, 150, 0)" fill="none" stroke-width="1.875117194824px" stroke-linecap="round" stroke-linejoin="round"/></g><g class="trace" data-circuit-json-type="schematic_trace" data-schematic-trace-id="schematic_trace_3"><path d="M 720.2015467144197 234.55483010832583 L 720.2015467144197 168.03408527498004 L 694.3145845575524 168.03408527498004" class="trace-invisible-hover-outline" stroke="rgb(0, 150, 0)" fill="none" stroke-width="15.000937558592px" stroke-linecap="round" opacity="0" stroke-linejoin="round"/><path d="M 720.2015467144197 234.55483010832583 L 720.2015467144197 168.03408527498004 L 694.3145845575524 168.03408527498004" stroke="rgb(0, 150, 0)" fill="none" stroke-width="1.875117194824px" stroke-linecap="round" stroke-linejoin="round"/></g><g class="trace" data-circuit-json-type="schematic_trace" data-schematic-trace-id="schematic_trace_4"><path d="M 437.40858803672 400.51253203324 L 756.1785111567999 400.51253203324 L 756.1785111567999 386.16788549283643" class="trace-invisible-hover-outline" stroke="rgb(0, 150, 0)" fill="none" stroke-width="15.000937558592px" stroke-linecap="round" opacity="0" stroke-linejoin="round"/><path d="M 437.40858803672 400.51253203324 L 756.1785111567999 400.51253203324 L 756.1785111567999 386.16788549283643" stroke="rgb(0, 150, 0)" fill="none" stroke-width="1.875117194824px" stroke-linecap="round" stroke-linejoin="round"/></g><g class="trace" data-circuit-json-type="schematic_trace" data-schematic-trace-id="schematic_trace_5"><path d="M 437.40858803672 419.26370398148003 L 756.1785111567999 419.26370398148003 L 756.1785111567999 414.57591099442004" class="trace-invisible-hover-outline" stroke="rgb(0, 150, 0)" fill="none" stroke-width="15.000937558592px" stroke-linecap="round" opacity="0" stroke-linejoin="round"/><path d="M 437.40858803672 419.26370398148003 L 756.1785111567999 419.26370398148003 L 756.1785111567999 414.57591099442004" stroke="rgb(0, 150, 0)" fill="none" stroke-width="1.875117194824px" stroke-linecap="round" stroke-linejoin="round"/></g><g class="trace" data-circuit-json-type="schematic_trace" data-schematic-trace-id="schematic_trace_6"><path d="M 437.40858803672 456.76604787796003 L 474.9109319332 456.76604787796003 L 474.9109319332 501.76886055373603" class="trace-invisible-hover-outline" stroke="rgb(0, 150, 0)" fill="none" stroke-width="15.000937558592px" stroke-linecap="round" opacity="0" stroke-linejoin="round"/><path d="M 437.40858803672 456.76604787796003 L 474.9109319332 456.76604787796003 L 474.9109319332 501.76886055373603" stroke="rgb(0, 150, 0)" fill="none" stroke-width="1.875117194824px" stroke-linecap="round" stroke-linejoin="round"/></g><g class="trace" data-circuit-json-type="schematic_trace" data-schematic-trace-id="schematic_trace_7"><path d="M 437.40858803672 438.01487592972 L 474.9109319332 438.01487592972 L 474.9109319332 353.63460216264" class="trace-invisible-hover-outline" stroke="rgb(0, 150, 0)" fill="none" stroke-width="15.000937558592px" stroke-linecap="round" opacity="0" stroke-linejoin="round"/><path d="M 437.40858803672 438.01487592972 L 474.9109319332 438.01487592972 L 474.9109319332 353.63460216264" stroke="rgb(0, 150, 0)" fill="none" stroke-width="1.875117194824px" stroke-linecap="round" stroke-linejoin="round"/></g><g class="trace" data-circuit-json-type="schematic_trace" data-schematic-trace-id="schematic_trace_8"><path d="M 652.8456177471417 134.82704420992553 L 653.04706544148 134.82704420992553 L 653.04706544148 100.49378086140001" class="trace-invisible-hover-outline" stroke="rgb(0, 150, 0)" fill="none" stroke-width="15.000937558592px" stroke-linecap="round" opacity="0" stroke-linejoin="round"/><path d="M 652.8456177471417 134.82704420992553 L 653.04706544148 134.82704420992553 L 653.04706544148 100.49378086140001" stroke="rgb(0, 150, 0)" fill="none" stroke-width="1.875117194824px" stroke-linecap="round" stroke-linejoin="round"/></g><g class="schematic-port-hover" data-schematic-port-id="source_port_0"><circle cx="437.40858803672" cy="400.51253203324" r="3.750234389648" fill="red" opacity="0"/></g><g class="schematic-port-hover" data-schematic-port-id="source_port_1"><circle cx="437.40858803672" cy="419.26370398148003" r="3.750234389648" fill="red" opacity="0"/></g><g class="schematic-port-hover" data-schematic-port-id="source_port_2"><circle cx="437.40858803672" cy="438.01487592972" r="3.750234389648" fill="red" opacity="0"/></g><g class="schematic-port-hover" data-schematic-port-id="source_port_3"><circle cx="437.40858803672" cy="456.76604787796003" r="3.750234389648" fill="red" opacity="0"/></g><g class="schematic-port-hover" data-schematic-port-id="source_port_4"><circle cx="579.8262139946581" cy="337.92829719998184" r="3.750234389648" fill="red" opacity="0"/></g><g class="schematic-port-hover" data-schematic-port-id="source_port_5"><circle cx="579.8774515720066" cy="234.55483010832583" r="3.750234389648" fill="red" opacity="0"/></g><g class="schematic-port-hover" data-schematic-port-id="source_port_6"><circle cx="720.1503091370712" cy="337.92829719998184" r="3.750234389648" fill="red" opacity="0"/></g><g class="schematic-port-hover" data-schematic-port-id="source_port_7"><circle cx="720.2015467144197" cy="234.55483010832583" r="3.750234389648" fill="red" opacity="0"/></g><g class="schematic-port-hover" data-schematic-port-id="source_port_8"><circle cx="694.3145845575524" cy="168.03408527498004" r="3.750234389648" fill="red" opacity="0"/></g><g class="schematic-port-hover" data-schematic-port-id="source_port_9"><circle cx="652.8456177471417" cy="134.82704420992553" r="3.750234389648" fill="red" opacity="0"/></g><g class="schematic-port-hover" data-schematic-port-id="source_port_10"><circle cx="610.7217100029229" cy="168.02242204602823" r="3.750234389648" fill="red" opacity="0"/></g><path class="net-label" d="
    M 756.1785111567999,386.16788549283643
    L 761.2413275828247,376.04225264078684
    L 852.5970373146499,376.04225264078684
    L 852.5970373146499,396.293518344886
    L 761.2413275828247,396.293518344886
    Z
  " fill="rgba(255, 255, 255, 0.6)" stroke="rgb(132, 0, 0)" stroke-width="1.875117194824px"/><text class="net-label-text" x="764.6165385335079" y="386.16788549283643" fill="rgb(132, 0, 0)" text-anchor="start" dominant-baseline="central" font-family="sans-serif" font-variant-numeric="tabular-nums" font-size="16.876054753416px" transform="">SCL_PB03</text><path class="net-label" d="
    M 756.1785111567999,414.57591099442004
    L 761.2413275828247,404.45027814237045
    L 854.472154509474,404.45027814237045
    L 854.472154509474,424.70154384646963
    L 761.2413275828247,424.70154384646963
    Z
  " fill="rgba(255, 255, 255, 0.6)" stroke="rgb(132, 0, 0)" stroke-width="1.875117194824px"/><text class="net-label-text" x="764.6165385335079" y="414.57591099442004" fill="rgb(132, 0, 0)" text-anchor="start" dominant-baseline="central" font-family="sans-serif" font-variant-numeric="tabular-nums" font-size="16.876054753416px" transform="">SDA_PB04</text><rect class="component-overlay" x="453.3245827863861" y="501.6672760797064" width="42.12650478153358" height="45.32433902117248" fill="transparent"/><path d="M 474.80909431834914 501.6672760797064 L 474.80909431834914 532.5723388961213" stroke="rgb(132, 0, 0)" fill="none" stroke-width="1.875117194824px" stroke-linecap="round"/><path d="M 453.3245827863861 532.5692637039218 L 495.45108756791967 532.5692637039218" stroke="rgb(132, 0, 0)" fill="none" stroke-width="1.875117194824px" stroke-linecap="round"/><path d="M 458.5903993999226 539.7804394024004 L 490.18527095438316 539.7804394024004" stroke="rgb(132, 0, 0)" fill="none" stroke-width="1.875117194824px" stroke-linecap="round"/><path d="M 469.12202325140953 546.9916151008789 L 479.6536471028964 546.9916151008789" stroke="rgb(132, 0, 0)" fill="none" stroke-width="1.875117194824px" stroke-linecap="round"/><text x="472.7900431276504" y="557.9733233326394" fill="rgb(15, 15, 15)" font-family="sans-serif" text-anchor="middle" dominant-baseline="hanging" font-size="16.876054753416px">GND</text><rect class="component-overlay" x="466.1554940933382" y="313.83445215327873" width="17.371038814919473" height="38.398828051739486" fill="transparent"/><path d="M 474.70378773668796 313.83445215327873 L 466.1554940933382 331.7484499031317" stroke="rgb(132, 0, 0)" fill="none" stroke-width="1.875117194824px" stroke-linecap="round"/><path d="M 474.97823926490815 313.84379023690894 L 483.52653290825765 331.7578348646918" stroke="rgb(132, 0, 0)" fill="none" stroke-width="1.875117194824px" stroke-linecap="round"/><path d="M 474.80270954430074 314.307141071336 L 474.80270954430074 352.2332802050182" stroke="rgb(132, 0, 0)" fill="none" stroke-width="1.875117194824px" stroke-linecap="round"/><text x="474.3833489592642" y="308.3402462654128" fill="rgb(15, 15, 15)" font-family="sans-serif" text-anchor="middle" dominant-baseline="ideographic" font-size="16.876054753416px">V3_3</text><rect class="component-overlay" x="644.2916276016182" y="60.69363085203879" width="17.37103881491953" height="38.39882805173945" fill="transparent"/><path d="M 652.8399212449681 60.69363085203879 L 644.2916276016182 78.60762860189173" stroke="rgb(132, 0, 0)" fill="none" stroke-width="1.875117194824px" stroke-linecap="round"/><path d="M 653.1143727731883 60.702968935669006 L 661.6626664165377 78.61701356345183" stroke="rgb(132, 0, 0)" fill="none" stroke-width="1.875117194824px" stroke-linecap="round"/><path d="M 652.9388430525809 61.16631977009604 L 652.9388430525809 99.09245890377824" stroke="rgb(132, 0, 0)" fill="none" stroke-width="1.875117194824px" stroke-linecap="round"/><text x="652.5194824675443" y="55.19942496417286" fill="rgb(15, 15, 15)" font-family="sans-serif" text-anchor="middle" dominant-baseline="ideographic" font-size="16.876054753416px">V3_3</text></svg>