<svg xmlns="http://www.w3.org/2000/svg" width="1200" height="600" style="background-color: rgb(245, 241, 237)" data-real-to-screen-transform="matrix(153.076844576,0,0,-153.076844576,340.9493341157,355.4240228595)" data-software-used-string="@tscircuit/core@0.0.562"><style>
              .boundary { fill: rgb(245, 241, 237); }
              .schematic-boundary { fill: none; stroke: #fff; }
              .component { fill: none; stroke: rgb(132, 0, 0); }
              .chip { fill: rgb(255, 255, 194); stroke: rgb(132, 0, 0); }
              .component-pin { fill: none; stroke: rgb(132, 0, 0); }
              .trace:hover {
                filter: invert(1);
              }
              .trace:hover .trace-crossing-outline {
                opacity: 0;
              }
              .trace:hover .trace-junction {
                filter: invert(1);
              }
              .text { font-family: sans-serif; fill: rgb(0, 150, 0); }
              .pin-number { fill: rgb(169, 0, 0); }
              .port-label { fill: rgb(0, 100, 100); }
              .component-name { fill: rgb(0, 100, 100); }
            </style><rect class="boundary" x="0" y="0" width="1200" height="600"/><g data-circuit-json-type="schematic_component" data-schematic-component-id="schematic_component_0"><rect class="component chip" x="310.3339652005" y="171.73180936829996" width="61.23073783040002" height="61.23073783039999" stroke-width="3.0615368915200003px" fill="rgb(255, 255, 194)" stroke="rgb(132, 0, 0)"/><rect class="component-overlay" x="310.3339652005" y="171.73180936829996" width="61.23073783040002" height="61.23073783039999" fill="transparent"/><text x="310.3339652005" y="252.86253699357997" fill="#006464" text-anchor="start" dominant-baseline="middle" font-family="sans-serif" font-size="27.553832023680002px" transform="rotate(0, 310.3339652005, 252.86253699357997)"></text><text x="310.3339652005" y="151.83181957341995" fill="#006464" text-anchor="start" dominant-baseline="middle" font-family="sans-serif" font-size="27.553832023680002px" transform="rotate(0, 310.3339652005, 151.83181957341995)">U1</text><line class="component-pin" x1="429.73390396978004" y1="202.34717828349997" x2="371.56470303090003" y2="202.34717828349997" stroke-width="3.0615368915200003px"/><text class="pin-number" x="402.18007194610004" y="199.28564139197996" style="font-family: sans-serif;" fill="rgb(169, 0, 0)" text-anchor="middle" dominant-baseline="auto" font-size="22.961526686400003px" transform="">1</text></g><g data-circuit-json-type="schematic_component" data-schematic-component-id="schematic_component_1"><rect class="component-overlay" x="464.8138049800924" y="182.68989182569516" width="134.890871517522" height="39.41347586488996" fill="transparent"/><path d="M 504.56160067353653 202.47302275742584 L 464.8138049800924 202.47302275742584" stroke="rgb(132, 0, 0)" fill="none" stroke-width="3.0615368915200003px" stroke-linecap="round"/><path d="M 599.7046764976144 202.21054189203124 L 560.169994387189 202.21054189203124" stroke="rgb(132, 0, 0)" fill="none" stroke-width="3.0615368915200003px" stroke-linecap="round"/><path d="M 542.5544928053923 202.21173589141898 L 522.1748673334024 202.21173589141898" stroke="rgb(132, 0, 0)" fill="none" stroke-width="3.0615368915200003px" stroke-linecap="round"/><path d="M 542.8453847331401 183.01087866108645 L 542.8453847331401 221.58419226452108" stroke="rgb(132, 0, 0)" fill="none" stroke-width="3.0615368915200003px" stroke-linecap="round"/><path d="M 521.8722037963066 182.9961373609538 L 521.8722037963066 221.5694509643884" stroke="rgb(132, 0, 0)" fill="none" stroke-width="3.0615368915200003px" stroke-linecap="round"/><path d="M 521.1610393917755 222.08395754669291 L 521.1610393917755 222.08395754669291 L 518.7689465427316 220.79400158576703 L 516.6170532072435 219.4567450057303 L 514.6972984641288 218.07708445249907 L 513.0016213922052 216.6599165719895 L 511.52196107029 215.2101380101179 L 510.2502565772009 213.7326454128005 L 509.17844699175555 212.23233542595355 L 508.2984713927714 210.7141046954933 L 507.60226885906604 209.182849867336 L 507.08177846945705 207.6434675873979 L 506.72893930276194 206.10085450159525 L 506.5356904377984 204.55990725584434 L 506.4939709533839 203.02552249606134 L 506.59571992833594 201.50259686816258 L 506.83287644147225 199.99602701806427 L 507.1973795716103 198.51070959168266 L 507.68116839756766 197.05154123493404 L 508.2761819981619 195.62341859373458 L 508.97435945221065 194.23123831400062 L 509.76763983853135 192.87989704164838 L 510.64796223594163 191.5742914225941 L 511.6072657232591 190.319318102754 L 512.6374893793012 189.11987372804438 L 513.7305722828856 187.9808549443815 L 514.8784535128299 186.90715839768154 L 516.0730721479516 185.90368073386082 L 517.3063672670683 184.9753185988356 L 518.5702779489974 184.12696863852207 L 519.8567432725567 183.3635274988365 L 521.1577023165637 182.68989182569516 L 521.1577023165637 182.68989182569516" stroke="rgb(132, 0, 0)" fill="none" stroke-width="3.0615368915200003px" stroke-linecap="round"/><path d="M 543.5451296050661 222.10336769058512 L 543.5451296050661 222.10336769058512 L 545.93722245411 220.8134117296592 L 548.089115789598 219.4761551496225 L 550.0088705327128 218.09649459639124 L 551.7045476046364 216.6793267158817 L 553.1842079265516 215.22954815401008 L 554.4559124196406 213.75205555669268 L 555.527722005086 212.25174556984572 L 556.4076976040702 210.73351483938546 L 557.1039001377756 209.20226001122816 L 557.6243905273845 207.66287773129008 L 557.9772296940796 206.12026464548745 L 558.1704785590432 204.5793173997365 L 558.2121980434576 203.04493263995354 L 558.1104490685057 201.52200701205476 L 557.8732925553693 200.01543716195644 L 557.5087894252313 198.53011973557486 L 557.0250005992739 197.0709513788262 L 556.4299869986796 195.6428287376268 L 555.7318095446309 194.25064845789282 L 554.9385291583102 192.89930718554055 L 554.0582067608999 191.59370156648626 L 553.0989032735824 190.33872824664618 L 552.0686796175403 189.13928387193656 L 550.975596713956 188.00026508827366 L 549.8277154840116 186.92656854157374 L 548.63309684889 185.92309087775303 L 547.3998017297733 184.99472874272777 L 546.1358910478441 184.14637878241425 L 544.8494257242849 183.38293764272868 L 543.5484666802779 182.70930196958733 L 543.5484666802779 182.70930196958733" stroke="rgb(132, 0, 0)" fill="none" stroke-width="3.0615368915200003px" stroke-linecap="round"/><text x="529.1366185325055" y="174.93659555571648" fill="rgb(15, 15, 15)" font-family="sans-serif" text-anchor="middle" dominant-baseline="auto" font-size="27.553832023680002px">JP1</text></g><g data-circuit-json-type="schematic_component" data-schematic-component-id="schematic_component_2"><rect class="component-overlay" x="606.5050923563767" y="244.75898561078452" width="81.00315338301027" height="162.00632207370518" fill="transparent"/><path d="M 647.0066690478816 244.75898561078452 L 647.0066690478816 313.6116644555749" stroke="rgb(132, 0, 0)" fill="none" stroke-width="3.0615368915200003px" stroke-linecap="round"/><path d="M 647.0066690478816 337.9126135320149 L 647.0066690478816 406.7653076844897" stroke="rgb(132, 0, 0)" fill="none" stroke-width="3.0615368915200003px" stroke-linecap="round"/><path d="M 606.5050923563767 313.61166445557495 L 687.508245739387 313.6116644555749" stroke="rgb(132, 0, 0)" fill="none" stroke-width="3.0615368915200003px" stroke-linecap="round"/><path d="M 606.5050923563767 337.9126135320149 L 687.508245739387 337.9126135320149" stroke="rgb(132, 0, 0)" fill="none" stroke-width="3.0615368915200003px" stroke-linecap="round"/><text x="681.7150678640929" y="294.2991183590999" fill="rgb(15, 15, 15)" font-family="sans-serif" text-anchor="start" dominant-baseline="auto" font-size="27.553832023680002px">C1</text><text x="681.7150678640929" y="355.31818952949993" fill="rgb(15, 15, 15)" font-family="sans-serif" text-anchor="start" dominant-baseline="hanging" font-size="27.553832023680002px">100nF</text></g><g data-circuit-json-type="schematic_component" data-schematic-component-id="schematic_component_3"><rect class="component-overlay" x="721.3127257883766" y="244.75898561078452" width="81.00315338301027" height="162.00632207370518" fill="transparent"/><path d="M 761.8143024798815 244.75898561078452 L 761.8143024798815 313.6116644555749" stroke="rgb(132, 0, 0)" fill="none" stroke-width="3.0615368915200003px" stroke-linecap="round"/><path d="M 761.8143024798815 337.9126135320149 L 761.8143024798815 406.7653076844897" stroke="rgb(132, 0, 0)" fill="none" stroke-width="3.0615368915200003px" stroke-linecap="round"/><path d="M 721.3127257883766 313.61166445557495 L 802.3158791713869 313.6116644555749" stroke="rgb(132, 0, 0)" fill="none" stroke-width="3.0615368915200003px" stroke-linecap="round"/><path d="M 721.3127257883766 337.9126135320149 L 802.3158791713869 337.9126135320149" stroke="rgb(132, 0, 0)" fill="none" stroke-width="3.0615368915200003px" stroke-linecap="round"/><text x="796.5227012960928" y="294.2991183590999" fill="rgb(15, 15, 15)" font-family="sans-serif" text-anchor="start" dominant-baseline="auto" font-size="27.553832023680002px">C2</text><text x="796.5227012960928" y="355.31818952949993" fill="rgb(15, 15, 15)" font-family="sans-serif" text-anchor="start" dominant-baseline="hanging" font-size="27.553832023680002px">100nF</text></g><g data-circuit-json-type="schematic_component" data-schematic-component-id="schematic_component_4"><rect class="component-overlay" x="836.1203592203767" y="244.75898561078452" width="81.00315338301027" height="162.00632207370518" fill="transparent"/><path d="M 876.6219359118816 244.75898561078452 L 876.6219359118816 313.6116644555749" stroke="rgb(132, 0, 0)" fill="none" stroke-width="3.0615368915200003px" stroke-linecap="round"/><path d="M 876.6219359118816 337.9126135320149 L 876.6219359118816 406.7653076844897" stroke="rgb(132, 0, 0)" fill="none" stroke-width="3.0615368915200003px" stroke-linecap="round"/><path d="M 836.1203592203767 313.61166445557495 L 917.123512603387 313.6116644555749" stroke="rgb(132, 0, 0)" fill="none" stroke-width="3.0615368915200003px" stroke-linecap="round"/><path d="M 836.1203592203767 337.9126135320149 L 917.123512603387 337.9126135320149" stroke="rgb(132, 0, 0)" fill="none" stroke-width="3.0615368915200003px" stroke-linecap="round"/><text x="911.3303347280929" y="294.2991183590999" fill="rgb(15, 15, 15)" font-family="sans-serif" text-anchor="start" dominant-baseline="auto" font-size="27.553832023680002px">C3</text><text x="911.3303347280929" y="355.31818952949993" fill="rgb(15, 15, 15)" font-family="sans-serif" text-anchor="start" dominant-baseline="hanging" font-size="27.553832023680002px">100nF</text></g><g class="trace" data-circuit-json-type="schematic_trace" data-schematic-trace-id="schematic_trace_0"><path d="M 600.5371696091565 202.35669966323258 L 876.7182901317001 202.35669966323258 L 876.7182901317001 164.07796713949998" class="trace-invisible-hover-outline" stroke="rgb(0, 150, 0)" fill="none" stroke-width="24.492295132160002px" stroke-linecap="round" opacity="0" stroke-linejoin="round"/><path d="M 600.5371696091565 202.35669966323258 L 876.7182901317001 202.35669966323258 L 876.7182901317001 164.07796713949998" stroke="rgb(0, 150, 0)" fill="none" stroke-width="3.0615368915200003px" stroke-linecap="round" stroke-linejoin="round"/></g><g class="trace" data-circuit-json-type="schematic_trace" data-schematic-trace-id="schematic_trace_1"><path d="M 464.0536100622436 202.33765690376734 L 448.4245254617718 202.33765690376734 L 448.4245254617718 202.34717828349997 L 432.79544086130005 202.34717828349997" class="trace-invisible-hover-outline" stroke="rgb(0, 150, 0)" fill="none" stroke-width="24.492295132160002px" stroke-linecap="round" opacity="0" stroke-linejoin="round"/><path d="M 464.0536100622436 202.33765690376734 L 448.4245254617718 202.33765690376734 L 448.4245254617718 202.34717828349997 L 432.79544086130005 202.34717828349997" stroke="rgb(0, 150, 0)" fill="none" stroke-width="3.0615368915200003px" stroke-linecap="round" stroke-linejoin="round"/></g><g class="trace" data-circuit-json-type="schematic_trace" data-schematic-trace-id="schematic_trace_2"><path d="M 647.0611797122352 240.4312735993542 L 623.7991746606958 240.4312735993542 L 623.7991746606958 202.35669966323258 L 600.5371696091565 202.35669966323258" class="trace-invisible-hover-outline" stroke="rgb(0, 150, 0)" fill="none" stroke-width="24.492295132160002px" stroke-linecap="round" opacity="0" stroke-linejoin="round"/><path d="M 647.0611797122352 240.4312735993542 L 623.7991746606958 240.4312735993542 L 623.7991746606958 202.35669966323258 L 600.5371696091565 202.35669966323258" stroke="rgb(0, 150, 0)" fill="none" stroke-width="3.0615368915200003px" stroke-linecap="round" stroke-linejoin="round"/><circle cx="623.7991746606958" cy="202.35669966323258" r="4.59230533728" class="trace-junction" fill="rgb(0, 150, 0)"/></g><g class="trace" data-circuit-json-type="schematic_trace" data-schematic-trace-id="schematic_trace_3"><path d="M 761.8688131442352 240.4312735993542 L 681.2029913766959 240.4312735993542 L 681.2029913766959 202.35669966323258 L 600.5371696091565 202.35669966323258" class="trace-invisible-hover-outline" stroke="rgb(0, 150, 0)" fill="none" stroke-width="24.492295132160002px" stroke-linecap="round" opacity="0" stroke-linejoin="round"/><path d="M 761.8688131442352 240.4312735993542 L 681.2029913766959 240.4312735993542 L 681.2029913766959 202.35669966323258 L 600.5371696091565 202.35669966323258" stroke="rgb(0, 150, 0)" fill="none" stroke-width="3.0615368915200003px" stroke-linecap="round" stroke-linejoin="round"/><circle cx="681.2029913766959" cy="202.35669966323258" r="4.59230533728" class="trace-junction" fill="rgb(0, 150, 0)"/></g><g class="trace" data-circuit-json-type="schematic_trace" data-schematic-trace-id="schematic_trace_4"><path d="M 876.6764465762353 240.4312735993542 L 815.4457087458352 240.4312735993542 L 815.4457087458352 202.35669966323258 L 600.5371696091565 202.35669966323258" class="trace-invisible-hover-outline" stroke="rgb(0, 150, 0)" fill="none" stroke-width="24.492295132160002px" stroke-linecap="round" opacity="0" stroke-linejoin="round"/><path d="M 876.6764465762353 240.4312735993542 L 815.4457087458352 240.4312735993542 L 815.4457087458352 202.35669966323258 L 600.5371696091565 202.35669966323258" stroke="rgb(0, 150, 0)" fill="none" stroke-width="3.0615368915200003px" stroke-linecap="round" stroke-linejoin="round"/><circle cx="815.4457087458352" cy="202.35669966323258" r="4.59230533728" class="trace-junction" fill="rgb(0, 150, 0)"/></g><g class="trace" data-circuit-json-type="schematic_trace" data-schematic-trace-id="schematic_trace_5"><path d="M 647.1448668231648 409.18603428924575 L 647.1030232677001 409.18603428924575 L 647.1030232677001 439.61628737629997" class="trace-invisible-hover-outline" stroke="rgb(0, 150, 0)" fill="none" stroke-width="24.492295132160002px" stroke-linecap="round" opacity="0" stroke-linejoin="round"/><path d="M 647.1448668231648 409.18603428924575 L 647.1030232677001 409.18603428924575 L 647.1030232677001 439.61628737629997" stroke="rgb(0, 150, 0)" fill="none" stroke-width="3.0615368915200003px" stroke-linecap="round" stroke-linejoin="round"/></g><g class="trace" data-circuit-json-type="schematic_trace" data-schematic-trace-id="schematic_trace_6"><path d="M 761.9525002551648 409.18603428924575 L 761.9106566997 409.18603428924575 L 761.9106566997 439.61628737629997" class="trace-invisible-hover-outline" stroke="rgb(0, 150, 0)" fill="none" stroke-width="24.492295132160002px" stroke-linecap="round" opacity="0" stroke-linejoin="round"/><path d="M 761.9525002551648 409.18603428924575 L 761.9106566997 409.18603428924575 L 761.9106566997 439.61628737629997" stroke="rgb(0, 150, 0)" fill="none" stroke-width="3.0615368915200003px" stroke-linecap="round" stroke-linejoin="round"/></g><g class="trace" data-circuit-json-type="schematic_trace" data-schematic-trace-id="schematic_trace_7"><path d="M 876.7601336871647 409.18603428924575 L 876.7182901317001 409.18603428924575 L 876.7182901317001 439.61628737629997" class="trace-invisible-hover-outline" stroke="rgb(0, 150, 0)" fill="none" stroke-width="24.492295132160002px" stroke-linecap="round" opacity="0" stroke-linejoin="round"/><path d="M 876.7601336871647 409.18603428924575 L 876.7182901317001 409.18603428924575 L 876.7182901317001 439.61628737629997" stroke="rgb(0, 150, 0)" fill="none" stroke-width="3.0615368915200003px" stroke-linecap="round" stroke-linejoin="round"/></g><rect class="component-overlay" x="862.423132462548" y="99.09556077149342" width="28.36200122461878" height="62.694443310551364" fill="transparent"/><path d="M 876.3800821512942 99.09556077149342 L 862.423132462548 128.34406061842103" stroke="rgb(132, 0, 0)" fill="none" stroke-width="3.0615368915200003px" stroke-linecap="round"/><path d="M 876.8281839984212 99.1108072252132 L 890.7851336871668 128.35938361056307" stroke="rgb(132, 0, 0)" fill="none" stroke-width="3.0615368915200003px" stroke-linecap="round"/><path d="M 876.5415935300061 99.86732829879232 L 876.5415935300061 161.7900040820448" stroke="rgb(132, 0, 0)" fill="none" stroke-width="3.0615368915200003px" stroke-linecap="round"/><text x="875.8568961119018" y="90.12507398712646" fill="rgb(15, 15, 15)" font-family="sans-serif" text-anchor="middle" dominant-baseline="ideographic" font-size="27.553832023680002px">V3_3</text><rect class="component-overlay" x="611.8586105725219" y="439.4504286152019" width="68.78068680478611" height="74.001847127269" fill="transparent"/><path d="M 646.9367511991218 439.4504286152019 L 646.9367511991218 489.90966935406027" stroke="rgb(132, 0, 0)" fill="none" stroke-width="3.0615368915200003px" stroke-linecap="round"/><path d="M 611.8586105725219 489.90464843355824 L 680.639297377308 489.90464843355824" stroke="rgb(132, 0, 0)" fill="none" stroke-width="3.0615368915200003px" stroke-linecap="round"/><path d="M 620.4562021635019 501.6784620880146 L 672.041705786328 501.6784620880146" stroke="rgb(132, 0, 0)" fill="none" stroke-width="3.0615368915200003px" stroke-linecap="round"/><path d="M 637.6513700377774 513.4522757424709 L 654.8465379120528 513.4522757424709" stroke="rgb(132, 0, 0)" fill="none" stroke-width="3.0615368915200003px" stroke-linecap="round"/><text x="643.6402107358086" y="531.3823043168178" fill="rgb(15, 15, 15)" font-family="sans-serif" text-anchor="middle" dominant-baseline="hanging" font-size="27.553832023680002px">GND</text><rect class="component-overlay" x="726.6662440045218" y="439.4504286152019" width="68.78068680478611" height="74.001847127269" fill="transparent"/><path d="M 761.7443846311216 439.4504286152019 L 761.7443846311216 489.90966935406027" stroke="rgb(132, 0, 0)" fill="none" stroke-width="3.0615368915200003px" stroke-linecap="round"/><path d="M 726.6662440045218 489.90464843355824 L 795.4469308093079 489.90464843355824" stroke="rgb(132, 0, 0)" fill="none" stroke-width="3.0615368915200003px" stroke-linecap="round"/><path d="M 735.2638355955017 501.6784620880146 L 786.8493392183278 501.6784620880146" stroke="rgb(132, 0, 0)" fill="none" stroke-width="3.0615368915200003px" stroke-linecap="round"/><path d="M 752.4590034697773 513.4522757424709 L 769.6541713440527 513.4522757424709" stroke="rgb(132, 0, 0)" fill="none" stroke-width="3.0615368915200003px" stroke-linecap="round"/><text x="758.4478441678085" y="531.3823043168178" fill="rgb(15, 15, 15)" font-family="sans-serif" text-anchor="middle" dominant-baseline="hanging" font-size="27.553832023680002px">GND</text><rect class="component-overlay" x="841.4738774365218" y="439.4504286152019" width="68.78068680478611" height="74.001847127269" fill="transparent"/><path d="M 876.5520180631216 439.4504286152019 L 876.5520180631216 489.90966935406027" stroke="rgb(132, 0, 0)" fill="none" stroke-width="3.0615368915200003px" stroke-linecap="round"/><path d="M 841.4738774365218 489.90464843355824 L 910.2545642413079 489.90464843355824" stroke="rgb(132, 0, 0)" fill="none" stroke-width="3.0615368915200003px" stroke-linecap="round"/><path d="M 850.0714690275017 501.6784620880146 L 901.6569726503278 501.6784620880146" stroke="rgb(132, 0, 0)" fill="none" stroke-width="3.0615368915200003px" stroke-linecap="round"/><path d="M 867.2666369017772 513.4522757424709 L 884.4618047760526 513.4522757424709" stroke="rgb(132, 0, 0)" fill="none" stroke-width="3.0615368915200003px" stroke-linecap="round"/><text x="873.2554775998085" y="531.3823043168178" fill="rgb(15, 15, 15)" font-family="sans-serif" text-anchor="middle" dominant-baseline="hanging" font-size="27.553832023680002px">GND</text></svg>