<svg xmlns="http://www.w3.org/2000/svg" width="1200" height="600" style="background-color: rgb(245, 241, 237)" data-real-to-screen-transform="matrix(74.8166990872,0,0,-74.8166990872,443.4616452192,222.3452541274)" data-software-used-string="@tscircuit/core@0.0.596"><style>
              .boundary { fill: rgb(245, 241, 237); }
              .schematic-boundary { fill: none; stroke: #fff; }
              .component { fill: none; stroke: rgb(132, 0, 0); }
              .chip { fill: rgb(255, 255, 194); stroke: rgb(132, 0, 0); }
              .component-pin { fill: none; stroke: rgb(132, 0, 0); }
              .trace:hover {
                filter: invert(1);
              }
              .trace:hover .trace-crossing-outline {
                opacity: 0;
              }
              .trace:hover .trace-junction {
                filter: invert(1);
              }
              .text { font-family: sans-serif; fill: rgb(0, 150, 0); }
              .pin-number { fill: rgb(169, 0, 0); }
              .port-label { fill: rgb(0, 100, 100); }
              .component-name { fill: rgb(0, 100, 100); }
            </style><rect class="boundary" x="0" y="0" width="1200" height="600"/><g data-circuit-json-type="schematic_component" data-schematic-component-id="schematic_component_0"><rect class="component chip" x="428.49830540176004" y="184.93690458380001" width="29.926679634879974" height="74.81669908719999" stroke-width="1.4963339817440002px" fill="rgb(255, 255, 194)" stroke="rgb(132, 0, 0)"/><rect class="component-overlay" x="428.49830540176004" y="184.93690458380001" width="29.926679634879974" height="74.81669908719999" fill="transparent"/><text x="428.49830540176004" y="269.47977455233604" fill="#006464" text-anchor="start" dominant-baseline="middle" font-family="sans-serif" font-size="13.467005835696002px" transform="rotate(0, 428.49830540176004, 269.47977455233604)"></text><text x="428.49830540176004" y="175.210733702464" fill="#006464" text-anchor="start" dominant-baseline="middle" font-family="sans-serif" font-size="13.467005835696002px" transform="rotate(0, 428.49830540176004, 175.210733702464)">U4</text><line class="component-pin" x1="486.85533068977605" y1="199.90024440124" x2="458.42498503664" y2="199.90024440124" stroke-width="1.4963339817440002px"/><g data-schematic-port-id="source_port_0"><rect x="486.85533068977605" y="198.40391041949601" width="2.9926679634880005" height="2.9926679634880005" opacity="0"/></g><text class="pin-number" x="473.38832485408005" y="198.40391041949601" style="font-family: sans-serif;" fill="rgb(169, 0, 0)" text-anchor="middle" dominant-baseline="auto" font-size="11.222504863080001px" transform="">40</text><line class="component-pin" x1="486.85533068977605" y1="214.86358421868002" x2="458.42498503664" y2="214.86358421868002" stroke-width="1.4963339817440002px"/><g data-schematic-port-id="source_port_1"><rect x="486.85533068977605" y="213.36725023693603" width="2.9926679634880005" height="2.9926679634880005" opacity="0"/></g><text class="pin-number" x="473.38832485408005" y="213.367250236936" style="font-family: sans-serif;" fill="rgb(169, 0, 0)" text-anchor="middle" dominant-baseline="auto" font-size="11.222504863080001px" transform="">44</text><line class="component-pin" x1="486.85533068977605" y1="229.82692403612" x2="458.42498503664" y2="229.82692403612" stroke-width="1.4963339817440002px"/><g data-schematic-port-id="source_port_2"><rect x="486.85533068977605" y="228.33059005437602" width="2.9926679634880005" height="2.9926679634880005" opacity="0"/></g><text class="pin-number" x="473.38832485408005" y="228.33059005437602" style="font-family: sans-serif;" fill="rgb(169, 0, 0)" text-anchor="middle" dominant-baseline="auto" font-size="11.222504863080001px" transform="">43</text><line class="component-pin" x1="486.85533068977605" y1="244.79026385356002" x2="458.42498503664" y2="244.79026385356002" stroke-width="1.4963339817440002px"/><g data-schematic-port-id="source_port_3"><rect x="486.85533068977605" y="243.29392987181603" width="2.9926679634880005" height="2.9926679634880005" opacity="0"/></g><text class="pin-number" x="473.38832485408005" y="243.293929871816" style="font-family: sans-serif;" fill="rgb(169, 0, 0)" text-anchor="middle" dominant-baseline="auto" font-size="11.222504863080001px" transform="">6</text></g><g data-circuit-json-type="schematic_component" data-schematic-component-id="schematic_component_1"><rect class="component-overlay" x="508.33362262452533" y="100.47016060658518" width="19.79525662126821" height="79.18100404006333" fill="transparent"/><path d="M 518.2312509351594 179.6511646466485 L 518.2312509351594 159.8559155070502" stroke="rgb(132, 0, 0)" fill="none" stroke-width="1.4963339817440002px" stroke-linecap="round"/><path d="M 518.2312509351594 120.2654172278534 L 518.2312509351594 100.47016060658518" stroke="rgb(132, 0, 0)" fill="none" stroke-width="1.4963339817440002px" stroke-linecap="round"/><path d="M 508.33362262452533 140.06067384912174 L 508.33362262452533 120.2654247095234 L 528.1288792457935 120.2654247095234 L 528.1288792457935 159.8559304703901 L 508.33362262452533 159.8559304703901 L 508.33362262452533 140.06067384912186" stroke="rgb(132, 0, 0)" fill="none" stroke-width="1.4963339817440002px" stroke-linecap="round"/><text x="538.8519863833017" y="129.38550551155402" fill="rgb(15, 15, 15)" font-family="sans-serif" text-anchor="start" dominant-baseline="middle" font-size="13.467005835696002px">R11</text><text x="538.8519863833017" y="153.326849219458" fill="rgb(15, 15, 15)" font-family="sans-serif" text-anchor="start" dominant-baseline="middle" font-size="13.467005835696002px">10kΩ</text></g><g data-circuit-json-type="schematic_component" data-schematic-component-id="schematic_component_2"><rect class="component-overlay" x="535.8443513391613" y="250.5558032819576" width="39.59049827919671" height="79.18100404006339" fill="transparent"/><path d="M 555.6396004787596 250.5558032819576 L 555.6396004787596 284.20772607110786" stroke="rgb(132, 0, 0)" fill="none" stroke-width="1.4963339817440002px" stroke-linecap="round"/><path d="M 555.6396004787596 296.0848770512008 L 555.6396004787596 329.736807322021" stroke="rgb(132, 0, 0)" fill="none" stroke-width="1.4963339817440002px" stroke-linecap="round"/><path d="M 535.8443513391613 284.20772607110786 L 575.434849618358 284.20772607110786" stroke="rgb(132, 0, 0)" fill="none" stroke-width="1.4963339817440002px" stroke-linecap="round"/><path d="M 535.8443513391613 296.0848770512008 L 575.434849618358 296.0848770512008" stroke="rgb(132, 0, 0)" fill="none" stroke-width="1.4963339817440002px" stroke-linecap="round"/><text x="572.603419123073" y="274.82277681844" fill="rgb(15, 15, 15)" font-family="sans-serif" text-anchor="start" dominant-baseline="auto" font-size="13.467005835696002px">C10</text><text x="572.603419123073" y="304.53778979332" fill="rgb(15, 15, 15)" font-family="sans-serif" text-anchor="start" dominant-baseline="hanging" font-size="13.467005835696002px">100mF</text></g><g data-circuit-json-type="schematic_component" data-schematic-component-id="schematic_component_3"><rect class="component-overlay" x="603.1793805176413" y="250.5558032819576" width="39.59049827919671" height="79.18100404006339" fill="transparent"/><path d="M 622.9746296572396 250.5558032819576 L 622.9746296572396 284.20772607110786" stroke="rgb(132, 0, 0)" fill="none" stroke-width="1.4963339817440002px" stroke-linecap="round"/><path d="M 622.9746296572396 296.0848770512008 L 622.9746296572396 329.736807322021" stroke="rgb(132, 0, 0)" fill="none" stroke-width="1.4963339817440002px" stroke-linecap="round"/><path d="M 603.1793805176413 284.20772607110786 L 642.769878796838 284.20772607110786" stroke="rgb(132, 0, 0)" fill="none" stroke-width="1.4963339817440002px" stroke-linecap="round"/><path d="M 603.1793805176413 296.0848770512008 L 642.769878796838 296.0848770512008" stroke="rgb(132, 0, 0)" fill="none" stroke-width="1.4963339817440002px" stroke-linecap="round"/><text x="639.938448301553" y="274.82277681844" fill="rgb(15, 15, 15)" font-family="sans-serif" text-anchor="start" dominant-baseline="auto" font-size="13.467005835696002px">C8</text><text x="639.938448301553" y="304.53778979332" fill="rgb(15, 15, 15)" font-family="sans-serif" text-anchor="start" dominant-baseline="hanging" font-size="13.467005835696002px">100mF</text></g><g data-circuit-json-type="schematic_component" data-schematic-component-id="schematic_component_4"><rect class="component-overlay" x="758.0093449488014" y="302.68638460768426" width="7.696131976653419" height="78.97048481217183" fill="transparent"/><path d="M 765.4597639223127 357.017934809663 L 765.0981403420438 357.2041939747086 L 764.7375979428626 357.39045313975413 L 764.3792112400156 357.5767123047997 L 764.0240414581649 357.76297146984524 L 763.6731299885846 357.9492306348908 L 763.327491968638 358.1354897999363 L 762.9881100231173 358.32174896498185 L 762.655928206036 358.5080081300274 L 762.3318461802213 358.69426729507296 L 762.0167136705936 358.8805264601185 L 761.7113252253303 359.0667856251641 L 761.4164153172115 359.25304479020963 L 761.1326538153515 359.4393039552552 L 760.860641855233 359.62556312030074 L 760.6009081325061 359.81182228534624 L 760.3539056434051 359.9980814503918 L 760.120008891875 360.18434061543735 L 759.899511580631 360.3705997804829 L 759.6926248003829 360.55685894552846 L 759.4994757283907 360.743118110574 L 759.3201068443752 360.9293772756196 L 759.1544756686159 361.1156364406651 L 759.0024550238522 361.3018956057106 L 758.8638338193747 361.4881547707562 L 758.7383183524681 361.67441393580174 L 758.6255341191874 361.8606731008473 L 758.5250281232984 362.04693226589285 L 758.4362716691506 362.2331914309384 L 758.3586636212618 362.41945059598396 L 758.2915341105175 362.6057097610295 L 758.2341486641377 362.791968926075 L 758.1857127339448 362.97822809112057 L 758.1453765950185 363.1644872561661 L 758.1122405845316 363.3507464212117 L 758.0853606484707 363.53700558625724 L 758.0637541620433 363.7232647513028 L 758.0464059878864 363.90952391634835 L 758.0322747347258 364.0957830813939 L 758.0202991778995 364.28204224643946 L 758.0094048021607 364.46830141148496 L 758.0202991778995 364.6545603894888 L 758.0322747347258 364.8408193674926 L 758.0464059878864 365.02707834549636 L 758.0637541620433 365.2133373235002 L 758.0853606484707 365.39959630150395 L 758.1122405845316 365.58585527950777 L 758.1453765950185 365.7721142575116 L 758.1857127339448 365.9583732355154 L 758.2341486641377 366.1446322135192 L 758.2915341105175 366.330891191523 L 758.3586636212618 366.51715016952676 L 758.4362716691506 366.7034091475306 L 758.5250281232984 366.8896681255344 L 758.6255341191874 367.07592710353816 L 758.7383183524681 367.262186081542 L 758.8638338193747 367.44844505954575 L 759.0024550238522 367.63470403754957 L 759.1544756686159 367.8209630155534 L 759.3201068443752 368.00722199355715 L 759.4994757283907 368.193480971561 L 759.6926248003829 368.3797399495648 L 759.899511580631 368.56599892756856 L 760.120008891875 368.7522579055724 L 760.3539056434051 368.93851688357614 L 760.6009081325061 369.12477586157996 L 760.860641855233 369.3110348395838 L 761.1326538153515 369.49729381758755 L 761.4164153172115 369.68355279559137 L 761.7113252253303 369.8698117735952 L 762.0167136705936 370.05607075159895 L 762.3318461802213 370.2423297296028 L 762.655928206036 370.42858870760654 L 762.9881100231173 370.61484768561036 L 763.327491968638 370.8011066636142 L 763.6731299885846 370.98736564161794 L 764.0240414581649 371.17362461962176 L 764.3792112400156 371.3598835976256 L 764.7375979428626 371.54614257562935 L 765.0981403420438 371.73240155363317 L 765.4597639223127 371.91866053163693" stroke="rgb(132, 0, 0)" fill="none" stroke-width="1.4963339817440002px" stroke-linecap="round"/><path d="M 765.4597115506234 342.117216569359 L 765.0980877833127 342.30347554736284 L 764.7375451970897 342.4897345253666 L 764.379158307201 342.6759935033704 L 764.0239883383086 342.8622524813742 L 763.6730766816866 343.048511459378 L 763.3274384746982 343.2347704373818 L 762.9880563421358 343.4210294153856 L 762.6558743380127 343.6072883933894 L 762.3317921251562 343.7935473713932 L 762.0166594284868 343.979806349397 L 761.7112707961817 344.1660653274008 L 761.4163607010212 344.3523243054046 L 761.1325990121195 344.5385832834084 L 760.8605868649591 344.7248422614122 L 760.6008529551906 344.911101239416 L 760.3538502790478 345.0973602174198 L 760.1199533404761 345.28361919542357 L 759.8994558421903 345.4698781734274 L 759.6925688749003 345.6561371514312 L 759.4994196158664 345.842396129435 L 759.3200505448092 346.0286551074388 L 759.154419182008 346.2149140854426 L 759.0023983502027 346.4011730634464 L 758.8637769586834 346.5874320414502 L 758.7382613047351 346.77369101945396 L 758.6254768844126 346.9599499974578 L 758.5249707014818 347.1462089754616 L 758.4362140602924 347.33246795346537 L 758.3586058253619 347.5187269314692 L 758.2914761275758 347.70498590947295 L 758.2340904941542 347.8912448874768 L 758.1856543769196 348.0775038654806 L 758.1453180509516 348.26376284348436 L 758.1121818534228 348.4500218214882 L 758.0853017303201 348.636280799492 L 758.0636950568511 348.82253977749576 L 758.0463466956525 349.0087987554996 L 758.0322152554501 349.19505773350335 L 758.020239511582 349.38131671150717 L 758.0093449488014 349.567575689511 L 758.020239511582 349.75383485455654 L 758.0322152554501 349.94009401960204 L 758.0463466956525 350.1263531846476 L 758.0636950568511 350.31261234969315 L 758.0853017303201 350.4988715147387 L 758.1121818534228 350.68513067978427 L 758.1453180509516 350.8713898448298 L 758.1856543769196 351.0576490098754 L 758.2340904941542 351.24390817492093 L 758.2914761275758 351.43016733996643 L 758.3586058253618 351.616426505012 L 758.4362140602924 351.80268567005754 L 758.5249707014818 351.9889448351031 L 758.6254768844126 352.17520400014865 L 758.7382613047351 352.3614631651942 L 758.8637769586834 352.54772233023976 L 759.0023983502027 352.7339814952853 L 759.154419182008 352.9202406603309 L 759.3200505448092 353.1064998253764 L 759.4994196158664 353.29275899042193 L 759.6925688749003 353.4790181554675 L 759.8994558421903 353.66527732051304 L 760.1199533404761 353.8515364855586 L 760.3538502790478 354.03779565060415 L 760.6008529551906 354.2240548156497 L 760.8605868649591 354.41031398069526 L 761.1325990121195 354.59657314574076 L 761.4163607010212 354.7828323107863 L 761.7112707961817 354.9690914758319 L 762.0166594284868 355.15535064087743 L 762.3317921251562 355.341609805923 L 762.6558743380127 355.52786897096854 L 762.9880563421358 355.7141281360141 L 763.3274384746982 355.90038730105965 L 763.6730766816866 356.0866464661052 L 764.0239883383085 356.2729056311507 L 764.379158307201 356.45916479619626 L 764.7375451970897 356.6454239612418 L 765.0980877833127 356.8316831262874 L 765.4597115506234 357.01794229133293" stroke="rgb(132, 0, 0)" fill="none" stroke-width="1.4963339817440002px" stroke-linecap="round"/><path d="M 765.4597115506234 327.2164908473851 L 765.0980877833127 327.40275001243066 L 764.7375451970897 327.5890091774762 L 764.379158307201 327.77526834252177 L 764.0239883383086 327.96152750756727 L 763.6730766816866 328.1477866726128 L 763.3274384746982 328.3340458376584 L 762.9880563421358 328.52030500270394 L 762.6558743380127 328.7065641677495 L 762.3317921251562 328.89282333279505 L 762.0166594284868 329.0790824978406 L 761.7112707961817 329.26534166288616 L 761.4163607010212 329.4516008279317 L 761.1325990121195 329.6378599929772 L 760.8605868649591 329.82411915802277 L 760.6008529551906 330.0103783230683 L 760.3538502790478 330.1966374881139 L 760.1199533404761 330.38289665315943 L 759.8994558421903 330.569155818205 L 759.6925688749003 330.75541498325055 L 759.4994196158664 330.9416741482961 L 759.3200505448092 331.1279333133416 L 759.154419182008 331.31419247838716 L 759.0023983502027 331.5004516434327 L 758.8637769586834 331.68671080847827 L 758.7382613047351 331.8729699735238 L 758.6254768844126 332.0592291385694 L 758.5249707014818 332.24548830361493 L 758.4362140602924 332.4317474686605 L 758.3586058253619 332.618006633706 L 758.2914761275758 332.80426579875154 L 758.2340904941542 332.9905249637971 L 758.1856543769196 333.17678412884266 L 758.1453180509516 333.3630432938882 L 758.1121818534228 333.54930245893377 L 758.0853017303201 333.7355616239793 L 758.0636950568511 333.9218207890249 L 758.0463466956525 334.10807995407043 L 758.0322152554501 334.29433911911593 L 758.020239511582 334.4805982841615 L 758.0093449488014 334.66685744920704 L 758.020239511582 334.85311642721086 L 758.0322152554501 335.0393754052146 L 758.0463466956525 335.22563438321845 L 758.0636950568511 335.41189336122227 L 758.0853017303201 335.59815233922603 L 758.1121818534228 335.78441131722985 L 758.1453180509516 335.9706702952337 L 758.1856543769196 336.15692927323744 L 758.2340904941542 336.34318825124126 L 758.2914761275758 336.529447229245 L 758.3586058253619 336.71570620724884 L 758.4362140602924 336.90196518525266 L 758.5249707014818 337.0882241632564 L 758.6254768844126 337.27448314126025 L 758.7382613047351 337.460742119264 L 758.8637769586834 337.64700109726783 L 759.0023983502027 337.83326007527165 L 759.154419182008 338.0195190532754 L 759.3200505448092 338.20577803127924 L 759.4994196158664 338.39203700928306 L 759.6925688749003 338.5782959872868 L 759.8994558421903 338.76455496529064 L 760.1199533404761 338.9508139432944 L 760.3538502790478 339.1370729212982 L 760.6008529551906 339.32333189930205 L 760.8605868649591 339.5095908773058 L 761.1325990121195 339.69584985530963 L 761.4163607010212 339.8821088333134 L 761.7112707961817 340.0683678113172 L 762.0166594284868 340.25462678932104 L 762.3317921251562 340.4408857673248 L 762.6558743380127 340.6271447453286 L 762.9880563421358 340.81340372333244 L 763.3274384746982 340.9996627013362 L 763.6730766816866 341.18592167934 L 764.0239883383086 341.3721806573438 L 764.379158307201 341.5584396353476 L 764.7375451970897 341.74469861335143 L 765.0980877833127 341.9309575913552 L 765.4597115506234 342.117216569359" stroke="rgb(132, 0, 0)" fill="none" stroke-width="1.4963339817440002px" stroke-linecap="round"/><path d="M 765.4597115506234 312.3157726070811 L 765.0980877833127 312.50203158508486 L 764.7375451970897 312.6882905630887 L 764.379158307201 312.8745495410925 L 764.0239883383086 313.06080851909627 L 763.6730766816866 313.2470674971001 L 763.3274384746982 313.43332647510385 L 762.9880563421358 313.6195854531077 L 762.6558743380127 313.8058444311115 L 762.3317921251562 313.99210340911526 L 762.0166594284868 314.1783623871191 L 761.7112707961817 314.3646213651229 L 761.4163607010212 314.55088034312666 L 761.1325990121195 314.7371393211305 L 760.8605868649591 314.92339829913425 L 760.6008529551906 315.10965727713807 L 760.3538502790478 315.2959162551419 L 760.1199533404761 315.48217523314565 L 759.8994558421903 315.6684342111495 L 759.6925688749003 315.85469318915324 L 759.4994196158664 316.04095216715706 L 759.3200505448092 316.2272111451609 L 759.1544191820082 316.41347012316464 L 759.0023983502027 316.59972910116846 L 758.8637769586834 316.7859880791722 L 758.7382613047351 316.97224705717605 L 758.6254768844126 317.15850603517987 L 758.5249707014818 317.34476501318363 L 758.4362140602924 317.53102399118745 L 758.3586058253619 317.7172829691913 L 758.2914761275758 317.90354194719504 L 758.2340904941542 318.08980092519886 L 758.1856543769196 318.2760599032026 L 758.1453180509516 318.46231888120644 L 758.1121818534228 318.64857785921026 L 758.0853017303201 318.834836837214 L 758.0636950568511 319.02109581521785 L 758.0463466956525 319.20735479322167 L 758.0322152554501 319.39361377122543 L 758.020239511582 319.57987274922925 L 758.0093449488014 319.766131727233 L 758.020239511582 319.9523908922786 L 758.0322152554501 320.1386500573241 L 758.0463466956525 320.3249092223697 L 758.0636950568511 320.51116838741524 L 758.0853017303201 320.6974275524608 L 758.1121818534228 320.88368671750635 L 758.1453180509516 321.0699458825519 L 758.1856543769196 321.2562050475974 L 758.2340904941542 321.44246421264296 L 758.2914761275758 321.6287233776885 L 758.3586058253619 321.81498254273407 L 758.4362140602924 322.0012417077796 L 758.5249707014818 322.1875008728252 L 758.6254768844126 322.37376003787074 L 758.7382613047351 322.5600192029163 L 758.8637769586834 322.74627836796185 L 759.0023983502027 322.93253753300735 L 759.154419182008 323.1187966980529 L 759.3200505448092 323.30505586309846 L 759.4994196158664 323.491315028144 L 759.6925688749003 323.67757419318957 L 759.8994558421903 323.8638333582351 L 760.1199533404761 324.0500925232807 L 760.3538502790478 324.23635168832624 L 760.6008529551906 324.42261085337174 L 760.8605868649591 324.6088700184173 L 761.1325990121195 324.79512918346285 L 761.4163607010212 324.9813883485084 L 761.7112707961817 325.16764751355396 L 762.0166594284868 325.3539066785995 L 762.3317921251562 325.54016584364507 L 762.6558743380127 325.7264250086906 L 762.9880563421358 325.9126841737361 L 763.3274384746982 326.0989433387817 L 763.6730766816866 326.28520250382724 L 764.0239883383086 326.4714616688728 L 764.379158307201 326.65772083391835 L 764.7375451970897 326.8439799989639 L 765.0980877833127 327.03023916400946 L 765.4597115506234 327.216498329055" stroke="rgb(132, 0, 0)" fill="none" stroke-width="1.4963339817440002px" stroke-linecap="round"/><path d="M 765.3637890607237 372.15287420812945 L 765.3637890607237 381.6568694198561" stroke="rgb(132, 0, 0)" fill="none" stroke-width="1.4963339817440002px" stroke-linecap="round"/><path d="M 765.7054769254548 302.68638460768426 L 765.7054769254548 312.190379819411" stroke="rgb(132, 0, 0)" fill="none" stroke-width="1.4963339817440002px" stroke-linecap="round"/><text x="746.4712482856318" y="342.3573856550988" fill="rgb(15, 15, 15)" font-family="sans-serif" text-anchor="end" dominant-baseline="middle" font-size="13.467005835696002px">L1</text><text x="780.8829863392003" y="342.3701497801056" fill="rgb(15, 15, 15)" font-family="sans-serif" text-anchor="start" dominant-baseline="middle" font-size="13.467005835696002px">300H</text></g><g data-circuit-json-type="schematic_component" data-schematic-component-id="schematic_component_5"><rect class="component-overlay" x="745.3311087833213" y="422.6342111825176" width="39.59049827919671" height="79.18100404006339" fill="transparent"/><path d="M 765.1263579229195 422.6342111825176 L 765.1263579229195 456.2861339716679" stroke="rgb(132, 0, 0)" fill="none" stroke-width="1.4963339817440002px" stroke-linecap="round"/><path d="M 765.1263579229195 468.16328495176083 L 765.1263579229195 501.815215222581" stroke="rgb(132, 0, 0)" fill="none" stroke-width="1.4963339817440002px" stroke-linecap="round"/><path d="M 745.3311087833213 456.2861339716679 L 784.921607062518 456.2861339716679" stroke="rgb(132, 0, 0)" fill="none" stroke-width="1.4963339817440002px" stroke-linecap="round"/><path d="M 745.3311087833213 468.16328495176083 L 784.921607062518 468.16328495176083" stroke="rgb(132, 0, 0)" fill="none" stroke-width="1.4963339817440002px" stroke-linecap="round"/><text x="782.0901765672329" y="446.901184719" fill="rgb(15, 15, 15)" font-family="sans-serif" text-anchor="start" dominant-baseline="auto" font-size="13.467005835696002px">C6</text><text x="782.0901765672329" y="476.61619769388" fill="rgb(15, 15, 15)" font-family="sans-serif" text-anchor="start" dominant-baseline="hanging" font-size="13.467005835696002px">100mF</text></g><g class="trace" data-circuit-json-type="schematic_trace" data-schematic-trace-id="schematic_trace_0"><path d="M 488.35166467152004 244.79026385356002 L 488.35166467152004 420.5190308742739 L 765.1530001494646 420.5190308742739" class="trace-invisible-hover-outline" stroke="rgb(0, 150, 0)" fill="none" stroke-width="11.970671853952002px" stroke-linecap="round" opacity="0" stroke-linejoin="round"/><path d="M 488.35166467152004 244.79026385356002 L 488.35166467152004 420.5190308742739 L 765.1530001494646 420.5190308742739" stroke="rgb(0, 150, 0)" fill="none" stroke-width="1.4963339817440002px" stroke-linecap="round" stroke-linejoin="round"/></g><g class="trace" data-circuit-json-type="schematic_trace" data-schematic-trace-id="schematic_trace_1"><path d="M 518.2579006433745 181.29263554295187 L 518.2579006433745 199.90024440124 L 488.35166467152004 199.90024440124" class="trace-invisible-hover-outline" stroke="rgb(0, 150, 0)" fill="none" stroke-width="11.970671853952002px" stroke-linecap="round" opacity="0" stroke-linejoin="round"/><path d="M 518.2579006433745 181.29263554295187 L 518.2579006433745 199.90024440124 L 488.35166467152004 199.90024440124" stroke="rgb(0, 150, 0)" fill="none" stroke-width="1.4963339817440002px" stroke-linecap="round" stroke-linejoin="round"/></g><g class="trace" data-circuit-json-type="schematic_trace" data-schematic-trace-id="schematic_trace_2"><path d="M 518.2987879694256 98.80113472000812 L 518.2783443064001 98.80113472000812 L 518.2783443064001 80.19352586171999" class="trace-invisible-hover-outline" stroke="rgb(0, 150, 0)" fill="none" stroke-width="11.970671853952002px" stroke-linecap="round" opacity="0" stroke-linejoin="round"/><path d="M 518.2987879694256 98.80113472000812 L 518.2783443064001 98.80113472000812 L 518.2783443064001 80.19352586171999" stroke="rgb(0, 150, 0)" fill="none" stroke-width="1.4963339817440002px" stroke-linecap="round" stroke-linejoin="round"/></g><g class="trace" data-circuit-json-type="schematic_trace" data-schematic-trace-id="schematic_trace_3"><path d="M 555.6662427053045 248.44062297371386 L 555.6662427053045 229.82692403612 L 488.35166467152004 229.82692403612" class="trace-invisible-hover-outline" stroke="rgb(0, 150, 0)" fill="none" stroke-width="11.970671853952002px" stroke-linecap="round" opacity="0" stroke-linejoin="round"/><path d="M 555.6662427053045 248.44062297371386 L 555.6662427053045 229.82692403612 L 488.35166467152004 229.82692403612" stroke="rgb(0, 150, 0)" fill="none" stroke-width="1.4963339817440002px" stroke-linecap="round" stroke-linejoin="round"/></g><g class="trace" data-circuit-json-type="schematic_trace" data-schematic-trace-id="schematic_trace_4"><path d="M 555.7071449946955 330.9199436380462 L 555.68669385 330.9199436380462 L 555.68669385 349.53364257564" class="trace-invisible-hover-outline" stroke="rgb(0, 150, 0)" fill="none" stroke-width="11.970671853952002px" stroke-linecap="round" opacity="0" stroke-linejoin="round"/><path d="M 555.7071449946955 330.9199436380462 L 555.68669385 330.9199436380462 L 555.68669385 349.53364257564" stroke="rgb(0, 150, 0)" fill="none" stroke-width="1.4963339817440002px" stroke-linecap="round" stroke-linejoin="round"/></g><g class="trace" data-circuit-json-type="schematic_trace" data-schematic-trace-id="schematic_trace_5"><path d="M 623.0012718837846 248.44062297371386 L 623.0012718837846 214.86358421868002 L 488.35166467152004 214.86358421868002" class="trace-invisible-hover-outline" stroke="rgb(0, 150, 0)" fill="none" stroke-width="11.970671853952002px" stroke-linecap="round" opacity="0" stroke-linejoin="round"/><path d="M 623.0012718837846 248.44062297371386 L 623.0012718837846 214.86358421868002 L 488.35166467152004 214.86358421868002" stroke="rgb(0, 150, 0)" fill="none" stroke-width="1.4963339817440002px" stroke-linecap="round" stroke-linejoin="round"/></g><g class="trace" data-circuit-json-type="schematic_trace" data-schematic-trace-id="schematic_trace_6"><path d="M 623.0421741731755 330.9199436380462 L 623.02172302848 330.9199436380462 L 623.02172302848 349.53364257564" class="trace-invisible-hover-outline" stroke="rgb(0, 150, 0)" fill="none" stroke-width="11.970671853952002px" stroke-linecap="round" opacity="0" stroke-linejoin="round"/><path d="M 623.0421741731755 330.9199436380462 L 623.02172302848 330.9199436380462 L 623.02172302848 349.53364257564" stroke="rgb(0, 150, 0)" fill="none" stroke-width="1.4963339817440002px" stroke-linecap="round" stroke-linejoin="round"/></g><g class="trace" data-circuit-json-type="schematic_trace" data-schematic-trace-id="schematic_trace_7"><path d="M 623.0012718837846 248.44062297371386 L 623.02172302848 248.44062297371386 L 623.02172302848 80.19352586171999" class="trace-invisible-hover-outline" stroke="rgb(0, 150, 0)" fill="none" stroke-width="11.970671853952002px" stroke-linecap="round" opacity="0" stroke-linejoin="round"/><path d="M 623.0012718837846 248.44062297371386 L 623.02172302848 248.44062297371386 L 623.02172302848 80.19352586171999" stroke="rgb(0, 150, 0)" fill="none" stroke-width="1.4963339817440002px" stroke-linecap="round" stroke-linejoin="round"/></g><g class="trace" data-circuit-json-type="schematic_trace" data-schematic-trace-id="schematic_trace_8"><path d="M 765.6613500363333 300.8696555937692 L 765.6223514886833 300.8696555937692 L 765.6223514886833 248.53109880792002" class="trace-invisible-hover-outline" stroke="rgb(0, 150, 0)" fill="none" stroke-width="11.970671853952002px" stroke-linecap="round" opacity="0" stroke-linejoin="round"/><path d="M 765.6613500363333 300.8696555937692 L 765.6223514886833 300.8696555937692 L 765.6223514886833 248.53109880792002" stroke="rgb(0, 150, 0)" fill="none" stroke-width="1.4963339817440002px" stroke-linecap="round" stroke-linejoin="round"/></g><g class="trace" data-circuit-json-type="schematic_trace" data-schematic-trace-id="schematic_trace_9"><path d="M 765.1530001494646 420.5190308742739 L 765.1530001494646 401.87666030717236 L 765.2686297011546 401.87666030717236 L 765.2686297011546 383.23428974007084" class="trace-invisible-hover-outline" stroke="rgb(0, 150, 0)" fill="none" stroke-width="11.970671853952002px" stroke-linecap="round" opacity="0" stroke-linejoin="round"/><path d="M 765.1530001494646 420.5190308742739 L 765.1530001494646 401.87666030717236 L 765.2686297011546 401.87666030717236 L 765.2686297011546 383.23428974007084" stroke="rgb(0, 150, 0)" fill="none" stroke-width="1.4963339817440002px" stroke-linecap="round" stroke-linejoin="round"/><circle cx="765.1530001494646" cy="420.5190308742739" r="2.244500972616" class="trace-junction" fill="rgb(0, 150, 0)"/></g><g class="trace" data-circuit-json-type="schematic_trace" data-schematic-trace-id="schematic_trace_10"><path d="M 765.1939024388555 502.99835153860624 L 765.17345129416 502.99835153860624 L 765.17345129416 521.6120504762" class="trace-invisible-hover-outline" stroke="rgb(0, 150, 0)" fill="none" stroke-width="11.970671853952002px" stroke-linecap="round" opacity="0" stroke-linejoin="round"/><path d="M 765.1939024388555 502.99835153860624 L 765.17345129416 502.99835153860624 L 765.17345129416 521.6120504762" stroke="rgb(0, 150, 0)" fill="none" stroke-width="1.4963339817440002px" stroke-linecap="round" stroke-linejoin="round"/></g><g class="schematic-port-hover" data-schematic-port-id="source_port_0"><circle cx="488.35166467152004" cy="199.90024440124" r="2.9926679634880005" fill="red" opacity="0"/></g><g class="schematic-port-hover" data-schematic-port-id="source_port_1"><circle cx="488.35166467152004" cy="214.86358421868002" r="2.9926679634880005" fill="red" opacity="0"/></g><g class="schematic-port-hover" data-schematic-port-id="source_port_2"><circle cx="488.35166467152004" cy="229.82692403612" r="2.9926679634880005" fill="red" opacity="0"/></g><g class="schematic-port-hover" data-schematic-port-id="source_port_3"><circle cx="488.35166467152004" cy="244.79026385356002" r="2.9926679634880005" fill="red" opacity="0"/></g><g class="schematic-port-hover" data-schematic-port-id="source_port_4"><circle cx="518.2579006433745" cy="181.29263554295187" r="2.9926679634880005" fill="red" opacity="0"/></g><g class="schematic-port-hover" data-schematic-port-id="source_port_5"><circle cx="518.2987879694256" cy="98.80113472000812" r="2.9926679634880005" fill="red" opacity="0"/></g><g class="schematic-port-hover" data-schematic-port-id="source_port_6"><circle cx="555.7071449946955" cy="330.9199436380462" r="2.9926679634880005" fill="red" opacity="0"/></g><g class="schematic-port-hover" data-schematic-port-id="source_port_7"><circle cx="555.6662427053045" cy="248.44062297371386" r="2.9926679634880005" fill="red" opacity="0"/></g><g class="schematic-port-hover" data-schematic-port-id="source_port_8"><circle cx="623.0421741731755" cy="330.9199436380462" r="2.9926679634880005" fill="red" opacity="0"/></g><g class="schematic-port-hover" data-schematic-port-id="source_port_9"><circle cx="623.0012718837846" cy="248.44062297371386" r="2.9926679634880005" fill="red" opacity="0"/></g><g class="schematic-port-hover" data-schematic-port-id="source_port_10"><circle cx="765.2686297011546" cy="383.23428974007084" r="2.9926679634880005" fill="red" opacity="0"/></g><g class="schematic-port-hover" data-schematic-port-id="source_port_11"><circle cx="765.6613500363333" cy="300.8696555937692" r="2.9926679634880005" fill="red" opacity="0"/></g><g class="schematic-port-hover" data-schematic-port-id="source_port_12"><circle cx="765.1939024388555" cy="502.99835153860624" r="2.9926679634880005" fill="red" opacity="0"/></g><g class="schematic-port-hover" data-schematic-port-id="source_port_13"><circle cx="765.1530001494646" cy="420.5190308742739" r="2.9926679634880005" fill="red" opacity="0"/></g><rect class="component-overlay" x="511.2915494537923" y="48.433208638931255" width="13.86200059852672" height="30.642069429881964" fill="transparent"/><path d="M 518.113044291437 48.433208638931255 L 511.2915494537923 62.728487705211954" stroke="rgb(132, 0, 0)" fill="none" stroke-width="1.4963339817440002px" stroke-linecap="round"/><path d="M 518.3320552146747 48.44066038216034 L 525.153550052319 62.73597685679059" stroke="rgb(132, 0, 0)" fill="none" stroke-width="1.4963339817440002px" stroke-linecap="round"/><path d="M 518.1919833906437 48.81041199071923 L 518.1919833906437 79.07527806881322" stroke="rgb(132, 0, 0)" fill="none" stroke-width="1.4963339817440002px" stroke-linecap="round"/><text x="517.8573357772965" y="44.0488602923825" fill="rgb(15, 15, 15)" font-family="sans-serif" text-anchor="middle" dominant-baseline="ideographic" font-size="13.467005835696002px">V3_3</text><rect class="component-overlay" x="538.4608970521631" y="349.45257868217897" width="33.61673649556951" height="36.16859194970567" fill="transparent"/><path d="M 555.6054279514516 349.45257868217897 L 555.6054279514516 374.1146615790696" stroke="rgb(132, 0, 0)" fill="none" stroke-width="1.4963339817440002px" stroke-linecap="round"/><path d="M 538.4608970521631 374.1122075913396 L 572.0776335477326 374.11220759133954" stroke="rgb(132, 0, 0)" fill="none" stroke-width="1.4963339817440002px" stroke-linecap="round"/><path d="M 542.6629919197355 379.8666891116122 L 567.8755386801602 379.8666891116122" stroke="rgb(132, 0, 0)" fill="none" stroke-width="1.4963339817440002px" stroke-linecap="round"/><path d="M 551.0671741732104 385.62117063188464 L 559.4713564266854 385.62117063188464" stroke="rgb(132, 0, 0)" fill="none" stroke-width="1.4963339817440002px" stroke-linecap="round"/><text x="553.9942353732689" y="394.3845179309975" fill="rgb(15, 15, 15)" font-family="sans-serif" text-anchor="middle" dominant-baseline="hanging" font-size="13.467005835696002px">GND</text><rect class="component-overlay" x="605.7959262306431" y="349.45257868217897" width="33.61673649556951" height="36.16859194970567" fill="transparent"/><path d="M 622.9404571299316 349.45257868217897 L 622.9404571299316 374.1146615790696" stroke="rgb(132, 0, 0)" fill="none" stroke-width="1.4963339817440002px" stroke-linecap="round"/><path d="M 605.7959262306431 374.1122075913396 L 639.4126627262126 374.11220759133954" stroke="rgb(132, 0, 0)" fill="none" stroke-width="1.4963339817440002px" stroke-linecap="round"/><path d="M 609.9980210982155 379.8666891116122 L 635.2105678586402 379.8666891116122" stroke="rgb(132, 0, 0)" fill="none" stroke-width="1.4963339817440002px" stroke-linecap="round"/><path d="M 618.4022033516904 385.62117063188464 L 626.8063856051654 385.62117063188464" stroke="rgb(132, 0, 0)" fill="none" stroke-width="1.4963339817440002px" stroke-linecap="round"/><text x="621.3292645517489" y="394.3845179309975" fill="rgb(15, 15, 15)" font-family="sans-serif" text-anchor="middle" dominant-baseline="hanging" font-size="13.467005835696002px">GND</text><rect class="component-overlay" x="616.0349281758723" y="48.433208638931255" width="13.86200059852672" height="30.642069429881964" fill="transparent"/><path d="M 622.856423013517 48.433208638931255 L 616.0349281758723 62.728487705211954" stroke="rgb(132, 0, 0)" fill="none" stroke-width="1.4963339817440002px" stroke-linecap="round"/><path d="M 623.0754339367547 48.44066038216034 L 629.896928774399 62.73597685679059" stroke="rgb(132, 0, 0)" fill="none" stroke-width="1.4963339817440002px" stroke-linecap="round"/><path d="M 622.9353621127237 48.81041199071923 L 622.9353621127237 79.07527806881322" stroke="rgb(132, 0, 0)" fill="none" stroke-width="1.4963339817440002px" stroke-linecap="round"/><text x="622.6007144993765" y="44.0488602923825" fill="rgb(15, 15, 15)" font-family="sans-serif" text-anchor="middle" dominant-baseline="ideographic" font-size="13.467005835696002px">V3_3</text><rect class="component-overlay" x="758.6355566360755" y="216.77078158513123" width="13.86200059852672" height="30.642069429881957" fill="transparent"/><path d="M 765.4570514737202 216.77078158513123 L 758.6355566360755 231.06606065141193" stroke="rgb(132, 0, 0)" fill="none" stroke-width="1.4963339817440002px" stroke-linecap="round"/><path d="M 765.676062396958 216.7782333283603 L 772.4975572346023 231.07354980299056" stroke="rgb(132, 0, 0)" fill="none" stroke-width="1.4963339817440002px" stroke-linecap="round"/><path d="M 765.535990572927 217.1479849369192 L 765.535990572927 247.4128510150132" stroke="rgb(132, 0, 0)" fill="none" stroke-width="1.4963339817440002px" stroke-linecap="round"/><text x="765.2013429595797" y="212.38643323858247" fill="rgb(15, 15, 15)" font-family="sans-serif" text-anchor="middle" dominant-baseline="ideographic" font-size="13.467005835696002px">V3_3</text><rect class="component-overlay" x="747.9476544963231" y="521.530986582739" width="33.61673649556951" height="36.168591949705615" fill="transparent"/><path d="M 765.0921853956116 521.530986582739 L 765.0921853956116 546.1930694796296" stroke="rgb(132, 0, 0)" fill="none" stroke-width="1.4963339817440002px" stroke-linecap="round"/><path d="M 747.9476544963231 546.1906154918996 L 781.5643909918927 546.1906154918996" stroke="rgb(132, 0, 0)" fill="none" stroke-width="1.4963339817440002px" stroke-linecap="round"/><path d="M 752.1497493638956 551.9450970121721 L 777.3622961243202 551.9450970121721" stroke="rgb(132, 0, 0)" fill="none" stroke-width="1.4963339817440002px" stroke-linecap="round"/><path d="M 760.5539316173705 557.6995785324447 L 768.9581138708454 557.6995785324447" stroke="rgb(132, 0, 0)" fill="none" stroke-width="1.4963339817440002px" stroke-linecap="round"/><text x="763.480992817429" y="566.4629258315575" fill="rgb(15, 15, 15)" font-family="sans-serif" text-anchor="middle" dominant-baseline="hanging" font-size="13.467005835696002px">GND</text></svg>