<svg xmlns="http://www.w3.org/2000/svg" width="1200" height="600" style="background-color: rgb(245, 241, 237)" data-real-to-screen-transform="matrix(98.045623897,0,0,-98.045623897,506.7138881626,301.1830838617)" data-software-used-string="@tscircuit/core@0.0.562"><style>
              .boundary { fill: rgb(245, 241, 237); }
              .schematic-boundary { fill: none; stroke: #fff; }
              .component { fill: none; stroke: rgb(132, 0, 0); }
              .chip { fill: rgb(255, 255, 194); stroke: rgb(132, 0, 0); }
              .component-pin { fill: none; stroke: rgb(132, 0, 0); }
              .trace:hover {
                filter: invert(1);
              }
              .trace:hover .trace-crossing-outline {
                opacity: 0;
              }
              .trace:hover .trace-junction {
                filter: invert(1);
              }
              .text { font-family: sans-serif; fill: rgb(0, 150, 0); }
              .pin-number { fill: rgb(169, 0, 0); }
              .port-label { fill: rgb(0, 100, 100); }
              .component-name { fill: rgb(0, 100, 100); }
            </style><rect class="boundary" x="0" y="0" width="1200" height="600"/><g data-circuit-json-type="schematic_component" data-schematic-component-id="schematic_component_0"><rect class="component chip" x="487.1047633832" y="271.7693966926" width="39.21824955879998" height="58.8273743382" stroke-width="1.96091247794px" fill="rgb(255, 255, 194)" stroke="rgb(132, 0, 0)"/><rect class="component-overlay" x="487.1047633832" y="271.7693966926" width="39.21824955879998" height="58.8273743382" fill="transparent"/><text x="487.1047633832" y="343.34270213741" fill="#006464" text-anchor="start" dominant-baseline="middle" font-family="sans-serif" font-size="17.64821230146px" transform="rotate(0, 487.1047633832, 343.34270213741)"></text><text x="487.1047633832" y="259.02346558599004" fill="#006464" text-anchor="start" dominant-baseline="middle" font-family="sans-serif" font-size="17.64821230146px" transform="rotate(0, 487.1047633832, 259.02346558599004)">U1</text><line class="component-pin" x1="563.58035002286" y1="310.9876462514" x2="526.323012942" y2="310.9876462514" stroke-width="1.96091247794px"/><circle class="component-pin" cx="565.5412625008" cy="310.9876462514" r="1.96091247794" stroke-width="1.96091247794px"/><text class="pin-number" x="545.9321377214001" y="309.02673377346" style="font-family: sans-serif;" fill="rgb(169, 0, 0)" text-anchor="middle" dominant-baseline="auto" font-size="14.706843584549999px" transform="">1</text><line class="component-pin" x1="563.58035002286" y1="291.37852147200005" x2="526.323012942" y2="291.37852147200005" stroke-width="1.96091247794px"/><text class="pin-number" x="545.9321377214001" y="289.41760899406" style="font-family: sans-serif;" fill="rgb(169, 0, 0)" text-anchor="middle" dominant-baseline="auto" font-size="14.706843584549999px" transform="">2</text></g><g data-circuit-json-type="schematic_component" data-schematic-component-id="schematic_component_1"><rect class="component-overlay" x="673.2255899078348" y="350.8663017190831" width="55.476625923270376" height="96.72481207923391" fill="transparent"/><path d="M 702.7434211386379 350.8663017190831 L 702.7434211386379 394.9672233479537" stroke="rgb(132, 0, 0)" fill="none" stroke-width="1.96091247794px" stroke-linecap="round"/><path d="M 702.7434211386379 403.4910059481248 L 702.7434211386378 447.591113798317" stroke="rgb(132, 0, 0)" fill="none" stroke-width="1.96091247794px" stroke-linecap="round"/><path d="M 676.5731028171754 395.34107131187295 L 728.7022158311051 395.34107131187295" stroke="rgb(132, 0, 0)" fill="none" stroke-width="1.96091247794px" stroke-linecap="round"/><path d="M 728.3617818158099 409.15405255247873 L 728.3617818158099 409.15405255247873 L 728.2406857562798 409.08202709388337 L 728.119499222307 409.0103607759966 L 727.9982221218266 408.9390545278791 L 727.8768543627737 408.86810927859153 L 727.7553958530835 408.7975259571947 L 727.6338465006912 408.7273054927493 L 727.5122062135318 408.65744881431607 L 727.3904748995408 408.58795685095566 L 727.268652466653 408.51883053172895 L 727.1467388228037 408.4500707856965 L 727.0247338759281 408.38167854191914 L 726.9026375339613 408.31365472945754 L 726.7804497048385 408.2460002773724 L 726.6581702964947 408.1787161147245 L 726.5357992168654 408.11180317057455 L 726.4133363738854 408.0452623739833 L 726.29078167549 407.97909465401136 L 726.1681350296145 407.9133009397196 L 726.0453963441938 407.84788216016864 L 725.9225655271633 407.7828392444192 L 725.799642486458 407.71817312153206 L 725.6766271300131 407.653884720568 L 725.5535193657638 407.58997497058755 L 725.4303191016452 407.52644480065163 L 725.3070262455925 407.46329513982084 L 725.1836407055409 407.40052691715596 L 725.0601623894254 407.3381410617177 L 724.9365912051813 407.27613850256677 L 724.8129270607437 407.2145201687639 L 724.6891698640479 407.1532869893698 L 724.5653195230288 407.0924398934452 L 724.4413759456219 407.03197981005087 L 724.3173390397619 406.97190766824747 L 724.1932087133844 406.91222439709577 L 724.0689848744244 406.85293092565644 L 723.9446674308168 406.79402818299025 L 723.8202562904972 406.7355170981579 L 723.6957513614005 406.6773986002201 L 723.571152551462 406.61967361823764 L 723.4464597686167 406.56234308127114 L 723.3216729207998 406.5054079183814 L 723.1967919159465 406.4488690586291 L 723.071816661992 406.392727431075 L 722.9467470668714 406.33698396477985 L 722.8215830385199 406.2816395888043 L 722.6963244848725 406.22669523220907 L 722.5709713138646 406.17215182405494 L 722.4455234334312 406.11801029340256 L 722.3199807515075 406.0642715693128 L 722.1943431760287 406.0109365808462 L 722.06861061493 405.9580062570636 L 721.9427829761463 405.9054815270257 L 721.8168601676131 405.8533633197932 L 721.6908420972653 405.8016525644268 L 721.5647286730383 405.7503501899873 L 721.438519802867 405.69945712553533 L 721.3122153946866 405.6489743001317 L 721.1858153564325 405.5989026428371 L 721.0593195960397 405.5492430827123 L 720.9327280214433 405.4999965488179 L 720.8060405405785 405.45116397021474 L 720.6792570613806 405.40274627596347 L 720.5523774917845 405.35474439512484 L 720.4254017397254 405.3071592567596 L 720.2983297131387 405.2599917899284 L 720.1711613199594 405.213242923692 L 720.0438964681226 405.1669135871112 L 719.9165350655637 405.1210047092466 L 719.7890770202175 405.07551721915905 L 719.6615222400195 405.03045204590916 L 719.5338706329046 404.98581011855765 L 719.4061221068081 404.94159236616537 L 719.2782765696652 404.8977997177929 L 719.1503339294109 404.85443310250105 L 719.0222940939805 404.8114934493505 L 718.894156971309 404.768981687402 L 718.7659224693317 404.7268987457163 L 718.6375904959838 404.68524555335404 L 718.5091609592004 404.644023039376 L 718.3806337669165 404.6032321328429 L 718.2520088270675 404.5628737628154 L 718.1232860475884 404.5229488583543 L 717.9944653364145 404.48345834852034 L 717.8655466014808 404.4444031623742 L 717.7365297507225 404.4057842289766 L 717.6074146920748 404.36760247738823 L 717.478201333473 404.32985883666987 L 717.348889582852 404.2925542358823 L 717.2194793481472 404.25568960408606 L 717.0899705372934 404.219265870342 L 716.9603630582262 404.18328396371083 L 716.8306568188805 404.1477448132533 L 716.7008517271914 404.11264934803006 L 716.5709476910943 404.07799849710193 L 716.4409446185242 404.04379318952954 L 716.3108424174162 404.0100343543736 L 716.1806409957056 403.97672292069495 L 716.0503402613276 403.9438598175542 L 715.9199401222171 403.91144597401217 L 715.7894404863096 403.87948231912947 L 715.7894404863096 403.87948231912947 L 715.6251095523629 403.83983907343037 L 715.4606700864402 403.8007836912714 L 715.2961231166677 403.76231487415595 L 715.1314696711712 403.7244313235872 L 714.9667107780768 403.68713174106875 L 714.8018474655107 403.65041482810386 L 714.6368807615986 403.6142792861959 L 714.4718116944669 403.57872381684825 L 714.3066412922411 403.5437471215642 L 714.1413705830477 403.50934790184726 L 713.9760005950125 403.4755248592007 L 713.8105323562615 403.4422766951278 L 713.6449668949209 403.40960211113213 L 713.4793052391167 403.37749980871695 L 713.3135484169746 403.3459684893856 L 713.147697456621 403.3150068546415 L 712.9817533861817 403.284613605988 L 712.8157172337828 403.25478744492847 L 712.6495900275504 403.2255270729662 L 712.4833727956104 403.1968311916047 L 712.3170665660889 403.16869850234724 L 712.1506723671117 403.1411277066972 L 711.9841912268051 403.1141175061579 L 711.8176241732951 403.08766660223284 L 711.6509722347076 403.06177369642523 L 711.4842364391686 403.0364374902386 L 711.3174178148043 403.01165668517615 L 711.1505173897406 402.98742998274133 L 710.9835361921034 402.96375608443753 L 710.8164752500189 402.9406336917681 L 710.6493355916132 402.9180615062363 L 710.4821182450121 402.89603822934566 L 710.3148242383417 402.87456256259946 L 710.147454599728 402.8536332075011 L 709.9800103572971 402.8332488655539 L 709.812492539175 402.8134082382613 L 709.6449021734877 402.7941100271266 L 709.4772402883611 402.77535293365315 L 709.3095079119215 402.7571356593443 L 709.1417060722947 402.7394569057036 L 708.9738357976069 402.7223153742342 L 708.8058981159838 402.7057097664396 L 708.6378940555518 402.68963878382306 L 708.4698246444366 402.67410112788804 L 708.3016909107645 402.6590955001379 L 708.1334938826612 402.6446206020759 L 707.9652345882531 402.6306751352055 L 707.796914055666 402.61725780103006 L 707.628533313026 402.60436730105295 L 707.460093388459 402.5920023367775 L 707.2915953100911 402.5801616097071 L 707.1230401060483 402.5688438213451 L 706.9544288044567 402.5580476731949 L 706.7857624334422 402.54777186675983 L 706.6170420211309 402.5380151035433 L 706.4482685956489 402.5287760850486 L 706.279443185122 402.52005351277916 L 706.1105668176764 402.51184608823837 L 705.941640521438 402.5041525129295 L 705.772665324533 402.496971488356 L 705.6036422550873 402.49030171602124 L 705.4345723412268 402.4841418974285 L 705.2654566110778 402.4784907340812 L 705.0962960927661 402.47334692748274 L 704.9270918144178 402.46870917913645 L 704.7578448041589 402.4645761905457 L 704.5885560901155 402.46094666321386 L 704.4192267004136 402.45781929864427 L 704.2498576631791 402.4551927983403 L 704.0804500065381 402.45306586380536 L 703.9110047586166 402.4514371965428 L 703.7415229475407 402.45030549805597 L 703.5720056014364 402.4496694698483 L 703.4024537484296 402.449527813423 L 703.2328684166465 402.4498792302836 L 703.063250634213 402.4507224219334 L 702.8936014292551 402.4520560898757 L 702.7239218298989 402.453878935614 L 702.5542128642704 402.4561896606516 L 702.3844755604956 402.45898696649186 L 702.2147109467006 402.4622695546381 L 702.0449200510113 402.4660361265938 L 701.8751039015538 402.47028538386223 L 701.7052635264541 402.4750160279468 L 701.5353999538382 402.4802267603509 L 701.3655142118322 402.4859162825779 L 701.195607328562 402.49208329613106 L 701.0256803321537 402.4987265025138 L 700.8557342507333 402.50584460322955 L 700.6857701124269 402.51343629978163 L 700.5157889453604 402.52150029367334 L 700.3457917776599 402.5300352864082 L 700.1757796374513 402.5390399794894 L 700.0057535528608 402.5485130744205 L 699.8357145520143 402.5584532727047 L 699.6656636630379 402.5688592758454 L 699.4956019140575 402.57972978534605 L 699.3255303331993 402.5910635027099 L 699.1554499485892 402.6028591294404 L 698.9853617883532 402.6151153670409 L 698.9853617883532 402.6151153670409 L 698.8411955652732 402.62803861068755 L 698.696988725068 402.64116159074183 L 698.5527431004454 402.65448728369233 L 698.4084605241136 402.66801866602776 L 698.2641428287806 402.6817587142368 L 698.1197918471543 402.6957104048081 L 697.9754094119428 402.7098767142303 L 697.8309973558542 402.72426061899205 L 697.6865575115963 402.738865095582 L 697.5420917118773 402.7536931204889 L 697.3976017894053 402.76874767020126 L 697.2530895768881 402.7840317212079 L 697.1085569070339 402.7995482499974 L 696.9640056125505 402.81530023305834 L 696.8194375261462 402.8312906468795 L 696.6748544805288 402.8475224679495 L 696.5302583084064 402.863998672757 L 696.385650842487 402.8807222377907 L 696.2410339154787 402.89769613953916 L 696.0964093600895 402.9149233544911 L 695.9517790090273 402.9324068591352 L 695.8071446950003 402.9501496299601 L 695.6625082507162 402.96815464345445 L 695.5178715088834 402.9864248761069 L 695.3732363022098 403.00496330440615 L 695.2286044634033 403.0237729048408 L 695.083977825172 403.0428566538996 L 694.939358220224 403.06221752807113 L 694.7947474812671 403.08185850384405 L 694.6501474410096 403.10178255770705 L 694.5055599321593 403.1219926661488 L 694.3609867874244 403.1424918056579 L 694.2164298395127 403.1632829527231 L 694.0718909211324 403.18436908383296 L 693.9273718649914 403.2057531754762 L 693.7828745037979 403.2274382041415 L 693.6384006702597 403.24942714631743 L 693.493952197085 403.27172297849273 L 693.3495309169817 403.29432867715605 L 693.2051386626579 403.31724721879607 L 693.0607772668216 403.34048157990134 L 692.9164485621807 403.36403473696066 L 692.7721543814433 403.3879096664626 L 692.6278965573175 403.4121093448958 L 692.4836769225113 403.436636748749 L 692.3394973097327 403.4614948545108 L 692.1953595516896 403.48668663866994 L 692.0512654810902 403.512215077715 L 691.9072169306426 403.5380831481346 L 691.7632157330544 403.5642938264175 L 691.619263721034 403.5908500890523 L 691.4753627272893 403.6177549125277 L 691.3315145845283 403.64501127333233 L 691.1877211254591 403.6726221479549 L 691.0439841827896 403.70059051288393 L 690.900305589228 403.72891934460824 L 690.756687177482 403.7576116196164 L 690.61313078026 403.78667031439716 L 690.4696382302698 403.81609840543905 L 690.3262113602194 403.8458988692308 L 690.182852002817 403.87607468226105 L 690.0395619907704 403.9066288210185 L 689.8963431567878 403.9375642619918 L 689.7531973335771 403.96888398166953 L 689.6101263538463 404.00059095654046 L 689.4671320503036 404.03268816309316 L 689.3242162556569 404.06517857781637 L 689.1813808026142 404.0980651771987 L 689.0386275238835 404.13135093772877 L 688.8959582521729 404.1650388358953 L 688.7533748201904 404.199131848187 L 688.610879060644 404.23363295109243 L 688.4684728062418 404.26854512110026 L 688.3261578896917 404.3038713346992 L 688.1839361437018 404.33961456837784 L 688.04180940098 404.37577779862494 L 687.8997794942344 404.41236400192906 L 687.7578482561731 404.449376154779 L 687.616017519504 404.4868172336632 L 687.4742891169352 404.5246902150705 L 687.3326648811747 404.5629980754895 L 687.1911466449304 404.6017437914088 L 687.0497362409105 404.64093033931715 L 686.908435501823 404.6805606957032 L 686.7672462603758 404.7206378370556 L 686.6261703492771 404.761164739863 L 686.4852096012347 404.80214438061404 L 686.3443658489567 404.8435797357974 L 686.2036409251513 404.8854737819017 L 686.0630366625262 404.92782949541566 L 685.9225548937897 404.97064985282793 L 685.7821974516496 405.0139378306271 L 685.6419661688142 405.05769640530195 L 685.5018628779912 405.10192855334105 L 685.3618894118888 405.1466372512331 L 685.2220476032151 405.19182547546666 L 685.0823392846779 405.23749620253056 L 684.9427662889854 405.2836524089133 L 684.8033304488455 405.33029707110364 L 684.6640335969662 405.3774331655902 L 684.6640335969662 405.3774331655902 L 684.5824788894755 405.4052967852713 L 684.5009669338378 405.4333604797938 L 684.4194982203206 405.4616242403337 L 684.3380732391912 405.4900880580669 L 684.2566924807168 405.51875192416924 L 684.1753564351648 405.54761582981666 L 684.0940655928025 405.57667976618507 L 684.0128204438973 405.60594372445036 L 683.9316214787166 405.63540769578833 L 683.8504691875277 405.66507167137496 L 683.7693640605977 405.69493564238616 L 683.6883065881943 405.7249995999978 L 683.6072972605847 405.7552635353857 L 683.5263365680361 405.78572743972586 L 683.445425000816 405.81639130419416 L 683.3645630491917 405.8472551199664 L 683.2837512034306 405.8783188782186 L 683.2029899537998 405.9095825701266 L 683.122279790567 405.94104618686623 L 683.0416212039992 405.9727097196135 L 682.9610146843639 406.0045731595442 L 682.8804607219284 406.03663649783425 L 682.7999598069601 406.0688997256596 L 682.7195124297263 406.10136283419615 L 682.6391190804943 406.1340258146197 L 682.5587802495315 406.1668886581062 L 682.4784964271051 406.19995135583156 L 682.3982681034827 406.23321389897166 L 682.3180957689315 406.26667627870233 L 682.2379799137186 406.30033848619956 L 682.1579210281118 406.3342005126392 L 682.077919602378 406.36826234919715 L 681.9979761267848 406.40252398704934 L 681.9180910915995 406.43698541737155 L 681.8382649870894 406.4716466313398 L 681.7584983035218 406.5065076201299 L 681.6787915311642 406.5415683749178 L 681.5991451602837 406.5768288868794 L 681.5195596811478 406.61228914719055 L 681.4400355840238 406.64794914702713 L 681.3605733591789 406.68380887756507 L 681.2811734968808 406.7198683299803 L 681.2018364873965 406.7561274954486 L 681.1225628209935 406.79258636514595 L 681.043352987939 406.82924493024825 L 680.9642074785005 406.8661031819314 L 680.8851267829452 406.9031611113712 L 680.8061113915405 406.94041870974365 L 680.7271617945538 406.9778759682246 L 680.6482784822523 407.01553287799 L 680.5694619449034 407.0533894302156 L 680.4907126727745 407.09144561607746 L 680.4120311561329 407.12970142675135 L 680.3334178852459 407.1681568534132 L 680.2548733503809 407.206811887239 L 680.1763980418051 407.2456665194045 L 680.097992449786 407.2847207410856 L 680.0196570645909 407.32397454345835 L 679.9413923764871 407.3634279176985 L 679.8631988757419 407.40308085498197 L 679.7850770526228 407.4429333464847 L 679.7070273973969 407.4829853833825 L 679.6290504003317 407.5232369568514 L 679.5511465516945 407.56368805806716 L 679.4733163417527 407.60433867820575 L 679.3955602607735 407.64518880844304 L 679.3178787990244 407.6862384399549 L 679.2402724467726 407.72748756391724 L 679.1627416942855 407.76893617150597 L 679.0852870318304 407.810584253897 L 679.0079089496747 407.85243180226615 L 678.9306079380857 407.8944788077894 L 678.8533844873307 407.9367252616426 L 678.7762390876771 407.97917115500167 L 678.6991722293923 408.02181647904246 L 678.6221844027434 408.0646612249409 L 678.545276097998 408.1077053838728 L 678.4684478054234 408.15094894701423 L 678.3917000152867 408.19439190554095 L 678.3150332178556 408.23803425062886 L 678.2384479033971 408.2818759734539 L 678.1619445621786 408.3259170651919 L 678.0855236844677 408.37015751701887 L 678.0091857605314 408.41459732011054 L 677.9329312806374 408.45923646564296 L 677.8567607350526 408.5040749447919 L 677.7806746140448 408.54911274873336 L 677.7046734078809 408.5943498686432 L 677.6287576068286 408.6397862956972 L 677.5529277011549 408.6854220210714 L 677.4771841811274 408.7312570359417 L 677.4015275370134 408.7772913314839 L 677.3259582590803 408.8235248988739 L 677.2504768375952 408.8699577292877 L 677.1750837628256 408.91658981390106 L 677.0997795250388 408.96342114388995 L 677.0245646145021 409.0104517104303 L 676.949439521483 409.0576815046979 L 676.8744047362486 409.1051105178687 L 676.7994607490664 409.1527387411186" stroke="rgb(132, 0, 0)" fill="none" stroke-width="1.96091247794px" stroke-linecap="round"/><path d="M 680.3585855284645 369.2676318713831 L 680.3585855284645 383.0398261324478 L 679.8710046408247 383.0398261324478 L 679.8710046408247 369.2676318713831" stroke="rgb(132, 0, 0)" fill="none" stroke-width="1.96091247794px" stroke-linecap="round"/><path d="M 673.2255899078348 375.904389175783 L 686.9977841688994 375.904389175783 L 686.9977841688994 376.39197006342283 L 673.2255899078348 376.39197006342283" stroke="rgb(132, 0, 0)" fill="none" stroke-width="1.96091247794px" stroke-linecap="round"/><text x="724.9741290280457" y="385.3920184394708" fill="rgb(15, 15, 15)" font-family="sans-serif" text-anchor="start" dominant-baseline="auto" font-size="17.64821230146px">C1</text><text x="724.9741290280457" y="414.6083998885708" fill="rgb(15, 15, 15)" font-family="sans-serif" text-anchor="start" dominant-baseline="hanging" font-size="17.64821230146px">1µF</text></g><g class="trace" data-circuit-json-type="schematic_trace" data-schematic-trace-id="schematic_trace_0"><path d="M 565.5412625008 291.37852147200005 L 702.8051359566 291.37852147200005 L 702.8051359566 105.09183606770003" class="trace-invisible-hover-outline" stroke="rgb(0, 150, 0)" fill="none" stroke-width="15.68729982352px" stroke-linecap="round" opacity="0" stroke-linejoin="round"/><path d="M 565.5412625008 291.37852147200005 L 702.8051359566 291.37852147200005 L 702.8051359566 105.09183606770003" stroke="rgb(0, 150, 0)" fill="none" stroke-width="1.96091247794px" stroke-linecap="round" stroke-linejoin="round"/></g><g class="trace" data-circuit-json-type="schematic_trace" data-schematic-trace-id="schematic_trace_1"><path d="M 565.5412625008 291.37852147200005 L 702.8051359566 291.37852147200005 L 702.8051359566 105.09183606770003" class="trace-invisible-hover-outline" stroke="rgb(0, 150, 0)" fill="none" stroke-width="15.68729982352px" stroke-linecap="round" opacity="0" stroke-linejoin="round"/><path d="M 565.5412625008 291.37852147200005 L 702.8051359566 291.37852147200005 L 702.8051359566 105.09183606770003" stroke="rgb(0, 150, 0)" fill="none" stroke-width="1.96091247794px" stroke-linecap="round" stroke-linejoin="round"/></g><g class="trace" data-circuit-json-type="schematic_trace" data-schematic-trace-id="schematic_trace_2"><path d="M 702.7783351853077 350.866301719083 L 634.1597988430539 350.866301719083 L 634.1597988430539 291.37852147200005 L 565.5412625008 291.37852147200005" class="trace-invisible-hover-outline" stroke="rgb(0, 150, 0)" fill="none" stroke-width="15.68729982352px" stroke-linecap="round" opacity="0" stroke-linejoin="round"/><path d="M 702.7783351853077 350.866301719083 L 634.1597988430539 350.866301719083 L 634.1597988430539 291.37852147200005 L 565.5412625008 291.37852147200005" stroke="rgb(0, 150, 0)" fill="none" stroke-width="1.96091247794px" stroke-linecap="round" stroke-linejoin="round"/><circle cx="634.1597988430539" cy="291.37852147200005" r="2.94136871691" class="trace-junction" fill="rgb(0, 150, 0)"/></g><g class="trace" data-circuit-json-type="schematic_trace" data-schematic-trace-id="schematic_trace_3"><path d="M 702.8319367278923 447.591113798317 L 702.8051359566 447.591113798317 L 702.8051359566 497.27433165570005" class="trace-invisible-hover-outline" stroke="rgb(0, 150, 0)" fill="none" stroke-width="15.68729982352px" stroke-linecap="round" opacity="0" stroke-linejoin="round"/><path d="M 702.8319367278923 447.591113798317 L 702.8051359566 447.591113798317 L 702.8051359566 497.27433165570005" stroke="rgb(0, 150, 0)" fill="none" stroke-width="1.96091247794px" stroke-linecap="round" stroke-linejoin="round"/></g><rect class="component-overlay" x="693.6490963461666" y="63.47064514018277" width="18.16584417282411" height="40.15575200994081" fill="transparent"/><path d="M 702.5885139551622 63.47064514018277 L 693.6490963461666 82.20429113011933" stroke="rgb(132, 0, 0)" fill="none" stroke-width="1.96091247794px" stroke-linecap="round"/><path d="M 702.8755229099957 63.48041048432291 L 711.8149405189907 82.21410549707143" stroke="rgb(132, 0, 0)" fill="none" stroke-width="1.96091247794px" stroke-linecap="round"/><path d="M 702.6919618929358 63.96496176218432 L 702.6919618929358 103.62639715012358" stroke="rgb(132, 0, 0)" fill="none" stroke-width="1.96091247794px" stroke-linecap="round"/><text x="702.2534136218067" y="57.725053925069986" fill="rgb(15, 15, 15)" font-family="sans-serif" text-anchor="middle" dominant-baseline="ideographic" font-size="17.64821230146px">V3_3</text><rect class="component-overlay" x="680.2311115105547" y="497.1680992222076" width="44.05398718871106" height="47.39813713315243" fill="transparent"/><path d="M 702.6986387999232 497.1680992222076 L 702.6986387999232 529.4872115824969" stroke="rgb(132, 0, 0)" fill="none" stroke-width="1.96091247794px" stroke-linecap="round"/><path d="M 680.2311115105547 529.4839956860332 L 724.2850986992657 529.4839956860332" stroke="rgb(132, 0, 0)" fill="none" stroke-width="1.96091247794px" stroke-linecap="round"/><path d="M 685.7378635858546 537.0251160206966 L 718.778346623966 537.0251160206966" stroke="rgb(132, 0, 0)" fill="none" stroke-width="1.96091247794px" stroke-linecap="round"/><path d="M 696.7513579318918 544.56623635536 L 707.7648522779289 544.56623635536" stroke="rgb(132, 0, 0)" fill="none" stroke-width="1.96091247794px" stroke-linecap="round"/><text x="700.5872066801765" y="556.0504085234771" fill="rgb(15, 15, 15)" font-family="sans-serif" text-anchor="middle" dominant-baseline="hanging" font-size="17.64821230146px">GND</text></svg>