<svg xmlns="http://www.w3.org/2000/svg" width="1200" height="600" style="background-color: rgb(245, 241, 237)" data-real-to-screen-transform="matrix(137.3123398023,0,0,-137.3123398023,367.6274739107,318.8209447089)" data-software-used-string="@tscircuit/core@0.0.532"><style>
              .boundary { fill: rgb(245, 241, 237); }
              .schematic-boundary { fill: none; stroke: #fff; }
              .component { fill: none; stroke: rgb(132, 0, 0); }
              .chip { fill: rgb(255, 255, 194); stroke: rgb(132, 0, 0); }
              .component-pin { fill: none; stroke: rgb(132, 0, 0); }
              .trace:hover {
                filter: invert(1);
              }
              .trace:hover .trace-crossing-outline {
                opacity: 0;
              }
              .trace:hover .trace-junction {
                filter: invert(1);
              }
              .text { font-family: sans-serif; fill: rgb(0, 150, 0); }
              .pin-number { fill: rgb(169, 0, 0); }
              .port-label { fill: rgb(0, 100, 100); }
              .component-name { fill: rgb(0, 100, 100); }
            </style><rect class="boundary" x="0" y="0" width="1200" height="600"/><g data-circuit-json-type="schematic_component" data-schematic-component-id="schematic_component_0"><rect class="component chip" x="340.16500595024" y="154.04613694614002" width="54.92493592092001" height="329.54961552552004" stroke-width="2.746246796046px" fill="rgb(255, 255, 194)" stroke="rgb(132, 0, 0)"/><rect class="component-overlay" x="340.16500595024" y="154.04613694614002" width="54.92493592092001" height="329.54961552552004" fill="transparent"/><text x="340.16500595024" y="501.446356645959" fill="#006464" text-anchor="start" dominant-baseline="middle" font-family="sans-serif" font-size="24.716221164413998px" transform="rotate(0, 340.16500595024, 501.446356645959)"></text><text x="340.16500595024" y="136.19553277184102" fill="#006464" text-anchor="start" dominant-baseline="middle" font-family="sans-serif" font-size="24.716221164413998px" transform="rotate(0, 340.16500595024, 136.19553277184102)">U1</text><line class="component-pin" x1="447.268630996034" y1="181.50860490660003" x2="395.08994187116" y2="181.50860490660003" stroke-width="2.746246796046px"/><text class="pin-number" x="422.55240983162" y="178.76235811055403" style="font-family: sans-serif;" fill="rgb(169, 0, 0)" text-anchor="middle" dominant-baseline="auto" font-size="20.596850970345px" transform="">1</text></g><g data-circuit-json-type="schematic_component" data-schematic-component-id="schematic_component_1"><rect class="component-overlay" x="478.73585454053006" y="163.87570944705752" width="120.99923562800126" height="35.35450842183107" fill="transparent"/><path d="M 514.3902531124895 181.62148938115146 L 478.73585454053006 181.62148938115146" stroke="rgb(132, 0, 0)" fill="none" stroke-width="2.746246796046px" stroke-linecap="round"/><path d="M 599.7350901685313 181.38603991209234 L 564.2718578360448 181.38603991209234" stroke="rgb(132, 0, 0)" fill="none" stroke-width="2.746246796046px" stroke-linecap="round"/><path d="M 548.4704755584874 181.38711094834284 L 530.1896306298858 181.38711094834284" stroke="rgb(132, 0, 0)" fill="none" stroke-width="2.746246796046px" stroke-linecap="round"/><path d="M 548.7314101978136 164.16363969238887 L 548.7314101978136 198.76450933721506" stroke="rgb(132, 0, 0)" fill="none" stroke-width="2.746246796046px" stroke-linecap="round"/><path d="M 529.9181366716286 164.15041651406594 L 529.9181366716286 198.75128615889207" stroke="rgb(132, 0, 0)" fill="none" stroke-width="2.746246796046px" stroke-linecap="round"/><path d="M 529.2802110033751 199.2128066642017 L 529.2802110033751 199.2128066642017 L 527.134466053926 198.0556958567032 L 525.2041838501133 196.85615564910702 L 523.4821336187163 195.6185784098985 L 521.9610845865136 194.3473565075629 L 520.6338059802844 193.04688231058552 L 519.4930670268076 191.72154818745167 L 518.5316369528622 190.37574650664664 L 517.742284985227 189.0138696366557 L 517.1177803506812 187.64030994596416 L 516.6508922760034 186.2594598030573 L 516.3343899879729 184.87571157642046 L 516.1610427133686 183.49345763453886 L 516.1236196789692 182.11709034589785 L 516.214890111554 180.7510020789827 L 516.4276232379018 179.39958520227873 L 516.7545882847915 178.06723208427118 L 517.188554479002 176.7583350934454 L 517.7222910473125 175.47728659828667 L 518.3485672165018 174.22847896728024 L 519.0601522133488 173.01630456891144 L 519.8498152646326 171.8451557716656 L 520.710325597132 170.71942494402793 L 521.6344524376262 169.64350445448378 L 522.6149650128939 168.6217866715184 L 523.6446325497142 167.65866396361716 L 524.716224274866 166.7585286992653 L 525.8225094151283 165.9257732469481 L 526.9562571972799 165.16478997515088 L 528.1102368480999 164.47997125235892 L 529.2772175943674 163.87570944705752 L 529.2772175943674 163.87570944705752" stroke="rgb(132, 0, 0)" fill="none" stroke-width="2.746246796046px" stroke-linecap="round"/><path d="M 549.359092365518 199.2302178688886 L 549.359092365518 199.2302178688886 L 551.5048373149672 198.0731070613901 L 553.4351195187799 196.87356685379393 L 555.157169750177 195.63598961458538 L 556.6782187823795 194.3647677122498 L 558.0054973886088 193.06429351527242 L 559.1462363420856 191.73895939213855 L 560.107666416031 190.39315771133352 L 560.8970183836661 189.03128084134258 L 561.5215230182121 187.65772115065104 L 561.9884110928897 186.2768710077442 L 562.3049133809202 184.89312278110734 L 562.4782606555245 183.51086883922574 L 562.5156836899239 182.13450155058473 L 562.4244132573391 180.7684132836696 L 562.2116801309913 179.4169964069656 L 561.8847150841017 178.08464328895806 L 561.4507488898911 176.77574629813228 L 560.9170123215806 175.49469780297355 L 560.2907361523913 174.24589017196712 L 559.5791511555443 173.03371577359835 L 558.7894881042605 171.86256697635247 L 557.9289777717611 170.73683614871481 L 557.0048509312669 169.66091565917066 L 556.0243383559992 168.63919787620532 L 554.994670819179 167.67607516830404 L 553.9230790940271 166.77593990395218 L 552.8167939537649 165.94318445163498 L 551.6830461716132 165.18220117983776 L 550.5290665207932 164.4973824570458 L 549.3620857745258 163.89312065174443 L 549.3620857745258 163.89312065174443" stroke="rgb(132, 0, 0)" fill="none" stroke-width="2.746246796046px" stroke-linecap="round"/><text x="536.4344310692867" y="156.92353220421828" fill="rgb(15, 15, 15)" font-family="sans-serif" text-anchor="middle" dominant-baseline="auto" font-size="24.716221164413998px">JP1</text></g><g data-circuit-json-type="schematic_component" data-schematic-component-id="schematic_component_2"><rect class="component-overlay" x="605.8351702673978" y="247.01513181983276" width="72.66110399122772" height="145.32222171368952" fill="transparent"/><path d="M 642.1657222630114 247.01513181983276 L 642.1657222630114 308.777068839253" stroke="rgb(132, 0, 0)" fill="none" stroke-width="2.746246796046px" stroke-linecap="round"/><path d="M 642.1657222630114 330.5754027828681 L 642.1657222630114 392.3373535335223" stroke="rgb(132, 0, 0)" fill="none" stroke-width="2.746246796046px" stroke-linecap="round"/><path d="M 605.8351702673978 308.77706883925305 L 678.4962742586255 308.777068839253" stroke="rgb(132, 0, 0)" fill="none" stroke-width="2.746246796046px" stroke-linecap="round"/><path d="M 605.8351702673978 330.5754027828681 L 678.4962742586255 330.5754027828681" stroke="rgb(132, 0, 0)" fill="none" stroke-width="2.746246796046px" stroke-linecap="round"/><text x="673.2997024900416" y="291.46431007843995" fill="rgb(15, 15, 15)" font-family="sans-serif" text-anchor="start" dominant-baseline="auto" font-size="24.716221164413998px">C1</text><text x="673.2997024900416" y="346.17757933935997" fill="rgb(15, 15, 15)" font-family="sans-serif" text-anchor="start" dominant-baseline="hanging" font-size="24.716221164413998px">100nF</text></g><g data-circuit-json-type="schematic_component" data-schematic-component-id="schematic_component_3"><rect class="component-overlay" x="708.8194251191227" y="247.01513181983276" width="72.66110399122772" height="145.32222171368952" fill="transparent"/><path d="M 745.1499771147363 247.01513181983276 L 745.1499771147363 308.777068839253" stroke="rgb(132, 0, 0)" fill="none" stroke-width="2.746246796046px" stroke-linecap="round"/><path d="M 745.1499771147363 330.5754027828681 L 745.1499771147363 392.3373535335223" stroke="rgb(132, 0, 0)" fill="none" stroke-width="2.746246796046px" stroke-linecap="round"/><path d="M 708.8194251191227 308.77706883925305 L 781.4805291103504 308.777068839253" stroke="rgb(132, 0, 0)" fill="none" stroke-width="2.746246796046px" stroke-linecap="round"/><path d="M 708.8194251191227 330.5754027828681 L 781.4805291103504 330.5754027828681" stroke="rgb(132, 0, 0)" fill="none" stroke-width="2.746246796046px" stroke-linecap="round"/><text x="776.2839573417665" y="291.46431007843995" fill="rgb(15, 15, 15)" font-family="sans-serif" text-anchor="start" dominant-baseline="auto" font-size="24.716221164413998px">C2</text><text x="776.2839573417665" y="346.17757933935997" fill="rgb(15, 15, 15)" font-family="sans-serif" text-anchor="start" dominant-baseline="hanging" font-size="24.716221164413998px">100nF</text></g><g data-circuit-json-type="schematic_component" data-schematic-component-id="schematic_component_4"><rect class="component-overlay" x="811.8036799708476" y="247.01513181983276" width="72.66110399122772" height="145.32222171368952" fill="transparent"/><path d="M 848.1342319664612 247.01513181983276 L 848.1342319664612 308.777068839253" stroke="rgb(132, 0, 0)" fill="none" stroke-width="2.746246796046px" stroke-linecap="round"/><path d="M 848.1342319664612 330.5754027828681 L 848.1342319664612 392.3373535335223" stroke="rgb(132, 0, 0)" fill="none" stroke-width="2.746246796046px" stroke-linecap="round"/><path d="M 811.8036799708476 308.77706883925305 L 884.4647839620753 308.777068839253" stroke="rgb(132, 0, 0)" fill="none" stroke-width="2.746246796046px" stroke-linecap="round"/><path d="M 811.8036799708476 330.5754027828681 L 884.4647839620753 330.5754027828681" stroke="rgb(132, 0, 0)" fill="none" stroke-width="2.746246796046px" stroke-linecap="round"/><text x="879.2682121934914" y="291.46431007843995" fill="rgb(15, 15, 15)" font-family="sans-serif" text-anchor="start" dominant-baseline="auto" font-size="24.716221164413998px">C3</text><text x="879.2682121934914" y="346.17757933935997" fill="rgb(15, 15, 15)" font-family="sans-serif" text-anchor="start" dominant-baseline="hanging" font-size="24.716221164413998px">100nF</text></g><g class="trace" data-circuit-json-type="schematic_trace" data-schematic-trace-id="schematic_trace_0"><path d="M 600.4818495973122 181.5171457341357 L 848.2206632187499 181.5171457341357 L 848.2206632187499 147.18051995602502" class="trace-invisible-hover-outline" stroke="rgb(0, 150, 0)" fill="none" stroke-width="21.969974368368px" stroke-linecap="round" opacity="0" stroke-linejoin="round"/><path d="M 600.4818495973122 181.5171457341357 L 848.2206632187499 181.5171457341357 L 848.2206632187499 147.18051995602502" stroke="rgb(0, 150, 0)" fill="none" stroke-width="2.746246796046px" stroke-linecap="round" stroke-linejoin="round"/></g><g class="trace" data-circuit-json-type="schematic_trace" data-schematic-trace-id="schematic_trace_1"><path d="M 478.05394772983783 181.50006407906432 L 478.05394772983783 181.50006407906432 L 450.01487779208003 181.50860490660003" class="trace-invisible-hover-outline" stroke="rgb(0, 150, 0)" fill="none" stroke-width="21.969974368368px" stroke-linecap="round" opacity="0" stroke-linejoin="round"/><path d="M 478.05394772983783 181.50006407906432 L 478.05394772983783 181.50006407906432 L 450.01487779208003 181.50860490660003" stroke="rgb(0, 150, 0)" fill="none" stroke-width="2.746246796046px" stroke-linecap="round" stroke-linejoin="round"/></g><g class="trace" data-circuit-json-type="schematic_trace" data-schematic-trace-id="schematic_trace_2"><path d="M 642.214619187215 243.13310600511207 L 642.214619187215 181.5171457341357 L 600.4818495973122 181.5171457341357" class="trace-invisible-hover-outline" stroke="rgb(0, 150, 0)" fill="none" stroke-width="21.969974368368px" stroke-linecap="round" opacity="0" stroke-linejoin="round"/><path d="M 642.214619187215 243.13310600511207 L 642.214619187215 181.5171457341357 L 600.4818495973122 181.5171457341357" stroke="rgb(0, 150, 0)" fill="none" stroke-width="2.746246796046px" stroke-linecap="round" stroke-linejoin="round"/><circle cx="642.214619187215" cy="181.5171457341357" r="4.119370194068999" class="trace-junction" fill="rgb(0, 150, 0)"/></g><g class="trace" data-circuit-json-type="schematic_trace" data-schematic-trace-id="schematic_trace_3"><path d="M 745.1988740389401 243.13310600511207 L 745.1988740389401 181.5171457341357 L 600.4818495973122 181.5171457341357" class="trace-invisible-hover-outline" stroke="rgb(0, 150, 0)" fill="none" stroke-width="21.969974368368px" stroke-linecap="round" opacity="0" stroke-linejoin="round"/><path d="M 745.1988740389401 243.13310600511207 L 745.1988740389401 181.5171457341357 L 600.4818495973122 181.5171457341357" stroke="rgb(0, 150, 0)" fill="none" stroke-width="2.746246796046px" stroke-linecap="round" stroke-linejoin="round"/><circle cx="745.1988740389401" cy="181.5171457341357" r="4.119370194068999" class="trace-junction" fill="rgb(0, 150, 0)"/></g><g class="trace" data-circuit-json-type="schematic_trace" data-schematic-trace-id="schematic_trace_4"><path d="M 848.1831288906651 243.13310600511207 L 848.1831288906651 181.5171457341357 L 600.4818495973122 181.5171457341357" class="trace-invisible-hover-outline" stroke="rgb(0, 150, 0)" fill="none" stroke-width="21.969974368368px" stroke-linecap="round" opacity="0" stroke-linejoin="round"/><path d="M 848.1831288906651 243.13310600511207 L 848.1831288906651 181.5171457341357 L 600.4818495973122 181.5171457341357" stroke="rgb(0, 150, 0)" fill="none" stroke-width="2.746246796046px" stroke-linecap="round" stroke-linejoin="round"/><circle cx="848.1831288906651" cy="181.5171457341357" r="4.119370194068999" class="trace-junction" fill="rgb(0, 150, 0)"/></g><g class="trace" data-circuit-json-type="schematic_trace" data-schematic-trace-id="schematic_trace_5"><path d="M 642.2896878433849 394.508783412688 L 642.2521535153 394.508783412688 L 642.2521535153 456.13328451120003" class="trace-invisible-hover-outline" stroke="rgb(0, 150, 0)" fill="none" stroke-width="21.969974368368px" stroke-linecap="round" opacity="0" stroke-linejoin="round"/><path d="M 642.2896878433849 394.508783412688 L 642.2521535153 394.508783412688 L 642.2521535153 456.13328451120003" stroke="rgb(0, 150, 0)" fill="none" stroke-width="2.746246796046px" stroke-linecap="round" stroke-linejoin="round"/></g><g class="trace" data-circuit-json-type="schematic_trace" data-schematic-trace-id="schematic_trace_6"><path d="M 745.2739426951098 394.508783412688 L 745.236408367025 394.508783412688 L 745.236408367025 456.13328451120003" class="trace-invisible-hover-outline" stroke="rgb(0, 150, 0)" fill="none" stroke-width="21.969974368368px" stroke-linecap="round" opacity="0" stroke-linejoin="round"/><path d="M 745.2739426951098 394.508783412688 L 745.236408367025 394.508783412688 L 745.236408367025 456.13328451120003" stroke="rgb(0, 150, 0)" fill="none" stroke-width="2.746246796046px" stroke-linecap="round" stroke-linejoin="round"/></g><g class="trace" data-circuit-json-type="schematic_trace" data-schematic-trace-id="schematic_trace_7"><path d="M 848.2581975468348 394.508783412688 L 848.2206632187499 394.508783412688 L 848.2206632187499 456.13328451120003" class="trace-invisible-hover-outline" stroke="rgb(0, 150, 0)" fill="none" stroke-width="21.969974368368px" stroke-linecap="round" opacity="0" stroke-linejoin="round"/><path d="M 848.2581975468348 394.508783412688 L 848.2206632187499 394.508783412688 L 848.2206632187499 456.13328451120003" stroke="rgb(0, 150, 0)" fill="none" stroke-width="2.746246796046px" stroke-linecap="round" stroke-linejoin="round"/></g><rect class="component-overlay" x="835.3976817101424" y="88.89027828629426" width="25.441161662399963" height="56.23790278287572" fill="transparent"/><path d="M 847.9172853351911 88.89027828629426 L 835.3976817101424 115.12664317095765" stroke="rgb(132, 0, 0)" fill="none" stroke-width="2.746246796046px" stroke-linecap="round"/><path d="M 848.3192397474941 88.90395459533856 L 860.8388433725423 115.14038813617186" stroke="rgb(132, 0, 0)" fill="none" stroke-width="2.746246796046px" stroke-linecap="round"/><path d="M 848.0621635849163 89.58256590987558 L 848.0621635849163 145.12818106916998" stroke="rgb(132, 0, 0)" fill="none" stroke-width="2.746246796046px" stroke-linecap="round"/><text x="847.4479792202144" y="80.84361039907185" fill="rgb(15, 15, 15)" font-family="sans-serif" text-anchor="middle" dominant-baseline="ideographic" font-size="24.716221164413998px">V3_3</text><rect class="component-overlay" x="610.6373603992184" y="455.98450659102417" width="61.6973590260111" height="66.38082204322205" fill="transparent"/><path d="M 642.1030048518069 455.98450659102417 L 642.1030048518069 501.2472400220116" stroke="rgb(132, 0, 0)" fill="none" stroke-width="2.746246796046px" stroke-linecap="round"/><path d="M 610.6373603992184 501.2427361772661 L 672.3347194252295 501.2427361772661" stroke="rgb(132, 0, 0)" fill="none" stroke-width="2.746246796046px" stroke-linecap="round"/><path d="M 618.3495354266827 511.80403240575623 L 664.6225443977653 511.80403240575623" stroke="rgb(132, 0, 0)" fill="none" stroke-width="2.746246796046px" stroke-linecap="round"/><path d="M 633.773871750377 522.3653286342462 L 649.1982080740713 522.3653286342462" stroke="rgb(132, 0, 0)" fill="none" stroke-width="2.746246796046px" stroke-linecap="round"/><text x="639.1459561516963" y="538.4488465763953" fill="rgb(15, 15, 15)" font-family="sans-serif" text-anchor="middle" dominant-baseline="hanging" font-size="24.716221164413998px">GND</text><rect class="component-overlay" x="713.6216152509434" y="455.98450659102417" width="61.6973590260111" height="66.38082204322205" fill="transparent"/><path d="M 745.0872597035318 455.98450659102417 L 745.0872597035318 501.2472400220116" stroke="rgb(132, 0, 0)" fill="none" stroke-width="2.746246796046px" stroke-linecap="round"/><path d="M 713.6216152509434 501.2427361772661 L 775.3189742769545 501.2427361772661" stroke="rgb(132, 0, 0)" fill="none" stroke-width="2.746246796046px" stroke-linecap="round"/><path d="M 721.3337902784076 511.80403240575623 L 767.6067992494902 511.80403240575623" stroke="rgb(132, 0, 0)" fill="none" stroke-width="2.746246796046px" stroke-linecap="round"/><path d="M 736.7581266021019 522.3653286342462 L 752.1824629257962 522.3653286342462" stroke="rgb(132, 0, 0)" fill="none" stroke-width="2.746246796046px" stroke-linecap="round"/><text x="742.1302110034212" y="538.4488465763953" fill="rgb(15, 15, 15)" font-family="sans-serif" text-anchor="middle" dominant-baseline="hanging" font-size="24.716221164413998px">GND</text><rect class="component-overlay" x="816.6058701026683" y="455.98450659102417" width="61.6973590260111" height="66.38082204322205" fill="transparent"/><path d="M 848.0715145552567 455.98450659102417 L 848.0715145552567 501.2472400220116" stroke="rgb(132, 0, 0)" fill="none" stroke-width="2.746246796046px" stroke-linecap="round"/><path d="M 816.6058701026683 501.2427361772661 L 878.3032291286794 501.2427361772661" stroke="rgb(132, 0, 0)" fill="none" stroke-width="2.746246796046px" stroke-linecap="round"/><path d="M 824.3180451301325 511.80403240575623 L 870.5910541012151 511.80403240575623" stroke="rgb(132, 0, 0)" fill="none" stroke-width="2.746246796046px" stroke-linecap="round"/><path d="M 839.7423814538269 522.3653286342462 L 855.1667177775212 522.3653286342462" stroke="rgb(132, 0, 0)" fill="none" stroke-width="2.746246796046px" stroke-linecap="round"/><text x="845.1144658551461" y="538.4488465763953" fill="rgb(15, 15, 15)" font-family="sans-serif" text-anchor="middle" dominant-baseline="hanging" font-size="24.716221164413998px">GND</text></svg>