<svg xmlns="http://www.w3.org/2000/svg" width="1200" height="600" style="background-color: rgb(245, 241, 237)" data-real-to-screen-transform="matrix(133.0731014904,0,0,-133.0731014904,398.8291132194,194.4286728176)"><style>
              .boundary { fill: rgb(245, 241, 237); }
              .schematic-boundary { fill: none; stroke: #fff; }
              .component { fill: none; stroke: rgb(132, 0, 0); }
              .chip { fill: rgb(255, 255, 194); stroke: rgb(132, 0, 0); }
              .component-pin { fill: none; stroke: rgb(132, 0, 0); }
              .trace:hover {
                filter: invert(1);
              }
              .trace:hover .trace-crossing-outline {
                opacity: 0;
              }
              .trace:hover .trace-junction {
                filter: invert(1);
              }
              .text { font-family: sans-serif; fill: rgb(0, 150, 0); }
              .pin-number { fill: rgb(169, 0, 0); }
              .port-label { fill: rgb(0, 100, 100); }
              .component-name { fill: rgb(0, 100, 100); }
            </style><rect class="boundary" x="0" y="0" width="1200" height="600"/><g data-circuit-json-type="schematic_component" data-schematic-component-id="schematic_component_0"><rect class="component chip" x="388.576909237961" y="133.90768603300526" width="53.229240596160025" height="133.07310149040003" stroke-width="2.6614620298080003px" fill="rgb(255, 255, 194)" stroke="rgb(132, 0, 0)"/><rect class="component-overlay" x="388.576909237961" y="133.90768603300526" width="53.229240596160025" height="133.07310149040003" fill="transparent"/><text x="388.576909237961" y="284.2802907171573" fill="#006464" text-anchor="start" dominant-baseline="middle" font-family="sans-serif" font-size="23.953158268272px" transform="rotate(0, 388.576909237961, 284.2802907171573)"></text><text x="388.576909237961" y="116.60818283925325" fill="#006464" text-anchor="start" dominant-baseline="middle" font-family="sans-serif" font-size="23.953158268272px" transform="rotate(0, 388.576909237961, 116.60818283925325)">U1</text><line class="component-pin" x1="492.373928400473" y1="240.36616722532526" x2="441.806149834121" y2="240.36616722532526" stroke-width="2.6614620298080003px"/><circle class="component-pin" cx="495.035390430281" cy="240.36616722532526" r="2.6614620298080003" stroke-width="2.6614620298080003px"/><text class="pin-number" x="468.420770132201" y="237.70470519551725" style="font-family: sans-serif;" fill="rgb(169, 0, 0)" text-anchor="middle" dominant-baseline="auto" font-size="19.96096522356px" transform="">1</text><line class="component-pin" x1="492.373928400473" y1="200.44423677820527" x2="441.806149834121" y2="200.44423677820527" stroke-width="2.6614620298080003px"/><circle class="component-pin" cx="495.035390430281" cy="200.44423677820527" r="2.6614620298080003" stroke-width="2.6614620298080003px"/><text class="pin-number" x="468.420770132201" y="197.78277474839726" style="font-family: sans-serif;" fill="rgb(169, 0, 0)" text-anchor="middle" dominant-baseline="auto" font-size="19.96096522356px" transform="">2</text><line class="component-pin" x1="492.373928400473" y1="160.52230633108525" x2="441.806149834121" y2="160.52230633108525" stroke-width="2.6614620298080003px"/><circle class="component-pin" cx="495.035390430281" cy="160.52230633108525" r="2.6614620298080003" stroke-width="2.6614620298080003px"/><text class="pin-number" x="468.420770132201" y="157.86084430127724" style="font-family: sans-serif;" fill="rgb(169, 0, 0)" text-anchor="middle" dominant-baseline="auto" font-size="19.96096522356px" transform="">3</text></g><g data-circuit-json-type="schematic_component" data-schematic-component-id="schematic_component_1"><rect class="component-overlay" x="757.5811882601568" y="160.1947274287466" width="75.29603442156485" height="131.2804205109822" fill="transparent"/><path d="M 797.6444689556795 160.1947274287466 L 797.6444689556795 220.0510084791285" stroke="rgb(132, 0, 0)" fill="none" stroke-width="2.6614620298080003px" stroke-linecap="round"/><path d="M 797.6444689556795 231.61997139608926 L 797.6444689556795 291.4751479397288" stroke="rgb(132, 0, 0)" fill="none" stroke-width="2.6614620298080003px" stroke-linecap="round"/><path d="M 762.1246233204822 220.5584162151114 L 832.8772226817216 220.5584162151114" stroke="rgb(132, 0, 0)" fill="none" stroke-width="2.6614620298080003px" stroke-linecap="round"/><path d="M 832.4151662587266 239.3061805870037 L 832.4151662587266 239.3061805870037 L 832.2508077939688 239.20842353492333 L 832.0863265321475 239.11115392905484 L 831.9217223483071 239.01437303037227 L 831.7569951174918 238.91808209984976 L 831.592144714746 238.82228239846137 L 831.4271710151143 238.7269751871812 L 831.2620738936407 238.63216172698338 L 831.0968532253698 238.537843278842 L 830.9315088853459 238.44402110373113 L 830.7660407486132 238.35069646262485 L 830.6004486902164 238.25787061649729 L 830.4347325851995 238.16554482632253 L 830.2688923086072 238.0737203530747 L 830.1029277354835 237.9823984577278 L 829.936838740873 237.89158040125605 L 829.77062519982 237.80126744463345 L 829.6042869873688 237.71146084883415 L 829.4378239785638 237.6221618748322 L 829.2712360484494 237.53337178360172 L 829.1045230720699 237.44509183611683 L 828.9376849244696 237.35732329335158 L 828.770721480693 237.27006741628009 L 828.6036326157845 237.18332546587644 L 828.4364182047882 237.09709870311474 L 828.2690781227487 237.0113883889691 L 828.1016122447102 236.92619578441358 L 827.9340204457171 236.84152215042226 L 827.7663026008139 236.7573687479693 L 827.5984585850447 236.67373683802876 L 827.4304882734541 236.59062768157472 L 827.2623915410863 236.5080425395813 L 827.0941682629857 236.4259826730226 L 826.9258183141967 236.34444934287268 L 826.7573415697636 236.26344381010566 L 826.5887379047308 236.18296733569562 L 826.4200071941426 236.10302118061668 L 826.2511493130435 236.0236066058429 L 826.0821641364777 235.94472487234842 L 825.9130515394896 235.8663772411073 L 825.7438113971236 235.78856497309366 L 825.574443584424 235.71128932928156 L 825.4049479764352 235.63455157064513 L 825.2353244482016 235.55835295815845 L 825.0655728747674 235.48269475279562 L 824.8956931311772 235.40757821553072 L 824.725685092475 235.33300460733787 L 824.5555486337056 235.25897518919115 L 824.385283629913 235.18549122206463 L 824.2148899561417 235.11255396693247 L 824.0443674874361 235.0401646847687 L 823.8737160988405 234.96832463654746 L 823.7029356653992 234.89703508324283 L 823.5320260621568 234.8262972858289 L 823.3609871641572 234.75611250527976 L 823.1898188464453 234.6864820025695 L 823.018520984065 234.61740703867224 L 822.847093452061 234.54888887456207 L 822.6755361254775 234.4809287712131 L 822.5038488793588 234.41352798959934 L 822.3320315887493 234.346687790695 L 822.1600841286935 234.2804094354741 L 821.9880063742355 234.21469418491077 L 821.8157982004199 234.1495432999791 L 821.643459482291 234.08495804165315 L 821.470990094893 234.02093967090707 L 821.2983899132704 233.95748944871494 L 821.1256588124676 233.8946086360508 L 820.9527966675288 233.83229849388883 L 820.7798033534984 233.77056028320305 L 820.6066787454209 233.7093952649676 L 820.4334227183406 233.6488047001566 L 820.2600351473018 233.58878984974407 L 820.0865159073488 233.52935197470416 L 819.9128648735261 233.47049233601095 L 819.739081920878 233.41221219463853 L 819.5651669244487 233.354512811561 L 819.3911197592829 233.29739544775245 L 819.2169403004247 233.240861364187 L 819.0426284229185 233.1849118218387 L 818.8681840018087 233.1295480816817 L 818.6936069121397 233.07477140469004 L 818.5188970289556 233.02058305183783 L 818.3440542273012 232.9669842840992 L 818.1690783822204 232.9139763624482 L 817.9939693687579 232.86156054785897 L 817.8187270619578 232.80973810130558 L 817.6433513368647 232.75851028376212 L 817.4678420685228 232.70787835620268 L 817.2921991319765 232.65784357960138 L 817.1164224022702 232.6084072149323 L 816.9405117544483 232.55957052316953 L 816.7644670635549 232.51133476528716 L 816.5882882046346 232.4637012022593 L 816.4119750527317 232.41667109506008 L 816.2355274828905 232.37024570466352 L 816.0589453701555 232.32442629204377 L 815.8822285895708 232.27921411817488 L 815.705377016181 232.234610444031 L 815.5283905250304 232.19061653058617 L 815.3512689911634 232.14723363881455 L 815.3512689911634 232.14723363881455 L 815.1282296939269 232.0934275692661 L 814.905043090915 232.0404193815754 L 814.681710577559 231.9882073133488 L 814.4582335492898 231.93678960219285 L 814.2346134015388 231.88616448571398 L 814.010851529737 231.83633020151862 L 813.7869493293156 231.78728498721327 L 813.5629081957059 231.73902708040438 L 813.3387295243388 231.6915547186984 L 813.1144147106456 231.64486613970178 L 812.8899651500574 231.59895958102098 L 812.6653822380055 231.55383328026247 L 812.4406673699209 231.5094854750327 L 812.2158219412348 231.46591440293813 L 811.9908473473783 231.42311830158522 L 811.7657449837827 231.38109540858045 L 811.5405162458792 231.33984396153022 L 811.3151625290986 231.29936219804105 L 811.0896852288724 231.25964835571938 L 810.8640857406317 231.22070067217166 L 810.6383654598076 231.18251738500436 L 810.4125257818312 231.1450967318239 L 810.1865681021337 231.10843695023678 L 809.9604938161464 231.07253627784945 L 809.7343043193002 231.0373929522684 L 809.5080010070266 231.0030052111 L 809.2815852747564 230.96937129195078 L 809.0550585179209 230.9364894324272 L 808.8284221319512 230.9043578701357 L 808.6016775122786 230.8729748426827 L 808.3748260543342 230.84233858767473 L 808.1478691535491 230.8124473427182 L 807.9208082053544 230.78329934541958 L 807.6936446051815 230.75489283338536 L 807.4663797484613 230.72722604422194 L 807.2390150306252 230.7002972155358 L 807.0115518471041 230.67410458493345 L 806.7839915933292 230.64864639002127 L 806.5563356647319 230.62392086840578 L 806.3285854567431 230.5999262576934 L 806.1007423647941 230.5766607954906 L 805.8728077843159 230.55412271940384 L 805.6447831107398 230.53231026703958 L 805.4166697394969 230.51122167600425 L 805.1884690660185 230.4908551839044 L 804.9601824857355 230.47120902834635 L 804.7318113940792 230.45228144693667 L 804.5033571864808 230.43407067728177 L 804.2748212583713 230.41657495698811 L 804.0462050051821 230.3997925236622 L 803.817509822344 230.38372161491043 L 803.5887371052886 230.36836046833926 L 803.3598882494467 230.3537073215552 L 803.1309646502496 230.33976041216468 L 802.9019677031284 230.32651797777416 L 802.6728988035144 230.3139782559901 L 802.4437593468385 230.30213948441894 L 802.2145507285322 230.29099990066717 L 801.9852743440264 230.28055774234124 L 801.7559315887522 230.2708112470476 L 801.526523858141 230.2617586523927 L 801.2970525476238 230.253398195983 L 801.0675190526318 230.24572811542498 L 800.8379247685963 230.2387466483251 L 800.6082710909482 230.23245203228979 L 800.3785594151186 230.22684250492551 L 800.148791136539 230.22191630383875 L 799.9189676506404 230.21767166663597 L 799.6890903528539 230.21410683092355 L 799.4591606386107 230.21122003430807 L 799.2291799033419 230.2090095143959 L 798.9991495424787 230.20747350879353 L 798.7690709514522 230.2066102551074 L 798.5389455256937 230.20641799094398 L 798.3087746606344 230.20689495390974 L 798.0785597517053 230.20803938161112 L 797.8483021943374 230.2098495116546 L 797.6180033839622 230.2123235816466 L 797.3876647160107 230.2154598291936 L 797.157287585914 230.2192564919021 L 796.9268733891033 230.2237118073785 L 796.6964235210098 230.22882401322929 L 796.4659393770647 230.2345913470609 L 796.2354223526991 230.24101204647982 L 796.0048738433441 230.24808434909247 L 795.7742952444308 230.25580649250537 L 795.5436879513906 230.26417671432492 L 795.3130533596545 230.2731932521576 L 795.0823928646536 230.28285434360987 L 794.8517078618191 230.29315822628817 L 794.6209997465824 230.304103137799 L 794.3902699143742 230.3156873157488 L 794.159519760626 230.327908997744 L 793.9287506807689 230.3407664213911 L 793.697964070234 230.3542578242965 L 793.4671613244525 230.36838144406673 L 793.2363438388554 230.38313551830822 L 793.0055130088741 230.39851828462741 L 792.7746702299396 230.4145279806308 L 792.5438168974831 230.4311628439248 L 792.5438168974831 230.4311628439248 L 792.3481462936063 230.44870300579046 L 792.152420561855 230.46651426127752 L 791.9566421896851 230.48460065024574 L 791.7608136645521 230.502966212555 L 791.5649374739115 230.52161498806512 L 791.3690161052192 230.5405510166359 L 791.1730520459307 230.55977833812722 L 790.9770477835017 230.57930099239886 L 790.7810058053878 230.59912301931067 L 790.5849285990447 230.6192484587225 L 790.388818651928 230.63968135049413 L 790.1926784514933 230.66042573448544 L 789.9965104851964 230.68148565055623 L 789.8003172404926 230.70286513856635 L 789.604101204838 230.7245682383756 L 789.4078648656879 230.74659898984385 L 789.2116107104981 230.76896143283088 L 789.0153412267241 230.79165960719655 L 788.8190589018218 230.8146975528007 L 788.6227662232466 230.83807930950317 L 788.4264656784542 230.86180891716373 L 788.2301597549002 230.88589041564225 L 788.0338509400405 230.9103278447986 L 787.8375417213304 230.9351252444925 L 787.6412345862258 230.96028665458388 L 787.4449320221821 230.98581611493253 L 787.2486365166552 231.01171766539827 L 787.0523505571006 231.03799534584095 L 786.8560766309739 231.06465319612042 L 786.6598172257309 231.09169525609647 L 786.4635748288271 231.11912556562893 L 786.2673519277181 231.14694816457765 L 786.0711510098597 231.17516709280244 L 785.8749745627075 231.20378639016315 L 785.6788250737171 231.23281009651961 L 785.4827050303442 231.26224225173164 L 785.2866169200444 231.29208689565908 L 785.0905632302733 231.32234806816172 L 784.8945464484866 231.35302980909944 L 784.6985690621399 231.38413615833204 L 784.5026335586889 231.41567115571937 L 784.3067424255893 231.44763884112126 L 784.1108981502965 231.48004325439751 L 783.9151032202664 231.51288843540797 L 783.7193601229544 231.54617842401248 L 783.5236713458164 231.57991726007086 L 783.328039376308 231.61410898344292 L 783.1324667018846 231.6487576339885 L 782.9369558100021 231.68386725156745 L 782.7415091881161 231.7194418760396 L 782.5461293236821 231.75548554726475 L 782.3508187041559 231.79200230510276 L 782.155579816993 231.82899618941343 L 781.9604151496492 231.86647124005663 L 781.76532718958 231.90443149689213 L 781.5703184242411 231.94288099977982 L 781.3753913410883 231.98182378857948 L 781.1805484275769 232.02126390315098 L 780.9857921711628 232.06120538335415 L 780.7911250593016 232.10165226904877 L 780.596549579449 232.14260860009472 L 780.4020682190603 232.1840784163518 L 780.2076834655916 232.2260657576799 L 780.0133978064983 232.26857466393875 L 779.8192137292361 232.31160917498823 L 779.6251337212606 232.35517333068822 L 779.4311602700275 232.39927117089846 L 779.2372958629924 232.44390673547883 L 779.043542987611 232.48908406428913 L 778.8499041313388 232.53480719718925 L 778.6563817816316 232.58108017403896 L 778.4629784259449 232.6279070346981 L 778.2696965517346 232.6752918190265 L 778.076538646456 232.72323856688405 L 777.883507197565 232.77175131813047 L 777.6906046925171 232.82083411262568 L 777.497833618768 232.87049099022948 L 777.3051964637734 232.92072599080169 L 777.1126957149888 232.97154315420212 L 776.92033385987 233.02294652029067 L 776.7281133858725 233.0749401289271 L 776.536036780452 233.12752801997127 L 776.3441065310642 233.18071423328303 L 776.1523251251646 233.23450280872214 L 775.960695050209 233.2888977861485 L 775.769218793653 233.34390320542192 L 775.5778988429521 233.39952310640223 L 775.3867376855621 233.45576152894924 L 775.1957378089387 233.51262251292277 L 775.0049017005374 233.5701100981827 L 774.8142318478139 233.62822832458883 L 774.6237307382238 233.68698123200102 L 774.4334008592227 233.74637286027902 L 774.2432446982664 233.80640724928276 L 774.0532647428104 233.867088438872 L 773.8634634803104 233.92842046890658 L 773.6738433982221 233.99040737924636 L 773.4844069840011 234.05305320975114 L 773.295156725103 234.11636200028076 L 773.1060951089834 234.18033779069503 L 773.1060951089834 234.18033779069503 L 772.9954044178993 234.2181558813178 L 772.8847717520637 234.2562455249037 L 772.7741977768951 234.29460670947608 L 772.6636831578124 234.33323942305842 L 772.5532285602344 234.37214365367407 L 772.4428346495797 234.41131938934654 L 772.3325020912671 234.4507666180992 L 772.2222315507153 234.49048532795547 L 772.1120236933431 234.5304755069388 L 772.0018791845691 234.5707371430726 L 771.8917986898122 234.61127022438023 L 771.7817828744911 234.6520747388852 L 771.6718324040245 234.69315067461088 L 771.5619479438311 234.7344980195807 L 771.4521301593296 234.77611676181812 L 771.3423797159389 234.8180068893465 L 771.2326972790778 234.8601683901893 L 771.1230835141647 234.90260125236992 L 771.0135390866186 234.94530546391178 L 770.9040646618581 234.9882810128383 L 770.7946609053021 235.03152788717293 L 770.6853284823692 235.07504607493908 L 770.5760680584781 235.11883556416015 L 770.4668802990477 235.1628963428596 L 770.3577658694966 235.2072283990608 L 770.2487254352436 235.25183172078718 L 770.1397596617074 235.29670629606218 L 770.0308692143068 235.34185211290924 L 769.9220547584605 235.38726915935175 L 769.8133169595872 235.43295742341314 L 769.7046564831056 235.4789168931168 L 769.5960739944346 235.52514755648622 L 769.4875701589929 235.57164940154476 L 769.379145642199 235.61842241631587 L 769.2708011094719 235.66546658882297 L 769.1625372262303 235.71278190708946 L 769.0543546578928 235.76036835913877 L 768.9462540698783 235.80822593299433 L 768.8382361276053 235.85635461667957 L 768.7303014964929 235.90475439821788 L 768.6224508419596 235.95342526563272 L 768.514684829424 236.00236720694747 L 768.4070041243052 236.05158021018556 L 768.2994093920217 236.10106426337046 L 768.1919012979922 236.1508193545255 L 768.0844805076356 236.2008454716742 L 767.9771476863706 236.2511426028399 L 767.8699034996158 236.3017107360461 L 767.76274861279 236.35254985931613 L 767.655683691312 236.40365996067345 L 767.5487094006005 236.45504102814152 L 767.4418264060743 236.50669304974372 L 767.335035373152 236.55861601350347 L 767.2283369672525 236.61080990744418 L 767.1217318537944 236.6632747195893 L 767.0152206981965 236.71601043796227 L 766.9088041658774 236.76901705058646 L 766.8024829222561 236.8222945454853 L 766.6962576327511 236.87584291068225 L 766.5901289627813 236.9296621342007 L 766.4840975777653 236.98375220406407 L 766.3781641431219 237.0381131082958 L 766.27232932427 237.09274483491927 L 766.166593786628 237.14764737195793 L 766.060958195615 237.20282070743522 L 765.9554232166494 237.25826482937453 L 765.84998951515 237.3139797257993 L 765.7446577565358 237.36996538473292 L 765.6394286062252 237.42622179419885 L 765.5343027296373 237.4827489422205 L 765.4292807921905 237.53954681682126 L 765.3243634593038 237.5966154060246 L 765.2195513963957 237.6539546978539 L 765.114845268885 237.7115646803326 L 765.0102457421906 237.76944534148413 L 764.905753481731 237.82759666933188 L 764.8013691529252 237.8860186518993 L 764.6970934211917 237.9447112772098 L 764.5929269519493 238.00367453328678 L 764.4888704106169 238.0629084081537 L 764.384924462613 238.12241288983395 L 764.2810897733564 238.182187966351 L 764.177367008266 238.2422336257282 L 764.0737568327602 238.302549855989 L 763.9702599122581 238.36313664515686 L 763.8668769121782 238.42399398125514 L 763.7636084979395 238.4851218523073 L 763.6604553349604 238.54652024633674 L 763.5574180886598 238.6081891513669 L 763.4544974244566 238.67012855542117 L 763.3516940077692 238.73233844652302 L 763.2490085040165 238.79481881269584 L 763.1464415786173 238.85756964196304 L 763.0439938969903 238.92059092234805 L 762.9416661245542 238.9838826418743 L 762.8394589267277 239.0474447885652 L 762.7373729689297 239.1112773504442 L 762.6354089165787 239.17538031553468 L 762.5335674350936 239.23975367186006 L 762.4318491898931 239.30439740744382" stroke="rgb(132, 0, 0)" fill="none" stroke-width="2.6614620298080003px" stroke-linecap="round"/><path d="M 767.2624959251659 185.1700601114968 L 767.2624959251659 203.86246607316917 L 766.6007233914542 203.86246607316917 L 766.6007233914542 185.1700601114968" stroke="rgb(132, 0, 0)" fill="none" stroke-width="2.6614620298080003px" stroke-linecap="round"/><path d="M 757.5811882601568 194.1778448879328 L 776.2735942218291 194.1778448879328 L 776.2735942218291 194.83961742164456 L 757.5811882601568 194.83961742164456" stroke="rgb(132, 0, 0)" fill="none" stroke-width="2.6614620298080003px" stroke-linecap="round"/><text x="827.8172510706507" y="207.01975094168543" fill="rgb(15, 15, 15)" font-family="sans-serif" text-anchor="start" dominant-baseline="auto" font-size="23.953158268272px">C1</text><text x="827.8172510706507" y="246.74437566880545" fill="rgb(15, 15, 15)" font-family="sans-serif" text-anchor="start" dominant-baseline="hanging" font-size="23.953158268272px">1µF</text><circle cx="797.7646073517053" cy="291.4751479397288" r="2.6614620298080003px" stroke-width="2.6614620298080003px" fill="none" stroke="rgb(132, 0, 0)"/><circle cx="797.6918562871203" cy="160.1947274287466" r="2.6614620298080003px" stroke-width="2.6614620298080003px" fill="none" stroke="rgb(132, 0, 0)"/></g><g data-circuit-json-type="schematic_component" data-schematic-component-id="schematic_component_2"><rect class="component-overlay" x="621.307130757339" y="164.6646067421214" width="35.20893364087499" height="140.8356946415699" fill="transparent"/><path d="M 638.9115975777764 305.5003013836913 L 638.9115975777764 270.2913810501264" stroke="rgb(132, 0, 0)" fill="none" stroke-width="2.6614620298080003px" stroke-linecap="round"/><path d="M 638.9115975777764 199.87354038299642 L 638.9115975777765 164.6646067421214" stroke="rgb(132, 0, 0)" fill="none" stroke-width="2.6614620298080003px" stroke-linecap="round"/><path d="M 621.307130757339 235.0824740238716 L 621.307130757339 199.87355369030672 L 656.516064398214 199.87355369030672 L 656.516064398214 270.2914076647469 L 621.307130757339 270.2914076647469 L 621.307130757339 235.08247402387184" stroke="rgb(132, 0, 0)" fill="none" stroke-width="2.6614620298080003px" stroke-linecap="round"/><text x="675.588773322981" y="216.095031688885" fill="rgb(15, 15, 15)" font-family="sans-serif" text-anchor="start" dominant-baseline="middle" font-size="23.953158268272px">R3</text><text x="675.588773322981" y="258.678424165813" fill="rgb(15, 15, 15)" font-family="sans-serif" text-anchor="start" dominant-baseline="middle" font-size="23.953158268272px">10kΩ</text><circle cx="638.9589982165277" cy="308.4199119230807" r="2.6614620298080003px" stroke-width="2.6614620298080003px" fill="none" stroke="rgb(132, 0, 0)"/><circle cx="639.031722666492" cy="161.6959853794533" r="2.6614620298080003px" stroke-width="2.6614620298080003px" fill="none" stroke="rgb(132, 0, 0)"/></g><g class="trace" data-circuit-json-type="schematic_trace" data-schematic-trace-id="schematic_trace_0"><path d="M 797.6918562871203 160.1947274287466 L 798.0484176906 160.1947274287466 L 798.0484176906 127.89212207239999" class="trace-invisible-hover-outline" stroke="rgb(0, 150, 0)" fill="none" stroke-width="21.291696238464002px" stroke-linecap="round" opacity="0" stroke-linejoin="round"/><path d="M 797.6918562871203 160.1947274287466 L 798.0484176906 160.1947274287466 L 798.0484176906 127.89212207239999" stroke="rgb(0, 150, 0)" fill="none" stroke-width="2.6614620298080003px" stroke-linecap="round" stroke-linejoin="round"/></g><g class="trace" data-circuit-json-type="schematic_trace" data-schematic-trace-id="schematic_trace_1"><path d="M 638.9589982165277 308.4199119230807 L 664.9753162002 308.4199119230807 L 664.9753162002 304.21398154717997" class="trace-invisible-hover-outline" stroke="rgb(0, 150, 0)" fill="none" stroke-width="21.291696238464002px" stroke-linecap="round" opacity="0" stroke-linejoin="round"/><path d="M 638.9589982165277 308.4199119230807 L 664.9753162002 308.4199119230807 L 664.9753162002 304.21398154717997" stroke="rgb(0, 150, 0)" fill="none" stroke-width="2.6614620298080003px" stroke-linecap="round" stroke-linejoin="round"/></g><g class="trace" data-circuit-json-type="schematic_trace" data-schematic-trace-id="schematic_trace_2"><path d="M 639.031722666492 161.6959853794533 L 495.035390430281 161.6959853794533" class="trace-invisible-hover-outline" stroke="rgb(0, 150, 0)" fill="none" stroke-width="21.291696238464002px" stroke-linecap="round" opacity="0" stroke-linejoin="round"/><path d="M 639.031722666492 161.6959853794533 L 495.035390430281 161.6959853794533" stroke="rgb(0, 150, 0)" fill="none" stroke-width="2.6614620298080003px" stroke-linecap="round" stroke-linejoin="round"/></g><g class="trace" data-circuit-json-type="schematic_trace" data-schematic-trace-id="schematic_trace_3"><path d="M 639.031722666492 161.6959853794533 L 797.6918562871203 161.6959853794533 L 797.6918562871203 160.1947274287466" class="trace-invisible-hover-outline" stroke="rgb(0, 150, 0)" fill="none" stroke-width="21.291696238464002px" stroke-linecap="round" opacity="0" stroke-linejoin="round"/><path d="M 639.031722666492 161.6959853794533 L 797.6918562871203 161.6959853794533 L 797.6918562871203 160.1947274287466" stroke="rgb(0, 150, 0)" fill="none" stroke-width="2.6614620298080003px" stroke-linecap="round" stroke-linejoin="round"/></g><g class="trace" data-circuit-json-type="schematic_trace" data-schematic-trace-id="schematic_trace_4"><path d="M 638.9589982165277 308.4199119230807 L 638.9589982165277 380.0929237902453 L 548.2646310264411 380.0929237902453 L 548.2646310264411 200.44423677820527 L 495.035390430281 200.44423677820527" class="trace-invisible-hover-outline" stroke="rgb(0, 150, 0)" fill="none" stroke-width="21.291696238464002px" stroke-linecap="round" opacity="0" stroke-linejoin="round"/><path d="M 638.9589982165277 308.4199119230807 L 638.9589982165277 380.0929237902453 L 548.2646310264411 380.0929237902453 L 548.2646310264411 200.44423677820527 L 495.035390430281 200.44423677820527" stroke="rgb(0, 150, 0)" fill="none" stroke-width="2.6614620298080003px" stroke-linecap="round" stroke-linejoin="round"/><circle cx="638.9589982165277" cy="308.4199119230807" r="3.992193044712" class="trace-junction" fill="rgb(0, 150, 0)"/></g><g class="trace" data-circuit-json-type="schematic_trace" data-schematic-trace-id="schematic_trace_5"><path d="M 797.7646073517053 291.4751479397288 L 798.0484176906 291.4751479397288 L 798.0484176906 460.5748757984" class="trace-invisible-hover-outline" stroke="rgb(0, 150, 0)" fill="none" stroke-width="21.291696238464002px" stroke-linecap="round" opacity="0" stroke-linejoin="round"/><path d="M 797.7646073517053 291.4751479397288 L 798.0484176906 291.4751479397288 L 798.0484176906 460.5748757984" stroke="rgb(0, 150, 0)" fill="none" stroke-width="2.6614620298080003px" stroke-linecap="round" stroke-linejoin="round"/></g><g class="trace" data-circuit-json-type="schematic_trace" data-schematic-trace-id="schematic_trace_6"><path d="M 495.035390430281 240.36616722532526 L 531.9022147098001 240.36616722532526 L 531.9022147098001 460.5748757984" class="trace-invisible-hover-outline" stroke="rgb(0, 150, 0)" fill="none" stroke-width="21.291696238464002px" stroke-linecap="round" opacity="0" stroke-linejoin="round"/><path d="M 495.035390430281 240.36616722532526 L 531.9022147098001 240.36616722532526 L 531.9022147098001 460.5748757984" stroke="rgb(0, 150, 0)" fill="none" stroke-width="2.6614620298080003px" stroke-linecap="round" stroke-linejoin="round"/></g><rect class="component-overlay" x="785.6213195713682" y="71.40147267567258" width="24.655717707590384" height="54.50167228530117" fill="transparent"/><path d="M 797.7544059801673 71.40147267567258 L 785.6213195713682 96.82784332861442" stroke="rgb(132, 0, 0)" fill="none" stroke-width="2.6614620298080003px" stroke-linecap="round"/><path d="M 798.14395087016 71.41472675658102 L 810.2770372789586 96.84116394607362" stroke="rgb(132, 0, 0)" fill="none" stroke-width="2.6614620298080003px" stroke-linecap="round"/><path d="M 797.8948114095497 72.0723873314568 L 797.8948114095497 125.90314496097375" stroke="rgb(132, 0, 0)" fill="none" stroke-width="2.6614620298080003px" stroke-linecap="round"/><text x="797.2995887338931" y="63.60322924061347" fill="rgb(15, 15, 15)" font-family="sans-serif" text-anchor="middle" dominant-baseline="ideographic" font-size="23.953158268272px">VIN</text><path class="net-label" d="
    M 664.9753162002,304.21398154717997
    L 672.1612636806816,289.8420865862168
    L 718.6836199617255,289.8420865862168
    L 718.6836199617255,318.58587650814314
    L 672.1612636806816,318.58587650814314
    Z
  " fill="rgba(255, 255, 255, 0.6)" stroke="rgb(132, 0, 0)" stroke-width="2.6614620298080003px"/><text class="net-label-text" x="676.9518953343361" y="304.21398154717997" fill="rgb(132, 0, 0)" text-anchor="start" dominant-baseline="central" font-family="sans-serif" font-variant-numeric="tabular-nums" font-size="23.953158268272px" transform="">EN</text><rect class="component-overlay" x="767.4096668034504" y="460.43069109293515" width="59.79257895669832" height="64.3314496096433" fill="transparent"/><path d="M 797.9038736877612 460.43069109293515 L 797.9038736877612 504.29602998576075" stroke="rgb(132, 0, 0)" fill="none" stroke-width="2.6614620298080003px" stroke-linecap="round"/><path d="M 767.4096668034504 504.2916651880319 L 827.2022457601487 504.2916651880319" stroke="rgb(132, 0, 0)" fill="none" stroke-width="2.6614620298080003px" stroke-linecap="round"/><path d="M 774.8837441632791 514.5269029453052 L 819.72816840032 514.5269029453052" stroke="rgb(132, 0, 0)" fill="none" stroke-width="2.6614620298080003px" stroke-linecap="round"/><path d="M 789.8318855756261 524.7621407025784 L 804.7800269879732 524.7621407025784" stroke="rgb(132, 0, 0)" fill="none" stroke-width="2.6614620298080003px" stroke-linecap="round"/><text x="795.038117832545" y="540.3491128459402" fill="rgb(15, 15, 15)" font-family="sans-serif" text-anchor="middle" dominant-baseline="hanging" font-size="23.953158268272px">GND</text><rect class="component-overlay" x="501.2634638226503" y="460.43069109293515" width="59.79257895669838" height="64.3314496096433" fill="transparent"/><path d="M 531.7576707069612 460.43069109293515 L 531.7576707069612 504.29602998576075" stroke="rgb(132, 0, 0)" fill="none" stroke-width="2.6614620298080003px" stroke-linecap="round"/><path d="M 501.2634638226503 504.2916651880319 L 561.0560427793487 504.2916651880319" stroke="rgb(132, 0, 0)" fill="none" stroke-width="2.6614620298080003px" stroke-linecap="round"/><path d="M 508.737541182479 514.5269029453052 L 553.58196541952 514.5269029453052" stroke="rgb(132, 0, 0)" fill="none" stroke-width="2.6614620298080003px" stroke-linecap="round"/><path d="M 523.6856825948261 524.7621407025784 L 538.6338240071732 524.7621407025784" stroke="rgb(132, 0, 0)" fill="none" stroke-width="2.6614620298080003px" stroke-linecap="round"/><text x="528.891914851745" y="540.3491128459402" fill="rgb(15, 15, 15)" font-family="sans-serif" text-anchor="middle" dominant-baseline="hanging" font-size="23.953158268272px">GND</text></svg>