<svg xmlns="http://www.w3.org/2000/svg" width="1200" height="600" style="background-color: rgb(245, 241, 237)" data-real-to-screen-transform="matrix(103.6675267232,0,0,-103.6675267232,441.3560767888,149.2812384814)" data-software-used-string="@tscircuit/core@0.0.586"><style>
              .boundary { fill: rgb(245, 241, 237); }
              .schematic-boundary { fill: none; stroke: #fff; }
              .component { fill: none; stroke: rgb(132, 0, 0); }
              .chip { fill: rgb(255, 255, 194); stroke: rgb(132, 0, 0); }
              .component-pin { fill: none; stroke: rgb(132, 0, 0); }
              .trace:hover {
                filter: invert(1);
              }
              .trace:hover .trace-crossing-outline {
                opacity: 0;
              }
              .trace:hover .trace-junction {
                filter: invert(1);
              }
              .text { font-family: sans-serif; fill: rgb(0, 150, 0); }
              .pin-number { fill: rgb(169, 0, 0); }
              .port-label { fill: rgb(0, 100, 100); }
              .component-name { fill: rgb(0, 100, 100); }
            </style><rect class="boundary" x="0" y="0" width="1200" height="600"/><g data-circuit-json-type="schematic_component" data-schematic-component-id="schematic_component_0"><rect class="component chip" x="420.62257144416003" y="118.18098046444001" width="41.46701068927996" height="62.200516033919996" stroke-width="2.073350534464px" fill="rgb(255, 255, 194)" stroke="rgb(132, 0, 0)"/><rect class="component-overlay" x="420.62257144416003" y="118.18098046444001" width="41.46701068927996" height="62.200516033919996" fill="transparent"/><text x="472.45633480576004" y="81.89734611132" fill="#006464" text-anchor="start" dominant-baseline="middle" font-family="sans-serif" font-size="18.660154810176px" transform="rotate(0, 472.45633480576004, 81.89734611132)"></text><text x="472.45633480576004" y="61.163840766679996" fill="#006464" text-anchor="start" dominant-baseline="middle" font-family="sans-serif" font-size="18.660154810176px" transform="rotate(0, 472.45633480576004, 61.163840766679996)">U1</text><line class="component-pin" x1="501.483242288256" y1="159.64799115372" x2="462.08958213344" y2="159.64799115372" stroke-width="2.073350534464px"/><g data-schematic-port-id="source_port_0"><rect x="501.483242288256" y="157.574640619256" width="4.146701068928" height="4.146701068928" opacity="0"/></g><text class="pin-number" x="482.82308747808" y="157.574640619256" style="font-family: sans-serif;" fill="rgb(169, 0, 0)" text-anchor="middle" dominant-baseline="auto" font-size="15.550129008479999px" transform="">2</text><line class="component-pin" x1="501.483242288256" y1="138.91448580908002" x2="462.08958213344" y2="138.91448580908002" stroke-width="2.073350534464px"/><g data-schematic-port-id="source_port_1"><rect x="501.483242288256" y="136.84113527461602" width="4.146701068928" height="4.146701068928" opacity="0"/></g><text class="pin-number" x="482.82308747808" y="136.84113527461602" style="font-family: sans-serif;" fill="rgb(169, 0, 0)" text-anchor="middle" dominant-baseline="auto" font-size="15.550129008479999px" transform="">3</text><line class="component-pin" x1="441.3560767888" y1="219.775156653176" x2="441.3560767888" y2="180.38149649836" stroke-width="2.073350534464px"/><g data-schematic-port-id="source_port_2"><rect x="439.282726254336" y="219.775156653176" width="4.146701068928" height="4.146701068928" opacity="0"/></g><text class="pin-number" x="439.282726254336" y="201.11500184300002" style="font-family: sans-serif;" fill="rgb(169, 0, 0)" text-anchor="middle" dominant-baseline="auto" font-size="15.550129008479999px" transform="rotate(-90 439.282726254336 201.11500184300002)">1</text></g><g data-circuit-json-type="schematic_component" data-schematic-component-id="schematic_component_1"><rect class="component-overlay" x="427.5764699190964" y="353.6117478345448" width="27.42870669001502" height="109.7147956598024" fill="transparent"/><path d="M 441.2908232641039 463.3265434943472 L 441.2908232641039 435.89784717108483" stroke="rgb(132, 0, 0)" fill="none" stroke-width="2.073350534464px" stroke-linecap="round"/><path d="M 441.2908232641039 381.0404545245599 L 441.2908232641039 353.6117478345448" stroke="rgb(132, 0, 0)" fill="none" stroke-width="2.073350534464px" stroke-linecap="round"/><path d="M 427.5764699190964 408.469161214575 L 427.5764699190964 381.04046489131264 L 455.0051766091114 381.04046489131264 L 455.0051766091114 435.89786790459027 L 427.5764699190964 435.89786790459027 L 427.5764699190964 408.46916121457525" stroke="rgb(132, 0, 0)" fill="none" stroke-width="2.073350534464px" stroke-linecap="round"/><text x="469.8633300600907" y="393.677432731344" fill="rgb(15, 15, 15)" font-family="sans-serif" text-anchor="start" dominant-baseline="middle" font-size="18.660154810176px">R14</text><text x="469.8633300600907" y="426.85104128276805" fill="rgb(15, 15, 15)" font-family="sans-serif" text-anchor="start" dominant-baseline="middle" font-size="18.660154810176px">715Ω</text></g><g data-circuit-json-type="schematic_component" data-schematic-component-id="schematic_component_2"><rect class="component-overlay" x="531.2439966422965" y="182.5603287412648" width="27.42870669001502" height="109.7147956598024" fill="transparent"/><path d="M 544.958349987304 292.2751244010672 L 544.958349987304 264.84642807780483" stroke="rgb(132, 0, 0)" fill="none" stroke-width="2.073350534464px" stroke-linecap="round"/><path d="M 544.958349987304 209.98903543127986 L 544.958349987304 182.5603287412648" stroke="rgb(132, 0, 0)" fill="none" stroke-width="2.073350534464px" stroke-linecap="round"/><path d="M 531.2439966422965 237.41774212129505 L 531.2439966422965 209.98904579803266 L 558.6727033323115 209.98904579803266 L 558.6727033323115 264.84644881131027 L 531.2439966422965 264.84644881131027 L 531.2439966422965 237.41774212129522" stroke="rgb(132, 0, 0)" fill="none" stroke-width="2.073350534464px" stroke-linecap="round"/><text x="573.5308567832907" y="222.62601363806402" fill="rgb(15, 15, 15)" font-family="sans-serif" text-anchor="start" dominant-baseline="middle" font-size="18.660154810176px">R15</text><text x="573.5308567832907" y="255.79962218948802" fill="rgb(15, 15, 15)" font-family="sans-serif" text-anchor="start" dominant-baseline="middle" font-size="18.660154810176px">240Ω</text></g><g data-circuit-json-type="schematic_component" data-schematic-component-id="schematic_component_3"><rect class="component-overlay" x="617.4155030466588" y="160.34626451346946" width="58.657636841143926" height="102.27098000370108" fill="transparent"/><path d="M 648.6258767105039 160.34626451346946 L 648.6258767105039 206.97591803356482" stroke="rgb(132, 0, 0)" fill="none" stroke-width="2.073350534464px" stroke-linecap="round"/><path d="M 648.6258767105039 215.98845143754698 L 648.6258767105039 262.61724451717055" stroke="rgb(132, 0, 0)" fill="none" stroke-width="2.073350534464px" stroke-linecap="round"/><path d="M 620.9549612110527 207.3712023129604 L 676.0731398878028 207.3712023129604" stroke="rgb(132, 0, 0)" fill="none" stroke-width="2.073350534464px" stroke-linecap="round"/><path d="M 675.7131855015143 221.97621521381032 L 675.7131855015143 221.97621521381032 L 675.5851458349955 221.90005983984352 L 675.45701050626 221.82428419959172 L 675.328779417964 221.74888927538763 L 675.2004524727638 221.67387604956406 L 675.0720295733156 221.59924550445368 L 674.9435106222754 221.52499862238932 L 674.8148955222996 221.45113638570365 L 674.6861841760443 221.3776597767295 L 674.5573764861657 221.30456977779957 L 674.42847235532 221.23186737124664 L 674.2994716861633 221.1595535394034 L 674.170374381352 221.08762926460267 L 674.0411803435421 221.01609552917716 L 673.9118894753899 220.94495331545963 L 673.7825016795516 220.87420360578284 L 673.6530168586833 220.80384738247952 L 673.5234349154413 220.73388562788242 L 673.3937557524816 220.6643193243243 L 673.2639792724607 220.59514945413792 L 673.1341053780345 220.52637699965604 L 673.0041339718593 220.45800294321137 L 672.8740649565914 220.39002826713667 L 672.7438982348868 220.3224539537647 L 672.6136337094019 220.2552809854282 L 672.4832712827928 220.18851034445993 L 672.3528108577156 220.12214301319264 L 672.2222523368265 220.0561799739591 L 672.0915956227818 219.990622209092 L 671.9608406182377 219.92547070092414 L 671.8299872258503 219.86072643178827 L 671.699035348276 219.79639038401712 L 671.5679848881706 219.73246353994344 L 671.4368357481907 219.66894688189996 L 671.3055878309922 219.60584139221947 L 671.1742410392314 219.54314805323472 L 671.0427952755646 219.48086784727843 L 670.9112504426479 219.41900175668337 L 670.7796064431374 219.35755076378229 L 670.6478631796894 219.29651585090792 L 670.51602055496 219.23589800039304 L 670.3840784716056 219.17569819457037 L 670.2520368322821 219.11591741577269 L 670.119895539646 219.0565566463327 L 669.9876544963532 218.9976168685832 L 669.8553136050601 218.93909906485692 L 669.7228727684228 218.8810042174866 L 669.5903318890976 218.82333330880502 L 669.4576908697405 218.7660873211449 L 669.3249496130079 218.70926723683903 L 669.1921080215558 218.6528740382201 L 669.0591659980406 218.59690870762088 L 668.9261234451183 218.54137222737415 L 668.7929802654452 218.48626557981262 L 668.6597363616773 218.43158974726907 L 668.5263916364712 218.37734571207625 L 668.3929459924827 218.32353445656688 L 668.2593993323682 218.27015696307373 L 668.1257515587838 218.21721421392957 L 667.9920025743858 218.1647071914671 L 667.8581522818303 218.11263687801912 L 667.7242005837734 218.06100425591836 L 667.5901473828715 218.00981030749753 L 667.4559925817806 217.95905601508946 L 667.3217360831571 217.90874236102684 L 667.187377789657 217.85887032764242 L 667.0529176039366 217.80944089726898 L 666.9183554286521 217.76045505223925 L 666.7836911664597 217.711913774886 L 666.6489247200154 217.66381804754195 L 666.5140559919756 217.6161688525399 L 666.3790848849965 217.56896717221252 L 666.2440113017342 217.52221398889262 L 666.1088351448449 217.4759102849129 L 665.9735563169847 217.4300570426062 L 665.83817472081 217.38465524430518 L 665.702690258977 217.33970587234265 L 665.5671028341417 217.2952099090513 L 665.4314123489603 217.25116833676393 L 665.2956187060892 217.20758213781326 L 665.1597218081844 217.16445229453208 L 665.0237215579021 217.12177978925308 L 664.8876178578987 217.07956560430907 L 664.7514106108301 217.03781072203273 L 664.6150997193528 216.99651612475688 L 664.4786850861227 216.95568279481424 L 664.3421666137962 216.91531171453755 L 664.2055442050294 216.87540386625957 L 664.0688177624784 216.83596023231308 L 663.9319871887996 216.79698179503077 L 663.795052386649 216.75846953674542 L 663.6580132586829 216.72042443978978 L 663.5208697075575 216.68284748649663 L 663.383621635929 216.64573965919865 L 663.2462689464536 216.60910194022864 L 663.1088115417873 216.57293531191934 L 662.9712493245866 216.5372407566035 L 662.8335821975074 216.50201925661383 L 662.6958100632062 216.46727179428316 L 662.5579328243389 216.43299935194418 L 662.4199503835619 216.39920291192968 L 662.4199503835619 216.39920291192968 L 662.2461967695886 216.35728653596556 L 662.0723284004526 216.31599173143758 L 661.8983463632326 216.27531712539377 L 661.7242517450067 216.2352613448821 L 661.5500456328533 216.1958230169506 L 661.375729113851 216.1570007686473 L 661.2013032750782 216.11879322702018 L 661.0267692036132 216.08119901911724 L 660.8521279865346 216.04421677198653 L 660.6773807109206 216.00784511267602 L 660.5025284638498 215.97208266823375 L 660.3275723324005 215.93692806570772 L 660.1525134036511 215.90237993214592 L 659.9773527646802 215.86843689459639 L 659.802091502566 215.83509758010712 L 659.6267307043871 215.80236061572612 L 659.4512714572218 215.7702246285014 L 659.2757148481486 215.738688245481 L 659.1000619642458 215.7077500937129 L 658.924313892592 215.67740880024508 L 658.7484717202653 215.64766299212562 L 658.5725365343445 215.61851129640246 L 658.3965094219079 215.58995234012366 L 658.2203914700337 215.56198475033722 L 658.0441837658007 215.53460715409113 L 657.867887396287 215.5078181784334 L 657.6915034485711 215.48161645041208 L 657.5150330097314 215.45600059707513 L 657.3384771668465 215.43096924547058 L 657.1618370069946 215.40652102264644 L 656.9851136172541 215.38265455565073 L 656.8083080847036 215.35936847153144 L 656.6314214964216 215.33666139733657 L 656.4544549394861 215.31453196011418 L 656.277409500976 215.29297878691222 L 656.1002862679693 215.27200050477876 L 655.9230863275448 215.25159574076173 L 655.7458107667806 215.2317631219092 L 655.5684606727552 215.2125012752692 L 655.3910371325471 215.19380882788968 L 655.2135412332348 215.17568440681868 L 655.0359740618966 215.1581266391042 L 654.8583367056108 215.14113415179426 L 654.680630251456 215.12470557193686 L 654.5028557865106 215.10883952658 L 654.325014397853 215.09353464277171 L 654.1471071725615 215.07878954756 L 653.9691351977146 215.06460286799287 L 653.7910995603909 215.05097323111832 L 653.6130013476685 215.03789926398437 L 653.4348416466261 215.02537959363906 L 653.2566215443419 215.01341284713035 L 653.0783421278944 215.00199765150626 L 652.9000044843622 214.99113263381483 L 652.7216097008234 214.98081642110404 L 652.5431588643565 214.9710476404219 L 652.3646530620401 214.96182491881643 L 652.1860933809526 214.95314688333565 L 652.0074809081722 214.94501216102753 L 651.8288167307774 214.93741937894015 L 651.6501019358467 214.93036716412144 L 651.4713376104585 214.92385414361945 L 651.2925248416911 214.9178789444822 L 651.1136647166232 214.91244019375767 L 650.934758322333 214.9075365184939 L 650.7558067458989 214.90316654573888 L 650.5768110743993 214.89932890254062 L 650.3977723949129 214.89602221594714 L 650.2186917945177 214.89324511300643 L 650.0395703602924 214.8909962207665 L 649.8604091793154 214.8892741662754 L 649.681209338665 214.8880775765811 L 649.5019719254198 214.88740507873163 L 649.3226980266579 214.887255299775 L 649.1433887294581 214.8876268667592 L 648.9640451208986 214.88851840673223 L 648.7846682880579 214.88992854674214 L 648.6052593180143 214.89185591383693 L 648.4258192978463 214.89429913506459 L 648.2463493146323 214.89725683747312 L 648.0668504554509 214.90072764811055 L 647.8873238073802 214.90471019402491 L 647.7077704574988 214.90920310226417 L 647.5281914928851 214.91420499987638 L 647.3485880006175 214.9197145139095 L 647.1689610677745 214.92573027141157 L 646.9893117814344 214.93225089943058 L 646.8096412286757 214.93927502501458 L 646.6299504965767 214.94680127521156 L 646.450240672216 214.9548282770695 L 646.2705128426718 214.96335465763647 L 646.0907680950228 214.97237904396042 L 645.9110075163471 214.98190006308937 L 645.7312321937234 214.99191634207136 L 645.55144321423 215.0024265079544 L 645.3716416649452 215.01342918778644 L 645.1918286329476 215.02492300861556 L 645.0120052053156 215.03690659748972 L 644.8321724691275 215.04937858145698 L 644.6523315114619 215.0623375875653 L 644.6523315114619 215.0623375875653 L 644.4998988460384 215.07600184562025 L 644.3474232345175 215.08987729290072 L 644.1949066146939 215.1039670765662 L 644.0423509243626 215.11827434377614 L 643.8897581013184 215.13280224169011 L 643.7371300833563 215.14755391746763 L 643.584468808271 215.16253251826816 L 643.4317762138576 215.17774119125127 L 643.2790542379107 215.19318308357643 L 643.1263048182253 215.20886134240314 L 642.9735298925964 215.22477911489094 L 642.8207313988188 215.24093954819932 L 642.6679112746872 215.2573457894878 L 642.5150714579968 215.27400098591588 L 642.3622138865421 215.29090828464305 L 642.2093404981183 215.3080708328289 L 642.0564532305201 215.32549177763283 L 641.9035540215425 215.34317426621445 L 641.7506448089803 215.3611214457332 L 641.5977275306284 215.3793364633486 L 641.4448041242816 215.39782246622022 L 641.2918765277349 215.41658260150749 L 641.138946678783 215.43562001636997 L 640.986016515221 215.45493785796714 L 640.8330879748436 215.47453927345853 L 640.6801629954458 215.49442741000362 L 640.5272435148223 215.51460541476197 L 640.3743314707682 215.53507643489306 L 640.2214288010783 215.5558436175564 L 640.0685374435474 215.5769101099115 L 639.9156593359704 215.59827905911786 L 639.7627964161422 215.61995361233502 L 639.6099506218578 215.64193691672247 L 639.4571238909118 215.6642321194397 L 639.3043181610993 215.68684236764625 L 639.1515353702151 215.70977080850164 L 638.9987774560542 215.73302058916533 L 638.8460463564112 215.75659485679688 L 638.6933440090812 215.78049675855578 L 638.540672351859 215.80472944160155 L 638.3880333225395 215.82929605309366 L 638.2354288589175 215.85419974019166 L 638.0828608987881 215.87944365005507 L 637.9303313799459 215.90503092984335 L 637.7778422401859 215.93096472671607 L 637.625395417303 215.95724818783268 L 637.4729928490921 215.98388446035273 L 637.3206364733479 216.0108766914357 L 637.1683282278656 216.03822802824115 L 637.0160700504397 216.06594161792853 L 636.8638638788653 216.0940206076574 L 636.7117116509372 216.12246814458723 L 636.5596153044504 216.15128737587753 L 636.4075767771997 216.18048144868786 L 636.2555980069799 216.2100535101777 L 636.1036809315859 216.24000670750652 L 635.9518274888127 216.27034418783387 L 635.800039616455 216.3010690983193 L 635.6483192523078 216.33218458612222 L 635.496668334166 216.3636937984022 L 635.3450887998243 216.39559988231878 L 635.1935825870778 216.42790598503143 L 635.0421516337213 216.46061525369964 L 634.8907978775496 216.49373083548298 L 634.7395232563576 216.52725587754088 L 634.5883297079403 216.5611935270329 L 634.4372191700924 216.59554693111858 L 634.2861935806088 216.63031923695738 L 634.1352548772845 216.66551359170882 L 633.9844049979143 216.7011331425324 L 633.8336458802931 216.73718103658763 L 633.6829794622158 216.77366042103407 L 633.5324076814773 216.81057444303116 L 633.3819324758723 216.84792624973846 L 633.2315557831957 216.88571898831546 L 633.0812795412427 216.92395580592165 L 632.9311056878078 216.9626398497166 L 632.7810361606861 217.00177426685974 L 632.6310728976723 217.04136220451065 L 632.4812178365614 217.0814068098288 L 632.3314729151483 217.1219112299737 L 632.1818400712278 217.1628786121049 L 632.0323212425948 217.20431210338185 L 631.8829183670442 217.2462148509641 L 631.7336333823708 217.28859000201115 L 631.5844682263696 217.33144070368252 L 631.4354248368354 217.37477010313768 L 631.2865051515631 217.4185813475362 L 631.1377111083475 217.46287758403753 L 630.9890446449837 217.50766195980123 L 630.8405076992663 217.55293762198676 L 630.6921022089903 217.59870771775368 L 630.5438301119505 217.64497539426148 L 630.3956933459419 217.69174379866965 L 630.2476938487594 217.73901607813772 L 630.0998335581977 217.7867953798252 L 629.9521144120517 217.83508485089163 L 629.8045383481166 217.88388763849645 L 629.6571073041869 217.9332068897992 L 629.5098232180576 217.98304575195942 L 629.5098232180576 217.98304575195942 L 629.4235921912951 218.01250706214418 L 629.3374063677627 218.042179919394 L 629.251266265839 218.0720643143788 L 629.1651724039034 218.10216023776852 L 629.0791253003349 218.13246768023302 L 628.9931254735127 218.1629866324423 L 628.9071734418158 218.19371708506625 L 628.8212697236232 218.2246590287748 L 628.7354148373142 218.25581245423786 L 628.6496093012679 218.28717735212533 L 628.5638536338632 218.31875371310718 L 628.4781483534795 218.35054152785332 L 628.3924939784956 218.38254078703366 L 628.3068910272907 218.41475148131812 L 628.221340018244 218.44717360137665 L 628.1358414697345 218.47980713787913 L 628.0503959001413 218.51265208149553 L 627.9650038278436 218.54570842289573 L 627.8796657712203 218.5789761527497 L 627.7943822486508 218.6124552617273 L 627.709153778514 218.6461457404985 L 627.6239808791889 218.6800475797332 L 627.5388640690549 218.71416077010136 L 627.4538038664907 218.74848530227285 L 627.3688007898758 218.78302116691762 L 627.2838553575891 218.8177683547056 L 627.1989680880098 218.85272685630667 L 627.1141394995168 218.88789666239083 L 627.0293701104895 218.92327776362794 L 626.9446604393067 218.95887015068791 L 626.8600110043477 218.99467381424074 L 626.7754223239915 219.03068874495628 L 626.6908949166174 219.06691493350448 L 626.6064293006041 219.10335237055526 L 626.5220259943311 219.14000104677854 L 626.4376855161772 219.17686095284424 L 626.3534083845218 219.2139320794223 L 626.2691951177437 219.2512144171826 L 626.1850462342222 219.28870795679515 L 626.1009622523364 219.32641268892976 L 626.0169436904654 219.36432860425646 L 625.932991066988 219.4024556934451 L 625.8491049002838 219.4407939471656 L 625.7652857087315 219.47934335608792 L 625.6815340107104 219.51810391088196 L 625.5978503245996 219.55707560221768 L 625.514235168778 219.59625842076497 L 625.4306890616249 219.63565235719372 L 625.3472125215194 219.6752574021739 L 625.2638060668405 219.71507354637546 L 625.1804702159674 219.75510078046827 L 625.0972054872791 219.79533909512224 L 625.0140123991548 219.83578848100734 L 624.9308914699735 219.87644892879348 L 624.8478432181145 219.91732042915055 L 624.7648681619565 219.9584029727485 L 624.681966819879 219.99969655025728 L 624.5991397102609 220.04120115234676 L 624.5163873514815 220.08291676968688 L 624.4337102619196 220.12484339294758 L 624.3511089599546 220.16698101279877 L 624.2685839639653 220.20932961991036 L 624.186135792331 220.2518892049523 L 624.1037649634308 220.2946597585945 L 624.0214719956438 220.33764127150687 L 623.9392574073489 220.38083373435933 L 623.8571217169255 220.42423713782182 L 623.7750654427525 220.4678514725643 L 623.6930891032091 220.5116767292566 L 623.6111932166743 220.55571289856871 L 623.5293783015273 220.59995997117056 L 623.4476448761473 220.64441793773202 L 623.3659934589131 220.68908678892305 L 623.2844245682039 220.73396651541356 L 623.202938722399 220.77905710787348 L 623.1215364398773 220.82435855697275 L 623.040218239018 220.86987085338123 L 622.9589846382003 220.91559398776891 L 622.8778361558029 220.9615279508057 L 622.7967733102054 221.00767273316148 L 622.7157966197865 221.0540283255062 L 622.6349066029255 221.10059471850983 L 622.5541037780016 221.14737190284222 L 622.4733886633936 221.1943598691733 L 622.3927617774809 221.24155860817305 L 622.3122236386424 221.28896811051132 L 622.2317747652573 221.33658836685808 L 622.1514156757047 221.38441936788325 L 622.0711468883636 221.43246110425673 L 621.9909689216132 221.4807135666485 L 621.9108822938326 221.52917674572836 L 621.8308875234009 221.57785063216636 L 621.7509851286972 221.62673521663237 L 621.6711756281004 221.6758304897963 L 621.59145953999 221.7251364423281 L 621.5118373827447 221.7746530648977 L 621.4323096747439 221.82438034817497 L 621.3528769343666 221.87431828282988 L 621.2735396799917 221.92446685953234 L 621.1942984299986 221.97482606895227" stroke="rgb(132, 0, 0)" fill="none" stroke-width="2.073350534464px" stroke-linecap="round"/><path d="M 624.9575022173196 179.8027206966644 L 624.9575022173196 194.3646079063975 L 624.4419636069252 194.3646079063975 L 624.4419636069252 179.8027206966644" stroke="rgb(132, 0, 0)" fill="none" stroke-width="2.073350534464px" stroke-linecap="round"/><path d="M 617.4155030466588 186.8200274143212 L 631.9773902563919 186.8200274143212 L 631.9773902563919 187.3355660247157 L 617.4155030466588 187.3355660247157" stroke="rgb(132, 0, 0)" fill="none" stroke-width="2.073350534464px" stroke-linecap="round"/><text x="672.1312858516799" y="196.84601740111958" fill="rgb(15, 15, 15)" font-family="sans-serif" text-anchor="start" dominant-baseline="auto" font-size="18.660154810176px">C3</text><text x="672.1312858516799" y="227.7489696980796" fill="rgb(15, 15, 15)" font-family="sans-serif" text-anchor="start" dominant-baseline="hanging" font-size="18.660154810176px">10F</text></g><g data-circuit-json-type="schematic_component" data-schematic-component-id="schematic_component_4"><rect class="component-overlay" x="724.8647071104416" y="157.27008615924854" width="54.857392646524886" height="109.71479565980246" fill="transparent"/><path d="M 752.2934034337039 157.27008615924854 L 752.2934034337039 203.89886887211944" stroke="rgb(132, 0, 0)" fill="none" stroke-width="2.073350534464px" stroke-linecap="round"/><path d="M 752.2934034337039 220.35608873942743 L 752.2934034337039 266.984881819051" stroke="rgb(132, 0, 0)" fill="none" stroke-width="2.073350534464px" stroke-linecap="round"/><path d="M 724.8647071104416 203.8988688721195 L 779.7220997569665 203.89886887211944" stroke="rgb(132, 0, 0)" fill="none" stroke-width="2.073350534464px" stroke-linecap="round"/><path d="M 724.8647071104416 220.35608873942743 L 779.7220997569665 220.35608873942743" stroke="rgb(132, 0, 0)" fill="none" stroke-width="2.073350534464px" stroke-linecap="round"/><text x="775.7988125748798" y="190.85408250067997" fill="rgb(15, 15, 15)" font-family="sans-serif" text-anchor="start" dominant-baseline="auto" font-size="18.660154810176px">C4</text><text x="775.7988125748798" y="232.10942652996" fill="rgb(15, 15, 15)" font-family="sans-serif" text-anchor="start" dominant-baseline="hanging" font-size="18.660154810176px">100mF</text></g><g class="trace" data-circuit-json-type="schematic_trace" data-schematic-trace-id="schematic_trace_0"><path d="M 441.3560767888 221.84850718764 L 441.3560767888 286.57380955126916 L 441.38440394047706 286.57380955126916 L 441.38440394047706 351.29911191489833" class="trace-invisible-hover-outline" stroke="rgb(0, 150, 0)" fill="none" stroke-width="16.586804275712px" stroke-linecap="round" opacity="0" stroke-linejoin="round"/><path d="M 441.3560767888 221.84850718764 L 441.3560767888 286.57380955126916 L 441.38440394047706 286.57380955126916 L 441.38440394047706 351.29911191489833" stroke="rgb(0, 150, 0)" fill="none" stroke-width="2.073350534464px" stroke-linecap="round" stroke-linejoin="round"/></g><g class="trace" data-circuit-json-type="schematic_trace" data-schematic-trace-id="schematic_trace_1"><path d="M 503.55659282272 138.91448580908002 L 545.051930663677 138.91448580908002 L 545.051930663677 180.24769282161836" class="trace-invisible-hover-outline" stroke="rgb(0, 150, 0)" fill="none" stroke-width="16.586804275712px" stroke-linecap="round" opacity="0" stroke-linejoin="round"/><path d="M 503.55659282272 138.91448580908002 L 545.051930663677 138.91448580908002 L 545.051930663677 180.24769282161836" stroke="rgb(0, 150, 0)" fill="none" stroke-width="2.073350534464px" stroke-linecap="round" stroke-linejoin="round"/></g><g class="trace" data-circuit-json-type="schematic_trace" data-schematic-trace-id="schematic_trace_2"><path d="M 441.32774963712296 465.6009986639017 L 441.3560767888 465.6009986639017 L 441.3560767888 491.38407666795996" class="trace-invisible-hover-outline" stroke="rgb(0, 150, 0)" fill="none" stroke-width="16.586804275712px" stroke-linecap="round" opacity="0" stroke-linejoin="round"/><path d="M 441.32774963712296 465.6009986639017 L 441.3560767888 465.6009986639017 L 441.3560767888 491.38407666795996" stroke="rgb(0, 150, 0)" fill="none" stroke-width="2.073350534464px" stroke-linecap="round" stroke-linejoin="round"/></g><g class="trace" data-circuit-json-type="schematic_trace" data-schematic-trace-id="schematic_trace_3"><path d="M 544.9952763603229 294.5495795706217 L 544.9952763603229 322.92434574276 L 441.38440394047706 322.92434574276 L 441.38440394047706 351.29911191489833" class="trace-invisible-hover-outline" stroke="rgb(0, 150, 0)" fill="none" stroke-width="16.586804275712px" stroke-linecap="round" opacity="0" stroke-linejoin="round"/><path d="M 544.9952763603229 294.5495795706217 L 544.9952763603229 322.92434574276 L 441.38440394047706 322.92434574276 L 441.38440394047706 351.29911191489833" stroke="rgb(0, 150, 0)" fill="none" stroke-width="2.073350534464px" stroke-linecap="round" stroke-linejoin="round"/><circle cx="441.38440394047706" cy="322.92434574276" r="3.1100258016959996" class="trace-junction" fill="rgb(0, 150, 0)"/></g><g class="trace" data-circuit-json-type="schematic_trace" data-schematic-trace-id="schematic_trace_4"><path d="M 545.051930663677 180.24769282161836 L 545.051930663677 159.64799115372 L 503.55659282272 159.64799115372" class="trace-invisible-hover-outline" stroke="rgb(0, 150, 0)" fill="none" stroke-width="16.586804275712px" stroke-linecap="round" opacity="0" stroke-linejoin="round"/><path d="M 545.051930663677 180.24769282161836 L 545.051930663677 159.64799115372 L 503.55659282272 159.64799115372" stroke="rgb(0, 150, 0)" fill="none" stroke-width="2.073350534464px" stroke-linecap="round" stroke-linejoin="round"/><circle cx="545.051930663677" cy="159.64799115372" r="3.1100258016959996" class="trace-junction" fill="rgb(0, 150, 0)"/></g><g class="trace" data-circuit-json-type="schematic_trace" data-schematic-trace-id="schematic_trace_5"><path d="M 648.6627927167701 160.34626451346946 L 648.6627927167701 138.91448580908002 L 503.55659282272 138.91448580908002" class="trace-invisible-hover-outline" stroke="rgb(0, 150, 0)" fill="none" stroke-width="16.586804275712px" stroke-linecap="round" opacity="0" stroke-linejoin="round"/><path d="M 648.6627927167701 160.34626451346946 L 648.6627927167701 138.91448580908002 L 503.55659282272 138.91448580908002" stroke="rgb(0, 150, 0)" fill="none" stroke-width="2.073350534464px" stroke-linecap="round" stroke-linejoin="round"/><circle cx="545.051930663677" cy="138.91448580908002" r="3.1100258016959996" class="trace-junction" fill="rgb(0, 150, 0)"/></g><g class="trace" data-circuit-json-type="schematic_trace" data-schematic-trace-id="schematic_trace_6"><path d="M 648.7194677536298 262.61724451717055 L 648.6911302352 262.61724451717055 L 648.6911302352 284.04902322156" class="trace-invisible-hover-outline" stroke="rgb(0, 150, 0)" fill="none" stroke-width="16.586804275712px" stroke-linecap="round" opacity="0" stroke-linejoin="round"/><path d="M 648.7194677536298 262.61724451717055 L 648.6911302352 262.61724451717055 L 648.6911302352 284.04902322156" stroke="rgb(0, 150, 0)" fill="none" stroke-width="2.073350534464px" stroke-linecap="round" stroke-linejoin="round"/></g><g class="trace" data-circuit-json-type="schematic_trace" data-schematic-trace-id="schematic_trace_7"><path d="M 752.3303194399703 154.33924967749363 L 752.3303194399703 138.91448580908002 L 503.55659282272 138.91448580908002" class="trace-invisible-hover-outline" stroke="rgb(0, 150, 0)" fill="none" stroke-width="16.586804275712px" stroke-linecap="round" opacity="0" stroke-linejoin="round"/><path d="M 752.3303194399703 154.33924967749363 L 752.3303194399703 138.91448580908002 L 503.55659282272 138.91448580908002" stroke="rgb(0, 150, 0)" fill="none" stroke-width="2.073350534464px" stroke-linecap="round" stroke-linejoin="round"/><circle cx="545.051930663677" cy="138.91448580908002" r="3.1100258016959996" class="trace-junction" fill="rgb(0, 150, 0)"/><circle cx="648.6627927167701" cy="138.91448580908002" r="3.1100258016959996" class="trace-junction" fill="rgb(0, 150, 0)"/></g><g class="trace" data-circuit-json-type="schematic_trace" data-schematic-trace-id="schematic_trace_8"><path d="M 752.3869944768297 268.6242593531464 L 752.3586569583999 268.6242593531464 L 752.3586569583999 284.04902322156" class="trace-invisible-hover-outline" stroke="rgb(0, 150, 0)" fill="none" stroke-width="16.586804275712px" stroke-linecap="round" opacity="0" stroke-linejoin="round"/><path d="M 752.3869944768297 268.6242593531464 L 752.3586569583999 268.6242593531464 L 752.3586569583999 284.04902322156" stroke="rgb(0, 150, 0)" fill="none" stroke-width="2.073350534464px" stroke-linecap="round" stroke-linejoin="round"/></g><g class="trace" data-circuit-json-type="schematic_trace" data-schematic-trace-id="schematic_trace_9"><path d="M 752.3303194399703 154.33924967749363 L 752.3586569583999 154.33924967749363 L 752.3586569583999 118.18098046444001" class="trace-invisible-hover-outline" stroke="rgb(0, 150, 0)" fill="none" stroke-width="16.586804275712px" stroke-linecap="round" opacity="0" stroke-linejoin="round"/><path d="M 752.3303194399703 154.33924967749363 L 752.3586569583999 154.33924967749363 L 752.3586569583999 118.18098046444001" stroke="rgb(0, 150, 0)" fill="none" stroke-width="2.073350534464px" stroke-linecap="round" stroke-linejoin="round"/></g><g class="schematic-port-hover" data-schematic-port-id="source_port_0"><circle cx="503.55659282272" cy="159.64799115372" r="4.146701068928" fill="red" opacity="0"/></g><g class="schematic-port-hover" data-schematic-port-id="source_port_1"><circle cx="503.55659282272" cy="138.91448580908002" r="4.146701068928" fill="red" opacity="0"/></g><g class="schematic-port-hover" data-schematic-port-id="source_port_2"><circle cx="441.3560767888" cy="221.84850718764" r="4.146701068928" fill="red" opacity="0"/></g><g class="schematic-port-hover" data-schematic-port-id="source_port_3"><circle cx="441.32774963712296" cy="465.6009986639017" r="4.146701068928" fill="red" opacity="0"/></g><g class="schematic-port-hover" data-schematic-port-id="source_port_4"><circle cx="441.38440394047706" cy="351.29911191489833" r="4.146701068928" fill="red" opacity="0"/></g><g class="schematic-port-hover" data-schematic-port-id="source_port_5"><circle cx="544.9952763603229" cy="294.5495795706217" r="4.146701068928" fill="red" opacity="0"/></g><g class="schematic-port-hover" data-schematic-port-id="source_port_6"><circle cx="545.051930663677" cy="180.24769282161836" r="4.146701068928" fill="red" opacity="0"/></g><g class="schematic-port-hover" data-schematic-port-id="source_port_7"><circle cx="648.7194677536298" cy="262.61724451717055" r="4.146701068928" fill="red" opacity="0"/></g><g class="schematic-port-hover" data-schematic-port-id="source_port_8"><circle cx="648.6627927167701" cy="160.34626451346946" r="4.146701068928" fill="red" opacity="0"/></g><g class="schematic-port-hover" data-schematic-port-id="source_port_9"><circle cx="752.3869944768297" cy="268.6242593531464" r="4.146701068928" fill="red" opacity="0"/></g><g class="schematic-port-hover" data-schematic-port-id="source_port_10"><circle cx="752.3303194399703" cy="154.33924967749363" r="4.146701068928" fill="red" opacity="0"/></g><rect class="component-overlay" x="417.48766543605046" y="491.27175290275545" width="46.58002787505285" height="50.11593024328056" fill="transparent"/><path d="M 441.2434731212733 491.27175290275545 L 441.2434731212733 525.4440322061147" stroke="rgb(132, 0, 0)" fill="none" stroke-width="2.073350534464px" stroke-linecap="round"/><path d="M 417.48766543605046 525.4406319112383 L 464.0676933111033 525.4406319112383" stroke="rgb(132, 0, 0)" fill="none" stroke-width="2.073350534464px" stroke-linecap="round"/><path d="M 423.31017280796436 533.4141575286371 L 458.2451859391894 533.4141575286371" stroke="rgb(132, 0, 0)" fill="none" stroke-width="2.073350534464px" stroke-linecap="round"/><path d="M 434.9551771850394 541.387683146036 L 446.6001815621145 541.387683146036" stroke="rgb(132, 0, 0)" fill="none" stroke-width="2.073350534464px" stroke-linecap="round"/><text x="439.0109721997838" y="553.5303538518984" fill="rgb(15, 15, 15)" font-family="sans-serif" text-anchor="middle" dominant-baseline="hanging" font-size="18.660154810176px">GND</text><rect class="component-overlay" x="624.8227188824504" y="283.9366994563554" width="46.580027875052906" height="50.11593024328056" fill="transparent"/><path d="M 648.5785265676733 283.9366994563554 L 648.5785265676733 318.10897875971466" stroke="rgb(132, 0, 0)" fill="none" stroke-width="2.073350534464px" stroke-linecap="round"/><path d="M 624.8227188824504 318.1055784648382 L 671.4027467575033 318.1055784648382" stroke="rgb(132, 0, 0)" fill="none" stroke-width="2.073350534464px" stroke-linecap="round"/><path d="M 630.6452262543644 326.07910408223717 L 665.5802393855894 326.07910408223717" stroke="rgb(132, 0, 0)" fill="none" stroke-width="2.073350534464px" stroke-linecap="round"/><path d="M 642.2902306314394 334.052629699636 L 653.9352350085145 334.052629699636" stroke="rgb(132, 0, 0)" fill="none" stroke-width="2.073350534464px" stroke-linecap="round"/><text x="646.3460256461838" y="346.1953004054984" fill="rgb(15, 15, 15)" font-family="sans-serif" text-anchor="middle" dominant-baseline="hanging" font-size="18.660154810176px">GND</text><rect class="component-overlay" x="728.4902456056504" y="283.9366994563554" width="46.580027875052906" height="50.11593024328056" fill="transparent"/><path d="M 752.2460532908733 283.9366994563554 L 752.2460532908733 318.10897875971466" stroke="rgb(132, 0, 0)" fill="none" stroke-width="2.073350534464px" stroke-linecap="round"/><path d="M 728.4902456056504 318.1055784648382 L 775.0702734807033 318.1055784648382" stroke="rgb(132, 0, 0)" fill="none" stroke-width="2.073350534464px" stroke-linecap="round"/><path d="M 734.3127529775644 326.07910408223717 L 769.2477661087894 326.07910408223717" stroke="rgb(132, 0, 0)" fill="none" stroke-width="2.073350534464px" stroke-linecap="round"/><path d="M 745.9577573546394 334.052629699636 L 757.6027617317145 334.052629699636" stroke="rgb(132, 0, 0)" fill="none" stroke-width="2.073350534464px" stroke-linecap="round"/><text x="750.0135523693838" y="346.1953004054984" fill="rgb(15, 15, 15)" font-family="sans-serif" text-anchor="middle" dominant-baseline="hanging" font-size="18.660154810176px">GND</text><rect class="component-overlay" x="742.6776131415907" y="74.17324456321708" width="19.207467517510963" height="42.45826921305465" fill="transparent"/><path d="M 752.129613924858 74.17324456321708 L 742.6776131415907 93.98107146148766" stroke="rgb(132, 0, 0)" fill="none" stroke-width="2.073350534464px" stroke-linecap="round"/><path d="M 752.4330798758346 74.1835698488787 L 761.8850806591016 93.99144858091265" stroke="rgb(132, 0, 0)" fill="none" stroke-width="2.073350534464px" stroke-linecap="round"/><path d="M 752.2389935323034 74.69590513269748 L 752.2389935323034 116.63151377627173" stroke="rgb(132, 0, 0)" fill="none" stroke-width="2.073350534464px" stroke-linecap="round"/><text x="751.7752990520231" y="68.09820309620558" fill="rgb(15, 15, 15)" font-family="sans-serif" text-anchor="middle" dominant-baseline="ideographic" font-size="18.660154810176px">V5</text></svg>