<svg xmlns="http://www.w3.org/2000/svg" width="1200" height="600" style="background-color: rgb(245, 241, 237)" data-real-to-screen-transform="matrix(170.5643785771,0,0,-170.5643785771,323.0445061638,208.0885418641)" data-software-used-string="@tscircuit/core@0.0.562"><style>
              .boundary { fill: rgb(245, 241, 237); }
              .schematic-boundary { fill: none; stroke: #fff; }
              .component { fill: none; stroke: rgb(132, 0, 0); }
              .chip { fill: rgb(255, 255, 194); stroke: rgb(132, 0, 0); }
              .component-pin { fill: none; stroke: rgb(132, 0, 0); }
              .trace:hover {
                filter: invert(1);
              }
              .trace:hover .trace-crossing-outline {
                opacity: 0;
              }
              .trace:hover .trace-junction {
                filter: invert(1);
              }
              .text { font-family: sans-serif; fill: rgb(0, 150, 0); }
              .pin-number { fill: rgb(169, 0, 0); }
              .port-label { fill: rgb(0, 100, 100); }
              .component-name { fill: rgb(0, 100, 100); }
            </style><rect class="boundary" x="0" y="0" width="1200" height="600"/><g data-circuit-json-type="schematic_component" data-schematic-component-id="schematic_component_0"><rect class="component chip" x="288.93163044838" y="122.80635257555" width="68.22575143083998" height="170.56437857710003" stroke-width="3.411287571542px" fill="rgb(255, 255, 194)" stroke="rgb(132, 0, 0)"/><rect class="component-overlay" x="288.93163044838" y="122.80635257555" width="68.22575143083998" height="170.56437857710003" fill="transparent"/><text x="288.93163044838" y="315.54410036767297" fill="#006464" text-anchor="start" dominant-baseline="middle" font-family="sans-serif" font-size="30.701588143878px" transform="rotate(0, 288.93163044838, 315.54410036767297)"></text><text x="288.93163044838" y="100.63298336052699" fill="#006464" text-anchor="start" dominant-baseline="middle" font-family="sans-serif" font-size="30.701588143878px" transform="rotate(0, 288.93163044838, 100.63298336052699)">U1</text><line class="component-pin" x1="421.971845738518" y1="156.91922829096998" x2="357.15738187922" y2="156.91922829096998" stroke-width="3.411287571542px"/><text class="pin-number" x="391.27025759464004" y="153.50794071942798" style="font-family: sans-serif;" fill="rgb(169, 0, 0)" text-anchor="middle" dominant-baseline="auto" font-size="25.584656786565px" transform="">1</text><line class="component-pin" x1="421.971845738518" y1="191.03210400639" x2="357.15738187922" y2="191.03210400639" stroke-width="3.411287571542px"/><text class="pin-number" x="391.27025759464004" y="187.620816434848" style="font-family: sans-serif;" fill="rgb(169, 0, 0)" text-anchor="middle" dominant-baseline="auto" font-size="25.584656786565px" transform="">2</text><line class="component-pin" x1="421.971845738518" y1="225.14497972181" x2="357.15738187922" y2="225.14497972181" stroke-width="3.411287571542px"/><text class="pin-number" x="391.27025759464004" y="221.733692150268" style="font-family: sans-serif;" fill="rgb(169, 0, 0)" text-anchor="middle" dominant-baseline="auto" font-size="25.584656786565px" transform="">3</text><line class="component-pin" x1="421.971845738518" y1="259.25785543723" x2="357.15738187922" y2="259.25785543723" stroke-width="3.411287571542px"/><text class="pin-number" x="391.27025759464004" y="255.846567865688" style="font-family: sans-serif;" fill="rgb(169, 0, 0)" text-anchor="middle" dominant-baseline="auto" font-size="25.584656786565px" transform="">4</text></g><g data-circuit-json-type="schematic_component" data-schematic-component-id="schematic_component_1"><rect class="component-overlay" x="720.9296303126687" y="188.12205849444368" width="45.128503202816205" height="180.51396164195145" fill="transparent"/><path d="M 743.4938819140767 368.63602013639513 L 743.4938819140767 323.50753399001684" stroke="rgb(132, 0, 0)" fill="none" stroke-width="3.411287571542px" stroke-linecap="round"/><path d="M 743.4938819140767 233.25056169725983 L 743.4938819140767 188.12205849444368" stroke="rgb(132, 0, 0)" fill="none" stroke-width="3.411287571542px" stroke-linecap="round"/><path d="M 720.9296303126687 278.37906490007623 L 720.9296303126687 233.25057875369788 L 766.0581335154849 233.25057875369788 L 766.0581335154849 323.5075681028927 L 720.9296303126687 323.5075681028927 L 720.9296303126687 278.3790649000765" stroke="rgb(132, 0, 0)" fill="none" stroke-width="3.411287571542px" stroke-linecap="round"/><text x="790.504281603267" y="254.04220593786783" fill="rgb(15, 15, 15)" font-family="sans-serif" text-anchor="start" dominant-baseline="middle" font-size="30.701588143878px">R7</text><text x="790.504281603267" y="308.62280708253985" fill="rgb(15, 15, 15)" font-family="sans-serif" text-anchor="start" dominant-baseline="middle" font-size="30.701588143878px">2.2kΩ</text></g><g data-circuit-json-type="schematic_component" data-schematic-component-id="schematic_component_2"><rect class="component-overlay" x="884.3110187006641" y="188.12205849444368" width="45.128503202816205" height="180.51396164195145" fill="transparent"/><path d="M 906.8752703020722 368.63602013639513 L 906.8752703020722 323.50753399001684" stroke="rgb(132, 0, 0)" fill="none" stroke-width="3.411287571542px" stroke-linecap="round"/><path d="M 906.8752703020722 233.25056169725983 L 906.8752703020722 188.12205849444368" stroke="rgb(132, 0, 0)" fill="none" stroke-width="3.411287571542px" stroke-linecap="round"/><path d="M 884.3110187006641 278.37906490007623 L 884.3110187006641 233.25057875369788 L 929.4395219034803 233.25057875369788 L 929.4395219034803 323.5075681028927 L 884.3110187006641 323.5075681028927 L 884.3110187006641 278.3790649000765" stroke="rgb(132, 0, 0)" fill="none" stroke-width="3.411287571542px" stroke-linecap="round"/><text x="953.8856699912625" y="254.04220593786783" fill="rgb(15, 15, 15)" font-family="sans-serif" text-anchor="start" dominant-baseline="middle" font-size="30.701588143878px">R8</text><text x="953.8856699912625" y="308.62280708253985" fill="rgb(15, 15, 15)" font-family="sans-serif" text-anchor="start" dominant-baseline="middle" font-size="30.701588143878px">2.2kΩ</text></g><g data-circuit-json-type="schematic_component" data-schematic-component-id="schematic_component_3"><rect class="component-overlay" x="611.3972880425911" y="232.41468625406546" width="43.91608043057647" height="150.3008357654426" fill="transparent"/><path d="M 633.4404484110082 338.426928986119 L 633.4404484110082 382.71552201950806" stroke="rgb(132, 0, 0)" fill="none" stroke-width="3.411287571542px" stroke-linecap="round"/><path d="M 633.147981671062 232.41468625406546 L 633.147981671062 276.4658195595994" stroke="rgb(132, 0, 0)" fill="none" stroke-width="3.411287571542px" stroke-linecap="round"/><path d="M 633.1493120732149 296.0937201016135 L 633.1493120732149 318.8015186840321" stroke="rgb(132, 0, 0)" fill="none" stroke-width="3.411287571542px" stroke-linecap="round"/><path d="M 611.7549444880292 295.76959661300344 L 654.7348823267854 295.76959661300344" stroke="rgb(132, 0, 0)" fill="none" stroke-width="3.411287571542px" stroke-linecap="round"/><path d="M 611.7385191383722 319.13875857335483 L 654.7184569771284 319.13875857335483" stroke="rgb(132, 0, 0)" fill="none" stroke-width="3.411287571542px" stroke-linecap="round"/><path d="M 655.2917409099641 319.9311665633483 L 655.2917409099641 319.9311665633483 L 653.8544200827902 322.5965326507276 L 652.3643950028777 324.99425877676816 L 650.8271217101009 327.13332674414596 L 649.248056244334 329.022718355537 L 647.632654645451 330.6714154136172 L 645.9863729533262 332.08839972106256 L 644.3146672078336 333.282653080549 L 642.6229934488475 334.2631572947525 L 640.916807716242 335.03889416634905 L 639.2015660498914 335.6188454980146 L 637.4827244896696 336.0119930924251 L 635.765739075451 336.22731875225656 L 634.0560658471097 336.2738042801849 L 632.3591608445198 336.1604314788861 L 630.6804801075555 335.8961821510361 L 629.0254796760909 335.4900380993109 L 627.3996155900003 334.95098112638647 L 625.8083438891576 334.2879930349387 L 624.2571206134373 333.51005562764374 L 622.7514018027133 332.6261507071773 L 621.2966434968599 331.64526007621555 L 619.8983017357513 330.57636553743436 L 618.5618325592615 329.4284488935097 L 617.2926920072647 328.2104919471176 L 616.0963361196351 326.9314765009339 L 614.978220936247 325.60038435763465 L 613.9438024969743 324.22619731989585 L 612.9985368416912 322.81789719039335 L 612.1478800102722 321.3844657718032 L 611.3972880425911 319.9348848668014 L 611.3972880425911 319.9348848668014" stroke="rgb(132, 0, 0)" fill="none" stroke-width="3.411287571542px" stroke-linecap="round"/><path d="M 655.3133684731675 294.98991272565166 L 655.3133684731675 294.98991272565166 L 653.8760476459936 292.32454663827235 L 652.3860225660812 289.9268205122318 L 650.8487492733044 287.787752544854 L 649.2696838075375 285.898360933463 L 647.6542822086545 284.2496638753828 L 646.0080005165296 282.8326795679374 L 644.336294771037 281.638426208451 L 642.6446210120511 280.6579219942475 L 640.9384352794456 279.8821851226509 L 639.2231936130948 279.3022337909854 L 637.5043520528732 278.9090861965749 L 635.7873666386546 278.6937605367434 L 634.0776934103133 278.6472750088151 L 632.3807884077233 278.7606478101139 L 630.702107670759 279.0248971379639 L 629.0471072392944 279.4310411896891 L 627.4212431532037 279.9700981626135 L 625.8299714523612 280.63308625406125 L 624.2787481766408 281.4110236613563 L 622.7730293659168 282.29492858182266 L 621.3182710600635 283.2758192127844 L 619.9199292989548 284.3447137515656 L 618.583460122465 285.49263039549027 L 617.3143195704682 286.71058734188244 L 616.1179636828386 287.9896027880661 L 614.9998484994504 289.3206949313653 L 613.9654300601778 290.6948819691042 L 613.0201644048948 292.1031820986066 L 612.1695075734757 293.53661351719677 L 611.4189156057945 294.9861944221986 L 611.4189156057945 294.9861944221986" stroke="rgb(132, 0, 0)" fill="none" stroke-width="3.411287571542px" stroke-linecap="round"/><text x="602.7295645084979" y="311.0444554235998" fill="rgb(15, 15, 15)" font-family="sans-serif" text-anchor="end" dominant-baseline="middle" font-size="30.701588143878px">JP1</text></g><g class="trace" data-circuit-json-type="schematic_trace" data-schematic-trace-id="schematic_trace_0"><path d="M 743.6478503786185 184.31707422427004 L 584.5154918443393 184.31707422427004 L 584.5154918443393 191.03210400639 L 425.38313331006003 191.03210400639" class="trace-invisible-hover-outline" stroke="rgb(0, 150, 0)" fill="none" stroke-width="27.290300572336px" stroke-linecap="round" opacity="0" stroke-linejoin="round"/><path d="M 743.6478503786185 184.31707422427004 L 584.5154918443393 184.31707422427004 L 584.5154918443393 191.03210400639 L 425.38313331006003 191.03210400639" stroke="rgb(0, 150, 0)" fill="none" stroke-width="3.411287571542px" stroke-linecap="round" stroke-linejoin="round"/></g><g class="trace" data-circuit-json-type="schematic_trace" data-schematic-trace-id="schematic_trace_1"><path d="M 907.0292387666141 184.31707422427004 L 786.2889450228935 184.31707422427004 L 786.2889450228935 116.09132279343004 L 425.38313331006003 116.09132279343004 L 425.38313331006003 156.91922829096998" class="trace-invisible-hover-outline" stroke="rgb(0, 150, 0)" fill="none" stroke-width="27.290300572336px" stroke-linecap="round" opacity="0" stroke-linejoin="round"/><path d="M 907.0292387666141 184.31707422427004 L 786.2889450228935 184.31707422427004 L 786.2889450228935 116.09132279343004 L 425.38313331006003 116.09132279343004 L 425.38313331006003 156.91922829096998" stroke="rgb(0, 150, 0)" fill="none" stroke-width="3.411287571542px" stroke-linecap="round" stroke-linejoin="round"/></g><g class="trace" data-circuit-json-type="schematic_trace" data-schematic-trace-id="schematic_trace_2"><path d="M 633.3108365397275 231.48708893761173 L 529.3469849248938 231.48708893761173 L 529.3469849248938 225.14497972181 L 425.38313331006003 225.14497972181" class="trace-invisible-hover-outline" stroke="rgb(0, 150, 0)" fill="none" stroke-width="27.290300572336px" stroke-linecap="round" opacity="0" stroke-linejoin="round"/><path d="M 633.3108365397275 231.48708893761173 L 529.3469849248938 231.48708893761173 L 529.3469849248938 225.14497972181 L 425.38313331006003 225.14497972181" stroke="rgb(0, 150, 0)" fill="none" stroke-width="3.411287571542px" stroke-linecap="round" stroke-linejoin="round"/></g><g class="trace" data-circuit-json-type="schematic_trace" data-schematic-trace-id="schematic_trace_3"><path d="M 743.5546369457263 372.37818554593906 L 743.9973924920828 372.37818554593906 L 743.9973924920828 404.237577227765" class="trace-invisible-hover-outline" stroke="rgb(0, 150, 0)" fill="none" stroke-width="27.290300572336px" stroke-linecap="round" opacity="0" stroke-linejoin="round"/><path d="M 743.5546369457263 372.37818554593906 L 743.9973924920828 372.37818554593906 L 743.9973924920828 404.237577227765" stroke="rgb(0, 150, 0)" fill="none" stroke-width="3.411287571542px" stroke-linecap="round" stroke-linejoin="round"/></g><g class="trace" data-circuit-json-type="schematic_trace" data-schematic-trace-id="schematic_trace_4"><path d="M 906.9360253337218 372.37818554593906 L 906.8863740332133 372.37818554593906 L 906.8863740332133 404.237577227765" class="trace-invisible-hover-outline" stroke="rgb(0, 150, 0)" fill="none" stroke-width="27.290300572336px" stroke-linecap="round" opacity="0" stroke-linejoin="round"/><path d="M 906.9360253337218 372.37818554593906 L 906.8863740332133 372.37818554593906 L 906.8863740332133 404.237577227765" stroke="rgb(0, 150, 0)" fill="none" stroke-width="3.411287571542px" stroke-linecap="round" stroke-linejoin="round"/></g><g class="trace" data-circuit-json-type="schematic_trace" data-schematic-trace-id="schematic_trace_5"><path d="M 633.2896183310324 383.5625617799598 L 633.4716751741221 383.5625617799598 L 633.4716751741221 421.294015085475" class="trace-invisible-hover-outline" stroke="rgb(0, 150, 0)" fill="none" stroke-width="27.290300572336px" stroke-linecap="round" opacity="0" stroke-linejoin="round"/><path d="M 633.2896183310324 383.5625617799598 L 633.4716751741221 383.5625617799598 L 633.4716751741221 421.294015085475" stroke="rgb(0, 150, 0)" fill="none" stroke-width="3.411287571542px" stroke-linecap="round" stroke-linejoin="round"/></g><g class="trace" data-circuit-json-type="schematic_trace" data-schematic-trace-id="schematic_trace_6"><path d="M 425.38313331006003 259.25785543723 L 493.6088847409 259.25785543723 L 493.6088847409 341.128757154238" class="trace-invisible-hover-outline" stroke="rgb(0, 150, 0)" fill="none" stroke-width="27.290300572336px" stroke-linecap="round" opacity="0" stroke-linejoin="round"/><path d="M 425.38313331006003 259.25785543723 L 493.6088847409 259.25785543723 L 493.6088847409 341.128757154238" stroke="rgb(0, 150, 0)" fill="none" stroke-width="3.411287571542px" stroke-linecap="round" stroke-linejoin="round"/></g><g class="trace" data-circuit-json-type="schematic_trace" data-schematic-trace-id="schematic_trace_7"><path d="M 425.38313331006003 259.25785543723 L 493.6088847409 259.25785543723 L 493.6088847409 341.128757154238" class="trace-invisible-hover-outline" stroke="rgb(0, 150, 0)" fill="none" stroke-width="27.290300572336px" stroke-linecap="round" opacity="0" stroke-linejoin="round"/><path d="M 425.38313331006003 259.25785543723 L 493.6088847409 259.25785543723 L 493.6088847409 341.128757154238" stroke="rgb(0, 150, 0)" fill="none" stroke-width="3.411287571542px" stroke-linecap="round" stroke-linejoin="round"/></g><rect class="component-overlay" x="704.7266499684913" y="404.05277072357666" width="76.63820831595456" height="82.45583519690041" fill="transparent"/><path d="M 743.8121254640724 404.05277072357666 L 743.8121254640724 460.27648675283325" stroke="rgb(132, 0, 0)" fill="none" stroke-width="3.411287571542px" stroke-linecap="round"/><path d="M 704.7266499684913 460.27089224121596 L 781.3648582844459 460.27089224121596" stroke="rgb(132, 0, 0)" fill="none" stroke-width="3.411287571542px" stroke-linecap="round"/><path d="M 714.3064324041499 473.38974908084657 L 771.7850758487872 473.38974908084657" stroke="rgb(132, 0, 0)" fill="none" stroke-width="3.411287571542px" stroke-linecap="round"/><path d="M 733.4659802190291 486.50860592047707 L 752.6255280339084 486.50860592047707" stroke="rgb(132, 0, 0)" fill="none" stroke-width="3.411287571542px" stroke-linecap="round"/><text x="740.1389874585387" y="506.48696509115337" fill="rgb(15, 15, 15)" font-family="sans-serif" text-anchor="middle" dominant-baseline="hanging" font-size="30.701588143878px">GND</text><rect class="component-overlay" x="867.6156315096217" y="404.05277072357666" width="76.63820831595456" height="82.45583519690041" fill="transparent"/><path d="M 906.7011070052029 404.05277072357666 L 906.7011070052029 460.27648675283325" stroke="rgb(132, 0, 0)" fill="none" stroke-width="3.411287571542px" stroke-linecap="round"/><path d="M 867.6156315096217 460.27089224121596 L 944.2538398255763 460.27089224121596" stroke="rgb(132, 0, 0)" fill="none" stroke-width="3.411287571542px" stroke-linecap="round"/><path d="M 877.1954139452803 473.38974908084657 L 934.6740573899176 473.38974908084657" stroke="rgb(132, 0, 0)" fill="none" stroke-width="3.411287571542px" stroke-linecap="round"/><path d="M 896.3549617601595 486.50860592047707 L 915.5145095750388 486.50860592047707" stroke="rgb(132, 0, 0)" fill="none" stroke-width="3.411287571542px" stroke-linecap="round"/><text x="903.0279689996692" y="506.48696509115337" fill="rgb(15, 15, 15)" font-family="sans-serif" text-anchor="middle" dominant-baseline="hanging" font-size="30.701588143878px">GND</text><rect class="component-overlay" x="594.2009326505305" y="421.1092085812866" width="76.63820831595456" height="82.45583519690041" fill="transparent"/><path d="M 633.2864081461116 421.1092085812866 L 633.2864081461116 477.3329246105432" stroke="rgb(132, 0, 0)" fill="none" stroke-width="3.411287571542px" stroke-linecap="round"/><path d="M 594.2009326505305 477.3273300989259 L 670.839140966485 477.3273300989259" stroke="rgb(132, 0, 0)" fill="none" stroke-width="3.411287571542px" stroke-linecap="round"/><path d="M 603.780715086189 490.44618693855654 L 661.2593585308264 490.44618693855654" stroke="rgb(132, 0, 0)" fill="none" stroke-width="3.411287571542px" stroke-linecap="round"/><path d="M 622.9402629010683 503.56504377818703 L 642.0998107159476 503.56504377818703" stroke="rgb(132, 0, 0)" fill="none" stroke-width="3.411287571542px" stroke-linecap="round"/><text x="629.6132701405779" y="523.5434029488633" fill="rgb(15, 15, 15)" font-family="sans-serif" text-anchor="middle" dominant-baseline="hanging" font-size="30.701588143878px">GND</text><rect class="component-overlay" x="454.3381422173084" y="340.94395065004966" width="76.63820831595461" height="82.45583519690041" fill="transparent"/><path d="M 493.4236177128896 340.94395065004966 L 493.4236177128896 397.16766667930625" stroke="rgb(132, 0, 0)" fill="none" stroke-width="3.411287571542px" stroke-linecap="round"/><path d="M 454.3381422173084 397.16207216768896 L 530.976350533263 397.16207216768896" stroke="rgb(132, 0, 0)" fill="none" stroke-width="3.411287571542px" stroke-linecap="round"/><path d="M 463.9179246529671 410.28092900731957 L 521.3965680976044 410.28092900731957" stroke="rgb(132, 0, 0)" fill="none" stroke-width="3.411287571542px" stroke-linecap="round"/><path d="M 483.0774724678463 423.39978584695007 L 502.2370202827255 423.39978584695007" stroke="rgb(132, 0, 0)" fill="none" stroke-width="3.411287571542px" stroke-linecap="round"/><text x="489.7504797073559" y="443.37814501762637" fill="rgb(15, 15, 15)" font-family="sans-serif" text-anchor="middle" dominant-baseline="hanging" font-size="30.701588143878px">GND</text><rect class="component-overlay" x="454.3381422173084" y="340.94395065004966" width="76.63820831595461" height="82.45583519690041" fill="transparent"/><path d="M 493.4236177128896 340.94395065004966 L 493.4236177128896 397.16766667930625" stroke="rgb(132, 0, 0)" fill="none" stroke-width="3.411287571542px" stroke-linecap="round"/><path d="M 454.3381422173084 397.16207216768896 L 530.976350533263 397.16207216768896" stroke="rgb(132, 0, 0)" fill="none" stroke-width="3.411287571542px" stroke-linecap="round"/><path d="M 463.9179246529671 410.28092900731957 L 521.3965680976044 410.28092900731957" stroke="rgb(132, 0, 0)" fill="none" stroke-width="3.411287571542px" stroke-linecap="round"/><path d="M 483.0774724678463 423.39978584695007 L 502.2370202827255 423.39978584695007" stroke="rgb(132, 0, 0)" fill="none" stroke-width="3.411287571542px" stroke-linecap="round"/><text x="489.7504797073559" y="443.37814501762637" fill="rgb(15, 15, 15)" font-family="sans-serif" text-anchor="middle" dominant-baseline="hanging" font-size="30.701588143878px">GND</text></svg>