<svg xmlns="http://www.w3.org/2000/svg" width="1200" height="600" style="background-color: rgb(245, 241, 237)" data-real-to-screen-transform="matrix(157.0845114672,0,0,-157.0845114672,332.9165716379,246.9159074249)"><style>
              .boundary { fill: rgb(245, 241, 237); }
              .schematic-boundary { fill: none; stroke: #fff; }
              .component { fill: none; stroke: rgb(132, 0, 0); }
              .chip { fill: rgb(255, 255, 194); stroke: rgb(132, 0, 0); }
              .component-pin { fill: none; stroke: rgb(132, 0, 0); }
              .trace:hover {
                filter: invert(1);
              }
              .trace:hover .trace-crossing-outline {
                opacity: 0;
              }
              .trace:hover .trace-junction {
                filter: invert(1);
              }
              .text { font-family: sans-serif; fill: rgb(0, 150, 0); }
              .pin-number { fill: rgb(169, 0, 0); }
              .port-label { fill: rgb(0, 100, 100); }
              .component-name { fill: rgb(0, 100, 100); }
            </style><rect class="boundary" x="0" y="0" width="1200" height="600"/><g data-circuit-json-type="schematic_component" data-schematic-component-id="schematic_component_0"><rect class="component chip" x="380.04192507806" y="160.9906796523416" width="62.83380458687998" height="125.66760917376001" stroke-width="3.1416902293440003px" fill="rgb(255, 255, 194)" stroke="rgb(132, 0, 0)"/><rect class="component-overlay" x="380.04192507806" y="160.9906796523416" width="62.83380458687998" height="125.66760917376001" fill="transparent"/><text x="380.04192507806" y="307.0792753168376" fill="#006464" text-anchor="start" dominant-baseline="middle" font-family="sans-serif" font-size="28.275212064096px" transform="rotate(0, 380.04192507806, 307.0792753168376)"></text><text x="380.04192507806" y="140.56969316160558" fill="#006464" text-anchor="start" dominant-baseline="middle" font-family="sans-serif" font-size="28.275212064096px" transform="rotate(0, 380.04192507806, 140.56969316160558)">U1</text><line class="component-pin" x1="502.56784402247604" y1="255.2413865326616" x2="442.87572966494" y2="255.2413865326616" stroke-width="3.1416902293440003px"/><circle class="component-pin" cx="505.70953425182006" cy="255.2413865326616" r="3.1416902293440003" stroke-width="3.1416902293440003px"/><text class="pin-number" x="474.29263195838007" y="252.09969630331761" style="font-family: sans-serif;" fill="rgb(169, 0, 0)" text-anchor="middle" dominant-baseline="auto" font-size="23.56267672008px" transform="">1</text><line class="component-pin" x1="502.56784402247604" y1="208.1160330925016" x2="442.87572966494" y2="208.1160330925016" stroke-width="3.1416902293440003px"/><circle class="component-pin" cx="505.70953425182006" cy="208.1160330925016" r="3.1416902293440003" stroke-width="3.1416902293440003px"/><text class="pin-number" x="474.29263195838007" y="204.9743428631576" style="font-family: sans-serif;" fill="rgb(169, 0, 0)" text-anchor="middle" dominant-baseline="auto" font-size="23.56267672008px" transform="">2</text></g><g data-circuit-json-type="schematic_component" data-schematic-component-id="schematic_component_1"><rect class="component-overlay" x="762.3009511395" y="217.39205646638123" width="88.88228086712365" height="154.96836317942075" fill="transparent"/><path d="M 803.8910233983836 372.360419645802 L 803.8910233983836 301.7038063878554" stroke="rgb(132, 0, 0)" fill="none" stroke-width="3.1416902293440003px" stroke-linecap="round"/><path d="M 803.8910233983836 288.0473659228826 L 803.8910233983836 217.39205646638123" stroke="rgb(132, 0, 0)" fill="none" stroke-width="3.1416902293440003px" stroke-linecap="round"/><path d="M 845.8199897823064 301.104843145631 L 762.3009511395 301.104843145631" stroke="rgb(132, 0, 0)" fill="none" stroke-width="3.1416902293440003px" stroke-linecap="round"/><path d="M 762.8463799802165 278.9742744996952 L 762.8463799802165 278.9742744996952 L 763.040394915262 279.08967061353434 L 763.2345548045961 279.2044913274678 L 763.4288597957208 279.318735152994 L 763.6233100361387 279.4324006016117 L 763.817905673352 279.54548618481937 L 764.0126468548632 279.65799041411566 L 764.2075337281746 279.7699118009991 L 764.4025664407885 279.88124885696834 L 764.5977451402073 279.99200009352194 L 764.7930699739334 280.1021640221585 L 764.9885410894691 280.2117391543765 L 765.1841586343168 280.3207240016747 L 765.3799227559788 280.4291170755516 L 765.5758336019575 280.5369168875057 L 765.7718913197551 280.64412194903576 L 765.9680960568743 280.75073077164024 L 766.1644479608171 280.85674186681774 L 766.3609471790861 280.9621537460669 L 766.5575938591835 281.0669649208863 L 766.7543881486117 281.17117390277446 L 766.9513301948732 281.27477920323 L 767.1484201454701 281.37777933375156 L 767.3456581479049 281.48017280583764 L 767.54304434968 281.5819581309869 L 767.7405788982977 281.6831338206979 L 767.9382619412604 281.7836983864692 L 768.1360936260704 281.8836503397994 L 768.33407410023 281.9829881921871 L 768.5322035112416 282.08171045513086 L 768.7304820066078 282.17981564012933 L 768.9289097338306 282.27730225868106 L 769.1274868404124 282.37416882228456 L 769.3262134738557 282.4704138424385 L 769.5250897816628 282.5660358306415 L 769.7241159113362 282.66103329839206 L 769.923292010378 282.75540475718884 L 770.1226182262907 282.84914871853033 L 770.3220947065766 282.9422636939152 L 770.5217215987382 283.03474819484205 L 770.7214990502777 283.1266007328094 L 770.9214272086974 283.2178198193158 L 771.1215062214998 283.30840396586 L 771.3217362361872 283.39835168394046 L 771.522117400262 283.48766148505575 L 771.7226498612266 283.5763318807045 L 771.9233337665833 283.6643613823853 L 772.1241692638342 283.7517485015968 L 772.3251565004821 283.8384917498375 L 772.5262956240291 283.92458963860594 L 772.7275867819777 284.0100406794008 L 772.92903012183 284.0948433837207 L 773.1306257910886 284.17899626306405 L 773.3323739372559 284.2624978289296 L 773.5342747078339 284.3453465928159 L 773.7363282503253 284.4275410662215 L 773.9385347122324 284.509079760645 L 774.1408942410575 284.589961187585 L 774.3434069843029 284.6701838585401 L 774.546073089471 284.7497462850089 L 774.7488927040641 284.82864697848987 L 774.9518659755848 284.9068844504817 L 775.1549930515351 284.984457212483 L 775.3582740794177 285.0613637759923 L 775.5617092067348 285.1376026525082 L 775.7652985809887 285.2131723535292 L 775.9690423496818 285.2880713905541 L 776.1729406603164 285.36229827508123 L 776.376993660395 285.43585151860935 L 776.5812014974199 285.508729632637 L 776.7855643188933 285.5809311286628 L 776.9900822723179 285.65245451818527 L 777.1947555051956 285.72329831270304 L 777.3995841650292 285.7934610237147 L 777.6045683993208 285.8629411627188 L 777.8097083555728 285.9317372412139 L 778.0150041812876 285.9998477706987 L 778.2204560239675 286.0672712626717 L 778.4260640311148 286.1340062286315 L 778.6318283502321 286.2000511800767 L 778.8377491288215 286.26540462850585 L 779.0438265143855 286.3300650854176 L 779.2500606544264 286.3940310623105 L 779.4564516964465 286.4573010706831 L 779.6629997879483 286.519873622034 L 779.869705076434 286.58174722786185 L 780.0765677094062 286.64292039966523 L 780.2835878343669 286.70339164894267 L 780.4907655988187 286.76315948719275 L 780.6981011502639 286.82222242591405 L 780.9055946362049 286.88057897660525 L 781.1132462041439 286.9382276507649 L 781.3210560015835 286.9951669598915 L 781.5290241760259 287.05139541548374 L 781.7371508749735 287.10691152904013 L 781.9454362459286 287.1617138120593 L 782.1538804363936 287.2158007760398 L 782.3624835938709 287.2691709324803 L 782.5712458658628 287.3218227928793 L 782.7801673998716 287.37375486873543 L 782.9892483433997 287.4249656715472 L 782.9892483433997 287.4249656715472 L 783.2525323478453 287.4884803868002 L 783.5159902375877 287.55105325219444 L 783.7796203654075 287.612686348126 L 784.0434210840848 287.6733817549906 L 784.3073907464003 287.7331415531841 L 784.5715277051343 287.7919678231024 L 784.835830313067 287.8498626451414 L 785.1002969229792 287.9068280996969 L 785.3649258876509 287.9628662671647 L 785.6297155598627 288.0179792279407 L 785.894664292395 288.07216906242076 L 786.1597704380281 288.1254378510007 L 786.4250323495424 288.17778767407646 L 786.6904483797184 288.2292206120438 L 786.9560168813364 288.2797387452986 L 787.2217362071768 288.3293441542367 L 787.4876047100202 288.378038919254 L 787.7536207426466 288.4258251207463 L 788.0197826578368 288.4727048391095 L 788.2860888083709 288.5186801547394 L 788.5525375470295 288.56375314803194 L 788.8191272265929 288.60792589938285 L 789.0858561998414 288.65120048918806 L 789.3527228195555 288.6935789978434 L 789.6197254385156 288.7350635057448 L 789.8868624095022 288.775656093288 L 790.1541320852955 288.8153588408689 L 790.421532818676 288.85417382888335 L 790.6890629624241 288.89210313772725 L 790.9567208693202 288.92914884779634 L 791.2245048921446 288.9653130394866 L 791.4924133836778 289.0005977931938 L 791.7604446967001 289.03500518931384 L 792.0285971839921 289.0685373082425 L 792.296869198334 289.1011962303757 L 792.5652590925062 289.1329840361093 L 792.8337652192891 289.16390280583914 L 793.1023859314632 289.19395461996106 L 793.3711195818089 289.22314155887085 L 793.6399645231064 289.2514657029645 L 793.9089191081364 289.27892913263776 L 794.177981689679 289.30553392828654 L 794.4471506205147 289.3312821703066 L 794.716424253424 289.356175939094 L 794.9858009411871 289.3802173150443 L 795.2552790365846 289.4034083785536 L 795.5248568923968 289.42575121001767 L 795.794532861404 289.4472478898323 L 796.0643052963868 289.4679004983934 L 796.3341725501255 289.4877111160968 L 796.6041329754005 289.5066818233384 L 796.874184924992 289.52481470051407 L 797.1443267516808 289.54211182801953 L 797.414556808247 289.5585752862508 L 797.6848734474711 289.5742071556036 L 797.9552750221334 289.5890095164738 L 798.2257598850143 289.6029844492574 L 798.4963263888944 289.61613403435007 L 798.7669728865538 289.6284603521477 L 799.0376977307732 289.6399654830463 L 799.3084992743328 289.6506515074415 L 799.579375870013 289.66052050572927 L 799.8503258705942 289.66957455830544 L 800.121347628857 289.6778157455659 L 800.3924394975816 289.68524614790647 L 800.6635998295483 289.691867845723 L 800.9348269775377 289.69768291941136 L 801.20611929433 289.70269344936736 L 801.4774751327059 289.7069015159869 L 801.7488928454454 289.7103091996658 L 802.0203707853293 289.71291858079996 L 802.2919073051377 289.71473173978524 L 802.5635007576511 289.71575075701736 L 802.8351494956498 289.71597771289237 L 803.1068518719145 289.71541468780595 L 803.3786062392252 289.71406376215407 L 803.6504109503626 289.7119270163325 L 803.9222643581069 289.70900653073716 L 804.1941648152385 289.70530438576384 L 804.4661106745381 289.70082266180844 L 804.7381002887856 289.69556343926683 L 805.0101320107618 289.6895287985348 L 805.282204193247 289.6827208200083 L 805.5543151890215 289.675141584083 L 805.8264633508657 289.666793171155 L 806.0986470315601 289.65767766161997 L 806.370864583885 289.6477971358738 L 806.6431143606208 289.63715367431234 L 806.9153947145479 289.62574935733153 L 807.1877039984469 289.6135862653271 L 807.4600405650979 289.600666478695 L 807.7324027672814 289.58699207783104 L 808.0047889577778 289.5725651431311 L 808.2771974893676 289.55738775499094 L 808.5496267148311 289.54146199380654 L 808.8220749869486 289.5247899399737 L 809.0945406585007 289.5073736738882 L 809.3670220822676 289.48921527594604 L 809.6395176110299 289.47031682654296 L 809.9120255975678 289.4506804060748 L 809.9120255975678 289.4506804060748 L 810.1430025634177 289.42997533700475 L 810.374044604291 289.4089502587924 L 810.6051487839015 289.38760040263463 L 810.8363121659626 289.3659209997286 L 811.0675318141875 289.34390728127113 L 811.29880479229 289.32155447845935 L 811.5301281639834 289.2988578224901 L 811.7614989929813 289.2758125445605 L 811.992914342997 289.25241387586743 L 812.2243712777441 289.2286570476079 L 812.4558668609361 289.2045372909789 L 812.6873981562865 289.1800498371775 L 812.9189622275087 289.15518991740055 L 813.1505561383161 289.1299527628451 L 813.3821769524224 289.10433360470813 L 813.6138217335408 289.0783276741866 L 813.8454875453851 289.0519302024775 L 814.0771714516685 289.0251364207778 L 814.3088705161047 288.9979415602846 L 814.5405818024069 288.97034085219474 L 814.7723023742889 288.9423295277052 L 815.0040292954639 288.9139028180131 L 815.2357596296455 288.88505595431536 L 815.4674904405472 288.8557841678089 L 815.6992187918825 288.8260826896908 L 815.9309417473647 288.79594675115794 L 816.1626563707076 288.7653715834074 L 816.3943597256243 288.7343524176361 L 816.6260488758286 288.702884485041 L 816.8577208850338 288.6709630168192 L 817.0893728169534 288.63858324416765 L 817.3210017353009 288.6057403982832 L 817.5526047037898 288.57242971036305 L 817.7841787861336 288.538646411604 L 818.0157210460457 288.5043857332031 L 818.2472285472396 288.46964290635736 L 818.4786983534287 288.43441316226375 L 818.7101275283267 288.3986917321192 L 818.9415131356469 288.3624738471208 L 819.1728522391028 288.3257547384654 L 819.4041419024079 288.2885296373501 L 819.6353791892757 288.25079377497184 L 819.8665611634195 288.2125423825276 L 820.0976848885532 288.1737706912144 L 820.3287474283899 288.1344739322291 L 820.5597458466431 288.09464733676884 L 820.7906772070264 288.05428613603056 L 821.0215385732533 288.0133855612112 L 821.2523270090372 287.97194084350775 L 821.4830395780916 287.9299472141172 L 821.7136733441299 287.8873999042366 L 821.9442253708658 287.84429414506286 L 822.1746927220125 287.800625167793 L 822.4050724612837 287.75638820362394 L 822.6353616523928 287.71157848375276 L 822.8655573590532 287.66619123937636 L 823.0956566449785 287.6202217016918 L 823.325656573882 287.573665101896 L 823.5555542094775 287.52651667118596 L 823.7853466154781 287.4787716407587 L 824.0150308555976 287.4304252418111 L 824.2446039935493 287.3814727055403 L 824.4740630930467 287.3319092631432 L 824.7034052178032 287.28173014581677 L 824.9326274315324 287.23093058475797 L 825.1617267979477 287.1795058111639 L 825.3907003807627 287.1274510562314 L 825.6195452436908 287.07476155115756 L 825.8482584504455 287.0214325271393 L 826.0768370647403 286.9674592153737 L 826.3052781502886 286.91283684705763 L 826.5335787708038 286.85756065338813 L 826.7617359899996 286.8016258655622 L 826.9897468715893 286.7450277147767 L 827.2176084792865 286.6877614322288 L 827.4453178768047 286.62982224911536 L 827.6728721278571 286.57120539663345 L 827.9002682961575 286.51190610597996 L 828.1275034454193 286.45191960835194 L 828.3545746393559 286.3912411349463 L 828.5814789416808 286.3298659169601 L 828.8082134161074 286.26778918559035 L 829.0347751263494 286.2050061720339 L 829.2611611361201 286.14151210748787 L 829.487368509133 286.0773022231492 L 829.7133943091017 286.01237175021487 L 829.9392355997394 285.9467159198818 L 830.1648894447599 285.8803299633471 L 830.3903529078765 285.8132091118076 L 830.6156230528027 285.7453485964605 L 830.8406969432519 285.67674364850257 L 831.0655716429378 285.6073894991309 L 831.2902442155738 285.53728137954243 L 831.5147117248732 285.46641452093417 L 831.7389712345497 285.39478415450316 L 831.9630198083166 285.32238551144627 L 832.1868545098874 285.24921382296054 L 832.4104724029758 285.17526432024295 L 832.633870551295 285.1005322344905 L 832.8570460185587 285.02501279690017 L 832.8570460185587 285.02501279690017 L 832.9877094880214 284.9803708953922 L 833.118304462291 284.9354084425175 L 833.248830155882 284.8901254524138 L 833.379285783309 284.8445219392187 L 833.5096705590865 284.7985979170698 L 833.6399836977293 284.75235340010465 L 833.770224413752 284.7057884024609 L 833.9003919216691 284.6589029382761 L 834.0304854359953 284.61169702168803 L 834.1605041712451 284.5641706668341 L 834.290447341933 284.51632388785197 L 834.420314162574 284.46815669887934 L 834.5501038476824 284.41966911405365 L 834.6798156117729 284.37086114751264 L 834.8094486693601 284.3217328133939 L 834.9390022349586 284.272284125835 L 835.0684755230831 284.22251509897353 L 835.197867748248 284.1724257469471 L 835.3271781249681 284.1220160838934 L 835.456405867758 284.0712861239499 L 835.5855501911321 284.02023588125434 L 835.7146103096053 283.96886536994424 L 835.8435854376921 283.91717460415725 L 835.972474789907 283.86516359803096 L 836.1012775807648 283.81283236570295 L 836.2299930247798 283.76018092131085 L 836.358620336467 283.70720927899225 L 836.4871587303406 283.6539174528848 L 836.6156074209156 283.60030545712607 L 836.7439656227064 283.5463733058537 L 836.8722325502276 283.49212101320524 L 837.000407417994 283.4375485933183 L 837.1284894405198 283.38265606033053 L 837.2564778323201 283.3274434283796 L 837.3843718079091 283.2719107116029 L 837.5121705818018 283.2160579241382 L 837.6398733685124 283.15988508012316 L 837.7674793825558 283.10339219369524 L 837.8949878384465 283.0465792789921 L 838.0223979506991 282.9894463501514 L 838.1497089338283 282.93199342131066 L 838.2769200023486 282.87422050660757 L 838.4040303707746 282.81612762017966 L 838.531039253621 282.75771477616456 L 838.6579458654024 282.69898198869987 L 838.7847494206334 282.6399292719233 L 838.9114491338285 282.58055663997226 L 839.0380442195024 282.5208641069845 L 839.1645338921697 282.4608516870976 L 839.2909173663451 282.40051939444913 L 839.417193856543 282.33986724317674 L 839.5433625772782 282.278895247418 L 839.6694227430652 282.21760342131057 L 839.7953735684187 282.15599177899196 L 839.9212142678532 282.0940603345999 L 840.0469440558834 282.0318091022719 L 840.1725621470239 281.96923809614555 L 840.2980677557892 281.9063473303586 L 840.423460096694 281.8431368190485 L 840.5487383842529 281.7796065763529 L 840.6739018329806 281.7157566164094 L 840.7989496573916 281.65158695335566 L 840.9238810720004 281.5870976013293 L 841.0486952913219 281.52228857446784 L 841.1733915298705 281.45715988690887 L 841.2979690021608 281.3917115527901 L 841.4224269227075 281.32594358624914 L 841.5467645060252 281.2598560014235 L 841.6709809666283 281.1934488124508 L 841.7950755190318 281.1267220334687 L 841.91904737775 281.0596756786148 L 842.0428957572976 280.9923097620266 L 842.1666198721892 280.9246242978419 L 842.2902189369395 280.85661930019813 L 842.413692166063 280.78829478323297 L 842.5370387740744 280.71965076108404 L 842.6602579754882 280.6506872478889 L 842.783348984819 280.58140425778527 L 842.9063110165815 280.5118018049106 L 843.0291432852903 280.4418799034026 L 843.15184500546 280.3716385673988 L 843.2744153916052 280.30107781103686 L 843.3968536582404 280.23019764845435 L 843.5191590198805 280.15899809378897 L 843.6413306910398 280.0874791611782 L 843.763367886233 280.0156408647597 L 843.8852698199747 279.9434832186711 L 844.0070357067797 279.87100623705 L 844.1286647611624 279.79820993403393 L 844.2501561976375 279.7250943237606 L 844.3715092307194 279.65165942036754 L 844.4927230749231 279.5779052379924 L 844.6137969447628 279.5038317907728 L 844.7347300547535 279.4294390928463 L 844.8555216194095 279.3547271583505 L 844.9761708532455 279.2796960014231 L 845.0966769707762 279.20434563620154 L 845.2170391865161 279.1286760768236 L 845.3372567149798 279.0526873374268 L 845.457328770682 278.97637943214875" stroke="rgb(132, 0, 0)" fill="none" stroke-width="3.1416902293440003px" stroke-linecap="round"/><path d="M 839.7550510452644 342.878594323773 L 839.7550510452644 320.81337283460743 L 840.5362323207906 320.81337283460743 L 840.5362323207906 342.878594323773" stroke="rgb(132, 0, 0)" fill="none" stroke-width="3.1416902293440003px" stroke-linecap="round"/><path d="M 851.1832320066236 332.2454652003024 L 829.1180105174582 332.2454652003024 L 829.1180105174582 331.464283924776 L 851.1832320066236 331.464283924776" stroke="rgb(132, 0, 0)" fill="none" stroke-width="3.1416902293440003px" stroke-linecap="round"/><text x="834.0783152614113" y="270.17614759217844" fill="rgb(15, 15, 15)" font-family="sans-serif" text-anchor="start" dominant-baseline="auto" font-size="28.275212064096px">C6</text><text x="834.0783152614113" y="348.5210976057784" fill="rgb(15, 15, 15)" font-family="sans-serif" text-anchor="start" dominant-baseline="hanging" font-size="28.275212064096px">10µF</text><circle cx="803.7492075014308" cy="217.39205646638123" r="3.1416902293440003px" stroke-width="3.1416902293440003px" fill="none" stroke="rgb(132, 0, 0)"/><circle cx="803.83508560385" cy="372.360419645802" r="3.1416902293440003px" stroke-width="3.1416902293440003px" fill="none" stroke="rgb(132, 0, 0)"/></g><g data-circuit-json-type="schematic_component" data-schematic-component-id="schematic_component_2"><rect class="component-overlay" x="574.7570589861516" y="212.73080921535916" width="83.12387684575924" height="166.24776939996963" fill="transparent"/><path d="M 616.3189974090309 212.73080921535916 L 616.3189974090309 283.3861029634094" stroke="rgb(132, 0, 0)" fill="none" stroke-width="3.1416902293440003px" stroke-linecap="round"/><path d="M 616.3189974090309 308.32326915882743 L 616.3189974090309 378.9785786153288" stroke="rgb(132, 0, 0)" fill="none" stroke-width="3.1416902293440003px" stroke-linecap="round"/><path d="M 574.7570589861516 283.3861029634095 L 657.8809358319108 283.3861029634094" stroke="rgb(132, 0, 0)" fill="none" stroke-width="3.1416902293440003px" stroke-linecap="round"/><path d="M 574.7570589861516 308.32326915882743 L 657.8809358319108 308.32326915882743" stroke="rgb(132, 0, 0)" fill="none" stroke-width="3.1416902293440003px" stroke-linecap="round"/><text x="651.9360882038859" y="263.56516909265156" fill="rgb(15, 15, 15)" font-family="sans-serif" text-anchor="start" dominant-baseline="auto" font-size="28.275212064096px">C16</text><text x="651.9360882038859" y="326.18730701953154" fill="rgb(15, 15, 15)" font-family="sans-serif" text-anchor="start" dominant-baseline="hanging" font-size="28.275212064096px">1µF</text><circle cx="616.4608133059836" cy="381.4626816627689" r="3.1416902293440003px" stroke-width="3.1416902293440003px" fill="none" stroke="rgb(132, 0, 0)"/><circle cx="616.3749352035646" cy="208.28979444941425" r="3.1416902293440003px" stroke-width="3.1416902293440003px" fill="none" stroke="rgb(132, 0, 0)"/></g><g class="trace" data-circuit-json-type="schematic_trace" data-schematic-trace-id="schematic_trace_0"><path d="M 803.7492075014306 217.3920564663812 L 804.1701060395001 217.3920564663812 L 804.1701060395001 168.3736516913" class="trace-invisible-hover-outline" stroke="rgb(0, 150, 0)" fill="none" stroke-width="25.133521834752003px" stroke-linecap="round" opacity="0" stroke-linejoin="round"/><path d="M 803.7492075014306 217.3920564663812 L 804.1701060395001 217.3920564663812 L 804.1701060395001 168.3736516913" stroke="rgb(0, 150, 0)" fill="none" stroke-width="3.1416902293440003px" stroke-linecap="round" stroke-linejoin="round"/></g><g class="trace" data-circuit-json-type="schematic_trace" data-schematic-trace-id="schematic_trace_1"><path d="M 616.3749352035646 208.28979444941427 L 505.70953425182006 208.28979444941427" class="trace-invisible-hover-outline" stroke="rgb(0, 150, 0)" fill="none" stroke-width="25.133521834752003px" stroke-linecap="round" opacity="0" stroke-linejoin="round"/><path d="M 616.3749352035646 208.28979444941427 L 505.70953425182006 208.28979444941427" stroke="rgb(0, 150, 0)" fill="none" stroke-width="3.1416902293440003px" stroke-linecap="round" stroke-linejoin="round"/></g><g class="trace" data-circuit-json-type="schematic_trace" data-schematic-trace-id="schematic_trace_2"><path d="M 616.3749352035646 208.28979444941427 L 803.7492075014306 208.28979444941427 L 803.7492075014306 217.3920564663812" class="trace-invisible-hover-outline" stroke="rgb(0, 150, 0)" fill="none" stroke-width="25.133521834752003px" stroke-linecap="round" opacity="0" stroke-linejoin="round"/><path d="M 616.3749352035646 208.28979444941427 L 803.7492075014306 208.28979444941427 L 803.7492075014306 217.3920564663812" stroke="rgb(0, 150, 0)" fill="none" stroke-width="3.1416902293440003px" stroke-linecap="round" stroke-linejoin="round"/></g><g class="trace" data-circuit-json-type="schematic_trace" data-schematic-trace-id="schematic_trace_3"><path d="M 803.83508560385 372.3604196458019 L 804.1701060395001 372.3604196458019 L 804.1701060395001 435.41732118554" class="trace-invisible-hover-outline" stroke="rgb(0, 150, 0)" fill="none" stroke-width="25.133521834752003px" stroke-linecap="round" opacity="0" stroke-linejoin="round"/><path d="M 803.83508560385 372.3604196458019 L 804.1701060395001 372.3604196458019 L 804.1701060395001 435.41732118554" stroke="rgb(0, 150, 0)" fill="none" stroke-width="3.1416902293440003px" stroke-linecap="round" stroke-linejoin="round"/></g><g class="trace" data-circuit-json-type="schematic_trace" data-schematic-trace-id="schematic_trace_4"><path d="M 616.4608133059836 381.4626816627689 L 616.454114836196 381.4626816627689 L 616.454114836196 435.41732118554" class="trace-invisible-hover-outline" stroke="rgb(0, 150, 0)" fill="none" stroke-width="25.133521834752003px" stroke-linecap="round" opacity="0" stroke-linejoin="round"/><path d="M 616.4608133059836 381.4626816627689 L 616.454114836196 381.4626816627689 L 616.454114836196 435.41732118554" stroke="rgb(0, 150, 0)" fill="none" stroke-width="3.1416902293440003px" stroke-linecap="round" stroke-linejoin="round"/></g><rect class="component-overlay" x="789.5006903938797" y="101.6899570635772" width="29.104539742386805" height="64.33583097707833" fill="transparent"/><path d="M 803.8230435198647 101.6899570635772 L 789.5006903938797 131.7042046287732" stroke="rgb(132, 0, 0)" fill="none" stroke-width="3.1416902293440003px" stroke-linecap="round"/><path d="M 804.2828770102823 101.70560268091933 L 818.6052301362665 131.71992878837108" stroke="rgb(132, 0, 0)" fill="none" stroke-width="3.1416902293440003px" stroke-linecap="round"/><path d="M 803.9887833879135 102.48193004504145 L 803.9887833879135 166.02578804065553" stroke="rgb(132, 0, 0)" fill="none" stroke-width="3.1416902293440003px" stroke-linecap="round"/><text x="803.2861600765716" y="92.48461619018565" fill="rgb(15, 15, 15)" font-family="sans-serif" text-anchor="middle" dominant-baseline="ideographic" font-size="28.275212064096px">V3_3</text><rect class="component-overlay" x="768.0029681192918" y="435.24712011736534" width="70.58141690230707" height="75.93927112788163" fill="transparent"/><path d="M 803.9994808431444 435.24712011736534 L 803.9994808431444 487.0274217196374" stroke="rgb(132, 0, 0)" fill="none" stroke-width="3.1416902293440003px" stroke-linecap="round"/><path d="M 768.0029681192918 487.02226934766134 L 838.5843850215989 487.02226934766134" stroke="rgb(132, 0, 0)" fill="none" stroke-width="3.1416902293440003px" stroke-linecap="round"/><path d="M 776.8256511227495 499.10433029645424 L 829.7617020181412 499.10433029645424" stroke="rgb(132, 0, 0)" fill="none" stroke-width="3.1416902293440003px" stroke-linecap="round"/><path d="M 794.4710014212135 511.18639124524697 L 812.1163517196775 511.18639124524697" stroke="rgb(132, 0, 0)" fill="none" stroke-width="3.1416902293440003px" stroke-linecap="round"/><text x="800.6166344717958" y="529.5858414494603" fill="rgb(15, 15, 15)" font-family="sans-serif" text-anchor="middle" dominant-baseline="hanging" font-size="28.275212064096px">GND</text><rect class="component-overlay" x="580.2869769159879" y="435.24712011736534" width="70.58141690230707" height="75.93927112788163" fill="transparent"/><path d="M 616.2834896398405 435.24712011736534 L 616.2834896398405 487.0274217196374" stroke="rgb(132, 0, 0)" fill="none" stroke-width="3.1416902293440003px" stroke-linecap="round"/><path d="M 580.2869769159879 487.02226934766134 L 650.868393818295 487.02226934766134" stroke="rgb(132, 0, 0)" fill="none" stroke-width="3.1416902293440003px" stroke-linecap="round"/><path d="M 589.1096599194456 499.10433029645424 L 642.0457108148373 499.10433029645424" stroke="rgb(132, 0, 0)" fill="none" stroke-width="3.1416902293440003px" stroke-linecap="round"/><path d="M 606.7550102179096 511.18639124524697 L 624.4003605163736 511.18639124524697" stroke="rgb(132, 0, 0)" fill="none" stroke-width="3.1416902293440003px" stroke-linecap="round"/><text x="612.9006432684919" y="529.5858414494603" fill="rgb(15, 15, 15)" font-family="sans-serif" text-anchor="middle" dominant-baseline="hanging" font-size="28.275212064096px">GND</text></svg>