<svg xmlns="http://www.w3.org/2000/svg" width="1200" height="600" style="background-color: rgb(245, 241, 237)" data-real-to-screen-transform="matrix(139.9159313797,0,0,-139.9159313797,441.2057386523,242.5396031823)" data-software-used-string="@tscircuit/core@0.0.555"><style>
              .boundary { fill: rgb(245, 241, 237); }
              .schematic-boundary { fill: none; stroke: #fff; }
              .component { fill: none; stroke: rgb(132, 0, 0); }
              .chip { fill: rgb(255, 255, 194); stroke: rgb(132, 0, 0); }
              .component-pin { fill: none; stroke: rgb(132, 0, 0); }
              .trace:hover {
                filter: invert(1);
              }
              .trace:hover .trace-crossing-outline {
                opacity: 0;
              }
              .trace:hover .trace-junction {
                filter: invert(1);
              }
              .text { font-family: sans-serif; fill: rgb(0, 150, 0); }
              .pin-number { fill: rgb(169, 0, 0); }
              .port-label { fill: rgb(0, 100, 100); }
              .component-name { fill: rgb(0, 100, 100); }
            </style><rect class="boundary" x="0" y="0" width="1200" height="600"/><g data-circuit-json-type="schematic_component" data-schematic-component-id="schematic_component_0"><rect class="component chip" x="413.22255237636" y="200.56482376839" width="55.96637255188" height="83.94955882782" stroke-width="2.798318627594px" fill="rgb(255, 255, 194)" stroke="rgb(132, 0, 0)"/><rect class="component-overlay" x="413.22255237636" y="200.56482376839" width="55.96637255188" height="83.94955882782" fill="transparent"/><text x="413.22255237636" y="302.703453675571" fill="#006464" text-anchor="start" dominant-baseline="middle" font-family="sans-serif" font-size="25.184867648346px" transform="rotate(0, 413.22255237636, 302.703453675571)"></text><text x="413.22255237636" y="182.37575268902899" fill="#006464" text-anchor="start" dominant-baseline="middle" font-family="sans-serif" font-size="25.184867648346px" transform="rotate(0, 413.22255237636, 182.37575268902899)">U1</text><line class="component-pin" x1="522.356978852526" y1="228.54801004433" x2="469.18892492824" y2="228.54801004433" stroke-width="2.798318627594px"/><text class="pin-number" x="497.17211120418" y="225.749691416736" style="font-family: sans-serif;" fill="rgb(169, 0, 0)" text-anchor="middle" dominant-baseline="auto" font-size="20.987389706955px" transform="">1</text><line class="component-pin" x1="522.356978852526" y1="256.53119632027" x2="469.18892492824" y2="256.53119632027" stroke-width="2.798318627594px"/><text class="pin-number" x="497.17211120418" y="253.732877692676" style="font-family: sans-serif;" fill="rgb(169, 0, 0)" text-anchor="middle" dominant-baseline="auto" font-size="20.987389706955px" transform="">2</text></g><g data-circuit-json-type="schematic_component" data-schematic-component-id="schematic_component_1"><rect class="component-overlay" x="613.1422785109329" y="439.5252134280892" width="147.21355459585732" height="64.28531210914343" fill="transparent"/><path d="M 667.8072789934572 485.30080911792834 L 704.8266978404718 503.81052553723265" stroke="rgb(132, 0, 0)" fill="none" stroke-width="2.798318627594px" stroke-linecap="round"/><path d="M 668.9574998821435 485.3321223033712 L 613.1422785109329 485.3321223033712" stroke="rgb(132, 0, 0)" fill="none" stroke-width="2.798318627594px" stroke-linecap="round"/><path d="M 704.8266978404718 466.79109269862454 L 667.8072789934572 485.30080911792834" stroke="rgb(132, 0, 0)" fill="none" stroke-width="2.798318627594px" stroke-linecap="round"/><path d="M 704.8266978404718 503.81052553723265 L 704.8266978404718 466.79109269862454" stroke="rgb(132, 0, 0)" fill="none" stroke-width="2.798318627594px" stroke-linecap="round"/><path d="M 667.8072789934572 466.79109269862454 L 667.8072789934572 503.81052553723265" stroke="rgb(132, 0, 0)" fill="none" stroke-width="2.798318627594px" stroke-linecap="round"/><path d="M 705.1126580210256 485.30080911792834 L 760.3558331067902 485.30080911792834" stroke="rgb(132, 0, 0)" fill="none" stroke-width="2.798318627594px" stroke-linecap="round"/><path d="M 665.0248548156682 444.84422949223364 L 651.4051162485259 442.48256050328916 L 656.2046244594575 455.46155406267786" stroke="rgb(132, 0, 0)" fill="none" stroke-width="2.798318627594px" stroke-linecap="round"/><path d="M 675.6220035088078 461.57045152583356 L 673.939724307864 460.3205825108183 L 656.9040502088314 447.66437500512234 L 656.8159031720623 447.53145487031173" stroke="rgb(132, 0, 0)" fill="none" stroke-width="2.798318627594px" stroke-linecap="round"/><path d="M 689.8552174686774 441.8868824170337 L 676.2354789015352 439.5252134280892 L 681.0349871124669 452.5042069874779" stroke="rgb(132, 0, 0)" fill="none" stroke-width="2.798318627594px" stroke-linecap="round"/><path d="M 700.452366161817 458.6131044506336 L 698.7700869608732 457.36323543561844 L 681.7344128618408 444.70702792992245 L 681.6462658250715 444.5741077951118" stroke="rgb(132, 0, 0)" fill="none" stroke-width="2.798318627594px" stroke-linecap="round"/><text x="686.8159076408749" y="514.605336188497" fill="rgb(15, 15, 15)" font-family="sans-serif" text-anchor="middle" dominant-baseline="hanging" font-size="25.184867648346px"></text><text x="686.8159076408749" y="427.651944769341" fill="rgb(15, 15, 15)" font-family="sans-serif" text-anchor="middle" dominant-baseline="auto" font-size="25.184867648346px">LED1</text></g><g data-circuit-json-type="schematic_component" data-schematic-component-id="schematic_component_2"><rect class="component-overlay" x="772.4275297854746" y="228.7073304639801" width="36.024868423581324" height="123.29351297559066" fill="transparent"/><path d="M 790.5097890428203 315.670398621856 L 790.5097890428203 352.00084343957076" stroke="rgb(132, 0, 0)" fill="none" stroke-width="2.798318627594px" stroke-linecap="round"/><path d="M 790.2698751952835 228.7073304639801 L 790.2698751952835 264.84298432202786" stroke="rgb(132, 0, 0)" fill="none" stroke-width="2.798318627594px" stroke-linecap="round"/><path d="M 790.2709665395482 280.94397802466455 L 790.2709665395482 299.5714476918175" stroke="rgb(132, 0, 0)" fill="none" stroke-width="2.798318627594px" stroke-linecap="round"/><path d="M 772.7209195019846 280.6780957802637 L 807.9778593361884 280.6780957802637" stroke="rgb(132, 0, 0)" fill="none" stroke-width="2.798318627594px" stroke-linecap="round"/><path d="M 772.7074455977927 299.84808947134155 L 807.9643854319966 299.84808947134155" stroke="rgb(132, 0, 0)" fill="none" stroke-width="2.798318627594px" stroke-linecap="round"/><path d="M 808.434656868957 300.49811090534536 L 808.434656868957 300.49811090534536 L 807.2556059797669 302.68454151702764 L 806.0333211828225 304.6514239746491 L 804.7722781307014 306.4061261547697 L 803.4769524759813 307.9560159339493 L 802.1518198712399 309.30846118874786 L 800.801355969055 310.47082979572525 L 799.4300364220039 311.4504896314415 L 798.0423368826646 312.25480857245645 L 796.6427330036147 312.89115449533 L 795.2357004374318 313.3668952766222 L 793.8257148366937 313.68939879289286 L 792.417251853978 313.8660329207019 L 791.0147871418623 313.90416553660936 L 789.6227963529244 313.8111645171751 L 788.245755139742 313.59439773895895 L 786.8881391548925 313.26123307852095 L 785.5544240509539 312.81903841242104 L 784.2490854805038 312.27518161721906 L 782.9765990961198 311.637030569475 L 781.7414405503796 310.9119531457487 L 780.5480854958608 310.1073172226002 L 779.4010095851412 309.23049067658934 L 778.3046884707984 308.2888413842761 L 777.2635978054101 307.28973722222037 L 776.282213241554 306.24054606698206 L 775.3650104318077 305.1486357951211 L 774.5164650287489 304.0213742831975 L 773.7410526849554 302.86612940777104 L 773.0432490530047 301.69026904540175 L 772.4275297854746 300.5011610726495 L 772.4275297854746 300.5011610726495" stroke="rgb(132, 0, 0)" fill="none" stroke-width="2.798318627594px" stroke-linecap="round"/><path d="M 808.4523982090559 280.0385120747407 L 808.4523982090559 280.0385120747407 L 807.2733473198658 277.85208146305837 L 806.0510625229214 275.8851990054369 L 804.7900194708003 274.13049682531636 L 803.4946938160803 272.5806070461367 L 802.1695612113389 271.2281617913382 L 800.8190973091538 270.06579318436076 L 799.4477777621028 269.0861333486445 L 798.0600782227635 268.2818144076296 L 796.6604743437135 267.645468484756 L 795.2534417775307 267.1697277034639 L 793.8434561767926 266.8472241871932 L 792.4349931940768 266.6705900593841 L 791.0325284819612 266.63245744347665 L 789.6405376930234 266.725458462911 L 788.2634964798408 266.94222524112706 L 786.9058804949915 267.27538990156506 L 785.5721653910529 267.71758456766497 L 784.2668268206027 268.26144136286695 L 782.9943404362186 268.89959241061104 L 781.7591818904784 269.6246698343373 L 780.5658268359597 270.42930575748585 L 779.4187509252401 271.30613230349667 L 778.3224298108973 272.24778159580995 L 777.281339145509 273.2468857578657 L 776.2999545816529 274.296076913104 L 775.3827517719067 275.3879871849649 L 774.5342063688479 276.5152486968886 L 773.7587940250543 277.670493572315 L 773.0609903931036 278.8463539346843 L 772.4452711255734 280.03546190743657 L 772.4452711255734 280.03546190743657" stroke="rgb(132, 0, 0)" fill="none" stroke-width="2.798318627594px" stroke-linecap="round"/><text x="765.3172959762142" y="293.2082390317863" fill="rgb(15, 15, 15)" font-family="sans-serif" text-anchor="end" dominant-baseline="middle" font-size="25.184867648346px">JP1</text></g><g data-circuit-json-type="schematic_component" data-schematic-component-id="schematic_component_3"><rect class="component-overlay" x="628.6785121437637" y="242.59962830593994" width="41.974779413909914" height="27.98318627593997" fill="transparent"/><path d="M 628.6785121437637 256.59122144390994 L 656.6616984197036 256.59122144390994" stroke="rgb(132, 0, 0)" fill="none" stroke-width="2.798318627594px" stroke-linecap="round"/><path d="M 670.6532915576736 242.59962830593994 L 664.5825668107597 243.98523161424185 L 659.714223552525 247.86760581062902 L 657.012496871575 253.4777990713121 L 657.012496871575 259.70464381650777 L 659.714223552525 265.3148370771909 L 664.5825668107597 269.19721127357803 L 670.6532915576736 270.5828145818799" stroke="rgb(132, 0, 0)" fill="none" stroke-width="2.798318627594px" stroke-linecap="round"/><text x="674.1511898421661" y="256.59122144390994" fill="rgb(15, 15, 15)" font-family="sans-serif" text-anchor="start" dominant-baseline="middle" font-size="25.184867648346px">TP1</text></g><g data-circuit-json-type="schematic_component" data-schematic-component-id="schematic_component_4"><rect class="component-overlay" x="561.4748935225576" y="259.38138315080647" width="37.0194328386076" height="148.07768937965142" fill="transparent"/><path d="M 579.9846099418614 407.4590725304579 L 579.9846099418614 370.4396536834434" stroke="rgb(132, 0, 0)" fill="none" stroke-width="2.798318627594px" stroke-linecap="round"/><path d="M 579.9846099418614 296.4008159894141 L 579.9846099418614 259.38138315080647" stroke="rgb(132, 0, 0)" fill="none" stroke-width="2.798318627594px" stroke-linecap="round"/><path d="M 561.4748935225576 333.4202488280219 L 561.4748935225576 296.4008299810074 L 598.4943263611652 296.4008299810074 L 598.4943263611652 370.4396816666298 L 561.4748935225576 370.4396816666298 L 561.4748935225576 333.4202488280222" stroke="rgb(132, 0, 0)" fill="none" stroke-width="2.798318627594px" stroke-linecap="round"/><text x="618.5477842219576" y="313.4564421002615" fill="rgb(15, 15, 15)" font-family="sans-serif" text-anchor="start" dominant-baseline="middle" font-size="25.184867648346px">R7</text><text x="618.5477842219576" y="358.2295401417655" fill="rgb(15, 15, 15)" font-family="sans-serif" text-anchor="start" dominant-baseline="middle" font-size="25.184867648346px">1kΩ</text></g><g class="trace" data-circuit-json-type="schematic_trace" data-schematic-trace-id="schematic_trace_0"><path d="M 790.3860613847012 352.69567994639544 L 776.1130963247665 352.69567994639544 L 776.1130963247665 485.40385720138977 L 761.8401312648318 485.40385720138977" class="trace-invisible-hover-outline" stroke="rgb(0, 150, 0)" fill="none" stroke-width="22.386549020752px" stroke-linecap="round" opacity="0" stroke-linejoin="round"/><path d="M 790.3860613847012 352.69567994639544 L 776.1130963247665 352.69567994639544 L 776.1130963247665 485.40385720138977 L 761.8401312648318 485.40385720138977" stroke="rgb(0, 150, 0)" fill="none" stroke-width="2.798318627594px" stroke-linecap="round" stroke-linejoin="round"/></g><g class="trace" data-circuit-json-type="schematic_trace" data-schematic-trace-id="schematic_trace_1"><path d="M 580.1109120531181 256.2601105704019 L 552.633104766619 256.2601105704019 L 552.633104766619 256.53119632027 L 525.15529748012 256.53119632027" class="trace-invisible-hover-outline" stroke="rgb(0, 150, 0)" fill="none" stroke-width="22.386549020752px" stroke-linecap="round" opacity="0" stroke-linejoin="round"/><path d="M 580.1109120531181 256.2601105704019 L 552.633104766619 256.2601105704019 L 552.633104766619 256.53119632027 L 525.15529748012 256.53119632027" stroke="rgb(0, 150, 0)" fill="none" stroke-width="2.798318627594px" stroke-linecap="round" stroke-linejoin="round"/></g><g class="trace" data-circuit-json-type="schematic_trace" data-schematic-trace-id="schematic_trace_2"><path d="M 580.1109120531181 256.2601105704019 L 604.3947120984408 256.2601105704019 L 604.3947120984408 256.59122144390994 L 628.6785121437636 256.59122144390994" class="trace-invisible-hover-outline" stroke="rgb(0, 150, 0)" fill="none" stroke-width="22.386549020752px" stroke-linecap="round" opacity="0" stroke-linejoin="round"/><path d="M 580.1109120531181 256.2601105704019 L 604.3947120984408 256.2601105704019 L 604.3947120984408 256.59122144390994 L 628.6785121437636 256.59122144390994" stroke="rgb(0, 150, 0)" fill="none" stroke-width="2.798318627594px" stroke-linecap="round" stroke-linejoin="round"/></g><g class="trace" data-circuit-json-type="schematic_trace" data-schematic-trace-id="schematic_trace_3"><path d="M 580.0344479966193 410.5288140733355 L 595.9130660067686 410.5288140733355 L 595.9130660067686 485.46730907627085 L 611.791684016918 485.46730907627085" class="trace-invisible-hover-outline" stroke="rgb(0, 150, 0)" fill="none" stroke-width="22.386549020752px" stroke-linecap="round" opacity="0" stroke-linejoin="round"/><path d="M 580.0344479966193 410.5288140733355 L 595.9130660067686 410.5288140733355 L 595.9130660067686 485.46730907627085 L 611.791684016918 485.46730907627085" stroke="rgb(0, 150, 0)" fill="none" stroke-width="2.798318627594px" stroke-linecap="round" stroke-linejoin="round"/></g><g class="trace" data-circuit-json-type="schematic_trace" data-schematic-trace-id="schematic_trace_4"><path d="M 525.15529748012 228.54801004433 L 721.0376014117 228.54801004433 L 721.0376014117 186.57323063042" class="trace-invisible-hover-outline" stroke="rgb(0, 150, 0)" fill="none" stroke-width="22.386549020752px" stroke-linecap="round" opacity="0" stroke-linejoin="round"/><path d="M 525.15529748012 228.54801004433 L 721.0376014117 228.54801004433 L 721.0376014117 186.57323063042" stroke="rgb(0, 150, 0)" fill="none" stroke-width="2.798318627594px" stroke-linecap="round" stroke-linejoin="round"/></g><g class="trace" data-circuit-json-type="schematic_trace" data-schematic-trace-id="schematic_trace_5"><path d="M 790.4034669265648 227.94641166276472 L 721.0376014117 227.94641166276472 L 721.0376014117 186.57323063042" class="trace-invisible-hover-outline" stroke="rgb(0, 150, 0)" fill="none" stroke-width="22.386549020752px" stroke-linecap="round" opacity="0" stroke-linejoin="round"/><path d="M 790.4034669265648 227.94641166276472 L 721.0376014117 227.94641166276472 L 721.0376014117 186.57323063042" stroke="rgb(0, 150, 0)" fill="none" stroke-width="2.798318627594px" stroke-linecap="round" stroke-linejoin="round"/></g><rect class="component-overlay" x="707.971482201841" y="127.17774246591367" width="25.923553808064867" height="57.30423469613967" fill="transparent"/><path d="M 720.72847115291 127.17774246591367 L 707.971482201841 153.911577415785" stroke="rgb(132, 0, 0)" fill="none" stroke-width="2.798318627594px" stroke-linecap="round"/><path d="M 721.1380470588374 127.1916780926791 L 733.8950360099059 153.9255830005161" stroke="rgb(132, 0, 0)" fill="none" stroke-width="2.798318627594px" stroke-linecap="round"/><path d="M 720.8760964521084 127.88315661715077 L 720.8760964521084 184.48197716205334" stroke="rgb(132, 0, 0)" fill="none" stroke-width="2.798318627594px" stroke-linecap="round"/><text x="720.25026648264" y="118.97850098794572" fill="rgb(15, 15, 15)" font-family="sans-serif" text-anchor="middle" dominant-baseline="ideographic" font-size="25.184867648346px">V_BATT</text></svg>